<?xml version="1.0" encoding="utf-8" standalone="no"?>
<!DOCTYPE svg PUBLIC "-//W3C//DTD SVG 1.1//EN"
  "http://www.w3.org/Graphics/SVG/1.1/DTD/svg11.dtd">
<svg xmlns:xlink="http://www.w3.org/1999/xlink" width="268.176875pt" height="179.262188pt" viewBox="0 0 268.176875 179.262188" xmlns="http://www.w3.org/2000/svg" version="1.1">
 <metadata>
  <rdf:RDF xmlns:dc="http://purl.org/dc/elements/1.1/" xmlns:cc="http://creativecommons.org/ns#" xmlns:rdf="http://www.w3.org/1999/02/22-rdf-syntax-ns#">
   <cc:Work>
    <dc:type rdf:resource="http://purl.org/dc/dcmitype/StillImage"/>
    <dc:date>2026-06-15T09:57:22.641769</dc:date>
    <dc:format>image/svg+xml</dc:format>
    <dc:creator>
     <cc:Agent>
      <dc:title>Matplotlib v3.9.4, https://matplotlib.org/</dc:title>
     </cc:Agent>
    </dc:creator>
   </cc:Work>
  </rdf:RDF>
 </metadata>
 <defs>
  <style type="text/css">*{stroke-linejoin: round; stroke-linecap: butt}</style>
 </defs>
 <g id="figure_1">
  <g id="patch_1">
   <path d="M -0 179.262188 
L 268.176875 179.262188 
L 268.176875 0 
L -0 0 
L -0 179.262188 
z
" style="fill: none"/>
  </g>
  <g id="axes_1">
   <g id="patch_2">
    <path d="M 35.043438 145.8 
L 233.133438 145.8 
L 233.133438 7.2 
L 35.043438 7.2 
L 35.043438 145.8 
z
" style="fill: none"/>
   </g>
   <g id="matplotlib.axis_1">
    <g id="xtick_1">
     <g id="line2d_1">
      <defs>
       <path id="m54c860231e" d="M 0 0 
L 0 3 
" style="stroke: #000000"/>
      </defs>
      <g>
       <use xlink:href="#m54c860231e" x="60.685522" y="145.8" style="stroke: #000000"/>
      </g>
     </g>
     <g id="text_1">
      <text style="font: 8px 'Arial'; text-anchor: middle" x="60.685522" y="158.02625" transform="rotate(-0 60.685522 158.02625)">2017</text>
     </g>
    </g>
    <g id="xtick_2">
     <g id="line2d_2">
      <g>
       <use xlink:href="#m54c860231e" x="109.620799" y="145.8" style="stroke: #000000"/>
      </g>
     </g>
     <g id="text_2">
      <text style="font: 8px 'Arial'; text-anchor: middle" x="109.620799" y="158.02625" transform="rotate(-0 109.620799 158.02625)">2019</text>
     </g>
    </g>
    <g id="xtick_3">
     <g id="line2d_3">
      <g>
       <use xlink:href="#m54c860231e" x="158.556076" y="145.8" style="stroke: #000000"/>
      </g>
     </g>
     <g id="text_3">
      <text style="font: 8px 'Arial'; text-anchor: middle" x="158.556076" y="158.02625" transform="rotate(-0 158.556076 158.02625)">2021</text>
     </g>
    </g>
    <g id="xtick_4">
     <g id="line2d_4">
      <g>
       <use xlink:href="#m54c860231e" x="207.491353" y="145.8" style="stroke: #000000"/>
      </g>
     </g>
     <g id="text_4">
      <text style="font: 8px 'Arial'; text-anchor: middle" x="207.491353" y="158.02625" transform="rotate(-0 207.491353 158.02625)">2023</text>
     </g>
    </g>
    <g id="text_5">
     <text style="font: 9px 'Arial'; text-anchor: middle" x="134.088437" y="170.167969" transform="rotate(-0 134.088437 170.167969)">Cutoff year</text>
    </g>
   </g>
   <g id="matplotlib.axis_2">
    <g id="ytick_1">
     <g id="line2d_5">
      <path d="M 35.043438 145.8 
L 233.133438 145.8 
" clip-path="url(#pa149a7f9fe)" style="fill: none; stroke: #d9d9d9; stroke-opacity: 0.75; stroke-width: 0.6; stroke-linecap: square"/>
     </g>
     <g id="line2d_6">
      <defs>
       <path id="m51437573be" d="M 0 0 
L -3 0 
" style="stroke: #000000"/>
      </defs>
      <g>
       <use xlink:href="#m51437573be" x="35.043438" y="145.8" style="stroke: #000000"/>
      </g>
     </g>
     <g id="text_6">
      <text style="font: 8px 'Arial'; text-anchor: end" x="28.543438" y="148.663125" transform="rotate(-0 28.543438 148.663125)">0</text>
     </g>
    </g>
    <g id="ytick_2">
     <g id="line2d_7">
      <path d="M 35.043438 119.146154 
L 233.133438 119.146154 
" clip-path="url(#pa149a7f9fe)" style="fill: none; stroke: #d9d9d9; stroke-opacity: 0.75; stroke-width: 0.6; stroke-linecap: square"/>
     </g>
     <g id="line2d_8">
      <g>
       <use xlink:href="#m51437573be" x="35.043438" y="119.146154" style="stroke: #000000"/>
      </g>
     </g>
     <g id="text_7">
      <text style="font: 8px 'Arial'; text-anchor: end" x="28.543438" y="122.009279" transform="rotate(-0 28.543438 122.009279)">5</text>
     </g>
    </g>
    <g id="ytick_3">
     <g id="line2d_9">
      <path d="M 35.043438 92.492308 
L 233.133438 92.492308 
" clip-path="url(#pa149a7f9fe)" style="fill: none; stroke: #d9d9d9; stroke-opacity: 0.75; stroke-width: 0.6; stroke-linecap: square"/>
     </g>
     <g id="line2d_10">
      <g>
       <use xlink:href="#m51437573be" x="35.043438" y="92.492308" style="stroke: #000000"/>
      </g>
     </g>
     <g id="text_8">
      <text style="font: 8px 'Arial'; text-anchor: end" x="28.543438" y="95.355433" transform="rotate(-0 28.543438 95.355433)">10</text>
     </g>
    </g>
    <g id="ytick_4">
     <g id="line2d_11">
      <path d="M 35.043438 65.838462 
L 233.133438 65.838462 
" clip-path="url(#pa149a7f9fe)" style="fill: none; stroke: #d9d9d9; stroke-opacity: 0.75; stroke-width: 0.6; stroke-linecap: square"/>
     </g>
     <g id="line2d_12">
      <g>
       <use xlink:href="#m51437573be" x="35.043438" y="65.838462" style="stroke: #000000"/>
      </g>
     </g>
     <g id="text_9">
      <text style="font: 8px 'Arial'; text-anchor: end" x="28.543438" y="68.701587" transform="rotate(-0 28.543438 68.701587)">15</text>
     </g>
    </g>
    <g id="ytick_5">
     <g id="line2d_13">
      <path d="M 35.043438 39.184615 
L 233.133438 39.184615 
" clip-path="url(#pa149a7f9fe)" style="fill: none; stroke: #d9d9d9; stroke-opacity: 0.75; stroke-width: 0.6; stroke-linecap: square"/>
     </g>
     <g id="line2d_14">
      <g>
       <use xlink:href="#m51437573be" x="35.043438" y="39.184615" style="stroke: #000000"/>
      </g>
     </g>
     <g id="text_10">
      <text style="font: 8px 'Arial'; text-anchor: end" x="28.543438" y="42.04774" transform="rotate(-0 28.543438 42.04774)">20</text>
     </g>
    </g>
    <g id="ytick_6">
     <g id="line2d_15">
      <path d="M 35.043438 12.530769 
L 233.133438 12.530769 
" clip-path="url(#pa149a7f9fe)" style="fill: none; stroke: #d9d9d9; stroke-opacity: 0.75; stroke-width: 0.6; stroke-linecap: square"/>
     </g>
     <g id="line2d_16">
      <g>
       <use xlink:href="#m51437573be" x="35.043438" y="12.530769" style="stroke: #000000"/>
      </g>
     </g>
     <g id="text_11">
      <text style="font: 8px 'Arial'; text-anchor: end" x="28.543438" y="15.393894" transform="rotate(-0 28.543438 15.393894)">25</text>
     </g>
    </g>
    <g id="text_12">
     <text style="font: 9px 'Arial'; text-anchor: middle" x="13.751719" y="76.5" transform="rotate(-90 13.751719 76.5)">Recovered future additives (%)</text>
    </g>
   </g>
   <g id="patch_3">
    <path d="M 35.043438 145.8 
L 35.043438 7.2 
" style="fill: none; stroke: #000000; stroke-linejoin: miter; stroke-linecap: square"/>
   </g>
   <g id="patch_4">
    <path d="M 233.133438 145.8 
L 233.133438 7.2 
" style="fill: none; stroke: #000000; stroke-linejoin: miter; stroke-linecap: square"/>
   </g>
   <g id="patch_5">
    <path d="M 35.043438 145.8 
L 233.133438 145.8 
" style="fill: none; stroke: #000000; stroke-linejoin: miter; stroke-linecap: square"/>
   </g>
   <g id="patch_6">
    <path d="M 44.047528 145.8 
L 60.685522 145.8 
L 60.685522 145.66079 
L 44.047528 145.66079 
z
" clip-path="url(#pa149a7f9fe)" style="fill: #ffffff; stroke: #666666; stroke-width: 1.1; stroke-linejoin: miter"/>
   </g>
   <g id="patch_7">
    <path d="M 92.982805 145.8 
L 109.620799 145.8 
L 109.620799 145.672638 
L 92.982805 145.672638 
z
" clip-path="url(#pa149a7f9fe)" style="fill: #ffffff; stroke: #666666; stroke-width: 1.1; stroke-linejoin: miter"/>
   </g>
   <g id="patch_8">
    <path d="M 141.918082 145.8 
L 158.556076 145.8 
L 158.556076 145.699295 
L 141.918082 145.699295 
z
" clip-path="url(#pa149a7f9fe)" style="fill: #ffffff; stroke: #666666; stroke-width: 1.1; stroke-linejoin: miter"/>
   </g>
   <g id="patch_9">
    <path d="M 190.853358 145.8 
L 207.491353 145.8 
L 207.491353 145.740762 
L 190.853358 145.740762 
z
" clip-path="url(#pa149a7f9fe)" style="fill: #ffffff; stroke: #666666; stroke-width: 1.1; stroke-linejoin: miter"/>
   </g>
   <g id="patch_10">
    <path d="M 60.685522 145.8 
L 77.323517 145.8 
L 77.323517 89.089689 
L 60.685522 89.089689 
z
" clip-path="url(#pa149a7f9fe)" style="fill: #3b6ea8; stroke: #ffffff; stroke-width: 0.8; stroke-linejoin: miter"/>
   </g>
   <g id="patch_11">
    <path d="M 109.620799 145.8 
L 126.258793 145.8 
L 126.258793 83.814311 
L 109.620799 83.814311 
z
" clip-path="url(#pa149a7f9fe)" style="fill: #3b6ea8; stroke: #ffffff; stroke-width: 0.8; stroke-linejoin: miter"/>
   </g>
   <g id="patch_12">
    <path d="M 158.556076 145.8 
L 175.19407 145.8 
L 175.19407 98.763801 
L 158.556076 98.763801 
z
" clip-path="url(#pa149a7f9fe)" style="fill: #3b6ea8; stroke: #ffffff; stroke-width: 0.8; stroke-linejoin: miter"/>
   </g>
   <g id="patch_13">
    <path d="M 207.491353 145.8 
L 224.129347 145.8 
L 224.129347 39.184615 
L 207.491353 39.184615 
z
" clip-path="url(#pa149a7f9fe)" style="fill: #3b6ea8; stroke: #ffffff; stroke-width: 0.8; stroke-linejoin: miter"/>
   </g>
   <g id="text_13">
    <text style="fill: #666666; font: 6.8px 'Arial'" transform="translate(54.124432 143.528482) rotate(-90)">0.026%</text>
   </g>
   <g id="text_14">
    <text style="fill: #3b6ea8; font: 700 8px 'Arial'; text-anchor: middle" x="69.00452" y="85.378631" transform="rotate(-0 69.00452 85.378631)">10.6%</text>
   </g>
   <g id="text_15">
    <text style="fill: #666666; font: 6.8px 'Arial'" transform="translate(103.059708 143.54033) rotate(-90)">0.024%</text>
   </g>
   <g id="text_16">
    <text style="fill: #3b6ea8; font: 700 8px 'Arial'; text-anchor: middle" x="117.939796" y="80.103254" transform="rotate(-0 117.939796 80.103254)">11.6%</text>
   </g>
   <g id="text_17">
    <text style="fill: #666666; font: 6.8px 'Arial'" transform="translate(151.994985 143.566987) rotate(-90)">0.019%</text>
   </g>
   <g id="text_18">
    <text style="fill: #3b6ea8; font: 700 8px 'Arial'; text-anchor: middle" x="166.875073" y="95.052743" transform="rotate(-0 166.875073 95.052743)">8.8%</text>
   </g>
   <g id="text_19">
    <text style="fill: #666666; font: 6.8px 'Arial'" transform="translate(200.930262 143.608454) rotate(-90)">0.011%</text>
   </g>
   <g id="text_20">
    <text style="fill: #3b6ea8; font: 700 8px 'Arial'; text-anchor: middle" x="215.81035" y="35.473558" transform="rotate(-0 215.81035 35.473558)">20.0%</text>
   </g>
   <g id="legend_1">
    <g id="patch_14">
     <path d="M 183.576719 18.510469 
L 197.576719 18.510469 
L 197.576719 13.610469 
L 183.576719 13.610469 
z
" style="fill: #ffffff; stroke: #666666; stroke-width: 1.1; stroke-linejoin: miter"/>
    </g>
    <g id="text_21">
     <text style="font: 7px 'Arial'; text-anchor: start" x="200.376719" y="18.510469" transform="rotate(-0 200.376719 18.510469)">Random</text>
    </g>
    <g id="patch_15">
     <path d="M 183.576719 28.412188 
L 197.576719 28.412188 
L 197.576719 23.512188 
L 183.576719 23.512188 
z
" style="fill: #3b6ea8; stroke: #ffffff; stroke-width: 0.8; stroke-linejoin: miter"/>
    </g>
    <g id="text_22">
     <text style="font: 7px 'Arial'; text-anchor: start" x="200.376719" y="28.412188" transform="rotate(-0 200.376719 28.412188)">ProtoMI</text>
    </g>
    <g id="line2d_17">
     <path d="M 183.576719 35.863906 
L 190.576719 35.863906 
L 197.576719 35.863906 
" style="fill: none; stroke: #b2182b; stroke-width: 1.8; stroke-linecap: square"/>
     <defs>
      <path id="mffe19628cb" d="M 0 2.25 
C 0.596707 2.25 1.169055 2.012926 1.59099 1.59099 
C 2.012926 1.169055 2.25 0.596707 2.25 0 
C 2.25 -0.596707 2.012926 -1.169055 1.59099 -1.59099 
C 1.169055 -2.012926 0.596707 -2.25 0 -2.25 
C -0.596707 -2.25 -1.169055 -2.012926 -1.59099 -1.59099 
C -2.012926 -1.169055 -2.25 -0.596707 -2.25 0 
C -2.25 0.596707 -2.012926 1.169055 -1.59099 1.59099 
C -1.169055 2.012926 -0.596707 2.25 0 2.25 
z
" style="stroke: #b2182b; stroke-width: 1.3"/>
     </defs>
     <g>
      <use xlink:href="#mffe19628cb" x="190.576719" y="35.863906" style="fill: #ffffff; stroke: #b2182b; stroke-width: 1.3"/>
     </g>
    </g>
    <g id="text_23">
     <text style="font: 7px 'Arial'; text-anchor: start" x="200.376719" y="38.313906" transform="rotate(-0 200.376719 38.313906)">EF</text>
    </g>
   </g>
  </g>
  <g id="axes_2">
   <g id="matplotlib.axis_3">
    <g id="ytick_7">
     <g id="line2d_18">
      <defs>
       <path id="mc3c9140df9" d="M 0 0 
L 3 0 
" style="stroke: #b2182b"/>
      </defs>
      <g>
       <use xlink:href="#mc3c9140df9" x="233.133438" y="145.8" style="fill: #b2182b; stroke: #b2182b"/>
      </g>
     </g>
     <g id="text_24">
      <text style="fill: #b2182b; font: 8px 'Arial'; text-anchor: start" x="239.633438" y="148.663125" transform="rotate(-0 239.633438 148.663125)">0</text>
     </g>
    </g>
    <g id="ytick_8">
     <g id="line2d_19">
      <g>
       <use xlink:href="#mc3c9140df9" x="233.133438" y="121.501855" style="fill: #b2182b; stroke: #b2182b"/>
      </g>
     </g>
     <g id="text_25">
      <text style="fill: #b2182b; font: 8px 'Arial'; text-anchor: start" x="239.633438" y="124.36498" transform="rotate(-0 239.633438 124.36498)">10</text>
     </g>
    </g>
    <g id="ytick_9">
     <g id="line2d_20">
      <g>
       <use xlink:href="#mc3c9140df9" x="233.133438" y="97.20371" style="fill: #b2182b; stroke: #b2182b"/>
      </g>
     </g>
     <g id="text_26">
      <text style="fill: #b2182b; font: 8px 'Arial'; text-anchor: start" x="239.633438" y="100.066835" transform="rotate(-0 239.633438 100.066835)">20</text>
     </g>
    </g>
    <g id="ytick_10">
     <g id="line2d_21">
      <g>
       <use xlink:href="#mc3c9140df9" x="233.133438" y="72.905566" style="fill: #b2182b; stroke: #b2182b"/>
      </g>
     </g>
     <g id="text_27">
      <text style="fill: #b2182b; font: 8px 'Arial'; text-anchor: start" x="239.633438" y="75.768691" transform="rotate(-0 239.633438 75.768691)">30</text>
     </g>
    </g>
    <g id="ytick_11">
     <g id="line2d_22">
      <g>
       <use xlink:href="#mc3c9140df9" x="233.133438" y="48.607421" style="fill: #b2182b; stroke: #b2182b"/>
      </g>
     </g>
     <g id="text_28">
      <text style="fill: #b2182b; font: 8px 'Arial'; text-anchor: start" x="239.633438" y="51.470546" transform="rotate(-0 239.633438 51.470546)">40</text>
     </g>
    </g>
    <g id="ytick_12">
     <g id="line2d_23">
      <g>
       <use xlink:href="#mc3c9140df9" x="233.133438" y="24.309276" style="fill: #b2182b; stroke: #b2182b"/>
      </g>
     </g>
     <g id="text_29">
      <text style="fill: #b2182b; font: 8px 'Arial'; text-anchor: start" x="239.633438" y="27.172401" transform="rotate(-0 239.633438 27.172401)">50</text>
     </g>
    </g>
    <g id="text_30">
     <text style="fill: #b2182b; font: 9px 'Arial'; text-anchor: middle" x="259.082656" y="76.5" transform="rotate(-90 259.082656 76.5)">Enrichment factor (×)</text>
    </g>
   </g>
   <g id="patch_16">
    <path d="M 233.133438 145.8 
L 233.133438 7.2 
" style="fill: none; stroke: #000000; stroke-linejoin: miter; stroke-linecap: square"/>
   </g>
   <g id="patch_17">
    <path d="M 35.043438 145.8 
L 233.133438 145.8 
" style="fill: none; stroke: #000000; stroke-linejoin: miter; stroke-linecap: square"/>
   </g>
   <g id="text_31">
    <text style="fill: #b2182b; font: 700 7.5px 'Arial'; text-anchor: middle" x="60.685522" y="117.772176" transform="rotate(-0 60.685522 117.772176)">10.5×</text>
   </g>
   <g id="text_32">
    <text style="fill: #b2182b; font: 700 7.5px 'Arial'; text-anchor: middle" x="109.620799" y="121.035542" transform="rotate(-0 109.620799 121.035542)">9.2×</text>
   </g>
   <g id="text_33">
    <text style="fill: #b2182b; font: 700 7.5px 'Arial'; text-anchor: middle" x="158.556076" y="32.467996" transform="rotate(-0 158.556076 32.467996)">45.6×</text>
   </g>
   <g id="text_34">
    <text style="fill: #b2182b; font: 700 7.5px 'Arial'; text-anchor: middle" x="207.491353" y="37.333276" transform="rotate(-0 207.491353 37.333276)">43.6×</text>
   </g>
   <g id="line2d_24">
    <path d="M 60.685522 120.22418 
L 109.620799 123.487546 
L 158.556076 34.92 
L 207.491353 39.78528 
" clip-path="url(#pa149a7f9fe)" style="fill: none; stroke: #b2182b; stroke-width: 1.8; stroke-linecap: square"/>
    <g clip-path="url(#pa149a7f9fe)">
     <use xlink:href="#mffe19628cb" x="60.685522" y="120.22418" style="fill: #ffffff; stroke: #b2182b; stroke-width: 1.3"/>
     <use xlink:href="#mffe19628cb" x="109.620799" y="123.487546" style="fill: #ffffff; stroke: #b2182b; stroke-width: 1.3"/>
     <use xlink:href="#mffe19628cb" x="158.556076" y="34.92" style="fill: #ffffff; stroke: #b2182b; stroke-width: 1.3"/>
     <use xlink:href="#mffe19628cb" x="207.491353" y="39.78528" style="fill: #ffffff; stroke: #b2182b; stroke-width: 1.3"/>
    </g>
   </g>
  </g>
 </g>
 <defs>
  <clipPath id="pa149a7f9fe">
   <rect x="35.043438" y="7.2" width="198.09" height="138.6"/>
  </clipPath>
 </defs>
</svg>
