<?xml version="1.0" encoding="utf-8" standalone="no"?>
<!DOCTYPE svg PUBLIC "-//W3C//DTD SVG 1.1//EN"
  "http://www.w3.org/Graphics/SVG/1.1/DTD/svg11.dtd">
<svg xmlns:xlink="http://www.w3.org/1999/xlink" width="245.913438pt" height="182.034188pt" viewBox="0 0 245.913438 182.034188" xmlns="http://www.w3.org/2000/svg" version="1.1">
 <metadata>
  <rdf:RDF xmlns:dc="http://purl.org/dc/elements/1.1/" xmlns:cc="http://creativecommons.org/ns#" xmlns:rdf="http://www.w3.org/1999/02/22-rdf-syntax-ns#">
   <cc:Work>
    <dc:type rdf:resource="http://purl.org/dc/dcmitype/StillImage"/>
    <dc:date>2026-06-15T10:43:34.515601</dc:date>
    <dc:format>image/svg+xml</dc:format>
    <dc:creator>
     <cc:Agent>
      <dc:title>Matplotlib v3.9.4, https://matplotlib.org/</dc:title>
     </cc:Agent>
    </dc:creator>
   </cc:Work>
  </rdf:RDF>
 </metadata>
 <defs>
  <style type="text/css">*{stroke-linejoin: round; stroke-linecap: butt}</style>
 </defs>
 <g id="figure_1">
  <g id="patch_1">
   <path d="M 0 182.034188 
L 245.913438 182.034188 
L 245.913438 0 
L 0 0 
L 0 182.034188 
z
" style="fill: none"/>
  </g>
  <g id="axes_1">
   <g id="patch_2">
    <path d="M 35.043438 148.572 
L 238.713438 148.572 
L 238.713438 7.2 
L 35.043438 7.2 
L 35.043438 148.572 
z
" style="fill: none"/>
   </g>
   <g id="line2d_1">
    <path d="M 172.404133 148.572 
L 172.404133 7.2 
" clip-path="url(#pdede695b95)" style="fill: none; stroke-dasharray: 2.96,1.28; stroke-dashoffset: 0; stroke: #666666; stroke-opacity: 0.65; stroke-width: 0.8"/>
   </g>
   <g id="line2d_2">
    <path d="M 74.378353 103.376348 
L 125.871404 46.128522 
L 173.038148 94.080788 
L 186.487357 89.011838 
" clip-path="url(#pdede695b95)" style="fill: none; stroke: #d9d9d9; stroke-width: 2.2; stroke-linecap: square"/>
   </g>
   <g id="matplotlib.axis_1">
    <g id="xtick_1">
     <g id="line2d_3">
      <path d="M 35.043438 148.572 
L 35.043438 7.2 
" clip-path="url(#pdede695b95)" style="fill: none; stroke: #d9d9d9; stroke-opacity: 0.75; stroke-width: 0.6; stroke-linecap: square"/>
     </g>
     <g id="line2d_4">
      <defs>
       <path id="m329c62885e" d="M 0 0 
L 0 3 
" style="stroke: #000000"/>
      </defs>
      <g>
       <use xlink:href="#m329c62885e" x="35.043438" y="148.572" style="stroke: #000000"/>
      </g>
     </g>
     <g id="text_1">
      <text style="font: 8px 'Arial'; text-anchor: middle" x="35.043438" y="160.79825" transform="rotate(-0 35.043438 160.79825)">0.1</text>
     </g>
    </g>
    <g id="xtick_2">
     <g id="line2d_5">
      <path d="M 76.393127 148.572 
L 76.393127 7.2 
" clip-path="url(#pdede695b95)" style="fill: none; stroke: #d9d9d9; stroke-opacity: 0.75; stroke-width: 0.6; stroke-linecap: square"/>
     </g>
     <g id="line2d_6">
      <g>
       <use xlink:href="#m329c62885e" x="76.393127" y="148.572" style="stroke: #000000"/>
      </g>
     </g>
     <g id="text_2">
      <text style="font: 8px 'Arial'; text-anchor: middle" x="76.393127" y="160.79825" transform="rotate(-0 76.393127 160.79825)">0.2</text>
     </g>
    </g>
    <g id="xtick_3">
     <g id="line2d_7">
      <path d="M 131.054444 148.572 
L 131.054444 7.2 
" clip-path="url(#pdede695b95)" style="fill: none; stroke: #d9d9d9; stroke-opacity: 0.75; stroke-width: 0.6; stroke-linecap: square"/>
     </g>
     <g id="line2d_8">
      <g>
       <use xlink:href="#m329c62885e" x="131.054444" y="148.572" style="stroke: #000000"/>
      </g>
     </g>
     <g id="text_3">
      <text style="font: 8px 'Arial'; text-anchor: middle" x="131.054444" y="160.79825" transform="rotate(-0 131.054444 160.79825)">0.5</text>
     </g>
    </g>
    <g id="xtick_4">
     <g id="line2d_9">
      <path d="M 172.404133 148.572 
L 172.404133 7.2 
" clip-path="url(#pdede695b95)" style="fill: none; stroke: #d9d9d9; stroke-opacity: 0.75; stroke-width: 0.6; stroke-linecap: square"/>
     </g>
     <g id="line2d_10">
      <g>
       <use xlink:href="#m329c62885e" x="172.404133" y="148.572" style="stroke: #000000"/>
      </g>
     </g>
     <g id="text_4">
      <text style="font: 8px 'Arial'; text-anchor: middle" x="172.404133" y="160.79825" transform="rotate(-0 172.404133 160.79825)">1</text>
     </g>
    </g>
    <g id="xtick_5">
     <g id="line2d_11">
      <path d="M 213.753823 148.572 
L 213.753823 7.2 
" clip-path="url(#pdede695b95)" style="fill: none; stroke: #d9d9d9; stroke-opacity: 0.75; stroke-width: 0.6; stroke-linecap: square"/>
     </g>
     <g id="line2d_12">
      <g>
       <use xlink:href="#m329c62885e" x="213.753823" y="148.572" style="stroke: #000000"/>
      </g>
     </g>
     <g id="text_5">
      <text style="font: 8px 'Arial'; text-anchor: middle" x="213.753823" y="160.79825" transform="rotate(-0 213.753823 160.79825)">2</text>
     </g>
    </g>
    <g id="xtick_6">
     <g id="line2d_13">
      <defs>
       <path id="m69c31e58d7" d="M 0 0 
L 0 2 
" style="stroke: #000000; stroke-width: 0.6"/>
      </defs>
      <g>
       <use xlink:href="#m69c31e58d7" x="100.581145" y="148.572" style="stroke: #000000; stroke-width: 0.6"/>
      </g>
     </g>
    </g>
    <g id="xtick_7">
     <g id="line2d_14">
      <g>
       <use xlink:href="#m69c31e58d7" x="117.742817" y="148.572" style="stroke: #000000; stroke-width: 0.6"/>
      </g>
     </g>
    </g>
    <g id="xtick_8">
     <g id="line2d_15">
      <g>
       <use xlink:href="#m69c31e58d7" x="141.930835" y="148.572" style="stroke: #000000; stroke-width: 0.6"/>
      </g>
     </g>
    </g>
    <g id="xtick_9">
     <g id="line2d_16">
      <g>
       <use xlink:href="#m69c31e58d7" x="151.126692" y="148.572" style="stroke: #000000; stroke-width: 0.6"/>
      </g>
     </g>
    </g>
    <g id="xtick_10">
     <g id="line2d_17">
      <g>
       <use xlink:href="#m69c31e58d7" x="159.092506" y="148.572" style="stroke: #000000; stroke-width: 0.6"/>
      </g>
     </g>
    </g>
    <g id="xtick_11">
     <g id="line2d_18">
      <g>
       <use xlink:href="#m69c31e58d7" x="166.118853" y="148.572" style="stroke: #000000; stroke-width: 0.6"/>
      </g>
     </g>
    </g>
    <g id="xtick_12">
     <g id="line2d_19">
      <g>
       <use xlink:href="#m69c31e58d7" x="237.941841" y="148.572" style="stroke: #000000; stroke-width: 0.6"/>
      </g>
     </g>
    </g>
    <g id="text_6">
     <text style="font: 9px 'Arial'; text-anchor: middle" x="136.878438" y="172.939969" transform="rotate(-0 136.878438 172.939969)">Experimental budget (% candidate space)</text>
    </g>
   </g>
   <g id="matplotlib.axis_2">
    <g id="ytick_1">
     <g id="line2d_20">
      <path d="M 35.043438 148.572 
L 238.713438 148.572 
" clip-path="url(#pdede695b95)" style="fill: none; stroke: #d9d9d9; stroke-opacity: 0.75; stroke-width: 0.6; stroke-linecap: square"/>
     </g>
     <g id="line2d_21">
      <defs>
       <path id="mb5811a9bc7" d="M 0 0 
L -3 0 
" style="stroke: #000000"/>
      </defs>
      <g>
       <use xlink:href="#mb5811a9bc7" x="35.043438" y="148.572" style="stroke: #000000"/>
      </g>
     </g>
     <g id="text_7">
      <text style="font: 8px 'Arial'; text-anchor: end" x="28.543438" y="151.435125" transform="rotate(-0 28.543438 151.435125)">0</text>
     </g>
    </g>
    <g id="ytick_2">
     <g id="line2d_22">
      <path d="M 35.043438 122.96113 
L 238.713438 122.96113 
" clip-path="url(#pdede695b95)" style="fill: none; stroke: #d9d9d9; stroke-opacity: 0.75; stroke-width: 0.6; stroke-linecap: square"/>
     </g>
     <g id="line2d_23">
      <g>
       <use xlink:href="#mb5811a9bc7" x="35.043438" y="122.96113" style="stroke: #000000"/>
      </g>
     </g>
     <g id="text_8">
      <text style="font: 8px 'Arial'; text-anchor: end" x="28.543438" y="125.824255" transform="rotate(-0 28.543438 125.824255)">5</text>
     </g>
    </g>
    <g id="ytick_3">
     <g id="line2d_24">
      <path d="M 35.043438 97.350261 
L 238.713438 97.350261 
" clip-path="url(#pdede695b95)" style="fill: none; stroke: #d9d9d9; stroke-opacity: 0.75; stroke-width: 0.6; stroke-linecap: square"/>
     </g>
     <g id="line2d_25">
      <g>
       <use xlink:href="#mb5811a9bc7" x="35.043438" y="97.350261" style="stroke: #000000"/>
      </g>
     </g>
     <g id="text_9">
      <text style="font: 8px 'Arial'; text-anchor: end" x="28.543438" y="100.213386" transform="rotate(-0 28.543438 100.213386)">10</text>
     </g>
    </g>
    <g id="ytick_4">
     <g id="line2d_26">
      <path d="M 35.043438 71.739391 
L 238.713438 71.739391 
" clip-path="url(#pdede695b95)" style="fill: none; stroke: #d9d9d9; stroke-opacity: 0.75; stroke-width: 0.6; stroke-linecap: square"/>
     </g>
     <g id="line2d_27">
      <g>
       <use xlink:href="#mb5811a9bc7" x="35.043438" y="71.739391" style="stroke: #000000"/>
      </g>
     </g>
     <g id="text_10">
      <text style="font: 8px 'Arial'; text-anchor: end" x="28.543438" y="74.602516" transform="rotate(-0 28.543438 74.602516)">15</text>
     </g>
    </g>
    <g id="ytick_5">
     <g id="line2d_28">
      <path d="M 35.043438 46.128522 
L 238.713438 46.128522 
" clip-path="url(#pdede695b95)" style="fill: none; stroke: #d9d9d9; stroke-opacity: 0.75; stroke-width: 0.6; stroke-linecap: square"/>
     </g>
     <g id="line2d_29">
      <g>
       <use xlink:href="#mb5811a9bc7" x="35.043438" y="46.128522" style="stroke: #000000"/>
      </g>
     </g>
     <g id="text_11">
      <text style="font: 8px 'Arial'; text-anchor: end" x="28.543438" y="48.991647" transform="rotate(-0 28.543438 48.991647)">20</text>
     </g>
    </g>
    <g id="ytick_6">
     <g id="line2d_30">
      <path d="M 35.043438 20.517652 
L 238.713438 20.517652 
" clip-path="url(#pdede695b95)" style="fill: none; stroke: #d9d9d9; stroke-opacity: 0.75; stroke-width: 0.6; stroke-linecap: square"/>
     </g>
     <g id="line2d_31">
      <g>
       <use xlink:href="#mb5811a9bc7" x="35.043438" y="20.517652" style="stroke: #000000"/>
      </g>
     </g>
     <g id="text_12">
      <text style="font: 8px 'Arial'; text-anchor: end" x="28.543438" y="23.380777" transform="rotate(-0 28.543438 23.380777)">25</text>
     </g>
    </g>
    <g id="text_13">
     <text style="font: 9px 'Arial'; text-anchor: middle" x="13.751719" y="77.886" transform="rotate(-90 13.751719 77.886)">Recovered future additives (%)</text>
    </g>
   </g>
   <g id="patch_3">
    <path d="M 35.043438 148.572 
L 35.043438 7.2 
" style="fill: none; stroke: #000000; stroke-linejoin: miter; stroke-linecap: square"/>
   </g>
   <g id="patch_4">
    <path d="M 35.043438 148.572 
L 238.713437 148.572 
" style="fill: none; stroke: #000000; stroke-linejoin: miter; stroke-linecap: square"/>
   </g>
   <g id="PathCollection_1">
    <defs>
     <path id="m4bdc34b144" d="M 0 4.1833 
C 1.109424 4.1833 2.173559 3.742521 2.95804 2.95804 
C 3.742521 2.173559 4.1833 1.109424 4.1833 0 
C 4.1833 -1.109424 3.742521 -2.173559 2.95804 -2.95804 
C 2.173559 -3.742521 1.109424 -4.1833 0 -4.1833 
C -1.109424 -4.1833 -2.173559 -3.742521 -2.95804 -2.95804 
C -3.742521 -2.173559 -4.1833 -1.109424 -4.1833 0 
C -4.1833 1.109424 -3.742521 2.173559 -2.95804 2.95804 
C -2.173559 3.742521 -1.109424 4.1833 0 4.1833 
z
" style="stroke: #ffffff"/>
    </defs>
    <g clip-path="url(#pdede695b95)">
     <use xlink:href="#m4bdc34b144" x="74.378353" y="103.376348" style="fill: #3b6ea8; stroke: #ffffff"/>
    </g>
   </g>
   <g id="PathCollection_2">
    <defs>
     <path id="meca5d3509b" d="M 0 5.406807 
C 1.433902 5.406807 2.809268 4.837111 3.82319 3.82319 
C 4.837111 2.809268 5.406807 1.433902 5.406807 0 
C 5.406807 -1.433902 4.837111 -2.809268 3.82319 -3.82319 
C 2.809268 -4.837111 1.433902 -5.406807 0 -5.406807 
C -1.433902 -5.406807 -2.809268 -4.837111 -3.82319 -3.82319 
C -4.837111 -2.809268 -5.406807 -1.433902 -5.406807 0 
C -5.406807 1.433902 -4.837111 2.809268 -3.82319 3.82319 
C -2.809268 4.837111 -1.433902 5.406807 0 5.406807 
z
" style="stroke: #ffffff"/>
    </defs>
    <g clip-path="url(#pdede695b95)">
     <use xlink:href="#meca5d3509b" x="125.871404" y="46.128522" style="fill: #3b6ea8; stroke: #ffffff"/>
    </g>
   </g>
   <g id="PathCollection_3">
    <defs>
     <path id="mb36a1b4d53" d="M 0 7.326979 
C 1.943138 7.326979 3.806951 6.554962 5.180956 5.180956 
C 6.554962 3.806951 7.326979 1.943138 7.326979 0 
C 7.326979 -1.943138 6.554962 -3.806951 5.180956 -5.180956 
C 3.806951 -6.554962 1.943138 -7.326979 0 -7.326979 
C -1.943138 -7.326979 -3.806951 -6.554962 -5.180956 -5.180956 
C -6.554962 -3.806951 -7.326979 -1.943138 -7.326979 0 
C -7.326979 1.943138 -6.554962 3.806951 -5.180956 5.180956 
C -3.806951 6.554962 -1.943138 7.326979 0 7.326979 
z
" style="stroke: #ffffff"/>
    </defs>
    <g clip-path="url(#pdede695b95)">
     <use xlink:href="#mb36a1b4d53" x="173.038148" y="94.080788" style="fill: #8fb3cb; stroke: #ffffff"/>
    </g>
   </g>
   <g id="PathCollection_4">
    <defs>
     <path id="m2b3cca01d3" d="M 0 8.062258 
C 2.138136 8.062258 4.188987 7.212767 5.700877 5.700877 
C 7.212767 4.188987 8.062258 2.138136 8.062258 0 
C 8.062258 -2.138136 7.212767 -4.188987 5.700877 -5.700877 
C 4.188987 -7.212767 2.138136 -8.062258 0 -8.062258 
C -2.138136 -8.062258 -4.188987 -7.212767 -5.700877 -5.700877 
C -7.212767 -4.188987 -8.062258 -2.138136 -8.062258 0 
C -8.062258 2.138136 -7.212767 4.188987 -5.700877 5.700877 
C -4.188987 7.212767 -2.138136 8.062258 0 8.062258 
z
" style="stroke: #ffffff"/>
    </defs>
    <g clip-path="url(#pdede695b95)">
     <use xlink:href="#m2b3cca01d3" x="186.487357" y="89.011838" style="fill: #5f8fb8; stroke: #ffffff"/>
    </g>
   </g>
   <g id="text_14">
    <text style="fill: #444444; font: 7px 'Arial'" transform="translate(81.138975 97.273219)">2021</text>
    <text style="fill: #444444; font: 7px 'Arial'" transform="translate(81.138975 104.426508)">8.8% recall</text>
    <text style="fill: #444444; font: 7px 'Arial'" transform="translate(81.138975 111.579797)">348 mol.</text>
    <text style="fill: #444444; font: 7px 'Arial'" transform="translate(81.138975 118.733086)">517× reduced</text>
   </g>
   <g id="text_15">
    <text style="fill: #3b6ea8; font: 700 7px 'Arial'; text-anchor: middle" x="74.378353" y="98.819194" transform="rotate(-0 74.378353 98.819194)">3/34</text>
   </g>
   <g id="text_16">
    <text style="fill: #444444; font: 7px 'Arial'" transform="translate(130.462514 35.415437)">2023</text>
    <text style="fill: #444444; font: 7px 'Arial'" transform="translate(130.462514 42.568726)">20.0% recall</text>
    <text style="fill: #444444; font: 7px 'Arial'" transform="translate(130.462514 49.722015)">825 mol.</text>
    <text style="fill: #444444; font: 7px 'Arial'" transform="translate(130.462514 56.875304)">218× reduced</text>
   </g>
   <g id="text_17">
    <text style="fill: #3b6ea8; font: 700 7px 'Arial'; text-anchor: middle" x="125.871404" y="41.571368" transform="rotate(-0 125.871404 41.571368)">4/20</text>
   </g>
   <g id="text_18">
    <text style="fill: #444444; font: 7px 'Arial'" transform="translate(152.493393 80.294399)">2017</text>
    <text style="fill: #444444; font: 7px 'Arial'" transform="translate(129.545425 87.447688)">10.6% recall</text>
    <text style="fill: #444444; font: 7px 'Arial'" transform="translate(135.380581 94.600977)">1,819 mol.</text>
    <text style="fill: #444444; font: 7px 'Arial'" transform="translate(128.951518 101.754266)">99× reduced</text>
   </g>
   <g id="text_19">
    <text style="fill: #8fb3cb; font: 700 7px 'Arial'; text-anchor: middle" x="173.038148" y="89.523634" transform="rotate(-0 173.038148 89.523634)">5/47</text>
   </g>
   <g id="text_20">
    <text style="fill: #444444; font: 7px 'Arial'" transform="translate(191.078467 78.298753)">2019</text>
    <text style="fill: #444444; font: 7px 'Arial'" transform="translate(191.078467 85.452042)">11.6% recall</text>
    <text style="fill: #444444; font: 7px 'Arial'" transform="translate(191.078467 92.605331)">2,279 mol.</text>
    <text style="fill: #444444; font: 7px 'Arial'" transform="translate(191.078467 99.75862)">79× reduced</text>
   </g>
   <g id="text_21">
    <text style="fill: #5f8fb8; font: 700 7px 'Arial'; text-anchor: middle" x="186.487357" y="84.454684" transform="rotate(-0 186.487357 84.454684)">5/43</text>
   </g>
   <g id="patch_5">
    <path d="M 163.376109 30.550561 
Q 120.434855 65.07101 78.452116 98.820909 
" style="fill: none; stroke: #b2182b; stroke-width: 1.1; stroke-linecap: round"/>
    <path d="M 81.94862 98.062975 
L 78.452116 98.820909 
L 79.943671 95.568946 
" style="fill: none; stroke: #b2182b; stroke-width: 1.1; stroke-linecap: round"/>
   </g>
   <g id="text_22">
    <text style="fill: #b2182b; font: 700 8px 'Arial'; text-anchor: start" x="135.800292" y="25.612207" transform="rotate(-0 135.800292 25.612207)">Focused discovery</text>
   </g>
   <g id="text_23">
    <text style="fill: #666666; font: 7px 'Arial'; text-anchor: middle" x="172.404133" y="19.044371" transform="rotate(-0 172.404133 19.044371)">1% budget</text>
   </g>
   <g id="text_24">
    <text style="fill: #666666; font: 7px 'Arial'" transform="translate(184.079071 115.94666)">Circle size</text>
    <text style="fill: #666666; font: 7px 'Arial'" transform="translate(148.077196 123.350472)">= searched molecules</text>
   </g>
  </g>
 </g>
 <defs>
  <clipPath id="pdede695b95">
   <rect x="35.043438" y="7.2" width="203.67" height="141.372"/>
  </clipPath>
 </defs>
</svg>
