<?xml version="1.0" encoding="utf-8" standalone="no"?>
<!DOCTYPE svg PUBLIC "-//W3C//DTD SVG 1.1//EN"
  "http://www.w3.org/Graphics/SVG/1.1/DTD/svg11.dtd">
<svg xmlns:xlink="http://www.w3.org/1999/xlink" width="116.787375pt" height="115.2pt" viewBox="0 0 116.787375 115.2" xmlns="http://www.w3.org/2000/svg" version="1.1">
 <metadata>
  <rdf:RDF xmlns:dc="http://purl.org/dc/elements/1.1/" xmlns:cc="http://creativecommons.org/ns#" xmlns:rdf="http://www.w3.org/1999/02/22-rdf-syntax-ns#">
   <cc:Work>
    <dc:type rdf:resource="http://purl.org/dc/dcmitype/StillImage"/>
    <dc:date>2026-07-04T17:48:08.401931</dc:date>
    <dc:format>image/svg+xml</dc:format>
    <dc:creator>
     <cc:Agent>
      <dc:title>Matplotlib v3.9.4, https://matplotlib.org/</dc:title>
     </cc:Agent>
    </dc:creator>
   </cc:Work>
  </rdf:RDF>
 </metadata>
 <defs>
  <style type="text/css">*{stroke-linejoin: round; stroke-linecap: butt}</style>
 </defs>
 <g id="figure_1">
  <g id="patch_1">
   <path d="M 0 115.2 
L 116.787375 115.2 
L 116.787375 0 
L 0 0 
L 0 115.2 
z
" style="fill: none; opacity: 0"/>
  </g>
  <g id="axes_1">
   <g id="patch_2">
    <path d="M 43.776 94.464 
C 50.802821 94.464 57.542788 91.672214 62.511501 86.703501 
C 67.480214 81.734788 70.272 74.994821 70.272 67.968 
C 70.272 60.941179 67.480214 54.201212 62.511501 49.232499 
C 57.542788 44.263786 50.802821 41.472 43.776 41.472 
C 36.749179 41.472 30.009212 44.263786 25.040499 49.232499 
C 20.071786 54.201212 17.28 60.941179 17.28 67.968 
C 17.28 74.994821 20.071786 81.734788 25.040499 86.703501 
C 30.009212 91.672214 36.749179 94.464 43.776 94.464 
L 43.776 94.464 
z
" clip-path="url(#p063128c25f)" style="fill: none; stroke: #4d4d4d; stroke-width: 1.2; stroke-linejoin: miter"/>
   </g>
   <g id="patch_3">
    <path d="M 43.776 94.464 
C 49.268492 94.464 54.536765 92.28181 58.420543 88.398032 
C 62.304321 84.514254 64.486511 79.245981 64.486511 73.753489 
C 64.486511 68.260998 62.304321 62.992725 58.420543 59.108947 
C 54.536765 55.225169 49.268492 53.042978 43.776 53.042978 
C 38.283508 53.042978 33.015235 55.225169 29.131457 59.108947 
C 25.247679 62.992725 23.065489 68.260998 23.065489 73.753489 
C 23.065489 79.245981 25.247679 84.514254 29.131457 88.398032 
C 33.015235 92.28181 38.283508 94.464 43.776 94.464 
L 43.776 94.464 
z
" clip-path="url(#p063128c25f)" style="fill: none; stroke: #4d4d4d; stroke-width: 1.2; stroke-linejoin: miter"/>
   </g>
   <g id="patch_4">
    <path d="M 43.776 94.464 
C 47.136654 94.464 50.360116 93.128798 52.736457 90.752457 
C 55.112798 88.376116 56.448 85.152654 56.448 81.792 
C 56.448 78.431346 55.112798 75.207884 52.736457 72.831543 
C 50.360116 70.455202 47.136654 69.12 43.776 69.12 
C 40.415346 69.12 37.191884 70.455202 34.815543 72.831543 
C 32.439202 75.207884 31.104 78.431346 31.104 81.792 
C 31.104 85.152654 32.439202 88.376116 34.815543 90.752457 
C 37.191884 93.128798 40.415346 94.464 43.776 94.464 
L 43.776 94.464 
z
" clip-path="url(#p063128c25f)" style="fill: none; stroke: #4d4d4d; stroke-width: 1.2; stroke-linejoin: miter"/>
   </g>
   <g id="line2d_1">
    <path d="M 62.85312 63.19872 
L 94.464 63.19872 
" clip-path="url(#p063128c25f)" style="fill: none; stroke: #4d4d4d; stroke-linecap: square"/>
   </g>
   <g id="line2d_2">
    <path d="M 58.687568 70.025597 
L 94.464 70.025597 
" clip-path="url(#p063128c25f)" style="fill: none; stroke: #4d4d4d; stroke-linecap: square"/>
   </g>
   <g id="line2d_3">
    <path d="M 52.89984 79.51104 
L 94.464 79.51104 
" clip-path="url(#p063128c25f)" style="fill: none; stroke: #4d4d4d; stroke-linecap: square"/>
   </g>
   <g id="text_1">
    <text style="font: 700 10px 'Arial'; text-anchor: start" x="9.216" y="14.069812" transform="rotate(-0 9.216 14.069812)">Population</text>
   </g>
   <g id="text_2">
    <text style="font: 9px 'Arial'; text-anchor: start" x="96.768" y="65.525361" transform="rotate(-0 96.768 65.525361)">2279</text>
   </g>
   <g id="text_3">
    <text style="font: 9px 'Arial'; text-anchor: start" x="96.768" y="72.352238" transform="rotate(-0 96.768 72.352238)">1322</text>
   </g>
   <g id="text_4">
    <text style="font: 9px 'Arial'; text-anchor: start" x="96.768" y="81.837681" transform="rotate(-0 96.768 81.837681)">348</text>
   </g>
  </g>
 </g>
 <defs>
  <clipPath id="p063128c25f">
   <rect x="0" y="-0" width="115.2" height="115.2"/>
  </clipPath>
 </defs>
</svg>
