<?xml version="1.0" encoding="utf-8" standalone="no"?>
<!DOCTYPE svg PUBLIC "-//W3C//DTD SVG 1.1//EN"
  "http://www.w3.org/Graphics/SVG/1.1/DTD/svg11.dtd">
<svg xmlns:xlink="http://www.w3.org/1999/xlink" width="502.518125pt" height="424.039688pt" viewBox="0 0 502.518125 424.039688" xmlns="http://www.w3.org/2000/svg" version="1.1">
 <metadata>
  <rdf:RDF xmlns:dc="http://purl.org/dc/elements/1.1/" xmlns:cc="http://creativecommons.org/ns#" xmlns:rdf="http://www.w3.org/1999/02/22-rdf-syntax-ns#">
   <cc:Work>
    <dc:type rdf:resource="http://purl.org/dc/dcmitype/StillImage"/>
    <dc:date>2026-06-24T15:35:17.968991</dc:date>
    <dc:format>image/svg+xml</dc:format>
    <dc:creator>
     <cc:Agent>
      <dc:title>Matplotlib v3.9.4, https://matplotlib.org/</dc:title>
     </cc:Agent>
    </dc:creator>
   </cc:Work>
  </rdf:RDF>
 </metadata>
 <defs>
  <style type="text/css">*{stroke-linejoin: round; stroke-linecap: butt}</style>
 </defs>
 <g id="figure_1">
  <g id="patch_1">
   <path d="M 0 424.039688 
L 502.518125 424.039688 
L 502.518125 0 
L 0 0 
L 0 424.039688 
z
" style="fill: none"/>
  </g>
  <g id="axes_1">
   <g id="patch_2">
    <path d="M 65.464375 183.85 
L 495.318125 183.85 
L 495.318125 7.2 
L 65.464375 7.2 
L 65.464375 183.85 
z
" style="fill: none"/>
   </g>
   <g id="PolyCollection_1">
    <defs>
     <path id="maed7ef9ce4" d="M 85.003182 -378.056291 
L 85.003182 -303.885622 
L 86.314511 -306.585415 
L 87.62584 -308.998775 
L 88.93717 -311.163026 
L 90.248499 -312.9585 
L 91.559828 -314.398388 
L 92.871158 -315.712295 
L 94.182487 -316.874524 
L 95.493816 -321.59396 
L 96.805146 -324.618429 
L 98.116475 -327.146089 
L 99.427804 -329.222415 
L 100.739134 -330.948017 
L 102.050463 -332.21385 
L 103.361792 -333.059503 
L 104.673122 -333.746896 
L 105.984451 -334.220619 
L 107.29578 -334.500047 
L 108.60711 -334.742425 
L 109.918439 -335.007766 
L 111.229768 -335.558917 
L 112.541097 -336.187747 
L 113.852427 -336.911987 
L 115.163756 -337.72201 
L 116.475085 -338.736539 
L 117.786415 -339.786918 
L 119.097744 -340.790592 
L 120.409073 -341.877146 
L 121.720403 -343.152182 
L 123.031732 -344.515969 
L 124.343061 -345.806244 
L 125.654391 -347.173939 
L 126.96572 -348.437453 
L 128.277049 -349.470674 
L 129.588379 -350.545891 
L 130.899708 -351.47232 
L 132.211037 -352.328474 
L 133.522367 -353.076776 
L 134.833696 -353.737697 
L 136.145025 -354.39826 
L 137.456354 -355.231652 
L 138.767684 -356.227804 
L 140.079013 -357.148295 
L 141.390342 -357.91046 
L 142.701672 -358.69896 
L 144.013001 -359.357538 
L 145.32433 -360.135371 
L 146.63566 -360.932622 
L 147.946989 -361.920435 
L 149.258318 -362.701266 
L 150.569648 -363.350387 
L 151.880977 -363.759814 
L 153.192306 -364.002254 
L 154.503636 -364.204448 
L 155.814965 -364.193155 
L 157.126294 -363.789009 
L 158.437624 -363.200499 
L 159.748953 -362.530146 
L 161.060282 -361.606681 
L 162.371612 -360.717191 
L 163.682941 -359.80743 
L 164.99427 -358.924675 
L 166.305599 -358.069408 
L 167.616929 -357.108611 
L 168.928258 -356.165033 
L 170.239587 -355.43461 
L 171.550917 -354.946815 
L 172.862246 -354.767739 
L 174.173575 -354.645257 
L 175.484905 -354.64285 
L 176.796234 -354.592787 
L 178.107563 -354.366147 
L 179.418893 -353.936048 
L 180.730222 -353.434373 
L 182.041551 -352.468325 
L 183.352881 -351.646886 
L 184.66421 -350.561391 
L 185.975539 -349.56038 
L 187.286869 -348.423805 
L 188.598198 -347.262065 
L 189.909527 -345.827032 
L 191.220856 -344.266262 
L 192.532186 -342.587883 
L 193.843515 -340.506495 
L 195.154844 -338.57775 
L 196.466174 -337.035481 
L 197.777503 -335.719721 
L 199.088832 -334.578885 
L 200.400162 -333.590271 
L 201.711491 -332.830311 
L 203.02282 -332.087974 
L 204.33415 -331.564771 
L 205.645479 -331.027707 
L 206.956808 -330.51864 
L 208.268138 -330.216187 
L 209.579467 -329.929048 
L 210.890796 -329.795276 
L 212.202126 -329.684238 
L 213.513455 -329.905949 
L 214.824784 -329.860169 
L 216.136113 -329.762831 
L 217.447443 -329.856723 
L 218.758772 -329.791583 
L 220.070101 -329.716921 
L 221.381431 -329.576385 
L 222.69276 -329.331268 
L 224.004089 -329.062612 
L 225.315419 -328.668275 
L 226.626748 -328.371404 
L 227.938077 -328.023376 
L 229.249407 -327.670643 
L 230.560736 -327.031356 
L 231.872065 -326.11777 
L 233.183395 -325.000381 
L 234.494724 -324.137562 
L 235.806053 -323.058291 
L 237.117383 -321.477231 
L 238.428712 -320.232774 
L 239.740041 -319.117974 
L 241.051371 -317.901353 
L 242.3627 -316.741861 
L 243.674029 -315.464694 
L 244.985358 -314.15414 
L 246.296688 -312.721395 
L 247.608017 -311.288632 
L 248.919346 -310.013122 
L 250.230676 -308.809408 
L 251.542005 -307.712756 
L 252.853334 -306.682269 
L 254.164664 -305.721402 
L 255.475993 -304.938633 
L 256.787322 -304.478669 
L 258.098652 -304.070146 
L 259.409981 -303.614856 
L 260.72131 -303.377412 
L 262.03264 -302.88975 
L 263.343969 -302.464351 
L 264.655298 -302.384207 
L 265.966628 -302.763887 
L 267.277957 -303.019386 
L 268.589286 -303.160641 
L 269.900615 -303.458124 
L 271.211945 -303.775438 
L 272.523274 -304.050603 
L 273.834603 -304.174925 
L 275.145933 -304.12157 
L 276.457262 -303.974683 
L 277.768591 -303.690951 
L 279.079921 -303.440408 
L 280.39125 -303.21364 
L 281.702579 -303.251005 
L 283.013909 -303.153593 
L 284.325238 -302.958503 
L 285.636567 -302.435476 
L 286.947897 -302.005956 
L 288.259226 -301.551985 
L 289.570555 -300.900014 
L 290.881885 -300.310396 
L 292.193214 -299.713919 
L 293.504543 -299.014185 
L 294.815872 -298.110738 
L 296.127202 -297.165773 
L 297.438531 -296.216284 
L 298.74986 -295.333927 
L 300.06119 -294.576583 
L 301.372519 -293.874437 
L 302.683848 -293.181616 
L 303.995178 -292.499589 
L 305.306507 -291.803021 
L 306.617836 -291.083977 
L 307.929166 -290.444917 
L 309.240495 -289.825765 
L 310.551824 -289.139583 
L 311.863154 -288.70208 
L 313.174483 -288.244778 
L 314.485812 -287.988964 
L 315.797142 -287.802908 
L 317.108471 -287.632534 
L 318.4198 -287.371934 
L 319.731129 -287.113158 
L 321.042459 -286.704241 
L 322.353788 -286.331833 
L 323.665117 -285.945628 
L 324.976447 -285.726815 
L 326.287776 -285.489644 
L 327.599105 -285.242086 
L 328.910435 -285.147766 
L 330.221764 -285.172661 
L 331.533093 -285.005577 
L 332.844423 -284.905317 
L 334.155752 -284.691708 
L 335.467081 -284.448226 
L 336.778411 -284.135503 
L 338.08974 -283.82884 
L 339.401069 -283.50266 
L 340.712399 -283.184183 
L 342.023728 -282.86193 
L 343.335057 -282.32808 
L 344.646387 -281.548234 
L 345.957716 -280.566503 
L 347.269045 -279.484191 
L 348.580374 -278.254659 
L 349.891704 -277.021032 
L 351.203033 -275.849788 
L 352.514362 -274.547351 
L 353.825692 -273.364053 
L 355.137021 -271.888074 
L 356.44835 -270.263024 
L 357.75968 -268.764031 
L 359.071009 -267.357559 
L 360.382338 -265.998268 
L 361.693668 -264.64887 
L 363.004997 -263.377262 
L 364.316326 -262.13503 
L 365.627656 -261.289019 
L 366.938985 -260.506739 
L 368.250314 -259.743165 
L 369.561644 -258.829005 
L 370.872973 -257.759825 
L 372.184302 -256.663903 
L 373.495631 -255.484029 
L 374.806961 -254.516735 
L 376.11829 -253.432124 
L 377.429619 -252.234533 
L 378.740949 -250.859091 
L 380.052278 -249.69947 
L 381.363607 -249.116248 
L 382.674937 -248.778561 
L 383.986266 -248.501894 
L 385.297595 -248.269875 
L 386.608925 -248.219233 
L 387.920254 -248.278583 
L 389.231583 -248.389905 
L 390.542913 -248.688586 
L 391.854242 -249.052708 
L 393.165571 -249.637177 
L 394.476901 -249.983693 
L 395.78823 -250.851456 
L 397.099559 -251.756842 
L 398.410888 -252.527122 
L 399.722218 -253.193369 
L 401.033547 -253.374056 
L 402.344876 -253.407951 
L 403.656206 -253.351587 
L 404.967535 -252.922358 
L 406.278864 -252.17886 
L 407.590194 -251.417046 
L 408.901523 -251.06539 
L 410.212852 -250.870899 
L 411.524182 -250.927956 
L 412.835511 -250.822516 
L 414.14684 -251.242962 
L 415.45817 -251.49277 
L 416.769499 -251.914246 
L 418.080828 -252.255982 
L 419.392158 -252.609241 
L 420.703487 -252.751874 
L 422.014816 -252.777662 
L 423.326146 -253.069847 
L 424.637475 -253.484258 
L 425.948804 -253.935381 
L 427.260133 -254.471573 
L 428.571463 -254.885344 
L 429.882792 -255.241033 
L 431.194121 -255.471998 
L 432.505451 -255.845919 
L 433.81678 -255.865937 
L 435.128109 -255.792742 
L 436.439439 -255.296598 
L 437.750768 -255.013179 
L 439.062097 -254.504417 
L 440.373427 -254.179773 
L 441.684756 -253.880103 
L 442.996085 -253.546505 
L 444.307415 -253.206163 
L 445.618744 -253.209875 
L 446.930073 -253.185558 
L 448.241403 -253.060252 
L 449.552732 -252.978194 
L 450.864061 -252.606741 
L 452.17539 -252.243614 
L 453.48672 -251.896778 
L 454.798049 -251.565274 
L 456.109378 -251.529917 
L 457.420708 -251.628536 
L 458.732037 -251.60689 
L 460.043366 -251.845912 
L 461.354696 -252.297718 
L 462.666025 -252.726866 
L 463.977354 -253.382914 
L 465.288684 -253.688586 
L 466.600013 -253.824939 
L 467.911342 -253.834522 
L 469.222672 -253.638228 
L 470.534001 -253.717965 
L 471.84533 -253.691588 
L 473.15666 -253.877401 
L 474.467989 -254.137954 
L 475.779318 -254.410813 
L 475.779318 -303.259719 
L 475.779318 -303.259719 
L 474.467989 -302.544515 
L 473.15666 -301.948585 
L 471.84533 -301.580673 
L 470.534001 -301.03991 
L 469.222672 -300.065238 
L 467.911342 -299.305201 
L 466.600013 -298.851153 
L 465.288684 -297.942736 
L 463.977354 -296.864897 
L 462.666025 -295.70549 
L 461.354696 -295.089929 
L 460.043366 -294.650124 
L 458.732037 -293.931116 
L 457.420708 -293.359942 
L 456.109378 -292.963284 
L 454.798049 -292.737407 
L 453.48672 -292.634521 
L 452.17539 -292.827702 
L 450.864061 -293.333763 
L 449.552732 -294.213722 
L 448.241403 -295.040989 
L 446.930073 -295.936844 
L 445.618744 -296.839555 
L 444.307415 -297.990739 
L 442.996085 -299.273818 
L 441.684756 -300.404717 
L 440.373427 -301.511399 
L 439.062097 -302.922743 
L 437.750768 -304.177896 
L 436.439439 -304.877936 
L 435.128109 -305.558281 
L 433.81678 -306.141495 
L 432.505451 -306.461337 
L 431.194121 -306.7836 
L 429.882792 -307.362553 
L 428.571463 -308.191767 
L 427.260133 -308.036958 
L 425.948804 -307.583351 
L 424.637475 -307.198759 
L 423.326146 -306.897383 
L 422.014816 -306.451187 
L 420.703487 -306.018559 
L 419.392158 -305.236723 
L 418.080828 -304.693609 
L 416.769499 -304.789248 
L 415.45817 -305.015961 
L 414.14684 -305.230505 
L 412.835511 -305.743654 
L 411.524182 -305.172031 
L 410.212852 -304.239895 
L 408.901523 -302.974411 
L 407.590194 -302.446519 
L 406.278864 -302.340796 
L 404.967535 -302.10617 
L 403.656206 -301.649285 
L 402.344876 -301.254693 
L 401.033547 -300.811768 
L 399.722218 -300.47159 
L 398.410888 -300.286624 
L 397.099559 -299.968049 
L 395.78823 -299.603041 
L 394.476901 -299.341034 
L 393.165571 -298.989177 
L 391.854242 -300.179305 
L 390.542913 -301.665535 
L 389.231583 -303.317932 
L 387.920254 -305.146019 
L 386.608925 -306.995808 
L 385.297595 -308.654848 
L 383.986266 -310.616361 
L 382.674937 -312.707323 
L 381.363607 -314.468545 
L 380.052278 -316.161681 
L 378.740949 -317.679832 
L 377.429619 -319.060437 
L 376.11829 -320.496815 
L 374.806961 -321.774835 
L 373.495631 -322.69574 
L 372.184302 -323.228978 
L 370.872973 -323.676973 
L 369.561644 -324.046875 
L 368.250314 -324.338634 
L 366.938985 -324.727364 
L 365.627656 -325.349038 
L 364.316326 -325.757575 
L 363.004997 -326.020467 
L 361.693668 -326.481529 
L 360.382338 -327.04986 
L 359.071009 -327.426357 
L 357.75968 -328.250837 
L 356.44835 -329.062836 
L 355.137021 -329.931207 
L 353.825692 -331.1011 
L 352.514362 -331.823714 
L 351.203033 -332.394731 
L 349.891704 -333.11237 
L 348.580374 -333.913947 
L 347.269045 -334.39029 
L 345.957716 -334.644297 
L 344.646387 -334.699427 
L 343.335057 -334.844281 
L 342.023728 -334.872387 
L 340.712399 -334.895823 
L 339.401069 -335.007676 
L 338.08974 -334.538043 
L 336.778411 -333.753405 
L 335.467081 -332.723145 
L 334.155752 -331.503494 
L 332.844423 -330.729668 
L 331.533093 -330.140601 
L 330.221764 -329.430708 
L 328.910435 -328.491968 
L 327.599105 -327.684872 
L 326.287776 -327.013136 
L 324.976447 -326.471086 
L 323.665117 -326.192482 
L 322.353788 -326.069882 
L 321.042459 -326.050718 
L 319.731129 -326.057317 
L 318.4198 -326.455085 
L 317.108471 -327.169393 
L 315.797142 -328.278064 
L 314.485812 -329.370788 
L 313.174483 -329.740604 
L 311.863154 -330.005218 
L 310.551824 -330.245309 
L 309.240495 -330.599695 
L 307.929166 -331.170804 
L 306.617836 -331.763073 
L 305.306507 -332.392672 
L 303.995178 -332.773638 
L 302.683848 -333.370974 
L 301.372519 -334.052677 
L 300.06119 -334.877383 
L 298.74986 -335.559715 
L 297.438531 -336.414507 
L 296.127202 -337.272247 
L 294.815872 -338.09452 
L 293.504543 -339.528041 
L 292.193214 -341.008651 
L 290.881885 -342.520806 
L 289.570555 -344.252981 
L 288.259226 -346.222485 
L 286.947897 -348.367231 
L 285.636567 -350.333084 
L 284.325238 -352.052254 
L 283.013909 -353.327808 
L 281.702579 -354.366254 
L 280.39125 -355.115079 
L 279.079921 -355.678851 
L 277.768591 -356.155633 
L 276.457262 -356.208709 
L 275.145933 -356.363692 
L 273.834603 -356.404907 
L 272.523274 -356.548257 
L 271.211945 -356.593944 
L 269.900615 -356.266976 
L 268.589286 -355.558283 
L 267.277957 -354.653938 
L 265.966628 -353.775896 
L 264.655298 -353.049183 
L 263.343969 -352.605206 
L 262.03264 -352.168015 
L 260.72131 -351.873762 
L 259.409981 -351.777413 
L 258.098652 -351.847661 
L 256.787322 -352.432649 
L 255.475993 -352.900973 
L 254.164664 -353.351757 
L 252.853334 -353.672403 
L 251.542005 -354.110587 
L 250.230676 -354.623707 
L 248.919346 -355.26229 
L 247.608017 -356.052653 
L 246.296688 -356.996564 
L 244.985358 -358.128121 
L 243.674029 -359.349434 
L 242.3627 -360.748948 
L 241.051371 -362.512512 
L 239.740041 -364.297865 
L 238.428712 -365.656904 
L 237.117383 -366.84194 
L 235.806053 -367.937119 
L 234.494724 -368.964635 
L 233.183395 -370.194336 
L 231.872065 -371.183517 
L 230.560736 -372.186799 
L 229.249407 -373.148939 
L 227.938077 -374.109566 
L 226.626748 -375.067332 
L 225.315419 -375.960009 
L 224.004089 -376.781875 
L 222.69276 -377.575555 
L 221.381431 -378.202018 
L 220.070101 -378.867962 
L 218.758772 -379.616704 
L 217.447443 -380.272019 
L 216.136113 -380.994151 
L 214.824784 -381.807423 
L 213.513455 -382.237231 
L 212.202126 -382.95545 
L 210.890796 -384.022717 
L 209.579467 -384.995608 
L 208.268138 -385.729355 
L 206.956808 -386.475236 
L 205.645479 -387.175553 
L 204.33415 -387.717608 
L 203.02282 -388.248497 
L 201.711491 -388.859682 
L 200.400162 -389.641176 
L 199.088832 -390.447886 
L 197.777503 -391.141062 
L 196.466174 -391.714644 
L 195.154844 -392.326784 
L 193.843515 -393.165313 
L 192.532186 -393.902669 
L 191.220856 -394.125812 
L 189.909527 -394.303317 
L 188.598198 -394.467909 
L 187.286869 -394.654179 
L 185.975539 -394.923991 
L 184.66421 -395.428888 
L 183.352881 -395.856243 
L 182.041551 -396.100753 
L 180.730222 -396.037859 
L 179.418893 -396.100433 
L 178.107563 -396.194392 
L 176.796234 -396.343313 
L 175.484905 -396.440074 
L 174.173575 -396.520952 
L 172.862246 -396.666708 
L 171.550917 -396.952223 
L 170.239587 -397.367707 
L 168.928258 -397.896093 
L 167.616929 -398.355331 
L 166.305599 -398.623111 
L 164.99427 -398.614609 
L 163.682941 -398.569837 
L 162.371612 -398.495851 
L 161.060282 -398.566637 
L 159.748953 -398.576433 
L 158.437624 -398.710687 
L 157.126294 -398.990091 
L 155.814965 -399.455516 
L 154.503636 -400.022933 
L 153.192306 -400.701469 
L 151.880977 -401.427488 
L 150.569648 -402.130511 
L 149.258318 -402.766118 
L 147.946989 -403.170328 
L 146.63566 -403.527407 
L 145.32433 -403.99702 
L 144.013001 -404.632921 
L 142.701672 -405.328789 
L 141.390342 -406.021592 
L 140.079013 -406.686205 
L 138.767684 -407.341235 
L 137.456354 -407.998681 
L 136.145025 -408.461745 
L 134.833696 -408.776512 
L 133.522367 -408.810142 
L 132.211037 -408.687713 
L 130.899708 -408.258263 
L 129.588379 -407.694171 
L 128.277049 -407.132903 
L 126.96572 -406.581373 
L 125.654391 -405.961739 
L 124.343061 -405.184472 
L 123.031732 -404.064435 
L 121.720403 -402.894947 
L 120.409073 -401.684223 
L 119.097744 -400.483711 
L 117.786415 -399.150382 
L 116.475085 -397.952224 
L 115.163756 -396.761334 
L 113.852427 -395.699996 
L 112.541097 -394.663656 
L 111.229768 -393.930355 
L 109.918439 -393.300296 
L 108.60711 -392.899982 
L 107.29578 -392.526837 
L 105.984451 -392.293385 
L 104.673122 -391.96846 
L 103.361792 -391.936124 
L 102.050463 -391.745093 
L 100.739134 -391.446578 
L 99.427804 -390.999779 
L 98.116475 -390.512363 
L 96.805146 -389.611826 
L 95.493816 -388.2518 
L 94.182487 -384.482199 
L 92.871158 -383.96524 
L 91.559828 -383.288748 
L 90.248499 -382.562058 
L 88.93717 -381.665563 
L 87.62584 -380.699637 
L 86.314511 -379.449244 
L 85.003182 -378.056291 
z
" style="stroke: #3b6ea8; stroke-opacity: 0.2"/>
    </defs>
    <g clip-path="url(#p5b99dde842)">
     <use xlink:href="#maed7ef9ce4" x="0" y="424.039688" style="fill: #3b6ea8; fill-opacity: 0.2; stroke: #3b6ea8; stroke-opacity: 0.2"/>
    </g>
   </g>
   <g id="matplotlib.axis_1">
    <g id="xtick_1">
     <g id="line2d_1">
      <defs>
       <path id="m07f907cb44" d="M 0 0 
L 0 3.5 
" style="stroke: #000000; stroke-width: 0.8"/>
      </defs>
      <g>
       <use xlink:href="#m07f907cb44" x="82.380523" y="183.85" style="stroke: #000000; stroke-width: 0.8"/>
      </g>
     </g>
    </g>
    <g id="xtick_2">
     <g id="line2d_2">
      <g>
       <use xlink:href="#m07f907cb44" x="147.946989" y="183.85" style="stroke: #000000; stroke-width: 0.8"/>
      </g>
     </g>
    </g>
    <g id="xtick_3">
     <g id="line2d_3">
      <g>
       <use xlink:href="#m07f907cb44" x="213.513455" y="183.85" style="stroke: #000000; stroke-width: 0.8"/>
      </g>
     </g>
    </g>
    <g id="xtick_4">
     <g id="line2d_4">
      <g>
       <use xlink:href="#m07f907cb44" x="279.079921" y="183.85" style="stroke: #000000; stroke-width: 0.8"/>
      </g>
     </g>
    </g>
    <g id="xtick_5">
     <g id="line2d_5">
      <g>
       <use xlink:href="#m07f907cb44" x="344.646387" y="183.85" style="stroke: #000000; stroke-width: 0.8"/>
      </g>
     </g>
    </g>
    <g id="xtick_6">
     <g id="line2d_6">
      <g>
       <use xlink:href="#m07f907cb44" x="410.212852" y="183.85" style="stroke: #000000; stroke-width: 0.8"/>
      </g>
     </g>
    </g>
    <g id="xtick_7">
     <g id="line2d_7">
      <g>
       <use xlink:href="#m07f907cb44" x="475.779318" y="183.85" style="stroke: #000000; stroke-width: 0.8"/>
      </g>
     </g>
    </g>
   </g>
   <g id="matplotlib.axis_2">
    <g id="ytick_1">
     <g id="line2d_8">
      <defs>
       <path id="m1660ab3e26" d="M 0 0 
L -3.5 0 
" style="stroke: #000000; stroke-width: 0.8"/>
      </defs>
      <g>
       <use xlink:href="#m1660ab3e26" x="65.464375" y="169.463948" style="stroke: #000000; stroke-width: 0.8"/>
      </g>
     </g>
     <g id="text_1">
      <text style="font: 10px 'Arial'; text-anchor: end" x="58.464375" y="173.042854" transform="rotate(-0 58.464375 173.042854)">0.00115</text>
     </g>
    </g>
    <g id="ytick_2">
     <g id="line2d_9">
      <g>
       <use xlink:href="#m1660ab3e26" x="65.464375" y="147.365214" style="stroke: #000000; stroke-width: 0.8"/>
      </g>
     </g>
     <g id="text_2">
      <text style="font: 10px 'Arial'; text-anchor: end" x="58.464375" y="150.94412" transform="rotate(-0 58.464375 150.94412)">0.00120</text>
     </g>
    </g>
    <g id="ytick_3">
     <g id="line2d_10">
      <g>
       <use xlink:href="#m1660ab3e26" x="65.464375" y="125.266479" style="stroke: #000000; stroke-width: 0.8"/>
      </g>
     </g>
     <g id="text_3">
      <text style="font: 10px 'Arial'; text-anchor: end" x="58.464375" y="128.845386" transform="rotate(-0 58.464375 128.845386)">0.00125</text>
     </g>
    </g>
    <g id="ytick_4">
     <g id="line2d_11">
      <g>
       <use xlink:href="#m1660ab3e26" x="65.464375" y="103.167745" style="stroke: #000000; stroke-width: 0.8"/>
      </g>
     </g>
     <g id="text_4">
      <text style="font: 10px 'Arial'; text-anchor: end" x="58.464375" y="106.746651" transform="rotate(-0 58.464375 106.746651)">0.00130</text>
     </g>
    </g>
    <g id="ytick_5">
     <g id="line2d_12">
      <g>
       <use xlink:href="#m1660ab3e26" x="65.464375" y="81.069011" style="stroke: #000000; stroke-width: 0.8"/>
      </g>
     </g>
     <g id="text_5">
      <text style="font: 10px 'Arial'; text-anchor: end" x="58.464375" y="84.647917" transform="rotate(-0 58.464375 84.647917)">0.00135</text>
     </g>
    </g>
    <g id="ytick_6">
     <g id="line2d_13">
      <g>
       <use xlink:href="#m1660ab3e26" x="65.464375" y="58.970277" style="stroke: #000000; stroke-width: 0.8"/>
      </g>
     </g>
     <g id="text_6">
      <text style="font: 10px 'Arial'; text-anchor: end" x="58.464375" y="62.549183" transform="rotate(-0 58.464375 62.549183)">0.00140</text>
     </g>
    </g>
    <g id="ytick_7">
     <g id="line2d_14">
      <g>
       <use xlink:href="#m1660ab3e26" x="65.464375" y="36.871542" style="stroke: #000000; stroke-width: 0.8"/>
      </g>
     </g>
     <g id="text_7">
      <text style="font: 10px 'Arial'; text-anchor: end" x="58.464375" y="40.450449" transform="rotate(-0 58.464375 40.450449)">0.00145</text>
     </g>
    </g>
    <g id="ytick_8">
     <g id="line2d_15">
      <g>
       <use xlink:href="#m1660ab3e26" x="65.464375" y="14.772808" style="stroke: #000000; stroke-width: 0.8"/>
      </g>
     </g>
     <g id="text_8">
      <text style="font: 10px 'Arial'; text-anchor: end" x="58.464375" y="18.351714" transform="rotate(-0 58.464375 18.351714)">0.00150</text>
     </g>
    </g>
    <g id="text_9">
     <text style="font: 12px 'Arial'; text-anchor: middle" x="15.935625" y="95.525" transform="rotate(-90 15.935625 95.525)">Drift speed</text>
    </g>
   </g>
   <g id="line2d_16">
    <path d="M 85.003182 83.068731 
L 86.314511 81.022358 
L 87.62584 79.190482 
L 88.93717 77.625393 
L 90.248499 76.279409 
L 92.871158 74.20092 
L 94.182487 73.361326 
L 95.493816 69.116807 
L 96.805146 66.92456 
L 98.116475 65.210461 
L 99.427804 63.92859 
L 100.739134 62.84239 
L 102.050463 62.060216 
L 103.361792 61.541874 
L 107.29578 60.526246 
L 109.918439 59.885656 
L 112.541097 58.613986 
L 115.163756 56.798015 
L 120.409073 52.259003 
L 124.343061 48.54433 
L 126.96572 46.530275 
L 130.899708 44.174396 
L 132.211037 43.531594 
L 133.522367 43.096228 
L 134.833696 42.782583 
L 140.079013 42.122437 
L 146.63566 41.809673 
L 147.946989 41.494306 
L 149.258318 41.305995 
L 150.569648 41.299239 
L 153.192306 41.687826 
L 155.814965 42.215352 
L 166.305599 45.693428 
L 171.550917 48.090168 
L 174.173575 48.456583 
L 176.796234 48.571638 
L 179.418893 49.021447 
L 180.730222 49.303571 
L 183.352881 50.288123 
L 187.286869 52.500695 
L 188.598198 53.174701 
L 191.220856 54.84365 
L 192.532186 55.794412 
L 195.154844 58.587421 
L 197.777503 60.609296 
L 200.400162 62.423964 
L 203.02282 63.871452 
L 210.890796 67.130691 
L 212.202126 67.719843 
L 214.824784 68.205892 
L 216.136113 68.661196 
L 218.758772 69.335544 
L 222.69276 70.586276 
L 225.315419 71.725545 
L 229.249407 73.629896 
L 230.560736 74.43061 
L 233.183395 76.442329 
L 235.806053 78.541982 
L 238.428712 81.094849 
L 239.740041 82.331768 
L 242.3627 85.294283 
L 246.296688 89.180708 
L 247.608017 90.369045 
L 250.230676 92.32313 
L 252.853334 93.862351 
L 255.475993 95.119884 
L 258.098652 96.080784 
L 259.409981 96.343553 
L 263.343969 96.504909 
L 264.655298 96.322992 
L 269.900615 94.177137 
L 271.211945 93.854997 
L 272.523274 93.740257 
L 275.145933 93.797057 
L 277.768591 94.116395 
L 281.702579 95.231058 
L 283.013909 95.798987 
L 284.325238 96.534309 
L 286.947897 98.853094 
L 290.881885 102.624087 
L 293.504543 104.768575 
L 294.815872 105.937058 
L 298.74986 108.592867 
L 303.995178 111.403074 
L 305.306507 111.941841 
L 307.929166 113.231827 
L 310.551824 114.347241 
L 314.485812 115.359811 
L 317.108471 116.638724 
L 318.4198 117.126178 
L 319.731129 117.45445 
L 323.665117 117.970632 
L 324.976447 117.940737 
L 327.599105 117.576208 
L 328.910435 117.219821 
L 330.221764 116.738003 
L 334.155752 115.942086 
L 335.467081 115.454002 
L 336.778411 115.095233 
L 338.08974 114.856246 
L 339.401069 114.784519 
L 343.335057 115.453507 
L 345.957716 116.434287 
L 347.269045 117.102447 
L 348.580374 117.955384 
L 351.203033 119.917428 
L 353.825692 121.807111 
L 356.44835 124.376758 
L 359.071009 126.64773 
L 364.316326 130.093385 
L 370.872973 133.321288 
L 373.495631 134.949803 
L 374.806961 135.893902 
L 377.429619 138.392202 
L 380.052278 141.109112 
L 385.297595 145.577326 
L 389.231583 148.185769 
L 391.854242 149.423681 
L 393.165571 149.726511 
L 394.476901 149.377324 
L 399.722218 147.207208 
L 402.344876 146.708366 
L 403.656206 146.539251 
L 404.967535 146.525423 
L 407.590194 147.107905 
L 408.901523 147.019787 
L 411.524182 145.989694 
L 412.835511 145.756603 
L 415.45817 145.785322 
L 418.080828 145.564892 
L 420.703487 144.654471 
L 422.014816 144.425263 
L 425.948804 143.280322 
L 427.260133 142.785422 
L 428.571463 142.501132 
L 431.194121 142.911889 
L 432.505451 142.88606 
L 433.81678 143.035971 
L 435.128109 143.364176 
L 437.750768 144.44415 
L 440.373427 146.194102 
L 442.996085 147.629526 
L 444.307415 148.441236 
L 446.930073 149.478486 
L 452.17539 151.50403 
L 453.48672 151.774038 
L 454.798049 151.888347 
L 456.109378 151.793087 
L 458.732037 151.270685 
L 462.666025 149.823509 
L 463.977354 148.915782 
L 465.288684 148.224026 
L 466.600013 147.701642 
L 469.222672 147.187955 
L 470.534001 146.66075 
L 473.15666 146.126695 
L 475.779318 145.204422 
L 475.779318 145.204422 
" clip-path="url(#p5b99dde842)" style="fill: none; stroke: #3b6ea8; stroke-width: 2.8; stroke-linecap: square"/>
   </g>
   <g id="patch_3">
    <path d="M 65.464375 183.85 
L 65.464375 7.2 
" style="fill: none; stroke: #000000; stroke-width: 0.8; stroke-linejoin: miter; stroke-linecap: square"/>
   </g>
   <g id="patch_4">
    <path d="M 65.464375 183.85 
L 495.318125 183.85 
" style="fill: none; stroke: #000000; stroke-width: 0.8; stroke-linejoin: miter; stroke-linecap: square"/>
   </g>
  </g>
  <g id="axes_2">
   <g id="patch_5">
    <path d="M 65.464375 385.72 
L 495.318125 385.72 
L 495.318125 209.07 
L 65.464375 209.07 
L 65.464375 385.72 
z
" style="fill: none"/>
   </g>
   <g id="matplotlib.axis_3">
    <g id="xtick_8">
     <g id="line2d_17">
      <g>
       <use xlink:href="#m07f907cb44" x="82.380523" y="385.72" style="stroke: #000000; stroke-width: 0.8"/>
      </g>
     </g>
     <g id="text_10">
      <text style="font: 10px 'Arial'; text-anchor: middle" x="82.380523" y="399.877813" transform="rotate(-0 82.380523 399.877813)">0</text>
     </g>
    </g>
    <g id="xtick_9">
     <g id="line2d_18">
      <g>
       <use xlink:href="#m07f907cb44" x="147.946989" y="385.72" style="stroke: #000000; stroke-width: 0.8"/>
      </g>
     </g>
     <g id="text_11">
      <text style="font: 10px 'Arial'; text-anchor: middle" x="147.946989" y="399.877813" transform="rotate(-0 147.946989 399.877813)">50</text>
     </g>
    </g>
    <g id="xtick_10">
     <g id="line2d_19">
      <g>
       <use xlink:href="#m07f907cb44" x="213.513455" y="385.72" style="stroke: #000000; stroke-width: 0.8"/>
      </g>
     </g>
     <g id="text_12">
      <text style="font: 10px 'Arial'; text-anchor: middle" x="213.513455" y="399.877813" transform="rotate(-0 213.513455 399.877813)">100</text>
     </g>
    </g>
    <g id="xtick_11">
     <g id="line2d_20">
      <g>
       <use xlink:href="#m07f907cb44" x="279.079921" y="385.72" style="stroke: #000000; stroke-width: 0.8"/>
      </g>
     </g>
     <g id="text_13">
      <text style="font: 10px 'Arial'; text-anchor: middle" x="279.079921" y="399.877813" transform="rotate(-0 279.079921 399.877813)">150</text>
     </g>
    </g>
    <g id="xtick_12">
     <g id="line2d_21">
      <g>
       <use xlink:href="#m07f907cb44" x="344.646387" y="385.72" style="stroke: #000000; stroke-width: 0.8"/>
      </g>
     </g>
     <g id="text_14">
      <text style="font: 10px 'Arial'; text-anchor: middle" x="344.646387" y="399.877813" transform="rotate(-0 344.646387 399.877813)">200</text>
     </g>
    </g>
    <g id="xtick_13">
     <g id="line2d_22">
      <g>
       <use xlink:href="#m07f907cb44" x="410.212852" y="385.72" style="stroke: #000000; stroke-width: 0.8"/>
      </g>
     </g>
     <g id="text_15">
      <text style="font: 10px 'Arial'; text-anchor: middle" x="410.212852" y="399.877813" transform="rotate(-0 410.212852 399.877813)">250</text>
     </g>
    </g>
    <g id="xtick_14">
     <g id="line2d_23">
      <g>
       <use xlink:href="#m07f907cb44" x="475.779318" y="385.72" style="stroke: #000000; stroke-width: 0.8"/>
      </g>
     </g>
     <g id="text_16">
      <text style="font: 10px 'Arial'; text-anchor: middle" x="475.779318" y="399.877813" transform="rotate(-0 475.779318 399.877813)">300</text>
     </g>
    </g>
    <g id="text_17">
     <text style="font: 12px 'Arial'; text-anchor: middle" x="280.39125" y="414.454688" transform="rotate(-0 280.39125 414.454688)">Epoch</text>
    </g>
   </g>
   <g id="matplotlib.axis_4">
    <g id="ytick_9">
     <g id="line2d_24">
      <g>
       <use xlink:href="#m1660ab3e26" x="65.464375" y="385.051109" style="stroke: #000000; stroke-width: 0.8"/>
      </g>
     </g>
     <g id="text_18">
      <text style="font: 10px 'Arial'; text-anchor: end" x="58.464375" y="388.630015" transform="rotate(-0 58.464375 388.630015)">−3</text>
     </g>
    </g>
    <g id="ytick_10">
     <g id="line2d_25">
      <g>
       <use xlink:href="#m1660ab3e26" x="65.464375" y="361.322949" style="stroke: #000000; stroke-width: 0.8"/>
      </g>
     </g>
     <g id="text_19">
      <text style="font: 10px 'Arial'; text-anchor: end" x="58.464375" y="364.901855" transform="rotate(-0 58.464375 364.901855)">−2</text>
     </g>
    </g>
    <g id="ytick_11">
     <g id="line2d_26">
      <g>
       <use xlink:href="#m1660ab3e26" x="65.464375" y="337.594789" style="stroke: #000000; stroke-width: 0.8"/>
      </g>
     </g>
     <g id="text_20">
      <text style="font: 10px 'Arial'; text-anchor: end" x="58.464375" y="341.173695" transform="rotate(-0 58.464375 341.173695)">−1</text>
     </g>
    </g>
    <g id="ytick_12">
     <g id="line2d_27">
      <g>
       <use xlink:href="#m1660ab3e26" x="65.464375" y="313.866629" style="stroke: #000000; stroke-width: 0.8"/>
      </g>
     </g>
     <g id="text_21">
      <text style="font: 10px 'Arial'; text-anchor: end" x="58.464375" y="317.445535" transform="rotate(-0 58.464375 317.445535)">0</text>
     </g>
    </g>
    <g id="ytick_13">
     <g id="line2d_28">
      <g>
       <use xlink:href="#m1660ab3e26" x="65.464375" y="290.138468" style="stroke: #000000; stroke-width: 0.8"/>
      </g>
     </g>
     <g id="text_22">
      <text style="font: 10px 'Arial'; text-anchor: end" x="58.464375" y="293.717375" transform="rotate(-0 58.464375 293.717375)">1</text>
     </g>
    </g>
    <g id="ytick_14">
     <g id="line2d_29">
      <g>
       <use xlink:href="#m1660ab3e26" x="65.464375" y="266.410308" style="stroke: #000000; stroke-width: 0.8"/>
      </g>
     </g>
     <g id="text_23">
      <text style="font: 10px 'Arial'; text-anchor: end" x="58.464375" y="269.989214" transform="rotate(-0 58.464375 269.989214)">2</text>
     </g>
    </g>
    <g id="ytick_15">
     <g id="line2d_30">
      <g>
       <use xlink:href="#m1660ab3e26" x="65.464375" y="242.682148" style="stroke: #000000; stroke-width: 0.8"/>
      </g>
     </g>
     <g id="text_24">
      <text style="font: 10px 'Arial'; text-anchor: end" x="58.464375" y="246.261054" transform="rotate(-0 58.464375 246.261054)">3</text>
     </g>
    </g>
    <g id="ytick_16">
     <g id="line2d_31">
      <g>
       <use xlink:href="#m1660ab3e26" x="65.464375" y="218.953988" style="stroke: #000000; stroke-width: 0.8"/>
      </g>
     </g>
     <g id="text_25">
      <text style="font: 10px 'Arial'; text-anchor: end" x="58.464375" y="222.532894" transform="rotate(-0 58.464375 222.532894)">4</text>
     </g>
    </g>
    <g id="text_26">
     <text style="font: 12px 'Arial'; text-anchor: middle" x="40.537188" y="297.395" transform="rotate(-90 40.537188 297.395)">Drift velocity</text>
    </g>
    <g id="text_27">
     <text style="font: 10px 'Arial'; text-anchor: start" x="65.464375" y="206.07" transform="rotate(-0 65.464375 206.07)">1e−6</text>
    </g>
   </g>
   <g id="line2d_32">
    <path d="M 85.003182 227.613244 
L 86.314511 217.998692 
L 87.62584 217.099545 
L 88.93717 218.585475 
L 90.248499 221.228326 
L 91.559828 224.496394 
L 94.182487 232.513477 
L 96.805146 244.245886 
L 98.116475 249.315276 
L 99.427804 253.378435 
L 100.739134 256.073223 
L 102.050463 257.51707 
L 103.361792 258.006403 
L 104.673122 263.854928 
L 105.984451 271.72607 
L 107.29578 274.731394 
L 108.60711 275.989809 
L 109.918439 276.09009 
L 111.229768 275.163031 
L 112.541097 272.999455 
L 115.163756 267.430292 
L 116.475085 264.999553 
L 117.786415 262.906223 
L 119.097744 261.170303 
L 120.409073 260.02486 
L 121.720403 259.816569 
L 123.031732 260.68126 
L 124.343061 262.590644 
L 125.654391 265.367761 
L 128.277049 272.180907 
L 129.588379 275.777827 
L 130.899708 279.723631 
L 134.833696 292.395122 
L 136.145025 295.579225 
L 137.456354 297.824694 
L 138.767684 299.805627 
L 140.079013 302.25452 
L 142.701672 307.613989 
L 144.013001 309.813305 
L 146.63566 313.564701 
L 149.258318 317.790924 
L 151.880977 321.537959 
L 154.503636 324.788558 
L 155.814965 326.716197 
L 157.126294 329.430699 
L 158.437624 332.686571 
L 159.748953 335.417219 
L 161.060282 337.101196 
L 162.371612 337.629738 
L 163.682941 337.42654 
L 164.99427 336.797037 
L 167.616929 334.619799 
L 170.239587 333.34701 
L 171.550917 332.965715 
L 172.862246 333.120559 
L 174.173575 333.93037 
L 175.484905 335.124012 
L 176.796234 335.872899 
L 178.107563 335.982961 
L 179.418893 336.238877 
L 180.730222 337.290968 
L 182.041551 339.323839 
L 183.352881 342.89171 
L 184.66421 347.575422 
L 185.975539 351.77334 
L 187.286869 354.924181 
L 188.598198 357.450798 
L 189.909527 359.724457 
L 191.220856 361.397134 
L 192.532186 362.225584 
L 193.843515 362.072411 
L 195.154844 361.280043 
L 199.088832 359.491483 
L 201.711491 357.196216 
L 203.02282 354.471211 
L 204.33415 350.342774 
L 205.645479 347.179299 
L 208.268138 342.813175 
L 209.579467 340.947135 
L 210.890796 339.419843 
L 212.202126 338.330973 
L 213.513455 337.90712 
L 217.447443 338.354686 
L 218.758772 338.846755 
L 220.070101 339.55116 
L 221.381431 340.654714 
L 222.69276 342.756212 
L 224.004089 345.643655 
L 225.315419 348.160764 
L 226.626748 351.063583 
L 227.938077 354.425299 
L 229.249407 357.431283 
L 230.560736 360.872536 
L 231.872065 364.672632 
L 233.183395 367.952729 
L 235.806053 372.981765 
L 237.117383 375.170065 
L 238.428712 376.801598 
L 239.740041 377.690455 
L 241.051371 377.631197 
L 242.3627 376.785637 
L 243.674029 375.489188 
L 244.985358 373.982165 
L 246.296688 371.636784 
L 248.919346 365.759688 
L 250.230676 361.456538 
L 254.164664 346.609644 
L 255.475993 340.734177 
L 258.098652 328.383912 
L 259.409981 323.051082 
L 260.72131 318.485452 
L 262.03264 314.949107 
L 263.343969 312.299995 
L 264.655298 310.151215 
L 265.966628 308.571574 
L 267.277957 307.423463 
L 268.589286 307.016414 
L 269.900615 307.778078 
L 271.211945 308.822728 
L 272.523274 310.313163 
L 273.834603 312.981505 
L 275.145933 317.6192 
L 277.768591 330.191492 
L 279.079921 336.698291 
L 280.39125 342.598214 
L 281.702579 347.344284 
L 284.325238 355.310618 
L 285.636567 358.628247 
L 286.947897 361.255129 
L 288.259226 363.474397 
L 289.570555 364.958799 
L 290.881885 366.269226 
L 292.193214 367.212373 
L 293.504543 367.254773 
L 294.815872 366.041505 
L 297.438531 361.902696 
L 302.683848 351.959232 
L 303.995178 349.122994 
L 305.306507 347.154664 
L 306.617836 346.244995 
L 307.929166 345.090351 
L 309.240495 343.707585 
L 310.551824 342.012455 
L 314.485812 336.355008 
L 315.797142 333.85782 
L 318.4198 327.712864 
L 319.731129 324.216752 
L 321.042459 321.331444 
L 323.665117 317.011728 
L 324.976447 313.932978 
L 326.287776 310.1288 
L 327.599105 307.042294 
L 328.910435 305.026465 
L 330.221764 304.323901 
L 331.533093 304.330397 
L 332.844423 304.590595 
L 334.155752 305.738452 
L 335.467081 307.819913 
L 336.778411 310.595728 
L 338.08974 314.335138 
L 340.712399 324.041712 
L 343.335057 332.651575 
L 344.646387 338.099139 
L 345.957716 344.213158 
L 347.269045 349.58176 
L 348.580374 354.201833 
L 349.891704 357.494495 
L 352.514362 362.523372 
L 353.825692 364.090254 
L 355.137021 364.804387 
L 356.44835 365.059686 
L 357.75968 364.624881 
L 360.382338 362.243032 
L 361.693668 361.545698 
L 363.004997 361.078322 
L 365.627656 359.43288 
L 366.938985 359.604846 
L 368.250314 360.363683 
L 370.872973 362.840154 
L 372.184302 363.48875 
L 373.495631 364.588202 
L 374.806961 366.200135 
L 376.11829 367.313877 
L 377.429619 368.158425 
L 378.740949 369.186509 
L 380.052278 369.567219 
L 381.363607 369.11341 
L 382.674937 367.74506 
L 383.986266 364.439727 
L 385.297595 359.000394 
L 389.231583 338.850061 
L 390.542913 333.189508 
L 393.165571 323.656061 
L 394.476901 319.247448 
L 395.78823 316.185518 
L 397.099559 314.096069 
L 398.410888 311.387263 
L 401.033547 303.465147 
L 402.344876 300.61694 
L 403.656206 300.365717 
L 404.967535 302.052894 
L 406.278864 303.994686 
L 407.590194 305.711218 
L 408.901523 306.424892 
L 411.524182 305.678679 
L 412.835511 305.337098 
L 414.14684 304.363326 
L 415.45817 302.544494 
L 416.769499 299.86868 
L 418.080828 298.044913 
L 419.392158 299.075854 
L 420.703487 301.654335 
L 422.014816 303.221722 
L 423.326146 303.777958 
L 424.637475 304.582179 
L 425.948804 306.42804 
L 427.260133 308.755187 
L 428.571463 312.235734 
L 429.882792 316.996621 
L 431.194121 321.045694 
L 432.505451 324.685336 
L 435.128109 332.617079 
L 436.439439 336.106727 
L 437.750768 339.244328 
L 439.062097 341.056738 
L 440.373427 342.255047 
L 441.684756 343.887365 
L 442.996085 344.926237 
L 444.307415 344.758378 
L 445.618744 343.15243 
L 446.930073 340.606119 
L 448.241403 337.21296 
L 452.17539 323.964326 
L 454.798049 313.300411 
L 456.109378 309.271423 
L 457.420708 306.178541 
L 458.732037 303.531911 
L 461.354696 296.849453 
L 462.666025 294.632805 
L 463.977354 292.683224 
L 465.288684 290.998675 
L 466.600013 289.844115 
L 467.911342 289.129866 
L 469.222672 288.783496 
L 471.84533 288.842375 
L 473.15666 290.178771 
L 474.467989 292.317395 
L 475.779318 293.697687 
L 475.779318 293.697687 
" clip-path="url(#pdafe6c98aa)" style="fill: none; stroke: #b2182b; stroke-width: 2.8; stroke-linecap: square"/>
   </g>
   <g id="line2d_33">
    <path d="M 65.464375 313.866629 
L 495.318125 313.866629 
" clip-path="url(#pdafe6c98aa)" style="fill: none; stroke-dasharray: 3.7,1.6; stroke-dashoffset: 0; stroke: #808080"/>
   </g>
   <g id="patch_6">
    <path d="M 65.464375 385.72 
L 65.464375 209.07 
" style="fill: none; stroke: #000000; stroke-width: 0.8; stroke-linejoin: miter; stroke-linecap: square"/>
   </g>
   <g id="patch_7">
    <path d="M 65.464375 385.72 
L 495.318125 385.72 
" style="fill: none; stroke: #000000; stroke-width: 0.8; stroke-linejoin: miter; stroke-linecap: square"/>
   </g>
  </g>
 </g>
 <defs>
  <clipPath id="p5b99dde842">
   <rect x="65.464375" y="7.2" width="429.85375" height="176.65"/>
  </clipPath>
  <clipPath id="pdafe6c98aa">
   <rect x="65.464375" y="209.07" width="429.85375" height="176.65"/>
  </clipPath>
 </defs>
</svg>
