<?xml version="1.0" encoding="utf-8" standalone="no"?>
<!DOCTYPE svg PUBLIC "-//W3C//DTD SVG 1.1//EN"
  "http://www.w3.org/Graphics/SVG/1.1/DTD/svg11.dtd">
<svg xmlns:xlink="http://www.w3.org/1999/xlink" width="171.8pt" height="171.8pt" viewBox="0 0 171.8 171.8" xmlns="http://www.w3.org/2000/svg" version="1.1">
 <metadata>
  <rdf:RDF xmlns:dc="http://purl.org/dc/elements/1.1/" xmlns:cc="http://creativecommons.org/ns#" xmlns:rdf="http://www.w3.org/1999/02/22-rdf-syntax-ns#">
   <cc:Work>
    <dc:type rdf:resource="http://purl.org/dc/dcmitype/StillImage"/>
    <dc:date>2026-06-11T16:52:33.672401</dc:date>
    <dc:format>image/svg+xml</dc:format>
    <dc:creator>
     <cc:Agent>
      <dc:title>Matplotlib v3.9.4, https://matplotlib.org/</dc:title>
     </cc:Agent>
    </dc:creator>
   </cc:Work>
  </rdf:RDF>
 </metadata>
 <defs>
  <style type="text/css">*{stroke-linejoin: round; stroke-linecap: butt}</style>
 </defs>
 <g id="figure_1">
  <g id="patch_1">
   <path d="M 0 171.8 
L 171.8 171.8 
L 171.8 0 
L 0 0 
L 0 171.8 
z
" style="fill: none"/>
  </g>
  <g id="axes_1">
   <g id="patch_2">
    <path d="M 164.6 85.9 
C 164.6 75.565211 162.564272 65.330914 158.609319 55.782814 
C 154.654367 46.234714 148.857103 37.558496 141.549304 30.250696 
C 134.241504 22.942897 125.565286 17.145633 116.017186 13.190681 
C 106.469086 9.235728 96.234789 7.2 85.9 7.2 
C 75.565211 7.2 65.330914 9.235728 55.782814 13.190681 
C 46.234714 17.145633 37.558496 22.942897 30.250696 30.250696 
C 22.942897 37.558496 17.145633 46.234714 13.190681 55.782814 
C 9.235728 65.330914 7.2 75.565211 7.2 85.9 
C 7.2 96.234789 9.235728 106.469086 13.190681 116.017186 
C 17.145633 125.565286 22.942897 134.241504 30.250696 141.549304 
C 37.558496 148.857103 46.234714 154.654367 55.782814 158.609319 
C 65.330914 162.564272 75.565211 164.6 85.9 164.6 
C 96.234789 164.6 106.469086 162.564272 116.017186 158.609319 
C 125.565286 154.654367 134.241504 148.857103 141.549304 141.549304 
C 148.857103 134.241504 154.654367 125.565286 158.609319 116.017186 
C 162.564272 106.469086 164.6 96.234789 164.6 85.9 
M 85.9 85.9 
C 85.9 85.9 85.9 85.9 85.9 85.9 
C 85.9 85.9 85.9 85.9 85.9 85.9 
C 85.9 85.9 85.9 85.9 85.9 85.9 
C 85.9 85.9 85.9 85.9 85.9 85.9 
C 85.9 85.9 85.9 85.9 85.9 85.9 
C 85.9 85.9 85.9 85.9 85.9 85.9 
C 85.9 85.9 85.9 85.9 85.9 85.9 
C 85.9 85.9 85.9 85.9 85.9 85.9 
C 85.9 85.9 85.9 85.9 85.9 85.9 
C 85.9 85.9 85.9 85.9 85.9 85.9 
C 85.9 85.9 85.9 85.9 85.9 85.9 
C 85.9 85.9 85.9 85.9 85.9 85.9 
C 85.9 85.9 85.9 85.9 85.9 85.9 
C 85.9 85.9 85.9 85.9 85.9 85.9 
C 85.9 85.9 85.9 85.9 85.9 85.9 
C 85.9 85.9 85.9 85.9 85.9 85.9 
L 85.9 85.9 
z
" style="fill: none"/>
   </g>
   <g id="patch_3">
    <path d="M 145.072932 85.9 
L 127.712883 33.468304 
L 72.732784 28.210657 
L 85.9 85.9 
L 36.141228 109.862562 
L 85.9 85.9 
L 112.955395 119.826392 
z
" clip-path="url(#p626bbb142c)" style="fill: #5f8fb8; opacity: 0.25; stroke: #5f8fb8; stroke-linejoin: miter"/>
   </g>
   <g id="matplotlib.axis_1">
    <g id="xtick_1">
     <g id="line2d_1">
      <path d="M 85.9 85.9 
L 164.6 85.9 
" clip-path="url(#p626bbb142c)" style="fill: none; stroke: #b0b0b0; stroke-opacity: 0.35; stroke-width: 0.6; stroke-linecap: square"/>
     </g>
    </g>
    <g id="xtick_2">
     <g id="line2d_2">
      <path d="M 85.9 85.9 
L 134.968647 24.369862 
" clip-path="url(#p626bbb142c)" style="fill: none; stroke: #b0b0b0; stroke-opacity: 0.35; stroke-width: 0.6; stroke-linecap: square"/>
     </g>
    </g>
    <g id="xtick_3">
     <g id="line2d_3">
      <path d="M 85.9 85.9 
L 68.387602 9.173173 
" clip-path="url(#p626bbb142c)" style="fill: none; stroke: #b0b0b0; stroke-opacity: 0.35; stroke-width: 0.6; stroke-linecap: square"/>
     </g>
    </g>
    <g id="xtick_4">
     <g id="line2d_4">
      <path d="M 85.9 85.9 
L 14.99375 51.75335 
" clip-path="url(#p626bbb142c)" style="fill: none; stroke: #b0b0b0; stroke-opacity: 0.35; stroke-width: 0.6; stroke-linecap: square"/>
     </g>
    </g>
    <g id="xtick_5">
     <g id="line2d_5">
      <path d="M 85.9 85.9 
L 14.99375 120.04665 
" clip-path="url(#p626bbb142c)" style="fill: none; stroke: #b0b0b0; stroke-opacity: 0.35; stroke-width: 0.6; stroke-linecap: square"/>
     </g>
    </g>
    <g id="xtick_6">
     <g id="line2d_6">
      <path d="M 85.9 85.9 
L 68.387602 162.626827 
" clip-path="url(#p626bbb142c)" style="fill: none; stroke: #b0b0b0; stroke-opacity: 0.35; stroke-width: 0.6; stroke-linecap: square"/>
     </g>
    </g>
    <g id="xtick_7">
     <g id="line2d_7">
      <path d="M 85.9 85.9 
L 134.968647 147.430138 
" clip-path="url(#p626bbb142c)" style="fill: none; stroke: #b0b0b0; stroke-opacity: 0.35; stroke-width: 0.6; stroke-linecap: square"/>
     </g>
    </g>
   </g>
   <g id="matplotlib.axis_2">
    <g id="ytick_1">
     <g id="line2d_8">
      <path d="M 104.638095 85.9 
C 104.638095 83.439336 104.153398 81.002599 103.211743 78.729241 
C 102.270087 76.455884 100.889786 74.390118 99.149834 72.650166 
C 97.409882 70.910214 95.344116 69.529913 93.070759 68.588257 
C 90.797401 67.646602 88.360664 67.161905 85.9 67.161905 
C 83.439336 67.161905 81.002599 67.646602 78.729241 68.588257 
C 76.455884 69.529913 74.390118 70.910214 72.650166 72.650166 
C 70.910214 74.390118 69.529913 76.455884 68.588257 78.729241 
C 67.646602 81.002599 67.161905 83.439336 67.161905 85.9 
C 67.161905 88.360664 67.646602 90.797401 68.588257 93.070759 
C 69.529913 95.344116 70.910214 97.409882 72.650166 99.149834 
C 74.390118 100.889786 76.455884 102.270087 78.729241 103.211743 
C 81.002599 104.153398 83.439336 104.638095 85.9 104.638095 
C 88.360664 104.638095 90.797401 104.153398 93.070759 103.211743 
C 95.344116 102.270087 97.409882 100.889786 99.149834 99.149834 
C 100.889786 97.409882 102.270087 95.344116 103.211743 93.070759 
C 104.153398 90.797401 104.638095 88.360664 104.638095 85.9 
" clip-path="url(#p626bbb142c)" style="fill: none; stroke: #b0b0b0; stroke-opacity: 0.35; stroke-width: 0.6; stroke-linecap: square"/>
     </g>
    </g>
    <g id="ytick_2">
     <g id="line2d_9">
      <path d="M 123.37619 85.9 
C 123.37619 80.978672 122.406796 76.105197 120.523485 71.558483 
C 118.640175 67.011768 115.879573 62.880236 112.399668 59.400332 
C 108.919764 55.920427 104.788232 53.159825 100.241517 51.276515 
C 95.694803 49.393204 90.821328 48.42381 85.9 48.42381 
C 80.978672 48.42381 76.105197 49.393204 71.558483 51.276515 
C 67.011768 53.159825 62.880236 55.920427 59.400332 59.400332 
C 55.920427 62.880236 53.159825 67.011768 51.276515 71.558483 
C 49.393204 76.105197 48.42381 80.978672 48.42381 85.9 
C 48.42381 90.821328 49.393204 95.694803 51.276515 100.241517 
C 53.159825 104.788232 55.920427 108.919764 59.400332 112.399668 
C 62.880236 115.879573 67.011768 118.640175 71.558483 120.523485 
C 76.105197 122.406796 80.978672 123.37619 85.9 123.37619 
C 90.821328 123.37619 95.694803 122.406796 100.241517 120.523485 
C 104.788232 118.640175 108.919764 115.879573 112.399668 112.399668 
C 115.879573 108.919764 118.640175 104.788232 120.523485 100.241517 
C 122.406796 95.694803 123.37619 90.821328 123.37619 85.9 
" clip-path="url(#p626bbb142c)" style="fill: none; stroke: #b0b0b0; stroke-opacity: 0.35; stroke-width: 0.6; stroke-linecap: square"/>
     </g>
    </g>
    <g id="ytick_3">
     <g id="line2d_10">
      <path d="M 142.114286 85.9 
C 142.114286 78.518008 140.660194 71.207796 137.835228 64.387724 
C 135.010262 57.567653 130.869359 51.370354 125.649503 46.150497 
C 120.429646 40.930641 114.232347 36.789738 107.412276 33.964772 
C 100.592204 31.139806 93.281992 29.685714 85.9 29.685714 
C 78.518008 29.685714 71.207796 31.139806 64.387724 33.964772 
C 57.567653 36.789738 51.370354 40.930641 46.150497 46.150497 
C 40.930641 51.370354 36.789738 57.567653 33.964772 64.387724 
C 31.139806 71.207796 29.685714 78.518008 29.685714 85.9 
C 29.685714 93.281992 31.139806 100.592204 33.964772 107.412276 
C 36.789738 114.232347 40.930641 120.429646 46.150497 125.649503 
C 51.370354 130.869359 57.567653 135.010262 64.387724 137.835228 
C 71.207796 140.660194 78.518008 142.114286 85.9 142.114286 
C 93.281992 142.114286 100.592204 140.660194 107.412276 137.835228 
C 114.232347 135.010262 120.429646 130.869359 125.649503 125.649503 
C 130.869359 120.429646 135.010262 114.232347 137.835228 107.412276 
C 140.660194 100.592204 142.114286 93.281992 142.114286 85.9 
" clip-path="url(#p626bbb142c)" style="fill: none; stroke: #b0b0b0; stroke-opacity: 0.35; stroke-width: 0.6; stroke-linecap: square"/>
     </g>
    </g>
    <g id="ytick_4">
     <g id="line2d_11">
      <path d="M 160.852381 85.9 
C 160.852381 76.057344 158.913592 66.310394 155.146971 57.216966 
C 151.380349 48.123537 145.859146 39.860472 138.899337 32.900663 
C 131.939528 25.940854 123.676463 20.419651 114.583034 16.653029 
C 105.489606 12.886408 95.742656 10.947619 85.9 10.947619 
C 76.057344 10.947619 66.310394 12.886408 57.216966 16.653029 
C 48.123537 20.419651 39.860472 25.940854 32.900663 32.900663 
C 25.940854 39.860472 20.419651 48.123537 16.653029 57.216966 
C 12.886408 66.310394 10.947619 76.057344 10.947619 85.9 
C 10.947619 95.742656 12.886408 105.489606 16.653029 114.583034 
C 20.419651 123.676463 25.940854 131.939528 32.900663 138.899337 
C 39.860472 145.859146 48.123537 151.380349 57.216966 155.146971 
C 66.310394 158.913592 76.057344 160.852381 85.9 160.852381 
C 95.742656 160.852381 105.489606 158.913592 114.583034 155.146971 
C 123.676463 151.380349 131.939528 145.859146 138.899337 138.899337 
C 145.859146 131.939528 151.380349 123.676463 155.146971 114.583034 
C 158.913592 105.489606 160.852381 95.742656 160.852381 85.9 
" clip-path="url(#p626bbb142c)" style="fill: none; stroke: #b0b0b0; stroke-opacity: 0.35; stroke-width: 0.6; stroke-linecap: square"/>
     </g>
    </g>
   </g>
   <g id="line2d_12">
    <path d="M 145.072932 85.9 
L 127.712883 33.468304 
L 72.732784 28.210657 
L 85.9 85.9 
L 36.141228 109.862562 
L 85.9 85.9 
L 112.955395 119.826392 
L 145.072932 85.9 
" clip-path="url(#p626bbb142c)" style="fill: none; stroke: #5f8fb8; stroke-width: 2; stroke-linecap: square"/>
   </g>
   <g id="patch_4">
    <path d="M 164.6 85.9 
C 164.6 75.565211 162.564272 65.330914 158.609319 55.782814 
C 154.654367 46.234714 148.857103 37.558496 141.549304 30.250696 
C 134.241504 22.942897 125.565286 17.145633 116.017186 13.190681 
C 106.469086 9.235728 96.234789 7.2 85.9 7.2 
C 75.565211 7.2 65.330914 9.235728 55.782814 13.190681 
C 46.234714 17.145633 37.558496 22.942897 30.250696 30.250696 
C 22.942897 37.558496 17.145633 46.234714 13.190681 55.782814 
C 9.235728 65.330914 7.2 75.565211 7.2 85.9 
C 7.2 96.234789 9.235728 106.469086 13.190681 116.017186 
C 17.145633 125.565286 22.942897 134.241504 30.250696 141.549304 
C 37.558496 148.857103 46.234714 154.654367 55.782814 158.609319 
C 65.330914 162.564272 75.565211 164.6 85.9 164.6 
C 96.234789 164.6 106.469086 162.564272 116.017186 158.609319 
C 125.565286 154.654367 134.241504 148.857103 141.549304 141.549304 
C 148.857103 134.241504 154.654367 125.565286 158.609319 116.017186 
C 162.564272 106.469086 164.6 96.234789 164.6 85.9 
" style="fill: none; opacity: 0.45; stroke: #000000; stroke-width: 0.8; stroke-linejoin: miter; stroke-linecap: square"/>
   </g>
  </g>
 </g>
 <defs>
  <clipPath id="p626bbb142c">
   <path d="M 164.6 85.9 
C 164.6 75.565211 162.564272 65.330914 158.609319 55.782814 
C 154.654367 46.234714 148.857103 37.558496 141.549304 30.250696 
C 134.241504 22.942897 125.565286 17.145633 116.017186 13.190681 
C 106.469086 9.235728 96.234789 7.2 85.9 7.2 
C 75.565211 7.2 65.330914 9.235728 55.782814 13.190681 
C 46.234714 17.145633 37.558496 22.942897 30.250696 30.250696 
C 22.942897 37.558496 17.145633 46.234714 13.190681 55.782814 
C 9.235728 65.330914 7.2 75.565211 7.2 85.9 
C 7.2 96.234789 9.235728 106.469086 13.190681 116.017186 
C 17.145633 125.565286 22.942897 134.241504 30.250696 141.549304 
C 37.558496 148.857103 46.234714 154.654367 55.782814 158.609319 
C 65.330914 162.564272 75.565211 164.6 85.9 164.6 
C 96.234789 164.6 106.469086 162.564272 116.017186 158.609319 
C 125.565286 154.654367 134.241504 148.857103 141.549304 141.549304 
C 148.857103 134.241504 154.654367 125.565286 158.609319 116.017186 
C 162.564272 106.469086 164.6 96.234789 164.6 85.9 
M 85.9 85.9 
C 85.9 85.9 85.9 85.9 85.9 85.9 
C 85.9 85.9 85.9 85.9 85.9 85.9 
C 85.9 85.9 85.9 85.9 85.9 85.9 
C 85.9 85.9 85.9 85.9 85.9 85.9 
C 85.9 85.9 85.9 85.9 85.9 85.9 
C 85.9 85.9 85.9 85.9 85.9 85.9 
C 85.9 85.9 85.9 85.9 85.9 85.9 
C 85.9 85.9 85.9 85.9 85.9 85.9 
C 85.9 85.9 85.9 85.9 85.9 85.9 
C 85.9 85.9 85.9 85.9 85.9 85.9 
C 85.9 85.9 85.9 85.9 85.9 85.9 
C 85.9 85.9 85.9 85.9 85.9 85.9 
C 85.9 85.9 85.9 85.9 85.9 85.9 
C 85.9 85.9 85.9 85.9 85.9 85.9 
C 85.9 85.9 85.9 85.9 85.9 85.9 
C 85.9 85.9 85.9 85.9 85.9 85.9 
z
"/>
  </clipPath>
 </defs>
</svg>
