<?xml version="1.0" encoding="utf-8" standalone="no"?>
<!DOCTYPE svg PUBLIC "-//W3C//DTD SVG 1.1//EN"
  "http://www.w3.org/Graphics/SVG/1.1/DTD/svg11.dtd">
<svg xmlns:xlink="http://www.w3.org/1999/xlink" width="297.668219pt" height="271.560906pt" viewBox="0 0 297.668219 271.560906" xmlns="http://www.w3.org/2000/svg" version="1.1">
 <metadata>
  <rdf:RDF xmlns:dc="http://purl.org/dc/elements/1.1/" xmlns:cc="http://creativecommons.org/ns#" xmlns:rdf="http://www.w3.org/1999/02/22-rdf-syntax-ns#">
   <cc:Work>
    <dc:type rdf:resource="http://purl.org/dc/dcmitype/StillImage"/>
    <dc:date>2026-06-11T16:38:29.097913</dc:date>
    <dc:format>image/svg+xml</dc:format>
    <dc:creator>
     <cc:Agent>
      <dc:title>Matplotlib v3.9.4, https://matplotlib.org/</dc:title>
     </cc:Agent>
    </dc:creator>
   </cc:Work>
  </rdf:RDF>
 </metadata>
 <defs>
  <style type="text/css">*{stroke-linejoin: round; stroke-linecap: butt}</style>
 </defs>
 <g id="figure_1">
  <g id="patch_1">
   <path d="M 0 271.560906 
L 297.668219 271.560906 
L 297.668219 0 
L 0 0 
z
" style="fill: #ffffff"/>
  </g>
  <g id="axes_1">
   <g id="patch_2">
    <path d="M 248.458922 147.127758 
C 248.458922 133.617809 245.797756 120.239227 240.627723 107.757662 
C 235.457689 95.276097 227.879331 83.934283 218.326355 74.381306 
C 208.773379 64.82833 197.431565 57.249972 184.949999 52.079939 
C 172.468434 46.909905 159.089852 44.24874 145.579904 44.24874 
C 132.069955 44.24874 118.691373 46.909905 106.209808 52.079939 
C 93.728243 57.249972 82.386429 64.82833 72.833452 74.381306 
C 63.280476 83.934283 55.702118 95.276097 50.532084 107.757662 
C 45.362051 120.239227 42.700885 133.617809 42.700885 147.127758 
C 42.700885 160.637707 45.362051 174.016288 50.532084 186.497854 
C 55.702118 198.979419 63.280476 210.321233 72.833452 219.874209 
C 82.386429 229.427186 93.728243 237.005543 106.209808 242.175577 
C 118.691373 247.345611 132.069955 250.006776 145.579904 250.006776 
C 159.089852 250.006776 172.468434 247.345611 184.949999 242.175577 
C 197.431565 237.005543 208.773379 229.427186 218.326355 219.874209 
C 227.879331 210.321233 235.457689 198.979419 240.627723 186.497854 
C 245.797756 174.016288 248.458922 160.637707 248.458922 147.127758 
M 145.579904 147.127758 
C 145.579904 147.127758 145.579904 147.127758 145.579904 147.127758 
C 145.579904 147.127758 145.579904 147.127758 145.579904 147.127758 
C 145.579904 147.127758 145.579904 147.127758 145.579904 147.127758 
C 145.579904 147.127758 145.579904 147.127758 145.579904 147.127758 
C 145.579904 147.127758 145.579904 147.127758 145.579904 147.127758 
C 145.579904 147.127758 145.579904 147.127758 145.579904 147.127758 
C 145.579904 147.127758 145.579904 147.127758 145.579904 147.127758 
C 145.579904 147.127758 145.579904 147.127758 145.579904 147.127758 
C 145.579904 147.127758 145.579904 147.127758 145.579904 147.127758 
C 145.579904 147.127758 145.579904 147.127758 145.579904 147.127758 
C 145.579904 147.127758 145.579904 147.127758 145.579904 147.127758 
C 145.579904 147.127758 145.579904 147.127758 145.579904 147.127758 
C 145.579904 147.127758 145.579904 147.127758 145.579904 147.127758 
C 145.579904 147.127758 145.579904 147.127758 145.579904 147.127758 
C 145.579904 147.127758 145.579904 147.127758 145.579904 147.127758 
C 145.579904 147.127758 145.579904 147.127758 145.579904 147.127758 
z
" style="fill: #ffffff"/>
   </g>
   <g id="patch_3">
    <path d="M 222.932549 147.127758 
L 200.238967 78.58746 
L 128.367321 71.714505 
L 145.579904 147.127758 
L 80.533733 178.452342 
L 145.579904 147.127758 
L 180.947533 191.477362 
z
" clip-path="url(#p1b9f77fdb4)" style="fill: #d98b73; opacity: 0.22; stroke: #d98b73; stroke-linejoin: miter"/>
   </g>
   <g id="matplotlib.axis_1">
    <g id="xtick_1">
     <g id="line2d_1">
      <path d="M 145.579904 147.127758 
L 248.458922 147.127758 
" clip-path="url(#p1b9f77fdb4)" style="fill: none; stroke: #b0b0b0; stroke-opacity: 0.45; stroke-width: 0.6; stroke-linecap: square"/>
     </g>
     <g id="text_1">
      <text style="font: 7px 'Arial'; text-anchor: middle" x="262.458922" y="148.937367" transform="rotate(-0 262.458922 148.937367)">SEI/CEI formation</text>
     </g>
    </g>
    <g id="xtick_2">
     <g id="line2d_2">
      <path d="M 145.579904 147.127758 
L 209.723922 66.693702 
" clip-path="url(#p1b9f77fdb4)" style="fill: none; stroke: #b0b0b0; stroke-opacity: 0.45; stroke-width: 0.6; stroke-linecap: square"/>
     </g>
     <g id="text_2">
      <text style="font: 7px 'Arial'; text-anchor: middle" x="218.452779" y="57.557671" transform="rotate(-0 218.452779 57.557671)">LiF/B-O interface</text>
     </g>
    </g>
    <g id="xtick_3">
     <g id="line2d_3">
      <path d="M 145.579904 147.127758 
L 122.687168 46.828131 
" clip-path="url(#p1b9f77fdb4)" style="fill: none; stroke: #b0b0b0; stroke-opacity: 0.45; stroke-width: 0.6; stroke-linecap: square"/>
     </g>
     <g id="text_3">
      <text style="font: 7px 'Arial'; text-anchor: middle" x="119.571875" y="35.031406" transform="rotate(-0 119.571875 35.031406)">Lewis acid/anion receptor</text>
     </g>
    </g>
    <g id="xtick_4">
     <g id="line2d_4">
      <path d="M 145.579904 147.127758 
L 52.889111 102.490225 
" clip-path="url(#p1b9f77fdb4)" style="fill: none; stroke: #b0b0b0; stroke-opacity: 0.45; stroke-width: 0.6; stroke-linecap: square"/>
     </g>
     <g id="text_4">
      <text style="font: 7px 'Arial'; text-anchor: middle" x="40.275547" y="98.225462" transform="rotate(-0 40.275547 98.225462)">Solvation/desolvation</text>
     </g>
    </g>
    <g id="xtick_5">
     <g id="line2d_5">
      <path d="M 145.579904 147.127758 
L 52.889111 191.765291 
" clip-path="url(#p1b9f77fdb4)" style="fill: none; stroke: #b0b0b0; stroke-opacity: 0.45; stroke-width: 0.6; stroke-linecap: square"/>
     </g>
     <g id="text_5">
      <text style="font: 7px 'Arial'; text-anchor: middle" x="40.275547" y="199.653101" transform="rotate(-0 40.275547 199.653101)">HF/H2O scavenging</text>
     </g>
    </g>
    <g id="xtick_6">
     <g id="line2d_6">
      <path d="M 145.579904 147.127758 
L 122.687168 247.427384 
" clip-path="url(#p1b9f77fdb4)" style="fill: none; stroke: #b0b0b0; stroke-opacity: 0.45; stroke-width: 0.6; stroke-linecap: square"/>
     </g>
     <g id="text_6">
      <text style="font: 7px 'Arial'; text-anchor: middle" x="119.571875" y="262.887625" transform="rotate(-0 119.571875 262.887625)">Polymer/gel strengthening</text>
     </g>
    </g>
    <g id="xtick_7">
     <g id="line2d_7">
      <path d="M 145.579904 147.127758 
L 209.723922 227.561813 
" clip-path="url(#p1b9f77fdb4)" style="fill: none; stroke: #b0b0b0; stroke-opacity: 0.45; stroke-width: 0.6; stroke-linecap: square"/>
     </g>
     <g id="text_7">
      <text style="font: 7px 'Arial'; text-anchor: middle" x="218.452779" y="240.318704" transform="rotate(-0 218.452779 240.318704)">Thermal/corrosion stability</text>
     </g>
    </g>
   </g>
   <g id="matplotlib.axis_2">
    <g id="ytick_1">
     <g id="line2d_8">
      <path d="M 170.074908 147.127758 
C 170.074908 143.911103 169.441297 140.725727 168.210337 137.753925 
C 166.979376 134.782124 165.175005 132.081692 162.900487 129.807174 
C 160.625969 127.532656 157.925537 125.728285 154.953736 124.497325 
C 151.981935 123.266364 148.796558 122.632753 145.579904 122.632753 
C 142.363249 122.632753 139.177872 123.266364 136.206071 124.497325 
C 133.23427 125.728285 130.533838 127.532656 128.25932 129.807174 
C 125.984802 132.081692 124.180431 134.782124 122.94947 137.753925 
C 121.71851 140.725727 121.084899 143.911103 121.084899 147.127758 
C 121.084899 150.344412 121.71851 153.529789 122.94947 156.50159 
C 124.180431 159.473391 125.984802 162.173823 128.25932 164.448341 
C 130.533838 166.72286 133.23427 168.527231 136.206071 169.758191 
C 139.177872 170.989151 142.363249 171.622762 145.579904 171.622762 
C 148.796558 171.622762 151.981935 170.989151 154.953736 169.758191 
C 157.925537 168.527231 160.625969 166.72286 162.900487 164.448341 
C 165.175005 162.173823 166.979376 159.473391 168.210337 156.50159 
C 169.441297 153.529789 170.074908 150.344412 170.074908 147.127758 
" clip-path="url(#p1b9f77fdb4)" style="fill: none; stroke: #b0b0b0; stroke-opacity: 0.45; stroke-width: 0.6; stroke-linecap: square"/>
     </g>
     <g id="text_8">
      <text style="font: 7px 'Arial'; text-anchor: start" x="168.210337" y="136.362675" transform="rotate(-0 168.210337 136.362675)">0.25</text>
     </g>
    </g>
    <g id="ytick_2">
     <g id="line2d_9">
      <path d="M 194.569912 147.127758 
C 194.569912 140.694449 193.302691 134.323696 190.84077 128.380093 
C 188.378849 122.436491 184.770107 117.035627 180.221071 112.48659 
C 175.672034 107.937554 170.271171 104.328812 164.327568 101.866892 
C 158.383966 99.404971 152.013213 98.137749 145.579904 98.137749 
C 139.146595 98.137749 132.775841 99.404971 126.832239 101.866892 
C 120.888636 104.328812 115.487773 107.937554 110.938736 112.48659 
C 106.3897 117.035627 102.780958 122.436491 100.319037 128.380093 
C 97.857117 134.323696 96.589895 140.694449 96.589895 147.127758 
C 96.589895 153.561067 97.857117 159.93182 100.319037 165.875422 
C 102.780958 171.819025 106.3897 177.219889 110.938736 181.768925 
C 115.487773 186.317962 120.888636 189.926703 126.832239 192.388624 
C 132.775841 194.850545 139.146595 196.117766 145.579904 196.117766 
C 152.013213 196.117766 158.383966 194.850545 164.327568 192.388624 
C 170.271171 189.926703 175.672034 186.317962 180.221071 181.768925 
C 184.770107 177.219889 188.378849 171.819025 190.84077 165.875422 
C 193.302691 159.93182 194.569912 153.561067 194.569912 147.127758 
" clip-path="url(#p1b9f77fdb4)" style="fill: none; stroke: #b0b0b0; stroke-opacity: 0.45; stroke-width: 0.6; stroke-linecap: square"/>
     </g>
     <g id="text_9">
      <text style="font: 7px 'Arial'; text-anchor: start" x="190.84077" y="126.988843" transform="rotate(-0 190.84077 126.988843)">0.50</text>
     </g>
    </g>
    <g id="ytick_3">
     <g id="line2d_10">
      <path d="M 219.064917 147.127758 
C 219.064917 137.477794 217.164084 127.921665 213.471203 119.006261 
C 209.778322 110.090857 204.365209 101.989561 197.541655 95.166007 
C 190.7181 88.342452 182.616804 82.92934 173.701401 79.236458 
C 164.785997 75.543577 155.229867 73.642745 145.579904 73.642745 
C 135.92994 73.642745 126.37381 75.543577 117.458407 79.236458 
C 108.543003 82.92934 100.441707 88.342452 93.618153 95.166007 
C 86.794598 101.989561 81.381485 110.090857 77.688604 119.006261 
C 73.995723 127.921665 72.094891 137.477794 72.094891 147.127758 
C 72.094891 156.777721 73.995723 166.333851 77.688604 175.249255 
C 81.381485 184.164659 86.794598 192.265954 93.618153 199.089509 
C 100.441707 205.913063 108.543003 211.326176 117.458407 215.019057 
C 126.37381 218.711938 135.92994 220.612771 145.579904 220.612771 
C 155.229867 220.612771 164.785997 218.711938 173.701401 215.019057 
C 182.616804 211.326176 190.7181 205.913063 197.541655 199.089509 
C 204.365209 192.265954 209.778322 184.164659 213.471203 175.249255 
C 217.164084 166.333851 219.064917 156.777721 219.064917 147.127758 
" clip-path="url(#p1b9f77fdb4)" style="fill: none; stroke: #b0b0b0; stroke-opacity: 0.45; stroke-width: 0.6; stroke-linecap: square"/>
     </g>
     <g id="text_10">
      <text style="font: 7px 'Arial'; text-anchor: start" x="213.471203" y="117.615011" transform="rotate(-0 213.471203 117.615011)">0.75</text>
     </g>
    </g>
    <g id="ytick_4">
     <g id="line2d_11">
      <path d="M 243.559921 147.127758 
C 243.559921 134.26114 241.025478 121.519633 236.101636 109.632428 
C 231.177795 97.745223 223.960311 86.943496 214.862238 77.845423 
C 205.764165 68.74735 194.962438 61.529867 183.075233 56.606025 
C 171.188028 51.682184 158.446522 49.14774 145.579904 49.14774 
C 132.713286 49.14774 119.971779 51.682184 108.084574 56.606025 
C 96.197369 61.529867 85.395642 68.74735 76.297569 77.845423 
C 67.199496 86.943496 59.982013 97.745223 55.058171 109.632428 
C 50.134329 121.519633 47.599886 134.26114 47.599886 147.127758 
C 47.599886 159.994376 50.134329 172.735882 55.058171 184.623087 
C 59.982013 196.510292 67.199496 207.31202 76.297569 216.410092 
C 85.395642 225.508165 96.197369 232.725649 108.084574 237.64949 
C 119.971779 242.573332 132.713286 245.107775 145.579904 245.107775 
C 158.446522 245.107775 171.188028 242.573332 183.075233 237.64949 
C 194.962438 232.725649 205.764165 225.508165 214.862238 216.410092 
C 223.960311 207.31202 231.177795 196.510292 236.101636 184.623087 
C 241.025478 172.735882 243.559921 159.994376 243.559921 147.127758 
" clip-path="url(#p1b9f77fdb4)" style="fill: none; stroke: #b0b0b0; stroke-opacity: 0.45; stroke-width: 0.6; stroke-linecap: square"/>
     </g>
     <g id="text_11">
      <text style="font: 7px 'Arial'; text-anchor: start" x="236.101636" y="108.241178" transform="rotate(-0 236.101636 108.241178)">1.00</text>
     </g>
    </g>
   </g>
   <g id="line2d_12">
    <path d="M 222.932549 147.127758 
L 200.238967 78.58746 
L 128.367321 71.714505 
L 145.579904 147.127758 
L 80.533733 178.452342 
L 145.579904 147.127758 
L 180.947533 191.477362 
L 222.932549 147.127758 
" clip-path="url(#p1b9f77fdb4)" style="fill: none; stroke: #d98b73; stroke-width: 2.2; stroke-linecap: square"/>
   </g>
   <g id="patch_4">
    <path d="M 248.458922 147.127758 
C 248.458922 133.617809 245.797756 120.239227 240.627723 107.757662 
C 235.457689 95.276097 227.879331 83.934283 218.326355 74.381306 
C 208.773379 64.82833 197.431565 57.249972 184.949999 52.079939 
C 172.468434 46.909905 159.089852 44.24874 145.579904 44.24874 
C 132.069955 44.24874 118.691373 46.909905 106.209808 52.079939 
C 93.728243 57.249972 82.386429 64.82833 72.833452 74.381306 
C 63.280476 83.934283 55.702118 95.276097 50.532084 107.757662 
C 45.362051 120.239227 42.700885 133.617809 42.700885 147.127758 
C 42.700885 160.637707 45.362051 174.016288 50.532084 186.497854 
C 55.702118 198.979419 63.280476 210.321233 72.833452 219.874209 
C 82.386429 229.427186 93.728243 237.005543 106.209808 242.175577 
C 118.691373 247.345611 132.069955 250.006776 145.579904 250.006776 
C 159.089852 250.006776 172.468434 247.345611 184.949999 242.175577 
C 197.431565 237.005543 208.773379 229.427186 218.326355 219.874209 
C 227.879331 210.321233 235.457689 198.979419 240.627723 186.497854 
C 245.797756 174.016288 248.458922 160.637707 248.458922 147.127758 
" style="fill: none; opacity: 0.6; stroke: #000000; stroke-width: 0.8; stroke-linejoin: miter; stroke-linecap: square"/>
   </g>
   <g id="text_12">
    <text style="font: 12px 'Arial'; text-anchor: middle" x="145.579904" y="15.935625" transform="rotate(-0 145.579904 15.935625)">P6 mechanism profile</text>
   </g>
  </g>
 </g>
 <defs>
  <clipPath id="p1b9f77fdb4">
   <path d="M 248.458922 147.127758 
C 248.458922 133.617809 245.797756 120.239227 240.627723 107.757662 
C 235.457689 95.276097 227.879331 83.934283 218.326355 74.381306 
C 208.773379 64.82833 197.431565 57.249972 184.949999 52.079939 
C 172.468434 46.909905 159.089852 44.24874 145.579904 44.24874 
C 132.069955 44.24874 118.691373 46.909905 106.209808 52.079939 
C 93.728243 57.249972 82.386429 64.82833 72.833452 74.381306 
C 63.280476 83.934283 55.702118 95.276097 50.532084 107.757662 
C 45.362051 120.239227 42.700885 133.617809 42.700885 147.127758 
C 42.700885 160.637707 45.362051 174.016288 50.532084 186.497854 
C 55.702118 198.979419 63.280476 210.321233 72.833452 219.874209 
C 82.386429 229.427186 93.728243 237.005543 106.209808 242.175577 
C 118.691373 247.345611 132.069955 250.006776 145.579904 250.006776 
C 159.089852 250.006776 172.468434 247.345611 184.949999 242.175577 
C 197.431565 237.005543 208.773379 229.427186 218.326355 219.874209 
C 227.879331 210.321233 235.457689 198.979419 240.627723 186.497854 
C 245.797756 174.016288 248.458922 160.637707 248.458922 147.127758 
M 145.579904 147.127758 
C 145.579904 147.127758 145.579904 147.127758 145.579904 147.127758 
C 145.579904 147.127758 145.579904 147.127758 145.579904 147.127758 
C 145.579904 147.127758 145.579904 147.127758 145.579904 147.127758 
C 145.579904 147.127758 145.579904 147.127758 145.579904 147.127758 
C 145.579904 147.127758 145.579904 147.127758 145.579904 147.127758 
C 145.579904 147.127758 145.579904 147.127758 145.579904 147.127758 
C 145.579904 147.127758 145.579904 147.127758 145.579904 147.127758 
C 145.579904 147.127758 145.579904 147.127758 145.579904 147.127758 
C 145.579904 147.127758 145.579904 147.127758 145.579904 147.127758 
C 145.579904 147.127758 145.579904 147.127758 145.579904 147.127758 
C 145.579904 147.127758 145.579904 147.127758 145.579904 147.127758 
C 145.579904 147.127758 145.579904 147.127758 145.579904 147.127758 
C 145.579904 147.127758 145.579904 147.127758 145.579904 147.127758 
C 145.579904 147.127758 145.579904 147.127758 145.579904 147.127758 
C 145.579904 147.127758 145.579904 147.127758 145.579904 147.127758 
C 145.579904 147.127758 145.579904 147.127758 145.579904 147.127758 
z
"/>
  </clipPath>
 </defs>
</svg>
