<?xml version="1.0" encoding="utf-8" standalone="no"?>
<!DOCTYPE svg PUBLIC "-//W3C//DTD SVG 1.1//EN"
  "http://www.w3.org/Graphics/SVG/1.1/DTD/svg11.dtd">
<svg xmlns:xlink="http://www.w3.org/1999/xlink" width="493.978801pt" height="250.589683pt" viewBox="0 0 493.978801 250.589683" xmlns="http://www.w3.org/2000/svg" version="1.1">
 <metadata>
  <rdf:RDF xmlns:dc="http://purl.org/dc/elements/1.1/" xmlns:cc="http://creativecommons.org/ns#" xmlns:rdf="http://www.w3.org/1999/02/22-rdf-syntax-ns#">
   <cc:Work>
    <dc:type rdf:resource="http://purl.org/dc/dcmitype/StillImage"/>
    <dc:date>2026-06-25T11:17:02.246528</dc:date>
    <dc:format>image/svg+xml</dc:format>
    <dc:creator>
     <cc:Agent>
      <dc:title>Matplotlib v3.9.4, https://matplotlib.org/</dc:title>
     </cc:Agent>
    </dc:creator>
   </cc:Work>
  </rdf:RDF>
 </metadata>
 <defs>
  <style type="text/css">*{stroke-linejoin: round; stroke-linecap: butt}</style>
 </defs>
 <g id="figure_1">
  <g id="patch_1">
   <path d="M 0 250.589683 
L 493.978801 250.589683 
L 493.978801 0 
L 0 0 
L 0 250.589683 
z
" style="fill: none"/>
  </g>
  <g id="axes_1">
   <g id="patch_2">
    <path d="M 8.196136 210.286405 
L 481.877157 210.286405 
L 481.877157 31.789375 
L 8.196136 31.789375 
L 8.196136 210.286405 
z
" style="fill: none"/>
   </g>
   <g id="patch_3">
    <path d="M 72.964766 210.286405 
C 129.129801 210.286405 177.27126 210.286405 233.436295 210.286405 
L 233.436295 175.747506 
C 177.27126 175.747506 129.129801 187.918356 72.964766 187.918356 
z
" clip-path="url(#p37ef0084f7)" style="fill: #3b6ea8; opacity: 0.46"/>
   </g>
   <g id="patch_4">
    <path d="M 72.964766 187.918356 
C 129.129801 187.918356 177.27126 175.747506 233.436295 175.747506 
L 233.436295 166.537133 
C 177.27126 166.537133 129.129801 165.550307 72.964766 165.550307 
z
" clip-path="url(#p37ef0084f7)" style="fill: #5f8fb8; opacity: 0.46"/>
   </g>
   <g id="patch_5">
    <path d="M 72.964766 165.550307 
C 129.129801 165.550307 177.27126 166.537133 233.436295 166.537133 
L 233.436295 155.024167 
C 177.27126 155.024167 129.129801 143.182258 72.964766 143.182258 
z
" clip-path="url(#p37ef0084f7)" style="fill: #7aa6c2; opacity: 0.46"/>
   </g>
   <g id="patch_6">
    <path d="M 72.964766 120.81421 
C 129.129801 120.81421 177.27126 155.024167 233.436295 155.024167 
L 233.436295 120.485268 
C 177.27126 120.485268 129.129801 98.446161 72.964766 98.446161 
z
" clip-path="url(#p37ef0084f7)" style="fill: #d98b73; opacity: 0.46"/>
   </g>
   <g id="patch_7">
    <path d="M 72.964766 98.446161 
C 129.129801 98.446161 177.27126 120.485268 233.436295 120.485268 
L 233.436295 53.710063 
C 177.27126 53.710063 129.129801 76.078112 72.964766 76.078112 
z
" clip-path="url(#p37ef0084f7)" style="fill: #c85c5c; opacity: 0.46"/>
   </g>
   <g id="patch_8">
    <path d="M 256.636998 166.537133 
C 312.802033 166.537133 360.943492 210.286405 417.108527 210.286405 
L 417.108527 53.710063 
C 360.943492 53.710063 312.802033 155.024167 256.636998 155.024167 
z
" clip-path="url(#p37ef0084f7)" style="fill: #7aa6c2; opacity: 0.46"/>
   </g>
   <g id="matplotlib.axis_1"/>
   <g id="matplotlib.axis_2"/>
   <g id="patch_9">
    <path d="M 49.764063 210.286405 
L 72.964766 210.286405 
L 72.964766 187.918356 
L 49.764063 187.918356 
z
" clip-path="url(#p37ef0084f7)" style="fill: #3b6ea8; stroke: #ffffff; stroke-linejoin: miter"/>
   </g>
   <g id="patch_10">
    <path d="M 49.764063 187.918356 
L 72.964766 187.918356 
L 72.964766 165.550307 
L 49.764063 165.550307 
z
" clip-path="url(#p37ef0084f7)" style="fill: #5f8fb8; stroke: #ffffff; stroke-linejoin: miter"/>
   </g>
   <g id="patch_11">
    <path d="M 49.764063 165.550307 
L 72.964766 165.550307 
L 72.964766 143.182258 
L 49.764063 143.182258 
z
" clip-path="url(#p37ef0084f7)" style="fill: #7aa6c2; stroke: #ffffff; stroke-linejoin: miter"/>
   </g>
   <g id="patch_12">
    <path d="M 49.764063 143.182258 
L 72.964766 143.182258 
L 72.964766 120.81421 
L 49.764063 120.81421 
z
" clip-path="url(#p37ef0084f7)" style="fill: #9fbfd0; stroke: #ffffff; stroke-linejoin: miter"/>
   </g>
   <g id="patch_13">
    <path d="M 49.764063 120.81421 
L 72.964766 120.81421 
L 72.964766 98.446161 
L 49.764063 98.446161 
z
" clip-path="url(#p37ef0084f7)" style="fill: #d98b73; stroke: #ffffff; stroke-linejoin: miter"/>
   </g>
   <g id="patch_14">
    <path d="M 49.764063 98.446161 
L 72.964766 98.446161 
L 72.964766 76.078112 
L 49.764063 76.078112 
z
" clip-path="url(#p37ef0084f7)" style="fill: #c85c5c; stroke: #ffffff; stroke-linejoin: miter"/>
   </g>
   <g id="patch_15">
    <path d="M 49.764063 76.078112 
L 72.964766 76.078112 
L 72.964766 53.710063 
L 49.764063 53.710063 
z
" clip-path="url(#p37ef0084f7)" style="fill: #b2182b; stroke: #ffffff; stroke-linejoin: miter"/>
   </g>
   <g id="patch_16">
    <path d="M 233.436295 210.286405 
L 256.636998 210.286405 
L 256.636998 175.747506 
L 233.436295 175.747506 
z
" clip-path="url(#p37ef0084f7)" style="fill: #3b6ea8; stroke: #ffffff; stroke-linejoin: miter"/>
   </g>
   <g id="patch_17">
    <path d="M 233.436295 175.747506 
L 256.636998 175.747506 
L 256.636998 166.537133 
L 233.436295 166.537133 
z
" clip-path="url(#p37ef0084f7)" style="fill: #5f8fb8; stroke: #ffffff; stroke-linejoin: miter"/>
   </g>
   <g id="patch_18">
    <path d="M 233.436295 166.537133 
L 256.636998 166.537133 
L 256.636998 155.024167 
L 233.436295 155.024167 
z
" clip-path="url(#p37ef0084f7)" style="fill: #7aa6c2; stroke: #ffffff; stroke-linejoin: miter"/>
   </g>
   <g id="patch_19">
    <path d="M 233.436295 155.024167 
L 256.636998 155.024167 
L 256.636998 120.485268 
L 233.436295 120.485268 
z
" clip-path="url(#p37ef0084f7)" style="fill: #d98b73; stroke: #ffffff; stroke-linejoin: miter"/>
   </g>
   <g id="patch_20">
    <path d="M 233.436295 120.485268 
L 256.636998 120.485268 
L 256.636998 53.710063 
L 233.436295 53.710063 
z
" clip-path="url(#p37ef0084f7)" style="fill: #c85c5c; stroke: #ffffff; stroke-linejoin: miter"/>
   </g>
   <g id="patch_21">
    <path d="M 417.108527 210.286405 
L 440.30923 210.286405 
L 440.30923 53.710063 
L 417.108527 53.710063 
z
" clip-path="url(#p37ef0084f7)" style="fill: #7aa6c2; stroke: #ffffff; stroke-linejoin: miter"/>
   </g>
   <g id="text_1">
    <text style="font: 700 10.5px 'Arial'; text-anchor: middle" x="61.364414" y="38.328964" transform="rotate(-0 61.364414 38.328964)">PCL recommendation</text>
   </g>
   <g id="text_2">
    <text style="font: 9.5px 'Arial'; text-anchor: middle" x="61.364414" y="46.341766" transform="rotate(-0 61.364414 46.341766)">N = 30,800</text>
   </g>
   <g id="text_3">
    <text style="font: 700 10.5px 'Arial'; text-anchor: middle" x="245.036646" y="38.328964" transform="rotate(-0 245.036646 38.328964)">Post-screened candidates</text>
   </g>
   <g id="text_4">
    <text style="font: 9.5px 'Arial'; text-anchor: middle" x="245.036646" y="46.341766" transform="rotate(-0 245.036646 46.341766)">N = 68</text>
   </g>
   <g id="text_5">
    <text style="font: 700 10.5px 'Arial'; text-anchor: middle" x="428.708879" y="38.191152" transform="rotate(-0 428.708879 38.191152)">Commercially available</text>
   </g>
   <g id="text_6">
    <text style="font: 9.5px 'Arial'; text-anchor: middle" x="428.708879" y="46.341766" transform="rotate(-0 428.708879 46.341766)">N = 4</text>
   </g>
   <g id="text_7">
    <text style="font: 17px 'Arial'; text-anchor: middle" x="153.20053" y="49.49313" transform="rotate(-0 153.20053 49.49313)">→</text>
   </g>
   <g id="text_8">
    <text style="font: 17px 'Arial'; text-anchor: middle" x="336.872763" y="49.49313" transform="rotate(-0 336.872763 49.49313)">→</text>
   </g>
   <g id="text_9">
    <text style="fill: #3b6ea8; font: 700 8.5px 'Arial'; text-anchor: end" x="40.097103" y="201.30574" transform="rotate(-0 40.097103 201.30574)">P1</text>
   </g>
   <g id="text_10">
    <text style="fill: #5f8fb8; font: 700 8.5px 'Arial'; text-anchor: end" x="40.097103" y="178.937691" transform="rotate(-0 40.097103 178.937691)">P2</text>
   </g>
   <g id="text_11">
    <text style="fill: #7aa6c2; font: 700 8.5px 'Arial'; text-anchor: end" x="40.097103" y="156.569642" transform="rotate(-0 40.097103 156.569642)">P3</text>
   </g>
   <g id="text_12">
    <text style="fill: #9fbfd0; font: 700 8.5px 'Arial'; text-anchor: end" x="40.097103" y="134.201593" transform="rotate(-0 40.097103 134.201593)">P4</text>
   </g>
   <g id="text_13">
    <text style="fill: #d98b73; font: 700 8.5px 'Arial'; text-anchor: end" x="40.097103" y="111.833544" transform="rotate(-0 40.097103 111.833544)">P5</text>
   </g>
   <g id="text_14">
    <text style="fill: #c85c5c; font: 700 8.5px 'Arial'; text-anchor: end" x="40.097103" y="89.465496" transform="rotate(-0 40.097103 89.465496)">P6</text>
   </g>
   <g id="text_15">
    <text style="fill: #b2182b; font: 700 8.5px 'Arial'; text-anchor: end" x="40.097103" y="67.097447" transform="rotate(-0 40.097103 67.097447)">P7</text>
   </g>
   <g id="text_16">
    <text style="fill: #3b6ea8; font: 8.2px 'Arial'; text-anchor: start" x="264.370566" y="195.136784" transform="rotate(-0 264.370566 195.136784)">P1: 15</text>
   </g>
   <g id="text_17">
    <text style="fill: #5f8fb8; font: 8.2px 'Arial'; text-anchor: start" x="264.370566" y="173.262148" transform="rotate(-0 264.370566 173.262148)">P2: 4</text>
   </g>
   <g id="text_18">
    <text style="fill: #7aa6c2; font: 8.2px 'Arial'; text-anchor: start" x="264.370566" y="162.900478" transform="rotate(-0 264.370566 162.900478)">P3: 5</text>
   </g>
   <g id="text_19">
    <text style="fill: #d98b73; font: 8.2px 'Arial'; text-anchor: start" x="264.370566" y="139.874545" transform="rotate(-0 264.370566 139.874545)">P5: 15</text>
   </g>
   <g id="text_20">
    <text style="fill: #c85c5c; font: 8.2px 'Arial'; text-anchor: start" x="264.370566" y="89.217493" transform="rotate(-0 264.370566 89.217493)">P6: 29</text>
   </g>
   <g id="text_21">
    <text style="fill: #7aa6c2; font: 700 8.5px 'Arial'; text-anchor: start" x="448.042798" y="134.201593" transform="rotate(-0 448.042798 134.201593)">P3: 4</text>
   </g>
   <g id="text_22">
    <text style="font: 12px 'Arial'; text-anchor: middle" x="245.036646" y="15.789375" transform="rotate(-0 245.036646 15.789375)">Prototype survival during multi-stage screening</text>
   </g>
   <g id="legend_1">
    <g id="patch_22">
     <path d="M 132.148678 238.300308 
L 140.648678 238.300308 
L 140.648678 232.350308 
L 132.148678 232.350308 
z
" style="fill: #3b6ea8"/>
    </g>
    <g id="text_23">
     <text style="font: 8.5px 'Arial'; text-anchor: start" x="147.448678" y="238.300308" transform="rotate(-0 147.448678 238.300308)">P1</text>
    </g>
    <g id="patch_23">
     <path d="M 165.49524 238.300308 
L 173.99524 238.300308 
L 173.99524 232.350308 
L 165.49524 232.350308 
z
" style="fill: #5f8fb8"/>
    </g>
    <g id="text_24">
     <text style="font: 8.5px 'Arial'; text-anchor: start" x="180.79524" y="238.300308" transform="rotate(-0 180.79524 238.300308)">P2</text>
    </g>
    <g id="patch_24">
     <path d="M 198.841803 238.300308 
L 207.341803 238.300308 
L 207.341803 232.350308 
L 198.841803 232.350308 
z
" style="fill: #7aa6c2"/>
    </g>
    <g id="text_25">
     <text style="font: 8.5px 'Arial'; text-anchor: start" x="214.141803" y="238.300308" transform="rotate(-0 214.141803 238.300308)">P3</text>
    </g>
    <g id="patch_25">
     <path d="M 232.188365 238.300308 
L 240.688365 238.300308 
L 240.688365 232.350308 
L 232.188365 232.350308 
z
" style="fill: #9fbfd0"/>
    </g>
    <g id="text_26">
     <text style="font: 8.5px 'Arial'; text-anchor: start" x="247.488365" y="238.300308" transform="rotate(-0 247.488365 238.300308)">P4</text>
    </g>
    <g id="patch_26">
     <path d="M 265.534928 238.300308 
L 274.034928 238.300308 
L 274.034928 232.350308 
L 265.534928 232.350308 
z
" style="fill: #d98b73"/>
    </g>
    <g id="text_27">
     <text style="font: 8.5px 'Arial'; text-anchor: start" x="280.834928" y="238.300308" transform="rotate(-0 280.834928 238.300308)">P5</text>
    </g>
    <g id="patch_27">
     <path d="M 298.88149 238.300308 
L 307.38149 238.300308 
L 307.38149 232.350308 
L 298.88149 232.350308 
z
" style="fill: #c85c5c"/>
    </g>
    <g id="text_28">
     <text style="font: 8.5px 'Arial'; text-anchor: start" x="314.18149" y="238.300308" transform="rotate(-0 314.18149 238.300308)">P6</text>
    </g>
    <g id="patch_28">
     <path d="M 332.228053 238.300308 
L 340.728053 238.300308 
L 340.728053 232.350308 
L 332.228053 232.350308 
z
" style="fill: #b2182b"/>
    </g>
    <g id="text_29">
     <text style="font: 8.5px 'Arial'; text-anchor: start" x="347.528053" y="238.300308" transform="rotate(-0 347.528053 238.300308)">P7</text>
    </g>
   </g>
  </g>
 </g>
 <defs>
  <clipPath id="p37ef0084f7">
   <rect x="8.196136" y="31.789375" width="473.68102" height="178.49703"/>
  </clipPath>
 </defs>
</svg>
