<?xml version="1.0" encoding="utf-8" standalone="no"?>
<!DOCTYPE svg PUBLIC "-//W3C//DTD SVG 1.1//EN"
  "http://www.w3.org/Graphics/SVG/1.1/DTD/svg11.dtd">
<svg xmlns:xlink="http://www.w3.org/1999/xlink" width="493.978801pt" height="252.2574pt" viewBox="0 0 493.978801 252.2574" xmlns="http://www.w3.org/2000/svg" version="1.1">
 <metadata>
  <rdf:RDF xmlns:dc="http://purl.org/dc/elements/1.1/" xmlns:cc="http://creativecommons.org/ns#" xmlns:rdf="http://www.w3.org/1999/02/22-rdf-syntax-ns#">
   <cc:Work>
    <dc:type rdf:resource="http://purl.org/dc/dcmitype/StillImage"/>
    <dc:date>2026-06-25T11:25:13.871478</dc:date>
    <dc:format>image/svg+xml</dc:format>
    <dc:creator>
     <cc:Agent>
      <dc:title>Matplotlib v3.9.4, https://matplotlib.org/</dc:title>
     </cc:Agent>
    </dc:creator>
   </cc:Work>
  </rdf:RDF>
 </metadata>
 <defs>
  <style type="text/css">*{stroke-linejoin: round; stroke-linecap: butt}</style>
 </defs>
 <g id="figure_1">
  <g id="patch_1">
   <path d="M 0 252.2574 
L 493.978801 252.2574 
L 493.978801 0 
L 0 0 
L 0 252.2574 
z
" style="fill: none"/>
  </g>
  <g id="axes_1">
   <g id="patch_2">
    <path d="M 8.196136 210.014498 
L 481.877157 210.014498 
L 481.877157 7.272165 
L 8.196136 7.272165 
L 8.196136 210.014498 
z
" style="fill: none"/>
   </g>
   <g id="patch_3">
    <path d="M 72.964766 210.014498 
C 129.129801 210.014498 177.27126 210.014498 233.436295 210.014498 
L 233.436295 170.784171 
C 177.27126 170.784171 129.129801 184.608191 72.964766 184.608191 
z
" clip-path="url(#pb34e32f0e2)" style="fill: #3b6ea8; opacity: 0.46"/>
   </g>
   <g id="patch_4">
    <path d="M 72.964766 184.608191 
C 129.129801 184.608191 177.27126 170.784171 233.436295 170.784171 
L 233.436295 160.32275 
C 177.27126 160.32275 129.129801 159.201883 72.964766 159.201883 
z
" clip-path="url(#pb34e32f0e2)" style="fill: #5f8fb8; opacity: 0.46"/>
   </g>
   <g id="patch_5">
    <path d="M 72.964766 159.201883 
C 129.129801 159.201883 177.27126 160.32275 233.436295 160.32275 
L 233.436295 147.245974 
C 177.27126 147.245974 129.129801 133.795576 72.964766 133.795576 
z
" clip-path="url(#pb34e32f0e2)" style="fill: #7aa6c2; opacity: 0.46"/>
   </g>
   <g id="patch_6">
    <path d="M 72.964766 108.389269 
C 129.129801 108.389269 177.27126 147.245974 233.436295 147.245974 
L 233.436295 108.015646 
C 177.27126 108.015646 129.129801 82.982961 72.964766 82.982961 
z
" clip-path="url(#pb34e32f0e2)" style="fill: #d98b73; opacity: 0.46"/>
   </g>
   <g id="patch_7">
    <path d="M 72.964766 82.982961 
C 129.129801 82.982961 177.27126 108.015646 233.436295 108.015646 
L 233.436295 32.170347 
C 177.27126 32.170347 129.129801 57.576654 72.964766 57.576654 
z
" clip-path="url(#pb34e32f0e2)" style="fill: #c85c5c; opacity: 0.46"/>
   </g>
   <g id="patch_8">
    <path d="M 256.636998 160.32275 
C 312.802033 160.32275 360.943492 210.014498 417.108527 210.014498 
L 417.108527 32.170347 
C 360.943492 32.170347 312.802033 147.245974 256.636998 147.245974 
z
" clip-path="url(#pb34e32f0e2)" style="fill: #7aa6c2; opacity: 0.46"/>
   </g>
   <g id="matplotlib.axis_1"/>
   <g id="matplotlib.axis_2"/>
   <g id="patch_9">
    <path d="M 49.764063 210.014498 
L 72.964766 210.014498 
L 72.964766 184.608191 
L 49.764063 184.608191 
z
" clip-path="url(#pb34e32f0e2)" style="fill: #3b6ea8; stroke: #ffffff; stroke-linejoin: miter"/>
   </g>
   <g id="patch_10">
    <path d="M 49.764063 184.608191 
L 72.964766 184.608191 
L 72.964766 159.201883 
L 49.764063 159.201883 
z
" clip-path="url(#pb34e32f0e2)" style="fill: #5f8fb8; stroke: #ffffff; stroke-linejoin: miter"/>
   </g>
   <g id="patch_11">
    <path d="M 49.764063 159.201883 
L 72.964766 159.201883 
L 72.964766 133.795576 
L 49.764063 133.795576 
z
" clip-path="url(#pb34e32f0e2)" style="fill: #7aa6c2; stroke: #ffffff; stroke-linejoin: miter"/>
   </g>
   <g id="patch_12">
    <path d="M 49.764063 133.795576 
L 72.964766 133.795576 
L 72.964766 108.389269 
L 49.764063 108.389269 
z
" clip-path="url(#pb34e32f0e2)" style="fill: #9fbfd0; stroke: #ffffff; stroke-linejoin: miter"/>
   </g>
   <g id="patch_13">
    <path d="M 49.764063 108.389269 
L 72.964766 108.389269 
L 72.964766 82.982961 
L 49.764063 82.982961 
z
" clip-path="url(#pb34e32f0e2)" style="fill: #d98b73; stroke: #ffffff; stroke-linejoin: miter"/>
   </g>
   <g id="patch_14">
    <path d="M 49.764063 82.982961 
L 72.964766 82.982961 
L 72.964766 57.576654 
L 49.764063 57.576654 
z
" clip-path="url(#pb34e32f0e2)" style="fill: #c85c5c; stroke: #ffffff; stroke-linejoin: miter"/>
   </g>
   <g id="patch_15">
    <path d="M 49.764063 57.576654 
L 72.964766 57.576654 
L 72.964766 32.170347 
L 49.764063 32.170347 
z
" clip-path="url(#pb34e32f0e2)" style="fill: #b2182b; stroke: #ffffff; stroke-linejoin: miter"/>
   </g>
   <g id="patch_16">
    <path d="M 233.436295 210.014498 
L 256.636998 210.014498 
L 256.636998 170.784171 
L 233.436295 170.784171 
z
" clip-path="url(#pb34e32f0e2)" style="fill: #3b6ea8; stroke: #ffffff; stroke-linejoin: miter"/>
   </g>
   <g id="patch_17">
    <path d="M 233.436295 170.784171 
L 256.636998 170.784171 
L 256.636998 160.32275 
L 233.436295 160.32275 
z
" clip-path="url(#pb34e32f0e2)" style="fill: #5f8fb8; stroke: #ffffff; stroke-linejoin: miter"/>
   </g>
   <g id="patch_18">
    <path d="M 233.436295 160.32275 
L 256.636998 160.32275 
L 256.636998 147.245974 
L 233.436295 147.245974 
z
" clip-path="url(#pb34e32f0e2)" style="fill: #7aa6c2; stroke: #ffffff; stroke-linejoin: miter"/>
   </g>
   <g id="patch_19">
    <path d="M 233.436295 147.245974 
L 256.636998 147.245974 
L 256.636998 108.015646 
L 233.436295 108.015646 
z
" clip-path="url(#pb34e32f0e2)" style="fill: #d98b73; stroke: #ffffff; stroke-linejoin: miter"/>
   </g>
   <g id="patch_20">
    <path d="M 233.436295 108.015646 
L 256.636998 108.015646 
L 256.636998 32.170347 
L 233.436295 32.170347 
z
" clip-path="url(#pb34e32f0e2)" style="fill: #c85c5c; stroke: #ffffff; stroke-linejoin: miter"/>
   </g>
   <g id="patch_21">
    <path d="M 417.108527 210.014498 
L 440.30923 210.014498 
L 440.30923 32.170347 
L 417.108527 32.170347 
z
" clip-path="url(#pb34e32f0e2)" style="fill: #7aa6c2; stroke: #ffffff; stroke-linejoin: miter"/>
   </g>
   <g id="text_1">
    <text style="font: 700 10.5px 'Arial'; text-anchor: middle" x="61.364414" y="14.981484" transform="rotate(-0 61.364414 14.981484)">PCL recommendation</text>
   </g>
   <g id="text_2">
    <text style="font: 9.5px 'Arial'; text-anchor: middle" x="61.364414" y="24.057676" transform="rotate(-0 61.364414 24.057676)">N = 30,800</text>
   </g>
   <g id="text_3">
    <text style="font: 700 10.5px 'Arial'; text-anchor: middle" x="245.036646" y="14.981484" transform="rotate(-0 245.036646 14.981484)">Translation candidates</text>
   </g>
   <g id="text_4">
    <text style="font: 9.5px 'Arial'; text-anchor: middle" x="245.036646" y="24.057676" transform="rotate(-0 245.036646 24.057676)">N = 68</text>
   </g>
   <g id="text_5">
    <text style="font: 700 10.5px 'Arial'; text-anchor: middle" x="428.708879" y="14.843672" transform="rotate(-0 428.708879 14.843672)">Commercially available</text>
   </g>
   <g id="text_6">
    <text style="font: 9.5px 'Arial'; text-anchor: middle" x="428.708879" y="24.057676" transform="rotate(-0 428.708879 24.057676)">N = 4</text>
   </g>
   <g id="text_7">
    <text style="font: 17px 'Arial'; text-anchor: middle" x="153.20053" y="26.783684" transform="rotate(-0 153.20053 26.783684)">→</text>
   </g>
   <g id="text_8">
    <text style="font: 17px 'Arial'; text-anchor: middle" x="336.872763" y="26.783684" transform="rotate(-0 336.872763 26.783684)">→</text>
   </g>
   <g id="text_9">
    <text style="fill: #3b6ea8; font: 700 8.5px 'Arial'; text-anchor: end" x="40.097103" y="199.514704" transform="rotate(-0 40.097103 199.514704)">NP1</text>
   </g>
   <g id="text_10">
    <text style="fill: #5f8fb8; font: 700 8.5px 'Arial'; text-anchor: end" x="40.097103" y="174.108396" transform="rotate(-0 40.097103 174.108396)">NP2</text>
   </g>
   <g id="text_11">
    <text style="fill: #7aa6c2; font: 700 8.5px 'Arial'; text-anchor: end" x="40.097103" y="148.702089" transform="rotate(-0 40.097103 148.702089)">NP3</text>
   </g>
   <g id="text_12">
    <text style="fill: #9fbfd0; font: 700 8.5px 'Arial'; text-anchor: end" x="40.097103" y="123.295782" transform="rotate(-0 40.097103 123.295782)">NP4</text>
   </g>
   <g id="text_13">
    <text style="fill: #d98b73; font: 700 8.5px 'Arial'; text-anchor: end" x="40.097103" y="97.889474" transform="rotate(-0 40.097103 97.889474)">NP5</text>
   </g>
   <g id="text_14">
    <text style="fill: #c85c5c; font: 700 8.5px 'Arial'; text-anchor: end" x="40.097103" y="72.483167" transform="rotate(-0 40.097103 72.483167)">NP6</text>
   </g>
   <g id="text_15">
    <text style="fill: #b2182b; font: 700 8.5px 'Arial'; text-anchor: end" x="40.097103" y="47.07686" transform="rotate(-0 40.097103 47.07686)">NP7</text>
   </g>
   <g id="text_16">
    <text style="fill: #3b6ea8; font: 8.2px 'Arial'; text-anchor: start" x="264.370566" y="192.519162" transform="rotate(-0 264.370566 192.519162)">NP1: 15</text>
   </g>
   <g id="text_17">
    <text style="fill: #5f8fb8; font: 8.2px 'Arial'; text-anchor: start" x="264.370566" y="167.673288" transform="rotate(-0 264.370566 167.673288)">NP2: 4</text>
   </g>
   <g id="text_18">
    <text style="fill: #7aa6c2; font: 8.2px 'Arial'; text-anchor: start" x="264.370566" y="155.90419" transform="rotate(-0 264.370566 155.90419)">NP3: 5</text>
   </g>
   <g id="text_19">
    <text style="fill: #d98b73; font: 8.2px 'Arial'; text-anchor: start" x="264.370566" y="129.750638" transform="rotate(-0 264.370566 129.750638)">NP5: 15</text>
   </g>
   <g id="text_20">
    <text style="fill: #c85c5c; font: 8.2px 'Arial'; text-anchor: start" x="264.370566" y="72.212825" transform="rotate(-0 264.370566 72.212825)">NP6: 29</text>
   </g>
   <g id="text_21">
    <text style="fill: #7aa6c2; font: 700 8.5px 'Arial'; text-anchor: start" x="448.042798" y="123.295782" transform="rotate(-0 448.042798 123.295782)">NP3: 4</text>
   </g>
   <g id="legend_1">
    <g id="patch_22">
     <path d="M 110.6636 239.968025 
L 119.1636 239.968025 
L 119.1636 234.018025 
L 110.6636 234.018025 
z
" style="fill: #3b6ea8"/>
    </g>
    <g id="text_22">
     <text style="font: 8.5px 'Arial'; text-anchor: start" x="125.9636" y="239.968025" transform="rotate(-0 125.9636 239.968025)">NP1</text>
    </g>
    <g id="patch_23">
     <path d="M 150.148756 239.968025 
L 158.648756 239.968025 
L 158.648756 234.018025 
L 150.148756 234.018025 
z
" style="fill: #5f8fb8"/>
    </g>
    <g id="text_23">
     <text style="font: 8.5px 'Arial'; text-anchor: start" x="165.448756" y="239.968025" transform="rotate(-0 165.448756 239.968025)">NP2</text>
    </g>
    <g id="patch_24">
     <path d="M 189.633912 239.968025 
L 198.133912 239.968025 
L 198.133912 234.018025 
L 189.633912 234.018025 
z
" style="fill: #7aa6c2"/>
    </g>
    <g id="text_24">
     <text style="font: 8.5px 'Arial'; text-anchor: start" x="204.933912" y="239.968025" transform="rotate(-0 204.933912 239.968025)">NP3</text>
    </g>
    <g id="patch_25">
     <path d="M 229.119068 239.968025 
L 237.619068 239.968025 
L 237.619068 234.018025 
L 229.119068 234.018025 
z
" style="fill: #9fbfd0"/>
    </g>
    <g id="text_25">
     <text style="font: 8.5px 'Arial'; text-anchor: start" x="244.419068" y="239.968025" transform="rotate(-0 244.419068 239.968025)">NP4</text>
    </g>
    <g id="patch_26">
     <path d="M 268.604225 239.968025 
L 277.104225 239.968025 
L 277.104225 234.018025 
L 268.604225 234.018025 
z
" style="fill: #d98b73"/>
    </g>
    <g id="text_26">
     <text style="font: 8.5px 'Arial'; text-anchor: start" x="283.904225" y="239.968025" transform="rotate(-0 283.904225 239.968025)">NP5</text>
    </g>
    <g id="patch_27">
     <path d="M 308.089381 239.968025 
L 316.589381 239.968025 
L 316.589381 234.018025 
L 308.089381 234.018025 
z
" style="fill: #c85c5c"/>
    </g>
    <g id="text_27">
     <text style="font: 8.5px 'Arial'; text-anchor: start" x="323.389381" y="239.968025" transform="rotate(-0 323.389381 239.968025)">NP6</text>
    </g>
    <g id="patch_28">
     <path d="M 347.574537 239.968025 
L 356.074537 239.968025 
L 356.074537 234.018025 
L 347.574537 234.018025 
z
" style="fill: #b2182b"/>
    </g>
    <g id="text_28">
     <text style="font: 8.5px 'Arial'; text-anchor: start" x="362.874537" y="239.968025" transform="rotate(-0 362.874537 239.968025)">NP7</text>
    </g>
   </g>
  </g>
 </g>
 <defs>
  <clipPath id="pb34e32f0e2">
   <rect x="8.196136" y="7.272165" width="473.68102" height="202.742333"/>
  </clipPath>
 </defs>
</svg>
