<?xml version="1.0" encoding="utf-8" standalone="no"?>
<!DOCTYPE svg PUBLIC "-//W3C//DTD SVG 1.1//EN"
  "http://www.w3.org/Graphics/SVG/1.1/DTD/svg11.dtd">
<svg xmlns:xlink="http://www.w3.org/1999/xlink" width="568.006281pt" height="335.700875pt" viewBox="0 0 568.006281 335.700875" xmlns="http://www.w3.org/2000/svg" version="1.1">
 <metadata>
  <rdf:RDF xmlns:dc="http://purl.org/dc/elements/1.1/" xmlns:cc="http://creativecommons.org/ns#" xmlns:rdf="http://www.w3.org/1999/02/22-rdf-syntax-ns#">
   <cc:Work>
    <dc:type rdf:resource="http://purl.org/dc/dcmitype/StillImage"/>
    <dc:date>2026-06-25T11:14:42.722662</dc:date>
    <dc:format>image/svg+xml</dc:format>
    <dc:creator>
     <cc:Agent>
      <dc:title>Matplotlib v3.9.4, https://matplotlib.org/</dc:title>
     </cc:Agent>
    </dc:creator>
   </cc:Work>
  </rdf:RDF>
 </metadata>
 <defs>
  <style type="text/css">*{stroke-linejoin: round; stroke-linecap: butt}</style>
 </defs>
 <g id="figure_1">
  <g id="patch_1">
   <path d="M 0 335.700875 
L 568.006281 335.700875 
L 568.006281 0 
L 0 0 
L 0 335.700875 
z
" style="fill: none"/>
  </g>
  <g id="axes_1">
   <g id="patch_2">
    <path d="M 25.126281 262.783625 
L 335.665411 262.783625 
L 335.665411 29.935625 
L 25.126281 29.935625 
L 25.126281 262.783625 
z
" style="fill: none"/>
   </g>
   <g id="patch_3">
    <path d="M 71.060194 262.783625 
C 106.836889 262.783625 137.502628 262.783625 173.279324 262.783625 
L 173.279324 216.923331 
C 137.502628 216.923331 106.836889 233.083625 71.060194 233.083625 
z
" clip-path="url(#pd13b022d7a)" style="fill: #3b6ea8; opacity: 0.45"/>
   </g>
   <g id="patch_4">
    <path d="M 71.060194 233.083625 
C 106.836889 233.083625 137.502628 216.923331 173.279324 216.923331 
L 173.279324 204.693919 
C 137.502628 204.693919 106.836889 203.383625 71.060194 203.383625 
z
" clip-path="url(#pd13b022d7a)" style="fill: #5f8fb8; opacity: 0.45"/>
   </g>
   <g id="patch_5">
    <path d="M 71.060194 203.383625 
C 106.836889 203.383625 137.502628 204.693919 173.279324 204.693919 
L 173.279324 189.407154 
C 137.502628 189.407154 106.836889 173.683625 71.060194 173.683625 
z
" clip-path="url(#pd13b022d7a)" style="fill: #7aa6c2; opacity: 0.45"/>
   </g>
   <g id="patch_6">
    <path d="M 71.060194 143.983625 
C 106.836889 143.983625 137.502628 189.407154 173.279324 189.407154 
L 173.279324 143.54686 
C 137.502628 143.54686 106.836889 114.283625 71.060194 114.283625 
z
" clip-path="url(#pd13b022d7a)" style="fill: #d98b73; opacity: 0.45"/>
   </g>
   <g id="patch_7">
    <path d="M 71.060194 114.283625 
C 106.836889 114.283625 137.502628 143.54686 173.279324 143.54686 
L 173.279324 54.883625 
C 137.502628 54.883625 106.836889 84.583625 71.060194 84.583625 
z
" clip-path="url(#pd13b022d7a)" style="fill: #c85c5c; opacity: 0.45"/>
   </g>
   <g id="patch_8">
    <path d="M 187.512368 204.693919 
C 223.289063 204.693919 253.954802 262.783625 289.731498 262.783625 
L 289.731498 54.883625 
C 253.954802 54.883625 223.289063 189.407154 187.512368 189.407154 
z
" clip-path="url(#pd13b022d7a)" style="fill: #7aa6c2; opacity: 0.45"/>
   </g>
   <g id="patch_9">
    <path d="M 56.82715 262.783625 
L 71.060194 262.783625 
L 71.060194 233.083625 
L 56.82715 233.083625 
z
" clip-path="url(#pd13b022d7a)" style="fill: #3b6ea8; stroke: #ffffff; stroke-linejoin: miter"/>
   </g>
   <g id="patch_10">
    <path d="M 56.82715 233.083625 
L 71.060194 233.083625 
L 71.060194 203.383625 
L 56.82715 203.383625 
z
" clip-path="url(#pd13b022d7a)" style="fill: #5f8fb8; stroke: #ffffff; stroke-linejoin: miter"/>
   </g>
   <g id="patch_11">
    <path d="M 56.82715 203.383625 
L 71.060194 203.383625 
L 71.060194 173.683625 
L 56.82715 173.683625 
z
" clip-path="url(#pd13b022d7a)" style="fill: #7aa6c2; stroke: #ffffff; stroke-linejoin: miter"/>
   </g>
   <g id="patch_12">
    <path d="M 56.82715 173.683625 
L 71.060194 173.683625 
L 71.060194 143.983625 
L 56.82715 143.983625 
z
" clip-path="url(#pd13b022d7a)" style="fill: #9fbfd0; stroke: #ffffff; stroke-linejoin: miter"/>
   </g>
   <g id="patch_13">
    <path d="M 56.82715 143.983625 
L 71.060194 143.983625 
L 71.060194 114.283625 
L 56.82715 114.283625 
z
" clip-path="url(#pd13b022d7a)" style="fill: #d98b73; stroke: #ffffff; stroke-linejoin: miter"/>
   </g>
   <g id="patch_14">
    <path d="M 56.82715 114.283625 
L 71.060194 114.283625 
L 71.060194 84.583625 
L 56.82715 84.583625 
z
" clip-path="url(#pd13b022d7a)" style="fill: #c85c5c; stroke: #ffffff; stroke-linejoin: miter"/>
   </g>
   <g id="patch_15">
    <path d="M 56.82715 84.583625 
L 71.060194 84.583625 
L 71.060194 54.883625 
L 56.82715 54.883625 
z
" clip-path="url(#pd13b022d7a)" style="fill: #b2182b; stroke: #ffffff; stroke-linejoin: miter"/>
   </g>
   <g id="patch_16">
    <path d="M 173.279324 262.783625 
L 187.512368 262.783625 
L 187.512368 216.923331 
L 173.279324 216.923331 
z
" clip-path="url(#pd13b022d7a)" style="fill: #3b6ea8; stroke: #ffffff; stroke-linejoin: miter"/>
   </g>
   <g id="patch_17">
    <path d="M 173.279324 216.923331 
L 187.512368 216.923331 
L 187.512368 204.693919 
L 173.279324 204.693919 
z
" clip-path="url(#pd13b022d7a)" style="fill: #5f8fb8; stroke: #ffffff; stroke-linejoin: miter"/>
   </g>
   <g id="patch_18">
    <path d="M 173.279324 204.693919 
L 187.512368 204.693919 
L 187.512368 189.407154 
L 173.279324 189.407154 
z
" clip-path="url(#pd13b022d7a)" style="fill: #7aa6c2; stroke: #ffffff; stroke-linejoin: miter"/>
   </g>
   <g id="patch_19">
    <path d="M 173.279324 189.407154 
L 187.512368 189.407154 
L 187.512368 143.54686 
L 173.279324 143.54686 
z
" clip-path="url(#pd13b022d7a)" style="fill: #d98b73; stroke: #ffffff; stroke-linejoin: miter"/>
   </g>
   <g id="patch_20">
    <path d="M 173.279324 143.54686 
L 187.512368 143.54686 
L 187.512368 54.883625 
L 173.279324 54.883625 
z
" clip-path="url(#pd13b022d7a)" style="fill: #c85c5c; stroke: #ffffff; stroke-linejoin: miter"/>
   </g>
   <g id="patch_21">
    <path d="M 289.731498 262.783625 
L 303.964541 262.783625 
L 303.964541 54.883625 
L 289.731498 54.883625 
z
" clip-path="url(#pd13b022d7a)" style="fill: #7aa6c2; stroke: #ffffff; stroke-linejoin: miter"/>
   </g>
   <g id="matplotlib.axis_1"/>
   <g id="matplotlib.axis_2"/>
   <g id="text_1">
    <text style="font: 700 11px 'Arial'; text-anchor: middle" x="63.943672" y="36.080844" transform="rotate(-0 63.943672 36.080844)">PCL recommendation</text>
   </g>
   <g id="text_2">
    <text style="font: 10px 'Arial'; text-anchor: middle" x="63.943672" y="46.659125" transform="rotate(-0 63.943672 46.659125)">N = 30,800</text>
   </g>
   <g id="text_3">
    <text style="font: 700 11px 'Arial'; text-anchor: middle" x="180.395846" y="36.080844" transform="rotate(-0 180.395846 36.080844)">Post-screened candidates</text>
   </g>
   <g id="text_4">
    <text style="font: 10px 'Arial'; text-anchor: middle" x="180.395846" y="46.659125" transform="rotate(-0 180.395846 46.659125)">N = 68</text>
   </g>
   <g id="text_5">
    <text style="font: 700 11px 'Arial'; text-anchor: middle" x="296.84802" y="35.936469" transform="rotate(-0 296.84802 35.936469)">Commercially available</text>
   </g>
   <g id="text_6">
    <text style="font: 10px 'Arial'; text-anchor: middle" x="296.84802" y="46.659125" transform="rotate(-0 296.84802 46.659125)">N = 4</text>
   </g>
   <g id="text_7">
    <text style="font: 18px 'Arial'; text-anchor: middle" x="122.169759" y="50.181406" transform="rotate(-0 122.169759 50.181406)">→</text>
   </g>
   <g id="text_8">
    <text style="font: 18px 'Arial'; text-anchor: middle" x="238.621933" y="50.181406" transform="rotate(-0 238.621933 50.181406)">→</text>
   </g>
   <g id="text_9">
    <text style="font: 12px 'Arial'; text-anchor: middle" x="180.395846" y="15.935625" transform="rotate(-0 180.395846 15.935625)">Figure S12  Prototype survival during multi-stage screening</text>
   </g>
   <g id="legend_1">
    <g id="patch_22">
     <path d="M 27.015498 305.267416 
L 45.015498 305.267416 
L 45.015498 298.967416 
L 27.015498 298.967416 
z
" style="fill: #3b6ea8"/>
    </g>
    <g id="text_10">
     <text style="font: 9px 'Arial'; text-anchor: start" x="52.215498" y="305.267416" transform="rotate(-0 52.215498 305.267416)">P1</text>
    </g>
    <g id="patch_23">
     <path d="M 27.015498 317.998198 
L 45.015498 317.998198 
L 45.015498 311.698198 
L 27.015498 311.698198 
z
" style="fill: #5f8fb8"/>
    </g>
    <g id="text_11">
     <text style="font: 9px 'Arial'; text-anchor: start" x="52.215498" y="317.998198" transform="rotate(-0 52.215498 317.998198)">P2</text>
    </g>
    <g id="patch_24">
     <path d="M 81.223623 305.267416 
L 99.223623 305.267416 
L 99.223623 298.967416 
L 81.223623 298.967416 
z
" style="fill: #7aa6c2"/>
    </g>
    <g id="text_12">
     <text style="font: 9px 'Arial'; text-anchor: start" x="106.423623" y="305.267416" transform="rotate(-0 106.423623 305.267416)">P3</text>
    </g>
    <g id="patch_25">
     <path d="M 81.223623 317.998198 
L 99.223623 317.998198 
L 99.223623 311.698198 
L 81.223623 311.698198 
z
" style="fill: #9fbfd0"/>
    </g>
    <g id="text_13">
     <text style="font: 9px 'Arial'; text-anchor: start" x="106.423623" y="317.998198" transform="rotate(-0 106.423623 317.998198)">P4</text>
    </g>
    <g id="patch_26">
     <path d="M 135.431748 305.267416 
L 153.431748 305.267416 
L 153.431748 298.967416 
L 135.431748 298.967416 
z
" style="fill: #d98b73"/>
    </g>
    <g id="text_14">
     <text style="font: 9px 'Arial'; text-anchor: start" x="160.631748" y="305.267416" transform="rotate(-0 160.631748 305.267416)">P5</text>
    </g>
    <g id="patch_27">
     <path d="M 135.431748 317.998198 
L 153.431748 317.998198 
L 153.431748 311.698198 
L 135.431748 311.698198 
z
" style="fill: #c85c5c"/>
    </g>
    <g id="text_15">
     <text style="font: 9px 'Arial'; text-anchor: start" x="160.631748" y="317.998198" transform="rotate(-0 160.631748 317.998198)">P6</text>
    </g>
    <g id="patch_28">
     <path d="M 189.639873 305.267416 
L 207.639873 305.267416 
L 207.639873 298.967416 
L 189.639873 298.967416 
z
" style="fill: #b2182b"/>
    </g>
    <g id="text_16">
     <text style="font: 9px 'Arial'; text-anchor: start" x="214.839873" y="305.267416" transform="rotate(-0 214.839873 305.267416)">P7</text>
    </g>
   </g>
  </g>
  <g id="axes_2">
   <g id="patch_29">
    <path d="M 405.536715 262.783625 
L 560.806281 262.783625 
L 560.806281 29.935625 
L 405.536715 29.935625 
L 405.536715 262.783625 
z
" style="fill: none"/>
   </g>
   <g id="patch_30">
    <path d="M 412.594423 262.783625 
L 445.997313 262.783625 
L 445.997313 229.519625 
L 412.594423 229.519625 
z
" clip-path="url(#p4d9e3ec989)" style="fill: #3b6ea8; stroke: #ffffff; stroke-width: 0.9; stroke-linejoin: miter"/>
   </g>
   <g id="patch_31">
    <path d="M 466.470053 262.783625 
L 499.872943 262.783625 
L 499.872943 211.420096 
L 466.470053 211.420096 
z
" clip-path="url(#p4d9e3ec989)" style="fill: #3b6ea8; stroke: #ffffff; stroke-width: 0.9; stroke-linejoin: miter"/>
   </g>
   <g id="patch_32">
    <path d="M 520.345683 262.783625 
L 553.748573 262.783625 
L 553.748573 262.783625 
L 520.345683 262.783625 
z
" clip-path="url(#p4d9e3ec989)" style="fill: #3b6ea8; stroke: #ffffff; stroke-width: 0.9; stroke-linejoin: miter"/>
   </g>
   <g id="patch_33">
    <path d="M 412.594423 229.519625 
L 445.997313 229.519625 
L 445.997313 196.255625 
L 412.594423 196.255625 
z
" clip-path="url(#p4d9e3ec989)" style="fill: #5f8fb8; stroke: #ffffff; stroke-width: 0.9; stroke-linejoin: miter"/>
   </g>
   <g id="patch_34">
    <path d="M 466.470053 211.420096 
L 499.872943 211.420096 
L 499.872943 197.723154 
L 466.470053 197.723154 
z
" clip-path="url(#p4d9e3ec989)" style="fill: #5f8fb8; stroke: #ffffff; stroke-width: 0.9; stroke-linejoin: miter"/>
   </g>
   <g id="patch_35">
    <path d="M 520.345683 262.783625 
L 553.748573 262.783625 
L 553.748573 262.783625 
L 520.345683 262.783625 
z
" clip-path="url(#p4d9e3ec989)" style="fill: #5f8fb8; stroke: #ffffff; stroke-width: 0.9; stroke-linejoin: miter"/>
   </g>
   <g id="patch_36">
    <path d="M 412.594423 196.255625 
L 445.997313 196.255625 
L 445.997313 162.991625 
L 412.594423 162.991625 
z
" clip-path="url(#p4d9e3ec989)" style="fill: #7aa6c2; stroke: #ffffff; stroke-width: 0.9; stroke-linejoin: miter"/>
   </g>
   <g id="patch_37">
    <path d="M 466.470053 197.723154 
L 499.872943 197.723154 
L 499.872943 180.601978 
L 466.470053 180.601978 
z
" clip-path="url(#p4d9e3ec989)" style="fill: #7aa6c2; stroke: #ffffff; stroke-width: 0.9; stroke-linejoin: miter"/>
   </g>
   <g id="patch_38">
    <path d="M 520.345683 262.783625 
L 553.748573 262.783625 
L 553.748573 29.935625 
L 520.345683 29.935625 
z
" clip-path="url(#p4d9e3ec989)" style="fill: #7aa6c2; stroke: #ffffff; stroke-width: 0.9; stroke-linejoin: miter"/>
   </g>
   <g id="patch_39">
    <path d="M 412.594423 162.991625 
L 445.997313 162.991625 
L 445.997313 129.727625 
L 412.594423 129.727625 
z
" clip-path="url(#p4d9e3ec989)" style="fill: #9fbfd0; stroke: #ffffff; stroke-width: 0.9; stroke-linejoin: miter"/>
   </g>
   <g id="patch_40">
    <path d="M 466.470053 180.601978 
L 499.872943 180.601978 
L 499.872943 180.601978 
L 466.470053 180.601978 
z
" clip-path="url(#p4d9e3ec989)" style="fill: #9fbfd0; stroke: #ffffff; stroke-width: 0.9; stroke-linejoin: miter"/>
   </g>
   <g id="patch_41">
    <path d="M 520.345683 29.935625 
L 553.748573 29.935625 
L 553.748573 29.935625 
L 520.345683 29.935625 
z
" clip-path="url(#p4d9e3ec989)" style="fill: #9fbfd0; stroke: #ffffff; stroke-width: 0.9; stroke-linejoin: miter"/>
   </g>
   <g id="patch_42">
    <path d="M 412.594423 129.727625 
L 445.997313 129.727625 
L 445.997313 96.463625 
L 412.594423 96.463625 
z
" clip-path="url(#p4d9e3ec989)" style="fill: #d98b73; stroke: #ffffff; stroke-width: 0.9; stroke-linejoin: miter"/>
   </g>
   <g id="patch_43">
    <path d="M 466.470053 180.601978 
L 499.872943 180.601978 
L 499.872943 129.238449 
L 466.470053 129.238449 
z
" clip-path="url(#p4d9e3ec989)" style="fill: #d98b73; stroke: #ffffff; stroke-width: 0.9; stroke-linejoin: miter"/>
   </g>
   <g id="patch_44">
    <path d="M 520.345683 29.935625 
L 553.748573 29.935625 
L 553.748573 29.935625 
L 520.345683 29.935625 
z
" clip-path="url(#p4d9e3ec989)" style="fill: #d98b73; stroke: #ffffff; stroke-width: 0.9; stroke-linejoin: miter"/>
   </g>
   <g id="patch_45">
    <path d="M 412.594423 96.463625 
L 445.997313 96.463625 
L 445.997313 63.199625 
L 412.594423 63.199625 
z
" clip-path="url(#p4d9e3ec989)" style="fill: #c85c5c; stroke: #ffffff; stroke-width: 0.9; stroke-linejoin: miter"/>
   </g>
   <g id="patch_46">
    <path d="M 466.470053 129.238449 
L 499.872943 129.238449 
L 499.872943 29.935625 
L 466.470053 29.935625 
z
" clip-path="url(#p4d9e3ec989)" style="fill: #c85c5c; stroke: #ffffff; stroke-width: 0.9; stroke-linejoin: miter"/>
   </g>
   <g id="patch_47">
    <path d="M 520.345683 29.935625 
L 553.748573 29.935625 
L 553.748573 29.935625 
L 520.345683 29.935625 
z
" clip-path="url(#p4d9e3ec989)" style="fill: #c85c5c; stroke: #ffffff; stroke-width: 0.9; stroke-linejoin: miter"/>
   </g>
   <g id="patch_48">
    <path d="M 412.594423 63.199625 
L 445.997313 63.199625 
L 445.997313 29.935625 
L 412.594423 29.935625 
z
" clip-path="url(#p4d9e3ec989)" style="fill: #b2182b; stroke: #ffffff; stroke-width: 0.9; stroke-linejoin: miter"/>
   </g>
   <g id="patch_49">
    <path d="M 466.470053 29.935625 
L 499.872943 29.935625 
L 499.872943 29.935625 
L 466.470053 29.935625 
z
" clip-path="url(#p4d9e3ec989)" style="fill: #b2182b; stroke: #ffffff; stroke-width: 0.9; stroke-linejoin: miter"/>
   </g>
   <g id="patch_50">
    <path d="M 520.345683 29.935625 
L 553.748573 29.935625 
L 553.748573 29.935625 
L 520.345683 29.935625 
z
" clip-path="url(#p4d9e3ec989)" style="fill: #b2182b; stroke: #ffffff; stroke-width: 0.9; stroke-linejoin: miter"/>
   </g>
   <g id="matplotlib.axis_3">
    <g id="xtick_1">
     <g id="line2d_1">
      <defs>
       <path id="m851acea65d" d="M 0 0 
L 0 3.5 
" style="stroke: #000000; stroke-width: 0.8"/>
      </defs>
      <g>
       <use xlink:href="#m851acea65d" x="429.295868" y="262.783625" style="stroke: #000000; stroke-width: 0.8"/>
      </g>
     </g>
     <g id="text_17">
      <text style="font: 9px 'Arial'" transform="translate(361.663315 297.705909) rotate(-18)">Recommendation</text>
     </g>
    </g>
    <g id="xtick_2">
     <g id="line2d_2">
      <g>
       <use xlink:href="#m851acea65d" x="483.171498" y="262.783625" style="stroke: #000000; stroke-width: 0.8"/>
      </g>
     </g>
     <g id="text_18">
      <text style="font: 9px 'Arial'" transform="translate(425.498242 294.459347) rotate(-18)">Post-screening</text>
     </g>
    </g>
    <g id="xtick_3">
     <g id="line2d_3">
      <g>
       <use xlink:href="#m851acea65d" x="537.047128" y="262.783625" style="stroke: #000000; stroke-width: 0.8"/>
      </g>
     </g>
     <g id="text_19">
      <text style="font: 9px 'Arial'" transform="translate(488.914205 291.370095) rotate(-18)">Purchasable</text>
     </g>
    </g>
   </g>
   <g id="matplotlib.axis_4">
    <g id="ytick_1">
     <g id="line2d_4">
      <defs>
       <path id="m9940aa4c59" d="M 0 0 
L -3.5 0 
" style="stroke: #000000; stroke-width: 0.8"/>
      </defs>
      <g>
       <use xlink:href="#m9940aa4c59" x="405.536715" y="262.783625" style="stroke: #000000; stroke-width: 0.8"/>
      </g>
     </g>
     <g id="text_20">
      <text style="font: 9px 'Arial'; text-anchor: end" x="398.536715" y="266.004641" transform="rotate(-0 398.536715 266.004641)">0%</text>
     </g>
    </g>
    <g id="ytick_2">
     <g id="line2d_5">
      <g>
       <use xlink:href="#m9940aa4c59" x="405.536715" y="216.214025" style="stroke: #000000; stroke-width: 0.8"/>
      </g>
     </g>
     <g id="text_21">
      <text style="font: 9px 'Arial'; text-anchor: end" x="398.536715" y="219.435041" transform="rotate(-0 398.536715 219.435041)">20%</text>
     </g>
    </g>
    <g id="ytick_3">
     <g id="line2d_6">
      <g>
       <use xlink:href="#m9940aa4c59" x="405.536715" y="169.644425" style="stroke: #000000; stroke-width: 0.8"/>
      </g>
     </g>
     <g id="text_22">
      <text style="font: 9px 'Arial'; text-anchor: end" x="398.536715" y="172.865441" transform="rotate(-0 398.536715 172.865441)">40%</text>
     </g>
    </g>
    <g id="ytick_4">
     <g id="line2d_7">
      <g>
       <use xlink:href="#m9940aa4c59" x="405.536715" y="123.074825" style="stroke: #000000; stroke-width: 0.8"/>
      </g>
     </g>
     <g id="text_23">
      <text style="font: 9px 'Arial'; text-anchor: end" x="398.536715" y="126.295841" transform="rotate(-0 398.536715 126.295841)">60%</text>
     </g>
    </g>
    <g id="ytick_5">
     <g id="line2d_8">
      <g>
       <use xlink:href="#m9940aa4c59" x="405.536715" y="76.505225" style="stroke: #000000; stroke-width: 0.8"/>
      </g>
     </g>
     <g id="text_24">
      <text style="font: 9px 'Arial'; text-anchor: end" x="398.536715" y="79.726241" transform="rotate(-0 398.536715 79.726241)">80%</text>
     </g>
    </g>
    <g id="ytick_6">
     <g id="line2d_9">
      <g>
       <use xlink:href="#m9940aa4c59" x="405.536715" y="29.935625" style="stroke: #000000; stroke-width: 0.8"/>
      </g>
     </g>
     <g id="text_25">
      <text style="font: 9px 'Arial'; text-anchor: end" x="398.536715" y="33.156641" transform="rotate(-0 398.536715 33.156641)">100%</text>
     </g>
    </g>
    <g id="text_26">
     <text style="font: 10px 'Arial'; text-anchor: middle" x="369.414528" y="146.359625" transform="rotate(-90 369.414528 146.359625)">Prototype composition</text>
    </g>
   </g>
   <g id="patch_51">
    <path d="M 405.536715 262.783625 
L 405.536715 29.935625 
" style="fill: none; stroke: #000000; stroke-width: 0.8; stroke-linejoin: miter; stroke-linecap: square"/>
   </g>
   <g id="patch_52">
    <path d="M 405.536715 262.783625 
L 560.806281 262.783625 
" style="fill: none; stroke: #000000; stroke-width: 0.8; stroke-linejoin: miter; stroke-linecap: square"/>
   </g>
   <g id="text_27">
    <text style="font: 10px 'Arial'; text-anchor: middle" x="429.295868" y="23.291165" transform="rotate(-0 429.295868 23.291165)">30,800</text>
   </g>
   <g id="text_28">
    <text style="font: 10px 'Arial'; text-anchor: middle" x="483.171498" y="23.291165" transform="rotate(-0 483.171498 23.291165)">68</text>
   </g>
   <g id="text_29">
    <text style="font: 10px 'Arial'; text-anchor: middle" x="537.047128" y="23.291165" transform="rotate(-0 537.047128 23.291165)">4</text>
   </g>
   <g id="text_30">
    <text style="font: 11px 'Arial'; text-anchor: middle" x="483.171498" y="19.935625" transform="rotate(-0 483.171498 19.935625)">Composition by stage</text>
   </g>
  </g>
  <g id="text_31">
   <text style="font: 8.5px 'Arial'" transform="translate(163.611671 308.283359)">Stage 1: 30,800 recommended molecules (4,400 per prototype).</text>
   <text style="font: 8.5px 'Arial'" transform="translate(161.142023 317.497625)">Stage 2: automatically counted from Excel (current file total = 68).</text>
   <text style="font: 8.5px 'Arial'" transform="translate(153.452179 326.711891)">Stage 3: manually set to 4 purchasable molecules, all assigned to P3.</text>
  </g>
 </g>
 <defs>
  <clipPath id="pd13b022d7a">
   <rect x="25.126281" y="29.935625" width="310.53913" height="232.848"/>
  </clipPath>
  <clipPath id="p4d9e3ec989">
   <rect x="405.536715" y="29.935625" width="155.269565" height="232.848"/>
  </clipPath>
 </defs>
</svg>
