<?xml version="1.0" encoding="utf-8" standalone="no"?>
<!DOCTYPE svg PUBLIC "-//W3C//DTD SVG 1.1//EN"
  "http://www.w3.org/Graphics/SVG/1.1/DTD/svg11.dtd">
<svg xmlns:xlink="http://www.w3.org/1999/xlink" width="222.313437pt" height="163.730625pt" viewBox="0 0 222.313437 163.730625" xmlns="http://www.w3.org/2000/svg" version="1.1">
 <metadata>
  <rdf:RDF xmlns:dc="http://purl.org/dc/elements/1.1/" xmlns:cc="http://creativecommons.org/ns#" xmlns:rdf="http://www.w3.org/1999/02/22-rdf-syntax-ns#">
   <cc:Work>
    <dc:type rdf:resource="http://purl.org/dc/dcmitype/StillImage"/>
    <dc:date>2026-06-23T10:55:27.828314</dc:date>
    <dc:format>image/svg+xml</dc:format>
    <dc:creator>
     <cc:Agent>
      <dc:title>Matplotlib v3.9.4, https://matplotlib.org/</dc:title>
     </cc:Agent>
    </dc:creator>
   </cc:Work>
  </rdf:RDF>
 </metadata>
 <defs>
  <style type="text/css">*{stroke-linejoin: round; stroke-linecap: butt}</style>
 </defs>
 <g id="figure_1">
  <g id="patch_1">
   <path d="M 0 163.730625 
L 222.313437 163.730625 
L 222.313437 0 
L 0 0 
L 0 163.730625 
z
" style="fill: none"/>
  </g>
  <g id="axes_1">
   <g id="patch_2">
    <path d="M 46.923438 127.24 
L 215.113438 127.24 
L 215.113438 7.2 
L 46.923438 7.2 
L 46.923438 127.24 
z
" style="fill: none"/>
   </g>
   <g id="matplotlib.axis_1">
    <g id="xtick_1">
     <g id="text_1">
      <!-- 0 -->
      <g style="fill: #262626" transform="translate(54.246264 141.397812) scale(0.1 -0.1)">
       <defs>
        <path id="ArialMT-30" d="M 266 2259 
Q 266 3072 433 3567 
Q 600 4063 929 4331 
Q 1259 4600 1759 4600 
Q 2128 4600 2406 4451 
Q 2684 4303 2865 4023 
Q 3047 3744 3150 3342 
Q 3253 2941 3253 2259 
Q 3253 1453 3087 958 
Q 2922 463 2592 192 
Q 2263 -78 1759 -78 
Q 1097 -78 719 397 
Q 266 969 266 2259 
z
M 844 2259 
Q 844 1131 1108 757 
Q 1372 384 1759 384 
Q 2147 384 2411 759 
Q 2675 1134 2675 2259 
Q 2675 3391 2411 3762 
Q 2147 4134 1753 4134 
Q 1366 4134 1134 3806 
Q 844 3388 844 2259 
z
" transform="scale(0.015625)"/>
       </defs>
       <use xlink:href="#ArialMT-30"/>
      </g>
     </g>
    </g>
    <g id="xtick_2">
     <g id="text_2">
      <!-- 200 -->
      <g style="fill: #262626" transform="translate(85.94104 141.397812) scale(0.1 -0.1)">
       <defs>
        <path id="ArialMT-32" d="M 3222 541 
L 3222 0 
L 194 0 
Q 188 203 259 391 
Q 375 700 629 1000 
Q 884 1300 1366 1694 
Q 2113 2306 2375 2664 
Q 2638 3022 2638 3341 
Q 2638 3675 2398 3904 
Q 2159 4134 1775 4134 
Q 1369 4134 1125 3890 
Q 881 3647 878 3216 
L 300 3275 
Q 359 3922 746 4261 
Q 1134 4600 1788 4600 
Q 2447 4600 2831 4234 
Q 3216 3869 3216 3328 
Q 3216 3053 3103 2787 
Q 2991 2522 2730 2228 
Q 2469 1934 1863 1422 
Q 1356 997 1212 845 
Q 1069 694 975 541 
L 3222 541 
z
" transform="scale(0.015625)"/>
       </defs>
       <use xlink:href="#ArialMT-32"/>
       <use xlink:href="#ArialMT-30" x="55.615234"/>
       <use xlink:href="#ArialMT-30" x="111.230469"/>
      </g>
     </g>
    </g>
    <g id="xtick_3">
     <g id="text_3">
      <!-- 400 -->
      <g style="fill: #262626" transform="translate(123.196754 141.397812) scale(0.1 -0.1)">
       <defs>
        <path id="ArialMT-34" d="M 2069 0 
L 2069 1097 
L 81 1097 
L 81 1613 
L 2172 4581 
L 2631 4581 
L 2631 1613 
L 3250 1613 
L 3250 1097 
L 2631 1097 
L 2631 0 
L 2069 0 
z
M 2069 1613 
L 2069 3678 
L 634 1613 
L 2069 1613 
z
" transform="scale(0.015625)"/>
       </defs>
       <use xlink:href="#ArialMT-34"/>
       <use xlink:href="#ArialMT-30" x="55.615234"/>
       <use xlink:href="#ArialMT-30" x="111.230469"/>
      </g>
     </g>
    </g>
    <g id="xtick_4">
     <g id="text_4">
      <!-- 600 -->
      <g style="fill: #262626" transform="translate(160.452468 141.397812) scale(0.1 -0.1)">
       <defs>
        <path id="ArialMT-36" d="M 3184 3459 
L 2625 3416 
Q 2550 3747 2413 3897 
Q 2184 4138 1850 4138 
Q 1581 4138 1378 3988 
Q 1113 3794 959 3422 
Q 806 3050 800 2363 
Q 1003 2672 1297 2822 
Q 1591 2972 1913 2972 
Q 2475 2972 2870 2558 
Q 3266 2144 3266 1488 
Q 3266 1056 3080 686 
Q 2894 316 2569 119 
Q 2244 -78 1831 -78 
Q 1128 -78 684 439 
Q 241 956 241 2144 
Q 241 3472 731 4075 
Q 1159 4600 1884 4600 
Q 2425 4600 2770 4297 
Q 3116 3994 3184 3459 
z
M 888 1484 
Q 888 1194 1011 928 
Q 1134 663 1356 523 
Q 1578 384 1822 384 
Q 2178 384 2434 671 
Q 2691 959 2691 1453 
Q 2691 1928 2437 2201 
Q 2184 2475 1800 2475 
Q 1419 2475 1153 2201 
Q 888 1928 888 1484 
z
" transform="scale(0.015625)"/>
       </defs>
       <use xlink:href="#ArialMT-36"/>
       <use xlink:href="#ArialMT-30" x="55.615234"/>
       <use xlink:href="#ArialMT-30" x="111.230469"/>
      </g>
     </g>
    </g>
    <g id="xtick_5">
     <g id="text_5">
      <!-- 800 -->
      <g style="fill: #262626" transform="translate(197.708182 141.397812) scale(0.1 -0.1)">
       <defs>
        <path id="ArialMT-38" d="M 1131 2484 
Q 781 2613 612 2850 
Q 444 3088 444 3419 
Q 444 3919 803 4259 
Q 1163 4600 1759 4600 
Q 2359 4600 2725 4251 
Q 3091 3903 3091 3403 
Q 3091 3084 2923 2848 
Q 2756 2613 2416 2484 
Q 2838 2347 3058 2040 
Q 3278 1734 3278 1309 
Q 3278 722 2862 322 
Q 2447 -78 1769 -78 
Q 1091 -78 675 323 
Q 259 725 259 1325 
Q 259 1772 486 2073 
Q 713 2375 1131 2484 
z
M 1019 3438 
Q 1019 3113 1228 2906 
Q 1438 2700 1772 2700 
Q 2097 2700 2305 2904 
Q 2513 3109 2513 3406 
Q 2513 3716 2298 3927 
Q 2084 4138 1766 4138 
Q 1444 4138 1231 3931 
Q 1019 3725 1019 3438 
z
M 838 1322 
Q 838 1081 952 856 
Q 1066 631 1291 507 
Q 1516 384 1775 384 
Q 2178 384 2440 643 
Q 2703 903 2703 1303 
Q 2703 1709 2433 1975 
Q 2163 2241 1756 2241 
Q 1359 2241 1098 1978 
Q 838 1716 838 1322 
z
" transform="scale(0.015625)"/>
       </defs>
       <use xlink:href="#ArialMT-38"/>
       <use xlink:href="#ArialMT-30" x="55.615234"/>
       <use xlink:href="#ArialMT-30" x="111.230469"/>
      </g>
     </g>
    </g>
    <g id="text_6">
     <!-- Number of atoms -->
     <g style="fill: #262626" transform="translate(92.673906 154.543125) scale(0.1 -0.1)">
      <defs>
       <path id="ArialMT-4e" d="M 488 0 
L 488 4581 
L 1109 4581 
L 3516 984 
L 3516 4581 
L 4097 4581 
L 4097 0 
L 3475 0 
L 1069 3600 
L 1069 0 
L 488 0 
z
" transform="scale(0.015625)"/>
       <path id="ArialMT-75" d="M 2597 0 
L 2597 488 
Q 2209 -75 1544 -75 
Q 1250 -75 995 37 
Q 741 150 617 320 
Q 494 491 444 738 
Q 409 903 409 1263 
L 409 3319 
L 972 3319 
L 972 1478 
Q 972 1038 1006 884 
Q 1059 663 1231 536 
Q 1403 409 1656 409 
Q 1909 409 2131 539 
Q 2353 669 2445 892 
Q 2538 1116 2538 1541 
L 2538 3319 
L 3100 3319 
L 3100 0 
L 2597 0 
z
" transform="scale(0.015625)"/>
       <path id="ArialMT-6d" d="M 422 0 
L 422 3319 
L 925 3319 
L 925 2853 
Q 1081 3097 1340 3245 
Q 1600 3394 1931 3394 
Q 2300 3394 2536 3241 
Q 2772 3088 2869 2813 
Q 3263 3394 3894 3394 
Q 4388 3394 4653 3120 
Q 4919 2847 4919 2278 
L 4919 0 
L 4359 0 
L 4359 2091 
Q 4359 2428 4304 2576 
Q 4250 2725 4106 2815 
Q 3963 2906 3769 2906 
Q 3419 2906 3187 2673 
Q 2956 2441 2956 1928 
L 2956 0 
L 2394 0 
L 2394 2156 
Q 2394 2531 2256 2718 
Q 2119 2906 1806 2906 
Q 1569 2906 1367 2781 
Q 1166 2656 1075 2415 
Q 984 2175 984 1722 
L 984 0 
L 422 0 
z
" transform="scale(0.015625)"/>
       <path id="ArialMT-62" d="M 941 0 
L 419 0 
L 419 4581 
L 981 4581 
L 981 2947 
Q 1338 3394 1891 3394 
Q 2197 3394 2470 3270 
Q 2744 3147 2920 2923 
Q 3097 2700 3197 2384 
Q 3297 2069 3297 1709 
Q 3297 856 2875 390 
Q 2453 -75 1863 -75 
Q 1275 -75 941 416 
L 941 0 
z
M 934 1684 
Q 934 1088 1097 822 
Q 1363 388 1816 388 
Q 2184 388 2453 708 
Q 2722 1028 2722 1663 
Q 2722 2313 2464 2622 
Q 2206 2931 1841 2931 
Q 1472 2931 1203 2611 
Q 934 2291 934 1684 
z
" transform="scale(0.015625)"/>
       <path id="ArialMT-65" d="M 2694 1069 
L 3275 997 
Q 3138 488 2766 206 
Q 2394 -75 1816 -75 
Q 1088 -75 661 373 
Q 234 822 234 1631 
Q 234 2469 665 2931 
Q 1097 3394 1784 3394 
Q 2450 3394 2872 2941 
Q 3294 2488 3294 1666 
Q 3294 1616 3291 1516 
L 816 1516 
Q 847 969 1125 678 
Q 1403 388 1819 388 
Q 2128 388 2347 550 
Q 2566 713 2694 1069 
z
M 847 1978 
L 2700 1978 
Q 2663 2397 2488 2606 
Q 2219 2931 1791 2931 
Q 1403 2931 1139 2672 
Q 875 2413 847 1978 
z
" transform="scale(0.015625)"/>
       <path id="ArialMT-72" d="M 416 0 
L 416 3319 
L 922 3319 
L 922 2816 
Q 1116 3169 1280 3281 
Q 1444 3394 1641 3394 
Q 1925 3394 2219 3213 
L 2025 2691 
Q 1819 2813 1613 2813 
Q 1428 2813 1281 2702 
Q 1134 2591 1072 2394 
Q 978 2094 978 1738 
L 978 0 
L 416 0 
z
" transform="scale(0.015625)"/>
       <path id="ArialMT-20" transform="scale(0.015625)"/>
       <path id="ArialMT-6f" d="M 213 1659 
Q 213 2581 725 3025 
Q 1153 3394 1769 3394 
Q 2453 3394 2887 2945 
Q 3322 2497 3322 1706 
Q 3322 1066 3130 698 
Q 2938 331 2570 128 
Q 2203 -75 1769 -75 
Q 1072 -75 642 372 
Q 213 819 213 1659 
z
M 791 1659 
Q 791 1022 1069 705 
Q 1347 388 1769 388 
Q 2188 388 2466 706 
Q 2744 1025 2744 1678 
Q 2744 2294 2464 2611 
Q 2184 2928 1769 2928 
Q 1347 2928 1069 2612 
Q 791 2297 791 1659 
z
" transform="scale(0.015625)"/>
       <path id="ArialMT-66" d="M 556 0 
L 556 2881 
L 59 2881 
L 59 3319 
L 556 3319 
L 556 3672 
Q 556 4006 616 4169 
Q 697 4388 901 4523 
Q 1106 4659 1475 4659 
Q 1713 4659 2000 4603 
L 1916 4113 
Q 1741 4144 1584 4144 
Q 1328 4144 1222 4034 
Q 1116 3925 1116 3625 
L 1116 3319 
L 1763 3319 
L 1763 2881 
L 1116 2881 
L 1116 0 
L 556 0 
z
" transform="scale(0.015625)"/>
       <path id="ArialMT-61" d="M 2588 409 
Q 2275 144 1986 34 
Q 1697 -75 1366 -75 
Q 819 -75 525 192 
Q 231 459 231 875 
Q 231 1119 342 1320 
Q 453 1522 633 1644 
Q 813 1766 1038 1828 
Q 1203 1872 1538 1913 
Q 2219 1994 2541 2106 
Q 2544 2222 2544 2253 
Q 2544 2597 2384 2738 
Q 2169 2928 1744 2928 
Q 1347 2928 1158 2789 
Q 969 2650 878 2297 
L 328 2372 
Q 403 2725 575 2942 
Q 747 3159 1072 3276 
Q 1397 3394 1825 3394 
Q 2250 3394 2515 3294 
Q 2781 3194 2906 3042 
Q 3031 2891 3081 2659 
Q 3109 2516 3109 2141 
L 3109 1391 
Q 3109 606 3145 398 
Q 3181 191 3288 0 
L 2700 0 
Q 2613 175 2588 409 
z
M 2541 1666 
Q 2234 1541 1622 1453 
Q 1275 1403 1131 1340 
Q 988 1278 909 1158 
Q 831 1038 831 891 
Q 831 666 1001 516 
Q 1172 366 1500 366 
Q 1825 366 2078 508 
Q 2331 650 2450 897 
Q 2541 1088 2541 1459 
L 2541 1666 
z
" transform="scale(0.015625)"/>
       <path id="ArialMT-74" d="M 1650 503 
L 1731 6 
Q 1494 -44 1306 -44 
Q 1000 -44 831 53 
Q 663 150 594 308 
Q 525 466 525 972 
L 525 2881 
L 113 2881 
L 113 3319 
L 525 3319 
L 525 4141 
L 1084 4478 
L 1084 3319 
L 1650 3319 
L 1650 2881 
L 1084 2881 
L 1084 941 
Q 1084 700 1114 631 
Q 1144 563 1211 522 
Q 1278 481 1403 481 
Q 1497 481 1650 503 
z
" transform="scale(0.015625)"/>
       <path id="ArialMT-73" d="M 197 991 
L 753 1078 
Q 800 744 1014 566 
Q 1228 388 1613 388 
Q 2000 388 2187 545 
Q 2375 703 2375 916 
Q 2375 1106 2209 1216 
Q 2094 1291 1634 1406 
Q 1016 1563 777 1677 
Q 538 1791 414 1992 
Q 291 2194 291 2438 
Q 291 2659 392 2848 
Q 494 3038 669 3163 
Q 800 3259 1026 3326 
Q 1253 3394 1513 3394 
Q 1903 3394 2198 3281 
Q 2494 3169 2634 2976 
Q 2775 2784 2828 2463 
L 2278 2388 
Q 2241 2644 2061 2787 
Q 1881 2931 1553 2931 
Q 1166 2931 1000 2803 
Q 834 2675 834 2503 
Q 834 2394 903 2306 
Q 972 2216 1119 2156 
Q 1203 2125 1616 2013 
Q 2213 1853 2448 1751 
Q 2684 1650 2818 1456 
Q 2953 1263 2953 975 
Q 2953 694 2789 445 
Q 2625 197 2315 61 
Q 2006 -75 1616 -75 
Q 969 -75 630 194 
Q 291 463 197 991 
z
" transform="scale(0.015625)"/>
      </defs>
      <use xlink:href="#ArialMT-4e"/>
      <use xlink:href="#ArialMT-75" x="72.216797"/>
      <use xlink:href="#ArialMT-6d" x="127.832031"/>
      <use xlink:href="#ArialMT-62" x="211.132812"/>
      <use xlink:href="#ArialMT-65" x="266.748047"/>
      <use xlink:href="#ArialMT-72" x="322.363281"/>
      <use xlink:href="#ArialMT-20" x="355.664062"/>
      <use xlink:href="#ArialMT-6f" x="383.447266"/>
      <use xlink:href="#ArialMT-66" x="439.0625"/>
      <use xlink:href="#ArialMT-20" x="466.845703"/>
      <use xlink:href="#ArialMT-61" x="494.628906"/>
      <use xlink:href="#ArialMT-74" x="550.244141"/>
      <use xlink:href="#ArialMT-6f" x="578.027344"/>
      <use xlink:href="#ArialMT-6d" x="633.642578"/>
      <use xlink:href="#ArialMT-73" x="716.943359"/>
     </g>
    </g>
   </g>
   <g id="matplotlib.axis_2">
    <g id="ytick_1">
     <g id="text_7">
      <!-- 0.00 -->
      <g style="fill: #262626" transform="translate(20.4625 130.818906) scale(0.1 -0.1)">
       <defs>
        <path id="ArialMT-2e" d="M 581 0 
L 581 641 
L 1222 641 
L 1222 0 
L 581 0 
z
" transform="scale(0.015625)"/>
       </defs>
       <use xlink:href="#ArialMT-30"/>
       <use xlink:href="#ArialMT-2e" x="55.615234"/>
       <use xlink:href="#ArialMT-30" x="83.398438"/>
       <use xlink:href="#ArialMT-30" x="139.013672"/>
      </g>
     </g>
    </g>
    <g id="ytick_2">
     <g id="text_8">
      <!-- 0.01 -->
      <g style="fill: #262626" transform="translate(20.4625 109.429961) scale(0.1 -0.1)">
       <defs>
        <path id="ArialMT-31" d="M 2384 0 
L 1822 0 
L 1822 3584 
Q 1619 3391 1289 3197 
Q 959 3003 697 2906 
L 697 3450 
Q 1169 3672 1522 3987 
Q 1875 4303 2022 4600 
L 2384 4600 
L 2384 0 
z
" transform="scale(0.015625)"/>
       </defs>
       <use xlink:href="#ArialMT-30"/>
       <use xlink:href="#ArialMT-2e" x="55.615234"/>
       <use xlink:href="#ArialMT-30" x="83.398438"/>
       <use xlink:href="#ArialMT-31" x="139.013672"/>
      </g>
     </g>
    </g>
    <g id="ytick_3">
     <g id="text_9">
      <!-- 0.02 -->
      <g style="fill: #262626" transform="translate(20.4625 88.041015) scale(0.1 -0.1)">
       <use xlink:href="#ArialMT-30"/>
       <use xlink:href="#ArialMT-2e" x="55.615234"/>
       <use xlink:href="#ArialMT-30" x="83.398438"/>
       <use xlink:href="#ArialMT-32" x="139.013672"/>
      </g>
     </g>
    </g>
    <g id="ytick_4">
     <g id="text_10">
      <!-- 0.03 -->
      <g style="fill: #262626" transform="translate(20.4625 66.65207) scale(0.1 -0.1)">
       <defs>
        <path id="ArialMT-33" d="M 269 1209 
L 831 1284 
Q 928 806 1161 595 
Q 1394 384 1728 384 
Q 2125 384 2398 659 
Q 2672 934 2672 1341 
Q 2672 1728 2419 1979 
Q 2166 2231 1775 2231 
Q 1616 2231 1378 2169 
L 1441 2663 
Q 1497 2656 1531 2656 
Q 1891 2656 2178 2843 
Q 2466 3031 2466 3422 
Q 2466 3731 2256 3934 
Q 2047 4138 1716 4138 
Q 1388 4138 1169 3931 
Q 950 3725 888 3313 
L 325 3413 
Q 428 3978 793 4289 
Q 1159 4600 1703 4600 
Q 2078 4600 2393 4439 
Q 2709 4278 2876 4000 
Q 3044 3722 3044 3409 
Q 3044 3113 2884 2869 
Q 2725 2625 2413 2481 
Q 2819 2388 3044 2092 
Q 3269 1797 3269 1353 
Q 3269 753 2831 336 
Q 2394 -81 1725 -81 
Q 1122 -81 723 278 
Q 325 638 269 1209 
z
" transform="scale(0.015625)"/>
       </defs>
       <use xlink:href="#ArialMT-30"/>
       <use xlink:href="#ArialMT-2e" x="55.615234"/>
       <use xlink:href="#ArialMT-30" x="83.398438"/>
       <use xlink:href="#ArialMT-33" x="139.013672"/>
      </g>
     </g>
    </g>
    <g id="ytick_5">
     <g id="text_11">
      <!-- 0.04 -->
      <g style="fill: #262626" transform="translate(20.4625 45.263124) scale(0.1 -0.1)">
       <use xlink:href="#ArialMT-30"/>
       <use xlink:href="#ArialMT-2e" x="55.615234"/>
       <use xlink:href="#ArialMT-30" x="83.398438"/>
       <use xlink:href="#ArialMT-34" x="139.013672"/>
      </g>
     </g>
    </g>
    <g id="ytick_6">
     <g id="text_12">
      <!-- 0.05 -->
      <g style="fill: #262626" transform="translate(20.4625 23.874179) scale(0.1 -0.1)">
       <defs>
        <path id="ArialMT-35" d="M 266 1200 
L 856 1250 
Q 922 819 1161 601 
Q 1400 384 1738 384 
Q 2144 384 2425 690 
Q 2706 997 2706 1503 
Q 2706 1984 2436 2262 
Q 2166 2541 1728 2541 
Q 1456 2541 1237 2417 
Q 1019 2294 894 2097 
L 366 2166 
L 809 4519 
L 3088 4519 
L 3088 3981 
L 1259 3981 
L 1013 2750 
Q 1425 3038 1878 3038 
Q 2478 3038 2890 2622 
Q 3303 2206 3303 1553 
Q 3303 931 2941 478 
Q 2500 -78 1738 -78 
Q 1113 -78 717 272 
Q 322 622 266 1200 
z
" transform="scale(0.015625)"/>
       </defs>
       <use xlink:href="#ArialMT-30"/>
       <use xlink:href="#ArialMT-2e" x="55.615234"/>
       <use xlink:href="#ArialMT-30" x="83.398438"/>
       <use xlink:href="#ArialMT-35" x="139.013672"/>
      </g>
     </g>
    </g>
    <g id="text_13">
     <!-- Density -->
     <g style="fill: #262626" transform="translate(14.357813 83.891875) rotate(-90) scale(0.1 -0.1)">
      <defs>
       <path id="ArialMT-44" d="M 494 0 
L 494 4581 
L 2072 4581 
Q 2606 4581 2888 4516 
Q 3281 4425 3559 4188 
Q 3922 3881 4101 3404 
Q 4281 2928 4281 2316 
Q 4281 1794 4159 1391 
Q 4038 988 3847 723 
Q 3656 459 3429 307 
Q 3203 156 2883 78 
Q 2563 0 2147 0 
L 494 0 
z
M 1100 541 
L 2078 541 
Q 2531 541 2789 625 
Q 3047 709 3200 863 
Q 3416 1078 3536 1442 
Q 3656 1806 3656 2325 
Q 3656 3044 3420 3430 
Q 3184 3816 2847 3947 
Q 2603 4041 2063 4041 
L 1100 4041 
L 1100 541 
z
" transform="scale(0.015625)"/>
       <path id="ArialMT-6e" d="M 422 0 
L 422 3319 
L 928 3319 
L 928 2847 
Q 1294 3394 1984 3394 
Q 2284 3394 2536 3286 
Q 2788 3178 2913 3003 
Q 3038 2828 3088 2588 
Q 3119 2431 3119 2041 
L 3119 0 
L 2556 0 
L 2556 2019 
Q 2556 2363 2490 2533 
Q 2425 2703 2258 2804 
Q 2091 2906 1866 2906 
Q 1506 2906 1245 2678 
Q 984 2450 984 1813 
L 984 0 
L 422 0 
z
" transform="scale(0.015625)"/>
       <path id="ArialMT-69" d="M 425 3934 
L 425 4581 
L 988 4581 
L 988 3934 
L 425 3934 
z
M 425 0 
L 425 3319 
L 988 3319 
L 988 0 
L 425 0 
z
" transform="scale(0.015625)"/>
       <path id="ArialMT-79" d="M 397 -1278 
L 334 -750 
Q 519 -800 656 -800 
Q 844 -800 956 -737 
Q 1069 -675 1141 -563 
Q 1194 -478 1313 -144 
Q 1328 -97 1363 -6 
L 103 3319 
L 709 3319 
L 1400 1397 
Q 1534 1031 1641 628 
Q 1738 1016 1872 1384 
L 2581 3319 
L 3144 3319 
L 1881 -56 
Q 1678 -603 1566 -809 
Q 1416 -1088 1222 -1217 
Q 1028 -1347 759 -1347 
Q 597 -1347 397 -1278 
z
" transform="scale(0.015625)"/>
      </defs>
      <use xlink:href="#ArialMT-44"/>
      <use xlink:href="#ArialMT-65" x="72.216797"/>
      <use xlink:href="#ArialMT-6e" x="127.832031"/>
      <use xlink:href="#ArialMT-73" x="183.447266"/>
      <use xlink:href="#ArialMT-69" x="233.447266"/>
      <use xlink:href="#ArialMT-74" x="255.664062"/>
      <use xlink:href="#ArialMT-79" x="283.447266"/>
     </g>
    </g>
   </g>
   <g id="patch_3">
    <path d="M 57.213011 127.24 
L 62.143184 127.24 
L 62.143184 81.248113 
L 57.213011 81.248113 
z
" clip-path="url(#p9c5615db5d)" style="fill: #3b6ea8; fill-opacity: 0.3; stroke: #ffffff; stroke-width: 0.541091; stroke-linejoin: miter"/>
   </g>
   <g id="patch_4">
    <path d="M 62.143184 127.24 
L 67.073357 127.24 
L 67.073357 107.598657 
L 62.143184 107.598657 
z
" clip-path="url(#p9c5615db5d)" style="fill: #3b6ea8; fill-opacity: 0.3; stroke: #ffffff; stroke-width: 0.541091; stroke-linejoin: miter"/>
   </g>
   <g id="patch_5">
    <path d="M 67.073357 127.24 
L 72.00353 127.24 
L 72.00353 121.738806 
L 67.073357 121.738806 
z
" clip-path="url(#p9c5615db5d)" style="fill: #3b6ea8; fill-opacity: 0.3; stroke: #ffffff; stroke-width: 0.541091; stroke-linejoin: miter"/>
   </g>
   <g id="patch_6">
    <path d="M 72.00353 127.24 
L 76.933703 127.24 
L 76.933703 124.507155 
L 72.00353 124.507155 
z
" clip-path="url(#p9c5615db5d)" style="fill: #3b6ea8; fill-opacity: 0.3; stroke: #ffffff; stroke-width: 0.541091; stroke-linejoin: miter"/>
   </g>
   <g id="patch_7">
    <path d="M 76.933703 127.24 
L 81.863875 127.24 
L 81.863875 125.031613 
L 76.933703 125.031613 
z
" clip-path="url(#p9c5615db5d)" style="fill: #3b6ea8; fill-opacity: 0.3; stroke: #ffffff; stroke-width: 0.541091; stroke-linejoin: miter"/>
   </g>
   <g id="patch_8">
    <path d="M 81.863875 127.24 
L 86.794048 127.24 
L 86.794048 125.626628 
L 81.863875 125.626628 
z
" clip-path="url(#p9c5615db5d)" style="fill: #3b6ea8; fill-opacity: 0.3; stroke: #ffffff; stroke-width: 0.541091; stroke-linejoin: miter"/>
   </g>
   <g id="patch_9">
    <path d="M 86.794048 127.24 
L 91.724221 127.24 
L 91.724221 126.094461 
L 86.794048 126.094461 
z
" clip-path="url(#p9c5615db5d)" style="fill: #3b6ea8; fill-opacity: 0.3; stroke: #ffffff; stroke-width: 0.541091; stroke-linejoin: miter"/>
   </g>
   <g id="patch_10">
    <path d="M 91.724221 127.24 
L 96.654394 127.24 
L 96.654394 126.549261 
L 91.724221 126.549261 
z
" clip-path="url(#p9c5615db5d)" style="fill: #3b6ea8; fill-opacity: 0.3; stroke: #ffffff; stroke-width: 0.541091; stroke-linejoin: miter"/>
   </g>
   <g id="patch_11">
    <path d="M 96.654394 127.24 
L 101.584567 127.24 
L 101.584567 126.758685 
L 96.654394 126.758685 
z
" clip-path="url(#p9c5615db5d)" style="fill: #3b6ea8; fill-opacity: 0.3; stroke: #ffffff; stroke-width: 0.541091; stroke-linejoin: miter"/>
   </g>
   <g id="patch_12">
    <path d="M 101.584567 127.24 
L 106.514739 127.24 
L 106.514739 126.928111 
L 101.584567 126.928111 
z
" clip-path="url(#p9c5615db5d)" style="fill: #3b6ea8; fill-opacity: 0.3; stroke: #ffffff; stroke-width: 0.541091; stroke-linejoin: miter"/>
   </g>
   <g id="patch_13">
    <path d="M 106.514739 127.24 
L 111.444912 127.24 
L 111.444912 127.047654 
L 106.514739 127.047654 
z
" clip-path="url(#p9c5615db5d)" style="fill: #3b6ea8; fill-opacity: 0.3; stroke: #ffffff; stroke-width: 0.541091; stroke-linejoin: miter"/>
   </g>
   <g id="patch_14">
    <path d="M 111.444912 127.24 
L 116.375085 127.24 
L 116.375085 127.13349 
L 111.444912 127.13349 
z
" clip-path="url(#p9c5615db5d)" style="fill: #3b6ea8; fill-opacity: 0.3; stroke: #ffffff; stroke-width: 0.541091; stroke-linejoin: miter"/>
   </g>
   <g id="patch_15">
    <path d="M 116.375085 127.24 
L 121.305258 127.24 
L 121.305258 127.179779 
L 116.375085 127.179779 
z
" clip-path="url(#p9c5615db5d)" style="fill: #3b6ea8; fill-opacity: 0.3; stroke: #ffffff; stroke-width: 0.541091; stroke-linejoin: miter"/>
   </g>
   <g id="patch_16">
    <path d="M 121.305258 127.24 
L 126.235431 127.24 
L 126.235431 127.200902 
L 121.305258 127.200902 
z
" clip-path="url(#p9c5615db5d)" style="fill: #3b6ea8; fill-opacity: 0.3; stroke: #ffffff; stroke-width: 0.541091; stroke-linejoin: miter"/>
   </g>
   <g id="patch_17">
    <path d="M 126.235431 127.24 
L 131.165604 127.24 
L 131.165604 127.20944 
L 126.235431 127.20944 
z
" clip-path="url(#p9c5615db5d)" style="fill: #3b6ea8; fill-opacity: 0.3; stroke: #ffffff; stroke-width: 0.541091; stroke-linejoin: miter"/>
   </g>
   <g id="patch_18">
    <path d="M 131.165604 127.24 
L 136.095776 127.24 
L 136.095776 127.223372 
L 131.165604 127.223372 
z
" clip-path="url(#p9c5615db5d)" style="fill: #3b6ea8; fill-opacity: 0.3; stroke: #ffffff; stroke-width: 0.541091; stroke-linejoin: miter"/>
   </g>
   <g id="patch_19">
    <path d="M 136.095776 127.24 
L 141.025949 127.24 
L 141.025949 127.220226 
L 136.095776 127.220226 
z
" clip-path="url(#p9c5615db5d)" style="fill: #3b6ea8; fill-opacity: 0.3; stroke: #ffffff; stroke-width: 0.541091; stroke-linejoin: miter"/>
   </g>
   <g id="patch_20">
    <path d="M 141.025949 127.24 
L 145.956122 127.24 
L 145.956122 127.229214 
L 141.025949 127.229214 
z
" clip-path="url(#p9c5615db5d)" style="fill: #3b6ea8; fill-opacity: 0.3; stroke: #ffffff; stroke-width: 0.541091; stroke-linejoin: miter"/>
   </g>
   <g id="patch_21">
    <path d="M 145.956122 127.24 
L 150.886295 127.24 
L 150.886295 127.233259 
L 145.956122 127.233259 
z
" clip-path="url(#p9c5615db5d)" style="fill: #3b6ea8; fill-opacity: 0.3; stroke: #ffffff; stroke-width: 0.541091; stroke-linejoin: miter"/>
   </g>
   <g id="patch_22">
    <path d="M 150.886295 127.24 
L 155.816468 127.24 
L 155.816468 127.234158 
L 150.886295 127.234158 
z
" clip-path="url(#p9c5615db5d)" style="fill: #3b6ea8; fill-opacity: 0.3; stroke: #ffffff; stroke-width: 0.541091; stroke-linejoin: miter"/>
   </g>
   <g id="patch_23">
    <path d="M 155.816468 127.24 
L 160.74664 127.24 
L 160.74664 127.237753 
L 155.816468 127.237753 
z
" clip-path="url(#p9c5615db5d)" style="fill: #3b6ea8; fill-opacity: 0.3; stroke: #ffffff; stroke-width: 0.541091; stroke-linejoin: miter"/>
   </g>
   <g id="patch_24">
    <path d="M 160.74664 127.24 
L 165.676813 127.24 
L 165.676813 127.238652 
L 160.74664 127.238652 
z
" clip-path="url(#p9c5615db5d)" style="fill: #3b6ea8; fill-opacity: 0.3; stroke: #ffffff; stroke-width: 0.541091; stroke-linejoin: miter"/>
   </g>
   <g id="patch_25">
    <path d="M 165.676813 127.24 
L 170.606986 127.24 
L 170.606986 127.238652 
L 165.676813 127.238652 
z
" clip-path="url(#p9c5615db5d)" style="fill: #3b6ea8; fill-opacity: 0.3; stroke: #ffffff; stroke-width: 0.541091; stroke-linejoin: miter"/>
   </g>
   <g id="patch_26">
    <path d="M 170.606986 127.24 
L 175.537159 127.24 
L 175.537159 127.24 
L 170.606986 127.24 
z
" clip-path="url(#p9c5615db5d)" style="fill: #3b6ea8; fill-opacity: 0.3; stroke: #ffffff; stroke-width: 0.541091; stroke-linejoin: miter"/>
   </g>
   <g id="patch_27">
    <path d="M 175.537159 127.24 
L 180.467332 127.24 
L 180.467332 127.24 
L 175.537159 127.24 
z
" clip-path="url(#p9c5615db5d)" style="fill: #3b6ea8; fill-opacity: 0.3; stroke: #ffffff; stroke-width: 0.541091; stroke-linejoin: miter"/>
   </g>
   <g id="patch_28">
    <path d="M 180.467332 127.24 
L 185.397504 127.24 
L 185.397504 127.239551 
L 180.467332 127.239551 
z
" clip-path="url(#p9c5615db5d)" style="fill: #3b6ea8; fill-opacity: 0.3; stroke: #ffffff; stroke-width: 0.541091; stroke-linejoin: miter"/>
   </g>
   <g id="patch_29">
    <path d="M 185.397504 127.24 
L 190.327677 127.24 
L 190.327677 127.239551 
L 185.397504 127.239551 
z
" clip-path="url(#p9c5615db5d)" style="fill: #3b6ea8; fill-opacity: 0.3; stroke: #ffffff; stroke-width: 0.541091; stroke-linejoin: miter"/>
   </g>
   <g id="patch_30">
    <path d="M 190.327677 127.24 
L 195.25785 127.24 
L 195.25785 127.239551 
L 190.327677 127.239551 
z
" clip-path="url(#p9c5615db5d)" style="fill: #3b6ea8; fill-opacity: 0.3; stroke: #ffffff; stroke-width: 0.541091; stroke-linejoin: miter"/>
   </g>
   <g id="patch_31">
    <path d="M 195.25785 127.24 
L 200.188023 127.24 
L 200.188023 127.24 
L 195.25785 127.24 
z
" clip-path="url(#p9c5615db5d)" style="fill: #3b6ea8; fill-opacity: 0.3; stroke: #ffffff; stroke-width: 0.541091; stroke-linejoin: miter"/>
   </g>
   <g id="patch_32">
    <path d="M 200.188023 127.24 
L 205.118196 127.24 
L 205.118196 127.238652 
L 200.188023 127.238652 
z
" clip-path="url(#p9c5615db5d)" style="fill: #3b6ea8; fill-opacity: 0.3; stroke: #ffffff; stroke-width: 0.541091; stroke-linejoin: miter"/>
   </g>
   <g id="patch_33">
    <path d="M 57.39929 127.24 
L 58.0078 127.24 
L 58.0078 96.060779 
L 57.39929 96.060779 
z
" clip-path="url(#p9c5615db5d)" style="fill: #b2182b; fill-opacity: 0.3; stroke: #ffffff; stroke-width: 0.066785; stroke-linejoin: miter"/>
   </g>
   <g id="patch_34">
    <path d="M 58.0078 127.24 
L 58.61631 127.24 
L 58.61631 122.043463 
L 58.0078 122.043463 
z
" clip-path="url(#p9c5615db5d)" style="fill: #b2182b; fill-opacity: 0.3; stroke: #ffffff; stroke-width: 0.066785; stroke-linejoin: miter"/>
   </g>
   <g id="patch_35">
    <path d="M 58.61631 127.24 
L 59.22482 127.24 
L 59.22482 59.685022 
L 58.61631 59.685022 
z
" clip-path="url(#p9c5615db5d)" style="fill: #b2182b; fill-opacity: 0.3; stroke: #ffffff; stroke-width: 0.066785; stroke-linejoin: miter"/>
   </g>
   <g id="patch_36">
    <path d="M 59.22482 127.24 
L 59.83333 127.24 
L 59.83333 23.309264 
L 59.22482 23.309264 
z
" clip-path="url(#p9c5615db5d)" style="fill: #b2182b; fill-opacity: 0.3; stroke: #ffffff; stroke-width: 0.066785; stroke-linejoin: miter"/>
   </g>
   <g id="patch_37">
    <path d="M 59.83333 127.24 
L 60.44184 127.24 
L 60.44184 12.91619 
L 59.83333 12.91619 
z
" clip-path="url(#p9c5615db5d)" style="fill: #b2182b; fill-opacity: 0.3; stroke: #ffffff; stroke-width: 0.066785; stroke-linejoin: miter"/>
   </g>
   <g id="patch_38">
    <path d="M 60.44184 127.24 
L 61.05035 127.24 
L 61.05035 70.078095 
L 60.44184 70.078095 
z
" clip-path="url(#p9c5615db5d)" style="fill: #b2182b; fill-opacity: 0.3; stroke: #ffffff; stroke-width: 0.066785; stroke-linejoin: miter"/>
   </g>
   <g id="patch_39">
    <path d="M 61.05035 127.24 
L 61.65886 127.24 
L 61.65886 54.488485 
L 61.05035 54.488485 
z
" clip-path="url(#p9c5615db5d)" style="fill: #b2182b; fill-opacity: 0.3; stroke: #ffffff; stroke-width: 0.066785; stroke-linejoin: miter"/>
   </g>
   <g id="patch_40">
    <path d="M 61.65886 127.24 
L 62.26737 127.24 
L 62.26737 49.291948 
L 61.65886 49.291948 
z
" clip-path="url(#p9c5615db5d)" style="fill: #b2182b; fill-opacity: 0.3; stroke: #ffffff; stroke-width: 0.066785; stroke-linejoin: miter"/>
   </g>
   <g id="patch_41">
    <path d="M 62.26737 127.24 
L 62.87588 127.24 
L 62.87588 70.078095 
L 62.26737 70.078095 
z
" clip-path="url(#p9c5615db5d)" style="fill: #b2182b; fill-opacity: 0.3; stroke: #ffffff; stroke-width: 0.066785; stroke-linejoin: miter"/>
   </g>
   <g id="patch_42">
    <path d="M 62.87588 127.24 
L 63.48439 127.24 
L 63.48439 111.65039 
L 62.87588 111.65039 
z
" clip-path="url(#p9c5615db5d)" style="fill: #b2182b; fill-opacity: 0.3; stroke: #ffffff; stroke-width: 0.066785; stroke-linejoin: miter"/>
   </g>
   <g id="patch_43">
    <path d="M 63.48439 127.24 
L 64.0929 127.24 
L 64.0929 111.65039 
L 63.48439 111.65039 
z
" clip-path="url(#p9c5615db5d)" style="fill: #b2182b; fill-opacity: 0.3; stroke: #ffffff; stroke-width: 0.066785; stroke-linejoin: miter"/>
   </g>
   <g id="patch_44">
    <path d="M 64.0929 127.24 
L 64.70141 127.24 
L 64.70141 127.24 
L 64.0929 127.24 
z
" clip-path="url(#p9c5615db5d)" style="fill: #b2182b; fill-opacity: 0.3; stroke: #ffffff; stroke-width: 0.066785; stroke-linejoin: miter"/>
   </g>
   <g id="patch_45">
    <path d="M 64.70141 127.24 
L 65.30992 127.24 
L 65.30992 111.65039 
L 64.70141 111.65039 
z
" clip-path="url(#p9c5615db5d)" style="fill: #b2182b; fill-opacity: 0.3; stroke: #ffffff; stroke-width: 0.066785; stroke-linejoin: miter"/>
   </g>
   <g id="patch_46">
    <path d="M 65.30992 127.24 
L 65.91843 127.24 
L 65.91843 127.24 
L 65.30992 127.24 
z
" clip-path="url(#p9c5615db5d)" style="fill: #b2182b; fill-opacity: 0.3; stroke: #ffffff; stroke-width: 0.066785; stroke-linejoin: miter"/>
   </g>
   <g id="patch_47">
    <path d="M 65.91843 127.24 
L 66.52694 127.24 
L 66.52694 127.24 
L 65.91843 127.24 
z
" clip-path="url(#p9c5615db5d)" style="fill: #b2182b; fill-opacity: 0.3; stroke: #ffffff; stroke-width: 0.066785; stroke-linejoin: miter"/>
   </g>
   <g id="patch_48">
    <path d="M 66.52694 127.24 
L 67.13545 127.24 
L 67.13545 127.24 
L 66.52694 127.24 
z
" clip-path="url(#p9c5615db5d)" style="fill: #b2182b; fill-opacity: 0.3; stroke: #ffffff; stroke-width: 0.066785; stroke-linejoin: miter"/>
   </g>
   <g id="patch_49">
    <path d="M 67.13545 127.24 
L 67.74396 127.24 
L 67.74396 127.24 
L 67.13545 127.24 
z
" clip-path="url(#p9c5615db5d)" style="fill: #b2182b; fill-opacity: 0.3; stroke: #ffffff; stroke-width: 0.066785; stroke-linejoin: miter"/>
   </g>
   <g id="patch_50">
    <path d="M 67.74396 127.24 
L 68.35247 127.24 
L 68.35247 122.043463 
L 67.74396 122.043463 
z
" clip-path="url(#p9c5615db5d)" style="fill: #b2182b; fill-opacity: 0.3; stroke: #ffffff; stroke-width: 0.066785; stroke-linejoin: miter"/>
   </g>
   <g id="patch_51">
    <path d="M 68.35247 127.24 
L 68.96098 127.24 
L 68.96098 127.24 
L 68.35247 127.24 
z
" clip-path="url(#p9c5615db5d)" style="fill: #b2182b; fill-opacity: 0.3; stroke: #ffffff; stroke-width: 0.066785; stroke-linejoin: miter"/>
   </g>
   <g id="patch_52">
    <path d="M 68.96098 127.24 
L 69.56949 127.24 
L 69.56949 127.24 
L 68.96098 127.24 
z
" clip-path="url(#p9c5615db5d)" style="fill: #b2182b; fill-opacity: 0.3; stroke: #ffffff; stroke-width: 0.066785; stroke-linejoin: miter"/>
   </g>
   <g id="patch_53">
    <path d="M 69.56949 127.24 
L 70.178 127.24 
L 70.178 127.24 
L 69.56949 127.24 
z
" clip-path="url(#p9c5615db5d)" style="fill: #b2182b; fill-opacity: 0.3; stroke: #ffffff; stroke-width: 0.066785; stroke-linejoin: miter"/>
   </g>
   <g id="patch_54">
    <path d="M 70.178 127.24 
L 70.78651 127.24 
L 70.78651 116.846926 
L 70.178 116.846926 
z
" clip-path="url(#p9c5615db5d)" style="fill: #b2182b; fill-opacity: 0.3; stroke: #ffffff; stroke-width: 0.066785; stroke-linejoin: miter"/>
   </g>
   <g id="patch_55">
    <path d="M 70.78651 127.24 
L 71.39502 127.24 
L 71.39502 127.24 
L 70.78651 127.24 
z
" clip-path="url(#p9c5615db5d)" style="fill: #b2182b; fill-opacity: 0.3; stroke: #ffffff; stroke-width: 0.066785; stroke-linejoin: miter"/>
   </g>
   <g id="patch_56">
    <path d="M 71.39502 127.24 
L 72.00353 127.24 
L 72.00353 127.24 
L 71.39502 127.24 
z
" clip-path="url(#p9c5615db5d)" style="fill: #b2182b; fill-opacity: 0.3; stroke: #ffffff; stroke-width: 0.066785; stroke-linejoin: miter"/>
   </g>
   <g id="patch_57">
    <path d="M 72.00353 127.24 
L 72.61204 127.24 
L 72.61204 127.24 
L 72.00353 127.24 
z
" clip-path="url(#p9c5615db5d)" style="fill: #b2182b; fill-opacity: 0.3; stroke: #ffffff; stroke-width: 0.066785; stroke-linejoin: miter"/>
   </g>
   <g id="patch_58">
    <path d="M 72.61204 127.24 
L 73.22055 127.24 
L 73.22055 127.24 
L 72.61204 127.24 
z
" clip-path="url(#p9c5615db5d)" style="fill: #b2182b; fill-opacity: 0.3; stroke: #ffffff; stroke-width: 0.066785; stroke-linejoin: miter"/>
   </g>
   <g id="patch_59">
    <path d="M 73.22055 127.24 
L 73.82906 127.24 
L 73.82906 127.24 
L 73.22055 127.24 
z
" clip-path="url(#p9c5615db5d)" style="fill: #b2182b; fill-opacity: 0.3; stroke: #ffffff; stroke-width: 0.066785; stroke-linejoin: miter"/>
   </g>
   <g id="patch_60">
    <path d="M 73.82906 127.24 
L 74.43757 127.24 
L 74.43757 127.24 
L 73.82906 127.24 
z
" clip-path="url(#p9c5615db5d)" style="fill: #b2182b; fill-opacity: 0.3; stroke: #ffffff; stroke-width: 0.066785; stroke-linejoin: miter"/>
   </g>
   <g id="patch_61">
    <path d="M 74.43757 127.24 
L 75.04608 127.24 
L 75.04608 127.24 
L 74.43757 127.24 
z
" clip-path="url(#p9c5615db5d)" style="fill: #b2182b; fill-opacity: 0.3; stroke: #ffffff; stroke-width: 0.066785; stroke-linejoin: miter"/>
   </g>
   <g id="patch_62">
    <path d="M 75.04608 127.24 
L 75.65459 127.24 
L 75.65459 122.043463 
L 75.04608 122.043463 
z
" clip-path="url(#p9c5615db5d)" style="fill: #b2182b; fill-opacity: 0.3; stroke: #ffffff; stroke-width: 0.066785; stroke-linejoin: miter"/>
   </g>
   <g id="line2d_1">
    <path d="M 54.86277 127.237744 
L 55.629632 127.194664 
L 56.396495 126.78165 
L 57.163358 124.542523 
L 57.93022 116.496972 
L 58.697083 96.870603 
L 59.463945 69.313733 
L 60.230808 53.225149 
L 60.997671 60.286515 
L 61.764533 78.119796 
L 62.531396 90.765012 
L 63.298259 98.520404 
L 64.831984 110.416911 
L 65.598847 114.779456 
L 66.365709 117.545056 
L 67.132572 119.038516 
L 69.43316 122.018602 
L 70.966885 123.314185 
L 71.733748 123.761775 
L 73.267473 124.238281 
L 74.801199 124.580245 
L 96.273353 126.666114 
L 100.107666 126.806216 
L 108.543155 127.029934 
L 122.346683 127.196452 
L 134.616485 127.223135 
L 200.566674 127.239997 
L 207.468438 127.239981 
L 207.468438 127.239981 
" clip-path="url(#p9c5615db5d)" style="fill: none; stroke: #3b6ea8; stroke-width: 2; stroke-linecap: round"/>
   </g>
   <g id="line2d_2">
    <path d="M 54.568438 127.209267 
L 55.169367 127.032741 
L 55.529925 126.689062 
L 55.890483 125.940038 
L 56.251041 124.496473 
L 56.611599 122.009316 
L 56.972157 118.122889 
L 57.4529 110.243633 
L 58.05383 95.59435 
L 59.736434 48.416298 
L 60.096991 44.914633 
L 60.217177 44.561702 
L 60.337363 44.592196 
L 60.577735 45.693479 
L 60.938293 49.424698 
L 61.539223 58.980096 
L 62.380524 76.195044 
L 63.822756 107.155116 
L 64.423686 114.843178 
L 65.024615 119.63016 
L 65.625545 122.891125 
L 66.226475 124.986694 
L 66.587033 125.628698 
L 66.947591 125.87141 
L 67.428335 125.855242 
L 68.029264 125.845975 
L 68.990752 126.014588 
L 69.35131 125.799725 
L 69.95224 125.059576 
L 70.432983 124.591202 
L 70.673355 124.555404 
L 71.033913 124.801553 
L 71.634843 125.731238 
L 72.355959 126.739866 
L 72.836702 127.053023 
L 73.317446 127.132131 
L 73.918376 126.987932 
L 74.519306 126.591164 
L 75.480793 125.925589 
L 75.841351 125.929039 
L 76.322095 126.199037 
L 77.523955 127.052121 
L 78.24507 127.209128 
L 78.485442 127.225148 
L 78.485442 127.225148 
" clip-path="url(#p9c5615db5d)" style="fill: none; stroke: #b2182b; stroke-width: 2; stroke-linecap: round"/>
   </g>
   <g id="patch_63">
    <path d="M 46.923438 127.24 
L 46.923438 7.2 
" style="fill: none; stroke: #262626; stroke-width: 0.8; stroke-linejoin: miter; stroke-linecap: square"/>
   </g>
   <g id="patch_64">
    <path d="M 46.923438 127.24 
L 215.113438 127.24 
" style="fill: none; stroke: #262626; stroke-width: 0.8; stroke-linejoin: miter; stroke-linecap: square"/>
   </g>
   <g id="legend_1">
    <g id="patch_65">
     <path d="M 149.488438 20.12625 
L 165.488438 20.12625 
L 165.488438 14.52625 
L 149.488438 14.52625 
z
" style="fill: #3b6ea8; fill-opacity: 0.3; stroke: #ffffff; stroke-width: 0.541091; stroke-linejoin: miter"/>
    </g>
    <g id="text_14">
     <!-- Unlabeled -->
     <g style="fill: #262626" transform="translate(171.888438 20.12625) scale(0.08 -0.08)">
      <defs>
       <path id="ArialMT-55" d="M 3500 4581 
L 4106 4581 
L 4106 1934 
Q 4106 1244 3950 837 
Q 3794 431 3386 176 
Q 2978 -78 2316 -78 
Q 1672 -78 1262 144 
Q 853 366 678 786 
Q 503 1206 503 1934 
L 503 4581 
L 1109 4581 
L 1109 1938 
Q 1109 1341 1220 1058 
Q 1331 775 1601 622 
Q 1872 469 2263 469 
Q 2931 469 3215 772 
Q 3500 1075 3500 1938 
L 3500 4581 
z
" transform="scale(0.015625)"/>
       <path id="ArialMT-6c" d="M 409 0 
L 409 4581 
L 972 4581 
L 972 0 
L 409 0 
z
" transform="scale(0.015625)"/>
       <path id="ArialMT-64" d="M 2575 0 
L 2575 419 
Q 2259 -75 1647 -75 
Q 1250 -75 917 144 
Q 584 363 401 755 
Q 219 1147 219 1656 
Q 219 2153 384 2558 
Q 550 2963 881 3178 
Q 1213 3394 1622 3394 
Q 1922 3394 2156 3267 
Q 2391 3141 2538 2938 
L 2538 4581 
L 3097 4581 
L 3097 0 
L 2575 0 
z
M 797 1656 
Q 797 1019 1065 703 
Q 1334 388 1700 388 
Q 2069 388 2326 689 
Q 2584 991 2584 1609 
Q 2584 2291 2321 2609 
Q 2059 2928 1675 2928 
Q 1300 2928 1048 2622 
Q 797 2316 797 1656 
z
" transform="scale(0.015625)"/>
      </defs>
      <use xlink:href="#ArialMT-55"/>
      <use xlink:href="#ArialMT-6e" x="72.216797"/>
      <use xlink:href="#ArialMT-6c" x="127.832031"/>
      <use xlink:href="#ArialMT-61" x="150.048828"/>
      <use xlink:href="#ArialMT-62" x="205.664062"/>
      <use xlink:href="#ArialMT-65" x="261.279297"/>
      <use xlink:href="#ArialMT-6c" x="316.894531"/>
      <use xlink:href="#ArialMT-65" x="339.111328"/>
      <use xlink:href="#ArialMT-64" x="394.726562"/>
     </g>
    </g>
    <g id="patch_66">
     <path d="M 149.488438 31.4425 
L 165.488438 31.4425 
L 165.488438 25.8425 
L 149.488438 25.8425 
z
" style="fill: #b2182b; fill-opacity: 0.3; stroke: #ffffff; stroke-width: 0.066785; stroke-linejoin: miter"/>
    </g>
    <g id="text_15">
     <!-- Positive -->
     <g style="fill: #262626" transform="translate(171.888438 31.4425) scale(0.08 -0.08)">
      <defs>
       <path id="ArialMT-50" d="M 494 0 
L 494 4581 
L 2222 4581 
Q 2678 4581 2919 4538 
Q 3256 4481 3484 4323 
Q 3713 4166 3852 3881 
Q 3991 3597 3991 3256 
Q 3991 2672 3619 2267 
Q 3247 1863 2275 1863 
L 1100 1863 
L 1100 0 
L 494 0 
z
M 1100 2403 
L 2284 2403 
Q 2872 2403 3119 2622 
Q 3366 2841 3366 3238 
Q 3366 3525 3220 3729 
Q 3075 3934 2838 4000 
Q 2684 4041 2272 4041 
L 1100 4041 
L 1100 2403 
z
" transform="scale(0.015625)"/>
       <path id="ArialMT-76" d="M 1344 0 
L 81 3319 
L 675 3319 
L 1388 1331 
Q 1503 1009 1600 663 
Q 1675 925 1809 1294 
L 2547 3319 
L 3125 3319 
L 1869 0 
L 1344 0 
z
" transform="scale(0.015625)"/>
      </defs>
      <use xlink:href="#ArialMT-50"/>
      <use xlink:href="#ArialMT-6f" x="66.699219"/>
      <use xlink:href="#ArialMT-73" x="122.314453"/>
      <use xlink:href="#ArialMT-69" x="172.314453"/>
      <use xlink:href="#ArialMT-74" x="194.53125"/>
      <use xlink:href="#ArialMT-69" x="222.314453"/>
      <use xlink:href="#ArialMT-76" x="244.53125"/>
      <use xlink:href="#ArialMT-65" x="294.53125"/>
     </g>
    </g>
   </g>
  </g>
 </g>
 <defs>
  <clipPath id="p9c5615db5d">
   <rect x="46.923438" y="7.2" width="168.19" height="120.04"/>
  </clipPath>
 </defs>
</svg>
