<?xml version="1.0" encoding="utf-8" standalone="no"?>
<!DOCTYPE svg PUBLIC "-//W3C//DTD SVG 1.1//EN"
  "http://www.w3.org/Graphics/SVG/1.1/DTD/svg11.dtd">
<svg xmlns:xlink="http://www.w3.org/1999/xlink" width="222.3325pt" height="163.847812pt" viewBox="0 0 222.3325 163.847812" xmlns="http://www.w3.org/2000/svg" version="1.1">
 <metadata>
  <rdf:RDF xmlns:dc="http://purl.org/dc/elements/1.1/" xmlns:cc="http://creativecommons.org/ns#" xmlns:rdf="http://www.w3.org/1999/02/22-rdf-syntax-ns#">
   <cc:Work>
    <dc:type rdf:resource="http://purl.org/dc/dcmitype/StillImage"/>
    <dc:date>2026-06-23T10:55:28.920277</dc:date>
    <dc:format>image/svg+xml</dc:format>
    <dc:creator>
     <cc:Agent>
      <dc:title>Matplotlib v3.9.4, https://matplotlib.org/</dc:title>
     </cc:Agent>
    </dc:creator>
   </cc:Work>
  </rdf:RDF>
 </metadata>
 <defs>
  <style type="text/css">*{stroke-linejoin: round; stroke-linecap: butt}</style>
 </defs>
 <g id="figure_1">
  <g id="patch_1">
   <path d="M 0 163.847812 
L 222.3325 163.847812 
L 222.3325 0 
L 0 0 
L 0 163.847812 
z
" style="fill: none"/>
  </g>
  <g id="axes_1">
   <g id="patch_2">
    <path d="M 41.3625 127.24 
L 215.1325 127.24 
L 215.1325 7.2 
L 41.3625 7.2 
L 41.3625 127.24 
z
" style="fill: none"/>
   </g>
   <g id="matplotlib.axis_1">
    <g id="xtick_1">
     <g id="text_1">
      <!-- 0 -->
      <g style="fill: #262626" transform="translate(49.223549 141.397812) scale(0.1 -0.1)">
       <defs>
        <path id="ArialMT-30" d="M 266 2259 
Q 266 3072 433 3567 
Q 600 4063 929 4331 
Q 1259 4600 1759 4600 
Q 2128 4600 2406 4451 
Q 2684 4303 2865 4023 
Q 3047 3744 3150 3342 
Q 3253 2941 3253 2259 
Q 3253 1453 3087 958 
Q 2922 463 2592 192 
Q 2263 -78 1759 -78 
Q 1097 -78 719 397 
Q 266 969 266 2259 
z
M 844 2259 
Q 844 1131 1108 757 
Q 1372 384 1759 384 
Q 2147 384 2411 759 
Q 2675 1134 2675 2259 
Q 2675 3391 2411 3762 
Q 2147 4134 1753 4134 
Q 1366 4134 1134 3806 
Q 844 3388 844 2259 
z
" transform="scale(0.015625)"/>
       </defs>
       <use xlink:href="#ArialMT-30"/>
      </g>
     </g>
    </g>
    <g id="xtick_2">
     <g id="text_2">
      <!-- 2 -->
      <g style="fill: #262626" transform="translate(96.875725 141.397812) scale(0.1 -0.1)">
       <defs>
        <path id="ArialMT-32" d="M 3222 541 
L 3222 0 
L 194 0 
Q 188 203 259 391 
Q 375 700 629 1000 
Q 884 1300 1366 1694 
Q 2113 2306 2375 2664 
Q 2638 3022 2638 3341 
Q 2638 3675 2398 3904 
Q 2159 4134 1775 4134 
Q 1369 4134 1125 3890 
Q 881 3647 878 3216 
L 300 3275 
Q 359 3922 746 4261 
Q 1134 4600 1788 4600 
Q 2447 4600 2831 4234 
Q 3216 3869 3216 3328 
Q 3216 3053 3103 2787 
Q 2991 2522 2730 2228 
Q 2469 1934 1863 1422 
Q 1356 997 1212 845 
Q 1069 694 975 541 
L 3222 541 
z
" transform="scale(0.015625)"/>
       </defs>
       <use xlink:href="#ArialMT-32"/>
      </g>
     </g>
    </g>
    <g id="xtick_3">
     <g id="text_3">
      <!-- 4 -->
      <g style="fill: #262626" transform="translate(144.527902 141.397812) scale(0.1 -0.1)">
       <defs>
        <path id="ArialMT-34" d="M 2069 0 
L 2069 1097 
L 81 1097 
L 81 1613 
L 2172 4581 
L 2631 4581 
L 2631 1613 
L 3250 1613 
L 3250 1097 
L 2631 1097 
L 2631 0 
L 2069 0 
z
M 2069 1613 
L 2069 3678 
L 634 1613 
L 2069 1613 
z
" transform="scale(0.015625)"/>
       </defs>
       <use xlink:href="#ArialMT-34"/>
      </g>
     </g>
    </g>
    <g id="xtick_4">
     <g id="text_4">
      <!-- 6 -->
      <g style="fill: #262626" transform="translate(192.180078 141.397812) scale(0.1 -0.1)">
       <defs>
        <path id="ArialMT-36" d="M 3184 3459 
L 2625 3416 
Q 2550 3747 2413 3897 
Q 2184 4138 1850 4138 
Q 1581 4138 1378 3988 
Q 1113 3794 959 3422 
Q 806 3050 800 2363 
Q 1003 2672 1297 2822 
Q 1591 2972 1913 2972 
Q 2475 2972 2870 2558 
Q 3266 2144 3266 1488 
Q 3266 1056 3080 686 
Q 2894 316 2569 119 
Q 2244 -78 1831 -78 
Q 1128 -78 684 439 
Q 241 956 241 2144 
Q 241 3472 731 4075 
Q 1159 4600 1884 4600 
Q 2425 4600 2770 4297 
Q 3116 3994 3184 3459 
z
M 888 1484 
Q 888 1194 1011 928 
Q 1134 663 1356 523 
Q 1578 384 1822 384 
Q 2178 384 2434 671 
Q 2691 959 2691 1453 
Q 2691 1928 2437 2201 
Q 2184 2475 1800 2475 
Q 1419 2475 1153 2201 
Q 888 1928 888 1484 
z
" transform="scale(0.015625)"/>
       </defs>
       <use xlink:href="#ArialMT-36"/>
      </g>
     </g>
    </g>
    <g id="text_5">
     <!-- Average degree -->
     <g style="fill: #262626" transform="translate(92.756875 154.543125) scale(0.1 -0.1)">
      <defs>
       <path id="ArialMT-41" d="M -9 0 
L 1750 4581 
L 2403 4581 
L 4278 0 
L 3588 0 
L 3053 1388 
L 1138 1388 
L 634 0 
L -9 0 
z
M 1313 1881 
L 2866 1881 
L 2388 3150 
Q 2169 3728 2063 4100 
Q 1975 3659 1816 3225 
L 1313 1881 
z
" transform="scale(0.015625)"/>
       <path id="ArialMT-76" d="M 1344 0 
L 81 3319 
L 675 3319 
L 1388 1331 
Q 1503 1009 1600 663 
Q 1675 925 1809 1294 
L 2547 3319 
L 3125 3319 
L 1869 0 
L 1344 0 
z
" transform="scale(0.015625)"/>
       <path id="ArialMT-65" d="M 2694 1069 
L 3275 997 
Q 3138 488 2766 206 
Q 2394 -75 1816 -75 
Q 1088 -75 661 373 
Q 234 822 234 1631 
Q 234 2469 665 2931 
Q 1097 3394 1784 3394 
Q 2450 3394 2872 2941 
Q 3294 2488 3294 1666 
Q 3294 1616 3291 1516 
L 816 1516 
Q 847 969 1125 678 
Q 1403 388 1819 388 
Q 2128 388 2347 550 
Q 2566 713 2694 1069 
z
M 847 1978 
L 2700 1978 
Q 2663 2397 2488 2606 
Q 2219 2931 1791 2931 
Q 1403 2931 1139 2672 
Q 875 2413 847 1978 
z
" transform="scale(0.015625)"/>
       <path id="ArialMT-72" d="M 416 0 
L 416 3319 
L 922 3319 
L 922 2816 
Q 1116 3169 1280 3281 
Q 1444 3394 1641 3394 
Q 1925 3394 2219 3213 
L 2025 2691 
Q 1819 2813 1613 2813 
Q 1428 2813 1281 2702 
Q 1134 2591 1072 2394 
Q 978 2094 978 1738 
L 978 0 
L 416 0 
z
" transform="scale(0.015625)"/>
       <path id="ArialMT-61" d="M 2588 409 
Q 2275 144 1986 34 
Q 1697 -75 1366 -75 
Q 819 -75 525 192 
Q 231 459 231 875 
Q 231 1119 342 1320 
Q 453 1522 633 1644 
Q 813 1766 1038 1828 
Q 1203 1872 1538 1913 
Q 2219 1994 2541 2106 
Q 2544 2222 2544 2253 
Q 2544 2597 2384 2738 
Q 2169 2928 1744 2928 
Q 1347 2928 1158 2789 
Q 969 2650 878 2297 
L 328 2372 
Q 403 2725 575 2942 
Q 747 3159 1072 3276 
Q 1397 3394 1825 3394 
Q 2250 3394 2515 3294 
Q 2781 3194 2906 3042 
Q 3031 2891 3081 2659 
Q 3109 2516 3109 2141 
L 3109 1391 
Q 3109 606 3145 398 
Q 3181 191 3288 0 
L 2700 0 
Q 2613 175 2588 409 
z
M 2541 1666 
Q 2234 1541 1622 1453 
Q 1275 1403 1131 1340 
Q 988 1278 909 1158 
Q 831 1038 831 891 
Q 831 666 1001 516 
Q 1172 366 1500 366 
Q 1825 366 2078 508 
Q 2331 650 2450 897 
Q 2541 1088 2541 1459 
L 2541 1666 
z
" transform="scale(0.015625)"/>
       <path id="ArialMT-67" d="M 319 -275 
L 866 -356 
Q 900 -609 1056 -725 
Q 1266 -881 1628 -881 
Q 2019 -881 2231 -725 
Q 2444 -569 2519 -288 
Q 2563 -116 2559 434 
Q 2191 0 1641 0 
Q 956 0 581 494 
Q 206 988 206 1678 
Q 206 2153 378 2554 
Q 550 2956 876 3175 
Q 1203 3394 1644 3394 
Q 2231 3394 2613 2919 
L 2613 3319 
L 3131 3319 
L 3131 450 
Q 3131 -325 2973 -648 
Q 2816 -972 2473 -1159 
Q 2131 -1347 1631 -1347 
Q 1038 -1347 672 -1080 
Q 306 -813 319 -275 
z
M 784 1719 
Q 784 1066 1043 766 
Q 1303 466 1694 466 
Q 2081 466 2343 764 
Q 2606 1063 2606 1700 
Q 2606 2309 2336 2618 
Q 2066 2928 1684 2928 
Q 1309 2928 1046 2623 
Q 784 2319 784 1719 
z
" transform="scale(0.015625)"/>
       <path id="ArialMT-20" transform="scale(0.015625)"/>
       <path id="ArialMT-64" d="M 2575 0 
L 2575 419 
Q 2259 -75 1647 -75 
Q 1250 -75 917 144 
Q 584 363 401 755 
Q 219 1147 219 1656 
Q 219 2153 384 2558 
Q 550 2963 881 3178 
Q 1213 3394 1622 3394 
Q 1922 3394 2156 3267 
Q 2391 3141 2538 2938 
L 2538 4581 
L 3097 4581 
L 3097 0 
L 2575 0 
z
M 797 1656 
Q 797 1019 1065 703 
Q 1334 388 1700 388 
Q 2069 388 2326 689 
Q 2584 991 2584 1609 
Q 2584 2291 2321 2609 
Q 2059 2928 1675 2928 
Q 1300 2928 1048 2622 
Q 797 2316 797 1656 
z
" transform="scale(0.015625)"/>
      </defs>
      <use xlink:href="#ArialMT-41"/>
      <use xlink:href="#ArialMT-76" x="64.949219"/>
      <use xlink:href="#ArialMT-65" x="114.949219"/>
      <use xlink:href="#ArialMT-72" x="170.564453"/>
      <use xlink:href="#ArialMT-61" x="203.865234"/>
      <use xlink:href="#ArialMT-67" x="259.480469"/>
      <use xlink:href="#ArialMT-65" x="315.095703"/>
      <use xlink:href="#ArialMT-20" x="370.710938"/>
      <use xlink:href="#ArialMT-64" x="398.494141"/>
      <use xlink:href="#ArialMT-65" x="454.109375"/>
      <use xlink:href="#ArialMT-67" x="509.724609"/>
      <use xlink:href="#ArialMT-72" x="565.339844"/>
      <use xlink:href="#ArialMT-65" x="598.640625"/>
      <use xlink:href="#ArialMT-65" x="654.255859"/>
     </g>
    </g>
   </g>
   <g id="matplotlib.axis_2">
    <g id="ytick_1">
     <g id="text_6">
      <!-- 0.0 -->
      <g style="fill: #262626" transform="translate(20.4625 130.818906) scale(0.1 -0.1)">
       <defs>
        <path id="ArialMT-2e" d="M 581 0 
L 581 641 
L 1222 641 
L 1222 0 
L 581 0 
z
" transform="scale(0.015625)"/>
       </defs>
       <use xlink:href="#ArialMT-30"/>
       <use xlink:href="#ArialMT-2e" x="55.615234"/>
       <use xlink:href="#ArialMT-30" x="83.398438"/>
      </g>
     </g>
    </g>
    <g id="ytick_2">
     <g id="text_7">
      <!-- 0.5 -->
      <g style="fill: #262626" transform="translate(20.4625 105.609073) scale(0.1 -0.1)">
       <defs>
        <path id="ArialMT-35" d="M 266 1200 
L 856 1250 
Q 922 819 1161 601 
Q 1400 384 1738 384 
Q 2144 384 2425 690 
Q 2706 997 2706 1503 
Q 2706 1984 2436 2262 
Q 2166 2541 1728 2541 
Q 1456 2541 1237 2417 
Q 1019 2294 894 2097 
L 366 2166 
L 809 4519 
L 3088 4519 
L 3088 3981 
L 1259 3981 
L 1013 2750 
Q 1425 3038 1878 3038 
Q 2478 3038 2890 2622 
Q 3303 2206 3303 1553 
Q 3303 931 2941 478 
Q 2500 -78 1738 -78 
Q 1113 -78 717 272 
Q 322 622 266 1200 
z
" transform="scale(0.015625)"/>
       </defs>
       <use xlink:href="#ArialMT-30"/>
       <use xlink:href="#ArialMT-2e" x="55.615234"/>
       <use xlink:href="#ArialMT-35" x="83.398438"/>
      </g>
     </g>
    </g>
    <g id="ytick_3">
     <g id="text_8">
      <!-- 1.0 -->
      <g style="fill: #262626" transform="translate(20.4625 80.39924) scale(0.1 -0.1)">
       <defs>
        <path id="ArialMT-31" d="M 2384 0 
L 1822 0 
L 1822 3584 
Q 1619 3391 1289 3197 
Q 959 3003 697 2906 
L 697 3450 
Q 1169 3672 1522 3987 
Q 1875 4303 2022 4600 
L 2384 4600 
L 2384 0 
z
" transform="scale(0.015625)"/>
       </defs>
       <use xlink:href="#ArialMT-31"/>
       <use xlink:href="#ArialMT-2e" x="55.615234"/>
       <use xlink:href="#ArialMT-30" x="83.398438"/>
      </g>
     </g>
    </g>
    <g id="ytick_4">
     <g id="text_9">
      <!-- 1.5 -->
      <g style="fill: #262626" transform="translate(20.4625 55.189407) scale(0.1 -0.1)">
       <use xlink:href="#ArialMT-31"/>
       <use xlink:href="#ArialMT-2e" x="55.615234"/>
       <use xlink:href="#ArialMT-35" x="83.398438"/>
      </g>
     </g>
    </g>
    <g id="ytick_5">
     <g id="text_10">
      <!-- 2.0 -->
      <g style="fill: #262626" transform="translate(20.4625 29.979574) scale(0.1 -0.1)">
       <use xlink:href="#ArialMT-32"/>
       <use xlink:href="#ArialMT-2e" x="55.615234"/>
       <use xlink:href="#ArialMT-30" x="83.398438"/>
      </g>
     </g>
    </g>
    <g id="text_11">
     <!-- Density -->
     <g style="fill: #262626" transform="translate(14.357813 83.891875) rotate(-90) scale(0.1 -0.1)">
      <defs>
       <path id="ArialMT-44" d="M 494 0 
L 494 4581 
L 2072 4581 
Q 2606 4581 2888 4516 
Q 3281 4425 3559 4188 
Q 3922 3881 4101 3404 
Q 4281 2928 4281 2316 
Q 4281 1794 4159 1391 
Q 4038 988 3847 723 
Q 3656 459 3429 307 
Q 3203 156 2883 78 
Q 2563 0 2147 0 
L 494 0 
z
M 1100 541 
L 2078 541 
Q 2531 541 2789 625 
Q 3047 709 3200 863 
Q 3416 1078 3536 1442 
Q 3656 1806 3656 2325 
Q 3656 3044 3420 3430 
Q 3184 3816 2847 3947 
Q 2603 4041 2063 4041 
L 1100 4041 
L 1100 541 
z
" transform="scale(0.015625)"/>
       <path id="ArialMT-6e" d="M 422 0 
L 422 3319 
L 928 3319 
L 928 2847 
Q 1294 3394 1984 3394 
Q 2284 3394 2536 3286 
Q 2788 3178 2913 3003 
Q 3038 2828 3088 2588 
Q 3119 2431 3119 2041 
L 3119 0 
L 2556 0 
L 2556 2019 
Q 2556 2363 2490 2533 
Q 2425 2703 2258 2804 
Q 2091 2906 1866 2906 
Q 1506 2906 1245 2678 
Q 984 2450 984 1813 
L 984 0 
L 422 0 
z
" transform="scale(0.015625)"/>
       <path id="ArialMT-73" d="M 197 991 
L 753 1078 
Q 800 744 1014 566 
Q 1228 388 1613 388 
Q 2000 388 2187 545 
Q 2375 703 2375 916 
Q 2375 1106 2209 1216 
Q 2094 1291 1634 1406 
Q 1016 1563 777 1677 
Q 538 1791 414 1992 
Q 291 2194 291 2438 
Q 291 2659 392 2848 
Q 494 3038 669 3163 
Q 800 3259 1026 3326 
Q 1253 3394 1513 3394 
Q 1903 3394 2198 3281 
Q 2494 3169 2634 2976 
Q 2775 2784 2828 2463 
L 2278 2388 
Q 2241 2644 2061 2787 
Q 1881 2931 1553 2931 
Q 1166 2931 1000 2803 
Q 834 2675 834 2503 
Q 834 2394 903 2306 
Q 972 2216 1119 2156 
Q 1203 2125 1616 2013 
Q 2213 1853 2448 1751 
Q 2684 1650 2818 1456 
Q 2953 1263 2953 975 
Q 2953 694 2789 445 
Q 2625 197 2315 61 
Q 2006 -75 1616 -75 
Q 969 -75 630 194 
Q 291 463 197 991 
z
" transform="scale(0.015625)"/>
       <path id="ArialMT-69" d="M 425 3934 
L 425 4581 
L 988 4581 
L 988 3934 
L 425 3934 
z
M 425 0 
L 425 3319 
L 988 3319 
L 988 0 
L 425 0 
z
" transform="scale(0.015625)"/>
       <path id="ArialMT-74" d="M 1650 503 
L 1731 6 
Q 1494 -44 1306 -44 
Q 1000 -44 831 53 
Q 663 150 594 308 
Q 525 466 525 972 
L 525 2881 
L 113 2881 
L 113 3319 
L 525 3319 
L 525 4141 
L 1084 4478 
L 1084 3319 
L 1650 3319 
L 1650 2881 
L 1084 2881 
L 1084 941 
Q 1084 700 1114 631 
Q 1144 563 1211 522 
Q 1278 481 1403 481 
Q 1497 481 1650 503 
z
" transform="scale(0.015625)"/>
       <path id="ArialMT-79" d="M 397 -1278 
L 334 -750 
Q 519 -800 656 -800 
Q 844 -800 956 -737 
Q 1069 -675 1141 -563 
Q 1194 -478 1313 -144 
Q 1328 -97 1363 -6 
L 103 3319 
L 709 3319 
L 1400 1397 
Q 1534 1031 1641 628 
Q 1738 1016 1872 1384 
L 2581 3319 
L 3144 3319 
L 1881 -56 
Q 1678 -603 1566 -809 
Q 1416 -1088 1222 -1217 
Q 1028 -1347 759 -1347 
Q 597 -1347 397 -1278 
z
" transform="scale(0.015625)"/>
      </defs>
      <use xlink:href="#ArialMT-44"/>
      <use xlink:href="#ArialMT-65" x="72.216797"/>
      <use xlink:href="#ArialMT-6e" x="127.832031"/>
      <use xlink:href="#ArialMT-73" x="183.447266"/>
      <use xlink:href="#ArialMT-69" x="233.447266"/>
      <use xlink:href="#ArialMT-74" x="255.664062"/>
      <use xlink:href="#ArialMT-79" x="283.447266"/>
     </g>
    </g>
   </g>
   <g id="patch_3">
    <path d="M 52.004017 127.24 
L 57.086916 127.24 
L 57.086916 126.932456 
L 52.004017 126.932456 
z
" clip-path="url(#p1ccfa0ca30)" style="fill: #3b6ea8; fill-opacity: 0.3; stroke: #ffffff; stroke-width: 0.541091; stroke-linejoin: miter"/>
   </g>
   <g id="patch_4">
    <path d="M 57.086916 127.24 
L 62.169815 127.24 
L 62.169815 127.2308 
L 57.086916 127.2308 
z
" clip-path="url(#p1ccfa0ca30)" style="fill: #3b6ea8; fill-opacity: 0.3; stroke: #ffffff; stroke-width: 0.541091; stroke-linejoin: miter"/>
   </g>
   <g id="patch_5">
    <path d="M 62.169815 127.24 
L 67.252714 127.24 
L 67.252714 127.2216 
L 62.169815 127.2216 
z
" clip-path="url(#p1ccfa0ca30)" style="fill: #3b6ea8; fill-opacity: 0.3; stroke: #ffffff; stroke-width: 0.541091; stroke-linejoin: miter"/>
   </g>
   <g id="patch_6">
    <path d="M 67.252714 127.24 
L 72.335613 127.24 
L 72.335613 127.172971 
L 67.252714 127.172971 
z
" clip-path="url(#p1ccfa0ca30)" style="fill: #3b6ea8; fill-opacity: 0.3; stroke: #ffffff; stroke-width: 0.541091; stroke-linejoin: miter"/>
   </g>
   <g id="patch_7">
    <path d="M 72.335613 127.24 
L 77.418512 127.24 
L 77.418512 127.150628 
L 72.335613 127.150628 
z
" clip-path="url(#p1ccfa0ca30)" style="fill: #3b6ea8; fill-opacity: 0.3; stroke: #ffffff; stroke-width: 0.541091; stroke-linejoin: miter"/>
   </g>
   <g id="patch_8">
    <path d="M 77.418512 127.24 
L 82.50141 127.24 
L 82.50141 127.095428 
L 77.418512 127.095428 
z
" clip-path="url(#p1ccfa0ca30)" style="fill: #3b6ea8; fill-opacity: 0.3; stroke: #ffffff; stroke-width: 0.541091; stroke-linejoin: miter"/>
   </g>
   <g id="patch_9">
    <path d="M 82.50141 127.24 
L 87.584309 127.24 
L 87.584309 127.016571 
L 82.50141 127.016571 
z
" clip-path="url(#p1ccfa0ca30)" style="fill: #3b6ea8; fill-opacity: 0.3; stroke: #ffffff; stroke-width: 0.541091; stroke-linejoin: miter"/>
   </g>
   <g id="patch_10">
    <path d="M 87.584309 127.24 
L 92.667208 127.24 
L 92.667208 126.956113 
L 87.584309 126.956113 
z
" clip-path="url(#p1ccfa0ca30)" style="fill: #3b6ea8; fill-opacity: 0.3; stroke: #ffffff; stroke-width: 0.541091; stroke-linejoin: miter"/>
   </g>
   <g id="patch_11">
    <path d="M 92.667208 127.24 
L 97.750107 127.24 
L 97.750107 126.695884 
L 92.667208 126.695884 
z
" clip-path="url(#p1ccfa0ca30)" style="fill: #3b6ea8; fill-opacity: 0.3; stroke: #ffffff; stroke-width: 0.541091; stroke-linejoin: miter"/>
   </g>
   <g id="patch_12">
    <path d="M 97.750107 127.24 
L 102.833006 127.24 
L 102.833006 126.325254 
L 97.750107 126.325254 
z
" clip-path="url(#p1ccfa0ca30)" style="fill: #3b6ea8; fill-opacity: 0.3; stroke: #ffffff; stroke-width: 0.541091; stroke-linejoin: miter"/>
   </g>
   <g id="patch_13">
    <path d="M 102.833006 127.24 
L 107.915905 127.24 
L 107.915905 126.80497 
L 102.833006 126.80497 
z
" clip-path="url(#p1ccfa0ca30)" style="fill: #3b6ea8; fill-opacity: 0.3; stroke: #ffffff; stroke-width: 0.541091; stroke-linejoin: miter"/>
   </g>
   <g id="patch_14">
    <path d="M 107.915905 127.24 
L 112.998803 127.24 
L 112.998803 126.279254 
L 107.915905 126.279254 
z
" clip-path="url(#p1ccfa0ca30)" style="fill: #3b6ea8; fill-opacity: 0.3; stroke: #ffffff; stroke-width: 0.541091; stroke-linejoin: miter"/>
   </g>
   <g id="patch_15">
    <path d="M 112.998803 127.24 
L 118.081702 127.24 
L 118.081702 126.318683 
L 112.998803 126.318683 
z
" clip-path="url(#p1ccfa0ca30)" style="fill: #3b6ea8; fill-opacity: 0.3; stroke: #ffffff; stroke-width: 0.541091; stroke-linejoin: miter"/>
   </g>
   <g id="patch_16">
    <path d="M 118.081702 127.24 
L 123.164601 127.24 
L 123.164601 126.295026 
L 118.081702 126.295026 
z
" clip-path="url(#p1ccfa0ca30)" style="fill: #3b6ea8; fill-opacity: 0.3; stroke: #ffffff; stroke-width: 0.541091; stroke-linejoin: miter"/>
   </g>
   <g id="patch_17">
    <path d="M 123.164601 127.24 
L 128.2475 127.24 
L 128.2475 125.725938 
L 123.164601 125.725938 
z
" clip-path="url(#p1ccfa0ca30)" style="fill: #3b6ea8; fill-opacity: 0.3; stroke: #ffffff; stroke-width: 0.541091; stroke-linejoin: miter"/>
   </g>
   <g id="patch_18">
    <path d="M 128.2475 127.24 
L 133.330399 127.24 
L 133.330399 124.642963 
L 128.2475 124.642963 
z
" clip-path="url(#p1ccfa0ca30)" style="fill: #3b6ea8; fill-opacity: 0.3; stroke: #ffffff; stroke-width: 0.541091; stroke-linejoin: miter"/>
   </g>
   <g id="patch_19">
    <path d="M 133.330399 127.24 
L 138.413298 127.24 
L 138.413298 122.528271 
L 133.330399 122.528271 
z
" clip-path="url(#p1ccfa0ca30)" style="fill: #3b6ea8; fill-opacity: 0.3; stroke: #ffffff; stroke-width: 0.541091; stroke-linejoin: miter"/>
   </g>
   <g id="patch_20">
    <path d="M 138.413298 127.24 
L 143.496197 127.24 
L 143.496197 116.634995 
L 138.413298 116.634995 
z
" clip-path="url(#p1ccfa0ca30)" style="fill: #3b6ea8; fill-opacity: 0.3; stroke: #ffffff; stroke-width: 0.541091; stroke-linejoin: miter"/>
   </g>
   <g id="patch_21">
    <path d="M 143.496197 127.24 
L 148.579095 127.24 
L 148.579095 77.222069 
L 143.496197 77.222069 
z
" clip-path="url(#p1ccfa0ca30)" style="fill: #3b6ea8; fill-opacity: 0.3; stroke: #ffffff; stroke-width: 0.541091; stroke-linejoin: miter"/>
   </g>
   <g id="patch_22">
    <path d="M 148.579095 127.24 
L 153.661994 127.24 
L 153.661994 54.400739 
L 148.579095 54.400739 
z
" clip-path="url(#p1ccfa0ca30)" style="fill: #3b6ea8; fill-opacity: 0.3; stroke: #ffffff; stroke-width: 0.541091; stroke-linejoin: miter"/>
   </g>
   <g id="patch_23">
    <path d="M 153.661994 127.24 
L 158.744893 127.24 
L 158.744893 62.118249 
L 153.661994 62.118249 
z
" clip-path="url(#p1ccfa0ca30)" style="fill: #3b6ea8; fill-opacity: 0.3; stroke: #ffffff; stroke-width: 0.541091; stroke-linejoin: miter"/>
   </g>
   <g id="patch_24">
    <path d="M 158.744893 127.24 
L 163.827792 127.24 
L 163.827792 106.671363 
L 158.744893 106.671363 
z
" clip-path="url(#p1ccfa0ca30)" style="fill: #3b6ea8; fill-opacity: 0.3; stroke: #ffffff; stroke-width: 0.541091; stroke-linejoin: miter"/>
   </g>
   <g id="patch_25">
    <path d="M 163.827792 127.24 
L 168.910691 127.24 
L 168.910691 124.845364 
L 163.827792 124.845364 
z
" clip-path="url(#p1ccfa0ca30)" style="fill: #3b6ea8; fill-opacity: 0.3; stroke: #ffffff; stroke-width: 0.541091; stroke-linejoin: miter"/>
   </g>
   <g id="patch_26">
    <path d="M 168.910691 127.24 
L 173.99359 127.24 
L 173.99359 127.148 
L 168.910691 127.148 
z
" clip-path="url(#p1ccfa0ca30)" style="fill: #3b6ea8; fill-opacity: 0.3; stroke: #ffffff; stroke-width: 0.541091; stroke-linejoin: miter"/>
   </g>
   <g id="patch_27">
    <path d="M 173.99359 127.24 
L 179.076488 127.24 
L 179.076488 127.229486 
L 173.99359 127.229486 
z
" clip-path="url(#p1ccfa0ca30)" style="fill: #3b6ea8; fill-opacity: 0.3; stroke: #ffffff; stroke-width: 0.541091; stroke-linejoin: miter"/>
   </g>
   <g id="patch_28">
    <path d="M 179.076488 127.24 
L 184.159387 127.24 
L 184.159387 127.238686 
L 179.076488 127.238686 
z
" clip-path="url(#p1ccfa0ca30)" style="fill: #3b6ea8; fill-opacity: 0.3; stroke: #ffffff; stroke-width: 0.541091; stroke-linejoin: miter"/>
   </g>
   <g id="patch_29">
    <path d="M 184.159387 127.24 
L 189.242286 127.24 
L 189.242286 127.238686 
L 184.159387 127.238686 
z
" clip-path="url(#p1ccfa0ca30)" style="fill: #3b6ea8; fill-opacity: 0.3; stroke: #ffffff; stroke-width: 0.541091; stroke-linejoin: miter"/>
   </g>
   <g id="patch_30">
    <path d="M 189.242286 127.24 
L 194.325185 127.24 
L 194.325185 127.24 
L 189.242286 127.24 
z
" clip-path="url(#p1ccfa0ca30)" style="fill: #3b6ea8; fill-opacity: 0.3; stroke: #ffffff; stroke-width: 0.541091; stroke-linejoin: miter"/>
   </g>
   <g id="patch_31">
    <path d="M 194.325185 127.24 
L 199.408084 127.24 
L 199.408084 127.24 
L 194.325185 127.24 
z
" clip-path="url(#p1ccfa0ca30)" style="fill: #3b6ea8; fill-opacity: 0.3; stroke: #ffffff; stroke-width: 0.541091; stroke-linejoin: miter"/>
   </g>
   <g id="patch_32">
    <path d="M 199.408084 127.24 
L 204.490983 127.24 
L 204.490983 127.237371 
L 199.408084 127.237371 
z
" clip-path="url(#p1ccfa0ca30)" style="fill: #3b6ea8; fill-opacity: 0.3; stroke: #ffffff; stroke-width: 0.541091; stroke-linejoin: miter"/>
   </g>
   <g id="patch_33">
    <path d="M 92.84874 127.24 
L 95.299424 127.24 
L 95.299424 123.349594 
L 92.84874 123.349594 
z
" clip-path="url(#p1ccfa0ca30)" style="fill: #b2182b; fill-opacity: 0.3; stroke: #ffffff; stroke-width: 0.260883; stroke-linejoin: miter"/>
   </g>
   <g id="patch_34">
    <path d="M 95.299424 127.24 
L 97.750107 127.24 
L 97.750107 127.24 
L 95.299424 127.24 
z
" clip-path="url(#p1ccfa0ca30)" style="fill: #b2182b; fill-opacity: 0.3; stroke: #ffffff; stroke-width: 0.260883; stroke-linejoin: miter"/>
   </g>
   <g id="patch_35">
    <path d="M 97.750107 127.24 
L 100.20079 127.24 
L 100.20079 119.459187 
L 97.750107 119.459187 
z
" clip-path="url(#p1ccfa0ca30)" style="fill: #b2182b; fill-opacity: 0.3; stroke: #ffffff; stroke-width: 0.260883; stroke-linejoin: miter"/>
   </g>
   <g id="patch_36">
    <path d="M 100.20079 127.24 
L 102.651474 127.24 
L 102.651474 127.24 
L 100.20079 127.24 
z
" clip-path="url(#p1ccfa0ca30)" style="fill: #b2182b; fill-opacity: 0.3; stroke: #ffffff; stroke-width: 0.260883; stroke-linejoin: miter"/>
   </g>
   <g id="patch_37">
    <path d="M 102.651474 127.24 
L 105.102157 127.24 
L 105.102157 127.24 
L 102.651474 127.24 
z
" clip-path="url(#p1ccfa0ca30)" style="fill: #b2182b; fill-opacity: 0.3; stroke: #ffffff; stroke-width: 0.260883; stroke-linejoin: miter"/>
   </g>
   <g id="patch_38">
    <path d="M 105.102157 127.24 
L 107.55284 127.24 
L 107.55284 127.24 
L 105.102157 127.24 
z
" clip-path="url(#p1ccfa0ca30)" style="fill: #b2182b; fill-opacity: 0.3; stroke: #ffffff; stroke-width: 0.260883; stroke-linejoin: miter"/>
   </g>
   <g id="patch_39">
    <path d="M 107.55284 127.24 
L 110.003524 127.24 
L 110.003524 115.568781 
L 107.55284 115.568781 
z
" clip-path="url(#p1ccfa0ca30)" style="fill: #b2182b; fill-opacity: 0.3; stroke: #ffffff; stroke-width: 0.260883; stroke-linejoin: miter"/>
   </g>
   <g id="patch_40">
    <path d="M 110.003524 127.24 
L 112.454207 127.24 
L 112.454207 127.24 
L 110.003524 127.24 
z
" clip-path="url(#p1ccfa0ca30)" style="fill: #b2182b; fill-opacity: 0.3; stroke: #ffffff; stroke-width: 0.260883; stroke-linejoin: miter"/>
   </g>
   <g id="patch_41">
    <path d="M 112.454207 127.24 
L 114.904891 127.24 
L 114.904891 127.24 
L 112.454207 127.24 
z
" clip-path="url(#p1ccfa0ca30)" style="fill: #b2182b; fill-opacity: 0.3; stroke: #ffffff; stroke-width: 0.260883; stroke-linejoin: miter"/>
   </g>
   <g id="patch_42">
    <path d="M 114.904891 127.24 
L 117.355574 127.24 
L 117.355574 127.24 
L 114.904891 127.24 
z
" clip-path="url(#p1ccfa0ca30)" style="fill: #b2182b; fill-opacity: 0.3; stroke: #ffffff; stroke-width: 0.260883; stroke-linejoin: miter"/>
   </g>
   <g id="patch_43">
    <path d="M 117.355574 127.24 
L 119.806257 127.24 
L 119.806257 127.24 
L 117.355574 127.24 
z
" clip-path="url(#p1ccfa0ca30)" style="fill: #b2182b; fill-opacity: 0.3; stroke: #ffffff; stroke-width: 0.260883; stroke-linejoin: miter"/>
   </g>
   <g id="patch_44">
    <path d="M 119.806257 127.24 
L 122.256941 127.24 
L 122.256941 127.24 
L 119.806257 127.24 
z
" clip-path="url(#p1ccfa0ca30)" style="fill: #b2182b; fill-opacity: 0.3; stroke: #ffffff; stroke-width: 0.260883; stroke-linejoin: miter"/>
   </g>
   <g id="patch_45">
    <path d="M 122.256941 127.24 
L 124.707624 127.24 
L 124.707624 123.349594 
L 122.256941 123.349594 
z
" clip-path="url(#p1ccfa0ca30)" style="fill: #b2182b; fill-opacity: 0.3; stroke: #ffffff; stroke-width: 0.260883; stroke-linejoin: miter"/>
   </g>
   <g id="patch_46">
    <path d="M 124.707624 127.24 
L 127.158307 127.24 
L 127.158307 115.568781 
L 124.707624 115.568781 
z
" clip-path="url(#p1ccfa0ca30)" style="fill: #b2182b; fill-opacity: 0.3; stroke: #ffffff; stroke-width: 0.260883; stroke-linejoin: miter"/>
   </g>
   <g id="patch_47">
    <path d="M 127.158307 127.24 
L 129.608991 127.24 
L 129.608991 127.24 
L 127.158307 127.24 
z
" clip-path="url(#p1ccfa0ca30)" style="fill: #b2182b; fill-opacity: 0.3; stroke: #ffffff; stroke-width: 0.260883; stroke-linejoin: miter"/>
   </g>
   <g id="patch_48">
    <path d="M 129.608991 127.24 
L 132.059674 127.24 
L 132.059674 127.24 
L 129.608991 127.24 
z
" clip-path="url(#p1ccfa0ca30)" style="fill: #b2182b; fill-opacity: 0.3; stroke: #ffffff; stroke-width: 0.260883; stroke-linejoin: miter"/>
   </g>
   <g id="patch_49">
    <path d="M 132.059674 127.24 
L 134.510357 127.24 
L 134.510357 119.459187 
L 132.059674 119.459187 
z
" clip-path="url(#p1ccfa0ca30)" style="fill: #b2182b; fill-opacity: 0.3; stroke: #ffffff; stroke-width: 0.260883; stroke-linejoin: miter"/>
   </g>
   <g id="patch_50">
    <path d="M 134.510357 127.24 
L 136.961041 127.24 
L 136.961041 127.24 
L 134.510357 127.24 
z
" clip-path="url(#p1ccfa0ca30)" style="fill: #b2182b; fill-opacity: 0.3; stroke: #ffffff; stroke-width: 0.260883; stroke-linejoin: miter"/>
   </g>
   <g id="patch_51">
    <path d="M 136.961041 127.24 
L 139.411724 127.24 
L 139.411724 88.335937 
L 136.961041 88.335937 
z
" clip-path="url(#p1ccfa0ca30)" style="fill: #b2182b; fill-opacity: 0.3; stroke: #ffffff; stroke-width: 0.260883; stroke-linejoin: miter"/>
   </g>
   <g id="patch_52">
    <path d="M 139.411724 127.24 
L 141.862408 127.24 
L 141.862408 100.007156 
L 139.411724 100.007156 
z
" clip-path="url(#p1ccfa0ca30)" style="fill: #b2182b; fill-opacity: 0.3; stroke: #ffffff; stroke-width: 0.260883; stroke-linejoin: miter"/>
   </g>
   <g id="patch_53">
    <path d="M 141.862408 127.24 
L 144.313091 127.24 
L 144.313091 76.664718 
L 141.862408 76.664718 
z
" clip-path="url(#p1ccfa0ca30)" style="fill: #b2182b; fill-opacity: 0.3; stroke: #ffffff; stroke-width: 0.260883; stroke-linejoin: miter"/>
   </g>
   <g id="patch_54">
    <path d="M 144.313091 127.24 
L 146.763774 127.24 
L 146.763774 107.787968 
L 144.313091 107.787968 
z
" clip-path="url(#p1ccfa0ca30)" style="fill: #b2182b; fill-opacity: 0.3; stroke: #ffffff; stroke-width: 0.260883; stroke-linejoin: miter"/>
   </g>
   <g id="patch_55">
    <path d="M 146.763774 127.24 
L 149.214458 127.24 
L 149.214458 18.308623 
L 146.763774 18.308623 
z
" clip-path="url(#p1ccfa0ca30)" style="fill: #b2182b; fill-opacity: 0.3; stroke: #ffffff; stroke-width: 0.260883; stroke-linejoin: miter"/>
   </g>
   <g id="patch_56">
    <path d="M 149.214458 127.24 
L 151.665141 127.24 
L 151.665141 84.44553 
L 149.214458 84.44553 
z
" clip-path="url(#p1ccfa0ca30)" style="fill: #b2182b; fill-opacity: 0.3; stroke: #ffffff; stroke-width: 0.260883; stroke-linejoin: miter"/>
   </g>
   <g id="patch_57">
    <path d="M 151.665141 127.24 
L 154.115824 127.24 
L 154.115824 53.32228 
L 151.665141 53.32228 
z
" clip-path="url(#p1ccfa0ca30)" style="fill: #b2182b; fill-opacity: 0.3; stroke: #ffffff; stroke-width: 0.260883; stroke-linejoin: miter"/>
   </g>
   <g id="patch_58">
    <path d="M 154.115824 127.24 
L 156.566508 127.24 
L 156.566508 84.44553 
L 154.115824 84.44553 
z
" clip-path="url(#p1ccfa0ca30)" style="fill: #b2182b; fill-opacity: 0.3; stroke: #ffffff; stroke-width: 0.260883; stroke-linejoin: miter"/>
   </g>
   <g id="patch_59">
    <path d="M 156.566508 127.24 
L 159.017191 127.24 
L 159.017191 111.678375 
L 156.566508 111.678375 
z
" clip-path="url(#p1ccfa0ca30)" style="fill: #b2182b; fill-opacity: 0.3; stroke: #ffffff; stroke-width: 0.260883; stroke-linejoin: miter"/>
   </g>
   <g id="patch_60">
    <path d="M 159.017191 127.24 
L 161.467875 127.24 
L 161.467875 119.459187 
L 159.017191 119.459187 
z
" clip-path="url(#p1ccfa0ca30)" style="fill: #b2182b; fill-opacity: 0.3; stroke: #ffffff; stroke-width: 0.260883; stroke-linejoin: miter"/>
   </g>
   <g id="patch_61">
    <path d="M 161.467875 127.24 
L 163.918558 127.24 
L 163.918558 119.459187 
L 161.467875 119.459187 
z
" clip-path="url(#p1ccfa0ca30)" style="fill: #b2182b; fill-opacity: 0.3; stroke: #ffffff; stroke-width: 0.260883; stroke-linejoin: miter"/>
   </g>
   <g id="patch_62">
    <path d="M 163.918558 127.24 
L 166.369241 127.24 
L 166.369241 119.459187 
L 163.918558 119.459187 
z
" clip-path="url(#p1ccfa0ca30)" style="fill: #b2182b; fill-opacity: 0.3; stroke: #ffffff; stroke-width: 0.260883; stroke-linejoin: miter"/>
   </g>
   <g id="line2d_1">
    <path d="M 49.261136 127.232487 
L 50.054969 127.170286 
L 51.642635 126.614553 
L 52.436468 126.635287 
L 54.024133 127.179904 
L 56.405632 127.23306 
L 74.663786 127.152225 
L 77.045284 127.124868 
L 82.602114 127.019598 
L 83.395947 126.830341 
L 84.18978 126.834077 
L 85.777445 127.111508 
L 88.158944 126.784979 
L 89.746609 127.074669 
L 90.540442 127.075051 
L 91.334275 126.93147 
L 92.128108 126.542694 
L 92.92194 126.304535 
L 95.303439 127.03764 
L 97.684937 126.961449 
L 98.47877 126.349786 
L 99.272603 125.43696 
L 100.066436 125.457462 
L 100.860268 126.377592 
L 101.654101 126.971516 
L 102.447934 127.034714 
L 104.0356 126.797775 
L 105.623265 126.881321 
L 107.210931 126.732624 
L 108.004764 126.431423 
L 108.798596 125.929316 
L 109.592429 125.914364 
L 110.386262 126.380613 
L 111.180095 126.610064 
L 112.76776 126.536835 
L 113.561593 126.61334 
L 114.355426 126.451301 
L 115.149259 126.011365 
L 115.943092 125.968734 
L 116.736924 126.313278 
L 117.530757 126.370257 
L 119.118423 125.987904 
L 119.912256 126.006305 
L 121.499921 126.290012 
L 122.293754 126.077794 
L 123.087587 125.565933 
L 123.88142 125.527037 
L 124.675252 125.939541 
L 125.469085 126.026968 
L 127.056751 125.510602 
L 127.850584 125.190373 
L 128.644416 125.177339 
L 129.438249 125.322599 
L 130.232082 125.115254 
L 131.025915 124.631594 
L 131.819748 124.384905 
L 132.61358 124.294108 
L 134.995079 123.216999 
L 136.582744 122.108774 
L 137.376577 121.258253 
L 138.964243 118.783353 
L 139.758076 117.444964 
L 140.551908 116.488173 
L 141.345741 116.175083 
L 142.139574 116.447136 
L 142.933407 117.236844 
L 143.72724 118.355726 
L 144.521072 118.868045 
L 145.314905 112.263302 
L 146.108738 80.876625 
L 146.902571 33.094902 
L 147.696404 30.565108 
L 148.490236 72.622761 
L 149.284069 93.840185 
L 150.077902 82.440357 
L 151.665568 26.817225 
L 152.4594 12.91619 
L 153.253233 21.027934 
L 154.840899 51.243203 
L 155.634732 59.805498 
L 156.428564 64.988273 
L 157.222397 72.748186 
L 158.01623 82.563617 
L 158.810063 90.79968 
L 159.603896 97.173985 
L 161.191561 107.408968 
L 161.985394 111.570118 
L 163.57306 117.705718 
L 164.366892 120.562498 
L 165.160725 122.93767 
L 165.954558 124.612909 
L 166.748391 125.772939 
L 167.542224 126.47524 
L 168.336056 126.818032 
L 169.923722 127.091936 
L 172.30522 127.184447 
L 180.243548 127.238107 
L 207.233864 127.239968 
L 207.233864 127.239968 
" clip-path="url(#p1ccfa0ca30)" style="fill: none; stroke: #3b6ea8; stroke-width: 2; stroke-linecap: round"/>
   </g>
   <g id="line2d_2">
    <path d="M 79.004025 127.23077 
L 84.089951 127.098329 
L 87.141507 126.81463 
L 90.701655 126.248634 
L 96.804767 125.239676 
L 99.856323 125.012647 
L 104.942249 124.73783 
L 107.993804 124.518154 
L 109.519582 124.591335 
L 111.553953 124.962509 
L 115.622694 125.892616 
L 117.148472 125.93632 
L 118.674249 125.713947 
L 120.200027 125.264194 
L 124.777361 123.674161 
L 128.846102 122.592656 
L 129.863287 122.00172 
L 130.880472 121.105417 
L 131.897658 119.827186 
L 132.914843 118.11528 
L 133.932028 115.948769 
L 134.949213 113.338228 
L 136.474991 108.677913 
L 138.509362 101.401252 
L 144.10388 80.079264 
L 145.121066 76.997199 
L 146.138251 74.506008 
L 147.155436 72.733186 
L 147.664029 72.147998 
L 148.172621 71.776116 
L 148.681214 71.623914 
L 149.189807 71.695377 
L 149.698399 71.992158 
L 150.206992 72.513641 
L 150.715584 73.256981 
L 151.73277 75.386686 
L 152.749955 78.312928 
L 153.76714 81.928192 
L 155.292918 88.309572 
L 159.361659 106.271763 
L 160.887437 111.685922 
L 161.904622 114.656026 
L 162.921807 117.127005 
L 163.938992 119.15049 
L 164.956178 120.795832 
L 165.973363 122.134623 
L 167.499141 123.701956 
L 169.024919 124.871345 
L 170.550697 125.732999 
L 172.076474 126.341931 
L 173.602252 126.744324 
L 175.636623 127.043557 
L 178.688178 127.204049 
L 180.213956 127.226717 
L 180.213956 127.226717 
" clip-path="url(#p1ccfa0ca30)" style="fill: none; stroke: #b2182b; stroke-width: 2; stroke-linecap: round"/>
   </g>
   <g id="patch_63">
    <path d="M 41.3625 127.24 
L 41.3625 7.2 
" style="fill: none; stroke: #262626; stroke-width: 0.8; stroke-linejoin: miter; stroke-linecap: square"/>
   </g>
   <g id="patch_64">
    <path d="M 41.3625 127.24 
L 215.1325 127.24 
" style="fill: none; stroke: #262626; stroke-width: 0.8; stroke-linejoin: miter; stroke-linecap: square"/>
   </g>
   <g id="legend_1">
    <g id="patch_65">
     <path d="M 48.5625 20.12625 
L 64.5625 20.12625 
L 64.5625 14.52625 
L 48.5625 14.52625 
z
" style="fill: #3b6ea8; fill-opacity: 0.3; stroke: #ffffff; stroke-width: 0.541091; stroke-linejoin: miter"/>
    </g>
    <g id="text_12">
     <!-- Unlabeled -->
     <g style="fill: #262626" transform="translate(70.9625 20.12625) scale(0.08 -0.08)">
      <defs>
       <path id="ArialMT-55" d="M 3500 4581 
L 4106 4581 
L 4106 1934 
Q 4106 1244 3950 837 
Q 3794 431 3386 176 
Q 2978 -78 2316 -78 
Q 1672 -78 1262 144 
Q 853 366 678 786 
Q 503 1206 503 1934 
L 503 4581 
L 1109 4581 
L 1109 1938 
Q 1109 1341 1220 1058 
Q 1331 775 1601 622 
Q 1872 469 2263 469 
Q 2931 469 3215 772 
Q 3500 1075 3500 1938 
L 3500 4581 
z
" transform="scale(0.015625)"/>
       <path id="ArialMT-6c" d="M 409 0 
L 409 4581 
L 972 4581 
L 972 0 
L 409 0 
z
" transform="scale(0.015625)"/>
       <path id="ArialMT-62" d="M 941 0 
L 419 0 
L 419 4581 
L 981 4581 
L 981 2947 
Q 1338 3394 1891 3394 
Q 2197 3394 2470 3270 
Q 2744 3147 2920 2923 
Q 3097 2700 3197 2384 
Q 3297 2069 3297 1709 
Q 3297 856 2875 390 
Q 2453 -75 1863 -75 
Q 1275 -75 941 416 
L 941 0 
z
M 934 1684 
Q 934 1088 1097 822 
Q 1363 388 1816 388 
Q 2184 388 2453 708 
Q 2722 1028 2722 1663 
Q 2722 2313 2464 2622 
Q 2206 2931 1841 2931 
Q 1472 2931 1203 2611 
Q 934 2291 934 1684 
z
" transform="scale(0.015625)"/>
      </defs>
      <use xlink:href="#ArialMT-55"/>
      <use xlink:href="#ArialMT-6e" x="72.216797"/>
      <use xlink:href="#ArialMT-6c" x="127.832031"/>
      <use xlink:href="#ArialMT-61" x="150.048828"/>
      <use xlink:href="#ArialMT-62" x="205.664062"/>
      <use xlink:href="#ArialMT-65" x="261.279297"/>
      <use xlink:href="#ArialMT-6c" x="316.894531"/>
      <use xlink:href="#ArialMT-65" x="339.111328"/>
      <use xlink:href="#ArialMT-64" x="394.726562"/>
     </g>
    </g>
    <g id="patch_66">
     <path d="M 48.5625 31.4425 
L 64.5625 31.4425 
L 64.5625 25.8425 
L 48.5625 25.8425 
z
" style="fill: #b2182b; fill-opacity: 0.3; stroke: #ffffff; stroke-width: 0.260883; stroke-linejoin: miter"/>
    </g>
    <g id="text_13">
     <!-- Positive -->
     <g style="fill: #262626" transform="translate(70.9625 31.4425) scale(0.08 -0.08)">
      <defs>
       <path id="ArialMT-50" d="M 494 0 
L 494 4581 
L 2222 4581 
Q 2678 4581 2919 4538 
Q 3256 4481 3484 4323 
Q 3713 4166 3852 3881 
Q 3991 3597 3991 3256 
Q 3991 2672 3619 2267 
Q 3247 1863 2275 1863 
L 1100 1863 
L 1100 0 
L 494 0 
z
M 1100 2403 
L 2284 2403 
Q 2872 2403 3119 2622 
Q 3366 2841 3366 3238 
Q 3366 3525 3220 3729 
Q 3075 3934 2838 4000 
Q 2684 4041 2272 4041 
L 1100 4041 
L 1100 2403 
z
" transform="scale(0.015625)"/>
       <path id="ArialMT-6f" d="M 213 1659 
Q 213 2581 725 3025 
Q 1153 3394 1769 3394 
Q 2453 3394 2887 2945 
Q 3322 2497 3322 1706 
Q 3322 1066 3130 698 
Q 2938 331 2570 128 
Q 2203 -75 1769 -75 
Q 1072 -75 642 372 
Q 213 819 213 1659 
z
M 791 1659 
Q 791 1022 1069 705 
Q 1347 388 1769 388 
Q 2188 388 2466 706 
Q 2744 1025 2744 1678 
Q 2744 2294 2464 2611 
Q 2184 2928 1769 2928 
Q 1347 2928 1069 2612 
Q 791 2297 791 1659 
z
" transform="scale(0.015625)"/>
      </defs>
      <use xlink:href="#ArialMT-50"/>
      <use xlink:href="#ArialMT-6f" x="66.699219"/>
      <use xlink:href="#ArialMT-73" x="122.314453"/>
      <use xlink:href="#ArialMT-69" x="172.314453"/>
      <use xlink:href="#ArialMT-74" x="194.53125"/>
      <use xlink:href="#ArialMT-69" x="222.314453"/>
      <use xlink:href="#ArialMT-76" x="244.53125"/>
      <use xlink:href="#ArialMT-65" x="294.53125"/>
     </g>
    </g>
   </g>
  </g>
 </g>
 <defs>
  <clipPath id="p1ccfa0ca30">
   <rect x="41.3625" y="7.2" width="173.77" height="120.04"/>
  </clipPath>
 </defs>
</svg>
