<?xml version="1.0" encoding="utf-8" standalone="no"?>
<!DOCTYPE svg PUBLIC "-//W3C//DTD SVG 1.1//EN"
  "http://www.w3.org/Graphics/SVG/1.1/DTD/svg11.dtd">
<svg xmlns:xlink="http://www.w3.org/1999/xlink" width="222.3325pt" height="163.847812pt" viewBox="0 0 222.3325 163.847812" xmlns="http://www.w3.org/2000/svg" version="1.1">
 <metadata>
  <rdf:RDF xmlns:dc="http://purl.org/dc/elements/1.1/" xmlns:cc="http://creativecommons.org/ns#" xmlns:rdf="http://www.w3.org/1999/02/22-rdf-syntax-ns#">
   <cc:Work>
    <dc:type rdf:resource="http://purl.org/dc/dcmitype/StillImage"/>
    <dc:date>2026-06-23T10:55:29.918641</dc:date>
    <dc:format>image/svg+xml</dc:format>
    <dc:creator>
     <cc:Agent>
      <dc:title>Matplotlib v3.9.4, https://matplotlib.org/</dc:title>
     </cc:Agent>
    </dc:creator>
   </cc:Work>
  </rdf:RDF>
 </metadata>
 <defs>
  <style type="text/css">*{stroke-linejoin: round; stroke-linecap: butt}</style>
 </defs>
 <g id="figure_1">
  <g id="patch_1">
   <path d="M 0 163.847812 
L 222.3325 163.847812 
L 222.3325 0 
L 0 0 
L 0 163.847812 
z
" style="fill: none"/>
  </g>
  <g id="axes_1">
   <g id="patch_2">
    <path d="M 41.3625 127.24 
L 215.1325 127.24 
L 215.1325 7.2 
L 41.3625 7.2 
L 41.3625 127.24 
z
" style="fill: none"/>
   </g>
   <g id="matplotlib.axis_1">
    <g id="xtick_1">
     <g id="text_1">
      <!-- 0 -->
      <g style="fill: #262626" transform="translate(51.253217 141.397812) scale(0.1 -0.1)">
       <defs>
        <path id="ArialMT-30" d="M 266 2259 
Q 266 3072 433 3567 
Q 600 4063 929 4331 
Q 1259 4600 1759 4600 
Q 2128 4600 2406 4451 
Q 2684 4303 2865 4023 
Q 3047 3744 3150 3342 
Q 3253 2941 3253 2259 
Q 3253 1453 3087 958 
Q 2922 463 2592 192 
Q 2263 -78 1759 -78 
Q 1097 -78 719 397 
Q 266 969 266 2259 
z
M 844 2259 
Q 844 1131 1108 757 
Q 1372 384 1759 384 
Q 2147 384 2411 759 
Q 2675 1134 2675 2259 
Q 2675 3391 2411 3762 
Q 2147 4134 1753 4134 
Q 1366 4134 1134 3806 
Q 844 3388 844 2259 
z
" transform="scale(0.015625)"/>
       </defs>
       <use xlink:href="#ArialMT-30"/>
      </g>
     </g>
    </g>
    <g id="xtick_2">
     <g id="text_2">
      <!-- 2 -->
      <g style="fill: #262626" transform="translate(95.838905 141.397812) scale(0.1 -0.1)">
       <defs>
        <path id="ArialMT-32" d="M 3222 541 
L 3222 0 
L 194 0 
Q 188 203 259 391 
Q 375 700 629 1000 
Q 884 1300 1366 1694 
Q 2113 2306 2375 2664 
Q 2638 3022 2638 3341 
Q 2638 3675 2398 3904 
Q 2159 4134 1775 4134 
Q 1369 4134 1125 3890 
Q 881 3647 878 3216 
L 300 3275 
Q 359 3922 746 4261 
Q 1134 4600 1788 4600 
Q 2447 4600 2831 4234 
Q 3216 3869 3216 3328 
Q 3216 3053 3103 2787 
Q 2991 2522 2730 2228 
Q 2469 1934 1863 1422 
Q 1356 997 1212 845 
Q 1069 694 975 541 
L 3222 541 
z
" transform="scale(0.015625)"/>
       </defs>
       <use xlink:href="#ArialMT-32"/>
      </g>
     </g>
    </g>
    <g id="xtick_3">
     <g id="text_3">
      <!-- 4 -->
      <g style="fill: #262626" transform="translate(140.424593 141.397812) scale(0.1 -0.1)">
       <defs>
        <path id="ArialMT-34" d="M 2069 0 
L 2069 1097 
L 81 1097 
L 81 1613 
L 2172 4581 
L 2631 4581 
L 2631 1613 
L 3250 1613 
L 3250 1097 
L 2631 1097 
L 2631 0 
L 2069 0 
z
M 2069 1613 
L 2069 3678 
L 634 1613 
L 2069 1613 
z
" transform="scale(0.015625)"/>
       </defs>
       <use xlink:href="#ArialMT-34"/>
      </g>
     </g>
    </g>
    <g id="xtick_4">
     <g id="text_4">
      <!-- 6 -->
      <g style="fill: #262626" transform="translate(185.010281 141.397812) scale(0.1 -0.1)">
       <defs>
        <path id="ArialMT-36" d="M 3184 3459 
L 2625 3416 
Q 2550 3747 2413 3897 
Q 2184 4138 1850 4138 
Q 1581 4138 1378 3988 
Q 1113 3794 959 3422 
Q 806 3050 800 2363 
Q 1003 2672 1297 2822 
Q 1591 2972 1913 2972 
Q 2475 2972 2870 2558 
Q 3266 2144 3266 1488 
Q 3266 1056 3080 686 
Q 2894 316 2569 119 
Q 2244 -78 1831 -78 
Q 1128 -78 684 439 
Q 241 956 241 2144 
Q 241 3472 731 4075 
Q 1159 4600 1884 4600 
Q 2425 4600 2770 4297 
Q 3116 3994 3184 3459 
z
M 888 1484 
Q 888 1194 1011 928 
Q 1134 663 1356 523 
Q 1578 384 1822 384 
Q 2178 384 2434 671 
Q 2691 959 2691 1453 
Q 2691 1928 2437 2201 
Q 2184 2475 1800 2475 
Q 1419 2475 1153 2201 
Q 888 1928 888 1484 
z
" transform="scale(0.015625)"/>
       </defs>
       <use xlink:href="#ArialMT-36"/>
      </g>
     </g>
    </g>
    <g id="text_5">
     <!-- Degree entropy -->
     <g style="fill: #262626" transform="translate(93.785 154.543125) scale(0.1 -0.1)">
      <defs>
       <path id="ArialMT-44" d="M 494 0 
L 494 4581 
L 2072 4581 
Q 2606 4581 2888 4516 
Q 3281 4425 3559 4188 
Q 3922 3881 4101 3404 
Q 4281 2928 4281 2316 
Q 4281 1794 4159 1391 
Q 4038 988 3847 723 
Q 3656 459 3429 307 
Q 3203 156 2883 78 
Q 2563 0 2147 0 
L 494 0 
z
M 1100 541 
L 2078 541 
Q 2531 541 2789 625 
Q 3047 709 3200 863 
Q 3416 1078 3536 1442 
Q 3656 1806 3656 2325 
Q 3656 3044 3420 3430 
Q 3184 3816 2847 3947 
Q 2603 4041 2063 4041 
L 1100 4041 
L 1100 541 
z
" transform="scale(0.015625)"/>
       <path id="ArialMT-65" d="M 2694 1069 
L 3275 997 
Q 3138 488 2766 206 
Q 2394 -75 1816 -75 
Q 1088 -75 661 373 
Q 234 822 234 1631 
Q 234 2469 665 2931 
Q 1097 3394 1784 3394 
Q 2450 3394 2872 2941 
Q 3294 2488 3294 1666 
Q 3294 1616 3291 1516 
L 816 1516 
Q 847 969 1125 678 
Q 1403 388 1819 388 
Q 2128 388 2347 550 
Q 2566 713 2694 1069 
z
M 847 1978 
L 2700 1978 
Q 2663 2397 2488 2606 
Q 2219 2931 1791 2931 
Q 1403 2931 1139 2672 
Q 875 2413 847 1978 
z
" transform="scale(0.015625)"/>
       <path id="ArialMT-67" d="M 319 -275 
L 866 -356 
Q 900 -609 1056 -725 
Q 1266 -881 1628 -881 
Q 2019 -881 2231 -725 
Q 2444 -569 2519 -288 
Q 2563 -116 2559 434 
Q 2191 0 1641 0 
Q 956 0 581 494 
Q 206 988 206 1678 
Q 206 2153 378 2554 
Q 550 2956 876 3175 
Q 1203 3394 1644 3394 
Q 2231 3394 2613 2919 
L 2613 3319 
L 3131 3319 
L 3131 450 
Q 3131 -325 2973 -648 
Q 2816 -972 2473 -1159 
Q 2131 -1347 1631 -1347 
Q 1038 -1347 672 -1080 
Q 306 -813 319 -275 
z
M 784 1719 
Q 784 1066 1043 766 
Q 1303 466 1694 466 
Q 2081 466 2343 764 
Q 2606 1063 2606 1700 
Q 2606 2309 2336 2618 
Q 2066 2928 1684 2928 
Q 1309 2928 1046 2623 
Q 784 2319 784 1719 
z
" transform="scale(0.015625)"/>
       <path id="ArialMT-72" d="M 416 0 
L 416 3319 
L 922 3319 
L 922 2816 
Q 1116 3169 1280 3281 
Q 1444 3394 1641 3394 
Q 1925 3394 2219 3213 
L 2025 2691 
Q 1819 2813 1613 2813 
Q 1428 2813 1281 2702 
Q 1134 2591 1072 2394 
Q 978 2094 978 1738 
L 978 0 
L 416 0 
z
" transform="scale(0.015625)"/>
       <path id="ArialMT-20" transform="scale(0.015625)"/>
       <path id="ArialMT-6e" d="M 422 0 
L 422 3319 
L 928 3319 
L 928 2847 
Q 1294 3394 1984 3394 
Q 2284 3394 2536 3286 
Q 2788 3178 2913 3003 
Q 3038 2828 3088 2588 
Q 3119 2431 3119 2041 
L 3119 0 
L 2556 0 
L 2556 2019 
Q 2556 2363 2490 2533 
Q 2425 2703 2258 2804 
Q 2091 2906 1866 2906 
Q 1506 2906 1245 2678 
Q 984 2450 984 1813 
L 984 0 
L 422 0 
z
" transform="scale(0.015625)"/>
       <path id="ArialMT-74" d="M 1650 503 
L 1731 6 
Q 1494 -44 1306 -44 
Q 1000 -44 831 53 
Q 663 150 594 308 
Q 525 466 525 972 
L 525 2881 
L 113 2881 
L 113 3319 
L 525 3319 
L 525 4141 
L 1084 4478 
L 1084 3319 
L 1650 3319 
L 1650 2881 
L 1084 2881 
L 1084 941 
Q 1084 700 1114 631 
Q 1144 563 1211 522 
Q 1278 481 1403 481 
Q 1497 481 1650 503 
z
" transform="scale(0.015625)"/>
       <path id="ArialMT-6f" d="M 213 1659 
Q 213 2581 725 3025 
Q 1153 3394 1769 3394 
Q 2453 3394 2887 2945 
Q 3322 2497 3322 1706 
Q 3322 1066 3130 698 
Q 2938 331 2570 128 
Q 2203 -75 1769 -75 
Q 1072 -75 642 372 
Q 213 819 213 1659 
z
M 791 1659 
Q 791 1022 1069 705 
Q 1347 388 1769 388 
Q 2188 388 2466 706 
Q 2744 1025 2744 1678 
Q 2744 2294 2464 2611 
Q 2184 2928 1769 2928 
Q 1347 2928 1069 2612 
Q 791 2297 791 1659 
z
" transform="scale(0.015625)"/>
       <path id="ArialMT-70" d="M 422 -1272 
L 422 3319 
L 934 3319 
L 934 2888 
Q 1116 3141 1344 3267 
Q 1572 3394 1897 3394 
Q 2322 3394 2647 3175 
Q 2972 2956 3137 2557 
Q 3303 2159 3303 1684 
Q 3303 1175 3120 767 
Q 2938 359 2589 142 
Q 2241 -75 1856 -75 
Q 1575 -75 1351 44 
Q 1128 163 984 344 
L 984 -1272 
L 422 -1272 
z
M 931 1641 
Q 931 1000 1190 694 
Q 1450 388 1819 388 
Q 2194 388 2461 705 
Q 2728 1022 2728 1688 
Q 2728 2322 2467 2637 
Q 2206 2953 1844 2953 
Q 1484 2953 1207 2617 
Q 931 2281 931 1641 
z
" transform="scale(0.015625)"/>
       <path id="ArialMT-79" d="M 397 -1278 
L 334 -750 
Q 519 -800 656 -800 
Q 844 -800 956 -737 
Q 1069 -675 1141 -563 
Q 1194 -478 1313 -144 
Q 1328 -97 1363 -6 
L 103 3319 
L 709 3319 
L 1400 1397 
Q 1534 1031 1641 628 
Q 1738 1016 1872 1384 
L 2581 3319 
L 3144 3319 
L 1881 -56 
Q 1678 -603 1566 -809 
Q 1416 -1088 1222 -1217 
Q 1028 -1347 759 -1347 
Q 597 -1347 397 -1278 
z
" transform="scale(0.015625)"/>
      </defs>
      <use xlink:href="#ArialMT-44"/>
      <use xlink:href="#ArialMT-65" x="72.216797"/>
      <use xlink:href="#ArialMT-67" x="127.832031"/>
      <use xlink:href="#ArialMT-72" x="183.447266"/>
      <use xlink:href="#ArialMT-65" x="216.748047"/>
      <use xlink:href="#ArialMT-65" x="272.363281"/>
      <use xlink:href="#ArialMT-20" x="327.978516"/>
      <use xlink:href="#ArialMT-65" x="355.761719"/>
      <use xlink:href="#ArialMT-6e" x="411.376953"/>
      <use xlink:href="#ArialMT-74" x="466.992188"/>
      <use xlink:href="#ArialMT-72" x="494.775391"/>
      <use xlink:href="#ArialMT-6f" x="528.076172"/>
      <use xlink:href="#ArialMT-70" x="583.691406"/>
      <use xlink:href="#ArialMT-79" x="639.306641"/>
     </g>
    </g>
   </g>
   <g id="matplotlib.axis_2">
    <g id="ytick_1">
     <g id="text_6">
      <!-- 0.0 -->
      <g style="fill: #262626" transform="translate(20.4625 130.818906) scale(0.1 -0.1)">
       <defs>
        <path id="ArialMT-2e" d="M 581 0 
L 581 641 
L 1222 641 
L 1222 0 
L 581 0 
z
" transform="scale(0.015625)"/>
       </defs>
       <use xlink:href="#ArialMT-30"/>
       <use xlink:href="#ArialMT-2e" x="55.615234"/>
       <use xlink:href="#ArialMT-30" x="83.398438"/>
      </g>
     </g>
    </g>
    <g id="ytick_2">
     <g id="text_7">
      <!-- 0.2 -->
      <g style="fill: #262626" transform="translate(20.4625 108.841839) scale(0.1 -0.1)">
       <use xlink:href="#ArialMT-30"/>
       <use xlink:href="#ArialMT-2e" x="55.615234"/>
       <use xlink:href="#ArialMT-32" x="83.398438"/>
      </g>
     </g>
    </g>
    <g id="ytick_3">
     <g id="text_8">
      <!-- 0.4 -->
      <g style="fill: #262626" transform="translate(20.4625 86.864772) scale(0.1 -0.1)">
       <use xlink:href="#ArialMT-30"/>
       <use xlink:href="#ArialMT-2e" x="55.615234"/>
       <use xlink:href="#ArialMT-34" x="83.398438"/>
      </g>
     </g>
    </g>
    <g id="ytick_4">
     <g id="text_9">
      <!-- 0.6 -->
      <g style="fill: #262626" transform="translate(20.4625 64.887705) scale(0.1 -0.1)">
       <use xlink:href="#ArialMT-30"/>
       <use xlink:href="#ArialMT-2e" x="55.615234"/>
       <use xlink:href="#ArialMT-36" x="83.398438"/>
      </g>
     </g>
    </g>
    <g id="ytick_5">
     <g id="text_10">
      <!-- 0.8 -->
      <g style="fill: #262626" transform="translate(20.4625 42.910638) scale(0.1 -0.1)">
       <defs>
        <path id="ArialMT-38" d="M 1131 2484 
Q 781 2613 612 2850 
Q 444 3088 444 3419 
Q 444 3919 803 4259 
Q 1163 4600 1759 4600 
Q 2359 4600 2725 4251 
Q 3091 3903 3091 3403 
Q 3091 3084 2923 2848 
Q 2756 2613 2416 2484 
Q 2838 2347 3058 2040 
Q 3278 1734 3278 1309 
Q 3278 722 2862 322 
Q 2447 -78 1769 -78 
Q 1091 -78 675 323 
Q 259 725 259 1325 
Q 259 1772 486 2073 
Q 713 2375 1131 2484 
z
M 1019 3438 
Q 1019 3113 1228 2906 
Q 1438 2700 1772 2700 
Q 2097 2700 2305 2904 
Q 2513 3109 2513 3406 
Q 2513 3716 2298 3927 
Q 2084 4138 1766 4138 
Q 1444 4138 1231 3931 
Q 1019 3725 1019 3438 
z
M 838 1322 
Q 838 1081 952 856 
Q 1066 631 1291 507 
Q 1516 384 1775 384 
Q 2178 384 2440 643 
Q 2703 903 2703 1303 
Q 2703 1709 2433 1975 
Q 2163 2241 1756 2241 
Q 1359 2241 1098 1978 
Q 838 1716 838 1322 
z
" transform="scale(0.015625)"/>
       </defs>
       <use xlink:href="#ArialMT-30"/>
       <use xlink:href="#ArialMT-2e" x="55.615234"/>
       <use xlink:href="#ArialMT-38" x="83.398438"/>
      </g>
     </g>
    </g>
    <g id="ytick_6">
     <g id="text_11">
      <!-- 1.0 -->
      <g style="fill: #262626" transform="translate(20.4625 20.93357) scale(0.1 -0.1)">
       <defs>
        <path id="ArialMT-31" d="M 2384 0 
L 1822 0 
L 1822 3584 
Q 1619 3391 1289 3197 
Q 959 3003 697 2906 
L 697 3450 
Q 1169 3672 1522 3987 
Q 1875 4303 2022 4600 
L 2384 4600 
L 2384 0 
z
" transform="scale(0.015625)"/>
       </defs>
       <use xlink:href="#ArialMT-31"/>
       <use xlink:href="#ArialMT-2e" x="55.615234"/>
       <use xlink:href="#ArialMT-30" x="83.398438"/>
      </g>
     </g>
    </g>
    <g id="text_12">
     <!-- Density -->
     <g style="fill: #262626" transform="translate(14.357813 83.891875) rotate(-90) scale(0.1 -0.1)">
      <defs>
       <path id="ArialMT-73" d="M 197 991 
L 753 1078 
Q 800 744 1014 566 
Q 1228 388 1613 388 
Q 2000 388 2187 545 
Q 2375 703 2375 916 
Q 2375 1106 2209 1216 
Q 2094 1291 1634 1406 
Q 1016 1563 777 1677 
Q 538 1791 414 1992 
Q 291 2194 291 2438 
Q 291 2659 392 2848 
Q 494 3038 669 3163 
Q 800 3259 1026 3326 
Q 1253 3394 1513 3394 
Q 1903 3394 2198 3281 
Q 2494 3169 2634 2976 
Q 2775 2784 2828 2463 
L 2278 2388 
Q 2241 2644 2061 2787 
Q 1881 2931 1553 2931 
Q 1166 2931 1000 2803 
Q 834 2675 834 2503 
Q 834 2394 903 2306 
Q 972 2216 1119 2156 
Q 1203 2125 1616 2013 
Q 2213 1853 2448 1751 
Q 2684 1650 2818 1456 
Q 2953 1263 2953 975 
Q 2953 694 2789 445 
Q 2625 197 2315 61 
Q 2006 -75 1616 -75 
Q 969 -75 630 194 
Q 291 463 197 991 
z
" transform="scale(0.015625)"/>
       <path id="ArialMT-69" d="M 425 3934 
L 425 4581 
L 988 4581 
L 988 3934 
L 425 3934 
z
M 425 0 
L 425 3319 
L 988 3319 
L 988 0 
L 425 0 
z
" transform="scale(0.015625)"/>
      </defs>
      <use xlink:href="#ArialMT-44"/>
      <use xlink:href="#ArialMT-65" x="72.216797"/>
      <use xlink:href="#ArialMT-6e" x="127.832031"/>
      <use xlink:href="#ArialMT-73" x="183.447266"/>
      <use xlink:href="#ArialMT-69" x="233.447266"/>
      <use xlink:href="#ArialMT-74" x="255.664062"/>
      <use xlink:href="#ArialMT-79" x="283.447266"/>
     </g>
    </g>
   </g>
   <g id="patch_3">
    <path d="M 54.033686 127.24 
L 58.981273 127.24 
L 58.981273 126.601222 
L 54.033686 126.601222 
z
" clip-path="url(#pa2fe6b72b6)" style="fill: #3b6ea8; fill-opacity: 0.3; stroke: #ffffff; stroke-width: 0.541091; stroke-linejoin: miter"/>
   </g>
   <g id="patch_4">
    <path d="M 58.981273 127.24 
L 63.928861 127.24 
L 63.928861 127.24 
L 58.981273 127.24 
z
" clip-path="url(#pa2fe6b72b6)" style="fill: #3b6ea8; fill-opacity: 0.3; stroke: #ffffff; stroke-width: 0.541091; stroke-linejoin: miter"/>
   </g>
   <g id="patch_5">
    <path d="M 63.928861 127.24 
L 68.876449 127.24 
L 68.876449 127.24 
L 63.928861 127.24 
z
" clip-path="url(#pa2fe6b72b6)" style="fill: #3b6ea8; fill-opacity: 0.3; stroke: #ffffff; stroke-width: 0.541091; stroke-linejoin: miter"/>
   </g>
   <g id="patch_6">
    <path d="M 68.876449 127.24 
L 73.824036 127.24 
L 73.824036 127.121606 
L 68.876449 127.121606 
z
" clip-path="url(#pa2fe6b72b6)" style="fill: #3b6ea8; fill-opacity: 0.3; stroke: #ffffff; stroke-width: 0.541091; stroke-linejoin: miter"/>
   </g>
   <g id="patch_7">
    <path d="M 73.824036 127.24 
L 78.771624 127.24 
L 78.771624 126.909598 
L 73.824036 126.909598 
z
" clip-path="url(#pa2fe6b72b6)" style="fill: #3b6ea8; fill-opacity: 0.3; stroke: #ffffff; stroke-width: 0.541091; stroke-linejoin: miter"/>
   </g>
   <g id="patch_8">
    <path d="M 78.771624 127.24 
L 83.719212 127.24 
L 83.719212 122.779571 
L 78.771624 122.779571 
z
" clip-path="url(#pa2fe6b72b6)" style="fill: #3b6ea8; fill-opacity: 0.3; stroke: #ffffff; stroke-width: 0.541091; stroke-linejoin: miter"/>
   </g>
   <g id="patch_9">
    <path d="M 83.719212 127.24 
L 88.666799 127.24 
L 88.666799 126.77193 
L 83.719212 126.77193 
z
" clip-path="url(#pa2fe6b72b6)" style="fill: #3b6ea8; fill-opacity: 0.3; stroke: #ffffff; stroke-width: 0.541091; stroke-linejoin: miter"/>
   </g>
   <g id="patch_10">
    <path d="M 88.666799 127.24 
L 93.614387 127.24 
L 93.614387 125.596249 
L 88.666799 125.596249 
z
" clip-path="url(#pa2fe6b72b6)" style="fill: #3b6ea8; fill-opacity: 0.3; stroke: #ffffff; stroke-width: 0.541091; stroke-linejoin: miter"/>
   </g>
   <g id="patch_11">
    <path d="M 93.614387 127.24 
L 98.561974 127.24 
L 98.561974 123.64963 
L 93.614387 123.64963 
z
" clip-path="url(#pa2fe6b72b6)" style="fill: #3b6ea8; fill-opacity: 0.3; stroke: #ffffff; stroke-width: 0.541091; stroke-linejoin: miter"/>
   </g>
   <g id="patch_12">
    <path d="M 98.561974 127.24 
L 103.509562 127.24 
L 103.509562 119.450769 
L 98.561974 119.450769 
z
" clip-path="url(#pa2fe6b72b6)" style="fill: #3b6ea8; fill-opacity: 0.3; stroke: #ffffff; stroke-width: 0.541091; stroke-linejoin: miter"/>
   </g>
   <g id="patch_13">
    <path d="M 103.509562 127.24 
L 108.45715 127.24 
L 108.45715 102.473603 
L 103.509562 102.473603 
z
" clip-path="url(#pa2fe6b72b6)" style="fill: #3b6ea8; fill-opacity: 0.3; stroke: #ffffff; stroke-width: 0.541091; stroke-linejoin: miter"/>
   </g>
   <g id="patch_14">
    <path d="M 108.45715 127.24 
L 113.404737 127.24 
L 113.404737 70.56226 
L 108.45715 70.56226 
z
" clip-path="url(#pa2fe6b72b6)" style="fill: #3b6ea8; fill-opacity: 0.3; stroke: #ffffff; stroke-width: 0.541091; stroke-linejoin: miter"/>
   </g>
   <g id="patch_15">
    <path d="M 113.404737 127.24 
L 118.352325 127.24 
L 118.352325 50.980424 
L 113.404737 50.980424 
z
" clip-path="url(#pa2fe6b72b6)" style="fill: #3b6ea8; fill-opacity: 0.3; stroke: #ffffff; stroke-width: 0.541091; stroke-linejoin: miter"/>
   </g>
   <g id="patch_16">
    <path d="M 118.352325 127.24 
L 123.299912 127.24 
L 123.299912 51.825703 
L 118.352325 51.825703 
z
" clip-path="url(#pa2fe6b72b6)" style="fill: #3b6ea8; fill-opacity: 0.3; stroke: #ffffff; stroke-width: 0.541091; stroke-linejoin: miter"/>
   </g>
   <g id="patch_17">
    <path d="M 123.299912 127.24 
L 128.2475 127.24 
L 128.2475 75.595386 
L 123.299912 75.595386 
z
" clip-path="url(#pa2fe6b72b6)" style="fill: #3b6ea8; fill-opacity: 0.3; stroke: #ffffff; stroke-width: 0.541091; stroke-linejoin: miter"/>
   </g>
   <g id="patch_18">
    <path d="M 128.2475 127.24 
L 133.195088 127.24 
L 133.195088 79.15547 
L 128.2475 79.15547 
z
" clip-path="url(#pa2fe6b72b6)" style="fill: #3b6ea8; fill-opacity: 0.3; stroke: #ffffff; stroke-width: 0.541091; stroke-linejoin: miter"/>
   </g>
   <g id="patch_19">
    <path d="M 133.195088 127.24 
L 138.142675 127.24 
L 138.142675 91.636412 
L 133.195088 91.636412 
z
" clip-path="url(#pa2fe6b72b6)" style="fill: #3b6ea8; fill-opacity: 0.3; stroke: #ffffff; stroke-width: 0.541091; stroke-linejoin: miter"/>
   </g>
   <g id="patch_20">
    <path d="M 138.142675 127.24 
L 143.090263 127.24 
L 143.090263 104.227488 
L 138.142675 104.227488 
z
" clip-path="url(#pa2fe6b72b6)" style="fill: #3b6ea8; fill-opacity: 0.3; stroke: #ffffff; stroke-width: 0.541091; stroke-linejoin: miter"/>
   </g>
   <g id="patch_21">
    <path d="M 143.090263 127.24 
L 148.03785 127.24 
L 148.03785 108.572277 
L 143.090263 108.572277 
z
" clip-path="url(#pa2fe6b72b6)" style="fill: #3b6ea8; fill-opacity: 0.3; stroke: #ffffff; stroke-width: 0.541091; stroke-linejoin: miter"/>
   </g>
   <g id="patch_22">
    <path d="M 148.03785 127.24 
L 152.985438 127.24 
L 152.985438 113.690757 
L 148.03785 113.690757 
z
" clip-path="url(#pa2fe6b72b6)" style="fill: #3b6ea8; fill-opacity: 0.3; stroke: #ffffff; stroke-width: 0.541091; stroke-linejoin: miter"/>
   </g>
   <g id="patch_23">
    <path d="M 152.985438 127.24 
L 157.933026 127.24 
L 157.933026 113.869725 
L 152.985438 113.869725 
z
" clip-path="url(#pa2fe6b72b6)" style="fill: #3b6ea8; fill-opacity: 0.3; stroke: #ffffff; stroke-width: 0.541091; stroke-linejoin: miter"/>
   </g>
   <g id="patch_24">
    <path d="M 157.933026 127.24 
L 162.880613 127.24 
L 162.880613 113.924792 
L 157.933026 113.924792 
z
" clip-path="url(#pa2fe6b72b6)" style="fill: #3b6ea8; fill-opacity: 0.3; stroke: #ffffff; stroke-width: 0.541091; stroke-linejoin: miter"/>
   </g>
   <g id="patch_25">
    <path d="M 162.880613 127.24 
L 167.828201 127.24 
L 167.828201 115.786058 
L 162.880613 115.786058 
z
" clip-path="url(#pa2fe6b72b6)" style="fill: #3b6ea8; fill-opacity: 0.3; stroke: #ffffff; stroke-width: 0.541091; stroke-linejoin: miter"/>
   </g>
   <g id="patch_26">
    <path d="M 167.828201 127.24 
L 172.775788 127.24 
L 172.775788 119.907825 
L 167.828201 119.907825 
z
" clip-path="url(#pa2fe6b72b6)" style="fill: #3b6ea8; fill-opacity: 0.3; stroke: #ffffff; stroke-width: 0.541091; stroke-linejoin: miter"/>
   </g>
   <g id="patch_27">
    <path d="M 172.775788 127.24 
L 177.723376 127.24 
L 177.723376 122.870431 
L 172.775788 122.870431 
z
" clip-path="url(#pa2fe6b72b6)" style="fill: #3b6ea8; fill-opacity: 0.3; stroke: #ffffff; stroke-width: 0.541091; stroke-linejoin: miter"/>
   </g>
   <g id="patch_28">
    <path d="M 177.723376 127.24 
L 182.670964 127.24 
L 182.670964 125.582482 
L 177.723376 125.582482 
z
" clip-path="url(#pa2fe6b72b6)" style="fill: #3b6ea8; fill-opacity: 0.3; stroke: #ffffff; stroke-width: 0.541091; stroke-linejoin: miter"/>
   </g>
   <g id="patch_29">
    <path d="M 182.670964 127.24 
L 187.618551 127.24 
L 187.618551 126.642523 
L 182.670964 126.642523 
z
" clip-path="url(#pa2fe6b72b6)" style="fill: #3b6ea8; fill-opacity: 0.3; stroke: #ffffff; stroke-width: 0.541091; stroke-linejoin: miter"/>
   </g>
   <g id="patch_30">
    <path d="M 187.618551 127.24 
L 192.566139 127.24 
L 192.566139 126.986692 
L 187.618551 126.986692 
z
" clip-path="url(#pa2fe6b72b6)" style="fill: #3b6ea8; fill-opacity: 0.3; stroke: #ffffff; stroke-width: 0.541091; stroke-linejoin: miter"/>
   </g>
   <g id="patch_31">
    <path d="M 192.566139 127.24 
L 197.513727 127.24 
L 197.513727 127.204206 
L 192.566139 127.204206 
z
" clip-path="url(#pa2fe6b72b6)" style="fill: #3b6ea8; fill-opacity: 0.3; stroke: #ffffff; stroke-width: 0.541091; stroke-linejoin: miter"/>
   </g>
   <g id="patch_32">
    <path d="M 197.513727 127.24 
L 202.461314 127.24 
L 202.461314 127.22348 
L 197.513727 127.22348 
z
" clip-path="url(#pa2fe6b72b6)" style="fill: #3b6ea8; fill-opacity: 0.3; stroke: #ffffff; stroke-width: 0.541091; stroke-linejoin: miter"/>
   </g>
   <g id="patch_33">
    <path d="M 69.485908 127.24 
L 72.3769 127.24 
L 72.3769 120.51507 
L 69.485908 120.51507 
z
" clip-path="url(#pa2fe6b72b6)" style="fill: #b2182b; fill-opacity: 0.3; stroke: #ffffff; stroke-width: 0.316172; stroke-linejoin: miter"/>
   </g>
   <g id="patch_34">
    <path d="M 72.3769 127.24 
L 75.267892 127.24 
L 75.267892 127.24 
L 72.3769 127.24 
z
" clip-path="url(#pa2fe6b72b6)" style="fill: #b2182b; fill-opacity: 0.3; stroke: #ffffff; stroke-width: 0.316172; stroke-linejoin: miter"/>
   </g>
   <g id="patch_35">
    <path d="M 75.267892 127.24 
L 78.158884 127.24 
L 78.158884 120.51507 
L 75.267892 120.51507 
z
" clip-path="url(#pa2fe6b72b6)" style="fill: #b2182b; fill-opacity: 0.3; stroke: #ffffff; stroke-width: 0.316172; stroke-linejoin: miter"/>
   </g>
   <g id="patch_36">
    <path d="M 78.158884 127.24 
L 81.049876 127.24 
L 81.049876 127.24 
L 78.158884 127.24 
z
" clip-path="url(#pa2fe6b72b6)" style="fill: #b2182b; fill-opacity: 0.3; stroke: #ffffff; stroke-width: 0.316172; stroke-linejoin: miter"/>
   </g>
   <g id="patch_37">
    <path d="M 81.049876 127.24 
L 83.940868 127.24 
L 83.940868 100.34028 
L 81.049876 100.34028 
z
" clip-path="url(#pa2fe6b72b6)" style="fill: #b2182b; fill-opacity: 0.3; stroke: #ffffff; stroke-width: 0.316172; stroke-linejoin: miter"/>
   </g>
   <g id="patch_38">
    <path d="M 83.940868 127.24 
L 86.83186 127.24 
L 86.83186 127.24 
L 83.940868 127.24 
z
" clip-path="url(#pa2fe6b72b6)" style="fill: #b2182b; fill-opacity: 0.3; stroke: #ffffff; stroke-width: 0.316172; stroke-linejoin: miter"/>
   </g>
   <g id="patch_39">
    <path d="M 86.83186 127.24 
L 89.722853 127.24 
L 89.722853 127.24 
L 86.83186 127.24 
z
" clip-path="url(#pa2fe6b72b6)" style="fill: #b2182b; fill-opacity: 0.3; stroke: #ffffff; stroke-width: 0.316172; stroke-linejoin: miter"/>
   </g>
   <g id="patch_40">
    <path d="M 89.722853 127.24 
L 92.613845 127.24 
L 92.613845 127.24 
L 89.722853 127.24 
z
" clip-path="url(#pa2fe6b72b6)" style="fill: #b2182b; fill-opacity: 0.3; stroke: #ffffff; stroke-width: 0.316172; stroke-linejoin: miter"/>
   </g>
   <g id="patch_41">
    <path d="M 92.613845 127.24 
L 95.504837 127.24 
L 95.504837 120.51507 
L 92.613845 120.51507 
z
" clip-path="url(#pa2fe6b72b6)" style="fill: #b2182b; fill-opacity: 0.3; stroke: #ffffff; stroke-width: 0.316172; stroke-linejoin: miter"/>
   </g>
   <g id="patch_42">
    <path d="M 95.504837 127.24 
L 98.395829 127.24 
L 98.395829 127.24 
L 95.504837 127.24 
z
" clip-path="url(#pa2fe6b72b6)" style="fill: #b2182b; fill-opacity: 0.3; stroke: #ffffff; stroke-width: 0.316172; stroke-linejoin: miter"/>
   </g>
   <g id="patch_43">
    <path d="M 98.395829 127.24 
L 101.286821 127.24 
L 101.286821 73.44056 
L 98.395829 73.44056 
z
" clip-path="url(#pa2fe6b72b6)" style="fill: #b2182b; fill-opacity: 0.3; stroke: #ffffff; stroke-width: 0.316172; stroke-linejoin: miter"/>
   </g>
   <g id="patch_44">
    <path d="M 101.286821 127.24 
L 104.177813 127.24 
L 104.177813 120.51507 
L 101.286821 120.51507 
z
" clip-path="url(#pa2fe6b72b6)" style="fill: #b2182b; fill-opacity: 0.3; stroke: #ffffff; stroke-width: 0.316172; stroke-linejoin: miter"/>
   </g>
   <g id="patch_45">
    <path d="M 104.177813 127.24 
L 107.068805 127.24 
L 107.068805 86.89042 
L 104.177813 86.89042 
z
" clip-path="url(#pa2fe6b72b6)" style="fill: #b2182b; fill-opacity: 0.3; stroke: #ffffff; stroke-width: 0.316172; stroke-linejoin: miter"/>
   </g>
   <g id="patch_46">
    <path d="M 107.068805 127.24 
L 109.959797 127.24 
L 109.959797 59.9907 
L 107.068805 59.9907 
z
" clip-path="url(#pa2fe6b72b6)" style="fill: #b2182b; fill-opacity: 0.3; stroke: #ffffff; stroke-width: 0.316172; stroke-linejoin: miter"/>
   </g>
   <g id="patch_47">
    <path d="M 109.959797 127.24 
L 112.850789 127.24 
L 112.850789 53.26577 
L 109.959797 53.26577 
z
" clip-path="url(#pa2fe6b72b6)" style="fill: #b2182b; fill-opacity: 0.3; stroke: #ffffff; stroke-width: 0.316172; stroke-linejoin: miter"/>
   </g>
   <g id="patch_48">
    <path d="M 112.850789 127.24 
L 115.741781 127.24 
L 115.741781 53.26577 
L 112.850789 53.26577 
z
" clip-path="url(#pa2fe6b72b6)" style="fill: #b2182b; fill-opacity: 0.3; stroke: #ffffff; stroke-width: 0.316172; stroke-linejoin: miter"/>
   </g>
   <g id="patch_49">
    <path d="M 115.741781 127.24 
L 118.632774 127.24 
L 118.632774 12.91619 
L 115.741781 12.91619 
z
" clip-path="url(#pa2fe6b72b6)" style="fill: #b2182b; fill-opacity: 0.3; stroke: #ffffff; stroke-width: 0.316172; stroke-linejoin: miter"/>
   </g>
   <g id="patch_50">
    <path d="M 118.632774 127.24 
L 121.523766 127.24 
L 121.523766 66.71563 
L 118.632774 66.71563 
z
" clip-path="url(#pa2fe6b72b6)" style="fill: #b2182b; fill-opacity: 0.3; stroke: #ffffff; stroke-width: 0.316172; stroke-linejoin: miter"/>
   </g>
   <g id="patch_51">
    <path d="M 121.523766 127.24 
L 124.414758 127.24 
L 124.414758 12.91619 
L 121.523766 12.91619 
z
" clip-path="url(#pa2fe6b72b6)" style="fill: #b2182b; fill-opacity: 0.3; stroke: #ffffff; stroke-width: 0.316172; stroke-linejoin: miter"/>
   </g>
   <g id="patch_52">
    <path d="M 124.414758 127.24 
L 127.30575 127.24 
L 127.30575 33.09098 
L 124.414758 33.09098 
z
" clip-path="url(#pa2fe6b72b6)" style="fill: #b2182b; fill-opacity: 0.3; stroke: #ffffff; stroke-width: 0.316172; stroke-linejoin: miter"/>
   </g>
   <g id="patch_53">
    <path d="M 127.30575 127.24 
L 130.196742 127.24 
L 130.196742 93.61535 
L 127.30575 93.61535 
z
" clip-path="url(#pa2fe6b72b6)" style="fill: #b2182b; fill-opacity: 0.3; stroke: #ffffff; stroke-width: 0.316172; stroke-linejoin: miter"/>
   </g>
   <g id="patch_54">
    <path d="M 130.196742 127.24 
L 133.087734 127.24 
L 133.087734 93.61535 
L 130.196742 93.61535 
z
" clip-path="url(#pa2fe6b72b6)" style="fill: #b2182b; fill-opacity: 0.3; stroke: #ffffff; stroke-width: 0.316172; stroke-linejoin: miter"/>
   </g>
   <g id="patch_55">
    <path d="M 133.087734 127.24 
L 135.978726 127.24 
L 135.978726 127.24 
L 133.087734 127.24 
z
" clip-path="url(#pa2fe6b72b6)" style="fill: #b2182b; fill-opacity: 0.3; stroke: #ffffff; stroke-width: 0.316172; stroke-linejoin: miter"/>
   </g>
   <g id="patch_56">
    <path d="M 135.978726 127.24 
L 138.869718 127.24 
L 138.869718 120.51507 
L 135.978726 120.51507 
z
" clip-path="url(#pa2fe6b72b6)" style="fill: #b2182b; fill-opacity: 0.3; stroke: #ffffff; stroke-width: 0.316172; stroke-linejoin: miter"/>
   </g>
   <g id="patch_57">
    <path d="M 138.869718 127.24 
L 141.76071 127.24 
L 141.76071 120.51507 
L 138.869718 120.51507 
z
" clip-path="url(#pa2fe6b72b6)" style="fill: #b2182b; fill-opacity: 0.3; stroke: #ffffff; stroke-width: 0.316172; stroke-linejoin: miter"/>
   </g>
   <g id="patch_58">
    <path d="M 141.76071 127.24 
L 144.651702 127.24 
L 144.651702 127.24 
L 141.76071 127.24 
z
" clip-path="url(#pa2fe6b72b6)" style="fill: #b2182b; fill-opacity: 0.3; stroke: #ffffff; stroke-width: 0.316172; stroke-linejoin: miter"/>
   </g>
   <g id="patch_59">
    <path d="M 144.651702 127.24 
L 147.542695 127.24 
L 147.542695 127.24 
L 144.651702 127.24 
z
" clip-path="url(#pa2fe6b72b6)" style="fill: #b2182b; fill-opacity: 0.3; stroke: #ffffff; stroke-width: 0.316172; stroke-linejoin: miter"/>
   </g>
   <g id="patch_60">
    <path d="M 147.542695 127.24 
L 150.433687 127.24 
L 150.433687 113.79014 
L 147.542695 113.79014 
z
" clip-path="url(#pa2fe6b72b6)" style="fill: #b2182b; fill-opacity: 0.3; stroke: #ffffff; stroke-width: 0.316172; stroke-linejoin: miter"/>
   </g>
   <g id="patch_61">
    <path d="M 150.433687 127.24 
L 153.324679 127.24 
L 153.324679 127.24 
L 150.433687 127.24 
z
" clip-path="url(#pa2fe6b72b6)" style="fill: #b2182b; fill-opacity: 0.3; stroke: #ffffff; stroke-width: 0.316172; stroke-linejoin: miter"/>
   </g>
   <g id="patch_62">
    <path d="M 153.324679 127.24 
L 156.215671 127.24 
L 156.215671 120.51507 
L 153.324679 120.51507 
z
" clip-path="url(#pa2fe6b72b6)" style="fill: #b2182b; fill-opacity: 0.3; stroke: #ffffff; stroke-width: 0.316172; stroke-linejoin: miter"/>
   </g>
   <g id="line2d_1">
    <path d="M 49.261136 127.231196 
L 50.848802 127.133169 
L 52.436468 126.761221 
L 53.2303 126.542338 
L 54.024133 126.447469 
L 54.817966 126.538144 
L 57.199464 127.130578 
L 58.78713 127.230873 
L 66.725458 127.207402 
L 70.694622 127.129842 
L 73.869953 127.19156 
L 76.251452 126.884869 
L 77.839117 126.605198 
L 78.63295 126.198675 
L 79.426783 125.290355 
L 81.014448 122.503637 
L 81.808281 121.907127 
L 82.602114 122.451385 
L 84.18978 125.087129 
L 84.983612 125.991311 
L 85.777445 126.403935 
L 86.571278 126.484327 
L 88.952776 126.181121 
L 92.92194 125.200767 
L 93.715773 124.934141 
L 94.509606 124.507707 
L 96.097272 123.242841 
L 97.684937 121.867021 
L 100.066436 120.29538 
L 100.860268 119.435159 
L 101.654101 118.169279 
L 102.447934 116.43736 
L 103.241767 114.195311 
L 104.0356 111.410846 
L 104.829432 108.081862 
L 106.417098 99.970275 
L 108.004764 89.944829 
L 110.386262 72.540938 
L 111.180095 68.32823 
L 111.973928 65.676219 
L 113.561593 62.537275 
L 114.355426 60.411658 
L 115.149259 57.327698 
L 115.943092 53.247139 
L 117.530757 43.745815 
L 118.32459 40.377877 
L 119.118423 39.7512 
L 119.912256 42.707191 
L 120.706088 48.930021 
L 122.293754 64.599614 
L 123.087587 70.548196 
L 123.88142 74.260535 
L 124.675252 76.010432 
L 125.469085 76.34897 
L 126.262918 75.867931 
L 127.056751 75.190747 
L 127.850584 74.906627 
L 128.644416 75.341101 
L 129.438249 76.415456 
L 131.025915 79.349979 
L 132.61358 82.658528 
L 133.407413 84.617071 
L 134.201246 86.923431 
L 138.17041 99.940429 
L 138.964243 101.712132 
L 139.758076 103.088594 
L 140.551908 104.108849 
L 141.345741 104.8375 
L 143.72724 106.56998 
L 145.314905 108.390084 
L 147.696404 111.244275 
L 149.284069 112.827722 
L 150.077902 113.382815 
L 150.871735 113.74796 
L 152.4594 114.118627 
L 154.047066 114.208225 
L 155.634732 113.947853 
L 157.222397 113.653424 
L 158.810063 113.596674 
L 160.397728 113.780086 
L 161.985394 114.325663 
L 164.366892 115.302641 
L 165.954558 116.240754 
L 167.542224 117.391056 
L 169.923722 119.528832 
L 171.511388 120.790917 
L 174.686719 122.593588 
L 178.655883 124.832983 
L 180.243548 125.598971 
L 181.831214 126.143567 
L 183.41888 126.446107 
L 187.388044 126.825392 
L 195.326372 127.202195 
L 205.646198 127.238624 
L 207.233864 127.239888 
L 207.233864 127.239888 
" clip-path="url(#pa2fe6b72b6)" style="fill: none; stroke: #3b6ea8; stroke-width: 2; stroke-linecap: round"/>
   </g>
   <g id="line2d_2">
    <path d="M 54.415731 127.222793 
L 58.52674 127.095394 
L 61.463175 126.795564 
L 64.39961 126.239473 
L 68.510619 125.186925 
L 71.447054 124.250534 
L 73.208915 123.478205 
L 75.558063 122.130223 
L 77.907211 120.702961 
L 79.081786 120.161806 
L 80.25636 119.854446 
L 81.430934 119.838878 
L 82.605508 120.125304 
L 83.780082 120.668326 
L 87.891091 122.945384 
L 89.065665 123.137968 
L 89.652952 123.082577 
L 90.240239 122.911936 
L 90.827526 122.617896 
L 92.0021 121.636831 
L 93.176674 120.113302 
L 94.351248 118.05219 
L 95.525822 115.488269 
L 97.287683 110.837253 
L 99.049544 105.456749 
L 101.398692 97.547557 
L 104.335128 86.801294 
L 107.271563 75.183412 
L 111.382572 58.856624 
L 113.144433 52.816438 
L 114.319007 49.402645 
L 115.493581 46.578695 
L 116.668155 44.397725 
L 117.842729 42.897134 
L 118.430016 42.415125 
L 119.017303 42.122231 
L 119.60459 42.029228 
L 120.191877 42.149582 
L 120.779164 42.499162 
L 121.366451 43.095486 
L 121.953738 43.956552 
L 122.541025 45.099341 
L 123.128312 46.538112 
L 124.302886 50.336816 
L 125.47746 55.351601 
L 126.652034 61.455688 
L 128.413895 72.075124 
L 131.937618 94.08174 
L 133.699479 103.280121 
L 134.874053 108.318477 
L 136.048627 112.440324 
L 137.223201 115.69114 
L 138.397775 118.162968 
L 139.572349 119.971591 
L 140.746923 121.237903 
L 141.921497 122.075715 
L 143.096071 122.586487 
L 144.270645 122.859438 
L 146.032506 122.994467 
L 150.143515 123.114206 
L 152.492663 123.501866 
L 154.841811 124.135524 
L 162.476543 126.444277 
L 164.825691 126.862694 
L 167.762126 127.127066 
L 171.285848 127.22268 
L 171.285848 127.22268 
" clip-path="url(#pa2fe6b72b6)" style="fill: none; stroke: #b2182b; stroke-width: 2; stroke-linecap: round"/>
   </g>
   <g id="patch_63">
    <path d="M 41.3625 127.24 
L 41.3625 7.2 
" style="fill: none; stroke: #262626; stroke-width: 0.8; stroke-linejoin: miter; stroke-linecap: square"/>
   </g>
   <g id="patch_64">
    <path d="M 41.3625 127.24 
L 215.1325 127.24 
" style="fill: none; stroke: #262626; stroke-width: 0.8; stroke-linejoin: miter; stroke-linecap: square"/>
   </g>
   <g id="legend_1">
    <g id="patch_65">
     <path d="M 149.5075 20.12625 
L 165.5075 20.12625 
L 165.5075 14.52625 
L 149.5075 14.52625 
z
" style="fill: #3b6ea8; fill-opacity: 0.3; stroke: #ffffff; stroke-width: 0.541091; stroke-linejoin: miter"/>
    </g>
    <g id="text_13">
     <!-- Unlabeled -->
     <g style="fill: #262626" transform="translate(171.9075 20.12625) scale(0.08 -0.08)">
      <defs>
       <path id="ArialMT-55" d="M 3500 4581 
L 4106 4581 
L 4106 1934 
Q 4106 1244 3950 837 
Q 3794 431 3386 176 
Q 2978 -78 2316 -78 
Q 1672 -78 1262 144 
Q 853 366 678 786 
Q 503 1206 503 1934 
L 503 4581 
L 1109 4581 
L 1109 1938 
Q 1109 1341 1220 1058 
Q 1331 775 1601 622 
Q 1872 469 2263 469 
Q 2931 469 3215 772 
Q 3500 1075 3500 1938 
L 3500 4581 
z
" transform="scale(0.015625)"/>
       <path id="ArialMT-6c" d="M 409 0 
L 409 4581 
L 972 4581 
L 972 0 
L 409 0 
z
" transform="scale(0.015625)"/>
       <path id="ArialMT-61" d="M 2588 409 
Q 2275 144 1986 34 
Q 1697 -75 1366 -75 
Q 819 -75 525 192 
Q 231 459 231 875 
Q 231 1119 342 1320 
Q 453 1522 633 1644 
Q 813 1766 1038 1828 
Q 1203 1872 1538 1913 
Q 2219 1994 2541 2106 
Q 2544 2222 2544 2253 
Q 2544 2597 2384 2738 
Q 2169 2928 1744 2928 
Q 1347 2928 1158 2789 
Q 969 2650 878 2297 
L 328 2372 
Q 403 2725 575 2942 
Q 747 3159 1072 3276 
Q 1397 3394 1825 3394 
Q 2250 3394 2515 3294 
Q 2781 3194 2906 3042 
Q 3031 2891 3081 2659 
Q 3109 2516 3109 2141 
L 3109 1391 
Q 3109 606 3145 398 
Q 3181 191 3288 0 
L 2700 0 
Q 2613 175 2588 409 
z
M 2541 1666 
Q 2234 1541 1622 1453 
Q 1275 1403 1131 1340 
Q 988 1278 909 1158 
Q 831 1038 831 891 
Q 831 666 1001 516 
Q 1172 366 1500 366 
Q 1825 366 2078 508 
Q 2331 650 2450 897 
Q 2541 1088 2541 1459 
L 2541 1666 
z
" transform="scale(0.015625)"/>
       <path id="ArialMT-62" d="M 941 0 
L 419 0 
L 419 4581 
L 981 4581 
L 981 2947 
Q 1338 3394 1891 3394 
Q 2197 3394 2470 3270 
Q 2744 3147 2920 2923 
Q 3097 2700 3197 2384 
Q 3297 2069 3297 1709 
Q 3297 856 2875 390 
Q 2453 -75 1863 -75 
Q 1275 -75 941 416 
L 941 0 
z
M 934 1684 
Q 934 1088 1097 822 
Q 1363 388 1816 388 
Q 2184 388 2453 708 
Q 2722 1028 2722 1663 
Q 2722 2313 2464 2622 
Q 2206 2931 1841 2931 
Q 1472 2931 1203 2611 
Q 934 2291 934 1684 
z
" transform="scale(0.015625)"/>
       <path id="ArialMT-64" d="M 2575 0 
L 2575 419 
Q 2259 -75 1647 -75 
Q 1250 -75 917 144 
Q 584 363 401 755 
Q 219 1147 219 1656 
Q 219 2153 384 2558 
Q 550 2963 881 3178 
Q 1213 3394 1622 3394 
Q 1922 3394 2156 3267 
Q 2391 3141 2538 2938 
L 2538 4581 
L 3097 4581 
L 3097 0 
L 2575 0 
z
M 797 1656 
Q 797 1019 1065 703 
Q 1334 388 1700 388 
Q 2069 388 2326 689 
Q 2584 991 2584 1609 
Q 2584 2291 2321 2609 
Q 2059 2928 1675 2928 
Q 1300 2928 1048 2622 
Q 797 2316 797 1656 
z
" transform="scale(0.015625)"/>
      </defs>
      <use xlink:href="#ArialMT-55"/>
      <use xlink:href="#ArialMT-6e" x="72.216797"/>
      <use xlink:href="#ArialMT-6c" x="127.832031"/>
      <use xlink:href="#ArialMT-61" x="150.048828"/>
      <use xlink:href="#ArialMT-62" x="205.664062"/>
      <use xlink:href="#ArialMT-65" x="261.279297"/>
      <use xlink:href="#ArialMT-6c" x="316.894531"/>
      <use xlink:href="#ArialMT-65" x="339.111328"/>
      <use xlink:href="#ArialMT-64" x="394.726562"/>
     </g>
    </g>
    <g id="patch_66">
     <path d="M 149.5075 31.4425 
L 165.5075 31.4425 
L 165.5075 25.8425 
L 149.5075 25.8425 
z
" style="fill: #b2182b; fill-opacity: 0.3; stroke: #ffffff; stroke-width: 0.316172; stroke-linejoin: miter"/>
    </g>
    <g id="text_14">
     <!-- Positive -->
     <g style="fill: #262626" transform="translate(171.9075 31.4425) scale(0.08 -0.08)">
      <defs>
       <path id="ArialMT-50" d="M 494 0 
L 494 4581 
L 2222 4581 
Q 2678 4581 2919 4538 
Q 3256 4481 3484 4323 
Q 3713 4166 3852 3881 
Q 3991 3597 3991 3256 
Q 3991 2672 3619 2267 
Q 3247 1863 2275 1863 
L 1100 1863 
L 1100 0 
L 494 0 
z
M 1100 2403 
L 2284 2403 
Q 2872 2403 3119 2622 
Q 3366 2841 3366 3238 
Q 3366 3525 3220 3729 
Q 3075 3934 2838 4000 
Q 2684 4041 2272 4041 
L 1100 4041 
L 1100 2403 
z
" transform="scale(0.015625)"/>
       <path id="ArialMT-76" d="M 1344 0 
L 81 3319 
L 675 3319 
L 1388 1331 
Q 1503 1009 1600 663 
Q 1675 925 1809 1294 
L 2547 3319 
L 3125 3319 
L 1869 0 
L 1344 0 
z
" transform="scale(0.015625)"/>
      </defs>
      <use xlink:href="#ArialMT-50"/>
      <use xlink:href="#ArialMT-6f" x="66.699219"/>
      <use xlink:href="#ArialMT-73" x="122.314453"/>
      <use xlink:href="#ArialMT-69" x="172.314453"/>
      <use xlink:href="#ArialMT-74" x="194.53125"/>
      <use xlink:href="#ArialMT-69" x="222.314453"/>
      <use xlink:href="#ArialMT-76" x="244.53125"/>
      <use xlink:href="#ArialMT-65" x="294.53125"/>
     </g>
    </g>
   </g>
  </g>
 </g>
 <defs>
  <clipPath id="pa2fe6b72b6">
   <rect x="41.3625" y="7.2" width="173.77" height="120.04"/>
  </clipPath>
 </defs>
</svg>
