<?xml version="1.0" encoding="utf-8" standalone="no"?>
<!DOCTYPE svg PUBLIC "-//W3C//DTD SVG 1.1//EN"
  "http://www.w3.org/Graphics/SVG/1.1/DTD/svg11.dtd">
<svg xmlns:xlink="http://www.w3.org/1999/xlink" width="192.96pt" height="147.456pt" viewBox="0 0 192.96 147.456" xmlns="http://www.w3.org/2000/svg" version="1.1">
 <metadata>
  <rdf:RDF xmlns:dc="http://purl.org/dc/elements/1.1/" xmlns:cc="http://creativecommons.org/ns#" xmlns:rdf="http://www.w3.org/1999/02/22-rdf-syntax-ns#">
   <cc:Work>
    <dc:type rdf:resource="http://purl.org/dc/dcmitype/StillImage"/>
    <dc:date>2026-05-31T16:24:12.045143</dc:date>
    <dc:format>image/svg+xml</dc:format>
    <dc:creator>
     <cc:Agent>
      <dc:title>Matplotlib v3.9.4, https://matplotlib.org/</dc:title>
     </cc:Agent>
    </dc:creator>
   </cc:Work>
  </rdf:RDF>
 </metadata>
 <defs>
  <style type="text/css">*{stroke-linejoin: round; stroke-linecap: butt}</style>
 </defs>
 <g id="figure_1">
  <g id="patch_1">
   <path d="M 0 147.456 
L 192.96 147.456 
L 192.96 0 
L 0 0 
L 0 147.456 
z
" style="fill: none"/>
  </g>
  <g id="axes_1">
   <g id="patch_2">
    <path d="M 91.1232 49.968 
C 93.25416 49.968 95.298128 49.066739 96.804944 47.462709 
C 98.311761 45.858678 99.1584 43.682841 99.1584 41.4144 
C 99.1584 39.145959 98.311761 36.970122 96.804944 35.366091 
C 95.298128 33.762061 93.25416 32.8608 91.1232 32.8608 
C 88.99224 32.8608 86.948272 33.762061 85.441456 35.366091 
C 83.934639 36.970122 83.088 39.145959 83.088 41.4144 
C 83.088 43.682841 83.934639 45.858678 85.441456 47.462709 
C 86.948272 49.066739 88.99224 49.968 91.1232 49.968 
z
" clip-path="url(#pcadcb604da)" style="fill: #fbe3df; stroke: #e85c4a; stroke-width: 2; stroke-linejoin: miter"/>
   </g>
   <g id="patch_3">
    <path d="M 116.1216 106.992 
C 118.25256 106.992 120.296528 106.090739 121.803344 104.486709 
C 123.310161 102.882678 124.1568 100.706841 124.1568 98.4384 
C 124.1568 96.169959 123.310161 93.994122 121.803344 92.390091 
C 120.296528 90.786061 118.25256 89.8848 116.1216 89.8848 
C 113.99064 89.8848 111.946672 90.786061 110.439856 92.390091 
C 108.933039 93.994122 108.0864 96.169959 108.0864 98.4384 
C 108.0864 100.706841 108.933039 102.882678 110.439856 104.486709 
C 111.946672 106.090739 113.99064 106.992 116.1216 106.992 
z
" clip-path="url(#pcadcb604da)" style="fill: #fbe3df; stroke: #e85c4a; stroke-width: 2; stroke-linejoin: miter"/>
   </g>
   <g id="line2d_1">
    <path d="M 32.1984 41.4144 
L 50.0544 41.4144 
" clip-path="url(#pcadcb604da)" style="fill: none; stroke: #2f2f2f; stroke-width: 2; stroke-linecap: square"/>
   </g>
   <g id="line2d_2">
    <path d="M 64.3392 41.4144 
L 82.1952 41.4144 
" clip-path="url(#pcadcb604da)" style="fill: none; stroke: #2f2f2f; stroke-width: 2; stroke-linecap: square"/>
   </g>
   <g id="line2d_3">
    <path d="M 108.9792 50.9184 
L 126.8352 31.9104 
" clip-path="url(#pcadcb604da)" style="fill: none; stroke: #e85c4a; stroke-width: 3; stroke-linecap: square"/>
   </g>
   <g id="line2d_4">
    <path d="M 108.9792 31.9104 
L 126.8352 50.9184 
" clip-path="url(#pcadcb604da)" style="fill: none; stroke: #e85c4a; stroke-width: 3; stroke-linecap: square"/>
   </g>
   <g id="line2d_5">
    <path d="M 32.1984 98.4384 
L 46.4832 98.4384 
" clip-path="url(#pcadcb604da)" style="fill: none; stroke: #2f2f2f; stroke-width: 2; stroke-linecap: square"/>
   </g>
   <g id="line2d_6">
    <path d="M 57.1968 92.736 
L 67.9104 79.4304 
" clip-path="url(#pcadcb604da)" style="fill: none; stroke: #2f2f2f; stroke-width: 2; stroke-linecap: square"/>
   </g>
   <g id="line2d_7">
    <path d="M 60.768 94.6368 
L 71.4816 81.3312 
" clip-path="url(#pcadcb604da)" style="fill: none; stroke: #2f2f2f; stroke-width: 1.5; stroke-linecap: square"/>
   </g>
   <g id="line2d_8">
    <path d="M 60.768 98.4384 
L 78.624 98.4384 
" clip-path="url(#pcadcb604da)" style="fill: none; stroke: #2f2f2f; stroke-width: 2; stroke-linecap: square"/>
   </g>
   <g id="line2d_9">
    <path d="M 92.9088 98.4384 
L 107.1936 98.4384 
" clip-path="url(#pcadcb604da)" style="fill: none; stroke: #2f2f2f; stroke-width: 2; stroke-linecap: square"/>
   </g>
   <g id="line2d_10">
    <path d="M 132.192 107.9424 
L 150.048 88.9344 
" clip-path="url(#pcadcb604da)" style="fill: none; stroke: #e85c4a; stroke-width: 3; stroke-linecap: square"/>
   </g>
   <g id="line2d_11">
    <path d="M 132.192 88.9344 
L 150.048 107.9424 
" clip-path="url(#pcadcb604da)" style="fill: none; stroke: #e85c4a; stroke-width: 3; stroke-linecap: square"/>
   </g>
   <g id="text_1">
    <text style="fill: #222222; font: 16px 'Arial'; text-anchor: middle" x="25.056" y="45.55065" transform="rotate(-0 25.056 45.55065)">R</text>
   </g>
   <g id="text_2">
    <text style="fill: #222222; font: 16px 'Arial'; text-anchor: middle" x="57.1968" y="45.55065" transform="rotate(-0 57.1968 45.55065)">O</text>
   </g>
   <g id="text_3">
    <text style="fill: #e85c4a; font: 700 15px 'Arial'; text-anchor: middle" x="91.1232" y="45.302681" transform="rotate(-0 91.1232 45.302681)">H</text>
   </g>
   <g id="text_4">
    <text style="fill: #222222; font: 16px 'Arial'; text-anchor: middle" x="25.056" y="102.57465" transform="rotate(-0 25.056 102.57465)">R</text>
   </g>
   <g id="text_5">
    <text style="fill: #222222; font: 16px 'Arial'; text-anchor: middle" x="53.6256" y="102.57465" transform="rotate(-0 53.6256 102.57465)">C</text>
   </g>
   <g id="text_6">
    <text style="fill: #222222; font: 16px 'Arial'; text-anchor: middle" x="76.8384" y="81.66585" transform="rotate(-0 76.8384 81.66585)">O</text>
   </g>
   <g id="text_7">
    <text style="fill: #222222; font: 16px 'Arial'; text-anchor: middle" x="85.7664" y="102.57465" transform="rotate(-0 85.7664 102.57465)">N</text>
   </g>
   <g id="text_8">
    <text style="fill: #e85c4a; font: 700 15px 'Arial'; text-anchor: middle" x="116.1216" y="102.326681" transform="rotate(-0 116.1216 102.326681)">H</text>
   </g>
   <g id="text_9">
    <text style="fill: #e85c4a; font: 700 15px 'Arial'; text-anchor: middle" x="96.48" y="21.542681" transform="rotate(-0 96.48 21.542681)">Active H exclusion</text>
   </g>
   <g id="text_10">
    <text style="fill: #222222; font: 10.5px 'Arial'; text-anchor: middle" x="96.48" y="132.454491" transform="rotate(-0 96.48 132.454491)">Remove labile protic hydrogen groups</text>
   </g>
  </g>
 </g>
 <defs>
  <clipPath id="pcadcb604da">
   <rect x="7.2" y="7.2" width="178.56" height="133.056"/>
  </clipPath>
 </defs>
</svg>
