<?xml version="1.0" encoding="utf-8" standalone="no"?>
<!DOCTYPE svg PUBLIC "-//W3C//DTD SVG 1.1//EN"
  "http://www.w3.org/Graphics/SVG/1.1/DTD/svg11.dtd">
<svg xmlns:xlink="http://www.w3.org/1999/xlink" width="405pt" height="294.6pt" viewBox="0 0 405 294.6" xmlns="http://www.w3.org/2000/svg" version="1.1">
 <metadata>
  <rdf:RDF xmlns:dc="http://purl.org/dc/elements/1.1/" xmlns:cc="http://creativecommons.org/ns#" xmlns:rdf="http://www.w3.org/1999/02/22-rdf-syntax-ns#">
   <cc:Work>
    <dc:type rdf:resource="http://purl.org/dc/dcmitype/StillImage"/>
    <dc:date>2026-05-15T16:12:13.429493</dc:date>
    <dc:format>image/svg+xml</dc:format>
    <dc:creator>
     <cc:Agent>
      <dc:title>Matplotlib v3.9.4, https://matplotlib.org/</dc:title>
     </cc:Agent>
    </dc:creator>
   </cc:Work>
  </rdf:RDF>
 </metadata>
 <defs>
  <style type="text/css">*{stroke-linejoin: round; stroke-linecap: butt}</style>
 </defs>
 <g id="figure_1">
  <g id="patch_1">
   <path d="M 0 294.6 
L 405 294.6 
L 405 0 
L 0 0 
z
" style="fill: #ffffff"/>
  </g>
  <g id="axes_1">
   <g id="patch_2">
    <path d="M 7.2 63.771429 
L 397.8 63.771429 
L 397.8 7.2 
L 7.2 7.2 
z
" style="fill: #ffffff"/>
   </g>
   <g id="matplotlib.axis_1">
    <g id="xtick_1">
     <g id="line2d_1">
      <defs>
       <path id="mac5f6de297" d="M 0 0 
L 0 3 
" style="stroke: #262626; stroke-width: 1.1"/>
      </defs>
      <g>
       <use xlink:href="#mac5f6de297" x="7.2" y="63.771429" style="fill: #262626; stroke: #262626; stroke-width: 1.1"/>
      </g>
     </g>
    </g>
    <g id="xtick_2">
     <g id="line2d_2">
      <g>
       <use xlink:href="#mac5f6de297" x="85.32" y="63.771429" style="fill: #262626; stroke: #262626; stroke-width: 1.1"/>
      </g>
     </g>
    </g>
    <g id="xtick_3">
     <g id="line2d_3">
      <g>
       <use xlink:href="#mac5f6de297" x="163.44" y="63.771429" style="fill: #262626; stroke: #262626; stroke-width: 1.1"/>
      </g>
     </g>
    </g>
    <g id="xtick_4">
     <g id="line2d_4">
      <g>
       <use xlink:href="#mac5f6de297" x="241.56" y="63.771429" style="fill: #262626; stroke: #262626; stroke-width: 1.1"/>
      </g>
     </g>
    </g>
    <g id="xtick_5">
     <g id="line2d_5">
      <g>
       <use xlink:href="#mac5f6de297" x="319.68" y="63.771429" style="fill: #262626; stroke: #262626; stroke-width: 1.1"/>
      </g>
     </g>
    </g>
    <g id="xtick_6">
     <g id="line2d_6">
      <g>
       <use xlink:href="#mac5f6de297" x="397.8" y="63.771429" style="fill: #262626; stroke: #262626; stroke-width: 1.1"/>
      </g>
     </g>
    </g>
   </g>
   <g id="matplotlib.axis_2"/>
   <g id="patch_3">
    <path d="M 8.7624 63.771429 
L 44.20656 63.771429 
L 44.20656 38.501047 
L 8.7624 38.501047 
z
" clip-path="url(#p39ef7f314e)" style="fill: #949699; fill-opacity: 0.22; stroke: #ffffff; stroke-linejoin: miter"/>
   </g>
   <g id="patch_4">
    <path d="M 44.20656 63.771429 
L 79.65072 63.771429 
L 79.65072 49.125385 
L 44.20656 49.125385 
z
" clip-path="url(#p39ef7f314e)" style="fill: #949699; fill-opacity: 0.22; stroke: #ffffff; stroke-linejoin: miter"/>
   </g>
   <g id="patch_5">
    <path d="M 79.65072 63.771429 
L 115.09488 63.771429 
L 115.09488 59.845018 
L 79.65072 59.845018 
z
" clip-path="url(#p39ef7f314e)" style="fill: #949699; fill-opacity: 0.22; stroke: #ffffff; stroke-linejoin: miter"/>
   </g>
   <g id="patch_6">
    <path d="M 115.09488 63.771429 
L 150.53904 63.771429 
L 150.53904 61.938404 
L 115.09488 61.938404 
z
" clip-path="url(#p39ef7f314e)" style="fill: #949699; fill-opacity: 0.22; stroke: #ffffff; stroke-linejoin: miter"/>
   </g>
   <g id="patch_7">
    <path d="M 150.53904 63.771429 
L 185.9832 63.771429 
L 185.9832 62.381416 
L 150.53904 62.381416 
z
" clip-path="url(#p39ef7f314e)" style="fill: #949699; fill-opacity: 0.22; stroke: #ffffff; stroke-linejoin: miter"/>
   </g>
   <g id="patch_8">
    <path d="M 185.9832 63.771429 
L 221.42736 63.771429 
L 221.42736 62.651137 
L 185.9832 62.651137 
z
" clip-path="url(#p39ef7f314e)" style="fill: #949699; fill-opacity: 0.22; stroke: #ffffff; stroke-linejoin: miter"/>
   </g>
   <g id="patch_9">
    <path d="M 221.42736 63.771429 
L 256.87152 63.771429 
L 256.87152 62.928515 
L 221.42736 62.928515 
z
" clip-path="url(#p39ef7f314e)" style="fill: #949699; fill-opacity: 0.22; stroke: #ffffff; stroke-linejoin: miter"/>
   </g>
   <g id="patch_10">
    <path d="M 256.87152 63.771429 
L 292.31568 63.771429 
L 292.31568 63.136975 
L 256.87152 63.136975 
z
" clip-path="url(#p39ef7f314e)" style="fill: #949699; fill-opacity: 0.22; stroke: #ffffff; stroke-linejoin: miter"/>
   </g>
   <g id="patch_11">
    <path d="M 292.31568 63.771429 
L 327.75984 63.771429 
L 327.75984 63.3443 
L 292.31568 63.3443 
z
" clip-path="url(#p39ef7f314e)" style="fill: #949699; fill-opacity: 0.22; stroke: #ffffff; stroke-linejoin: miter"/>
   </g>
   <g id="patch_12">
    <path d="M 327.75984 63.771429 
L 363.204 63.771429 
L 363.204 63.48781 
L 327.75984 63.48781 
z
" clip-path="url(#p39ef7f314e)" style="fill: #949699; fill-opacity: 0.22; stroke: #ffffff; stroke-linejoin: miter"/>
   </g>
   <g id="patch_13">
    <path d="M 363.204 63.771429 
L 398.64816 63.771429 
L 398.64816 63.5607 
L 363.204 63.5607 
z
" clip-path="url(#p39ef7f314e)" style="fill: #949699; fill-opacity: 0.22; stroke: #ffffff; stroke-linejoin: miter"/>
   </g>
   <g id="patch_14">
    <path d="M 398.64816 63.771429 
L 434.09232 63.771429 
L 434.09232 63.628485 
L 398.64816 63.628485 
z
" clip-path="url(#p39ef7f314e)" style="fill: #949699; fill-opacity: 0.22; stroke: #ffffff; stroke-linejoin: miter"/>
   </g>
   <g id="patch_15">
    <path d="M 434.09232 63.771429 
L 469.53648 63.771429 
L 469.53648 63.680954 
L 434.09232 63.680954 
z
" clip-path="url(#p39ef7f314e)" style="fill: #949699; fill-opacity: 0.22; stroke: #ffffff; stroke-linejoin: miter"/>
   </g>
   <g id="patch_16">
    <path d="M 469.53648 63.771429 
L 504.98064 63.771429 
L 504.98064 63.71272 
L 469.53648 63.71272 
z
" clip-path="url(#p39ef7f314e)" style="fill: #949699; fill-opacity: 0.22; stroke: #ffffff; stroke-linejoin: miter"/>
   </g>
   <g id="patch_17">
    <path d="M 504.98064 63.771429 
L 540.4248 63.771429 
L 540.4248 63.738812 
L 504.98064 63.738812 
z
" clip-path="url(#p39ef7f314e)" style="fill: #949699; fill-opacity: 0.22; stroke: #ffffff; stroke-linejoin: miter"/>
   </g>
   <g id="patch_18">
    <path d="M 540.4248 63.771429 
L 575.86896 63.771429 
L 575.86896 63.747605 
L 540.4248 63.747605 
z
" clip-path="url(#p39ef7f314e)" style="fill: #949699; fill-opacity: 0.22; stroke: #ffffff; stroke-linejoin: miter"/>
   </g>
   <g id="patch_19">
    <path d="M 575.86896 63.771429 
L 611.31312 63.771429 
L 611.31312 63.752426 
L 575.86896 63.752426 
z
" clip-path="url(#p39ef7f314e)" style="fill: #949699; fill-opacity: 0.22; stroke: #ffffff; stroke-linejoin: miter"/>
   </g>
   <g id="patch_20">
    <path d="M 611.31312 63.771429 
L 646.75728 63.771429 
L 646.75728 63.760084 
L 611.31312 63.760084 
z
" clip-path="url(#p39ef7f314e)" style="fill: #949699; fill-opacity: 0.22; stroke: #ffffff; stroke-linejoin: miter"/>
   </g>
   <g id="patch_21">
    <path d="M 646.75728 63.771429 
L 682.20144 63.771429 
L 682.20144 63.761502 
L 646.75728 63.761502 
z
" clip-path="url(#p39ef7f314e)" style="fill: #949699; fill-opacity: 0.22; stroke: #ffffff; stroke-linejoin: miter"/>
   </g>
   <g id="patch_22">
    <path d="M 682.20144 63.771429 
L 717.6456 63.771429 
L 717.6456 63.762069 
L 682.20144 63.762069 
z
" clip-path="url(#p39ef7f314e)" style="fill: #949699; fill-opacity: 0.22; stroke: #ffffff; stroke-linejoin: miter"/>
   </g>
   <g id="patch_23">
    <path d="M 717.6456 63.771429 
L 753.08976 63.771429 
L 753.08976 63.765756 
L 717.6456 63.765756 
z
" clip-path="url(#p39ef7f314e)" style="fill: #949699; fill-opacity: 0.22; stroke: #ffffff; stroke-linejoin: miter"/>
   </g>
   <g id="patch_24">
    <path d="M 753.08976 63.771429 
L 788.53392 63.771429 
L 788.53392 63.768025 
L 753.08976 63.768025 
z
" clip-path="url(#p39ef7f314e)" style="fill: #949699; fill-opacity: 0.22; stroke: #ffffff; stroke-linejoin: miter"/>
   </g>
   <g id="patch_25">
    <path d="M 788.53392 63.771429 
L 823.97808 63.771429 
L 823.97808 63.767742 
L 788.53392 63.767742 
z
" clip-path="url(#p39ef7f314e)" style="fill: #949699; fill-opacity: 0.22; stroke: #ffffff; stroke-linejoin: miter"/>
   </g>
   <g id="patch_26">
    <path d="M 823.97808 63.771429 
L 859.42224 63.771429 
L 859.42224 63.769727 
L 823.97808 63.769727 
z
" clip-path="url(#p39ef7f314e)" style="fill: #949699; fill-opacity: 0.22; stroke: #ffffff; stroke-linejoin: miter"/>
   </g>
   <g id="patch_27">
    <path d="M 859.42224 63.771429 
L 894.8664 63.771429 
L 894.8664 63.770578 
L 859.42224 63.770578 
z
" clip-path="url(#p39ef7f314e)" style="fill: #949699; fill-opacity: 0.22; stroke: #ffffff; stroke-linejoin: miter"/>
   </g>
   <g id="patch_28">
    <path d="M 894.8664 63.771429 
L 930.31056 63.771429 
L 930.31056 63.770861 
L 894.8664 63.770861 
z
" clip-path="url(#p39ef7f314e)" style="fill: #949699; fill-opacity: 0.22; stroke: #ffffff; stroke-linejoin: miter"/>
   </g>
   <g id="patch_29">
    <path d="M 930.31056 63.771429 
L 965.75472 63.771429 
L 965.75472 63.770578 
L 930.31056 63.770578 
z
" clip-path="url(#p39ef7f314e)" style="fill: #949699; fill-opacity: 0.22; stroke: #ffffff; stroke-linejoin: miter"/>
   </g>
   <g id="patch_30">
    <path d="M 965.75472 63.771429 
L 1001.19888 63.771429 
L 1001.19888 63.771429 
L 965.75472 63.771429 
z
" clip-path="url(#p39ef7f314e)" style="fill: #949699; fill-opacity: 0.22; stroke: #ffffff; stroke-linejoin: miter"/>
   </g>
   <g id="patch_31">
    <path d="M 1001.19888 63.771429 
L 1036.64304 63.771429 
L 1036.64304 63.771429 
L 1001.19888 63.771429 
z
" clip-path="url(#p39ef7f314e)" style="fill: #949699; fill-opacity: 0.22; stroke: #ffffff; stroke-linejoin: miter"/>
   </g>
   <g id="patch_32">
    <path d="M 1036.64304 63.771429 
L 1072.0872 63.771429 
L 1072.0872 63.771429 
L 1036.64304 63.771429 
z
" clip-path="url(#p39ef7f314e)" style="fill: #949699; fill-opacity: 0.22; stroke: #ffffff; stroke-linejoin: miter"/>
   </g>
   <g id="patch_33">
    <path d="M 1072.0872 63.771429 
L 1107.53136 63.771429 
L 1107.53136 63.770861 
L 1072.0872 63.770861 
z
" clip-path="url(#p39ef7f314e)" style="fill: #949699; fill-opacity: 0.22; stroke: #ffffff; stroke-linejoin: miter"/>
   </g>
   <g id="patch_34">
    <path d="M 1107.53136 63.771429 
L 1142.97552 63.771429 
L 1142.97552 63.771145 
L 1107.53136 63.771145 
z
" clip-path="url(#p39ef7f314e)" style="fill: #949699; fill-opacity: 0.22; stroke: #ffffff; stroke-linejoin: miter"/>
   </g>
   <g id="patch_35">
    <path d="M 1142.97552 63.771429 
L 1178.41968 63.771429 
L 1178.41968 63.771429 
L 1142.97552 63.771429 
z
" clip-path="url(#p39ef7f314e)" style="fill: #949699; fill-opacity: 0.22; stroke: #ffffff; stroke-linejoin: miter"/>
   </g>
   <g id="patch_36">
    <path d="M 1178.41968 63.771429 
L 1213.86384 63.771429 
L 1213.86384 63.771429 
L 1178.41968 63.771429 
z
" clip-path="url(#p39ef7f314e)" style="fill: #949699; fill-opacity: 0.22; stroke: #ffffff; stroke-linejoin: miter"/>
   </g>
   <g id="patch_37">
    <path d="M 1213.86384 63.771429 
L 1249.308 63.771429 
L 1249.308 63.770578 
L 1213.86384 63.770578 
z
" clip-path="url(#p39ef7f314e)" style="fill: #949699; fill-opacity: 0.22; stroke: #ffffff; stroke-linejoin: miter"/>
   </g>
   <g id="patch_38">
    <path d="M 10.3248 63.771429 
L 16.449408 63.771429 
L 16.449408 49.716415 
L 10.3248 49.716415 
z
" clip-path="url(#p39ef7f314e)" style="fill: #df752f; fill-opacity: 0.42; stroke: #ffffff; stroke-width: 0.175309; stroke-linejoin: miter"/>
   </g>
   <g id="patch_39">
    <path d="M 16.449408 63.771429 
L 22.574016 63.771429 
L 22.574016 52.058917 
L 16.449408 52.058917 
z
" clip-path="url(#p39ef7f314e)" style="fill: #df752f; fill-opacity: 0.42; stroke: #ffffff; stroke-width: 0.175309; stroke-linejoin: miter"/>
   </g>
   <g id="patch_40">
    <path d="M 22.574016 63.771429 
L 28.698624 63.771429 
L 28.698624 16.921384 
L 22.574016 16.921384 
z
" clip-path="url(#p39ef7f314e)" style="fill: #df752f; fill-opacity: 0.42; stroke: #ffffff; stroke-width: 0.175309; stroke-linejoin: miter"/>
   </g>
   <g id="patch_41">
    <path d="M 28.698624 63.771429 
L 34.823232 63.771429 
L 34.823232 19.263886 
L 28.698624 19.263886 
z
" clip-path="url(#p39ef7f314e)" style="fill: #df752f; fill-opacity: 0.42; stroke: #ffffff; stroke-width: 0.175309; stroke-linejoin: miter"/>
   </g>
   <g id="patch_42">
    <path d="M 34.823232 63.771429 
L 40.94784 63.771429 
L 40.94784 9.893878 
L 34.823232 9.893878 
z
" clip-path="url(#p39ef7f314e)" style="fill: #df752f; fill-opacity: 0.42; stroke: #ffffff; stroke-width: 0.175309; stroke-linejoin: miter"/>
   </g>
   <g id="patch_43">
    <path d="M 40.94784 63.771429 
L 47.072448 63.771429 
L 47.072448 21.606389 
L 40.94784 21.606389 
z
" clip-path="url(#p39ef7f314e)" style="fill: #df752f; fill-opacity: 0.42; stroke: #ffffff; stroke-width: 0.175309; stroke-linejoin: miter"/>
   </g>
   <g id="patch_44">
    <path d="M 47.072448 63.771429 
L 53.197056 63.771429 
L 53.197056 28.633895 
L 47.072448 28.633895 
z
" clip-path="url(#p39ef7f314e)" style="fill: #df752f; fill-opacity: 0.42; stroke: #ffffff; stroke-width: 0.175309; stroke-linejoin: miter"/>
   </g>
   <g id="patch_45">
    <path d="M 53.197056 63.771429 
L 59.321664 63.771429 
L 59.321664 47.373913 
L 53.197056 47.373913 
z
" clip-path="url(#p39ef7f314e)" style="fill: #df752f; fill-opacity: 0.42; stroke: #ffffff; stroke-width: 0.175309; stroke-linejoin: miter"/>
   </g>
   <g id="patch_46">
    <path d="M 59.321664 63.771429 
L 65.446272 63.771429 
L 65.446272 49.716415 
L 59.321664 49.716415 
z
" clip-path="url(#p39ef7f314e)" style="fill: #df752f; fill-opacity: 0.42; stroke: #ffffff; stroke-width: 0.175309; stroke-linejoin: miter"/>
   </g>
   <g id="patch_47">
    <path d="M 65.446272 63.771429 
L 71.57088 63.771429 
L 71.57088 63.771429 
L 65.446272 63.771429 
z
" clip-path="url(#p39ef7f314e)" style="fill: #df752f; fill-opacity: 0.42; stroke: #ffffff; stroke-width: 0.175309; stroke-linejoin: miter"/>
   </g>
   <g id="patch_48">
    <path d="M 71.57088 63.771429 
L 77.695488 63.771429 
L 77.695488 56.743922 
L 71.57088 56.743922 
z
" clip-path="url(#p39ef7f314e)" style="fill: #df752f; fill-opacity: 0.42; stroke: #ffffff; stroke-width: 0.175309; stroke-linejoin: miter"/>
   </g>
   <g id="patch_49">
    <path d="M 77.695488 63.771429 
L 83.820096 63.771429 
L 83.820096 63.771429 
L 77.695488 63.771429 
z
" clip-path="url(#p39ef7f314e)" style="fill: #df752f; fill-opacity: 0.42; stroke: #ffffff; stroke-width: 0.175309; stroke-linejoin: miter"/>
   </g>
   <g id="patch_50">
    <path d="M 83.820096 63.771429 
L 89.944704 63.771429 
L 89.944704 63.771429 
L 83.820096 63.771429 
z
" clip-path="url(#p39ef7f314e)" style="fill: #df752f; fill-opacity: 0.42; stroke: #ffffff; stroke-width: 0.175309; stroke-linejoin: miter"/>
   </g>
   <g id="patch_51">
    <path d="M 89.944704 63.771429 
L 96.069312 63.771429 
L 96.069312 63.771429 
L 89.944704 63.771429 
z
" clip-path="url(#p39ef7f314e)" style="fill: #df752f; fill-opacity: 0.42; stroke: #ffffff; stroke-width: 0.175309; stroke-linejoin: miter"/>
   </g>
   <g id="patch_52">
    <path d="M 96.069312 63.771429 
L 102.19392 63.771429 
L 102.19392 61.428926 
L 96.069312 61.428926 
z
" clip-path="url(#p39ef7f314e)" style="fill: #df752f; fill-opacity: 0.42; stroke: #ffffff; stroke-width: 0.175309; stroke-linejoin: miter"/>
   </g>
   <g id="patch_53">
    <path d="M 102.19392 63.771429 
L 108.318528 63.771429 
L 108.318528 63.771429 
L 102.19392 63.771429 
z
" clip-path="url(#p39ef7f314e)" style="fill: #df752f; fill-opacity: 0.42; stroke: #ffffff; stroke-width: 0.175309; stroke-linejoin: miter"/>
   </g>
   <g id="patch_54">
    <path d="M 108.318528 63.771429 
L 114.443136 63.771429 
L 114.443136 63.771429 
L 108.318528 63.771429 
z
" clip-path="url(#p39ef7f314e)" style="fill: #df752f; fill-opacity: 0.42; stroke: #ffffff; stroke-width: 0.175309; stroke-linejoin: miter"/>
   </g>
   <g id="patch_55">
    <path d="M 114.443136 63.771429 
L 120.567744 63.771429 
L 120.567744 63.771429 
L 114.443136 63.771429 
z
" clip-path="url(#p39ef7f314e)" style="fill: #df752f; fill-opacity: 0.42; stroke: #ffffff; stroke-width: 0.175309; stroke-linejoin: miter"/>
   </g>
   <g id="patch_56">
    <path d="M 120.567744 63.771429 
L 126.692352 63.771429 
L 126.692352 59.086424 
L 120.567744 59.086424 
z
" clip-path="url(#p39ef7f314e)" style="fill: #df752f; fill-opacity: 0.42; stroke: #ffffff; stroke-width: 0.175309; stroke-linejoin: miter"/>
   </g>
   <g id="patch_57">
    <path d="M 126.692352 63.771429 
L 132.81696 63.771429 
L 132.81696 63.771429 
L 126.692352 63.771429 
z
" clip-path="url(#p39ef7f314e)" style="fill: #df752f; fill-opacity: 0.42; stroke: #ffffff; stroke-width: 0.175309; stroke-linejoin: miter"/>
   </g>
   <g id="patch_58">
    <path d="M 132.81696 63.771429 
L 138.941568 63.771429 
L 138.941568 63.771429 
L 132.81696 63.771429 
z
" clip-path="url(#p39ef7f314e)" style="fill: #df752f; fill-opacity: 0.42; stroke: #ffffff; stroke-width: 0.175309; stroke-linejoin: miter"/>
   </g>
   <g id="patch_59">
    <path d="M 138.941568 63.771429 
L 145.066176 63.771429 
L 145.066176 63.771429 
L 138.941568 63.771429 
z
" clip-path="url(#p39ef7f314e)" style="fill: #df752f; fill-opacity: 0.42; stroke: #ffffff; stroke-width: 0.175309; stroke-linejoin: miter"/>
   </g>
   <g id="patch_60">
    <path d="M 145.066176 63.771429 
L 151.190784 63.771429 
L 151.190784 63.771429 
L 145.066176 63.771429 
z
" clip-path="url(#p39ef7f314e)" style="fill: #df752f; fill-opacity: 0.42; stroke: #ffffff; stroke-width: 0.175309; stroke-linejoin: miter"/>
   </g>
   <g id="patch_61">
    <path d="M 151.190784 63.771429 
L 157.315392 63.771429 
L 157.315392 63.771429 
L 151.190784 63.771429 
z
" clip-path="url(#p39ef7f314e)" style="fill: #df752f; fill-opacity: 0.42; stroke: #ffffff; stroke-width: 0.175309; stroke-linejoin: miter"/>
   </g>
   <g id="patch_62">
    <path d="M 157.315392 63.771429 
L 163.44 63.771429 
L 163.44 61.428926 
L 157.315392 61.428926 
z
" clip-path="url(#p39ef7f314e)" style="fill: #df752f; fill-opacity: 0.42; stroke: #ffffff; stroke-width: 0.175309; stroke-linejoin: miter"/>
   </g>
   <g id="line2d_7">
    <path d="M -1 63.624704 
L 1.913918 63.52349 
L 8.345931 62.312261 
L 14.777944 57.96012 
L 21.209957 47.343477 
L 27.641971 32.436927 
L 34.073984 23.734006 
L 40.505997 27.553764 
L 46.93801 37.200458 
L 53.370023 44.040733 
L 59.802036 48.235916 
L 66.234049 51.6944 
L 72.666063 54.671185 
L 79.098076 57.03105 
L 85.530089 58.527068 
L 91.962102 59.334937 
L 111.258141 60.946977 
L 124.122168 61.647807 
L 136.986194 62.045899 
L 162.714247 62.375107 
L 182.010286 62.496413 
L 265.626457 63.111116 
L 304.218536 63.321248 
L 355.674641 63.496728 
L 406 63.611985 
L 406 63.611985 
" clip-path="url(#p39ef7f314e)" style="fill: none; stroke: #949699; stroke-width: 1.8; stroke-linecap: round"/>
   </g>
   <g id="line2d_8">
    <path d="M -1 62.776157 
L 0.693931 62.287351 
L 2.710036 61.465286 
L 4.72614 60.33431 
L 6.742245 58.839639 
L 8.75835 56.933204 
L 10.774454 54.577453 
L 12.790559 51.751449 
L 14.806663 48.460693 
L 16.822768 44.749827 
L 19.846924 38.619956 
L 23.879133 30.313182 
L 25.895238 26.603151 
L 27.911343 23.485496 
L 28.919395 22.205253 
L 29.927447 21.132716 
L 30.935499 20.278254 
L 31.943552 19.646945 
L 32.951604 19.238534 
L 33.959656 19.04762 
L 34.967708 19.064116 
L 35.975761 19.273924 
L 36.983813 19.659841 
L 37.991865 20.202603 
L 40.00797 21.678198 
L 42.024074 23.548444 
L 44.040179 25.694482 
L 47.064336 29.289642 
L 50.088492 33.284593 
L 53.112649 37.649081 
L 60.169015 48.073168 
L 62.18512 50.653498 
L 64.201224 52.906758 
L 66.217329 54.811755 
L 68.233433 56.387274 
L 70.249538 57.680424 
L 72.265642 58.750786 
L 75.289799 60.058735 
L 78.313956 61.114858 
L 81.338113 61.953046 
L 84.362269 62.55253 
L 87.386426 62.899815 
L 90.410583 63.031106 
L 107.547471 63.108557 
L 111.57968 62.926776 
L 120.652151 62.318001 
L 123.676308 62.387713 
L 127.708517 62.73352 
L 134.764883 63.433434 
L 139.805144 63.670285 
L 145.853457 63.69863 
L 151.901771 63.520746 
L 163.998398 63.050051 
L 169.03866 63.208332 
L 180.127234 63.6931 
L 187.1836 63.763395 
L 187.1836 63.763395 
" clip-path="url(#p39ef7f314e)" style="fill: none; stroke: #df752f; stroke-width: 1.8; stroke-linecap: round"/>
   </g>
   <g id="patch_63">
    <path d="M 7.2 63.771429 
L 7.2 7.2 
" style="fill: none; stroke: #262626; stroke-width: 1.1; stroke-linejoin: miter; stroke-linecap: square"/>
   </g>
   <g id="patch_64">
    <path d="M 397.8 63.771429 
L 397.8 7.2 
" style="fill: none; stroke: #262626; stroke-width: 1.1; stroke-linejoin: miter; stroke-linecap: square"/>
   </g>
   <g id="patch_65">
    <path d="M 7.2 63.771429 
L 397.8 63.771429 
" style="fill: none; stroke: #262626; stroke-width: 1.1; stroke-linejoin: miter; stroke-linecap: square"/>
   </g>
   <g id="patch_66">
    <path d="M 7.2 7.2 
L 397.8 7.2 
" style="fill: none; stroke: #262626; stroke-width: 1.1; stroke-linejoin: miter; stroke-linecap: square"/>
   </g>
  </g>
  <g id="axes_2">
   <g id="patch_67">
    <path d="M 7.2 137.314286 
L 397.8 137.314286 
L 397.8 80.742857 
L 7.2 80.742857 
z
" style="fill: #ffffff"/>
   </g>
   <g id="matplotlib.axis_3">
    <g id="xtick_7">
     <g id="line2d_9">
      <g>
       <use xlink:href="#mac5f6de297" x="7.2" y="137.314286" style="fill: #262626; stroke: #262626; stroke-width: 1.1"/>
      </g>
     </g>
    </g>
    <g id="xtick_8">
     <g id="line2d_10">
      <g>
       <use xlink:href="#mac5f6de297" x="85.32" y="137.314286" style="fill: #262626; stroke: #262626; stroke-width: 1.1"/>
      </g>
     </g>
    </g>
    <g id="xtick_9">
     <g id="line2d_11">
      <g>
       <use xlink:href="#mac5f6de297" x="163.44" y="137.314286" style="fill: #262626; stroke: #262626; stroke-width: 1.1"/>
      </g>
     </g>
    </g>
    <g id="xtick_10">
     <g id="line2d_12">
      <g>
       <use xlink:href="#mac5f6de297" x="241.56" y="137.314286" style="fill: #262626; stroke: #262626; stroke-width: 1.1"/>
      </g>
     </g>
    </g>
    <g id="xtick_11">
     <g id="line2d_13">
      <g>
       <use xlink:href="#mac5f6de297" x="319.68" y="137.314286" style="fill: #262626; stroke: #262626; stroke-width: 1.1"/>
      </g>
     </g>
    </g>
    <g id="xtick_12">
     <g id="line2d_14">
      <g>
       <use xlink:href="#mac5f6de297" x="397.8" y="137.314286" style="fill: #262626; stroke: #262626; stroke-width: 1.1"/>
      </g>
     </g>
    </g>
   </g>
   <g id="matplotlib.axis_4"/>
   <g id="patch_68">
    <path d="M 7.2 137.314286 
L 42.73344 137.314286 
L 42.73344 113.684738 
L 7.2 113.684738 
z
" clip-path="url(#p2d9905f80e)" style="fill: #949699; fill-opacity: 0.22; stroke: #ffffff; stroke-linejoin: miter"/>
   </g>
   <g id="patch_69">
    <path d="M 42.73344 137.314286 
L 78.26688 137.314286 
L 78.26688 120.642904 
L 42.73344 120.642904 
z
" clip-path="url(#p2d9905f80e)" style="fill: #949699; fill-opacity: 0.22; stroke: #ffffff; stroke-linejoin: miter"/>
   </g>
   <g id="patch_70">
    <path d="M 78.26688 137.314286 
L 113.80032 137.314286 
L 113.80032 132.619609 
L 78.26688 132.619609 
z
" clip-path="url(#p2d9905f80e)" style="fill: #949699; fill-opacity: 0.22; stroke: #ffffff; stroke-linejoin: miter"/>
   </g>
   <g id="patch_71">
    <path d="M 113.80032 137.314286 
L 149.33376 137.314286 
L 149.33376 135.228256 
L 113.80032 135.228256 
z
" clip-path="url(#p2d9905f80e)" style="fill: #949699; fill-opacity: 0.22; stroke: #ffffff; stroke-linejoin: miter"/>
   </g>
   <g id="patch_72">
    <path d="M 149.33376 137.314286 
L 184.8672 137.314286 
L 184.8672 135.882488 
L 149.33376 135.882488 
z
" clip-path="url(#p2d9905f80e)" style="fill: #949699; fill-opacity: 0.22; stroke: #ffffff; stroke-linejoin: miter"/>
   </g>
   <g id="patch_73">
    <path d="M 184.8672 137.314286 
L 220.40064 137.314286 
L 220.40064 136.070003 
L 184.8672 136.070003 
z
" clip-path="url(#p2d9905f80e)" style="fill: #949699; fill-opacity: 0.22; stroke: #ffffff; stroke-linejoin: miter"/>
   </g>
   <g id="patch_74">
    <path d="M 220.40064 137.314286 
L 255.93408 137.314286 
L 255.93408 136.329093 
L 220.40064 136.329093 
z
" clip-path="url(#p2d9905f80e)" style="fill: #949699; fill-opacity: 0.22; stroke: #ffffff; stroke-linejoin: miter"/>
   </g>
   <g id="patch_75">
    <path d="M 255.93408 137.314286 
L 291.46752 137.314286 
L 291.46752 136.615097 
L 255.93408 136.615097 
z
" clip-path="url(#p2d9905f80e)" style="fill: #949699; fill-opacity: 0.22; stroke: #ffffff; stroke-linejoin: miter"/>
   </g>
   <g id="patch_76">
    <path d="M 291.46752 137.314286 
L 327.00096 137.314286 
L 327.00096 136.762388 
L 291.46752 136.762388 
z
" clip-path="url(#p2d9905f80e)" style="fill: #949699; fill-opacity: 0.22; stroke: #ffffff; stroke-linejoin: miter"/>
   </g>
   <g id="patch_77">
    <path d="M 327.00096 137.314286 
L 362.5344 137.314286 
L 362.5344 136.967058 
L 327.00096 136.967058 
z
" clip-path="url(#p2d9905f80e)" style="fill: #949699; fill-opacity: 0.22; stroke: #ffffff; stroke-linejoin: miter"/>
   </g>
   <g id="patch_78">
    <path d="M 362.5344 137.314286 
L 398.06784 137.314286 
L 398.06784 137.059632 
L 362.5344 137.059632 
z
" clip-path="url(#p2d9905f80e)" style="fill: #949699; fill-opacity: 0.22; stroke: #ffffff; stroke-linejoin: miter"/>
   </g>
   <g id="patch_79">
    <path d="M 398.06784 137.314286 
L 433.60128 137.314286 
L 433.60128 137.137123 
L 398.06784 137.137123 
z
" clip-path="url(#p2d9905f80e)" style="fill: #949699; fill-opacity: 0.22; stroke: #ffffff; stroke-linejoin: miter"/>
   </g>
   <g id="patch_80">
    <path d="M 433.60128 137.314286 
L 469.13472 137.314286 
L 469.13472 137.185628 
L 433.60128 137.185628 
z
" clip-path="url(#p2d9905f80e)" style="fill: #949699; fill-opacity: 0.22; stroke: #ffffff; stroke-linejoin: miter"/>
   </g>
   <g id="patch_81">
    <path d="M 469.13472 137.314286 
L 504.66816 137.314286 
L 504.66816 137.221416 
L 469.13472 137.221416 
z
" clip-path="url(#p2d9905f80e)" style="fill: #949699; fill-opacity: 0.22; stroke: #ffffff; stroke-linejoin: miter"/>
   </g>
   <g id="patch_82">
    <path d="M 504.66816 137.314286 
L 540.2016 137.314286 
L 540.2016 137.259865 
L 504.66816 137.259865 
z
" clip-path="url(#p2d9905f80e)" style="fill: #949699; fill-opacity: 0.22; stroke: #ffffff; stroke-linejoin: miter"/>
   </g>
   <g id="patch_83">
    <path d="M 540.2016 137.314286 
L 575.73504 137.314286 
L 575.73504 137.278794 
L 540.2016 137.278794 
z
" clip-path="url(#p2d9905f80e)" style="fill: #949699; fill-opacity: 0.22; stroke: #ffffff; stroke-linejoin: miter"/>
   </g>
   <g id="patch_84">
    <path d="M 575.73504 137.314286 
L 611.26848 137.314286 
L 611.26848 137.293286 
L 575.73504 137.293286 
z
" clip-path="url(#p2d9905f80e)" style="fill: #949699; fill-opacity: 0.22; stroke: #ffffff; stroke-linejoin: miter"/>
   </g>
   <g id="patch_85">
    <path d="M 611.26848 137.314286 
L 646.80192 137.314286 
L 646.80192 137.297131 
L 611.26848 137.297131 
z
" clip-path="url(#p2d9905f80e)" style="fill: #949699; fill-opacity: 0.22; stroke: #ffffff; stroke-linejoin: miter"/>
   </g>
   <g id="patch_86">
    <path d="M 646.80192 137.314286 
L 682.33536 137.314286 
L 682.33536 137.300681 
L 646.80192 137.300681 
z
" clip-path="url(#p2d9905f80e)" style="fill: #949699; fill-opacity: 0.22; stroke: #ffffff; stroke-linejoin: miter"/>
   </g>
   <g id="patch_87">
    <path d="M 682.33536 137.314286 
L 717.8688 137.314286 
L 717.8688 137.302159 
L 682.33536 137.302159 
z
" clip-path="url(#p2d9905f80e)" style="fill: #949699; fill-opacity: 0.22; stroke: #ffffff; stroke-linejoin: miter"/>
   </g>
   <g id="patch_88">
    <path d="M 717.8688 137.314286 
L 753.40224 137.314286 
L 753.40224 137.30423 
L 717.8688 137.30423 
z
" clip-path="url(#p2d9905f80e)" style="fill: #949699; fill-opacity: 0.22; stroke: #ffffff; stroke-linejoin: miter"/>
   </g>
   <g id="patch_89">
    <path d="M 753.40224 137.314286 
L 788.93568 137.314286 
L 788.93568 137.307779 
L 753.40224 137.307779 
z
" clip-path="url(#p2d9905f80e)" style="fill: #949699; fill-opacity: 0.22; stroke: #ffffff; stroke-linejoin: miter"/>
   </g>
   <g id="patch_90">
    <path d="M 788.93568 137.314286 
L 824.46912 137.314286 
L 824.46912 137.307779 
L 788.93568 137.307779 
z
" clip-path="url(#p2d9905f80e)" style="fill: #949699; fill-opacity: 0.22; stroke: #ffffff; stroke-linejoin: miter"/>
   </g>
   <g id="patch_91">
    <path d="M 824.46912 137.314286 
L 860.00256 137.314286 
L 860.00256 137.311032 
L 824.46912 137.311032 
z
" clip-path="url(#p2d9905f80e)" style="fill: #949699; fill-opacity: 0.22; stroke: #ffffff; stroke-linejoin: miter"/>
   </g>
   <g id="patch_92">
    <path d="M 860.00256 137.314286 
L 895.536 137.314286 
L 895.536 137.31192 
L 860.00256 137.31192 
z
" clip-path="url(#p2d9905f80e)" style="fill: #949699; fill-opacity: 0.22; stroke: #ffffff; stroke-linejoin: miter"/>
   </g>
   <g id="patch_93">
    <path d="M 895.536 137.314286 
L 931.06944 137.314286 
L 931.06944 137.311032 
L 895.536 137.311032 
z
" clip-path="url(#p2d9905f80e)" style="fill: #949699; fill-opacity: 0.22; stroke: #ffffff; stroke-linejoin: miter"/>
   </g>
   <g id="patch_94">
    <path d="M 931.06944 137.314286 
L 966.60288 137.314286 
L 966.60288 137.312215 
L 931.06944 137.312215 
z
" clip-path="url(#p2d9905f80e)" style="fill: #949699; fill-opacity: 0.22; stroke: #ffffff; stroke-linejoin: miter"/>
   </g>
   <g id="patch_95">
    <path d="M 966.60288 137.314286 
L 1002.13632 137.314286 
L 1002.13632 137.313103 
L 966.60288 137.313103 
z
" clip-path="url(#p2d9905f80e)" style="fill: #949699; fill-opacity: 0.22; stroke: #ffffff; stroke-linejoin: miter"/>
   </g>
   <g id="patch_96">
    <path d="M 1002.13632 137.314286 
L 1037.66976 137.314286 
L 1037.66976 137.314286 
L 1002.13632 137.314286 
z
" clip-path="url(#p2d9905f80e)" style="fill: #949699; fill-opacity: 0.22; stroke: #ffffff; stroke-linejoin: miter"/>
   </g>
   <g id="patch_97">
    <path d="M 1037.66976 137.314286 
L 1073.2032 137.314286 
L 1073.2032 137.313694 
L 1037.66976 137.313694 
z
" clip-path="url(#p2d9905f80e)" style="fill: #949699; fill-opacity: 0.22; stroke: #ffffff; stroke-linejoin: miter"/>
   </g>
   <g id="patch_98">
    <path d="M 1073.2032 137.314286 
L 1108.73664 137.314286 
L 1108.73664 137.313694 
L 1073.2032 137.313694 
z
" clip-path="url(#p2d9905f80e)" style="fill: #949699; fill-opacity: 0.22; stroke: #ffffff; stroke-linejoin: miter"/>
   </g>
   <g id="patch_99">
    <path d="M 1108.73664 137.314286 
L 1144.27008 137.314286 
L 1144.27008 137.314286 
L 1108.73664 137.314286 
z
" clip-path="url(#p2d9905f80e)" style="fill: #949699; fill-opacity: 0.22; stroke: #ffffff; stroke-linejoin: miter"/>
   </g>
   <g id="patch_100">
    <path d="M 1144.27008 137.314286 
L 1179.80352 137.314286 
L 1179.80352 137.31399 
L 1144.27008 137.31399 
z
" clip-path="url(#p2d9905f80e)" style="fill: #949699; fill-opacity: 0.22; stroke: #ffffff; stroke-linejoin: miter"/>
   </g>
   <g id="patch_101">
    <path d="M 1179.80352 137.314286 
L 1215.33696 137.314286 
L 1215.33696 137.314286 
L 1179.80352 137.314286 
z
" clip-path="url(#p2d9905f80e)" style="fill: #949699; fill-opacity: 0.22; stroke: #ffffff; stroke-linejoin: miter"/>
   </g>
   <g id="patch_102">
    <path d="M 1215.33696 137.314286 
L 1250.8704 137.314286 
L 1250.8704 137.313398 
L 1215.33696 137.313398 
z
" clip-path="url(#p2d9905f80e)" style="fill: #949699; fill-opacity: 0.22; stroke: #ffffff; stroke-linejoin: miter"/>
   </g>
   <g id="patch_103">
    <path d="M 8.7624 137.314286 
L 14.887008 137.314286 
L 14.887008 122.620408 
L 8.7624 122.620408 
z
" clip-path="url(#p2d9905f80e)" style="fill: #df752f; fill-opacity: 0.42; stroke: #ffffff; stroke-width: 0.174869; stroke-linejoin: miter"/>
   </g>
   <g id="patch_104">
    <path d="M 14.887008 137.314286 
L 21.011616 137.314286 
L 21.011616 129.967347 
L 14.887008 129.967347 
z
" clip-path="url(#p2d9905f80e)" style="fill: #df752f; fill-opacity: 0.42; stroke: #ffffff; stroke-width: 0.174869; stroke-linejoin: miter"/>
   </g>
   <g id="patch_105">
    <path d="M 21.011616 137.314286 
L 27.136224 137.314286 
L 27.136224 88.334694 
L 21.011616 88.334694 
z
" clip-path="url(#p2d9905f80e)" style="fill: #df752f; fill-opacity: 0.42; stroke: #ffffff; stroke-width: 0.174869; stroke-linejoin: miter"/>
   </g>
   <g id="patch_106">
    <path d="M 27.136224 137.314286 
L 33.260832 137.314286 
L 33.260832 95.681633 
L 27.136224 95.681633 
z
" clip-path="url(#p2d9905f80e)" style="fill: #df752f; fill-opacity: 0.42; stroke: #ffffff; stroke-width: 0.174869; stroke-linejoin: miter"/>
   </g>
   <g id="patch_107">
    <path d="M 33.260832 137.314286 
L 39.38544 137.314286 
L 39.38544 83.436735 
L 33.260832 83.436735 
z
" clip-path="url(#p2d9905f80e)" style="fill: #df752f; fill-opacity: 0.42; stroke: #ffffff; stroke-width: 0.174869; stroke-linejoin: miter"/>
   </g>
   <g id="patch_108">
    <path d="M 39.38544 137.314286 
L 45.510048 137.314286 
L 45.510048 105.477551 
L 39.38544 105.477551 
z
" clip-path="url(#p2d9905f80e)" style="fill: #df752f; fill-opacity: 0.42; stroke: #ffffff; stroke-width: 0.174869; stroke-linejoin: miter"/>
   </g>
   <g id="patch_109">
    <path d="M 45.510048 137.314286 
L 51.634656 137.314286 
L 51.634656 85.885714 
L 45.510048 85.885714 
z
" clip-path="url(#p2d9905f80e)" style="fill: #df752f; fill-opacity: 0.42; stroke: #ffffff; stroke-width: 0.174869; stroke-linejoin: miter"/>
   </g>
   <g id="patch_110">
    <path d="M 51.634656 137.314286 
L 57.759264 137.314286 
L 57.759264 112.82449 
L 51.634656 112.82449 
z
" clip-path="url(#p2d9905f80e)" style="fill: #df752f; fill-opacity: 0.42; stroke: #ffffff; stroke-width: 0.174869; stroke-linejoin: miter"/>
   </g>
   <g id="patch_111">
    <path d="M 57.759264 137.314286 
L 63.883872 137.314286 
L 63.883872 122.620408 
L 57.759264 122.620408 
z
" clip-path="url(#p2d9905f80e)" style="fill: #df752f; fill-opacity: 0.42; stroke: #ffffff; stroke-width: 0.174869; stroke-linejoin: miter"/>
   </g>
   <g id="patch_112">
    <path d="M 63.883872 137.314286 
L 70.00848 137.314286 
L 70.00848 132.416327 
L 63.883872 132.416327 
z
" clip-path="url(#p2d9905f80e)" style="fill: #df752f; fill-opacity: 0.42; stroke: #ffffff; stroke-width: 0.174869; stroke-linejoin: miter"/>
   </g>
   <g id="patch_113">
    <path d="M 70.00848 137.314286 
L 76.133088 137.314286 
L 76.133088 132.416327 
L 70.00848 132.416327 
z
" clip-path="url(#p2d9905f80e)" style="fill: #df752f; fill-opacity: 0.42; stroke: #ffffff; stroke-width: 0.174869; stroke-linejoin: miter"/>
   </g>
   <g id="patch_114">
    <path d="M 76.133088 137.314286 
L 82.257696 137.314286 
L 82.257696 137.314286 
L 76.133088 137.314286 
z
" clip-path="url(#p2d9905f80e)" style="fill: #df752f; fill-opacity: 0.42; stroke: #ffffff; stroke-width: 0.174869; stroke-linejoin: miter"/>
   </g>
   <g id="patch_115">
    <path d="M 82.257696 137.314286 
L 88.382304 137.314286 
L 88.382304 137.314286 
L 82.257696 137.314286 
z
" clip-path="url(#p2d9905f80e)" style="fill: #df752f; fill-opacity: 0.42; stroke: #ffffff; stroke-width: 0.174869; stroke-linejoin: miter"/>
   </g>
   <g id="patch_116">
    <path d="M 88.382304 137.314286 
L 94.506912 137.314286 
L 94.506912 137.314286 
L 88.382304 137.314286 
z
" clip-path="url(#p2d9905f80e)" style="fill: #df752f; fill-opacity: 0.42; stroke: #ffffff; stroke-width: 0.174869; stroke-linejoin: miter"/>
   </g>
   <g id="patch_117">
    <path d="M 94.506912 137.314286 
L 100.63152 137.314286 
L 100.63152 137.314286 
L 94.506912 137.314286 
z
" clip-path="url(#p2d9905f80e)" style="fill: #df752f; fill-opacity: 0.42; stroke: #ffffff; stroke-width: 0.174869; stroke-linejoin: miter"/>
   </g>
   <g id="patch_118">
    <path d="M 100.63152 137.314286 
L 106.756128 137.314286 
L 106.756128 134.865306 
L 100.63152 134.865306 
z
" clip-path="url(#p2d9905f80e)" style="fill: #df752f; fill-opacity: 0.42; stroke: #ffffff; stroke-width: 0.174869; stroke-linejoin: miter"/>
   </g>
   <g id="patch_119">
    <path d="M 106.756128 137.314286 
L 112.880736 137.314286 
L 112.880736 137.314286 
L 106.756128 137.314286 
z
" clip-path="url(#p2d9905f80e)" style="fill: #df752f; fill-opacity: 0.42; stroke: #ffffff; stroke-width: 0.174869; stroke-linejoin: miter"/>
   </g>
   <g id="patch_120">
    <path d="M 112.880736 137.314286 
L 119.005344 137.314286 
L 119.005344 137.314286 
L 112.880736 137.314286 
z
" clip-path="url(#p2d9905f80e)" style="fill: #df752f; fill-opacity: 0.42; stroke: #ffffff; stroke-width: 0.174869; stroke-linejoin: miter"/>
   </g>
   <g id="patch_121">
    <path d="M 119.005344 137.314286 
L 125.129952 137.314286 
L 125.129952 132.416327 
L 119.005344 132.416327 
z
" clip-path="url(#p2d9905f80e)" style="fill: #df752f; fill-opacity: 0.42; stroke: #ffffff; stroke-width: 0.174869; stroke-linejoin: miter"/>
   </g>
   <g id="patch_122">
    <path d="M 125.129952 137.314286 
L 131.25456 137.314286 
L 131.25456 137.314286 
L 125.129952 137.314286 
z
" clip-path="url(#p2d9905f80e)" style="fill: #df752f; fill-opacity: 0.42; stroke: #ffffff; stroke-width: 0.174869; stroke-linejoin: miter"/>
   </g>
   <g id="patch_123">
    <path d="M 131.25456 137.314286 
L 137.379168 137.314286 
L 137.379168 137.314286 
L 131.25456 137.314286 
z
" clip-path="url(#p2d9905f80e)" style="fill: #df752f; fill-opacity: 0.42; stroke: #ffffff; stroke-width: 0.174869; stroke-linejoin: miter"/>
   </g>
   <g id="patch_124">
    <path d="M 137.379168 137.314286 
L 143.503776 137.314286 
L 143.503776 137.314286 
L 137.379168 137.314286 
z
" clip-path="url(#p2d9905f80e)" style="fill: #df752f; fill-opacity: 0.42; stroke: #ffffff; stroke-width: 0.174869; stroke-linejoin: miter"/>
   </g>
   <g id="patch_125">
    <path d="M 143.503776 137.314286 
L 149.628384 137.314286 
L 149.628384 137.314286 
L 143.503776 137.314286 
z
" clip-path="url(#p2d9905f80e)" style="fill: #df752f; fill-opacity: 0.42; stroke: #ffffff; stroke-width: 0.174869; stroke-linejoin: miter"/>
   </g>
   <g id="patch_126">
    <path d="M 149.628384 137.314286 
L 155.752992 137.314286 
L 155.752992 137.314286 
L 149.628384 137.314286 
z
" clip-path="url(#p2d9905f80e)" style="fill: #df752f; fill-opacity: 0.42; stroke: #ffffff; stroke-width: 0.174869; stroke-linejoin: miter"/>
   </g>
   <g id="patch_127">
    <path d="M 155.752992 137.314286 
L 161.8776 137.314286 
L 161.8776 134.865306 
L 155.752992 134.865306 
z
" clip-path="url(#p2d9905f80e)" style="fill: #df752f; fill-opacity: 0.42; stroke: #ffffff; stroke-width: 0.174869; stroke-linejoin: miter"/>
   </g>
   <g id="line2d_15">
    <path d="M -1 136.894362 
L 5.248595 135.682871 
L 11.712705 132.51851 
L 18.176815 125.583118 
L 24.640925 113.956329 
L 31.105035 102.982463 
L 37.569145 100.105542 
L 44.033255 105.897936 
L 50.497365 113.887362 
L 56.961474 119.219581 
L 63.425584 122.67794 
L 69.889694 125.660789 
L 76.353804 128.344198 
L 82.817914 130.507752 
L 89.282024 131.996376 
L 95.746134 132.841614 
L 128.066683 135.055142 
L 140.994903 135.524211 
L 153.923123 135.792829 
L 173.315452 135.962555 
L 199.171892 136.058241 
L 257.348881 136.481267 
L 360.774639 137.030803 
L 406 137.101272 
L 406 137.101272 
" clip-path="url(#p2d9905f80e)" style="fill: none; stroke: #949699; stroke-width: 1.8; stroke-linecap: round"/>
   </g>
   <g id="line2d_16">
    <path d="M -1 135.490525 
L 0.760287 134.726434 
L 2.785669 133.579688 
L 4.811052 132.126539 
L 6.836434 130.345173 
L 8.861816 128.219147 
L 10.887199 125.738089 
L 12.912581 122.903871 
L 14.937964 119.742112 
L 17.976037 114.532742 
L 23.039493 105.67065 
L 25.064875 102.534848 
L 27.090258 99.85678 
L 29.11564 97.734151 
L 30.128331 96.897477 
L 31.141022 96.212584 
L 32.153713 95.677025 
L 33.166405 95.285527 
L 34.179096 95.030437 
L 35.191787 94.902282 
L 37.217169 94.984051 
L 39.242552 95.447278 
L 41.267934 96.230173 
L 43.293316 97.313688 
L 45.318699 98.726421 
L 47.344081 100.527239 
L 49.369463 102.769286 
L 51.394846 105.459319 
L 53.420228 108.530681 
L 60.509066 119.965466 
L 62.534449 122.74589 
L 64.559831 125.149373 
L 66.585213 127.18848 
L 68.610596 128.912985 
L 70.635978 130.384463 
L 73.674052 132.230994 
L 76.712125 133.735524 
L 79.750199 134.92989 
L 82.788272 135.810125 
L 85.826346 136.377873 
L 88.864419 136.663398 
L 91.902493 136.730016 
L 97.97864 136.555072 
L 121.270537 135.828069 
L 125.321301 136.143632 
L 134.435522 137.032474 
L 139.498978 137.225546 
L 145.575125 137.209333 
L 151.651272 136.981541 
L 160.765492 136.579665 
L 164.816257 136.620251 
L 171.905095 136.971688 
L 178.993933 137.236133 
L 186.082772 137.306047 
L 186.082772 137.306047 
" clip-path="url(#p2d9905f80e)" style="fill: none; stroke: #df752f; stroke-width: 1.8; stroke-linecap: round"/>
   </g>
   <g id="patch_128">
    <path d="M 7.2 137.314286 
L 7.2 80.742857 
" style="fill: none; stroke: #262626; stroke-width: 1.1; stroke-linejoin: miter; stroke-linecap: square"/>
   </g>
   <g id="patch_129">
    <path d="M 397.8 137.314286 
L 397.8 80.742857 
" style="fill: none; stroke: #262626; stroke-width: 1.1; stroke-linejoin: miter; stroke-linecap: square"/>
   </g>
   <g id="patch_130">
    <path d="M 7.2 137.314286 
L 397.8 137.314286 
" style="fill: none; stroke: #262626; stroke-width: 1.1; stroke-linejoin: miter; stroke-linecap: square"/>
   </g>
   <g id="patch_131">
    <path d="M 7.2 80.742857 
L 397.8 80.742857 
" style="fill: none; stroke: #262626; stroke-width: 1.1; stroke-linejoin: miter; stroke-linecap: square"/>
   </g>
  </g>
  <g id="axes_3">
   <g id="patch_132">
    <path d="M 7.2 210.857143 
L 397.8 210.857143 
L 397.8 154.285714 
L 7.2 154.285714 
z
" style="fill: #ffffff"/>
   </g>
   <g id="matplotlib.axis_5">
    <g id="xtick_13">
     <g id="line2d_17">
      <g>
       <use xlink:href="#mac5f6de297" x="7.2" y="210.857143" style="fill: #262626; stroke: #262626; stroke-width: 1.1"/>
      </g>
     </g>
    </g>
    <g id="xtick_14">
     <g id="line2d_18">
      <g>
       <use xlink:href="#mac5f6de297" x="85.32" y="210.857143" style="fill: #262626; stroke: #262626; stroke-width: 1.1"/>
      </g>
     </g>
    </g>
    <g id="xtick_15">
     <g id="line2d_19">
      <g>
       <use xlink:href="#mac5f6de297" x="163.44" y="210.857143" style="fill: #262626; stroke: #262626; stroke-width: 1.1"/>
      </g>
     </g>
    </g>
    <g id="xtick_16">
     <g id="line2d_20">
      <g>
       <use xlink:href="#mac5f6de297" x="241.56" y="210.857143" style="fill: #262626; stroke: #262626; stroke-width: 1.1"/>
      </g>
     </g>
    </g>
    <g id="xtick_17">
     <g id="line2d_21">
      <g>
       <use xlink:href="#mac5f6de297" x="319.68" y="210.857143" style="fill: #262626; stroke: #262626; stroke-width: 1.1"/>
      </g>
     </g>
    </g>
    <g id="xtick_18">
     <g id="line2d_22">
      <g>
       <use xlink:href="#mac5f6de297" x="397.8" y="210.857143" style="fill: #262626; stroke: #262626; stroke-width: 1.1"/>
      </g>
     </g>
    </g>
   </g>
   <g id="matplotlib.axis_6"/>
   <g id="patch_133">
    <path d="M 7.2 210.857143 
L 20.935385 210.857143 
L 20.935385 210.68805 
L 7.2 210.68805 
z
" clip-path="url(#paf26e39c22)" style="fill: #949699; fill-opacity: 0.22; stroke: #ffffff; stroke-linejoin: miter"/>
   </g>
   <g id="patch_134">
    <path d="M 20.935385 210.857143 
L 34.670769 210.857143 
L 34.670769 210.85353 
L 20.935385 210.85353 
z
" clip-path="url(#paf26e39c22)" style="fill: #949699; fill-opacity: 0.22; stroke: #ffffff; stroke-linejoin: miter"/>
   </g>
   <g id="patch_135">
    <path d="M 34.670769 210.857143 
L 48.406154 210.857143 
L 48.406154 210.852085 
L 34.670769 210.852085 
z
" clip-path="url(#paf26e39c22)" style="fill: #949699; fill-opacity: 0.22; stroke: #ffffff; stroke-linejoin: miter"/>
   </g>
   <g id="patch_136">
    <path d="M 48.406154 210.857143 
L 62.141538 210.857143 
L 62.141538 210.834742 
L 48.406154 210.834742 
z
" clip-path="url(#paf26e39c22)" style="fill: #949699; fill-opacity: 0.22; stroke: #ffffff; stroke-linejoin: miter"/>
   </g>
   <g id="patch_137">
    <path d="M 62.141538 210.857143 
L 75.876923 210.857143 
L 75.876923 210.828238 
L 62.141538 210.828238 
z
" clip-path="url(#paf26e39c22)" style="fill: #949699; fill-opacity: 0.22; stroke: #ffffff; stroke-linejoin: miter"/>
   </g>
   <g id="patch_138">
    <path d="M 75.876923 210.857143 
L 89.612308 210.857143 
L 89.612308 210.792107 
L 75.876923 210.792107 
z
" clip-path="url(#paf26e39c22)" style="fill: #949699; fill-opacity: 0.22; stroke: #ffffff; stroke-linejoin: miter"/>
   </g>
   <g id="patch_139">
    <path d="M 89.612308 210.857143 
L 103.347692 210.857143 
L 103.347692 210.801501 
L 89.612308 210.801501 
z
" clip-path="url(#paf26e39c22)" style="fill: #949699; fill-opacity: 0.22; stroke: #ffffff; stroke-linejoin: miter"/>
   </g>
   <g id="patch_140">
    <path d="M 103.347692 210.857143 
L 117.083077 210.857143 
L 117.083077 210.735743 
L 103.347692 210.735743 
z
" clip-path="url(#paf26e39c22)" style="fill: #949699; fill-opacity: 0.22; stroke: #ffffff; stroke-linejoin: miter"/>
   </g>
   <g id="patch_141">
    <path d="M 117.083077 210.857143 
L 130.818462 210.857143 
L 130.818462 210.708283 
L 117.083077 210.708283 
z
" clip-path="url(#paf26e39c22)" style="fill: #949699; fill-opacity: 0.22; stroke: #ffffff; stroke-linejoin: miter"/>
   </g>
   <g id="patch_142">
    <path d="M 130.818462 210.857143 
L 144.553846 210.857143 
L 144.553846 210.59411 
L 130.818462 210.59411 
z
" clip-path="url(#paf26e39c22)" style="fill: #949699; fill-opacity: 0.22; stroke: #ffffff; stroke-linejoin: miter"/>
   </g>
   <g id="patch_143">
    <path d="M 144.553846 210.857143 
L 158.289231 210.857143 
L 158.289231 210.325296 
L 144.553846 210.325296 
z
" clip-path="url(#paf26e39c22)" style="fill: #949699; fill-opacity: 0.22; stroke: #ffffff; stroke-linejoin: miter"/>
   </g>
   <g id="patch_144">
    <path d="M 158.289231 210.857143 
L 172.024615 210.857143 
L 172.024615 210.742247 
L 158.289231 210.742247 
z
" clip-path="url(#paf26e39c22)" style="fill: #949699; fill-opacity: 0.22; stroke: #ffffff; stroke-linejoin: miter"/>
   </g>
   <g id="patch_145">
    <path d="M 172.024615 210.857143 
L 185.76 210.857143 
L 185.76 210.711897 
L 172.024615 210.711897 
z
" clip-path="url(#paf26e39c22)" style="fill: #949699; fill-opacity: 0.22; stroke: #ffffff; stroke-linejoin: miter"/>
   </g>
   <g id="patch_146">
    <path d="M 185.76 210.857143 
L 199.495385 210.857143 
L 199.495385 210.333967 
L 185.76 210.333967 
z
" clip-path="url(#paf26e39c22)" style="fill: #949699; fill-opacity: 0.22; stroke: #ffffff; stroke-linejoin: miter"/>
   </g>
   <g id="patch_147">
    <path d="M 199.495385 210.857143 
L 213.230769 210.857143 
L 213.230769 210.433688 
L 199.495385 210.433688 
z
" clip-path="url(#paf26e39c22)" style="fill: #949699; fill-opacity: 0.22; stroke: #ffffff; stroke-linejoin: miter"/>
   </g>
   <g id="patch_148">
    <path d="M 213.230769 210.857143 
L 226.966154 210.857143 
L 226.966154 210.321682 
L 213.230769 210.321682 
z
" clip-path="url(#paf26e39c22)" style="fill: #949699; fill-opacity: 0.22; stroke: #ffffff; stroke-linejoin: miter"/>
   </g>
   <g id="patch_149">
    <path d="M 226.966154 210.857143 
L 240.701538 210.857143 
L 240.701538 210.275435 
L 226.966154 210.275435 
z
" clip-path="url(#paf26e39c22)" style="fill: #949699; fill-opacity: 0.22; stroke: #ffffff; stroke-linejoin: miter"/>
   </g>
   <g id="patch_150">
    <path d="M 240.701538 210.857143 
L 254.436923 210.857143 
L 254.436923 209.920629 
L 240.701538 209.920629 
z
" clip-path="url(#paf26e39c22)" style="fill: #949699; fill-opacity: 0.22; stroke: #ffffff; stroke-linejoin: miter"/>
   </g>
   <g id="patch_151">
    <path d="M 254.436923 210.857143 
L 268.172308 210.857143 
L 268.172308 209.412628 
L 254.436923 209.412628 
z
" clip-path="url(#paf26e39c22)" style="fill: #949699; fill-opacity: 0.22; stroke: #ffffff; stroke-linejoin: miter"/>
   </g>
   <g id="patch_152">
    <path d="M 268.172308 210.857143 
L 281.907692 210.857143 
L 281.907692 208.256439 
L 268.172308 208.256439 
z
" clip-path="url(#paf26e39c22)" style="fill: #949699; fill-opacity: 0.22; stroke: #ffffff; stroke-linejoin: miter"/>
   </g>
   <g id="patch_153">
    <path d="M 281.907692 210.857143 
L 295.643077 210.857143 
L 295.643077 205.832053 
L 281.907692 205.832053 
z
" clip-path="url(#paf26e39c22)" style="fill: #949699; fill-opacity: 0.22; stroke: #ffffff; stroke-linejoin: miter"/>
   </g>
   <g id="patch_154">
    <path d="M 295.643077 210.857143 
L 309.378462 210.857143 
L 309.378462 183.592744 
L 295.643077 183.592744 
z
" clip-path="url(#paf26e39c22)" style="fill: #949699; fill-opacity: 0.22; stroke: #ffffff; stroke-linejoin: miter"/>
   </g>
   <g id="patch_155">
    <path d="M 309.378462 210.857143 
L 323.113846 210.857143 
L 323.113846 187.691436 
L 309.378462 187.691436 
z
" clip-path="url(#paf26e39c22)" style="fill: #949699; fill-opacity: 0.22; stroke: #ffffff; stroke-linejoin: miter"/>
   </g>
   <g id="patch_156">
    <path d="M 323.113846 210.857143 
L 336.849231 210.857143 
L 336.849231 168.847712 
L 323.113846 168.847712 
z
" clip-path="url(#paf26e39c22)" style="fill: #949699; fill-opacity: 0.22; stroke: #ffffff; stroke-linejoin: miter"/>
   </g>
   <g id="patch_157">
    <path d="M 336.849231 210.857143 
L 350.584615 210.857143 
L 350.584615 193.311964 
L 336.849231 193.311964 
z
" clip-path="url(#paf26e39c22)" style="fill: #949699; fill-opacity: 0.22; stroke: #ffffff; stroke-linejoin: miter"/>
   </g>
   <g id="patch_158">
    <path d="M 350.584615 210.857143 
L 364.32 210.857143 
L 364.32 205.191813 
L 350.584615 205.191813 
z
" clip-path="url(#paf26e39c22)" style="fill: #949699; fill-opacity: 0.22; stroke: #ffffff; stroke-linejoin: miter"/>
   </g>
   <g id="patch_159">
    <path d="M 364.32 210.857143 
L 378.055385 210.857143 
L 378.055385 210.345529 
L 364.32 210.345529 
z
" clip-path="url(#paf26e39c22)" style="fill: #949699; fill-opacity: 0.22; stroke: #ffffff; stroke-linejoin: miter"/>
   </g>
   <g id="patch_160">
    <path d="M 378.055385 210.857143 
L 391.790769 210.857143 
L 391.790769 210.828238 
L 378.055385 210.828238 
z
" clip-path="url(#paf26e39c22)" style="fill: #949699; fill-opacity: 0.22; stroke: #ffffff; stroke-linejoin: miter"/>
   </g>
   <g id="patch_161">
    <path d="M 391.790769 210.857143 
L 405.526154 210.857143 
L 405.526154 210.852085 
L 391.790769 210.852085 
z
" clip-path="url(#paf26e39c22)" style="fill: #949699; fill-opacity: 0.22; stroke: #ffffff; stroke-linejoin: miter"/>
   </g>
   <g id="patch_162">
    <path d="M 405.526154 210.857143 
L 419.261538 210.857143 
L 419.261538 210.855698 
L 405.526154 210.855698 
z
" clip-path="url(#paf26e39c22)" style="fill: #949699; fill-opacity: 0.22; stroke: #ffffff; stroke-linejoin: miter"/>
   </g>
   <g id="patch_163">
    <path d="M 419.261538 210.857143 
L 432.996923 210.857143 
L 432.996923 210.857143 
L 419.261538 210.857143 
z
" clip-path="url(#paf26e39c22)" style="fill: #949699; fill-opacity: 0.22; stroke: #ffffff; stroke-linejoin: miter"/>
   </g>
   <g id="patch_164">
    <path d="M 432.996923 210.857143 
L 446.732308 210.857143 
L 446.732308 210.85642 
L 432.996923 210.85642 
z
" clip-path="url(#paf26e39c22)" style="fill: #949699; fill-opacity: 0.22; stroke: #ffffff; stroke-linejoin: miter"/>
   </g>
   <g id="patch_165">
    <path d="M 446.732308 210.857143 
L 460.467692 210.857143 
L 460.467692 210.857143 
L 446.732308 210.857143 
z
" clip-path="url(#paf26e39c22)" style="fill: #949699; fill-opacity: 0.22; stroke: #ffffff; stroke-linejoin: miter"/>
   </g>
   <g id="patch_166">
    <path d="M 460.467692 210.857143 
L 474.203077 210.857143 
L 474.203077 210.857143 
L 460.467692 210.857143 
z
" clip-path="url(#paf26e39c22)" style="fill: #949699; fill-opacity: 0.22; stroke: #ffffff; stroke-linejoin: miter"/>
   </g>
   <g id="patch_167">
    <path d="M 474.203077 210.857143 
L 487.938462 210.857143 
L 487.938462 210.855698 
L 474.203077 210.855698 
z
" clip-path="url(#paf26e39c22)" style="fill: #949699; fill-opacity: 0.22; stroke: #ffffff; stroke-linejoin: miter"/>
   </g>
   <g id="patch_168">
    <path d="M 135.969231 210.857143 
L 145.240615 210.857143 
L 145.240615 209.329278 
L 135.969231 209.329278 
z
" clip-path="url(#paf26e39c22)" style="fill: #df752f; fill-opacity: 0.42; stroke: #ffffff; stroke-width: 0.684818; stroke-linejoin: miter"/>
   </g>
   <g id="patch_169">
    <path d="M 145.240615 210.857143 
L 154.512 210.857143 
L 154.512 210.857143 
L 145.240615 210.857143 
z
" clip-path="url(#paf26e39c22)" style="fill: #df752f; fill-opacity: 0.42; stroke: #ffffff; stroke-width: 0.684818; stroke-linejoin: miter"/>
   </g>
   <g id="patch_170">
    <path d="M 154.512 210.857143 
L 163.783385 210.857143 
L 163.783385 207.801414 
L 154.512 207.801414 
z
" clip-path="url(#paf26e39c22)" style="fill: #df752f; fill-opacity: 0.42; stroke: #ffffff; stroke-width: 0.684818; stroke-linejoin: miter"/>
   </g>
   <g id="patch_171">
    <path d="M 163.783385 210.857143 
L 173.054769 210.857143 
L 173.054769 210.857143 
L 163.783385 210.857143 
z
" clip-path="url(#paf26e39c22)" style="fill: #df752f; fill-opacity: 0.42; stroke: #ffffff; stroke-width: 0.684818; stroke-linejoin: miter"/>
   </g>
   <g id="patch_172">
    <path d="M 173.054769 210.857143 
L 182.326154 210.857143 
L 182.326154 210.857143 
L 173.054769 210.857143 
z
" clip-path="url(#paf26e39c22)" style="fill: #df752f; fill-opacity: 0.42; stroke: #ffffff; stroke-width: 0.684818; stroke-linejoin: miter"/>
   </g>
   <g id="patch_173">
    <path d="M 182.326154 210.857143 
L 191.597538 210.857143 
L 191.597538 206.273549 
L 182.326154 206.273549 
z
" clip-path="url(#paf26e39c22)" style="fill: #df752f; fill-opacity: 0.42; stroke: #ffffff; stroke-width: 0.684818; stroke-linejoin: miter"/>
   </g>
   <g id="patch_174">
    <path d="M 191.597538 210.857143 
L 200.868923 210.857143 
L 200.868923 210.857143 
L 191.597538 210.857143 
z
" clip-path="url(#paf26e39c22)" style="fill: #df752f; fill-opacity: 0.42; stroke: #ffffff; stroke-width: 0.684818; stroke-linejoin: miter"/>
   </g>
   <g id="patch_175">
    <path d="M 200.868923 210.857143 
L 210.140308 210.857143 
L 210.140308 210.857143 
L 200.868923 210.857143 
z
" clip-path="url(#paf26e39c22)" style="fill: #df752f; fill-opacity: 0.42; stroke: #ffffff; stroke-width: 0.684818; stroke-linejoin: miter"/>
   </g>
   <g id="patch_176">
    <path d="M 210.140308 210.857143 
L 219.411692 210.857143 
L 219.411692 210.857143 
L 210.140308 210.857143 
z
" clip-path="url(#paf26e39c22)" style="fill: #df752f; fill-opacity: 0.42; stroke: #ffffff; stroke-width: 0.684818; stroke-linejoin: miter"/>
   </g>
   <g id="patch_177">
    <path d="M 219.411692 210.857143 
L 228.683077 210.857143 
L 228.683077 210.857143 
L 219.411692 210.857143 
z
" clip-path="url(#paf26e39c22)" style="fill: #df752f; fill-opacity: 0.42; stroke: #ffffff; stroke-width: 0.684818; stroke-linejoin: miter"/>
   </g>
   <g id="patch_178">
    <path d="M 228.683077 210.857143 
L 237.954462 210.857143 
L 237.954462 209.329278 
L 228.683077 209.329278 
z
" clip-path="url(#paf26e39c22)" style="fill: #df752f; fill-opacity: 0.42; stroke: #ffffff; stroke-width: 0.684818; stroke-linejoin: miter"/>
   </g>
   <g id="patch_179">
    <path d="M 237.954462 210.857143 
L 247.225846 210.857143 
L 247.225846 206.273549 
L 237.954462 206.273549 
z
" clip-path="url(#paf26e39c22)" style="fill: #df752f; fill-opacity: 0.42; stroke: #ffffff; stroke-width: 0.684818; stroke-linejoin: miter"/>
   </g>
   <g id="patch_180">
    <path d="M 247.225846 210.857143 
L 256.497231 210.857143 
L 256.497231 210.857143 
L 247.225846 210.857143 
z
" clip-path="url(#paf26e39c22)" style="fill: #df752f; fill-opacity: 0.42; stroke: #ffffff; stroke-width: 0.684818; stroke-linejoin: miter"/>
   </g>
   <g id="patch_181">
    <path d="M 256.497231 210.857143 
L 265.768615 210.857143 
L 265.768615 209.329278 
L 256.497231 209.329278 
z
" clip-path="url(#paf26e39c22)" style="fill: #df752f; fill-opacity: 0.42; stroke: #ffffff; stroke-width: 0.684818; stroke-linejoin: miter"/>
   </g>
   <g id="patch_182">
    <path d="M 265.768615 210.857143 
L 275.04 210.857143 
L 275.04 209.329278 
L 265.768615 209.329278 
z
" clip-path="url(#paf26e39c22)" style="fill: #df752f; fill-opacity: 0.42; stroke: #ffffff; stroke-width: 0.684818; stroke-linejoin: miter"/>
   </g>
   <g id="patch_183">
    <path d="M 275.04 210.857143 
L 284.311385 210.857143 
L 284.311385 195.578497 
L 275.04 195.578497 
z
" clip-path="url(#paf26e39c22)" style="fill: #df752f; fill-opacity: 0.42; stroke: #ffffff; stroke-width: 0.684818; stroke-linejoin: miter"/>
   </g>
   <g id="patch_184">
    <path d="M 284.311385 210.857143 
L 293.582769 210.857143 
L 293.582769 192.522767 
L 284.311385 192.522767 
z
" clip-path="url(#paf26e39c22)" style="fill: #df752f; fill-opacity: 0.42; stroke: #ffffff; stroke-width: 0.684818; stroke-linejoin: miter"/>
   </g>
   <g id="patch_185">
    <path d="M 293.582769 210.857143 
L 302.854154 210.857143 
L 302.854154 195.578497 
L 293.582769 195.578497 
z
" clip-path="url(#paf26e39c22)" style="fill: #df752f; fill-opacity: 0.42; stroke: #ffffff; stroke-width: 0.684818; stroke-linejoin: miter"/>
   </g>
   <g id="patch_186">
    <path d="M 302.854154 210.857143 
L 312.125538 210.857143 
L 312.125538 163.49334 
L 302.854154 163.49334 
z
" clip-path="url(#paf26e39c22)" style="fill: #df752f; fill-opacity: 0.42; stroke: #ffffff; stroke-width: 0.684818; stroke-linejoin: miter"/>
   </g>
   <g id="patch_187">
    <path d="M 312.125538 210.857143 
L 321.396923 210.857143 
L 321.396923 194.050632 
L 312.125538 194.050632 
z
" clip-path="url(#paf26e39c22)" style="fill: #df752f; fill-opacity: 0.42; stroke: #ffffff; stroke-width: 0.684818; stroke-linejoin: miter"/>
   </g>
   <g id="patch_188">
    <path d="M 321.396923 210.857143 
L 330.668308 210.857143 
L 330.668308 178.771986 
L 321.396923 178.771986 
z
" clip-path="url(#paf26e39c22)" style="fill: #df752f; fill-opacity: 0.42; stroke: #ffffff; stroke-width: 0.684818; stroke-linejoin: miter"/>
   </g>
   <g id="patch_189">
    <path d="M 330.668308 210.857143 
L 339.939692 210.857143 
L 339.939692 195.578497 
L 330.668308 195.578497 
z
" clip-path="url(#paf26e39c22)" style="fill: #df752f; fill-opacity: 0.42; stroke: #ffffff; stroke-width: 0.684818; stroke-linejoin: miter"/>
   </g>
   <g id="patch_190">
    <path d="M 339.939692 210.857143 
L 349.211077 210.857143 
L 349.211077 203.21782 
L 339.939692 203.21782 
z
" clip-path="url(#paf26e39c22)" style="fill: #df752f; fill-opacity: 0.42; stroke: #ffffff; stroke-width: 0.684818; stroke-linejoin: miter"/>
   </g>
   <g id="patch_191">
    <path d="M 349.211077 210.857143 
L 358.482462 210.857143 
L 358.482462 207.801414 
L 349.211077 207.801414 
z
" clip-path="url(#paf26e39c22)" style="fill: #df752f; fill-opacity: 0.42; stroke: #ffffff; stroke-width: 0.684818; stroke-linejoin: miter"/>
   </g>
   <g id="patch_192">
    <path d="M 358.482462 210.857143 
L 367.753846 210.857143 
L 367.753846 207.801414 
L 358.482462 207.801414 
z
" clip-path="url(#paf26e39c22)" style="fill: #df752f; fill-opacity: 0.42; stroke: #ffffff; stroke-width: 0.684818; stroke-linejoin: miter"/>
   </g>
   <g id="line2d_23">
    <path d="M -1 210.848363 
L 3.558007 210.713686 
L 6.060686 210.562387 
L 8.563365 210.572159 
L 13.568723 210.828821 
L 26.08212 210.853941 
L 103.665175 210.753273 
L 108.670534 210.665843 
L 113.675892 210.796588 
L 121.18393 210.642704 
L 126.189288 210.779227 
L 131.194647 210.711742 
L 136.200005 210.416285 
L 143.708043 210.761776 
L 151.216081 210.72587 
L 153.71876 210.437611 
L 156.221439 210.007422 
L 158.724118 210.017083 
L 161.226798 210.450715 
L 163.729477 210.730614 
L 168.734835 210.69187 
L 173.740194 210.675197 
L 181.248231 210.618031 
L 188.756269 210.232409 
L 191.258948 210.452138 
L 193.761627 210.560272 
L 203.772344 210.485452 
L 206.275024 210.278122 
L 208.777703 210.258032 
L 211.280382 210.420405 
L 213.783061 210.447258 
L 218.78842 210.267066 
L 223.793778 210.349771 
L 226.296457 210.409441 
L 228.799137 210.309428 
L 231.301816 210.068203 
L 233.804495 210.049872 
L 236.307174 210.244274 
L 238.809853 210.285475 
L 248.82057 209.88507 
L 251.32325 209.953526 
L 253.825929 209.855811 
L 256.328608 209.627876 
L 268.842004 208.961217 
L 273.847363 208.438943 
L 276.350042 208.038116 
L 281.3554 206.871766 
L 283.85808 206.241022 
L 286.360759 205.790113 
L 288.863438 205.642563 
L 291.366117 205.770774 
L 293.868796 206.142941 
L 296.371476 206.670238 
L 298.874155 206.911679 
L 301.376834 203.799052 
L 303.879513 189.007407 
L 306.382193 166.489243 
L 308.884872 165.297023 
L 311.387551 185.117596 
L 313.89023 195.116763 
L 316.392909 189.744349 
L 318.895589 177.28135 
L 321.398268 163.530753 
L 323.900947 156.979592 
L 326.403626 160.802425 
L 328.906306 168.412784 
L 331.408985 175.04202 
L 333.911664 179.077185 
L 336.414343 181.519679 
L 338.917022 185.176705 
L 341.419702 189.802438 
L 343.922381 193.683859 
L 346.42506 196.687887 
L 348.927739 199.234033 
L 351.430419 201.511343 
L 353.933098 203.472374 
L 356.435777 205.010274 
L 361.441135 207.710227 
L 363.943815 208.829577 
L 366.446494 209.61907 
L 368.949173 210.165759 
L 371.451852 210.496733 
L 376.457211 210.738884 
L 386.467928 210.830962 
L 406 210.853881 
L 406 210.853881 
" clip-path="url(#paf26e39c22)" style="fill: none; stroke: #949699; stroke-width: 1.8; stroke-linecap: round"/>
   </g>
   <g id="line2d_24">
    <path d="M 92.321651 210.852793 
L 113.166058 210.735816 
L 129.200218 210.389941 
L 151.648041 209.865795 
L 183.71636 209.574414 
L 191.73344 209.679746 
L 212.577848 210.242756 
L 218.991511 210.077305 
L 230.215423 209.474972 
L 239.835919 209.065931 
L 249.456415 208.666982 
L 254.266662 208.197759 
L 257.473494 207.689234 
L 260.680326 206.986829 
L 263.887158 206.073218 
L 267.09399 204.946079 
L 270.300822 203.617176 
L 275.11107 201.297541 
L 279.921318 198.680078 
L 287.938397 193.978455 
L 294.352061 190.294259 
L 297.558893 188.631633 
L 300.765725 187.179144 
L 303.972557 186.005116 
L 307.179389 185.169636 
L 310.386221 184.718596 
L 313.593053 184.680546 
L 316.799885 185.06617 
L 320.006717 185.868967 
L 323.213548 187.065479 
L 326.42038 188.614421 
L 329.627212 190.455574 
L 334.43746 193.589152 
L 342.45454 199.005669 
L 345.661372 200.975411 
L 348.868204 202.735571 
L 352.075036 204.257185 
L 355.281868 205.537099 
L 358.488699 206.592403 
L 361.695531 207.452608 
L 366.505779 208.451124 
L 371.316027 209.189764 
L 377.729691 209.890857 
L 384.143355 210.350147 
L 392.160435 210.669046 
L 403.384346 210.825997 
L 406 210.837931 
L 406 210.837931 
" clip-path="url(#paf26e39c22)" style="fill: none; stroke: #df752f; stroke-width: 1.8; stroke-linecap: round"/>
   </g>
   <g id="patch_193">
    <path d="M 7.2 210.857143 
L 7.2 154.285714 
" style="fill: none; stroke: #262626; stroke-width: 1.1; stroke-linejoin: miter; stroke-linecap: square"/>
   </g>
   <g id="patch_194">
    <path d="M 397.8 210.857143 
L 397.8 154.285714 
" style="fill: none; stroke: #262626; stroke-width: 1.1; stroke-linejoin: miter; stroke-linecap: square"/>
   </g>
   <g id="patch_195">
    <path d="M 7.2 210.857143 
L 397.8 210.857143 
" style="fill: none; stroke: #262626; stroke-width: 1.1; stroke-linejoin: miter; stroke-linecap: square"/>
   </g>
   <g id="patch_196">
    <path d="M 7.2 154.285714 
L 397.8 154.285714 
" style="fill: none; stroke: #262626; stroke-width: 1.1; stroke-linejoin: miter; stroke-linecap: square"/>
   </g>
  </g>
  <g id="axes_4">
   <g id="patch_197">
    <path d="M 7.2 284.4 
L 397.8 284.4 
L 397.8 227.828571 
L 7.2 227.828571 
z
" style="fill: #ffffff"/>
   </g>
   <g id="matplotlib.axis_7">
    <g id="xtick_19">
     <g id="line2d_25">
      <g>
       <use xlink:href="#mac5f6de297" x="7.2" y="284.4" style="fill: #262626; stroke: #262626; stroke-width: 1.1"/>
      </g>
     </g>
    </g>
    <g id="xtick_20">
     <g id="line2d_26">
      <g>
       <use xlink:href="#mac5f6de297" x="85.32" y="284.4" style="fill: #262626; stroke: #262626; stroke-width: 1.1"/>
      </g>
     </g>
    </g>
    <g id="xtick_21">
     <g id="line2d_27">
      <g>
       <use xlink:href="#mac5f6de297" x="163.44" y="284.4" style="fill: #262626; stroke: #262626; stroke-width: 1.1"/>
      </g>
     </g>
    </g>
    <g id="xtick_22">
     <g id="line2d_28">
      <g>
       <use xlink:href="#mac5f6de297" x="241.56" y="284.4" style="fill: #262626; stroke: #262626; stroke-width: 1.1"/>
      </g>
     </g>
    </g>
    <g id="xtick_23">
     <g id="line2d_29">
      <g>
       <use xlink:href="#mac5f6de297" x="319.68" y="284.4" style="fill: #262626; stroke: #262626; stroke-width: 1.1"/>
      </g>
     </g>
    </g>
    <g id="xtick_24">
     <g id="line2d_30">
      <g>
       <use xlink:href="#mac5f6de297" x="397.8" y="284.4" style="fill: #262626; stroke: #262626; stroke-width: 1.1"/>
      </g>
     </g>
    </g>
   </g>
   <g id="matplotlib.axis_8"/>
   <g id="patch_198">
    <path d="M 7.2 284.4 
L 18.36 284.4 
L 18.36 254.380474 
L 7.2 254.380474 
z
" clip-path="url(#p61c616e8f8)" style="fill: #949699; fill-opacity: 0.22; stroke: #ffffff; stroke-linejoin: miter"/>
   </g>
   <g id="patch_199">
    <path d="M 18.36 284.4 
L 29.52 284.4 
L 29.52 248.695134 
L 18.36 248.695134 
z
" clip-path="url(#p61c616e8f8)" style="fill: #949699; fill-opacity: 0.22; stroke: #ffffff; stroke-linejoin: miter"/>
   </g>
   <g id="patch_200">
    <path d="M 29.52 284.4 
L 40.68 284.4 
L 40.68 241.17798 
L 29.52 241.17798 
z
" clip-path="url(#p61c616e8f8)" style="fill: #949699; fill-opacity: 0.22; stroke: #ffffff; stroke-linejoin: miter"/>
   </g>
   <g id="patch_201">
    <path d="M 40.68 284.4 
L 51.84 284.4 
L 51.84 240.267241 
L 40.68 240.267241 
z
" clip-path="url(#p61c616e8f8)" style="fill: #949699; fill-opacity: 0.22; stroke: #ffffff; stroke-linejoin: miter"/>
   </g>
   <g id="patch_202">
    <path d="M 51.84 284.4 
L 63 284.4 
L 63 246.856861 
L 51.84 246.856861 
z
" clip-path="url(#p61c616e8f8)" style="fill: #949699; fill-opacity: 0.22; stroke: #ffffff; stroke-linejoin: miter"/>
   </g>
   <g id="patch_203">
    <path d="M 63 284.4 
L 74.16 284.4 
L 74.16 259.445736 
L 63 259.445736 
z
" clip-path="url(#p61c616e8f8)" style="fill: #949699; fill-opacity: 0.22; stroke: #ffffff; stroke-linejoin: miter"/>
   </g>
   <g id="patch_204">
    <path d="M 74.16 284.4 
L 85.32 284.4 
L 85.32 277.12571 
L 74.16 277.12571 
z
" clip-path="url(#p61c616e8f8)" style="fill: #949699; fill-opacity: 0.22; stroke: #ffffff; stroke-linejoin: miter"/>
   </g>
   <g id="patch_205">
    <path d="M 85.32 284.4 
L 96.48 284.4 
L 96.48 278.343905 
L 85.32 278.343905 
z
" clip-path="url(#p61c616e8f8)" style="fill: #949699; fill-opacity: 0.22; stroke: #ffffff; stroke-linejoin: miter"/>
   </g>
   <g id="patch_206">
    <path d="M 96.48 284.4 
L 107.639999 284.4 
L 107.639999 283.215393 
L 96.48 283.215393 
z
" clip-path="url(#p61c616e8f8)" style="fill: #949699; fill-opacity: 0.22; stroke: #ffffff; stroke-linejoin: miter"/>
   </g>
   <g id="patch_207">
    <path d="M 107.639999 284.4 
L 118.799999 284.4 
L 118.799999 284.25144 
L 107.639999 284.25144 
z
" clip-path="url(#p61c616e8f8)" style="fill: #949699; fill-opacity: 0.22; stroke: #ffffff; stroke-linejoin: miter"/>
   </g>
   <g id="patch_208">
    <path d="M 118.799999 284.4 
L 129.959999 284.4 
L 129.959999 283.416918 
L 118.799999 283.416918 
z
" clip-path="url(#p61c616e8f8)" style="fill: #949699; fill-opacity: 0.22; stroke: #ffffff; stroke-linejoin: miter"/>
   </g>
   <g id="patch_209">
    <path d="M 129.959999 284.4 
L 141.119999 284.4 
L 141.119999 283.918148 
L 129.959999 283.918148 
z
" clip-path="url(#p61c616e8f8)" style="fill: #949699; fill-opacity: 0.22; stroke: #ffffff; stroke-linejoin: miter"/>
   </g>
   <g id="patch_210">
    <path d="M 141.119999 284.4 
L 152.279999 284.4 
L 152.279999 284.4 
L 141.119999 284.4 
z
" clip-path="url(#p61c616e8f8)" style="fill: #949699; fill-opacity: 0.22; stroke: #ffffff; stroke-linejoin: miter"/>
   </g>
   <g id="patch_211">
    <path d="M 152.279999 284.4 
L 163.439999 284.4 
L 163.439999 284.393541 
L 152.279999 284.393541 
z
" clip-path="url(#p61c616e8f8)" style="fill: #949699; fill-opacity: 0.22; stroke: #ffffff; stroke-linejoin: miter"/>
   </g>
   <g id="patch_212">
    <path d="M 163.439999 284.4 
L 174.599999 284.4 
L 174.599999 284.149385 
L 163.439999 284.149385 
z
" clip-path="url(#p61c616e8f8)" style="fill: #949699; fill-opacity: 0.22; stroke: #ffffff; stroke-linejoin: miter"/>
   </g>
   <g id="patch_213">
    <path d="M 174.599999 284.4 
L 185.759999 284.4 
L 185.759999 284.398708 
L 174.599999 284.398708 
z
" clip-path="url(#p61c616e8f8)" style="fill: #949699; fill-opacity: 0.22; stroke: #ffffff; stroke-linejoin: miter"/>
   </g>
   <g id="patch_214">
    <path d="M 185.759999 284.4 
L 196.919999 284.4 
L 196.919999 284.394833 
L 185.759999 284.394833 
z
" clip-path="url(#p61c616e8f8)" style="fill: #949699; fill-opacity: 0.22; stroke: #ffffff; stroke-linejoin: miter"/>
   </g>
   <g id="patch_215">
    <path d="M 196.919999 284.4 
L 208.079999 284.4 
L 208.079999 284.179097 
L 196.919999 284.179097 
z
" clip-path="url(#p61c616e8f8)" style="fill: #949699; fill-opacity: 0.22; stroke: #ffffff; stroke-linejoin: miter"/>
   </g>
   <g id="patch_216">
    <path d="M 208.079999 284.4 
L 219.239999 284.4 
L 219.239999 284.397416 
L 208.079999 284.397416 
z
" clip-path="url(#p61c616e8f8)" style="fill: #949699; fill-opacity: 0.22; stroke: #ffffff; stroke-linejoin: miter"/>
   </g>
   <g id="patch_217">
    <path d="M 219.239999 284.4 
L 230.399999 284.4 
L 230.399999 284.4 
L 219.239999 284.4 
z
" clip-path="url(#p61c616e8f8)" style="fill: #949699; fill-opacity: 0.22; stroke: #ffffff; stroke-linejoin: miter"/>
   </g>
   <g id="patch_218">
    <path d="M 230.399999 284.4 
L 241.559999 284.4 
L 241.559999 284.4 
L 230.399999 284.4 
z
" clip-path="url(#p61c616e8f8)" style="fill: #949699; fill-opacity: 0.22; stroke: #ffffff; stroke-linejoin: miter"/>
   </g>
   <g id="patch_219">
    <path d="M 241.559999 284.4 
L 252.719999 284.4 
L 252.719999 284.394833 
L 241.559999 284.394833 
z
" clip-path="url(#p61c616e8f8)" style="fill: #949699; fill-opacity: 0.22; stroke: #ffffff; stroke-linejoin: miter"/>
   </g>
   <g id="patch_220">
    <path d="M 252.719999 284.4 
L 263.879999 284.4 
L 263.879999 284.4 
L 252.719999 284.4 
z
" clip-path="url(#p61c616e8f8)" style="fill: #949699; fill-opacity: 0.22; stroke: #ffffff; stroke-linejoin: miter"/>
   </g>
   <g id="patch_221">
    <path d="M 263.879999 284.4 
L 275.039999 284.4 
L 275.039999 284.326366 
L 263.879999 284.326366 
z
" clip-path="url(#p61c616e8f8)" style="fill: #949699; fill-opacity: 0.22; stroke: #ffffff; stroke-linejoin: miter"/>
   </g>
   <g id="patch_222">
    <path d="M 275.039999 284.4 
L 286.199999 284.4 
L 286.199999 284.4 
L 275.039999 284.4 
z
" clip-path="url(#p61c616e8f8)" style="fill: #949699; fill-opacity: 0.22; stroke: #ffffff; stroke-linejoin: miter"/>
   </g>
   <g id="patch_223">
    <path d="M 286.199999 284.4 
L 297.359999 284.4 
L 297.359999 284.4 
L 286.199999 284.4 
z
" clip-path="url(#p61c616e8f8)" style="fill: #949699; fill-opacity: 0.22; stroke: #ffffff; stroke-linejoin: miter"/>
   </g>
   <g id="patch_224">
    <path d="M 297.359999 284.4 
L 308.519998 284.4 
L 308.519998 284.4 
L 297.359999 284.4 
z
" clip-path="url(#p61c616e8f8)" style="fill: #949699; fill-opacity: 0.22; stroke: #ffffff; stroke-linejoin: miter"/>
   </g>
   <g id="patch_225">
    <path d="M 308.519998 284.4 
L 319.679998 284.4 
L 319.679998 284.4 
L 308.519998 284.4 
z
" clip-path="url(#p61c616e8f8)" style="fill: #949699; fill-opacity: 0.22; stroke: #ffffff; stroke-linejoin: miter"/>
   </g>
   <g id="patch_226">
    <path d="M 319.679998 284.4 
L 330.839998 284.4 
L 330.839998 284.398708 
L 319.679998 284.398708 
z
" clip-path="url(#p61c616e8f8)" style="fill: #949699; fill-opacity: 0.22; stroke: #ffffff; stroke-linejoin: miter"/>
   </g>
   <g id="patch_227">
    <path d="M 330.839998 284.4 
L 341.999998 284.4 
L 341.999998 284.398708 
L 330.839998 284.398708 
z
" clip-path="url(#p61c616e8f8)" style="fill: #949699; fill-opacity: 0.22; stroke: #ffffff; stroke-linejoin: miter"/>
   </g>
   <g id="patch_228">
    <path d="M 341.999998 284.4 
L 353.159998 284.4 
L 353.159998 284.4 
L 341.999998 284.4 
z
" clip-path="url(#p61c616e8f8)" style="fill: #949699; fill-opacity: 0.22; stroke: #ffffff; stroke-linejoin: miter"/>
   </g>
   <g id="patch_229">
    <path d="M 353.159998 284.4 
L 364.319998 284.4 
L 364.319998 284.4 
L 353.159998 284.4 
z
" clip-path="url(#p61c616e8f8)" style="fill: #949699; fill-opacity: 0.22; stroke: #ffffff; stroke-linejoin: miter"/>
   </g>
   <g id="patch_230">
    <path d="M 364.319998 284.4 
L 375.479998 284.4 
L 375.479998 284.4 
L 364.319998 284.4 
z
" clip-path="url(#p61c616e8f8)" style="fill: #949699; fill-opacity: 0.22; stroke: #ffffff; stroke-linejoin: miter"/>
   </g>
   <g id="patch_231">
    <path d="M 375.479998 284.4 
L 386.639998 284.4 
L 386.639998 284.4 
L 375.479998 284.4 
z
" clip-path="url(#p61c616e8f8)" style="fill: #949699; fill-opacity: 0.22; stroke: #ffffff; stroke-linejoin: miter"/>
   </g>
   <g id="patch_232">
    <path d="M 386.639998 284.4 
L 397.799998 284.4 
L 397.799998 284.370288 
L 386.639998 284.370288 
z
" clip-path="url(#p61c616e8f8)" style="fill: #949699; fill-opacity: 0.22; stroke: #ffffff; stroke-linejoin: miter"/>
   </g>
   <g id="patch_233">
    <path d="M 15.012 284.4 
L 30.32352 284.4 
L 30.32352 269.618341 
L 15.012 269.618341 
z
" clip-path="url(#p61c616e8f8)" style="fill: #df752f; fill-opacity: 0.42; stroke: #ffffff; stroke-linejoin: miter"/>
   </g>
   <g id="patch_234">
    <path d="M 30.32352 284.4 
L 45.63504 284.4 
L 45.63504 234.679874 
L 30.32352 234.679874 
z
" clip-path="url(#p61c616e8f8)" style="fill: #df752f; fill-opacity: 0.42; stroke: #ffffff; stroke-linejoin: miter"/>
   </g>
   <g id="patch_235">
    <path d="M 45.63504 284.4 
L 60.94656 284.4 
L 60.94656 236.023662 
L 45.63504 236.023662 
z
" clip-path="url(#p61c616e8f8)" style="fill: #df752f; fill-opacity: 0.42; stroke: #ffffff; stroke-linejoin: miter"/>
   </g>
   <g id="patch_236">
    <path d="M 60.94656 284.4 
L 76.25808 284.4 
L 76.25808 258.868044 
L 60.94656 258.868044 
z
" clip-path="url(#p61c616e8f8)" style="fill: #df752f; fill-opacity: 0.42; stroke: #ffffff; stroke-linejoin: miter"/>
   </g>
   <g id="patch_237">
    <path d="M 76.25808 284.4 
L 91.5696 284.4 
L 91.5696 266.930767 
L 76.25808 266.930767 
z
" clip-path="url(#p61c616e8f8)" style="fill: #df752f; fill-opacity: 0.42; stroke: #ffffff; stroke-linejoin: miter"/>
   </g>
   <g id="patch_238">
    <path d="M 91.5696 284.4 
L 106.88112 284.4 
L 106.88112 280.368638 
L 91.5696 280.368638 
z
" clip-path="url(#p61c616e8f8)" style="fill: #df752f; fill-opacity: 0.42; stroke: #ffffff; stroke-linejoin: miter"/>
   </g>
   <g id="patch_239">
    <path d="M 106.88112 284.4 
L 122.192639 284.4 
L 122.192639 283.056213 
L 106.88112 283.056213 
z
" clip-path="url(#p61c616e8f8)" style="fill: #df752f; fill-opacity: 0.42; stroke: #ffffff; stroke-linejoin: miter"/>
   </g>
   <g id="patch_240">
    <path d="M 122.192639 284.4 
L 137.504159 284.4 
L 137.504159 279.024851 
L 122.192639 279.024851 
z
" clip-path="url(#p61c616e8f8)" style="fill: #df752f; fill-opacity: 0.42; stroke: #ffffff; stroke-linejoin: miter"/>
   </g>
   <g id="patch_241">
    <path d="M 137.504159 284.4 
L 152.815679 284.4 
L 152.815679 284.4 
L 137.504159 284.4 
z
" clip-path="url(#p61c616e8f8)" style="fill: #df752f; fill-opacity: 0.42; stroke: #ffffff; stroke-linejoin: miter"/>
   </g>
   <g id="patch_242">
    <path d="M 152.815679 284.4 
L 168.127199 284.4 
L 168.127199 284.4 
L 152.815679 284.4 
z
" clip-path="url(#p61c616e8f8)" style="fill: #df752f; fill-opacity: 0.42; stroke: #ffffff; stroke-linejoin: miter"/>
   </g>
   <g id="patch_243">
    <path d="M 168.127199 284.4 
L 183.438719 284.4 
L 183.438719 284.4 
L 168.127199 284.4 
z
" clip-path="url(#p61c616e8f8)" style="fill: #df752f; fill-opacity: 0.42; stroke: #ffffff; stroke-linejoin: miter"/>
   </g>
   <g id="patch_244">
    <path d="M 183.438719 284.4 
L 198.750239 284.4 
L 198.750239 284.4 
L 183.438719 284.4 
z
" clip-path="url(#p61c616e8f8)" style="fill: #df752f; fill-opacity: 0.42; stroke: #ffffff; stroke-linejoin: miter"/>
   </g>
   <g id="patch_245">
    <path d="M 198.750239 284.4 
L 214.061759 284.4 
L 214.061759 283.056213 
L 198.750239 283.056213 
z
" clip-path="url(#p61c616e8f8)" style="fill: #df752f; fill-opacity: 0.42; stroke: #ffffff; stroke-linejoin: miter"/>
   </g>
   <g id="patch_246">
    <path d="M 214.061759 284.4 
L 229.373279 284.4 
L 229.373279 284.4 
L 214.061759 284.4 
z
" clip-path="url(#p61c616e8f8)" style="fill: #df752f; fill-opacity: 0.42; stroke: #ffffff; stroke-linejoin: miter"/>
   </g>
   <g id="patch_247">
    <path d="M 229.373279 284.4 
L 244.684799 284.4 
L 244.684799 284.4 
L 229.373279 284.4 
z
" clip-path="url(#p61c616e8f8)" style="fill: #df752f; fill-opacity: 0.42; stroke: #ffffff; stroke-linejoin: miter"/>
   </g>
   <g id="patch_248">
    <path d="M 244.684799 284.4 
L 259.996319 284.4 
L 259.996319 284.4 
L 244.684799 284.4 
z
" clip-path="url(#p61c616e8f8)" style="fill: #df752f; fill-opacity: 0.42; stroke: #ffffff; stroke-linejoin: miter"/>
   </g>
   <g id="patch_249">
    <path d="M 259.996319 284.4 
L 275.307839 284.4 
L 275.307839 284.4 
L 259.996319 284.4 
z
" clip-path="url(#p61c616e8f8)" style="fill: #df752f; fill-opacity: 0.42; stroke: #ffffff; stroke-linejoin: miter"/>
   </g>
   <g id="patch_250">
    <path d="M 275.307839 284.4 
L 290.619359 284.4 
L 290.619359 284.4 
L 275.307839 284.4 
z
" clip-path="url(#p61c616e8f8)" style="fill: #df752f; fill-opacity: 0.42; stroke: #ffffff; stroke-linejoin: miter"/>
   </g>
   <g id="patch_251">
    <path d="M 290.619359 284.4 
L 305.930879 284.4 
L 305.930879 284.4 
L 290.619359 284.4 
z
" clip-path="url(#p61c616e8f8)" style="fill: #df752f; fill-opacity: 0.42; stroke: #ffffff; stroke-linejoin: miter"/>
   </g>
   <g id="patch_252">
    <path d="M 305.930879 284.4 
L 321.242398 284.4 
L 321.242398 284.4 
L 305.930879 284.4 
z
" clip-path="url(#p61c616e8f8)" style="fill: #df752f; fill-opacity: 0.42; stroke: #ffffff; stroke-linejoin: miter"/>
   </g>
   <g id="patch_253">
    <path d="M 321.242398 284.4 
L 336.553918 284.4 
L 336.553918 284.4 
L 321.242398 284.4 
z
" clip-path="url(#p61c616e8f8)" style="fill: #df752f; fill-opacity: 0.42; stroke: #ffffff; stroke-linejoin: miter"/>
   </g>
   <g id="patch_254">
    <path d="M 336.553918 284.4 
L 351.865438 284.4 
L 351.865438 284.4 
L 336.553918 284.4 
z
" clip-path="url(#p61c616e8f8)" style="fill: #df752f; fill-opacity: 0.42; stroke: #ffffff; stroke-linejoin: miter"/>
   </g>
   <g id="patch_255">
    <path d="M 351.865438 284.4 
L 367.176958 284.4 
L 367.176958 284.4 
L 351.865438 284.4 
z
" clip-path="url(#p61c616e8f8)" style="fill: #df752f; fill-opacity: 0.42; stroke: #ffffff; stroke-linejoin: miter"/>
   </g>
   <g id="patch_256">
    <path d="M 367.176958 284.4 
L 382.488478 284.4 
L 382.488478 284.4 
L 367.176958 284.4 
z
" clip-path="url(#p61c616e8f8)" style="fill: #df752f; fill-opacity: 0.42; stroke: #ffffff; stroke-linejoin: miter"/>
   </g>
   <g id="patch_257">
    <path d="M 382.488478 284.4 
L 397.799998 284.4 
L 397.799998 283.056213 
L 382.488478 283.056213 
z
" clip-path="url(#p61c616e8f8)" style="fill: #df752f; fill-opacity: 0.42; stroke: #ffffff; stroke-linejoin: miter"/>
   </g>
   <g id="line2d_31">
    <path d="M 1.129114 284.391908 
L 3.152942 284.283903 
L 5.17677 283.548858 
L 7.200598 280.096161 
L 9.224426 269.435825 
L 11.248254 253.293782 
L 13.272082 244.231626 
L 15.29591 245.829524 
L 17.319738 249.928046 
L 19.343566 251.669909 
L 21.367394 251.484569 
L 23.391222 250.673507 
L 25.41505 248.618499 
L 27.438878 244.588274 
L 29.462706 241.181348 
L 31.486534 239.878724 
L 33.510362 239.132139 
L 35.53419 239.510858 
L 37.558018 241.178899 
L 41.605674 246.27708 
L 43.629502 247.182907 
L 45.65333 243.979465 
L 47.677158 236.059719 
L 49.700986 230.522449 
L 51.724813 232.675956 
L 55.772469 244.145755 
L 57.796297 248.353591 
L 59.820125 252.012924 
L 61.843953 254.664202 
L 63.867781 258.062726 
L 65.891609 260.228283 
L 69.939265 263.483982 
L 71.963093 261.434666 
L 73.986921 268.682119 
L 76.010749 272.215287 
L 78.034577 270.102475 
L 80.058405 275.381268 
L 82.082233 278.980997 
L 84.106061 275.648274 
L 86.129889 275.74291 
L 88.153717 280.778665 
L 90.177545 282.639685 
L 92.201373 280.940615 
L 94.225201 279.975882 
L 96.249029 282.062431 
L 98.272857 283.746306 
L 100.296685 283.848045 
L 102.320513 283.101858 
L 104.344341 282.14423 
L 106.368169 282.706063 
L 108.391997 283.832954 
L 110.415825 284.107554 
L 114.463481 284.112675 
L 118.511137 282.843695 
L 122.558793 283.716166 
L 124.582621 283.758919 
L 128.630277 284.32194 
L 130.654105 284.371289 
L 132.677933 284.300899 
L 134.701761 283.957401 
L 136.725589 283.422178 
L 138.749417 283.575856 
L 140.773245 284.143551 
L 142.797073 284.370638 
L 150.892385 284.399412 
L 158.987697 284.346209 
L 163.035353 283.859501 
L 165.059181 283.99966 
L 167.083009 284.290926 
L 171.130665 284.398943 
L 197.440429 284.378654 
L 199.464257 284.242251 
L 201.488085 283.971109 
L 203.511913 283.971108 
L 205.535741 284.242227 
L 207.559569 284.378342 
L 219.702537 284.399663 
L 264.226753 284.359622 
L 268.274409 284.246748 
L 274.345893 284.399374 
L 403.870884 284.399274 
L 403.870884 284.399274 
" clip-path="url(#p61c616e8f8)" style="fill: none; stroke: #949699; stroke-width: 1.8; stroke-linecap: round"/>
   </g>
   <g id="line2d_32">
    <path d="M -1 281.515534 
L -0.168671 281.248939 
L 2.219475 280.304568 
L 4.607622 279.161537 
L 6.995768 277.803577 
L 9.383915 276.220171 
L 11.772061 274.408411 
L 14.160208 272.374672 
L 16.548354 270.13589 
L 21.324647 265.167101 
L 30.877233 254.683948 
L 33.26538 252.316567 
L 35.653526 250.179185 
L 38.041673 248.326964 
L 40.429819 246.805308 
L 42.817965 245.647994 
L 45.206112 244.87611 
L 47.594258 244.497799 
L 49.982405 244.50872 
L 52.370551 244.893126 
L 54.758698 245.62541 
L 57.146844 246.671987 
L 59.534991 247.993388 
L 61.923137 249.546434 
L 64.311284 251.28635 
L 69.087577 255.151087 
L 81.028309 265.329899 
L 85.804602 269.029377 
L 90.580895 272.28793 
L 92.969041 273.718873 
L 95.357188 275.005149 
L 97.745334 276.141583 
L 100.133481 277.12703 
L 102.521627 277.964759 
L 104.909774 278.66256 
L 109.686067 279.690211 
L 114.46236 280.344077 
L 121.626799 280.964975 
L 133.567532 281.967096 
L 150.284557 283.552694 
L 157.448996 283.978074 
L 164.613436 284.202205 
L 174.166022 284.26132 
L 186.106754 284.093343 
L 200.435633 283.87192 
L 209.988219 283.926616 
L 243.422269 284.384335 
L 298.349638 284.4 
L 369.994033 284.295438 
L 403.428083 283.901667 
L 406 283.937883 
L 406 283.937883 
" clip-path="url(#p61c616e8f8)" style="fill: none; stroke: #df752f; stroke-width: 1.8; stroke-linecap: round"/>
   </g>
   <g id="patch_258">
    <path d="M 7.2 284.4 
L 7.2 227.828571 
" style="fill: none; stroke: #262626; stroke-width: 1.1; stroke-linejoin: miter; stroke-linecap: square"/>
   </g>
   <g id="patch_259">
    <path d="M 397.8 284.4 
L 397.8 227.828571 
" style="fill: none; stroke: #262626; stroke-width: 1.1; stroke-linejoin: miter; stroke-linecap: square"/>
   </g>
   <g id="patch_260">
    <path d="M 7.2 284.4 
L 397.8 284.4 
" style="fill: none; stroke: #262626; stroke-width: 1.1; stroke-linejoin: miter; stroke-linecap: square"/>
   </g>
   <g id="patch_261">
    <path d="M 7.2 227.828571 
L 397.8 227.828571 
" style="fill: none; stroke: #262626; stroke-width: 1.1; stroke-linejoin: miter; stroke-linecap: square"/>
   </g>
  </g>
 </g>
 <defs>
  <clipPath id="p39ef7f314e">
   <rect x="7.2" y="7.2" width="390.6" height="56.571429"/>
  </clipPath>
  <clipPath id="p2d9905f80e">
   <rect x="7.2" y="80.742857" width="390.6" height="56.571429"/>
  </clipPath>
  <clipPath id="paf26e39c22">
   <rect x="7.2" y="154.285714" width="390.6" height="56.571429"/>
  </clipPath>
  <clipPath id="p61c616e8f8">
   <rect x="7.2" y="227.828571" width="390.6" height="56.571429"/>
  </clipPath>
 </defs>
</svg>
