<?xml version="1.0" encoding="utf-8" standalone="no"?>
<!DOCTYPE svg PUBLIC "-//W3C//DTD SVG 1.1//EN"
  "http://www.w3.org/Graphics/SVG/1.1/DTD/svg11.dtd">
<svg xmlns:xlink="http://www.w3.org/1999/xlink" width="420.4875pt" height="420.418125pt" viewBox="0 0 420.4875 420.418125" xmlns="http://www.w3.org/2000/svg" version="1.1">
 <metadata>
  <rdf:RDF xmlns:dc="http://purl.org/dc/elements/1.1/" xmlns:cc="http://creativecommons.org/ns#" xmlns:rdf="http://www.w3.org/1999/02/22-rdf-syntax-ns#">
   <cc:Work>
    <dc:type rdf:resource="http://purl.org/dc/dcmitype/StillImage"/>
    <dc:date>2026-05-15T16:46:16.661000</dc:date>
    <dc:format>image/svg+xml</dc:format>
    <dc:creator>
     <cc:Agent>
      <dc:title>Matplotlib v3.9.4, https://matplotlib.org/</dc:title>
     </cc:Agent>
    </dc:creator>
   </cc:Work>
  </rdf:RDF>
 </metadata>
 <defs>
  <style type="text/css">*{stroke-linejoin: round; stroke-linecap: butt}</style>
 </defs>
 <g id="figure_1">
  <g id="patch_1">
   <path d="M 0 420.418125 
L 420.4875 420.418125 
L 420.4875 0 
L 0 0 
z
" style="fill: #ffffff"/>
  </g>
  <g id="axes_1">
   <g id="patch_2">
    <path d="M 36.7125 396.5 
L 413.2875 396.5 
L 413.2875 7.2 
L 36.7125 7.2 
z
" style="fill: #ffffff"/>
   </g>
   <g id="matplotlib.axis_1">
    <g id="xtick_1">
     <g id="line2d_1">
      <path d="M 96.403524 396.5 
L 96.403524 7.2 
" clip-path="url(#p75811a1335)" style="fill: none; stroke-dasharray: 2.22,0.96; stroke-dashoffset: 0; stroke: #cccccc; stroke-opacity: 0.35; stroke-width: 0.6"/>
     </g>
     <g id="line2d_2">
      <defs>
       <path id="mccff40f9f6" d="M 0 0 
L 0 5 
" style="stroke: #262626; stroke-width: 1.4"/>
      </defs>
      <g>
       <use xlink:href="#mccff40f9f6" x="96.403524" y="396.5" style="fill: #262626; stroke: #262626; stroke-width: 1.4"/>
      </g>
     </g>
     <g id="text_1">
      <!-- 0.100 -->
      <g style="fill: #262626" transform="translate(85.14368 411.442031) scale(0.09 -0.09)">
       <defs>
        <path id="Arial-BoldMT-30" d="M 1756 4600 
Q 2422 4600 2797 4125 
Q 3244 3563 3244 2259 
Q 3244 959 2794 391 
Q 2422 -78 1756 -78 
Q 1088 -78 678 436 
Q 269 950 269 2269 
Q 269 3563 719 4131 
Q 1091 4600 1756 4600 
z
M 1756 3872 
Q 1597 3872 1472 3770 
Q 1347 3669 1278 3406 
Q 1188 3066 1188 2259 
Q 1188 1453 1269 1151 
Q 1350 850 1473 750 
Q 1597 650 1756 650 
Q 1916 650 2041 751 
Q 2166 853 2234 1116 
Q 2325 1453 2325 2259 
Q 2325 3066 2244 3367 
Q 2163 3669 2039 3770 
Q 1916 3872 1756 3872 
z
" transform="scale(0.015625)"/>
        <path id="Arial-BoldMT-2e" d="M 459 0 
L 459 878 
L 1338 878 
L 1338 0 
L 459 0 
z
" transform="scale(0.015625)"/>
        <path id="Arial-BoldMT-31" d="M 2519 0 
L 1641 0 
L 1641 3309 
Q 1159 2859 506 2644 
L 506 3441 
Q 850 3553 1253 3867 
Q 1656 4181 1806 4600 
L 2519 4600 
L 2519 0 
z
" transform="scale(0.015625)"/>
       </defs>
       <use xlink:href="#Arial-BoldMT-30"/>
       <use xlink:href="#Arial-BoldMT-2e" x="55.615234"/>
       <use xlink:href="#Arial-BoldMT-31" x="83.398438"/>
       <use xlink:href="#Arial-BoldMT-30" x="139.013672"/>
       <use xlink:href="#Arial-BoldMT-30" x="194.628906"/>
      </g>
     </g>
    </g>
    <g id="xtick_2">
     <g id="line2d_3">
      <path d="M 160.701762 396.5 
L 160.701762 7.2 
" clip-path="url(#p75811a1335)" style="fill: none; stroke-dasharray: 2.22,0.96; stroke-dashoffset: 0; stroke: #cccccc; stroke-opacity: 0.35; stroke-width: 0.6"/>
     </g>
     <g id="line2d_4">
      <g>
       <use xlink:href="#mccff40f9f6" x="160.701762" y="396.5" style="fill: #262626; stroke: #262626; stroke-width: 1.4"/>
      </g>
     </g>
     <g id="text_2">
      <!-- 0.050 -->
      <g style="fill: #262626" transform="translate(149.441918 411.442031) scale(0.09 -0.09)">
       <defs>
        <path id="Arial-BoldMT-35" d="M 284 1178 
L 1159 1269 
Q 1197 972 1381 798 
Q 1566 625 1806 625 
Q 2081 625 2272 848 
Q 2463 1072 2463 1522 
Q 2463 1944 2273 2155 
Q 2084 2366 1781 2366 
Q 1403 2366 1103 2031 
L 391 2134 
L 841 4519 
L 3163 4519 
L 3163 3697 
L 1506 3697 
L 1369 2919 
Q 1663 3066 1969 3066 
Q 2553 3066 2959 2641 
Q 3366 2216 3366 1538 
Q 3366 972 3038 528 
Q 2591 -78 1797 -78 
Q 1163 -78 763 262 
Q 363 603 284 1178 
z
" transform="scale(0.015625)"/>
       </defs>
       <use xlink:href="#Arial-BoldMT-30"/>
       <use xlink:href="#Arial-BoldMT-2e" x="55.615234"/>
       <use xlink:href="#Arial-BoldMT-30" x="83.398438"/>
       <use xlink:href="#Arial-BoldMT-35" x="139.013672"/>
       <use xlink:href="#Arial-BoldMT-30" x="194.628906"/>
      </g>
     </g>
    </g>
    <g id="xtick_3">
     <g id="line2d_5">
      <path d="M 225 396.5 
L 225 7.2 
" clip-path="url(#p75811a1335)" style="fill: none; stroke-dasharray: 2.22,0.96; stroke-dashoffset: 0; stroke: #cccccc; stroke-opacity: 0.35; stroke-width: 0.6"/>
     </g>
     <g id="line2d_6">
      <g>
       <use xlink:href="#mccff40f9f6" x="225" y="396.5" style="fill: #262626; stroke: #262626; stroke-width: 1.4"/>
      </g>
     </g>
     <g id="text_3">
      <!-- 0.000 -->
      <g style="fill: #262626" transform="translate(213.740156 411.442031) scale(0.09 -0.09)">
       <use xlink:href="#Arial-BoldMT-30"/>
       <use xlink:href="#Arial-BoldMT-2e" x="55.615234"/>
       <use xlink:href="#Arial-BoldMT-30" x="83.398438"/>
       <use xlink:href="#Arial-BoldMT-30" x="139.013672"/>
       <use xlink:href="#Arial-BoldMT-30" x="194.628906"/>
      </g>
     </g>
    </g>
    <g id="xtick_4">
     <g id="line2d_7">
      <path d="M 289.298238 396.5 
L 289.298238 7.2 
" clip-path="url(#p75811a1335)" style="fill: none; stroke-dasharray: 2.22,0.96; stroke-dashoffset: 0; stroke: #cccccc; stroke-opacity: 0.35; stroke-width: 0.6"/>
     </g>
     <g id="line2d_8">
      <g>
       <use xlink:href="#mccff40f9f6" x="289.298238" y="396.5" style="fill: #262626; stroke: #262626; stroke-width: 1.4"/>
      </g>
     </g>
     <g id="text_4">
      <!-- 0.050 -->
      <g style="fill: #262626" transform="translate(278.038394 411.442031) scale(0.09 -0.09)">
       <use xlink:href="#Arial-BoldMT-30"/>
       <use xlink:href="#Arial-BoldMT-2e" x="55.615234"/>
       <use xlink:href="#Arial-BoldMT-30" x="83.398438"/>
       <use xlink:href="#Arial-BoldMT-35" x="139.013672"/>
       <use xlink:href="#Arial-BoldMT-30" x="194.628906"/>
      </g>
     </g>
    </g>
    <g id="xtick_5">
     <g id="line2d_9">
      <path d="M 353.596476 396.5 
L 353.596476 7.2 
" clip-path="url(#p75811a1335)" style="fill: none; stroke-dasharray: 2.22,0.96; stroke-dashoffset: 0; stroke: #cccccc; stroke-opacity: 0.35; stroke-width: 0.6"/>
     </g>
     <g id="line2d_10">
      <g>
       <use xlink:href="#mccff40f9f6" x="353.596476" y="396.5" style="fill: #262626; stroke: #262626; stroke-width: 1.4"/>
      </g>
     </g>
     <g id="text_5">
      <!-- 0.100 -->
      <g style="fill: #262626" transform="translate(342.336632 411.442031) scale(0.09 -0.09)">
       <use xlink:href="#Arial-BoldMT-30"/>
       <use xlink:href="#Arial-BoldMT-2e" x="55.615234"/>
       <use xlink:href="#Arial-BoldMT-31" x="83.398438"/>
       <use xlink:href="#Arial-BoldMT-30" x="139.013672"/>
       <use xlink:href="#Arial-BoldMT-30" x="194.628906"/>
      </g>
     </g>
    </g>
   </g>
   <g id="matplotlib.axis_2">
    <g id="ytick_1">
     <g id="line2d_11">
      <defs>
       <path id="m130bdc7cd5" d="M 0 0 
L -4 0 
" style="stroke: #262626; stroke-width: 1.2"/>
      </defs>
      <g>
       <use xlink:href="#m130bdc7cd5" x="36.7125" y="24.895455" style="fill: #262626; stroke: #262626; stroke-width: 1.2"/>
      </g>
     </g>
     <g id="text_6">
      <!-- N67 -->
      <g style="fill: #262626" transform="translate(7.2 29.190142) scale(0.12 -0.12)">
       <defs>
        <path id="Arial-BoldMT-4e" d="M 475 0 
L 475 4581 
L 1375 4581 
L 3250 1522 
L 3250 4581 
L 4109 4581 
L 4109 0 
L 3181 0 
L 1334 2988 
L 1334 0 
L 475 0 
z
" transform="scale(0.015625)"/>
        <path id="Arial-BoldMT-36" d="M 3247 3459 
L 2397 3366 
Q 2366 3628 2234 3753 
Q 2103 3878 1894 3878 
Q 1616 3878 1423 3628 
Q 1231 3378 1181 2588 
Q 1509 2975 1997 2975 
Q 2547 2975 2939 2556 
Q 3331 2138 3331 1475 
Q 3331 772 2918 347 
Q 2506 -78 1859 -78 
Q 1166 -78 719 461 
Q 272 1000 272 2228 
Q 272 3488 737 4044 
Q 1203 4600 1947 4600 
Q 2469 4600 2811 4308 
Q 3153 4016 3247 3459 
z
M 1256 1544 
Q 1256 1116 1453 883 
Q 1650 650 1903 650 
Q 2147 650 2309 840 
Q 2472 1031 2472 1466 
Q 2472 1913 2297 2120 
Q 2122 2328 1859 2328 
Q 1606 2328 1431 2129 
Q 1256 1931 1256 1544 
z
" transform="scale(0.015625)"/>
        <path id="Arial-BoldMT-37" d="M 272 3703 
L 272 4519 
L 3275 4519 
L 3275 3881 
Q 2903 3516 2518 2831 
Q 2134 2147 1932 1376 
Q 1731 606 1734 0 
L 888 0 
Q 909 950 1279 1937 
Q 1650 2925 2269 3703 
L 272 3703 
z
" transform="scale(0.015625)"/>
       </defs>
       <use xlink:href="#Arial-BoldMT-4e"/>
       <use xlink:href="#Arial-BoldMT-36" x="72.216797"/>
       <use xlink:href="#Arial-BoldMT-37" x="127.832031"/>
      </g>
     </g>
    </g>
    <g id="ytick_2">
     <g id="line2d_12">
      <g>
       <use xlink:href="#m130bdc7cd5" x="36.7125" y="50.174675" style="fill: #262626; stroke: #262626; stroke-width: 1.2"/>
      </g>
     </g>
     <g id="text_7">
      <!-- N68 -->
      <g style="fill: #262626" transform="translate(7.2 54.469363) scale(0.12 -0.12)">
       <defs>
        <path id="Arial-BoldMT-38" d="M 1025 2472 
Q 684 2616 529 2867 
Q 375 3119 375 3419 
Q 375 3931 733 4265 
Q 1091 4600 1750 4600 
Q 2403 4600 2764 4265 
Q 3125 3931 3125 3419 
Q 3125 3100 2959 2851 
Q 2794 2603 2494 2472 
Q 2875 2319 3073 2025 
Q 3272 1731 3272 1347 
Q 3272 713 2867 316 
Q 2463 -81 1791 -81 
Q 1166 -81 750 247 
Q 259 634 259 1309 
Q 259 1681 443 1992 
Q 628 2303 1025 2472 
z
M 1206 3356 
Q 1206 3094 1354 2947 
Q 1503 2800 1750 2800 
Q 2000 2800 2150 2948 
Q 2300 3097 2300 3359 
Q 2300 3606 2151 3754 
Q 2003 3903 1759 3903 
Q 1506 3903 1356 3753 
Q 1206 3603 1206 3356 
z
M 1125 1394 
Q 1125 1031 1311 828 
Q 1497 625 1775 625 
Q 2047 625 2225 820 
Q 2403 1016 2403 1384 
Q 2403 1706 2222 1901 
Q 2041 2097 1763 2097 
Q 1441 2097 1283 1875 
Q 1125 1653 1125 1394 
z
" transform="scale(0.015625)"/>
       </defs>
       <use xlink:href="#Arial-BoldMT-4e"/>
       <use xlink:href="#Arial-BoldMT-36" x="72.216797"/>
       <use xlink:href="#Arial-BoldMT-38" x="127.832031"/>
      </g>
     </g>
    </g>
    <g id="ytick_3">
     <g id="line2d_13">
      <g>
       <use xlink:href="#m130bdc7cd5" x="36.7125" y="75.453896" style="fill: #262626; stroke: #262626; stroke-width: 1.2"/>
      </g>
     </g>
     <g id="text_8">
      <!-- N65 -->
      <g style="fill: #262626" transform="translate(7.2 79.748584) scale(0.12 -0.12)">
       <use xlink:href="#Arial-BoldMT-4e"/>
       <use xlink:href="#Arial-BoldMT-36" x="72.216797"/>
       <use xlink:href="#Arial-BoldMT-35" x="127.832031"/>
      </g>
     </g>
    </g>
    <g id="ytick_4">
     <g id="line2d_14">
      <g>
       <use xlink:href="#m130bdc7cd5" x="36.7125" y="100.733117" style="fill: #262626; stroke: #262626; stroke-width: 1.2"/>
      </g>
     </g>
     <g id="text_9">
      <!-- N59 -->
      <g style="fill: #262626" transform="translate(7.2 105.027804) scale(0.12 -0.12)">
       <defs>
        <path id="Arial-BoldMT-39" d="M 291 1059 
L 1141 1153 
Q 1172 894 1303 769 
Q 1434 644 1650 644 
Q 1922 644 2112 894 
Q 2303 1144 2356 1931 
Q 2025 1547 1528 1547 
Q 988 1547 595 1964 
Q 203 2381 203 3050 
Q 203 3747 617 4173 
Q 1031 4600 1672 4600 
Q 2369 4600 2816 4061 
Q 3263 3522 3263 2288 
Q 3263 1031 2797 475 
Q 2331 -81 1584 -81 
Q 1047 -81 715 205 
Q 384 491 291 1059 
z
M 2278 2978 
Q 2278 3403 2083 3637 
Q 1888 3872 1631 3872 
Q 1388 3872 1227 3680 
Q 1066 3488 1066 3050 
Q 1066 2606 1241 2398 
Q 1416 2191 1678 2191 
Q 1931 2191 2104 2391 
Q 2278 2591 2278 2978 
z
" transform="scale(0.015625)"/>
       </defs>
       <use xlink:href="#Arial-BoldMT-4e"/>
       <use xlink:href="#Arial-BoldMT-35" x="72.216797"/>
       <use xlink:href="#Arial-BoldMT-39" x="127.832031"/>
      </g>
     </g>
    </g>
    <g id="ytick_5">
     <g id="line2d_15">
      <g>
       <use xlink:href="#m130bdc7cd5" x="36.7125" y="126.012338" style="fill: #262626; stroke: #262626; stroke-width: 1.2"/>
      </g>
     </g>
     <g id="text_10">
      <!-- N0 -->
      <g style="fill: #262626" transform="translate(13.873125 130.307025) scale(0.12 -0.12)">
       <use xlink:href="#Arial-BoldMT-4e"/>
       <use xlink:href="#Arial-BoldMT-30" x="72.216797"/>
      </g>
     </g>
    </g>
    <g id="ytick_6">
     <g id="line2d_16">
      <g>
       <use xlink:href="#m130bdc7cd5" x="36.7125" y="151.291558" style="fill: #262626; stroke: #262626; stroke-width: 1.2"/>
      </g>
     </g>
     <g id="text_11">
      <!-- N74 -->
      <g style="fill: #262626" transform="translate(7.2 155.586246) scale(0.12 -0.12)">
       <defs>
        <path id="Arial-BoldMT-34" d="M 1994 0 
L 1994 922 
L 119 922 
L 119 1691 
L 2106 4600 
L 2844 4600 
L 2844 1694 
L 3413 1694 
L 3413 922 
L 2844 922 
L 2844 0 
L 1994 0 
z
M 1994 1694 
L 1994 3259 
L 941 1694 
L 1994 1694 
z
" transform="scale(0.015625)"/>
       </defs>
       <use xlink:href="#Arial-BoldMT-4e"/>
       <use xlink:href="#Arial-BoldMT-37" x="72.216797"/>
       <use xlink:href="#Arial-BoldMT-34" x="127.832031"/>
      </g>
     </g>
    </g>
    <g id="ytick_7">
     <g id="line2d_17">
      <g>
       <use xlink:href="#m130bdc7cd5" x="36.7125" y="176.570779" style="fill: #262626; stroke: #262626; stroke-width: 1.2"/>
      </g>
     </g>
     <g id="text_12">
      <!-- N64 -->
      <g style="fill: #262626" transform="translate(7.2 180.865467) scale(0.12 -0.12)">
       <use xlink:href="#Arial-BoldMT-4e"/>
       <use xlink:href="#Arial-BoldMT-36" x="72.216797"/>
       <use xlink:href="#Arial-BoldMT-34" x="127.832031"/>
      </g>
     </g>
    </g>
    <g id="ytick_8">
     <g id="line2d_18">
      <g>
       <use xlink:href="#m130bdc7cd5" x="36.7125" y="201.85" style="fill: #262626; stroke: #262626; stroke-width: 1.2"/>
      </g>
     </g>
     <g id="text_13">
      <!-- N73 -->
      <g style="fill: #262626" transform="translate(7.2 206.144687) scale(0.12 -0.12)">
       <defs>
        <path id="Arial-BoldMT-33" d="M 241 1216 
L 1091 1319 
Q 1131 994 1309 822 
Q 1488 650 1741 650 
Q 2013 650 2198 856 
Q 2384 1063 2384 1413 
Q 2384 1744 2206 1937 
Q 2028 2131 1772 2131 
Q 1603 2131 1369 2066 
L 1466 2781 
Q 1822 2772 2009 2936 
Q 2197 3100 2197 3372 
Q 2197 3603 2059 3740 
Q 1922 3878 1694 3878 
Q 1469 3878 1309 3722 
Q 1150 3566 1116 3266 
L 306 3403 
Q 391 3819 561 4067 
Q 731 4316 1036 4458 
Q 1341 4600 1719 4600 
Q 2366 4600 2756 4188 
Q 3078 3850 3078 3425 
Q 3078 2822 2419 2463 
Q 2813 2378 3048 2084 
Q 3284 1791 3284 1375 
Q 3284 772 2843 347 
Q 2403 -78 1747 -78 
Q 1125 -78 715 280 
Q 306 638 241 1216 
z
" transform="scale(0.015625)"/>
       </defs>
       <use xlink:href="#Arial-BoldMT-4e"/>
       <use xlink:href="#Arial-BoldMT-37" x="72.216797"/>
       <use xlink:href="#Arial-BoldMT-33" x="127.832031"/>
      </g>
     </g>
    </g>
    <g id="ytick_9">
     <g id="line2d_19">
      <g>
       <use xlink:href="#m130bdc7cd5" x="36.7125" y="227.129221" style="fill: #262626; stroke: #262626; stroke-width: 1.2"/>
      </g>
     </g>
     <g id="text_14">
      <!-- N60 -->
      <g style="fill: #262626" transform="translate(7.2 231.423908) scale(0.12 -0.12)">
       <use xlink:href="#Arial-BoldMT-4e"/>
       <use xlink:href="#Arial-BoldMT-36" x="72.216797"/>
       <use xlink:href="#Arial-BoldMT-30" x="127.832031"/>
      </g>
     </g>
    </g>
    <g id="ytick_10">
     <g id="line2d_20">
      <g>
       <use xlink:href="#m130bdc7cd5" x="36.7125" y="252.408442" style="fill: #262626; stroke: #262626; stroke-width: 1.2"/>
      </g>
     </g>
     <g id="text_15">
      <!-- N4 -->
      <g style="fill: #262626" transform="translate(13.873125 256.703129) scale(0.12 -0.12)">
       <use xlink:href="#Arial-BoldMT-4e"/>
       <use xlink:href="#Arial-BoldMT-34" x="72.216797"/>
      </g>
     </g>
    </g>
    <g id="ytick_11">
     <g id="line2d_21">
      <g>
       <use xlink:href="#m130bdc7cd5" x="36.7125" y="277.687662" style="fill: #262626; stroke: #262626; stroke-width: 1.2"/>
      </g>
     </g>
     <g id="text_16">
      <!-- N46 -->
      <g style="fill: #262626" transform="translate(7.2 281.98235) scale(0.12 -0.12)">
       <use xlink:href="#Arial-BoldMT-4e"/>
       <use xlink:href="#Arial-BoldMT-34" x="72.216797"/>
       <use xlink:href="#Arial-BoldMT-36" x="127.832031"/>
      </g>
     </g>
    </g>
    <g id="ytick_12">
     <g id="line2d_22">
      <g>
       <use xlink:href="#m130bdc7cd5" x="36.7125" y="302.966883" style="fill: #262626; stroke: #262626; stroke-width: 1.2"/>
      </g>
     </g>
     <g id="text_17">
      <!-- N45 -->
      <g style="fill: #262626" transform="translate(7.2 307.261571) scale(0.12 -0.12)">
       <use xlink:href="#Arial-BoldMT-4e"/>
       <use xlink:href="#Arial-BoldMT-34" x="72.216797"/>
       <use xlink:href="#Arial-BoldMT-35" x="127.832031"/>
      </g>
     </g>
    </g>
    <g id="ytick_13">
     <g id="line2d_23">
      <g>
       <use xlink:href="#m130bdc7cd5" x="36.7125" y="328.246104" style="fill: #262626; stroke: #262626; stroke-width: 1.2"/>
      </g>
     </g>
     <g id="text_18">
      <!-- N52 -->
      <g style="fill: #262626" transform="translate(7.2 332.540791) scale(0.12 -0.12)">
       <defs>
        <path id="Arial-BoldMT-32" d="M 3238 816 
L 3238 0 
L 159 0 
Q 209 463 459 877 
Q 709 1291 1447 1975 
Q 2041 2528 2175 2725 
Q 2356 2997 2356 3263 
Q 2356 3556 2198 3714 
Q 2041 3872 1763 3872 
Q 1488 3872 1325 3706 
Q 1163 3541 1138 3156 
L 263 3244 
Q 341 3969 753 4284 
Q 1166 4600 1784 4600 
Q 2463 4600 2850 4234 
Q 3238 3869 3238 3325 
Q 3238 3016 3127 2736 
Q 3016 2456 2775 2150 
Q 2616 1947 2200 1565 
Q 1784 1184 1673 1059 
Q 1563 934 1494 816 
L 3238 816 
z
" transform="scale(0.015625)"/>
       </defs>
       <use xlink:href="#Arial-BoldMT-4e"/>
       <use xlink:href="#Arial-BoldMT-35" x="72.216797"/>
       <use xlink:href="#Arial-BoldMT-32" x="127.832031"/>
      </g>
     </g>
    </g>
    <g id="ytick_14">
     <g id="line2d_24">
      <g>
       <use xlink:href="#m130bdc7cd5" x="36.7125" y="353.525325" style="fill: #262626; stroke: #262626; stroke-width: 1.2"/>
      </g>
     </g>
     <g id="text_19">
      <!-- N44 -->
      <g style="fill: #262626" transform="translate(7.2 357.820012) scale(0.12 -0.12)">
       <use xlink:href="#Arial-BoldMT-4e"/>
       <use xlink:href="#Arial-BoldMT-34" x="72.216797"/>
       <use xlink:href="#Arial-BoldMT-34" x="127.832031"/>
      </g>
     </g>
    </g>
    <g id="ytick_15">
     <g id="line2d_25">
      <g>
       <use xlink:href="#m130bdc7cd5" x="36.7125" y="378.804545" style="fill: #262626; stroke: #262626; stroke-width: 1.2"/>
      </g>
     </g>
     <g id="text_20">
      <!-- N2 -->
      <g style="fill: #262626" transform="translate(13.873125 383.099233) scale(0.12 -0.12)">
       <use xlink:href="#Arial-BoldMT-4e"/>
       <use xlink:href="#Arial-BoldMT-32" x="72.216797"/>
      </g>
     </g>
    </g>
   </g>
   <g id="line2d_26">
    <path d="M 225 396.5 
L 225 7.2 
" clip-path="url(#p75811a1335)" style="fill: none; stroke-dasharray: 4.44,1.92; stroke-dashoffset: 0; stroke: #000000; stroke-opacity: 0.85; stroke-width: 1.2"/>
   </g>
   <g id="LineCollection_1">
    <path d="M 131.766704 24.895455 
L 379.334016 24.895455 
" clip-path="url(#p75811a1335)" style="fill: none; stroke: #000000; stroke-opacity: 0.55; stroke-width: 1.8"/>
   </g>
   <g id="LineCollection_2">
    <path d="M 160.361078 50.174675 
L 344.795536 50.174675 
" clip-path="url(#p75811a1335)" style="fill: none; stroke: #000000; stroke-opacity: 0.55; stroke-width: 1.8"/>
   </g>
   <g id="LineCollection_3">
    <path d="M 147.844465 75.453896 
L 260.829517 75.453896 
" clip-path="url(#p75811a1335)" style="fill: none; stroke: #000000; stroke-opacity: 0.55; stroke-width: 1.8"/>
   </g>
   <g id="LineCollection_4">
    <path d="M 126.424248 100.733117 
L 288.513542 100.733117 
" clip-path="url(#p75811a1335)" style="fill: none; stroke: #000000; stroke-opacity: 0.55; stroke-width: 1.8"/>
   </g>
   <g id="LineCollection_5">
    <path d="M 114.490206 126.012338 
L 301.131068 126.012338 
" clip-path="url(#p75811a1335)" style="fill: none; stroke: #000000; stroke-opacity: 0.55; stroke-width: 1.8"/>
   </g>
   <g id="LineCollection_6">
    <path d="M 168.556909 151.291558 
L 247.14722 151.291558 
" clip-path="url(#p75811a1335)" style="fill: none; stroke: #000000; stroke-opacity: 0.55; stroke-width: 1.8"/>
   </g>
   <g id="LineCollection_7">
    <path d="M 133.700518 176.570779 
L 283.988268 176.570779 
" clip-path="url(#p75811a1335)" style="fill: none; stroke: #000000; stroke-opacity: 0.55; stroke-width: 1.8"/>
   </g>
   <g id="LineCollection_8">
    <path d="M 156.794991 201.85 
L 323.544481 201.85 
" clip-path="url(#p75811a1335)" style="fill: none; stroke: #000000; stroke-opacity: 0.55; stroke-width: 1.8"/>
   </g>
   <g id="LineCollection_9">
    <path d="M 174.431654 227.129221 
L 302.568508 227.129221 
" clip-path="url(#p75811a1335)" style="fill: none; stroke: #000000; stroke-opacity: 0.55; stroke-width: 1.8"/>
   </g>
   <g id="LineCollection_10">
    <path d="M 220.484736 252.408442 
L 251.246585 252.408442 
" clip-path="url(#p75811a1335)" style="fill: none; stroke: #000000; stroke-opacity: 0.55; stroke-width: 1.8"/>
   </g>
   <g id="LineCollection_11">
    <path d="M 179.288428 277.687662 
L 255.399189 277.687662 
" clip-path="url(#p75811a1335)" style="fill: none; stroke: #000000; stroke-opacity: 0.55; stroke-width: 1.8"/>
   </g>
   <g id="LineCollection_12">
    <path d="M 156.073462 302.966883 
L 281.273104 302.966883 
" clip-path="url(#p75811a1335)" style="fill: none; stroke: #000000; stroke-opacity: 0.55; stroke-width: 1.8"/>
   </g>
   <g id="LineCollection_13">
    <path d="M 75.371843 328.246104 
L 362.51507 328.246104 
" clip-path="url(#p75811a1335)" style="fill: none; stroke: #000000; stroke-opacity: 0.55; stroke-width: 1.8"/>
   </g>
   <g id="LineCollection_14">
    <path d="M 192.646664 353.525325 
L 269.134724 353.525325 
" clip-path="url(#p75811a1335)" style="fill: none; stroke: #000000; stroke-opacity: 0.55; stroke-width: 1.8"/>
   </g>
   <g id="LineCollection_15">
    <path d="M 207.448123 378.804545 
L 253.855272 378.804545 
" clip-path="url(#p75811a1335)" style="fill: none; stroke: #000000; stroke-opacity: 0.55; stroke-width: 1.8"/>
   </g>
   <g id="patch_3">
    <path d="M 36.7125 396.5 
L 36.7125 7.2 
" style="fill: none; stroke: #262626; stroke-width: 1.1; stroke-linejoin: miter; stroke-linecap: square"/>
   </g>
   <g id="patch_4">
    <path d="M 36.7125 396.5 
L 413.2875 396.5 
" style="fill: none; stroke: #262626; stroke-width: 1.1; stroke-linejoin: miter; stroke-linecap: square"/>
   </g>
   <g id="PathCollection_1">
    <defs>
     <path id="m3fc6d96712" d="M 0 4.472136 
C 1.186024 4.472136 2.323632 4.000923 3.162278 3.162278 
C 4.000923 2.323632 4.472136 1.186024 4.472136 0 
C 4.472136 -1.186024 4.000923 -2.323632 3.162278 -3.162278 
C 2.323632 -4.000923 1.186024 -4.472136 0 -4.472136 
C -1.186024 -4.472136 -2.323632 -4.000923 -3.162278 -3.162278 
C -4.000923 -2.323632 -4.472136 -1.186024 -4.472136 0 
C -4.472136 1.186024 -4.000923 2.323632 -3.162278 3.162278 
C -2.323632 4.000923 -1.186024 4.472136 0 4.472136 
z
" style="stroke: #000000; stroke-width: 0.7"/>
    </defs>
    <g clip-path="url(#p75811a1335)">
     <use xlink:href="#m3fc6d96712" x="131.766704" y="24.895455" style="fill: #949699; stroke: #000000; stroke-width: 0.7"/>
    </g>
   </g>
   <g id="PathCollection_2">
    <defs>
     <path id="ma1849f5fff" d="M 0 4.472136 
C 1.186024 4.472136 2.323632 4.000923 3.162278 3.162278 
C 4.000923 2.323632 4.472136 1.186024 4.472136 0 
C 4.472136 -1.186024 4.000923 -2.323632 3.162278 -3.162278 
C 2.323632 -4.000923 1.186024 -4.472136 0 -4.472136 
C -1.186024 -4.472136 -2.323632 -4.000923 -3.162278 -3.162278 
C -4.000923 -2.323632 -4.472136 -1.186024 -4.472136 0 
C -4.472136 1.186024 -4.000923 2.323632 -3.162278 3.162278 
C -2.323632 4.000923 -1.186024 4.472136 0 4.472136 
z
" style="stroke: #000000; stroke-width: 0.7"/>
    </defs>
    <g clip-path="url(#p75811a1335)">
     <use xlink:href="#ma1849f5fff" x="379.334016" y="24.895455" style="fill: #df752f; stroke: #000000; stroke-width: 0.7"/>
    </g>
   </g>
   <g id="PathCollection_3">
    <g clip-path="url(#p75811a1335)">
     <use xlink:href="#m3fc6d96712" x="160.361078" y="50.174675" style="fill: #949699; stroke: #000000; stroke-width: 0.7"/>
    </g>
   </g>
   <g id="PathCollection_4">
    <g clip-path="url(#p75811a1335)">
     <use xlink:href="#ma1849f5fff" x="344.795536" y="50.174675" style="fill: #df752f; stroke: #000000; stroke-width: 0.7"/>
    </g>
   </g>
   <g id="PathCollection_5">
    <g clip-path="url(#p75811a1335)">
     <use xlink:href="#m3fc6d96712" x="147.844465" y="75.453896" style="fill: #949699; stroke: #000000; stroke-width: 0.7"/>
    </g>
   </g>
   <g id="PathCollection_6">
    <g clip-path="url(#p75811a1335)">
     <use xlink:href="#ma1849f5fff" x="260.829517" y="75.453896" style="fill: #df752f; stroke: #000000; stroke-width: 0.7"/>
    </g>
   </g>
   <g id="PathCollection_7">
    <g clip-path="url(#p75811a1335)">
     <use xlink:href="#m3fc6d96712" x="126.424248" y="100.733117" style="fill: #949699; stroke: #000000; stroke-width: 0.7"/>
    </g>
   </g>
   <g id="PathCollection_8">
    <g clip-path="url(#p75811a1335)">
     <use xlink:href="#ma1849f5fff" x="288.513542" y="100.733117" style="fill: #df752f; stroke: #000000; stroke-width: 0.7"/>
    </g>
   </g>
   <g id="PathCollection_9">
    <g clip-path="url(#p75811a1335)">
     <use xlink:href="#m3fc6d96712" x="114.490206" y="126.012338" style="fill: #949699; stroke: #000000; stroke-width: 0.7"/>
    </g>
   </g>
   <g id="PathCollection_10">
    <g clip-path="url(#p75811a1335)">
     <use xlink:href="#ma1849f5fff" x="301.131068" y="126.012338" style="fill: #df752f; stroke: #000000; stroke-width: 0.7"/>
    </g>
   </g>
   <g id="PathCollection_11">
    <g clip-path="url(#p75811a1335)">
     <use xlink:href="#m3fc6d96712" x="168.556909" y="151.291558" style="fill: #949699; stroke: #000000; stroke-width: 0.7"/>
    </g>
   </g>
   <g id="PathCollection_12">
    <g clip-path="url(#p75811a1335)">
     <use xlink:href="#ma1849f5fff" x="247.14722" y="151.291558" style="fill: #df752f; stroke: #000000; stroke-width: 0.7"/>
    </g>
   </g>
   <g id="PathCollection_13">
    <g clip-path="url(#p75811a1335)">
     <use xlink:href="#m3fc6d96712" x="133.700518" y="176.570779" style="fill: #949699; stroke: #000000; stroke-width: 0.7"/>
    </g>
   </g>
   <g id="PathCollection_14">
    <g clip-path="url(#p75811a1335)">
     <use xlink:href="#ma1849f5fff" x="283.988268" y="176.570779" style="fill: #df752f; stroke: #000000; stroke-width: 0.7"/>
    </g>
   </g>
   <g id="PathCollection_15">
    <g clip-path="url(#p75811a1335)">
     <use xlink:href="#m3fc6d96712" x="156.794991" y="201.85" style="fill: #949699; stroke: #000000; stroke-width: 0.7"/>
    </g>
   </g>
   <g id="PathCollection_16">
    <g clip-path="url(#p75811a1335)">
     <use xlink:href="#ma1849f5fff" x="323.544481" y="201.85" style="fill: #df752f; stroke: #000000; stroke-width: 0.7"/>
    </g>
   </g>
   <g id="PathCollection_17">
    <g clip-path="url(#p75811a1335)">
     <use xlink:href="#m3fc6d96712" x="174.431654" y="227.129221" style="fill: #949699; stroke: #000000; stroke-width: 0.7"/>
    </g>
   </g>
   <g id="PathCollection_18">
    <g clip-path="url(#p75811a1335)">
     <use xlink:href="#ma1849f5fff" x="302.568508" y="227.129221" style="fill: #df752f; stroke: #000000; stroke-width: 0.7"/>
    </g>
   </g>
   <g id="PathCollection_19">
    <g clip-path="url(#p75811a1335)">
     <use xlink:href="#m3fc6d96712" x="220.484736" y="252.408442" style="fill: #949699; stroke: #000000; stroke-width: 0.7"/>
    </g>
   </g>
   <g id="PathCollection_20">
    <g clip-path="url(#p75811a1335)">
     <use xlink:href="#ma1849f5fff" x="251.246585" y="252.408442" style="fill: #df752f; stroke: #000000; stroke-width: 0.7"/>
    </g>
   </g>
   <g id="PathCollection_21">
    <g clip-path="url(#p75811a1335)">
     <use xlink:href="#m3fc6d96712" x="179.288428" y="277.687662" style="fill: #949699; stroke: #000000; stroke-width: 0.7"/>
    </g>
   </g>
   <g id="PathCollection_22">
    <g clip-path="url(#p75811a1335)">
     <use xlink:href="#ma1849f5fff" x="255.399189" y="277.687662" style="fill: #df752f; stroke: #000000; stroke-width: 0.7"/>
    </g>
   </g>
   <g id="PathCollection_23">
    <g clip-path="url(#p75811a1335)">
     <use xlink:href="#m3fc6d96712" x="156.073462" y="302.966883" style="fill: #949699; stroke: #000000; stroke-width: 0.7"/>
    </g>
   </g>
   <g id="PathCollection_24">
    <g clip-path="url(#p75811a1335)">
     <use xlink:href="#ma1849f5fff" x="281.273104" y="302.966883" style="fill: #df752f; stroke: #000000; stroke-width: 0.7"/>
    </g>
   </g>
   <g id="PathCollection_25">
    <g clip-path="url(#p75811a1335)">
     <use xlink:href="#m3fc6d96712" x="75.371843" y="328.246104" style="fill: #949699; stroke: #000000; stroke-width: 0.7"/>
    </g>
   </g>
   <g id="PathCollection_26">
    <g clip-path="url(#p75811a1335)">
     <use xlink:href="#ma1849f5fff" x="362.51507" y="328.246104" style="fill: #df752f; stroke: #000000; stroke-width: 0.7"/>
    </g>
   </g>
   <g id="PathCollection_27">
    <g clip-path="url(#p75811a1335)">
     <use xlink:href="#m3fc6d96712" x="192.646664" y="353.525325" style="fill: #949699; stroke: #000000; stroke-width: 0.7"/>
    </g>
   </g>
   <g id="PathCollection_28">
    <g clip-path="url(#p75811a1335)">
     <use xlink:href="#ma1849f5fff" x="269.134724" y="353.525325" style="fill: #df752f; stroke: #000000; stroke-width: 0.7"/>
    </g>
   </g>
   <g id="PathCollection_29">
    <g clip-path="url(#p75811a1335)">
     <use xlink:href="#m3fc6d96712" x="207.448123" y="378.804545" style="fill: #949699; stroke: #000000; stroke-width: 0.7"/>
    </g>
   </g>
   <g id="PathCollection_30">
    <g clip-path="url(#p75811a1335)">
     <use xlink:href="#ma1849f5fff" x="253.855272" y="378.804545" style="fill: #df752f; stroke: #000000; stroke-width: 0.7"/>
    </g>
   </g>
  </g>
 </g>
 <defs>
  <clipPath id="p75811a1335">
   <rect x="36.7125" y="7.2" width="376.575" height="389.3"/>
  </clipPath>
 </defs>
</svg>
