<?xml version="1.0" encoding="utf-8" standalone="no"?>
<!DOCTYPE svg PUBLIC "-//W3C//DTD SVG 1.1//EN"
  "http://www.w3.org/Graphics/SVG/1.1/DTD/svg11.dtd">
<svg xmlns:xlink="http://www.w3.org/1999/xlink" width="167.64378pt" height="179.67685pt" viewBox="0 0 167.64378 179.67685" xmlns="http://www.w3.org/2000/svg" version="1.1">
 <metadata>
  <rdf:RDF xmlns:dc="http://purl.org/dc/elements/1.1/" xmlns:cc="http://creativecommons.org/ns#" xmlns:rdf="http://www.w3.org/1999/02/22-rdf-syntax-ns#">
   <cc:Work>
    <dc:type rdf:resource="http://purl.org/dc/dcmitype/StillImage"/>
    <dc:date>2026-06-04T15:31:21.509088</dc:date>
    <dc:format>image/svg+xml</dc:format>
    <dc:creator>
     <cc:Agent>
      <dc:title>Matplotlib v3.9.4, https://matplotlib.org/</dc:title>
     </cc:Agent>
    </dc:creator>
   </cc:Work>
  </rdf:RDF>
 </metadata>
 <defs>
  <style type="text/css">*{stroke-linejoin: round; stroke-linecap: butt}</style>
 </defs>
 <g id="figure_1">
  <g id="patch_1">
   <path d="M 0 179.67685 
L 167.64378 179.67685 
L 167.64378 0 
L 0 0 
z
" style="fill: #ffffff"/>
  </g>
  <g id="axes_1">
   <g id="patch_2">
    <path d="M 1.44 29.064508 
L 166.20378 29.064508 
L 166.20378 1.44 
L 1.44 1.44 
z
" style="fill: #ffffff"/>
   </g>
   <g id="matplotlib.axis_1"/>
   <g id="matplotlib.axis_2"/>
   <g id="patch_3">
    <path d="M 3.594169 29.064508 
L 15.555078 29.064508 
L 15.555078 16.724677 
L 3.594169 16.724677 
z
" clip-path="url(#pdf41ff6353)" style="fill: #3b6ea8; fill-opacity: 0.22"/>
   </g>
   <g id="patch_4">
    <path d="M 18.545305 29.064508 
L 30.506214 29.064508 
L 30.506214 21.912669 
L 18.545305 21.912669 
z
" clip-path="url(#pdf41ff6353)" style="fill: #3b6ea8; fill-opacity: 0.22"/>
   </g>
   <g id="patch_5">
    <path d="M 33.496441 29.064508 
L 45.45735 29.064508 
L 45.45735 27.147195 
L 33.496441 27.147195 
z
" clip-path="url(#pdf41ff6353)" style="fill: #3b6ea8; fill-opacity: 0.22"/>
   </g>
   <g id="patch_6">
    <path d="M 48.447577 29.064508 
L 60.408486 29.064508 
L 60.408486 28.16942 
L 48.447577 28.16942 
z
" clip-path="url(#pdf41ff6353)" style="fill: #3b6ea8; fill-opacity: 0.22"/>
   </g>
   <g id="patch_7">
    <path d="M 63.398713 29.064508 
L 75.359622 29.064508 
L 75.359622 28.385748 
L 63.398713 28.385748 
z
" clip-path="url(#pdf41ff6353)" style="fill: #3b6ea8; fill-opacity: 0.22"/>
   </g>
   <g id="patch_8">
    <path d="M 78.349849 29.064508 
L 90.310758 29.064508 
L 90.310758 28.517456 
L 78.349849 28.517456 
z
" clip-path="url(#pdf41ff6353)" style="fill: #3b6ea8; fill-opacity: 0.22"/>
   </g>
   <g id="patch_9">
    <path d="M 93.300985 29.064508 
L 105.261894 29.064508 
L 105.261894 28.652903 
L 93.300985 28.652903 
z
" clip-path="url(#pdf41ff6353)" style="fill: #3b6ea8; fill-opacity: 0.22"/>
   </g>
   <g id="patch_10">
    <path d="M 108.252121 29.064508 
L 120.21303 29.064508 
L 120.21303 28.754696 
L 108.252121 28.754696 
z
" clip-path="url(#pdf41ff6353)" style="fill: #3b6ea8; fill-opacity: 0.22"/>
   </g>
   <g id="patch_11">
    <path d="M 123.203258 29.064508 
L 135.164166 29.064508 
L 135.164166 28.855936 
L 123.203258 28.855936 
z
" clip-path="url(#pdf41ff6353)" style="fill: #3b6ea8; fill-opacity: 0.22"/>
   </g>
   <g id="patch_12">
    <path d="M 138.154394 29.064508 
L 150.115303 29.064508 
L 150.115303 28.926014 
L 138.154394 28.926014 
z
" clip-path="url(#pdf41ff6353)" style="fill: #3b6ea8; fill-opacity: 0.22"/>
   </g>
   <g id="patch_13">
    <path d="M 153.10553 29.064508 
L 165.066439 29.064508 
L 165.066439 28.961607 
L 153.10553 28.961607 
z
" clip-path="url(#pdf41ff6353)" style="fill: #3b6ea8; fill-opacity: 0.22"/>
   </g>
   <g id="patch_14">
    <path d="M 168.056666 29.064508 
L 180.017575 29.064508 
L 180.017575 28.994707 
L 168.056666 28.994707 
z
" clip-path="url(#pdf41ff6353)" style="fill: #3b6ea8; fill-opacity: 0.22"/>
   </g>
   <g id="patch_15">
    <path d="M 183.007802 29.064508 
L 194.968711 29.064508 
L 194.968711 29.020328 
L 183.007802 29.020328 
z
" clip-path="url(#pdf41ff6353)" style="fill: #3b6ea8; fill-opacity: 0.22"/>
   </g>
   <g id="patch_16">
    <path d="M 197.958938 29.064508 
L 209.919847 29.064508 
L 209.919847 29.03584 
L 197.958938 29.03584 
z
" clip-path="url(#pdf41ff6353)" style="fill: #3b6ea8; fill-opacity: 0.22"/>
   </g>
   <g id="patch_17">
    <path d="M 212.910074 29.064508 
L 224.870983 29.064508 
L 224.870983 29.048581 
L 212.910074 29.048581 
z
" clip-path="url(#pdf41ff6353)" style="fill: #3b6ea8; fill-opacity: 0.22"/>
   </g>
   <g id="patch_18">
    <path d="M 227.86121 29.064508 
L 239.822119 29.064508 
L 239.822119 29.052874 
L 227.86121 29.052874 
z
" clip-path="url(#pdf41ff6353)" style="fill: #3b6ea8; fill-opacity: 0.22"/>
   </g>
   <g id="patch_19">
    <path d="M 242.812346 29.064508 
L 254.773255 29.064508 
L 254.773255 29.055229 
L 242.812346 29.055229 
z
" clip-path="url(#pdf41ff6353)" style="fill: #3b6ea8; fill-opacity: 0.22"/>
   </g>
   <g id="patch_20">
    <path d="M 257.763483 29.064508 
L 269.724391 29.064508 
L 269.724391 29.058968 
L 257.763483 29.058968 
z
" clip-path="url(#pdf41ff6353)" style="fill: #3b6ea8; fill-opacity: 0.22"/>
   </g>
   <g id="patch_21">
    <path d="M 272.714619 29.064508 
L 284.675528 29.064508 
L 284.675528 29.059661 
L 272.714619 29.059661 
z
" clip-path="url(#pdf41ff6353)" style="fill: #3b6ea8; fill-opacity: 0.22"/>
   </g>
   <g id="patch_22">
    <path d="M 287.665755 29.064508 
L 299.626664 29.064508 
L 299.626664 29.059938 
L 287.665755 29.059938 
z
" clip-path="url(#pdf41ff6353)" style="fill: #3b6ea8; fill-opacity: 0.22"/>
   </g>
   <g id="patch_23">
    <path d="M 302.616891 29.064508 
L 314.5778 29.064508 
L 314.5778 29.061738 
L 302.616891 29.061738 
z
" clip-path="url(#pdf41ff6353)" style="fill: #3b6ea8; fill-opacity: 0.22"/>
   </g>
   <g id="patch_24">
    <path d="M 317.568027 29.064508 
L 329.528936 29.064508 
L 329.528936 29.062846 
L 317.568027 29.062846 
z
" clip-path="url(#pdf41ff6353)" style="fill: #3b6ea8; fill-opacity: 0.22"/>
   </g>
   <g id="patch_25">
    <path d="M 332.519163 29.064508 
L 344.480072 29.064508 
L 344.480072 29.062707 
L 332.519163 29.062707 
z
" clip-path="url(#pdf41ff6353)" style="fill: #3b6ea8; fill-opacity: 0.22"/>
   </g>
   <g id="patch_26">
    <path d="M 347.470299 29.064508 
L 359.431208 29.064508 
L 359.431208 29.063677 
L 347.470299 29.063677 
z
" clip-path="url(#pdf41ff6353)" style="fill: #3b6ea8; fill-opacity: 0.22"/>
   </g>
   <g id="patch_27">
    <path d="M 362.421435 29.064508 
L 374.382344 29.064508 
L 374.382344 29.064092 
L 362.421435 29.064092 
z
" clip-path="url(#pdf41ff6353)" style="fill: #3b6ea8; fill-opacity: 0.22"/>
   </g>
   <g id="patch_28">
    <path d="M 377.372571 29.064508 
L 389.33348 29.064508 
L 389.33348 29.064231 
L 377.372571 29.064231 
z
" clip-path="url(#pdf41ff6353)" style="fill: #3b6ea8; fill-opacity: 0.22"/>
   </g>
   <g id="patch_29">
    <path d="M 392.323708 29.064508 
L 404.284616 29.064508 
L 404.284616 29.064092 
L 392.323708 29.064092 
z
" clip-path="url(#pdf41ff6353)" style="fill: #3b6ea8; fill-opacity: 0.22"/>
   </g>
   <g id="patch_30">
    <path d="M 407.274844 29.064508 
L 419.235753 29.064508 
L 419.235753 29.064508 
L 407.274844 29.064508 
z
" clip-path="url(#pdf41ff6353)" style="fill: #3b6ea8; fill-opacity: 0.22"/>
   </g>
   <g id="patch_31">
    <path d="M 422.22598 29.064508 
L 434.186889 29.064508 
L 434.186889 29.064508 
L 422.22598 29.064508 
z
" clip-path="url(#pdf41ff6353)" style="fill: #3b6ea8; fill-opacity: 0.22"/>
   </g>
   <g id="patch_32">
    <path d="M 437.177116 29.064508 
L 449.138025 29.064508 
L 449.138025 29.064508 
L 437.177116 29.064508 
z
" clip-path="url(#pdf41ff6353)" style="fill: #3b6ea8; fill-opacity: 0.22"/>
   </g>
   <g id="patch_33">
    <path d="M 452.128252 29.064508 
L 464.089161 29.064508 
L 464.089161 29.064231 
L 452.128252 29.064231 
z
" clip-path="url(#pdf41ff6353)" style="fill: #3b6ea8; fill-opacity: 0.22"/>
   </g>
   <g id="patch_34">
    <path d="M 467.079388 29.064508 
L 479.040297 29.064508 
L 479.040297 29.064369 
L 467.079388 29.064369 
z
" clip-path="url(#pdf41ff6353)" style="fill: #3b6ea8; fill-opacity: 0.22"/>
   </g>
   <g id="patch_35">
    <path d="M 482.030524 29.064508 
L 493.991433 29.064508 
L 493.991433 29.064508 
L 482.030524 29.064508 
z
" clip-path="url(#pdf41ff6353)" style="fill: #3b6ea8; fill-opacity: 0.22"/>
   </g>
   <g id="patch_36">
    <path d="M 496.98166 29.064508 
L 508.942569 29.064508 
L 508.942569 29.064508 
L 496.98166 29.064508 
z
" clip-path="url(#pdf41ff6353)" style="fill: #3b6ea8; fill-opacity: 0.22"/>
   </g>
   <g id="patch_37">
    <path d="M 511.932796 29.064508 
L 523.893705 29.064508 
L 523.893705 29.064092 
L 511.932796 29.064092 
z
" clip-path="url(#pdf41ff6353)" style="fill: #3b6ea8; fill-opacity: 0.22"/>
   </g>
   <g id="patch_38">
    <path d="M 2.990625 29.064508 
L 5.109092 29.064508 
L 5.109092 22.201276 
L 2.990625 22.201276 
z
" clip-path="url(#pdf41ff6353)" style="fill: #b2182b; fill-opacity: 0.35"/>
   </g>
   <g id="patch_39">
    <path d="M 5.574121 29.064508 
L 7.692588 29.064508 
L 7.692588 23.345148 
L 5.574121 23.345148 
z
" clip-path="url(#pdf41ff6353)" style="fill: #b2182b; fill-opacity: 0.35"/>
   </g>
   <g id="patch_40">
    <path d="M 8.157617 29.064508 
L 10.276084 29.064508 
L 10.276084 6.187069 
L 8.157617 6.187069 
z
" clip-path="url(#pdf41ff6353)" style="fill: #b2182b; fill-opacity: 0.35"/>
   </g>
   <g id="patch_41">
    <path d="M 10.741113 29.064508 
L 12.85958 29.064508 
L 12.85958 7.330941 
L 10.741113 7.330941 
z
" clip-path="url(#pdf41ff6353)" style="fill: #b2182b; fill-opacity: 0.35"/>
   </g>
   <g id="patch_42">
    <path d="M 13.324609 29.064508 
L 15.443076 29.064508 
L 15.443076 2.755453 
L 13.324609 2.755453 
z
" clip-path="url(#pdf41ff6353)" style="fill: #b2182b; fill-opacity: 0.35"/>
   </g>
   <g id="patch_43">
    <path d="M 15.908105 29.064508 
L 18.026572 29.064508 
L 18.026572 8.474813 
L 15.908105 8.474813 
z
" clip-path="url(#pdf41ff6353)" style="fill: #b2182b; fill-opacity: 0.35"/>
   </g>
   <g id="patch_44">
    <path d="M 18.491601 29.064508 
L 20.610068 29.064508 
L 20.610068 11.906428 
L 18.491601 11.906428 
z
" clip-path="url(#pdf41ff6353)" style="fill: #b2182b; fill-opacity: 0.35"/>
   </g>
   <g id="patch_45">
    <path d="M 21.075097 29.064508 
L 23.193564 29.064508 
L 23.193564 21.057404 
L 21.075097 21.057404 
z
" clip-path="url(#pdf41ff6353)" style="fill: #b2182b; fill-opacity: 0.35"/>
   </g>
   <g id="patch_46">
    <path d="M 23.658593 29.064508 
L 25.77706 29.064508 
L 25.77706 22.201276 
L 23.658593 22.201276 
z
" clip-path="url(#pdf41ff6353)" style="fill: #b2182b; fill-opacity: 0.35"/>
   </g>
   <g id="patch_47">
    <path d="M 26.242089 29.064508 
L 28.360556 29.064508 
L 28.360556 29.064508 
L 26.242089 29.064508 
z
" clip-path="url(#pdf41ff6353)" style="fill: #b2182b; fill-opacity: 0.35"/>
   </g>
   <g id="patch_48">
    <path d="M 28.825586 29.064508 
L 30.944052 29.064508 
L 30.944052 25.632892 
L 28.825586 25.632892 
z
" clip-path="url(#pdf41ff6353)" style="fill: #b2182b; fill-opacity: 0.35"/>
   </g>
   <g id="patch_49">
    <path d="M 31.409082 29.064508 
L 33.527548 29.064508 
L 33.527548 29.064508 
L 31.409082 29.064508 
z
" clip-path="url(#pdf41ff6353)" style="fill: #b2182b; fill-opacity: 0.35"/>
   </g>
   <g id="patch_50">
    <path d="M 33.992578 29.064508 
L 36.111044 29.064508 
L 36.111044 29.064508 
L 33.992578 29.064508 
z
" clip-path="url(#pdf41ff6353)" style="fill: #b2182b; fill-opacity: 0.35"/>
   </g>
   <g id="patch_51">
    <path d="M 36.576074 29.064508 
L 38.69454 29.064508 
L 38.69454 29.064508 
L 36.576074 29.064508 
z
" clip-path="url(#pdf41ff6353)" style="fill: #b2182b; fill-opacity: 0.35"/>
   </g>
   <g id="patch_52">
    <path d="M 39.15957 29.064508 
L 41.278037 29.064508 
L 41.278037 27.920636 
L 39.15957 27.920636 
z
" clip-path="url(#pdf41ff6353)" style="fill: #b2182b; fill-opacity: 0.35"/>
   </g>
   <g id="patch_53">
    <path d="M 41.743066 29.064508 
L 43.861533 29.064508 
L 43.861533 29.064508 
L 41.743066 29.064508 
z
" clip-path="url(#pdf41ff6353)" style="fill: #b2182b; fill-opacity: 0.35"/>
   </g>
   <g id="patch_54">
    <path d="M 44.326562 29.064508 
L 46.445029 29.064508 
L 46.445029 29.064508 
L 44.326562 29.064508 
z
" clip-path="url(#pdf41ff6353)" style="fill: #b2182b; fill-opacity: 0.35"/>
   </g>
   <g id="patch_55">
    <path d="M 46.910058 29.064508 
L 49.028525 29.064508 
L 49.028525 29.064508 
L 46.910058 29.064508 
z
" clip-path="url(#pdf41ff6353)" style="fill: #b2182b; fill-opacity: 0.35"/>
   </g>
   <g id="patch_56">
    <path d="M 49.493554 29.064508 
L 51.612021 29.064508 
L 51.612021 26.776764 
L 49.493554 26.776764 
z
" clip-path="url(#pdf41ff6353)" style="fill: #b2182b; fill-opacity: 0.35"/>
   </g>
   <g id="patch_57">
    <path d="M 52.07705 29.064508 
L 54.195517 29.064508 
L 54.195517 29.064508 
L 52.07705 29.064508 
z
" clip-path="url(#pdf41ff6353)" style="fill: #b2182b; fill-opacity: 0.35"/>
   </g>
   <g id="patch_58">
    <path d="M 54.660546 29.064508 
L 56.779013 29.064508 
L 56.779013 29.064508 
L 54.660546 29.064508 
z
" clip-path="url(#pdf41ff6353)" style="fill: #b2182b; fill-opacity: 0.35"/>
   </g>
   <g id="patch_59">
    <path d="M 57.244042 29.064508 
L 59.362509 29.064508 
L 59.362509 29.064508 
L 57.244042 29.064508 
z
" clip-path="url(#pdf41ff6353)" style="fill: #b2182b; fill-opacity: 0.35"/>
   </g>
   <g id="patch_60">
    <path d="M 59.827538 29.064508 
L 61.946005 29.064508 
L 61.946005 29.064508 
L 59.827538 29.064508 
z
" clip-path="url(#pdf41ff6353)" style="fill: #b2182b; fill-opacity: 0.35"/>
   </g>
   <g id="patch_61">
    <path d="M 62.411034 29.064508 
L 64.529501 29.064508 
L 64.529501 29.064508 
L 62.411034 29.064508 
z
" clip-path="url(#pdf41ff6353)" style="fill: #b2182b; fill-opacity: 0.35"/>
   </g>
   <g id="patch_62">
    <path d="M 64.99453 29.064508 
L 67.112997 29.064508 
L 67.112997 27.920636 
L 64.99453 27.920636 
z
" clip-path="url(#pdf41ff6353)" style="fill: #b2182b; fill-opacity: 0.35"/>
   </g>
   <g id="line2d_1">
    <path d="M -1 28.951889 
L -0.789787 28.943436 
L 1.923379 28.351979 
L 4.636546 26.226776 
L 7.349712 21.042542 
L 10.062878 13.763494 
L 12.776045 9.513753 
L 15.489211 11.378988 
L 18.202378 16.089584 
L 20.915544 19.429772 
L 23.62871 21.478331 
L 26.341877 23.16715 
L 29.055043 24.62075 
L 31.76821 25.7731 
L 34.481376 26.503624 
L 37.194542 26.898116 
L 45.334042 27.685294 
L 53.473541 28.145747 
L 64.326206 28.361943 
L 156.573864 28.95795 
L 168.64378 28.983962 
L 168.64378 28.983962 
" clip-path="url(#pdf41ff6353)" style="fill: none; stroke: #3b6ea8; stroke-width: 1.5; stroke-linecap: round"/>
   </g>
   <g id="line2d_2">
    <path d="M -1 28.208371 
L -0.028748 27.682842 
L 0.82169 27.044951 
L 1.672128 26.217215 
L 2.947784 24.574979 
L 4.223441 22.419079 
L 5.499098 19.776031 
L 9.751287 10.111484 
L 10.601724 8.767245 
L 11.452162 7.826268 
L 12.3026 7.318561 
L 13.153038 7.23339 
L 14.003476 7.52429 
L 14.853913 8.121101 
L 16.12957 9.423141 
L 17.830446 11.619403 
L 19.531321 14.17742 
L 22.082635 18.541696 
L 24.208729 22.047341 
L 25.484386 23.759159 
L 26.760043 25.092975 
L 28.035699 26.090197 
L 29.736575 27.054396 
L 31.43745 27.767273 
L 33.138326 28.287774 
L 34.839202 28.595547 
L 36.965296 28.707784 
L 45.894893 28.614835 
L 49.721863 28.355382 
L 51.847957 28.506627 
L 56.525365 28.982984 
L 59.927116 29.028959 
L 63.754087 28.866432 
L 67.581057 28.712251 
L 70.982808 28.869439 
L 75.234997 29.042867 
L 77.361091 29.060585 
L 77.361091 29.060585 
" clip-path="url(#pdf41ff6353)" style="fill: none; stroke: #b2182b; stroke-width: 1.5; stroke-linecap: round"/>
   </g>
  </g>
  <g id="axes_2">
   <g id="patch_63">
    <path d="M 1.44 66.357594 
L 166.20378 66.357594 
L 166.20378 38.733086 
L 1.44 38.733086 
z
" style="fill: #ffffff"/>
   </g>
   <g id="matplotlib.axis_3"/>
   <g id="matplotlib.axis_4"/>
   <g id="patch_64">
    <path d="M 2.93888 66.357594 
L 14.929917 66.357594 
L 14.929917 54.819001 
L 2.93888 54.819001 
z
" clip-path="url(#pf5885a0aa1)" style="fill: #3b6ea8; fill-opacity: 0.22"/>
   </g>
   <g id="patch_65">
    <path d="M 17.927676 66.357594 
L 29.918713 66.357594 
L 29.918713 58.216757 
L 17.927676 58.216757 
z
" clip-path="url(#pf5885a0aa1)" style="fill: #3b6ea8; fill-opacity: 0.22"/>
   </g>
   <g id="patch_66">
    <path d="M 32.916472 66.357594 
L 44.90751 66.357594 
L 44.90751 64.065126 
L 32.916472 64.065126 
z
" clip-path="url(#pf5885a0aa1)" style="fill: #3b6ea8; fill-opacity: 0.22"/>
   </g>
   <g id="patch_67">
    <path d="M 47.905269 66.357594 
L 59.896306 66.357594 
L 59.896306 65.33896 
L 47.905269 65.33896 
z
" clip-path="url(#pf5885a0aa1)" style="fill: #3b6ea8; fill-opacity: 0.22"/>
   </g>
   <g id="patch_68">
    <path d="M 62.894065 66.357594 
L 74.885102 66.357594 
L 74.885102 65.658429 
L 62.894065 65.658429 
z
" clip-path="url(#pf5885a0aa1)" style="fill: #3b6ea8; fill-opacity: 0.22"/>
   </g>
   <g id="patch_69">
    <path d="M 77.882862 66.357594 
L 89.873899 66.357594 
L 89.873899 65.749995 
L 77.882862 65.749995 
z
" clip-path="url(#pf5885a0aa1)" style="fill: #3b6ea8; fill-opacity: 0.22"/>
   </g>
   <g id="patch_70">
    <path d="M 92.871658 66.357594 
L 104.862695 66.357594 
L 104.862695 65.876512 
L 92.871658 65.876512 
z
" clip-path="url(#pf5885a0aa1)" style="fill: #3b6ea8; fill-opacity: 0.22"/>
   </g>
   <g id="patch_71">
    <path d="M 107.860454 66.357594 
L 119.851492 66.357594 
L 119.851492 66.016171 
L 107.860454 66.016171 
z
" clip-path="url(#pf5885a0aa1)" style="fill: #3b6ea8; fill-opacity: 0.22"/>
   </g>
   <g id="patch_72">
    <path d="M 122.849251 66.357594 
L 134.840288 66.357594 
L 134.840288 66.088095 
L 122.849251 66.088095 
z
" clip-path="url(#pf5885a0aa1)" style="fill: #3b6ea8; fill-opacity: 0.22"/>
   </g>
   <g id="patch_73">
    <path d="M 137.838047 66.357594 
L 149.829084 66.357594 
L 149.829084 66.188038 
L 137.838047 66.188038 
z
" clip-path="url(#pf5885a0aa1)" style="fill: #3b6ea8; fill-opacity: 0.22"/>
   </g>
   <g id="patch_74">
    <path d="M 152.826844 66.357594 
L 164.817881 66.357594 
L 164.817881 66.233243 
L 152.826844 66.233243 
z
" clip-path="url(#pf5885a0aa1)" style="fill: #3b6ea8; fill-opacity: 0.22"/>
   </g>
   <g id="patch_75">
    <path d="M 167.81564 66.357594 
L 179.806677 66.357594 
L 179.806677 66.271083 
L 167.81564 66.271083 
z
" clip-path="url(#pf5885a0aa1)" style="fill: #3b6ea8; fill-opacity: 0.22"/>
   </g>
   <g id="patch_76">
    <path d="M 182.804436 66.357594 
L 194.795474 66.357594 
L 194.795474 66.294768 
L 182.804436 66.294768 
z
" clip-path="url(#pf5885a0aa1)" style="fill: #3b6ea8; fill-opacity: 0.22"/>
   </g>
   <g id="patch_77">
    <path d="M 197.793233 66.357594 
L 209.78427 66.357594 
L 209.78427 66.312244 
L 197.793233 66.312244 
z
" clip-path="url(#pf5885a0aa1)" style="fill: #3b6ea8; fill-opacity: 0.22"/>
   </g>
   <g id="patch_78">
    <path d="M 212.782029 66.357594 
L 224.773066 66.357594 
L 224.773066 66.331019 
L 212.782029 66.331019 
z
" clip-path="url(#pf5885a0aa1)" style="fill: #3b6ea8; fill-opacity: 0.22"/>
   </g>
   <g id="patch_79">
    <path d="M 227.770826 66.357594 
L 239.761863 66.357594 
L 239.761863 66.340262 
L 227.770826 66.340262 
z
" clip-path="url(#pf5885a0aa1)" style="fill: #3b6ea8; fill-opacity: 0.22"/>
   </g>
   <g id="patch_80">
    <path d="M 242.759622 66.357594 
L 254.750659 66.357594 
L 254.750659 66.347339 
L 242.759622 66.347339 
z
" clip-path="url(#pf5885a0aa1)" style="fill: #3b6ea8; fill-opacity: 0.22"/>
   </g>
   <g id="patch_81">
    <path d="M 257.748418 66.357594 
L 269.739456 66.357594 
L 269.739456 66.349217 
L 257.748418 66.349217 
z
" clip-path="url(#pf5885a0aa1)" style="fill: #3b6ea8; fill-opacity: 0.22"/>
   </g>
   <g id="patch_82">
    <path d="M 272.737215 66.357594 
L 284.728252 66.357594 
L 284.728252 66.35095 
L 272.737215 66.35095 
z
" clip-path="url(#pf5885a0aa1)" style="fill: #3b6ea8; fill-opacity: 0.22"/>
   </g>
   <g id="patch_83">
    <path d="M 287.726011 66.357594 
L 299.717048 66.357594 
L 299.717048 66.351672 
L 287.726011 66.351672 
z
" clip-path="url(#pf5885a0aa1)" style="fill: #3b6ea8; fill-opacity: 0.22"/>
   </g>
   <g id="patch_84">
    <path d="M 302.714808 66.357594 
L 314.705845 66.357594 
L 314.705845 66.352683 
L 302.714808 66.352683 
z
" clip-path="url(#pf5885a0aa1)" style="fill: #3b6ea8; fill-opacity: 0.22"/>
   </g>
   <g id="patch_85">
    <path d="M 317.703604 66.357594 
L 329.694641 66.357594 
L 329.694641 66.354416 
L 317.703604 66.354416 
z
" clip-path="url(#pf5885a0aa1)" style="fill: #3b6ea8; fill-opacity: 0.22"/>
   </g>
   <g id="patch_86">
    <path d="M 332.6924 66.357594 
L 344.683438 66.357594 
L 344.683438 66.354416 
L 332.6924 66.354416 
z
" clip-path="url(#pf5885a0aa1)" style="fill: #3b6ea8; fill-opacity: 0.22"/>
   </g>
   <g id="patch_87">
    <path d="M 347.681197 66.357594 
L 359.672234 66.357594 
L 359.672234 66.356005 
L 347.681197 66.356005 
z
" clip-path="url(#pf5885a0aa1)" style="fill: #3b6ea8; fill-opacity: 0.22"/>
   </g>
   <g id="patch_88">
    <path d="M 362.669993 66.357594 
L 374.66103 66.357594 
L 374.66103 66.356438 
L 362.669993 66.356438 
z
" clip-path="url(#pf5885a0aa1)" style="fill: #3b6ea8; fill-opacity: 0.22"/>
   </g>
   <g id="patch_89">
    <path d="M 377.65879 66.357594 
L 389.649827 66.357594 
L 389.649827 66.356005 
L 377.65879 66.356005 
z
" clip-path="url(#pf5885a0aa1)" style="fill: #3b6ea8; fill-opacity: 0.22"/>
   </g>
   <g id="patch_90">
    <path d="M 392.647586 66.357594 
L 404.638623 66.357594 
L 404.638623 66.356583 
L 392.647586 66.356583 
z
" clip-path="url(#pf5885a0aa1)" style="fill: #3b6ea8; fill-opacity: 0.22"/>
   </g>
   <g id="patch_91">
    <path d="M 407.636382 66.357594 
L 419.62742 66.357594 
L 419.62742 66.357016 
L 407.636382 66.357016 
z
" clip-path="url(#pf5885a0aa1)" style="fill: #3b6ea8; fill-opacity: 0.22"/>
   </g>
   <g id="patch_92">
    <path d="M 422.625179 66.357594 
L 434.616216 66.357594 
L 434.616216 66.357594 
L 422.625179 66.357594 
z
" clip-path="url(#pf5885a0aa1)" style="fill: #3b6ea8; fill-opacity: 0.22"/>
   </g>
   <g id="patch_93">
    <path d="M 437.613975 66.357594 
L 449.605012 66.357594 
L 449.605012 66.357305 
L 437.613975 66.357305 
z
" clip-path="url(#pf5885a0aa1)" style="fill: #3b6ea8; fill-opacity: 0.22"/>
   </g>
   <g id="patch_94">
    <path d="M 452.602772 66.357594 
L 464.593809 66.357594 
L 464.593809 66.357305 
L 452.602772 66.357305 
z
" clip-path="url(#pf5885a0aa1)" style="fill: #3b6ea8; fill-opacity: 0.22"/>
   </g>
   <g id="patch_95">
    <path d="M 467.591568 66.357594 
L 479.582605 66.357594 
L 479.582605 66.357594 
L 467.591568 66.357594 
z
" clip-path="url(#pf5885a0aa1)" style="fill: #3b6ea8; fill-opacity: 0.22"/>
   </g>
   <g id="patch_96">
    <path d="M 482.580364 66.357594 
L 494.571402 66.357594 
L 494.571402 66.357449 
L 482.580364 66.357449 
z
" clip-path="url(#pf5885a0aa1)" style="fill: #3b6ea8; fill-opacity: 0.22"/>
   </g>
   <g id="patch_97">
    <path d="M 497.569161 66.357594 
L 509.560198 66.357594 
L 509.560198 66.357594 
L 497.569161 66.357594 
z
" clip-path="url(#pf5885a0aa1)" style="fill: #3b6ea8; fill-opacity: 0.22"/>
   </g>
   <g id="patch_98">
    <path d="M 512.557957 66.357594 
L 524.548994 66.357594 
L 524.548994 66.35716 
L 512.557957 66.35716 
z
" clip-path="url(#pf5885a0aa1)" style="fill: #3b6ea8; fill-opacity: 0.22"/>
   </g>
   <g id="patch_99">
    <path d="M 2.33157 66.357594 
L 4.450037 66.357594 
L 4.450037 59.182397 
L 2.33157 59.182397 
z
" clip-path="url(#pf5885a0aa1)" style="fill: #b2182b; fill-opacity: 0.35"/>
   </g>
   <g id="patch_100">
    <path d="M 4.915066 66.357594 
L 7.033533 66.357594 
L 7.033533 62.769995 
L 4.915066 62.769995 
z
" clip-path="url(#pf5885a0aa1)" style="fill: #b2182b; fill-opacity: 0.35"/>
   </g>
   <g id="patch_101">
    <path d="M 7.498562 66.357594 
L 9.617029 66.357594 
L 9.617029 42.440271 
L 7.498562 42.440271 
z
" clip-path="url(#pf5885a0aa1)" style="fill: #b2182b; fill-opacity: 0.35"/>
   </g>
   <g id="patch_102">
    <path d="M 10.082058 66.357594 
L 12.200525 66.357594 
L 12.200525 46.027869 
L 10.082058 46.027869 
z
" clip-path="url(#pf5885a0aa1)" style="fill: #b2182b; fill-opacity: 0.35"/>
   </g>
   <g id="patch_103">
    <path d="M 12.665554 66.357594 
L 14.784021 66.357594 
L 14.784021 40.048538 
L 12.665554 40.048538 
z
" clip-path="url(#pf5885a0aa1)" style="fill: #b2182b; fill-opacity: 0.35"/>
   </g>
   <g id="patch_104">
    <path d="M 15.24905 66.357594 
L 17.367517 66.357594 
L 17.367517 50.811334 
L 15.24905 50.811334 
z
" clip-path="url(#pf5885a0aa1)" style="fill: #b2182b; fill-opacity: 0.35"/>
   </g>
   <g id="patch_105">
    <path d="M 17.832546 66.357594 
L 19.951013 66.357594 
L 19.951013 41.244405 
L 17.832546 41.244405 
z
" clip-path="url(#pf5885a0aa1)" style="fill: #b2182b; fill-opacity: 0.35"/>
   </g>
   <g id="patch_106">
    <path d="M 20.416042 66.357594 
L 22.534509 66.357594 
L 22.534509 54.398932 
L 20.416042 54.398932 
z
" clip-path="url(#pf5885a0aa1)" style="fill: #b2182b; fill-opacity: 0.35"/>
   </g>
   <g id="patch_107">
    <path d="M 22.999538 66.357594 
L 25.118005 66.357594 
L 25.118005 59.182397 
L 22.999538 59.182397 
z
" clip-path="url(#pf5885a0aa1)" style="fill: #b2182b; fill-opacity: 0.35"/>
   </g>
   <g id="patch_108">
    <path d="M 25.583034 66.357594 
L 27.701501 66.357594 
L 27.701501 63.965861 
L 25.583034 63.965861 
z
" clip-path="url(#pf5885a0aa1)" style="fill: #b2182b; fill-opacity: 0.35"/>
   </g>
   <g id="patch_109">
    <path d="M 28.16653 66.357594 
L 30.284997 66.357594 
L 30.284997 63.965861 
L 28.16653 63.965861 
z
" clip-path="url(#pf5885a0aa1)" style="fill: #b2182b; fill-opacity: 0.35"/>
   </g>
   <g id="patch_110">
    <path d="M 30.750026 66.357594 
L 32.868493 66.357594 
L 32.868493 66.357594 
L 30.750026 66.357594 
z
" clip-path="url(#pf5885a0aa1)" style="fill: #b2182b; fill-opacity: 0.35"/>
   </g>
   <g id="patch_111">
    <path d="M 33.333523 66.357594 
L 35.451989 66.357594 
L 35.451989 66.357594 
L 33.333523 66.357594 
z
" clip-path="url(#pf5885a0aa1)" style="fill: #b2182b; fill-opacity: 0.35"/>
   </g>
   <g id="patch_112">
    <path d="M 35.917019 66.357594 
L 38.035485 66.357594 
L 38.035485 66.357594 
L 35.917019 66.357594 
z
" clip-path="url(#pf5885a0aa1)" style="fill: #b2182b; fill-opacity: 0.35"/>
   </g>
   <g id="patch_113">
    <path d="M 38.500515 66.357594 
L 40.618981 66.357594 
L 40.618981 66.357594 
L 38.500515 66.357594 
z
" clip-path="url(#pf5885a0aa1)" style="fill: #b2182b; fill-opacity: 0.35"/>
   </g>
   <g id="patch_114">
    <path d="M 41.084011 66.357594 
L 43.202477 66.357594 
L 43.202477 65.161727 
L 41.084011 65.161727 
z
" clip-path="url(#pf5885a0aa1)" style="fill: #b2182b; fill-opacity: 0.35"/>
   </g>
   <g id="patch_115">
    <path d="M 43.667507 66.357594 
L 45.785974 66.357594 
L 45.785974 66.357594 
L 43.667507 66.357594 
z
" clip-path="url(#pf5885a0aa1)" style="fill: #b2182b; fill-opacity: 0.35"/>
   </g>
   <g id="patch_116">
    <path d="M 46.251003 66.357594 
L 48.36947 66.357594 
L 48.36947 66.357594 
L 46.251003 66.357594 
z
" clip-path="url(#pf5885a0aa1)" style="fill: #b2182b; fill-opacity: 0.35"/>
   </g>
   <g id="patch_117">
    <path d="M 48.834499 66.357594 
L 50.952966 66.357594 
L 50.952966 63.965861 
L 48.834499 63.965861 
z
" clip-path="url(#pf5885a0aa1)" style="fill: #b2182b; fill-opacity: 0.35"/>
   </g>
   <g id="patch_118">
    <path d="M 51.417995 66.357594 
L 53.536462 66.357594 
L 53.536462 66.357594 
L 51.417995 66.357594 
z
" clip-path="url(#pf5885a0aa1)" style="fill: #b2182b; fill-opacity: 0.35"/>
   </g>
   <g id="patch_119">
    <path d="M 54.001491 66.357594 
L 56.119958 66.357594 
L 56.119958 66.357594 
L 54.001491 66.357594 
z
" clip-path="url(#pf5885a0aa1)" style="fill: #b2182b; fill-opacity: 0.35"/>
   </g>
   <g id="patch_120">
    <path d="M 56.584987 66.357594 
L 58.703454 66.357594 
L 58.703454 66.357594 
L 56.584987 66.357594 
z
" clip-path="url(#pf5885a0aa1)" style="fill: #b2182b; fill-opacity: 0.35"/>
   </g>
   <g id="patch_121">
    <path d="M 59.168483 66.357594 
L 61.28695 66.357594 
L 61.28695 66.357594 
L 59.168483 66.357594 
z
" clip-path="url(#pf5885a0aa1)" style="fill: #b2182b; fill-opacity: 0.35"/>
   </g>
   <g id="patch_122">
    <path d="M 61.751979 66.357594 
L 63.870446 66.357594 
L 63.870446 66.357594 
L 61.751979 66.357594 
z
" clip-path="url(#pf5885a0aa1)" style="fill: #b2182b; fill-opacity: 0.35"/>
   </g>
   <g id="patch_123">
    <path d="M 64.335475 66.357594 
L 66.453942 66.357594 
L 66.453942 65.161727 
L 64.335475 65.161727 
z
" clip-path="url(#pf5885a0aa1)" style="fill: #b2182b; fill-opacity: 0.35"/>
   </g>
   <g id="line2d_3">
    <path d="M -1 65.923845 
L 0.616854 65.560954 
L 3.34356 64.015758 
L 6.070265 60.629123 
L 8.796971 54.951623 
L 11.523676 49.592952 
L 14.250382 48.188117 
L 16.977087 51.016613 
L 19.703793 54.917945 
L 22.430498 57.521732 
L 25.157204 59.21049 
L 27.883909 60.667051 
L 30.610615 61.977392 
L 33.33732 63.033882 
L 36.064026 63.760794 
L 38.790731 64.173534 
L 52.424259 65.254426 
L 60.604376 65.560629 
L 71.511198 65.697527 
L 90.598136 65.797102 
L 161.49248 66.240258 
L 168.64378 66.249743 
L 168.64378 66.249743 
" clip-path="url(#pf5885a0aa1)" style="fill: none; stroke: #3b6ea8; stroke-width: 1.5; stroke-linecap: round"/>
   </g>
   <g id="line2d_4">
    <path d="M -1 64.924333 
L 0.005113 64.198588 
L 1.28664 62.954492 
L 2.568167 61.332373 
L 3.849694 59.320815 
L 5.558397 56.103281 
L 8.975802 49.374376 
L 10.257329 47.512479 
L 11.111681 46.62158 
L 11.966032 46.025619 
L 12.820383 45.709883 
L 13.674735 45.641531 
L 14.529086 45.779329 
L 15.810613 46.295728 
L 17.09214 47.14803 
L 18.373667 48.394037 
L 19.655195 50.119419 
L 20.936722 52.302214 
L 24.354127 58.587158 
L 25.635654 60.417321 
L 26.917181 61.851416 
L 28.198708 62.973678 
L 29.907411 64.137423 
L 31.616114 65.015699 
L 33.324817 65.623094 
L 35.033519 65.960906 
L 36.742222 66.070851 
L 39.732452 65.98686 
L 49.984669 65.658719 
L 52.974898 66.004058 
L 55.965128 66.271469 
L 59.382534 66.315122 
L 63.227115 66.141447 
L 67.071696 65.997759 
L 70.489102 66.163591 
L 74.760859 66.335882 
L 76.896737 66.35357 
L 76.896737 66.35357 
" clip-path="url(#pf5885a0aa1)" style="fill: none; stroke: #b2182b; stroke-width: 1.5; stroke-linecap: round"/>
   </g>
  </g>
  <g id="axes_3">
   <g id="patch_124">
    <path d="M 1.44 103.650679 
L 166.20378 103.650679 
L 166.20378 76.026171 
L 1.44 76.026171 
z
" style="fill: #ffffff"/>
   </g>
   <g id="matplotlib.axis_5"/>
   <g id="matplotlib.axis_6"/>
   <g id="patch_125">
    <path d="M 2.019389 103.650679 
L 6.654502 103.650679 
L 6.654502 103.568109 
L 2.019389 103.568109 
z
" clip-path="url(#pdab5537a85)" style="fill: #3b6ea8; fill-opacity: 0.22"/>
   </g>
   <g id="patch_126">
    <path d="M 7.81328 103.650679 
L 12.448393 103.650679 
L 12.448393 103.648915 
L 7.81328 103.648915 
z
" clip-path="url(#pdab5537a85)" style="fill: #3b6ea8; fill-opacity: 0.22"/>
   </g>
   <g id="patch_127">
    <path d="M 13.607171 103.650679 
L 18.242284 103.650679 
L 18.242284 103.648209 
L 13.607171 103.648209 
z
" clip-path="url(#pdab5537a85)" style="fill: #3b6ea8; fill-opacity: 0.22"/>
   </g>
   <g id="patch_128">
    <path d="M 19.401063 103.650679 
L 24.036175 103.650679 
L 24.036175 103.63974 
L 19.401063 103.63974 
z
" clip-path="url(#pdab5537a85)" style="fill: #3b6ea8; fill-opacity: 0.22"/>
   </g>
   <g id="patch_129">
    <path d="M 25.194954 103.650679 
L 29.830067 103.650679 
L 29.830067 103.636565 
L 25.194954 103.636565 
z
" clip-path="url(#pdab5537a85)" style="fill: #3b6ea8; fill-opacity: 0.22"/>
   </g>
   <g id="patch_130">
    <path d="M 30.988845 103.650679 
L 35.623958 103.650679 
L 35.623958 103.618921 
L 30.988845 103.618921 
z
" clip-path="url(#pdab5537a85)" style="fill: #3b6ea8; fill-opacity: 0.22"/>
   </g>
   <g id="patch_131">
    <path d="M 36.782736 103.650679 
L 41.417849 103.650679 
L 41.417849 103.623509 
L 36.782736 103.623509 
z
" clip-path="url(#pdab5537a85)" style="fill: #3b6ea8; fill-opacity: 0.22"/>
   </g>
   <g id="patch_132">
    <path d="M 42.576627 103.650679 
L 47.21174 103.650679 
L 47.21174 103.591398 
L 42.576627 103.591398 
z
" clip-path="url(#pdab5537a85)" style="fill: #3b6ea8; fill-opacity: 0.22"/>
   </g>
   <g id="patch_133">
    <path d="M 48.370518 103.650679 
L 53.005631 103.650679 
L 53.005631 103.577989 
L 48.370518 103.577989 
z
" clip-path="url(#pdab5537a85)" style="fill: #3b6ea8; fill-opacity: 0.22"/>
   </g>
   <g id="patch_134">
    <path d="M 54.164409 103.650679 
L 58.799522 103.650679 
L 58.799522 103.522237 
L 54.164409 103.522237 
z
" clip-path="url(#pdab5537a85)" style="fill: #3b6ea8; fill-opacity: 0.22"/>
   </g>
   <g id="patch_135">
    <path d="M 59.958301 103.650679 
L 64.593414 103.650679 
L 64.593414 103.390972 
L 59.958301 103.390972 
z
" clip-path="url(#pdab5537a85)" style="fill: #3b6ea8; fill-opacity: 0.22"/>
   </g>
   <g id="patch_136">
    <path d="M 65.752192 103.650679 
L 70.387305 103.650679 
L 70.387305 103.594574 
L 65.752192 103.594574 
z
" clip-path="url(#pdab5537a85)" style="fill: #3b6ea8; fill-opacity: 0.22"/>
   </g>
   <g id="patch_137">
    <path d="M 71.546083 103.650679 
L 76.181196 103.650679 
L 76.181196 103.579754 
L 71.546083 103.579754 
z
" clip-path="url(#pdab5537a85)" style="fill: #3b6ea8; fill-opacity: 0.22"/>
   </g>
   <g id="patch_138">
    <path d="M 77.339974 103.650679 
L 81.975087 103.650679 
L 81.975087 103.395206 
L 77.339974 103.395206 
z
" clip-path="url(#pdab5537a85)" style="fill: #3b6ea8; fill-opacity: 0.22"/>
   </g>
   <g id="patch_139">
    <path d="M 83.133865 103.650679 
L 87.768978 103.650679 
L 87.768978 103.443901 
L 83.133865 103.443901 
z
" clip-path="url(#pdab5537a85)" style="fill: #3b6ea8; fill-opacity: 0.22"/>
   </g>
   <g id="patch_140">
    <path d="M 88.927756 103.650679 
L 93.562869 103.650679 
L 93.562869 103.389207 
L 88.927756 103.389207 
z
" clip-path="url(#pdab5537a85)" style="fill: #3b6ea8; fill-opacity: 0.22"/>
   </g>
   <g id="patch_141">
    <path d="M 94.721647 103.650679 
L 99.35676 103.650679 
L 99.35676 103.366624 
L 94.721647 103.366624 
z
" clip-path="url(#pdab5537a85)" style="fill: #3b6ea8; fill-opacity: 0.22"/>
   </g>
   <g id="patch_142">
    <path d="M 100.515539 103.650679 
L 105.150652 103.650679 
L 105.150652 103.193368 
L 100.515539 103.193368 
z
" clip-path="url(#pdab5537a85)" style="fill: #3b6ea8; fill-opacity: 0.22"/>
   </g>
   <g id="patch_143">
    <path d="M 106.30943 103.650679 
L 110.944543 103.650679 
L 110.944543 102.945305 
L 106.30943 102.945305 
z
" clip-path="url(#pdab5537a85)" style="fill: #3b6ea8; fill-opacity: 0.22"/>
   </g>
   <g id="patch_144">
    <path d="M 112.103321 103.650679 
L 116.738434 103.650679 
L 116.738434 102.380724 
L 112.103321 102.380724 
z
" clip-path="url(#pdab5537a85)" style="fill: #3b6ea8; fill-opacity: 0.22"/>
   </g>
   <g id="patch_145">
    <path d="M 117.897212 103.650679 
L 122.532325 103.650679 
L 122.532325 101.196868 
L 117.897212 101.196868 
z
" clip-path="url(#pdab5537a85)" style="fill: #3b6ea8; fill-opacity: 0.22"/>
   </g>
   <g id="patch_146">
    <path d="M 123.691103 103.650679 
L 128.326216 103.650679 
L 128.326216 90.337146 
L 123.691103 90.337146 
z
" clip-path="url(#pdab5537a85)" style="fill: #3b6ea8; fill-opacity: 0.22"/>
   </g>
   <g id="patch_147">
    <path d="M 129.484994 103.650679 
L 134.120107 103.650679 
L 134.120107 92.338587 
L 129.484994 92.338587 
z
" clip-path="url(#pdab5537a85)" style="fill: #3b6ea8; fill-opacity: 0.22"/>
   </g>
   <g id="patch_148">
    <path d="M 135.278886 103.650679 
L 139.913998 103.650679 
L 139.913998 83.136969 
L 135.278886 83.136969 
z
" clip-path="url(#pdab5537a85)" style="fill: #3b6ea8; fill-opacity: 0.22"/>
   </g>
   <g id="patch_149">
    <path d="M 141.072777 103.650679 
L 145.70789 103.650679 
L 145.70789 95.083157 
L 141.072777 95.083157 
z
" clip-path="url(#pdab5537a85)" style="fill: #3b6ea8; fill-opacity: 0.22"/>
   </g>
   <g id="patch_150">
    <path d="M 146.866668 103.650679 
L 151.501781 103.650679 
L 151.501781 100.884231 
L 146.866668 100.884231 
z
" clip-path="url(#pdab5537a85)" style="fill: #3b6ea8; fill-opacity: 0.22"/>
   </g>
   <g id="patch_151">
    <path d="M 152.660559 103.650679 
L 157.295672 103.650679 
L 157.295672 103.400852 
L 152.660559 103.400852 
z
" clip-path="url(#pdab5537a85)" style="fill: #3b6ea8; fill-opacity: 0.22"/>
   </g>
   <g id="patch_152">
    <path d="M 158.45445 103.650679 
L 163.089563 103.650679 
L 163.089563 103.636565 
L 158.45445 103.636565 
z
" clip-path="url(#pdab5537a85)" style="fill: #3b6ea8; fill-opacity: 0.22"/>
   </g>
   <g id="patch_153">
    <path d="M 164.248341 103.650679 
L 168.883454 103.650679 
L 168.883454 103.648209 
L 164.248341 103.648209 
z
" clip-path="url(#pdab5537a85)" style="fill: #3b6ea8; fill-opacity: 0.22"/>
   </g>
   <g id="patch_154">
    <path d="M 170.042232 103.650679 
L 174.677345 103.650679 
L 174.677345 103.649973 
L 170.042232 103.649973 
z
" clip-path="url(#pdab5537a85)" style="fill: #3b6ea8; fill-opacity: 0.22"/>
   </g>
   <g id="patch_155">
    <path d="M 175.836124 103.650679 
L 180.471236 103.650679 
L 180.471236 103.650679 
L 175.836124 103.650679 
z
" clip-path="url(#pdab5537a85)" style="fill: #3b6ea8; fill-opacity: 0.22"/>
   </g>
   <g id="patch_156">
    <path d="M 181.630015 103.650679 
L 186.265128 103.650679 
L 186.265128 103.650326 
L 181.630015 103.650326 
z
" clip-path="url(#pdab5537a85)" style="fill: #3b6ea8; fill-opacity: 0.22"/>
   </g>
   <g id="patch_157">
    <path d="M 187.423906 103.650679 
L 192.059019 103.650679 
L 192.059019 103.650679 
L 187.423906 103.650679 
z
" clip-path="url(#pdab5537a85)" style="fill: #3b6ea8; fill-opacity: 0.22"/>
   </g>
   <g id="patch_158">
    <path d="M 193.217797 103.650679 
L 197.85291 103.650679 
L 197.85291 103.650679 
L 193.217797 103.650679 
z
" clip-path="url(#pdab5537a85)" style="fill: #3b6ea8; fill-opacity: 0.22"/>
   </g>
   <g id="patch_159">
    <path d="M 199.011688 103.650679 
L 203.646801 103.650679 
L 203.646801 103.649973 
L 199.011688 103.649973 
z
" clip-path="url(#pdab5537a85)" style="fill: #3b6ea8; fill-opacity: 0.22"/>
   </g>
   <g id="patch_160">
    <path d="M 56.109708 103.650679 
L 59.316627 103.650679 
L 59.316627 102.904604 
L 56.109708 102.904604 
z
" clip-path="url(#pdab5537a85)" style="fill: #b2182b; fill-opacity: 0.35"/>
   </g>
   <g id="patch_161">
    <path d="M 60.020585 103.650679 
L 63.227504 103.650679 
L 63.227504 103.650679 
L 60.020585 103.650679 
z
" clip-path="url(#pdab5537a85)" style="fill: #b2182b; fill-opacity: 0.35"/>
   </g>
   <g id="patch_162">
    <path d="M 63.931461 103.650679 
L 67.13838 103.650679 
L 67.13838 102.15853 
L 63.931461 102.15853 
z
" clip-path="url(#pdab5537a85)" style="fill: #b2182b; fill-opacity: 0.35"/>
   </g>
   <g id="patch_163">
    <path d="M 67.842338 103.650679 
L 71.049257 103.650679 
L 71.049257 103.650679 
L 67.842338 103.650679 
z
" clip-path="url(#pdab5537a85)" style="fill: #b2182b; fill-opacity: 0.35"/>
   </g>
   <g id="patch_164">
    <path d="M 71.753215 103.650679 
L 74.960133 103.650679 
L 74.960133 103.650679 
L 71.753215 103.650679 
z
" clip-path="url(#pdab5537a85)" style="fill: #b2182b; fill-opacity: 0.35"/>
   </g>
   <g id="patch_165">
    <path d="M 75.664091 103.650679 
L 78.87101 103.650679 
L 78.87101 101.412455 
L 75.664091 101.412455 
z
" clip-path="url(#pdab5537a85)" style="fill: #b2182b; fill-opacity: 0.35"/>
   </g>
   <g id="patch_166">
    <path d="M 79.574968 103.650679 
L 82.781886 103.650679 
L 82.781886 103.650679 
L 79.574968 103.650679 
z
" clip-path="url(#pdab5537a85)" style="fill: #b2182b; fill-opacity: 0.35"/>
   </g>
   <g id="patch_167">
    <path d="M 83.485844 103.650679 
L 86.692763 103.650679 
L 86.692763 103.650679 
L 83.485844 103.650679 
z
" clip-path="url(#pdab5537a85)" style="fill: #b2182b; fill-opacity: 0.35"/>
   </g>
   <g id="patch_168">
    <path d="M 87.396721 103.650679 
L 90.603639 103.650679 
L 90.603639 103.650679 
L 87.396721 103.650679 
z
" clip-path="url(#pdab5537a85)" style="fill: #b2182b; fill-opacity: 0.35"/>
   </g>
   <g id="patch_169">
    <path d="M 91.307597 103.650679 
L 94.514516 103.650679 
L 94.514516 103.650679 
L 91.307597 103.650679 
z
" clip-path="url(#pdab5537a85)" style="fill: #b2182b; fill-opacity: 0.35"/>
   </g>
   <g id="patch_170">
    <path d="M 95.218474 103.650679 
L 98.425392 103.650679 
L 98.425392 102.904604 
L 95.218474 102.904604 
z
" clip-path="url(#pdab5537a85)" style="fill: #b2182b; fill-opacity: 0.35"/>
   </g>
   <g id="patch_171">
    <path d="M 99.12935 103.650679 
L 102.336269 103.650679 
L 102.336269 101.412455 
L 99.12935 101.412455 
z
" clip-path="url(#pdab5537a85)" style="fill: #b2182b; fill-opacity: 0.35"/>
   </g>
   <g id="patch_172">
    <path d="M 103.040227 103.650679 
L 106.247145 103.650679 
L 106.247145 103.650679 
L 103.040227 103.650679 
z
" clip-path="url(#pdab5537a85)" style="fill: #b2182b; fill-opacity: 0.35"/>
   </g>
   <g id="patch_173">
    <path d="M 106.951103 103.650679 
L 110.158022 103.650679 
L 110.158022 102.904604 
L 106.951103 102.904604 
z
" clip-path="url(#pdab5537a85)" style="fill: #b2182b; fill-opacity: 0.35"/>
   </g>
   <g id="patch_174">
    <path d="M 110.86198 103.650679 
L 114.068899 103.650679 
L 114.068899 102.904604 
L 110.86198 102.904604 
z
" clip-path="url(#pdab5537a85)" style="fill: #b2182b; fill-opacity: 0.35"/>
   </g>
   <g id="patch_175">
    <path d="M 114.772856 103.650679 
L 117.979775 103.650679 
L 117.979775 96.189933 
L 114.772856 96.189933 
z
" clip-path="url(#pdab5537a85)" style="fill: #b2182b; fill-opacity: 0.35"/>
   </g>
   <g id="patch_176">
    <path d="M 118.683733 103.650679 
L 121.890652 103.650679 
L 121.890652 94.697783 
L 118.683733 94.697783 
z
" clip-path="url(#pdab5537a85)" style="fill: #b2182b; fill-opacity: 0.35"/>
   </g>
   <g id="patch_177">
    <path d="M 122.594609 103.650679 
L 125.801528 103.650679 
L 125.801528 96.189933 
L 122.594609 96.189933 
z
" clip-path="url(#pdab5537a85)" style="fill: #b2182b; fill-opacity: 0.35"/>
   </g>
   <g id="patch_178">
    <path d="M 126.505486 103.650679 
L 129.712405 103.650679 
L 129.712405 80.522365 
L 126.505486 80.522365 
z
" clip-path="url(#pdab5537a85)" style="fill: #b2182b; fill-opacity: 0.35"/>
   </g>
   <g id="patch_179">
    <path d="M 130.416362 103.650679 
L 133.623281 103.650679 
L 133.623281 95.443858 
L 130.416362 95.443858 
z
" clip-path="url(#pdab5537a85)" style="fill: #b2182b; fill-opacity: 0.35"/>
   </g>
   <g id="patch_180">
    <path d="M 134.327239 103.650679 
L 137.534158 103.650679 
L 137.534158 87.983112 
L 134.327239 87.983112 
z
" clip-path="url(#pdab5537a85)" style="fill: #b2182b; fill-opacity: 0.35"/>
   </g>
   <g id="patch_181">
    <path d="M 138.238115 103.650679 
L 141.445034 103.650679 
L 141.445034 96.189933 
L 138.238115 96.189933 
z
" clip-path="url(#pdab5537a85)" style="fill: #b2182b; fill-opacity: 0.35"/>
   </g>
   <g id="patch_182">
    <path d="M 142.148992 103.650679 
L 145.355911 103.650679 
L 145.355911 99.920306 
L 142.148992 99.920306 
z
" clip-path="url(#pdab5537a85)" style="fill: #b2182b; fill-opacity: 0.35"/>
   </g>
   <g id="patch_183">
    <path d="M 146.059868 103.650679 
L 149.266787 103.650679 
L 149.266787 102.15853 
L 146.059868 102.15853 
z
" clip-path="url(#pdab5537a85)" style="fill: #b2182b; fill-opacity: 0.35"/>
   </g>
   <g id="patch_184">
    <path d="M 149.970745 103.650679 
L 153.177664 103.650679 
L 153.177664 102.15853 
L 149.970745 102.15853 
z
" clip-path="url(#pdab5537a85)" style="fill: #b2182b; fill-opacity: 0.35"/>
   </g>
   <g id="line2d_5">
    <path d="M -1 103.626862 
L 2.015098 103.511518 
L 5.182155 103.648521 
L 42.131159 103.599958 
L 44.242531 103.557265 
L 47.409589 103.592655 
L 49.52096 103.545966 
L 52.688018 103.61272 
L 56.910761 103.497745 
L 59.022133 103.60411 
L 62.18919 103.586577 
L 65.356248 103.240468 
L 67.46762 103.588894 
L 72.746049 103.568137 
L 75.913106 103.464603 
L 76.968792 103.349055 
L 79.080164 103.45291 
L 81.191535 103.492911 
L 85.414279 103.367936 
L 87.52565 103.437415 
L 89.637022 103.399669 
L 91.748394 103.366772 
L 94.915451 103.383224 
L 97.026823 103.256479 
L 99.138195 103.371527 
L 111.806425 102.724876 
L 114.973482 102.274115 
L 119.196226 101.176388 
L 120.251911 101.104337 
L 121.307597 101.166944 
L 124.474655 101.724062 
L 125.530341 100.204129 
L 126.586026 92.981191 
L 127.641712 81.985301 
L 128.697398 81.403126 
L 129.753084 91.081749 
L 130.80877 95.964462 
L 131.864456 93.341048 
L 133.975827 80.540635 
L 135.031513 77.341624 
L 136.087199 79.20836 
L 137.142885 82.924589 
L 138.198571 86.161724 
L 139.254256 88.132144 
L 140.309942 89.324843 
L 141.365628 91.110613 
L 142.421314 93.369414 
L 143.477 95.264759 
L 144.532686 96.731662 
L 146.644057 99.087013 
L 147.699743 100.044608 
L 149.811115 101.456578 
L 151.922486 102.660595 
L 152.978172 103.046113 
L 155.089544 103.474687 
L 158.256602 103.616606 
L 168.64378 103.648622 
L 168.64378 103.648622 
" clip-path="url(#pdab5537a85)" style="fill: none; stroke: #3b6ea8; stroke-width: 1.5; stroke-linecap: round"/>
   </g>
   <g id="line2d_6">
    <path d="M 37.346208 103.648555 
L 48.84427 103.537242 
L 71.840393 103.074861 
L 78.603958 103.056161 
L 90.10202 103.299492 
L 96.865586 102.896291 
L 105.658221 102.35207 
L 107.687291 101.944787 
L 109.71636 101.314631 
L 111.74543 100.451499 
L 113.7745 99.379032 
L 116.479926 97.704472 
L 124.596205 92.428097 
L 126.625274 91.515136 
L 127.977987 91.107161 
L 129.330701 90.886913 
L 130.683414 90.868333 
L 132.036127 91.056638 
L 133.38884 91.448653 
L 134.741553 92.032924 
L 136.770623 93.223185 
L 139.476049 95.218512 
L 144.210545 98.825311 
L 146.239615 100.071258 
L 148.268684 101.052838 
L 150.297754 101.78906 
L 153.00318 102.475791 
L 156.384963 103.02454 
L 160.443102 103.403107 
L 165.177598 103.592845 
L 168.64378 103.635961 
L 168.64378 103.635961 
" clip-path="url(#pdab5537a85)" style="fill: none; stroke: #b2182b; stroke-width: 1.5; stroke-linecap: round"/>
   </g>
  </g>
  <g id="axes_4">
   <g id="patch_185">
    <path d="M 1.44 140.943765 
L 166.20378 140.943765 
L 166.20378 113.319257 
L 1.44 113.319257 
z
" style="fill: #ffffff"/>
   </g>
   <g id="matplotlib.axis_7"/>
   <g id="matplotlib.axis_8"/>
   <g id="patch_186">
    <path d="M 1.910754 140.943765 
L 5.676783 140.943765 
L 5.676783 126.28487 
L 1.910754 126.28487 
z
" clip-path="url(#pa71d7dafc6)" style="fill: #3b6ea8; fill-opacity: 0.22"/>
   </g>
   <g id="patch_187">
    <path d="M 6.61829 140.943765 
L 10.384319 140.943765 
L 10.384319 123.50865 
L 6.61829 123.50865 
z
" clip-path="url(#pa71d7dafc6)" style="fill: #3b6ea8; fill-opacity: 0.22"/>
   </g>
   <g id="patch_188">
    <path d="M 11.325827 140.943765 
L 15.091856 140.943765 
L 15.091856 119.837934 
L 11.325827 119.837934 
z
" clip-path="url(#pa71d7dafc6)" style="fill: #3b6ea8; fill-opacity: 0.22"/>
   </g>
   <g id="patch_189">
    <path d="M 16.033363 140.943765 
L 19.799392 140.943765 
L 19.799392 119.393209 
L 16.033363 119.393209 
z
" clip-path="url(#pa71d7dafc6)" style="fill: #3b6ea8; fill-opacity: 0.22"/>
   </g>
   <g id="patch_190">
    <path d="M 20.7409 140.943765 
L 24.506929 140.943765 
L 24.506929 122.610999 
L 20.7409 122.610999 
z
" clip-path="url(#pa71d7dafc6)" style="fill: #3b6ea8; fill-opacity: 0.22"/>
   </g>
   <g id="patch_191">
    <path d="M 25.448436 140.943765 
L 29.214466 140.943765 
L 29.214466 128.758298 
L 25.448436 128.758298 
z
" clip-path="url(#pa71d7dafc6)" style="fill: #3b6ea8; fill-opacity: 0.22"/>
   </g>
   <g id="patch_192">
    <path d="M 30.155973 140.943765 
L 33.922002 140.943765 
L 33.922002 137.391642 
L 30.155973 137.391642 
z
" clip-path="url(#pa71d7dafc6)" style="fill: #3b6ea8; fill-opacity: 0.22"/>
   </g>
   <g id="patch_193">
    <path d="M 34.863509 140.943765 
L 38.629539 140.943765 
L 38.629539 137.986501 
L 34.863509 137.986501 
z
" clip-path="url(#pa71d7dafc6)" style="fill: #3b6ea8; fill-opacity: 0.22"/>
   </g>
   <g id="patch_194">
    <path d="M 39.571046 140.943765 
L 43.337075 140.943765 
L 43.337075 140.365307 
L 39.571046 140.365307 
z
" clip-path="url(#pa71d7dafc6)" style="fill: #3b6ea8; fill-opacity: 0.22"/>
   </g>
   <g id="patch_195">
    <path d="M 44.278582 140.943765 
L 48.044612 140.943765 
L 48.044612 140.871221 
L 44.278582 140.871221 
z
" clip-path="url(#pa71d7dafc6)" style="fill: #3b6ea8; fill-opacity: 0.22"/>
   </g>
   <g id="patch_196">
    <path d="M 48.986119 140.943765 
L 52.752148 140.943765 
L 52.752148 140.463714 
L 48.986119 140.463714 
z
" clip-path="url(#pa71d7dafc6)" style="fill: #3b6ea8; fill-opacity: 0.22"/>
   </g>
   <g id="patch_197">
    <path d="M 53.693656 140.943765 
L 57.459685 140.943765 
L 57.459685 140.708471 
L 53.693656 140.708471 
z
" clip-path="url(#pa71d7dafc6)" style="fill: #3b6ea8; fill-opacity: 0.22"/>
   </g>
   <g id="patch_198">
    <path d="M 58.401192 140.943765 
L 62.167221 140.943765 
L 62.167221 140.943765 
L 58.401192 140.943765 
z
" clip-path="url(#pa71d7dafc6)" style="fill: #3b6ea8; fill-opacity: 0.22"/>
   </g>
   <g id="patch_199">
    <path d="M 63.108729 140.943765 
L 66.874758 140.943765 
L 66.874758 140.940611 
L 63.108729 140.940611 
z
" clip-path="url(#pa71d7dafc6)" style="fill: #3b6ea8; fill-opacity: 0.22"/>
   </g>
   <g id="patch_200">
    <path d="M 67.816265 140.943765 
L 71.582294 140.943765 
L 71.582294 140.821387 
L 67.816265 140.821387 
z
" clip-path="url(#pa71d7dafc6)" style="fill: #3b6ea8; fill-opacity: 0.22"/>
   </g>
   <g id="patch_201">
    <path d="M 72.523802 140.943765 
L 76.289831 140.943765 
L 76.289831 140.943134 
L 72.523802 140.943134 
z
" clip-path="url(#pa71d7dafc6)" style="fill: #3b6ea8; fill-opacity: 0.22"/>
   </g>
   <g id="patch_202">
    <path d="M 77.231338 140.943765 
L 80.997367 140.943765 
L 80.997367 140.941242 
L 77.231338 140.941242 
z
" clip-path="url(#pa71d7dafc6)" style="fill: #3b6ea8; fill-opacity: 0.22"/>
   </g>
   <g id="patch_203">
    <path d="M 81.938875 140.943765 
L 85.704904 140.943765 
L 85.704904 140.835895 
L 81.938875 140.835895 
z
" clip-path="url(#pa71d7dafc6)" style="fill: #3b6ea8; fill-opacity: 0.22"/>
   </g>
   <g id="patch_204">
    <path d="M 86.646411 140.943765 
L 90.412441 140.943765 
L 90.412441 140.942503 
L 86.646411 140.942503 
z
" clip-path="url(#pa71d7dafc6)" style="fill: #3b6ea8; fill-opacity: 0.22"/>
   </g>
   <g id="patch_205">
    <path d="M 91.353948 140.943765 
L 95.119977 140.943765 
L 95.119977 140.943765 
L 91.353948 140.943765 
z
" clip-path="url(#pa71d7dafc6)" style="fill: #3b6ea8; fill-opacity: 0.22"/>
   </g>
   <g id="patch_206">
    <path d="M 96.061484 140.943765 
L 99.827514 140.943765 
L 99.827514 140.943765 
L 96.061484 140.943765 
z
" clip-path="url(#pa71d7dafc6)" style="fill: #3b6ea8; fill-opacity: 0.22"/>
   </g>
   <g id="patch_207">
    <path d="M 100.769021 140.943765 
L 104.53505 140.943765 
L 104.53505 140.941242 
L 100.769021 140.941242 
z
" clip-path="url(#pa71d7dafc6)" style="fill: #3b6ea8; fill-opacity: 0.22"/>
   </g>
   <g id="patch_208">
    <path d="M 105.476557 140.943765 
L 109.242587 140.943765 
L 109.242587 140.943765 
L 105.476557 140.943765 
z
" clip-path="url(#pa71d7dafc6)" style="fill: #3b6ea8; fill-opacity: 0.22"/>
   </g>
   <g id="patch_209">
    <path d="M 110.184094 140.943765 
L 113.950123 140.943765 
L 113.950123 140.907808 
L 110.184094 140.907808 
z
" clip-path="url(#pa71d7dafc6)" style="fill: #3b6ea8; fill-opacity: 0.22"/>
   </g>
   <g id="patch_210">
    <path d="M 114.89163 140.943765 
L 118.65766 140.943765 
L 118.65766 140.943765 
L 114.89163 140.943765 
z
" clip-path="url(#pa71d7dafc6)" style="fill: #3b6ea8; fill-opacity: 0.22"/>
   </g>
   <g id="patch_211">
    <path d="M 119.599167 140.943765 
L 123.365196 140.943765 
L 123.365196 140.943765 
L 119.599167 140.943765 
z
" clip-path="url(#pa71d7dafc6)" style="fill: #3b6ea8; fill-opacity: 0.22"/>
   </g>
   <g id="patch_212">
    <path d="M 124.306704 140.943765 
L 128.072733 140.943765 
L 128.072733 140.943765 
L 124.306704 140.943765 
z
" clip-path="url(#pa71d7dafc6)" style="fill: #3b6ea8; fill-opacity: 0.22"/>
   </g>
   <g id="patch_213">
    <path d="M 129.01424 140.943765 
L 132.780269 140.943765 
L 132.780269 140.943765 
L 129.01424 140.943765 
z
" clip-path="url(#pa71d7dafc6)" style="fill: #3b6ea8; fill-opacity: 0.22"/>
   </g>
   <g id="patch_214">
    <path d="M 133.721777 140.943765 
L 137.487806 140.943765 
L 137.487806 140.943134 
L 133.721777 140.943134 
z
" clip-path="url(#pa71d7dafc6)" style="fill: #3b6ea8; fill-opacity: 0.22"/>
   </g>
   <g id="patch_215">
    <path d="M 138.429313 140.943765 
L 142.195342 140.943765 
L 142.195342 140.943134 
L 138.429313 140.943134 
z
" clip-path="url(#pa71d7dafc6)" style="fill: #3b6ea8; fill-opacity: 0.22"/>
   </g>
   <g id="patch_216">
    <path d="M 143.13685 140.943765 
L 146.902879 140.943765 
L 146.902879 140.943765 
L 143.13685 140.943765 
z
" clip-path="url(#pa71d7dafc6)" style="fill: #3b6ea8; fill-opacity: 0.22"/>
   </g>
   <g id="patch_217">
    <path d="M 147.844386 140.943765 
L 151.610415 140.943765 
L 151.610415 140.943765 
L 147.844386 140.943765 
z
" clip-path="url(#pa71d7dafc6)" style="fill: #3b6ea8; fill-opacity: 0.22"/>
   </g>
   <g id="patch_218">
    <path d="M 152.551923 140.943765 
L 156.317952 140.943765 
L 156.317952 140.943765 
L 152.551923 140.943765 
z
" clip-path="url(#pa71d7dafc6)" style="fill: #3b6ea8; fill-opacity: 0.22"/>
   </g>
   <g id="patch_219">
    <path d="M 157.259459 140.943765 
L 161.025489 140.943765 
L 161.025489 140.943765 
L 157.259459 140.943765 
z
" clip-path="url(#pa71d7dafc6)" style="fill: #3b6ea8; fill-opacity: 0.22"/>
   </g>
   <g id="patch_220">
    <path d="M 161.966996 140.943765 
L 165.733025 140.943765 
L 165.733025 140.929256 
L 161.966996 140.929256 
z
" clip-path="url(#pa71d7dafc6)" style="fill: #3b6ea8; fill-opacity: 0.22"/>
   </g>
   <g id="patch_221">
    <path d="M 5.316562 140.943765 
L 10.612729 140.943765 
L 10.612729 133.725703 
L 5.316562 133.725703 
z
" clip-path="url(#pa71d7dafc6)" style="fill: #b2182b; fill-opacity: 0.35"/>
   </g>
   <g id="patch_222">
    <path d="M 11.775302 140.943765 
L 17.071469 140.943765 
L 17.071469 116.66483 
L 11.775302 116.66483 
z
" clip-path="url(#pa71d7dafc6)" style="fill: #b2182b; fill-opacity: 0.35"/>
   </g>
   <g id="patch_223">
    <path d="M 18.234042 140.943765 
L 23.530209 140.943765 
L 23.530209 117.321018 
L 18.234042 117.321018 
z
" clip-path="url(#pa71d7dafc6)" style="fill: #b2182b; fill-opacity: 0.35"/>
   </g>
   <g id="patch_224">
    <path d="M 24.692783 140.943765 
L 29.988949 140.943765 
L 29.988949 128.476204 
L 24.692783 128.476204 
z
" clip-path="url(#pa71d7dafc6)" style="fill: #b2182b; fill-opacity: 0.35"/>
   </g>
   <g id="patch_225">
    <path d="M 31.151523 140.943765 
L 36.44769 140.943765 
L 36.44769 132.413328 
L 31.151523 132.413328 
z
" clip-path="url(#pa71d7dafc6)" style="fill: #b2182b; fill-opacity: 0.35"/>
   </g>
   <g id="patch_226">
    <path d="M 37.610263 140.943765 
L 42.90643 140.943765 
L 42.90643 138.975203 
L 37.610263 138.975203 
z
" clip-path="url(#pa71d7dafc6)" style="fill: #b2182b; fill-opacity: 0.35"/>
   </g>
   <g id="patch_227">
    <path d="M 44.069003 140.943765 
L 49.36517 140.943765 
L 49.36517 140.287577 
L 44.069003 140.287577 
z
" clip-path="url(#pa71d7dafc6)" style="fill: #b2182b; fill-opacity: 0.35"/>
   </g>
   <g id="patch_228">
    <path d="M 50.527743 140.943765 
L 55.82391 140.943765 
L 55.82391 138.319015 
L 50.527743 138.319015 
z
" clip-path="url(#pa71d7dafc6)" style="fill: #b2182b; fill-opacity: 0.35"/>
   </g>
   <g id="patch_229">
    <path d="M 56.986483 140.943765 
L 62.28265 140.943765 
L 62.28265 140.943765 
L 56.986483 140.943765 
z
" clip-path="url(#pa71d7dafc6)" style="fill: #b2182b; fill-opacity: 0.35"/>
   </g>
   <g id="patch_230">
    <path d="M 63.445223 140.943765 
L 68.74139 140.943765 
L 68.74139 140.943765 
L 63.445223 140.943765 
z
" clip-path="url(#pa71d7dafc6)" style="fill: #b2182b; fill-opacity: 0.35"/>
   </g>
   <g id="patch_231">
    <path d="M 69.903963 140.943765 
L 75.20013 140.943765 
L 75.20013 140.943765 
L 69.903963 140.943765 
z
" clip-path="url(#pa71d7dafc6)" style="fill: #b2182b; fill-opacity: 0.35"/>
   </g>
   <g id="patch_232">
    <path d="M 76.362704 140.943765 
L 81.65887 140.943765 
L 81.65887 140.943765 
L 76.362704 140.943765 
z
" clip-path="url(#pa71d7dafc6)" style="fill: #b2182b; fill-opacity: 0.35"/>
   </g>
   <g id="patch_233">
    <path d="M 82.821444 140.943765 
L 88.117611 140.943765 
L 88.117611 140.287577 
L 82.821444 140.287577 
z
" clip-path="url(#pa71d7dafc6)" style="fill: #b2182b; fill-opacity: 0.35"/>
   </g>
   <g id="patch_234">
    <path d="M 89.280184 140.943765 
L 94.576351 140.943765 
L 94.576351 140.943765 
L 89.280184 140.943765 
z
" clip-path="url(#pa71d7dafc6)" style="fill: #b2182b; fill-opacity: 0.35"/>
   </g>
   <g id="patch_235">
    <path d="M 95.738924 140.943765 
L 101.035091 140.943765 
L 101.035091 140.943765 
L 95.738924 140.943765 
z
" clip-path="url(#pa71d7dafc6)" style="fill: #b2182b; fill-opacity: 0.35"/>
   </g>
   <g id="patch_236">
    <path d="M 102.197664 140.943765 
L 107.493831 140.943765 
L 107.493831 140.943765 
L 102.197664 140.943765 
z
" clip-path="url(#pa71d7dafc6)" style="fill: #b2182b; fill-opacity: 0.35"/>
   </g>
   <g id="patch_237">
    <path d="M 108.656404 140.943765 
L 113.952571 140.943765 
L 113.952571 140.943765 
L 108.656404 140.943765 
z
" clip-path="url(#pa71d7dafc6)" style="fill: #b2182b; fill-opacity: 0.35"/>
   </g>
   <g id="patch_238">
    <path d="M 115.115144 140.943765 
L 120.411311 140.943765 
L 120.411311 140.943765 
L 115.115144 140.943765 
z
" clip-path="url(#pa71d7dafc6)" style="fill: #b2182b; fill-opacity: 0.35"/>
   </g>
   <g id="patch_239">
    <path d="M 121.573884 140.943765 
L 126.870051 140.943765 
L 126.870051 140.943765 
L 121.573884 140.943765 
z
" clip-path="url(#pa71d7dafc6)" style="fill: #b2182b; fill-opacity: 0.35"/>
   </g>
   <g id="patch_240">
    <path d="M 128.032625 140.943765 
L 133.328791 140.943765 
L 133.328791 140.943765 
L 128.032625 140.943765 
z
" clip-path="url(#pa71d7dafc6)" style="fill: #b2182b; fill-opacity: 0.35"/>
   </g>
   <g id="patch_241">
    <path d="M 134.491365 140.943765 
L 139.787532 140.943765 
L 139.787532 140.943765 
L 134.491365 140.943765 
z
" clip-path="url(#pa71d7dafc6)" style="fill: #b2182b; fill-opacity: 0.35"/>
   </g>
   <g id="patch_242">
    <path d="M 140.950105 140.943765 
L 146.246272 140.943765 
L 146.246272 140.943765 
L 140.950105 140.943765 
z
" clip-path="url(#pa71d7dafc6)" style="fill: #b2182b; fill-opacity: 0.35"/>
   </g>
   <g id="patch_243">
    <path d="M 147.408845 140.943765 
L 152.705012 140.943765 
L 152.705012 140.943765 
L 147.408845 140.943765 
z
" clip-path="url(#pa71d7dafc6)" style="fill: #b2182b; fill-opacity: 0.35"/>
   </g>
   <g id="patch_244">
    <path d="M 153.867585 140.943765 
L 159.163752 140.943765 
L 159.163752 140.943765 
L 153.867585 140.943765 
z
" clip-path="url(#pa71d7dafc6)" style="fill: #b2182b; fill-opacity: 0.35"/>
   </g>
   <g id="patch_245">
    <path d="M 160.326325 140.943765 
L 165.622492 140.943765 
L 165.622492 140.287577 
L 160.326325 140.287577 
z
" clip-path="url(#pa71d7dafc6)" style="fill: #b2182b; fill-opacity: 0.35"/>
   </g>
   <g id="line2d_7">
    <path d="M -1 140.932348 
L -0.267139 140.887073 
L 0.586556 140.528142 
L 1.440252 138.842148 
L 2.293948 133.636578 
L 3.147644 125.754225 
L 4.001339 121.329066 
L 4.855035 122.109338 
L 5.708731 124.110695 
L 6.562426 124.961268 
L 7.416122 124.870764 
L 8.269818 124.474713 
L 9.123514 123.471228 
L 9.977209 121.503221 
L 10.830905 119.839578 
L 11.684601 119.203491 
L 12.538296 118.838925 
L 13.391992 119.023858 
L 14.245688 119.838382 
L 15.953079 122.327885 
L 16.806775 122.770211 
L 17.660471 121.205932 
L 18.514167 117.338625 
L 19.367862 114.63471 
L 20.221558 115.686293 
L 21.928949 121.287134 
L 23.636341 125.128767 
L 24.490037 126.423418 
L 25.343732 128.082957 
L 26.197428 129.140425 
L 27.90482 130.730222 
L 28.758515 129.729516 
L 29.612211 133.268535 
L 30.465907 134.993823 
L 31.319602 133.962112 
L 32.173298 136.53981 
L 33.026994 138.2976 
L 33.88069 136.670192 
L 34.734385 136.716404 
L 35.588081 139.175424 
L 36.441777 140.084182 
L 37.295472 139.254506 
L 38.149168 138.783415 
L 39.002864 139.802302 
L 39.85656 140.624558 
L 40.710255 140.674238 
L 42.417647 139.842245 
L 43.271343 140.116595 
L 44.125038 140.666869 
L 44.978734 140.80096 
L 46.686125 140.803461 
L 48.393517 140.183802 
L 50.100908 140.609841 
L 50.954604 140.630717 
L 52.661995 140.905647 
L 54.369387 140.895372 
L 56.076778 140.466283 
L 56.930474 140.541325 
L 57.78417 140.818538 
L 59.491561 140.943161 
L 65.467431 140.917498 
L 67.174823 140.679833 
L 71.443301 140.942687 
L 82.541346 140.866734 
L 83.395041 140.734332 
L 84.248737 140.734332 
L 85.956129 140.933189 
L 97.054173 140.943761 
L 168.64378 140.942849 
L 168.64378 140.942849 
" clip-path="url(#pa71d7dafc6)" style="fill: none; stroke: #3b6ea8; stroke-width: 1.5; stroke-linecap: round"/>
   </g>
   <g id="line2d_8">
    <path d="M -1 139.099148 
L 0.346477 138.38576 
L 2.361224 136.949456 
L 4.375971 135.071653 
L 6.390717 132.79884 
L 13.442331 124.23333 
L 14.449704 123.328868 
L 15.457078 122.585825 
L 16.464451 122.020695 
L 17.471825 121.643775 
L 18.479198 121.459041 
L 19.486571 121.464374 
L 20.493945 121.652084 
L 21.501318 122.009667 
L 22.508691 122.520723 
L 24.523438 123.92435 
L 26.538185 125.693153 
L 35.604545 134.264116 
L 37.619292 135.728042 
L 39.634039 136.911081 
L 41.648785 137.801359 
L 43.663532 138.420404 
L 45.678279 138.821617 
L 48.700399 139.176829 
L 56.759386 139.991084 
L 62.803626 140.610822 
L 67.840493 140.847179 
L 73.884733 140.854444 
L 86.980587 140.712606 
L 104.105935 140.941768 
L 155.481977 140.877035 
L 168.64378 140.701479 
L 168.64378 140.701479 
" clip-path="url(#pa71d7dafc6)" style="fill: none; stroke: #b2182b; stroke-width: 1.5; stroke-linecap: round"/>
   </g>
  </g>
  <g id="axes_5">
   <g id="patch_246">
    <path d="M 1.44 178.23685 
L 166.20378 178.23685 
L 166.20378 150.612343 
L 1.44 150.612343 
z
" style="fill: #ffffff"/>
   </g>
   <g id="matplotlib.axis_9"/>
   <g id="matplotlib.axis_10"/>
   <g id="patch_247">
    <path d="M -162.382272 178.23685 
L -154.850212 178.23685 
L -154.850212 178.204094 
L -162.382272 178.204094 
z
" clip-path="url(#p4e95d0b86b)" style="fill: #3b6ea8; fill-opacity: 0.22"/>
   </g>
   <g id="patch_248">
    <path d="M -152.967198 178.23685 
L -145.435138 178.23685 
L -145.435138 178.23685 
L -152.967198 178.23685 
z
" clip-path="url(#p4e95d0b86b)" style="fill: #3b6ea8; fill-opacity: 0.22"/>
   </g>
   <g id="patch_249">
    <path d="M -143.552123 178.23685 
L -136.020064 178.23685 
L -136.020064 178.23685 
L -143.552123 178.23685 
z
" clip-path="url(#p4e95d0b86b)" style="fill: #3b6ea8; fill-opacity: 0.22"/>
   </g>
   <g id="patch_250">
    <path d="M -134.137049 178.23685 
L -126.604989 178.23685 
L -126.604989 178.23685 
L -134.137049 178.23685 
z
" clip-path="url(#p4e95d0b86b)" style="fill: #3b6ea8; fill-opacity: 0.22"/>
   </g>
   <g id="patch_251">
    <path d="M -124.721974 178.23685 
L -117.189915 178.23685 
L -117.189915 178.23685 
L -124.721974 178.23685 
z
" clip-path="url(#p4e95d0b86b)" style="fill: #3b6ea8; fill-opacity: 0.22"/>
   </g>
   <g id="patch_252">
    <path d="M -115.3069 178.23685 
L -107.77484 178.23685 
L -107.77484 178.23685 
L -115.3069 178.23685 
z
" clip-path="url(#p4e95d0b86b)" style="fill: #3b6ea8; fill-opacity: 0.22"/>
   </g>
   <g id="patch_253">
    <path d="M -105.891825 178.23685 
L -98.359766 178.23685 
L -98.359766 178.23685 
L -105.891825 178.23685 
z
" clip-path="url(#p4e95d0b86b)" style="fill: #3b6ea8; fill-opacity: 0.22"/>
   </g>
   <g id="patch_254">
    <path d="M -96.476751 178.23685 
L -88.944691 178.23685 
L -88.944691 178.23685 
L -96.476751 178.23685 
z
" clip-path="url(#p4e95d0b86b)" style="fill: #3b6ea8; fill-opacity: 0.22"/>
   </g>
   <g id="patch_255">
    <path d="M -87.061676 178.23685 
L -79.529617 178.23685 
L -79.529617 178.23685 
L -87.061676 178.23685 
z
" clip-path="url(#p4e95d0b86b)" style="fill: #3b6ea8; fill-opacity: 0.22"/>
   </g>
   <g id="patch_256">
    <path d="M -77.646602 178.23685 
L -70.114542 178.23685 
L -70.114542 178.236709 
L -77.646602 178.236709 
z
" clip-path="url(#p4e95d0b86b)" style="fill: #3b6ea8; fill-opacity: 0.22"/>
   </g>
   <g id="patch_257">
    <path d="M -68.231527 178.23685 
L -60.699468 178.23685 
L -60.699468 178.23685 
L -68.231527 178.23685 
z
" clip-path="url(#p4e95d0b86b)" style="fill: #3b6ea8; fill-opacity: 0.22"/>
   </g>
   <g id="patch_258">
    <path d="M -58.816453 178.23685 
L -51.284393 178.23685 
L -51.284393 178.236709 
L -58.816453 178.236709 
z
" clip-path="url(#p4e95d0b86b)" style="fill: #3b6ea8; fill-opacity: 0.22"/>
   </g>
   <g id="patch_259">
    <path d="M -49.401378 178.23685 
L -41.869319 178.23685 
L -41.869319 178.236709 
L -49.401378 178.236709 
z
" clip-path="url(#p4e95d0b86b)" style="fill: #3b6ea8; fill-opacity: 0.22"/>
   </g>
   <g id="patch_260">
    <path d="M -39.986304 178.23685 
L -32.454244 178.23685 
L -32.454244 178.236427 
L -39.986304 178.236427 
z
" clip-path="url(#p4e95d0b86b)" style="fill: #3b6ea8; fill-opacity: 0.22"/>
   </g>
   <g id="patch_261">
    <path d="M -30.571229 178.23685 
L -23.03917 178.23685 
L -23.03917 178.235156 
L -30.571229 178.235156 
z
" clip-path="url(#p4e95d0b86b)" style="fill: #3b6ea8; fill-opacity: 0.22"/>
   </g>
   <g id="patch_262">
    <path d="M -21.156155 178.23685 
L -13.624095 178.23685 
L -13.624095 178.232897 
L -21.156155 178.232897 
z
" clip-path="url(#p4e95d0b86b)" style="fill: #3b6ea8; fill-opacity: 0.22"/>
   </g>
   <g id="patch_263">
    <path d="M -11.74108 178.23685 
L -4.209021 178.23685 
L -4.209021 178.231344 
L -11.74108 178.231344 
z
" clip-path="url(#p4e95d0b86b)" style="fill: #3b6ea8; fill-opacity: 0.22"/>
   </g>
   <g id="patch_264">
    <path d="M -2.326006 178.23685 
L 5.206054 178.23685 
L 5.206054 178.230779 
L -2.326006 178.230779 
z
" clip-path="url(#p4e95d0b86b)" style="fill: #3b6ea8; fill-opacity: 0.22"/>
   </g>
   <g id="patch_265">
    <path d="M 7.089069 178.23685 
L 14.621128 178.23685 
L 14.621128 178.223437 
L 7.089069 178.223437 
z
" clip-path="url(#p4e95d0b86b)" style="fill: #3b6ea8; fill-opacity: 0.22"/>
   </g>
   <g id="patch_266">
    <path d="M 16.504143 178.23685 
L 24.036203 178.23685 
L 24.036203 178.218919 
L 16.504143 178.218919 
z
" clip-path="url(#p4e95d0b86b)" style="fill: #3b6ea8; fill-opacity: 0.22"/>
   </g>
   <g id="patch_267">
    <path d="M 25.919218 178.23685 
L 33.451277 178.23685 
L 33.451277 178.214401 
L 25.919218 178.214401 
z
" clip-path="url(#p4e95d0b86b)" style="fill: #3b6ea8; fill-opacity: 0.22"/>
   </g>
   <g id="patch_268">
    <path d="M 35.334292 178.23685 
L 42.866352 178.23685 
L 42.866352 178.235721 
L 35.334292 178.235721 
z
" clip-path="url(#p4e95d0b86b)" style="fill: #3b6ea8; fill-opacity: 0.22"/>
   </g>
   <g id="patch_269">
    <path d="M 44.749367 178.23685 
L 52.281426 178.23685 
L 52.281426 178.193081 
L 44.749367 178.193081 
z
" clip-path="url(#p4e95d0b86b)" style="fill: #3b6ea8; fill-opacity: 0.22"/>
   </g>
   <g id="patch_270">
    <path d="M 54.164441 178.23685 
L 61.696501 178.23685 
L 61.696501 178.233744 
L 54.164441 178.233744 
z
" clip-path="url(#p4e95d0b86b)" style="fill: #3b6ea8; fill-opacity: 0.22"/>
   </g>
   <g id="patch_271">
    <path d="M 63.579516 178.23685 
L 71.111575 178.23685 
L 71.111575 178.16569 
L 63.579516 178.16569 
z
" clip-path="url(#p4e95d0b86b)" style="fill: #3b6ea8; fill-opacity: 0.22"/>
   </g>
   <g id="patch_272">
    <path d="M 72.99459 178.23685 
L 80.52665 178.23685 
L 80.52665 178.227532 
L 72.99459 178.227532 
z
" clip-path="url(#p4e95d0b86b)" style="fill: #3b6ea8; fill-opacity: 0.22"/>
   </g>
   <g id="patch_273">
    <path d="M 82.409664 178.23685 
L 89.941724 178.23685 
L 89.941724 178.220472 
L 82.409664 178.220472 
z
" clip-path="url(#p4e95d0b86b)" style="fill: #3b6ea8; fill-opacity: 0.22"/>
   </g>
   <g id="patch_274">
    <path d="M 91.824739 178.23685 
L 99.356799 178.23685 
L 99.356799 178.187857 
L 91.824739 178.187857 
z
" clip-path="url(#p4e95d0b86b)" style="fill: #3b6ea8; fill-opacity: 0.22"/>
   </g>
   <g id="patch_275">
    <path d="M 101.239813 178.23685 
L 108.771873 178.23685 
L 108.771873 178.198164 
L 101.239813 178.198164 
z
" clip-path="url(#p4e95d0b86b)" style="fill: #3b6ea8; fill-opacity: 0.22"/>
   </g>
   <g id="patch_276">
    <path d="M 110.654888 178.23685 
L 118.186948 178.23685 
L 118.186948 178.175291 
L 110.654888 178.175291 
z
" clip-path="url(#p4e95d0b86b)" style="fill: #3b6ea8; fill-opacity: 0.22"/>
   </g>
   <g id="patch_277">
    <path d="M 120.069962 178.23685 
L 127.602022 178.23685 
L 127.602022 178.140699 
L 120.069962 178.140699 
z
" clip-path="url(#p4e95d0b86b)" style="fill: #3b6ea8; fill-opacity: 0.22"/>
   </g>
   <g id="patch_278">
    <path d="M 129.485037 178.23685 
L 137.017096 178.23685 
L 137.017096 178.05556 
L 129.485037 178.05556 
z
" clip-path="url(#p4e95d0b86b)" style="fill: #3b6ea8; fill-opacity: 0.22"/>
   </g>
   <g id="patch_279">
    <path d="M 138.900111 178.23685 
L 146.432171 178.23685 
L 146.432171 177.681826 
L 138.900111 177.681826 
z
" clip-path="url(#p4e95d0b86b)" style="fill: #3b6ea8; fill-opacity: 0.22"/>
   </g>
   <g id="patch_280">
    <path d="M 148.315186 178.23685 
L 155.847245 178.23685 
L 155.847245 171.88901 
L 148.315186 171.88901 
z
" clip-path="url(#p4e95d0b86b)" style="fill: #3b6ea8; fill-opacity: 0.22"/>
   </g>
   <g id="patch_281">
    <path d="M 157.73026 178.23685 
L 165.26232 178.23685 
L 165.26232 160.426075 
L 157.73026 160.426075 
z
" clip-path="url(#p4e95d0b86b)" style="fill: #3b6ea8; fill-opacity: 0.22"/>
   </g>
   <g id="patch_282">
    <path d="M 84.118465 178.23685 
L 86.820591 178.23685 
L 86.820591 177.661118 
L 84.118465 177.661118 
z
" clip-path="url(#p4e95d0b86b)" style="fill: #b2182b; fill-opacity: 0.35"/>
   </g>
   <g id="patch_283">
    <path d="M 87.413741 178.23685 
L 90.115867 178.23685 
L 90.115867 178.23685 
L 87.413741 178.23685 
z
" clip-path="url(#p4e95d0b86b)" style="fill: #b2182b; fill-opacity: 0.35"/>
   </g>
   <g id="patch_284">
    <path d="M 90.709016 178.23685 
L 93.411142 178.23685 
L 93.411142 176.509652 
L 90.709016 176.509652 
z
" clip-path="url(#p4e95d0b86b)" style="fill: #b2182b; fill-opacity: 0.35"/>
   </g>
   <g id="patch_285">
    <path d="M 94.004292 178.23685 
L 96.706418 178.23685 
L 96.706418 177.661118 
L 94.004292 177.661118 
z
" clip-path="url(#p4e95d0b86b)" style="fill: #b2182b; fill-opacity: 0.35"/>
   </g>
   <g id="patch_286">
    <path d="M 97.299568 178.23685 
L 100.001694 178.23685 
L 100.001694 178.23685 
L 97.299568 178.23685 
z
" clip-path="url(#p4e95d0b86b)" style="fill: #b2182b; fill-opacity: 0.35"/>
   </g>
   <g id="patch_287">
    <path d="M 100.594843 178.23685 
L 103.296969 178.23685 
L 103.296969 178.23685 
L 100.594843 178.23685 
z
" clip-path="url(#p4e95d0b86b)" style="fill: #b2182b; fill-opacity: 0.35"/>
   </g>
   <g id="patch_288">
    <path d="M 103.890119 178.23685 
L 106.592245 178.23685 
L 106.592245 178.23685 
L 103.890119 178.23685 
z
" clip-path="url(#p4e95d0b86b)" style="fill: #b2182b; fill-opacity: 0.35"/>
   </g>
   <g id="patch_289">
    <path d="M 107.185394 178.23685 
L 109.88752 178.23685 
L 109.88752 178.23685 
L 107.185394 178.23685 
z
" clip-path="url(#p4e95d0b86b)" style="fill: #b2182b; fill-opacity: 0.35"/>
   </g>
   <g id="patch_290">
    <path d="M 110.48067 178.23685 
L 113.182796 178.23685 
L 113.182796 178.23685 
L 110.48067 178.23685 
z
" clip-path="url(#p4e95d0b86b)" style="fill: #b2182b; fill-opacity: 0.35"/>
   </g>
   <g id="patch_291">
    <path d="M 113.775946 178.23685 
L 116.478072 178.23685 
L 116.478072 178.23685 
L 113.775946 178.23685 
z
" clip-path="url(#p4e95d0b86b)" style="fill: #b2182b; fill-opacity: 0.35"/>
   </g>
   <g id="patch_292">
    <path d="M 117.071221 178.23685 
L 119.773347 178.23685 
L 119.773347 178.23685 
L 117.071221 178.23685 
z
" clip-path="url(#p4e95d0b86b)" style="fill: #b2182b; fill-opacity: 0.35"/>
   </g>
   <g id="patch_293">
    <path d="M 120.366497 178.23685 
L 123.068623 178.23685 
L 123.068623 178.23685 
L 120.366497 178.23685 
z
" clip-path="url(#p4e95d0b86b)" style="fill: #b2182b; fill-opacity: 0.35"/>
   </g>
   <g id="patch_294">
    <path d="M 123.661772 178.23685 
L 126.363898 178.23685 
L 126.363898 178.23685 
L 123.661772 178.23685 
z
" clip-path="url(#p4e95d0b86b)" style="fill: #b2182b; fill-opacity: 0.35"/>
   </g>
   <g id="patch_295">
    <path d="M 126.957048 178.23685 
L 129.659174 178.23685 
L 129.659174 178.23685 
L 126.957048 178.23685 
z
" clip-path="url(#p4e95d0b86b)" style="fill: #b2182b; fill-opacity: 0.35"/>
   </g>
   <g id="patch_296">
    <path d="M 130.252324 178.23685 
L 132.95445 178.23685 
L 132.95445 175.358187 
L 130.252324 175.358187 
z
" clip-path="url(#p4e95d0b86b)" style="fill: #b2182b; fill-opacity: 0.35"/>
   </g>
   <g id="patch_297">
    <path d="M 133.547599 178.23685 
L 136.249725 178.23685 
L 136.249725 177.661118 
L 133.547599 177.661118 
z
" clip-path="url(#p4e95d0b86b)" style="fill: #b2182b; fill-opacity: 0.35"/>
   </g>
   <g id="patch_298">
    <path d="M 136.842875 178.23685 
L 139.545001 178.23685 
L 139.545001 178.23685 
L 136.842875 178.23685 
z
" clip-path="url(#p4e95d0b86b)" style="fill: #b2182b; fill-opacity: 0.35"/>
   </g>
   <g id="patch_299">
    <path d="M 140.13815 178.23685 
L 142.840276 178.23685 
L 142.840276 178.23685 
L 140.13815 178.23685 
z
" clip-path="url(#p4e95d0b86b)" style="fill: #b2182b; fill-opacity: 0.35"/>
   </g>
   <g id="patch_300">
    <path d="M 143.433426 178.23685 
L 146.135552 178.23685 
L 146.135552 174.782454 
L 143.433426 174.782454 
z
" clip-path="url(#p4e95d0b86b)" style="fill: #b2182b; fill-opacity: 0.35"/>
   </g>
   <g id="patch_301">
    <path d="M 146.728702 178.23685 
L 149.430828 178.23685 
L 149.430828 167.873662 
L 146.728702 167.873662 
z
" clip-path="url(#p4e95d0b86b)" style="fill: #b2182b; fill-opacity: 0.35"/>
   </g>
   <g id="patch_302">
    <path d="M 150.023977 178.23685 
L 152.726103 178.23685 
L 152.726103 165.570732 
L 150.023977 165.570732 
z
" clip-path="url(#p4e95d0b86b)" style="fill: #b2182b; fill-opacity: 0.35"/>
   </g>
   <g id="patch_303">
    <path d="M 153.319253 178.23685 
L 156.021379 178.23685 
L 156.021379 159.813405 
L 153.319253 159.813405 
z
" clip-path="url(#p4e95d0b86b)" style="fill: #b2182b; fill-opacity: 0.35"/>
   </g>
   <g id="patch_304">
    <path d="M 156.614528 178.23685 
L 159.316654 178.23685 
L 159.316654 167.873662 
L 156.614528 167.873662 
z
" clip-path="url(#p4e95d0b86b)" style="fill: #b2182b; fill-opacity: 0.35"/>
   </g>
   <g id="patch_305">
    <path d="M 159.909804 178.23685 
L 162.61193 178.23685 
L 162.61193 170.752326 
L 159.909804 170.752326 
z
" clip-path="url(#p4e95d0b86b)" style="fill: #b2182b; fill-opacity: 0.35"/>
   </g>
   <g id="patch_306">
    <path d="M 163.20508 178.23685 
L 165.907206 178.23685 
L 165.907206 174.782454 
L 163.20508 174.782454 
z
" clip-path="url(#p4e95d0b86b)" style="fill: #b2182b; fill-opacity: 0.35"/>
   </g>
   <g id="line2d_9">
    <path d="M -1 178.231225 
L 24.40428 178.207514 
L 31.208505 178.220653 
L 36.311673 178.225757 
L 44.816953 178.200797 
L 48.219065 178.158356 
L 53.322233 178.234233 
L 63.528569 178.141262 
L 65.229625 178.063505 
L 70.332793 178.231155 
L 134.972923 178.043365 
L 140.076091 177.876414 
L 143.478203 177.585544 
L 145.179259 177.530081 
L 146.880315 177.296022 
L 148.581371 176.51125 
L 150.282427 174.935374 
L 151.983483 172.516153 
L 153.684539 169.529772 
L 155.385595 165.6485 
L 157.086651 160.246836 
L 158.787707 154.124282 
L 160.488763 151.927795 
L 162.189819 158.242036 
L 163.890875 168.471352 
L 165.591931 175.469283 
L 167.292987 177.863489 
L 168.64378 178.143588 
L 168.64378 178.143588 
" clip-path="url(#p4e95d0b86b)" style="fill: none; stroke: #3b6ea8; stroke-width: 1.5; stroke-linecap: round"/>
   </g>
   <g id="line2d_10">
    <path d="M 67.850199 178.235239 
L 78.765677 178.116202 
L 94.277146 177.731811 
L 109.214117 178.226753 
L 120.129595 178.169839 
L 124.725586 177.919414 
L 133.343069 177.277822 
L 136.790062 177.047815 
L 138.513559 176.707949 
L 140.237055 176.089265 
L 141.960552 175.132915 
L 143.684048 173.842227 
L 145.982044 171.745558 
L 148.854538 169.055591 
L 150.578035 167.750023 
L 151.727033 167.11756 
L 152.87603 166.71923 
L 154.025028 166.576448 
L 155.174026 166.694665 
L 156.323023 167.063342 
L 157.472021 167.657273 
L 159.195518 168.8864 
L 161.493513 170.904549 
L 164.940506 173.961114 
L 166.664003 175.233592 
L 168.64378 176.375281 
L 168.64378 176.375281 
" clip-path="url(#p4e95d0b86b)" style="fill: none; stroke: #b2182b; stroke-width: 1.5; stroke-linecap: round"/>
   </g>
  </g>
 </g>
 <defs>
  <clipPath id="pdf41ff6353">
   <rect x="1.44" y="1.44" width="164.76378" height="27.624508"/>
  </clipPath>
  <clipPath id="pf5885a0aa1">
   <rect x="1.44" y="38.733086" width="164.76378" height="27.624508"/>
  </clipPath>
  <clipPath id="pdab5537a85">
   <rect x="1.44" y="76.026171" width="164.76378" height="27.624508"/>
  </clipPath>
  <clipPath id="pa71d7dafc6">
   <rect x="1.44" y="113.319257" width="164.76378" height="27.624508"/>
  </clipPath>
  <clipPath id="p4e95d0b86b">
   <rect x="1.44" y="150.612343" width="164.76378" height="27.624508"/>
  </clipPath>
 </defs>
</svg>
