<?xml version="1.0" encoding="utf-8" standalone="no"?>
<!DOCTYPE svg PUBLIC "-//W3C//DTD SVG 1.1//EN"
  "http://www.w3.org/Graphics/SVG/1.1/DTD/svg11.dtd">
<svg xmlns:xlink="http://www.w3.org/1999/xlink" width="230.740157pt" height="155.905512pt" viewBox="0 0 230.740157 155.905512" xmlns="http://www.w3.org/2000/svg" version="1.1">
 <metadata>
  <rdf:RDF xmlns:dc="http://purl.org/dc/elements/1.1/" xmlns:cc="http://creativecommons.org/ns#" xmlns:rdf="http://www.w3.org/1999/02/22-rdf-syntax-ns#">
   <cc:Work>
    <dc:type rdf:resource="http://purl.org/dc/dcmitype/StillImage"/>
    <dc:date>2026-06-04T10:52:41.688177</dc:date>
    <dc:format>image/svg+xml</dc:format>
    <dc:creator>
     <cc:Agent>
      <dc:title>Matplotlib v3.9.4, https://matplotlib.org/</dc:title>
     </cc:Agent>
    </dc:creator>
   </cc:Work>
  </rdf:RDF>
 </metadata>
 <defs>
  <style type="text/css">*{stroke-linejoin: round; stroke-linecap: butt}</style>
 </defs>
 <g id="figure_1">
  <g id="patch_1">
   <path d="M 0 155.905512 
L 230.740157 155.905512 
L 230.740157 0 
L 0 0 
z
" style="fill: #ffffff"/>
  </g>
  <g id="axes_1">
   <g id="patch_2">
    <path d="M 0 155.905512 
L 230.740157 155.905512 
L 230.740157 -0 
L 0 -0 
z
" style="fill: #ffffff"/>
   </g>
   <g id="patch_3">
    <path d="M -499.937008 148.818898 
L 44.371332 148.818898 
L 44.371332 133.182952 
L -499.937008 133.182952 
z
" clip-path="url(#p74e37f3aac)" style="fill: #4f80b0"/>
   </g>
   <g id="patch_4">
    <path d="M -499.937008 123.59963 
L 107.478765 123.59963 
L 107.478765 107.963684 
L -499.937008 107.963684 
z
" clip-path="url(#p74e37f3aac)" style="fill: #79a5c2"/>
   </g>
   <g id="patch_5">
    <path d="M -499.937008 98.380363 
L 127.199357 98.380363 
L 127.199357 82.744417 
L -499.937008 82.744417 
z
" clip-path="url(#p74e37f3aac)" style="fill: #c3d2db"/>
   </g>
   <g id="patch_6">
    <path d="M -499.937008 73.161095 
L 135.090671 73.161095 
L 135.090671 57.525149 
L -499.937008 57.525149 
z
" clip-path="url(#p74e37f3aac)" style="fill: #e3c9c1"/>
   </g>
   <g id="patch_7">
    <path d="M -499.937008 47.941828 
L 190.314482 47.941828 
L 190.314482 32.305882 
L -499.937008 32.305882 
z
" clip-path="url(#p74e37f3aac)" style="fill: #d98a72"/>
   </g>
   <g id="patch_8">
    <path d="M -499.937008 22.72256 
L 225.810009 22.72256 
L 225.810009 7.086614 
L -499.937008 7.086614 
z
" clip-path="url(#p74e37f3aac)" style="fill: #be3c42"/>
   </g>
   <g id="matplotlib.axis_1"/>
   <g id="matplotlib.axis_2"/>
  </g>
 </g>
 <defs>
  <clipPath id="p74e37f3aac">
   <rect x="0" y="-0" width="230.740157" height="155.905512"/>
  </clipPath>
 </defs>
</svg>
