<?xml version="1.0" encoding="utf-8" standalone="no"?>
<!DOCTYPE svg PUBLIC "-//W3C//DTD SVG 1.1//EN"
  "http://www.w3.org/Graphics/SVG/1.1/DTD/svg11.dtd">
<svg xmlns:xlink="http://www.w3.org/1999/xlink" width="200.692913pt" height="287.716535pt" viewBox="0 0 200.692913 287.716535" xmlns="http://www.w3.org/2000/svg" version="1.1">
 <metadata>
  <rdf:RDF xmlns:dc="http://purl.org/dc/elements/1.1/" xmlns:cc="http://creativecommons.org/ns#" xmlns:rdf="http://www.w3.org/1999/02/22-rdf-syntax-ns#">
   <cc:Work>
    <dc:type rdf:resource="http://purl.org/dc/dcmitype/StillImage"/>
    <dc:date>2026-06-08T16:01:10.442677</dc:date>
    <dc:format>image/svg+xml</dc:format>
    <dc:creator>
     <cc:Agent>
      <dc:title>Matplotlib v3.9.4, https://matplotlib.org/</dc:title>
     </cc:Agent>
    </dc:creator>
   </cc:Work>
  </rdf:RDF>
 </metadata>
 <defs>
  <style type="text/css">*{stroke-linejoin: round; stroke-linecap: butt}</style>
 </defs>
 <g id="figure_1">
  <g id="patch_1">
   <path d="M 0 287.716535 
L 200.692913 287.716535 
L 200.692913 0 
L 0 0 
L 0 287.716535 
z
" style="fill: none; opacity: 0"/>
  </g>
  <g id="axes_1">
   <g id="patch_2">
    <path d="M 12.726868 381.442377 
L 41.117572 381.442377 
L 41.117572 33.11549 
L 12.726868 33.11549 
z
" clip-path="url(#p518e1a83a3)" style="fill: #3b6ea8; opacity: 0.9"/>
   </g>
   <g id="patch_3">
    <path d="M 61.676359 381.442377 
L 90.067064 381.442377 
L 90.067064 36.63076 
L 61.676359 36.63076 
z
" clip-path="url(#p518e1a83a3)" style="fill: #3b6ea8; opacity: 0.9"/>
   </g>
   <g id="patch_4">
    <path d="M 110.62585 381.442377 
L 139.016555 381.442377 
L 139.016555 38.517476 
L 110.62585 38.517476 
z
" clip-path="url(#p518e1a83a3)" style="fill: #3b6ea8; opacity: 0.9"/>
   </g>
   <g id="patch_5">
    <path d="M 159.575341 381.442377 
L 187.966046 381.442377 
L 187.966046 40.614885 
L 159.575341 40.614885 
z
" clip-path="url(#p518e1a83a3)" style="fill: #3b6ea8; opacity: 0.9"/>
   </g>
  </g>
  <g id="axes_2">
   <g id="patch_6">
    <path d="M 12.726868 440.796487 
L 41.117572 440.796487 
L 41.117572 93.226376 
L 12.726868 93.226376 
z
" clip-path="url(#p53009a8af8)" style="fill: #6593b9; opacity: 0.9"/>
   </g>
   <g id="patch_7">
    <path d="M 61.676359 440.796487 
L 90.067064 440.796487 
L 90.067064 94.452257 
L 61.676359 94.452257 
z
" clip-path="url(#p53009a8af8)" style="fill: #6593b9; opacity: 0.9"/>
   </g>
   <g id="patch_8">
    <path d="M 110.62585 440.796487 
L 139.016555 440.796487 
L 139.016555 95.384722 
L 110.62585 95.384722 
z
" clip-path="url(#p53009a8af8)" style="fill: #6593b9; opacity: 0.9"/>
   </g>
   <g id="patch_9">
    <path d="M 159.575341 440.796487 
L 187.966046 440.796487 
L 187.966046 97.623442 
L 159.575341 97.623442 
z
" clip-path="url(#p53009a8af8)" style="fill: #6593b9; opacity: 0.9"/>
   </g>
  </g>
  <g id="axes_3">
   <g id="patch_10">
    <path d="M 12.726868 445.658829 
L 41.117572 445.658829 
L 41.117572 144.358428 
L 12.726868 144.358428 
z
" clip-path="url(#p4e784f062b)" style="fill: #9fbccf; opacity: 0.9"/>
   </g>
   <g id="patch_11">
    <path d="M 61.676359 445.658829 
L 90.067064 445.658829 
L 90.067064 155.615273 
L 61.676359 155.615273 
z
" clip-path="url(#p4e784f062b)" style="fill: #9fbccf; opacity: 0.9"/>
   </g>
   <g id="patch_12">
    <path d="M 110.62585 445.658829 
L 139.016555 445.658829 
L 139.016555 161.529577 
L 110.62585 161.529577 
z
" clip-path="url(#p4e784f062b)" style="fill: #9fbccf; opacity: 0.9"/>
   </g>
   <g id="patch_13">
    <path d="M 159.575341 445.658829 
L 187.966046 445.658829 
L 187.966046 161.745485 
L 159.575341 161.745485 
z
" clip-path="url(#p4e784f062b)" style="fill: #9fbccf; opacity: 0.9"/>
   </g>
  </g>
  <g id="axes_4">
   <g id="patch_14">
    <path d="M 12.726868 438.439287 
L 41.117572 438.439287 
L 41.117572 213.237802 
L 12.726868 213.237802 
z
" clip-path="url(#pb4f155838a)" style="fill: #deaa9a; opacity: 0.9"/>
   </g>
   <g id="patch_15">
    <path d="M 61.676359 438.439287 
L 90.067064 438.439287 
L 90.067064 215.106917 
L 61.676359 215.106917 
z
" clip-path="url(#pb4f155838a)" style="fill: #deaa9a; opacity: 0.9"/>
   </g>
   <g id="patch_16">
    <path d="M 110.62585 438.439287 
L 139.016555 438.439287 
L 139.016555 215.970376 
L 110.62585 215.970376 
z
" clip-path="url(#pb4f155838a)" style="fill: #deaa9a; opacity: 0.9"/>
   </g>
   <g id="patch_17">
    <path d="M 159.575341 438.439287 
L 187.966046 438.439287 
L 187.966046 217.277803 
L 159.575341 217.277803 
z
" clip-path="url(#pb4f155838a)" style="fill: #deaa9a; opacity: 0.9"/>
   </g>
  </g>
  <g id="axes_5">
   <g id="patch_18">
    <path d="M 12.726868 618.858818 
L 41.117572 618.858818 
L 41.117572 275.172271 
L 12.726868 275.172271 
z
" clip-path="url(#p03f8b9cb59)" style="fill: #cc645a; opacity: 0.9"/>
   </g>
   <g id="patch_19">
    <path d="M 61.676359 618.858818 
L 90.067064 618.858818 
L 90.067064 275.502089 
L 61.676359 275.502089 
z
" clip-path="url(#p03f8b9cb59)" style="fill: #cc645a; opacity: 0.9"/>
   </g>
   <g id="patch_20">
    <path d="M 110.62585 618.858818 
L 139.016555 618.858818 
L 139.016555 278.756672 
L 110.62585 278.756672 
z
" clip-path="url(#p03f8b9cb59)" style="fill: #cc645a; opacity: 0.9"/>
   </g>
   <g id="patch_21">
    <path d="M 159.575341 618.858818 
L 187.966046 618.858818 
L 187.966046 279.15045 
L 159.575341 279.15045 
z
" clip-path="url(#p03f8b9cb59)" style="fill: #cc645a; opacity: 0.9"/>
   </g>
  </g>
 </g>
 <defs>
  <clipPath id="p518e1a83a3">
   <rect x="0" y="0" width="200.692913" height="50.300094"/>
  </clipPath>
  <clipPath id="p53009a8af8">
   <rect x="0" y="59.35411" width="200.692913" height="50.300094"/>
  </clipPath>
  <clipPath id="p4e784f062b">
   <rect x="0" y="118.708221" width="200.692913" height="50.300094"/>
  </clipPath>
  <clipPath id="pb4f155838a">
   <rect x="0" y="178.062331" width="200.692913" height="50.300094"/>
  </clipPath>
  <clipPath id="p03f8b9cb59">
   <rect x="0" y="237.416442" width="200.692913" height="50.300094"/>
  </clipPath>
 </defs>
</svg>
