<?xml version="1.0" encoding="utf-8" standalone="no"?>
<!DOCTYPE svg PUBLIC "-//W3C//DTD SVG 1.1//EN"
  "http://www.w3.org/Graphics/SVG/1.1/DTD/svg11.dtd">
<svg xmlns:xlink="http://www.w3.org/1999/xlink" width="200.692913pt" height="287.716535pt" viewBox="0 0 200.692913 287.716535" xmlns="http://www.w3.org/2000/svg" version="1.1">
 <metadata>
  <rdf:RDF xmlns:dc="http://purl.org/dc/elements/1.1/" xmlns:cc="http://creativecommons.org/ns#" xmlns:rdf="http://www.w3.org/1999/02/22-rdf-syntax-ns#">
   <cc:Work>
    <dc:type rdf:resource="http://purl.org/dc/dcmitype/StillImage"/>
    <dc:date>2026-06-24T16:52:56.434596</dc:date>
    <dc:format>image/svg+xml</dc:format>
    <dc:creator>
     <cc:Agent>
      <dc:title>Matplotlib v3.9.4, https://matplotlib.org/</dc:title>
     </cc:Agent>
    </dc:creator>
   </cc:Work>
  </rdf:RDF>
 </metadata>
 <defs>
  <style type="text/css">*{stroke-linejoin: round; stroke-linecap: butt}</style>
 </defs>
 <g id="figure_1">
  <g id="patch_1">
   <path d="M 0 287.716535 
L 200.692913 287.716535 
L 200.692913 0 
L 0 0 
L 0 287.716535 
z
" style="fill: none; opacity: 0"/>
  </g>
  <g id="axes_1">
   <g id="patch_2">
    <path d="M 1.73356 381.442377 
L 5.600732 381.442377 
L 5.600732 36.982289 
L 1.73356 36.982289 
z
" clip-path="url(#p2235f024ff)" style="fill: #3b6ea8; opacity: 0.9"/>
   </g>
   <g id="patch_3">
    <path d="M 8.401099 381.442377 
L 12.268271 381.442377 
L 12.268271 37.799676 
L 8.401099 37.799676 
z
" clip-path="url(#p2235f024ff)" style="fill: #3b6ea8; opacity: 0.9"/>
   </g>
   <g id="patch_4">
    <path d="M 15.068637 381.442377 
L 18.93581 381.442377 
L 18.93581 40.093962 
L 15.068637 40.093962 
z
" clip-path="url(#p2235f024ff)" style="fill: #3b6ea8; opacity: 0.9"/>
   </g>
   <g id="patch_5">
    <path d="M 21.736176 381.442377 
L 25.603348 381.442377 
L 25.603348 41.007064 
L 21.736176 41.007064 
z
" clip-path="url(#p2235f024ff)" style="fill: #3b6ea8; opacity: 0.9"/>
   </g>
   <g id="patch_6">
    <path d="M 28.403715 381.442377 
L 32.270887 381.442377 
L 32.270887 41.304228 
L 28.403715 41.304228 
z
" clip-path="url(#p2235f024ff)" style="fill: #3b6ea8; opacity: 0.9"/>
   </g>
   <g id="patch_7">
    <path d="M 35.071253 381.442377 
L 38.938426 381.442377 
L 38.938426 43.111294 
L 35.071253 43.111294 
z
" clip-path="url(#p2235f024ff)" style="fill: #3b6ea8; opacity: 0.9"/>
   </g>
   <g id="patch_8">
    <path d="M 41.738792 381.442377 
L 45.605964 381.442377 
L 45.605964 43.589744 
L 41.738792 43.589744 
z
" clip-path="url(#p2235f024ff)" style="fill: #3b6ea8; opacity: 0.9"/>
   </g>
   <g id="patch_9">
    <path d="M 48.406331 381.442377 
L 52.273503 381.442377 
L 52.273503 43.95529 
L 48.406331 43.95529 
z
" clip-path="url(#p2235f024ff)" style="fill: #3b6ea8; opacity: 0.9"/>
   </g>
   <g id="patch_10">
    <path d="M 55.073869 381.442377 
L 58.941042 381.442377 
L 58.941042 43.956739 
L 55.073869 43.956739 
z
" clip-path="url(#p2235f024ff)" style="fill: #3b6ea8; opacity: 0.9"/>
   </g>
   <g id="patch_11">
    <path d="M 61.741408 381.442377 
L 65.60858 381.442377 
L 65.60858 44.015077 
L 61.741408 44.015077 
z
" clip-path="url(#p2235f024ff)" style="fill: #3b6ea8; opacity: 0.9"/>
   </g>
   <g id="patch_12">
    <path d="M 68.408947 381.442377 
L 72.276119 381.442377 
L 72.276119 44.692153 
L 68.408947 44.692153 
z
" clip-path="url(#p2235f024ff)" style="fill: #3b6ea8; opacity: 0.9"/>
   </g>
   <g id="patch_13">
    <path d="M 75.076485 381.442377 
L 78.943658 381.442377 
L 78.943658 44.896424 
L 75.076485 44.896424 
z
" clip-path="url(#p2235f024ff)" style="fill: #3b6ea8; opacity: 0.9"/>
   </g>
   <g id="patch_14">
    <path d="M 81.744024 381.442377 
L 85.611196 381.442377 
L 85.611196 46.455896 
L 81.744024 46.455896 
z
" clip-path="url(#p2235f024ff)" style="fill: #3b6ea8; opacity: 0.9"/>
   </g>
   <g id="patch_15">
    <path d="M 88.411563 381.442377 
L 92.278735 381.442377 
L 92.278735 47.23878 
L 88.411563 47.23878 
z
" clip-path="url(#p2235f024ff)" style="fill: #3b6ea8; opacity: 0.9"/>
   </g>
   <g id="patch_16">
    <path d="M 95.079101 381.442377 
L 98.946274 381.442377 
L 98.946274 49.307557 
L 95.079101 49.307557 
z
" clip-path="url(#p2235f024ff)" style="fill: #3b6ea8; opacity: 0.9"/>
   </g>
  </g>
  <g id="axes_2">
   <g id="patch_17">
    <path d="M 1.73356 440.796487 
L 5.600732 440.796487 
L 5.600732 91.867103 
L 1.73356 91.867103 
z
" clip-path="url(#pa5c351160c)" style="fill: #6593b9; opacity: 0.9"/>
   </g>
   <g id="patch_18">
    <path d="M 8.401099 440.796487 
L 12.268271 440.796487 
L 12.268271 92.089764 
L 8.401099 92.089764 
z
" clip-path="url(#pa5c351160c)" style="fill: #6593b9; opacity: 0.9"/>
   </g>
   <g id="patch_19">
    <path d="M 15.068637 440.796487 
L 18.93581 440.796487 
L 18.93581 93.847686 
L 15.068637 93.847686 
z
" clip-path="url(#pa5c351160c)" style="fill: #6593b9; opacity: 0.9"/>
   </g>
   <g id="patch_20">
    <path d="M 21.736176 440.796487 
L 25.603348 440.796487 
L 25.603348 93.883938 
L 21.736176 93.883938 
z
" clip-path="url(#pa5c351160c)" style="fill: #6593b9; opacity: 0.9"/>
   </g>
   <g id="patch_21">
    <path d="M 28.403715 440.796487 
L 32.270887 440.796487 
L 32.270887 96.200135 
L 28.403715 96.200135 
z
" clip-path="url(#pa5c351160c)" style="fill: #6593b9; opacity: 0.9"/>
   </g>
   <g id="patch_22">
    <path d="M 35.071253 440.796487 
L 38.938426 440.796487 
L 38.938426 96.370853 
L 35.071253 96.370853 
z
" clip-path="url(#pa5c351160c)" style="fill: #6593b9; opacity: 0.9"/>
   </g>
  </g>
  <g id="axes_3">
   <g id="patch_23">
    <path d="M 1.73356 445.658829 
L 5.600732 445.658829 
L 5.600732 144.810758 
L 1.73356 144.810758 
z
" clip-path="url(#p1d64853749)" style="fill: #9fbccf; opacity: 0.9"/>
   </g>
   <g id="patch_24">
    <path d="M 8.401099 445.658829 
L 12.268271 445.658829 
L 12.268271 155.690419 
L 8.401099 155.690419 
z
" clip-path="url(#p1d64853749)" style="fill: #9fbccf; opacity: 0.9"/>
   </g>
   <g id="patch_25">
    <path d="M 15.068637 445.658829 
L 18.93581 445.658829 
L 18.93581 161.646675 
L 15.068637 161.646675 
z
" clip-path="url(#p1d64853749)" style="fill: #9fbccf; opacity: 0.9"/>
   </g>
   <g id="patch_26">
    <path d="M 21.736176 445.658829 
L 25.603348 445.658829 
L 25.603348 161.728738 
L 21.736176 161.728738 
z
" clip-path="url(#p1d64853749)" style="fill: #9fbccf; opacity: 0.9"/>
   </g>
   <g id="patch_27">
    <path d="M 28.403715 445.658829 
L 32.270887 445.658829 
L 32.270887 162.449122 
L 28.403715 162.449122 
z
" clip-path="url(#p1d64853749)" style="fill: #9fbccf; opacity: 0.9"/>
   </g>
   <g id="patch_28">
    <path d="M 35.071253 445.658829 
L 38.938426 445.658829 
L 38.938426 163.671883 
L 35.071253 163.671883 
z
" clip-path="url(#p1d64853749)" style="fill: #9fbccf; opacity: 0.9"/>
   </g>
   <g id="patch_29">
    <path d="M 41.738792 445.658829 
L 45.605964 445.658829 
L 45.605964 164.039388 
L 41.738792 164.039388 
z
" clip-path="url(#p1d64853749)" style="fill: #9fbccf; opacity: 0.9"/>
   </g>
   <g id="patch_30">
    <path d="M 48.406331 445.658829 
L 52.273503 445.658829 
L 52.273503 164.210881 
L 48.406331 164.210881 
z
" clip-path="url(#p1d64853749)" style="fill: #9fbccf; opacity: 0.9"/>
   </g>
  </g>
  <g id="axes_4">
   <g id="patch_31">
    <path d="M 1.73356 438.439287 
L 5.600732 438.439287 
L 5.600732 216.553968 
L 1.73356 216.553968 
z
" clip-path="url(#pdce14ccbe2)" style="fill: #deaa9a; opacity: 0.9"/>
   </g>
   <g id="patch_32">
    <path d="M 8.401099 438.439287 
L 12.268271 438.439287 
L 12.268271 216.666715 
L 8.401099 216.666715 
z
" clip-path="url(#pdce14ccbe2)" style="fill: #deaa9a; opacity: 0.9"/>
   </g>
   <g id="patch_33">
    <path d="M 15.068637 438.439287 
L 18.93581 438.439287 
L 18.93581 216.698566 
L 15.068637 216.698566 
z
" clip-path="url(#pdce14ccbe2)" style="fill: #deaa9a; opacity: 0.9"/>
   </g>
   <g id="patch_34">
    <path d="M 21.736176 438.439287 
L 25.603348 438.439287 
L 25.603348 216.830624 
L 21.736176 216.830624 
z
" clip-path="url(#pdce14ccbe2)" style="fill: #deaa9a; opacity: 0.9"/>
   </g>
   <g id="patch_35">
    <path d="M 28.403715 438.439287 
L 32.270887 438.439287 
L 32.270887 217.070051 
L 28.403715 217.070051 
z
" clip-path="url(#pdce14ccbe2)" style="fill: #deaa9a; opacity: 0.9"/>
   </g>
   <g id="patch_36">
    <path d="M 35.071253 438.439287 
L 38.938426 438.439287 
L 38.938426 217.417444 
L 35.071253 217.417444 
z
" clip-path="url(#pdce14ccbe2)" style="fill: #deaa9a; opacity: 0.9"/>
   </g>
   <g id="patch_37">
    <path d="M 41.738792 438.439287 
L 45.605964 438.439287 
L 45.605964 219.267637 
L 41.738792 219.267637 
z
" clip-path="url(#pdce14ccbe2)" style="fill: #deaa9a; opacity: 0.9"/>
   </g>
   <g id="patch_38">
    <path d="M 48.406331 438.439287 
L 52.273503 438.439287 
L 52.273503 219.457294 
L 48.406331 219.457294 
z
" clip-path="url(#pdce14ccbe2)" style="fill: #deaa9a; opacity: 0.9"/>
   </g>
   <g id="patch_39">
    <path d="M 55.073869 438.439287 
L 58.941042 438.439287 
L 58.941042 219.860453 
L 55.073869 219.860453 
z
" clip-path="url(#pdce14ccbe2)" style="fill: #deaa9a; opacity: 0.9"/>
   </g>
   <g id="patch_40">
    <path d="M 61.741408 438.439287 
L 65.60858 438.439287 
L 65.60858 220.203032 
L 61.741408 220.203032 
z
" clip-path="url(#pdce14ccbe2)" style="fill: #deaa9a; opacity: 0.9"/>
   </g>
   <g id="patch_41">
    <path d="M 68.408947 438.439287 
L 72.276119 438.439287 
L 72.276119 220.240632 
L 68.408947 220.240632 
z
" clip-path="url(#pdce14ccbe2)" style="fill: #deaa9a; opacity: 0.9"/>
   </g>
   <g id="patch_42">
    <path d="M 75.076485 438.439287 
L 78.943658 438.439287 
L 78.943658 220.611023 
L 75.076485 220.611023 
z
" clip-path="url(#pdce14ccbe2)" style="fill: #deaa9a; opacity: 0.9"/>
   </g>
   <g id="patch_43">
    <path d="M 81.744024 438.439287 
L 85.611196 438.439287 
L 85.611196 220.772816 
L 81.744024 220.772816 
z
" clip-path="url(#pdce14ccbe2)" style="fill: #deaa9a; opacity: 0.9"/>
   </g>
   <g id="patch_44">
    <path d="M 88.411563 438.439287 
L 92.278735 438.439287 
L 92.278735 221.494481 
L 88.411563 221.494481 
z
" clip-path="url(#pdce14ccbe2)" style="fill: #deaa9a; opacity: 0.9"/>
   </g>
   <g id="patch_45">
    <path d="M 95.079101 438.439287 
L 98.946274 438.439287 
L 98.946274 222.237327 
L 95.079101 222.237327 
z
" clip-path="url(#pdce14ccbe2)" style="fill: #deaa9a; opacity: 0.9"/>
   </g>
   <g id="patch_46">
    <path d="M 101.74664 438.439287 
L 105.613812 438.439287 
L 105.613812 222.420618 
L 101.74664 222.420618 
z
" clip-path="url(#pdce14ccbe2)" style="fill: #deaa9a; opacity: 0.9"/>
   </g>
   <g id="patch_47">
    <path d="M 108.414178 438.439287 
L 112.281351 438.439287 
L 112.281351 224.207814 
L 108.414178 224.207814 
z
" clip-path="url(#pdce14ccbe2)" style="fill: #deaa9a; opacity: 0.9"/>
   </g>
   <g id="patch_48">
    <path d="M 115.081717 438.439287 
L 118.94889 438.439287 
L 118.94889 224.227249 
L 115.081717 224.227249 
z
" clip-path="url(#pdce14ccbe2)" style="fill: #deaa9a; opacity: 0.9"/>
   </g>
   <g id="patch_49">
    <path d="M 121.749256 438.439287 
L 125.616428 438.439287 
L 125.616428 227.249882 
L 121.749256 227.249882 
z
" clip-path="url(#pdce14ccbe2)" style="fill: #deaa9a; opacity: 0.9"/>
   </g>
  </g>
  <g id="axes_5">
   <g id="patch_50">
    <path d="M 1.73356 618.858818 
L 5.600732 618.858818 
L 5.600732 275.203526 
L 1.73356 275.203526 
z
" clip-path="url(#pf6eb70c19e)" style="fill: #cc645a; opacity: 0.9"/>
   </g>
   <g id="patch_51">
    <path d="M 8.401099 618.858818 
L 12.268271 618.858818 
L 12.268271 276.589482 
L 8.401099 276.589482 
z
" clip-path="url(#pf6eb70c19e)" style="fill: #cc645a; opacity: 0.9"/>
   </g>
   <g id="patch_52">
    <path d="M 15.068637 618.858818 
L 18.93581 618.858818 
L 18.93581 278.923917 
L 15.068637 278.923917 
z
" clip-path="url(#pf6eb70c19e)" style="fill: #cc645a; opacity: 0.9"/>
   </g>
   <g id="patch_53">
    <path d="M 21.736176 618.858818 
L 25.603348 618.858818 
L 25.603348 279.308301 
L 21.736176 279.308301 
z
" clip-path="url(#pf6eb70c19e)" style="fill: #cc645a; opacity: 0.9"/>
   </g>
   <g id="patch_54">
    <path d="M 28.403715 618.858818 
L 32.270887 618.858818 
L 32.270887 279.819455 
L 28.403715 279.819455 
z
" clip-path="url(#pf6eb70c19e)" style="fill: #cc645a; opacity: 0.9"/>
   </g>
   <g id="patch_55">
    <path d="M 35.071253 618.858818 
L 38.938426 618.858818 
L 38.938426 279.984202 
L 35.071253 279.984202 
z
" clip-path="url(#pf6eb70c19e)" style="fill: #cc645a; opacity: 0.9"/>
   </g>
   <g id="patch_56">
    <path d="M 41.738792 618.858818 
L 45.605964 618.858818 
L 45.605964 280.060854 
L 41.738792 280.060854 
z
" clip-path="url(#pf6eb70c19e)" style="fill: #cc645a; opacity: 0.9"/>
   </g>
   <g id="patch_57">
    <path d="M 48.406331 618.858818 
L 52.273503 618.858818 
L 52.273503 280.584201 
L 48.406331 280.584201 
z
" clip-path="url(#pf6eb70c19e)" style="fill: #cc645a; opacity: 0.9"/>
   </g>
   <g id="patch_58">
    <path d="M 55.073869 618.858818 
L 58.941042 618.858818 
L 58.941042 280.735606 
L 55.073869 280.735606 
z
" clip-path="url(#pf6eb70c19e)" style="fill: #cc645a; opacity: 0.9"/>
   </g>
   <g id="patch_59">
    <path d="M 61.741408 618.858818 
L 65.60858 618.858818 
L 65.60858 280.744325 
L 61.741408 280.744325 
z
" clip-path="url(#pf6eb70c19e)" style="fill: #cc645a; opacity: 0.9"/>
   </g>
   <g id="patch_60">
    <path d="M 68.408947 618.858818 
L 72.276119 618.858818 
L 72.276119 281.149146 
L 68.408947 281.149146 
z
" clip-path="url(#pf6eb70c19e)" style="fill: #cc645a; opacity: 0.9"/>
   </g>
   <g id="patch_61">
    <path d="M 75.076485 618.858818 
L 78.943658 618.858818 
L 78.943658 281.325236 
L 75.076485 281.325236 
z
" clip-path="url(#pf6eb70c19e)" style="fill: #cc645a; opacity: 0.9"/>
   </g>
   <g id="patch_62">
    <path d="M 81.744024 618.858818 
L 85.611196 618.858818 
L 85.611196 281.358415 
L 81.744024 281.358415 
z
" clip-path="url(#pf6eb70c19e)" style="fill: #cc645a; opacity: 0.9"/>
   </g>
   <g id="patch_63">
    <path d="M 88.411563 618.858818 
L 92.278735 618.858818 
L 92.278735 281.495604 
L 88.411563 281.495604 
z
" clip-path="url(#pf6eb70c19e)" style="fill: #cc645a; opacity: 0.9"/>
   </g>
   <g id="patch_64">
    <path d="M 95.079101 618.858818 
L 98.946274 618.858818 
L 98.946274 281.573205 
L 95.079101 281.573205 
z
" clip-path="url(#pf6eb70c19e)" style="fill: #cc645a; opacity: 0.9"/>
   </g>
   <g id="patch_65">
    <path d="M 101.74664 618.858818 
L 105.613812 618.858818 
L 105.613812 281.59012 
L 101.74664 281.59012 
z
" clip-path="url(#pf6eb70c19e)" style="fill: #cc645a; opacity: 0.9"/>
   </g>
   <g id="patch_66">
    <path d="M 108.414178 618.858818 
L 112.281351 618.858818 
L 112.281351 281.647659 
L 108.414178 281.647659 
z
" clip-path="url(#pf6eb70c19e)" style="fill: #cc645a; opacity: 0.9"/>
   </g>
   <g id="patch_67">
    <path d="M 115.081717 618.858818 
L 118.94889 618.858818 
L 118.94889 281.70852 
L 115.081717 281.70852 
z
" clip-path="url(#pf6eb70c19e)" style="fill: #cc645a; opacity: 0.9"/>
   </g>
   <g id="patch_68">
    <path d="M 121.749256 618.858818 
L 125.616428 618.858818 
L 125.616428 281.872942 
L 121.749256 281.872942 
z
" clip-path="url(#pf6eb70c19e)" style="fill: #cc645a; opacity: 0.9"/>
   </g>
   <g id="patch_69">
    <path d="M 128.416794 618.858818 
L 132.283967 618.858818 
L 132.283967 282.733078 
L 128.416794 282.733078 
z
" clip-path="url(#pf6eb70c19e)" style="fill: #cc645a; opacity: 0.9"/>
   </g>
   <g id="patch_70">
    <path d="M 135.084333 618.858818 
L 138.951505 618.858818 
L 138.951505 283.266093 
L 135.084333 283.266093 
z
" clip-path="url(#pf6eb70c19e)" style="fill: #cc645a; opacity: 0.9"/>
   </g>
   <g id="patch_71">
    <path d="M 141.751872 618.858818 
L 145.619044 618.858818 
L 145.619044 284.626015 
L 141.751872 284.626015 
z
" clip-path="url(#pf6eb70c19e)" style="fill: #cc645a; opacity: 0.9"/>
   </g>
   <g id="patch_72">
    <path d="M 148.41941 618.858818 
L 152.286583 618.858818 
L 152.286583 284.868138 
L 148.41941 284.868138 
z
" clip-path="url(#pf6eb70c19e)" style="fill: #cc645a; opacity: 0.9"/>
   </g>
   <g id="patch_73">
    <path d="M 155.086949 618.858818 
L 158.954121 618.858818 
L 158.954121 285.35131 
L 155.086949 285.35131 
z
" clip-path="url(#pf6eb70c19e)" style="fill: #cc645a; opacity: 0.9"/>
   </g>
   <g id="patch_74">
    <path d="M 161.754488 618.858818 
L 165.62166 618.858818 
L 165.62166 286.672007 
L 161.754488 286.672007 
z
" clip-path="url(#pf6eb70c19e)" style="fill: #cc645a; opacity: 0.9"/>
   </g>
   <g id="patch_75">
    <path d="M 168.422026 618.858818 
L 172.289199 618.858818 
L 172.289199 287.484797 
L 168.422026 287.484797 
z
" clip-path="url(#pf6eb70c19e)" style="fill: #cc645a; opacity: 0.9"/>
   </g>
   <g id="patch_76">
    <path d="M 175.089565 618.858818 
L 178.956737 618.858818 
L 178.956737 287.667232 
L 175.089565 287.667232 
z
" clip-path="url(#pf6eb70c19e)" style="fill: #cc645a; opacity: 0.9"/>
   </g>
   <g id="patch_77">
    <path d="M 181.757104 618.858818 
L 185.624276 618.858818 
L 185.624276 288.046919 
L 181.757104 288.046919 
z
" clip-path="url(#pf6eb70c19e)" style="fill: #cc645a; opacity: 0.9"/>
   </g>
   <g id="patch_78">
    <path d="M 188.424642 618.858818 
L 192.291815 618.858818 
L 192.291815 289.891612 
L 188.424642 289.891612 
z
" clip-path="url(#pf6eb70c19e)" style="fill: #cc645a; opacity: 0.9"/>
   </g>
   <g id="patch_79">
    <path d="M 195.092181 618.858818 
L 198.959353 618.858818 
L 198.959353 291.29768 
L 195.092181 291.29768 
z
" clip-path="url(#pf6eb70c19e)" style="fill: #cc645a; opacity: 0.9"/>
   </g>
  </g>
 </g>
 <defs>
  <clipPath id="p2235f024ff">
   <rect x="0" y="0" width="200.692913" height="50.300094"/>
  </clipPath>
  <clipPath id="pa5c351160c">
   <rect x="0" y="59.35411" width="200.692913" height="50.300094"/>
  </clipPath>
  <clipPath id="p1d64853749">
   <rect x="0" y="118.708221" width="200.692913" height="50.300094"/>
  </clipPath>
  <clipPath id="pdce14ccbe2">
   <rect x="0" y="178.062331" width="200.692913" height="50.300094"/>
  </clipPath>
  <clipPath id="pf6eb70c19e">
   <rect x="0" y="237.416442" width="200.692913" height="50.300094"/>
  </clipPath>
 </defs>
</svg>
