<?xml version="1.0" encoding="utf-8" standalone="no"?>
<!DOCTYPE svg PUBLIC "-//W3C//DTD SVG 1.1//EN"
  "http://www.w3.org/Graphics/SVG/1.1/DTD/svg11.dtd">
<svg xmlns:xlink="http://www.w3.org/1999/xlink" width="187.370079pt" height="116.503937pt" viewBox="0 0 187.370079 116.503937" xmlns="http://www.w3.org/2000/svg" version="1.1">
 <metadata>
  <rdf:RDF xmlns:dc="http://purl.org/dc/elements/1.1/" xmlns:cc="http://creativecommons.org/ns#" xmlns:rdf="http://www.w3.org/1999/02/22-rdf-syntax-ns#">
   <cc:Work>
    <dc:type rdf:resource="http://purl.org/dc/dcmitype/StillImage"/>
    <dc:date>2026-06-08T10:46:46.356777</dc:date>
    <dc:format>image/svg+xml</dc:format>
    <dc:creator>
     <cc:Agent>
      <dc:title>Matplotlib v3.9.4, https://matplotlib.org/</dc:title>
     </cc:Agent>
    </dc:creator>
   </cc:Work>
  </rdf:RDF>
 </metadata>
 <defs>
  <style type="text/css">*{stroke-linejoin: round; stroke-linecap: butt}</style>
 </defs>
 <g id="figure_1">
  <g id="patch_1">
   <path d="M 0 116.503937 
L 187.370079 116.503937 
L 187.370079 0 
L 0 0 
L 0 116.503937 
z
" style="fill: none; opacity: 0"/>
  </g>
  <g id="axes_1">
   <g id="PolyCollection_1">
    <path d="M 18.072836 33.51126 
L 13.15551 33.51126 
L 13.039446 33.38204 
L 12.932348 33.25282 
L 12.835494 33.1236 
L 12.750009 32.99438 
L 12.676845 32.86516 
L 12.616757 32.73594 
L 12.570296 32.60672 
L 12.537801 32.4775 
L 12.519392 32.34828 
L 12.51498 32.21906 
L 12.524274 32.08984 
L 12.546787 31.96062 
L 12.581858 31.8314 
L 12.628665 31.70218 
L 12.686244 31.57296 
L 12.753509 31.44374 
L 12.829266 31.31452 
L 12.912238 31.1853 
L 13.001073 31.05608 
L 13.094364 30.92686 
L 13.190661 30.79764 
L 13.288479 30.66842 
L 13.386311 30.5392 
L 13.482636 30.40998 
L 13.575924 30.280761 
L 13.664644 30.151541 
L 13.747272 30.022321 
L 13.822295 29.893101 
L 13.88822 29.763881 
L 13.943584 29.634661 
L 13.98696 29.505441 
L 14.01697 29.376221 
L 14.032294 29.247001 
L 14.031687 29.117781 
L 14.013989 28.988561 
L 13.978139 28.859341 
L 13.923191 28.730121 
L 13.848328 28.600901 
L 13.752872 28.471681 
L 13.636304 28.342461 
L 13.498268 28.213241 
L 13.338591 28.084021 
L 13.157289 27.954801 
L 12.954576 27.825581 
L 12.730879 27.696361 
L 12.486845 27.567141 
L 12.223349 27.437921 
L 11.941505 27.308701 
L 11.642676 27.179481 
L 11.32848 27.050261 
L 11.000802 26.921041 
L 10.661796 26.791821 
L 10.313887 26.662601 
L 9.959773 26.533381 
L 9.602414 26.404161 
L 9.245019 26.274941 
L 8.891024 26.145721 
L 8.544057 26.016501 
L 8.207894 25.887281 
L 7.886409 25.758061 
L 7.583506 25.628841 
L 7.30305 25.499621 
L 7.048781 25.370401 
L 6.824233 25.241181 
L 6.632644 25.111961 
L 6.476871 24.982741 
L 6.359309 24.853521 
L 6.281818 24.724301 
L 6.245669 24.595081 
L 6.251494 24.465861 
L 6.299265 24.336641 
L 6.388289 24.207421 
L 6.517222 24.078201 
L 6.684107 23.948981 
L 6.886426 23.819761 
L 7.121174 23.690541 
L 7.384942 23.561321 
L 7.67401 23.432101 
L 7.984452 23.302881 
L 8.31223 23.173661 
L 8.6533 23.044441 
L 9.0037 22.915221 
L 9.359634 22.786001 
L 9.71754 22.656781 
L 10.074151 22.527561 
L 10.426534 22.398341 
L 10.772116 22.269121 
L 11.1087 22.139901 
L 11.434463 22.010681 
L 11.747942 21.881462 
L 12.048016 21.752242 
L 12.333881 21.623022 
L 12.605009 21.493802 
L 12.861121 21.364582 
L 13.102146 21.235362 
L 13.328187 21.106142 
L 13.539489 20.976922 
L 13.736407 20.847702 
L 13.919378 20.718482 
L 17.308968 20.718482 
L 17.308968 20.718482 
L 17.49194 20.847702 
L 17.688857 20.976922 
L 17.900159 21.106142 
L 18.1262 21.235362 
L 18.367225 21.364582 
L 18.623337 21.493802 
L 18.894466 21.623022 
L 19.18033 21.752242 
L 19.480405 21.881462 
L 19.793884 22.010681 
L 20.119646 22.139901 
L 20.45623 22.269121 
L 20.801813 22.398341 
L 21.154196 22.527561 
L 21.510807 22.656781 
L 21.868713 22.786001 
L 22.224646 22.915221 
L 22.575046 23.044441 
L 22.916117 23.173661 
L 23.243895 23.302881 
L 23.554336 23.432101 
L 23.843405 23.561321 
L 24.107172 23.690541 
L 24.341921 23.819761 
L 24.54424 23.948981 
L 24.711125 24.078201 
L 24.840058 24.207421 
L 24.929082 24.336641 
L 24.976852 24.465861 
L 24.982677 24.595081 
L 24.946528 24.724301 
L 24.869038 24.853521 
L 24.751476 24.982741 
L 24.595703 25.111961 
L 24.404114 25.241181 
L 24.179565 25.370401 
L 23.925297 25.499621 
L 23.64484 25.628841 
L 23.341938 25.758061 
L 23.020453 25.887281 
L 22.68429 26.016501 
L 22.337322 26.145721 
L 21.983327 26.274941 
L 21.625933 26.404161 
L 21.268574 26.533381 
L 20.91446 26.662601 
L 20.566551 26.791821 
L 20.227544 26.921041 
L 19.899866 27.050261 
L 19.585671 27.179481 
L 19.286842 27.308701 
L 19.004997 27.437921 
L 18.741501 27.567141 
L 18.497467 27.696361 
L 18.273771 27.825581 
L 18.071058 27.954801 
L 17.889755 28.084021 
L 17.730078 28.213241 
L 17.592043 28.342461 
L 17.475474 28.471681 
L 17.380019 28.600901 
L 17.305155 28.730121 
L 17.250208 28.859341 
L 17.214358 28.988561 
L 17.19666 29.117781 
L 17.196053 29.247001 
L 17.211377 29.376221 
L 17.241386 29.505441 
L 17.284762 29.634661 
L 17.340126 29.763881 
L 17.406052 29.893101 
L 17.481075 30.022321 
L 17.563702 30.151541 
L 17.652423 30.280761 
L 17.745711 30.40998 
L 17.842036 30.5392 
L 17.939868 30.66842 
L 18.037686 30.79764 
L 18.133982 30.92686 
L 18.227273 31.05608 
L 18.316108 31.1853 
L 18.39908 31.31452 
L 18.474838 31.44374 
L 18.542102 31.57296 
L 18.599682 31.70218 
L 18.646489 31.8314 
L 18.68156 31.96062 
L 18.704073 32.08984 
L 18.713366 32.21906 
L 18.708955 32.34828 
L 18.690546 32.4775 
L 18.65805 32.60672 
L 18.61159 32.73594 
L 18.551502 32.86516 
L 18.478337 32.99438 
L 18.392853 33.1236 
L 18.295999 33.25282 
L 18.188901 33.38204 
L 18.072836 33.51126 
z
" clip-path="url(#pb46024a032)" style="fill: #b2182b; fill-opacity: 0.38"/>
   </g>
   <g id="PolyCollection_2">
    <path d="M 42.180799 45.654105 
L 41.094792 45.654105 
L 40.999859 45.413094 
L 40.893027 45.172083 
L 40.773281 44.931072 
L 40.639634 44.690062 
L 40.491186 44.449051 
L 40.327179 44.20804 
L 40.147044 43.967029 
L 39.950429 43.726019 
L 39.737215 43.485008 
L 39.507513 43.243997 
L 39.261649 43.002986 
L 39.000147 42.761975 
L 38.72372 42.520965 
L 38.433275 42.279954 
L 38.129924 42.038943 
L 37.815017 41.797932 
L 37.490162 41.556922 
L 37.15724 41.315911 
L 36.818392 41.0749 
L 36.475976 40.833889 
L 36.132494 40.592879 
L 35.7905 40.351868 
L 35.452508 40.110857 
L 35.120926 39.869846 
L 34.798021 39.628836 
L 34.485932 39.387825 
L 34.186714 39.146814 
L 33.902402 38.905803 
L 33.635061 38.664792 
L 33.386802 38.423782 
L 33.159744 38.182771 
L 32.955917 37.94176 
L 32.777128 37.700749 
L 32.624802 37.459739 
L 32.499848 37.218728 
L 32.40255 36.977717 
L 32.332515 36.736706 
L 32.288669 36.495696 
L 32.269291 36.254685 
L 32.272058 36.013674 
L 32.2941 35.772663 
L 32.332047 35.531653 
L 32.382101 35.290642 
L 32.440127 35.049631 
L 32.501819 34.80862 
L 32.562928 34.56761 
L 32.61958 34.326599 
L 32.668623 34.085588 
L 32.70797 33.844577 
L 32.736874 33.603566 
L 32.756049 33.362556 
L 32.767611 33.121545 
L 32.774814 32.880534 
L 32.781611 32.639523 
L 32.792101 32.398513 
L 32.80996 32.157502 
L 32.837949 31.916491 
L 32.877588 31.67548 
L 32.929063 31.43447 
L 32.991361 31.193459 
L 33.062611 30.952448 
L 33.140569 30.711437 
L 33.223131 30.470427 
L 33.308799 30.229416 
L 33.397002 29.988405 
L 33.488223 29.747394 
L 33.583928 29.506384 
L 33.686303 29.265373 
L 33.797871 29.024362 
L 33.921052 28.783351 
L 34.057747 28.54234 
L 34.209005 28.30133 
L 34.374831 28.060319 
L 34.554149 27.819308 
L 34.744928 27.578297 
L 34.944442 27.337287 
L 35.149628 27.096276 
L 35.357503 26.855265 
L 35.565567 26.614254 
L 35.772154 26.373244 
L 35.976677 26.132233 
L 36.179728 25.891222 
L 36.383011 25.650211 
L 36.589115 25.409201 
L 36.801142 25.16819 
L 37.022248 24.927179 
L 37.255155 24.686168 
L 37.501694 24.445158 
L 37.76247 24.204147 
L 38.036669 23.963136 
L 38.322054 23.722125 
L 38.615131 23.481114 
L 38.911458 23.240104 
L 39.206043 22.999093 
L 39.493777 22.758082 
L 39.769837 22.517071 
L 40.030019 22.276061 
L 40.270969 22.03505 
L 40.490309 21.794039 
L 42.785282 21.794039 
L 42.785282 21.794039 
L 43.004621 22.03505 
L 43.245572 22.276061 
L 43.505754 22.517071 
L 43.781814 22.758082 
L 44.069547 22.999093 
L 44.364132 23.240104 
L 44.660459 23.481114 
L 44.953537 23.722125 
L 45.238922 23.963136 
L 45.513121 24.204147 
L 45.773896 24.445158 
L 46.020435 24.686168 
L 46.253342 24.927179 
L 46.474449 25.16819 
L 46.686476 25.409201 
L 46.892579 25.650211 
L 47.095862 25.891222 
L 47.298914 26.132233 
L 47.503437 26.373244 
L 47.710024 26.614254 
L 47.918087 26.855265 
L 48.125962 27.096276 
L 48.331149 27.337287 
L 48.530662 27.578297 
L 48.721441 27.819308 
L 48.900759 28.060319 
L 49.066585 28.30133 
L 49.217843 28.54234 
L 49.354539 28.783351 
L 49.47772 29.024362 
L 49.589288 29.265373 
L 49.691662 29.506384 
L 49.787367 29.747394 
L 49.878589 29.988405 
L 49.966792 30.229416 
L 50.05246 30.470427 
L 50.135022 30.711437 
L 50.212979 30.952448 
L 50.28423 31.193459 
L 50.346527 31.43447 
L 50.398003 31.67548 
L 50.437642 31.916491 
L 50.46563 32.157502 
L 50.483489 32.398513 
L 50.49398 32.639523 
L 50.500777 32.880534 
L 50.50798 33.121545 
L 50.519542 33.362556 
L 50.538716 33.603566 
L 50.56762 33.844577 
L 50.606968 34.085588 
L 50.65601 34.326599 
L 50.712662 34.56761 
L 50.773772 34.80862 
L 50.835463 35.049631 
L 50.89349 35.290642 
L 50.943543 35.531653 
L 50.981491 35.772663 
L 51.003532 36.013674 
L 51.006299 36.254685 
L 50.986921 36.495696 
L 50.943076 36.736706 
L 50.873041 36.977717 
L 50.775743 37.218728 
L 50.650789 37.459739 
L 50.498463 37.700749 
L 50.319673 37.94176 
L 50.115846 38.182771 
L 49.888788 38.423782 
L 49.64053 38.664792 
L 49.373189 38.905803 
L 49.088877 39.146814 
L 48.789659 39.387825 
L 48.477569 39.628836 
L 48.154665 39.869846 
L 47.823083 40.110857 
L 47.485091 40.351868 
L 47.143096 40.592879 
L 46.799614 40.833889 
L 46.457199 41.0749 
L 46.118351 41.315911 
L 45.785429 41.556922 
L 45.460573 41.797932 
L 45.145666 42.038943 
L 44.842316 42.279954 
L 44.55187 42.520965 
L 44.275444 42.761975 
L 44.013941 43.002986 
L 43.768077 43.243997 
L 43.538375 43.485008 
L 43.325162 43.726019 
L 43.128547 43.967029 
L 42.948411 44.20804 
L 42.784404 44.449051 
L 42.635956 44.690062 
L 42.502309 44.931072 
L 42.382563 45.172083 
L 42.275732 45.413094 
L 42.180799 45.654105 
z
" clip-path="url(#pb46024a032)" style="fill: #cc645a; fill-opacity: 0.38"/>
   </g>
   <g id="PolyCollection_3">
    <path d="M 67.796786 101.042095 
L 67.526049 101.042095 
L 67.505719 100.241609 
L 67.485359 99.441124 
L 67.465516 98.640638 
L 67.44678 97.840153 
L 67.429726 97.039667 
L 67.414793 96.239182 
L 67.402154 95.438696 
L 67.391569 94.638211 
L 67.382299 93.837725 
L 67.3731 93.03724 
L 67.362336 92.236755 
L 67.348188 91.436269 
L 67.328962 90.635784 
L 67.30342 89.835298 
L 67.271088 89.034813 
L 67.232472 88.234327 
L 67.189145 87.433842 
L 67.143655 86.633356 
L 67.099261 85.832871 
L 67.059531 85.032385 
L 67.027844 84.2319 
L 67.006886 83.431414 
L 66.998239 82.630929 
L 67.002136 81.830443 
L 67.017431 81.029958 
L 67.0418 80.229472 
L 67.072133 79.428987 
L 67.105019 78.628501 
L 67.13724 77.828016 
L 67.166168 77.02753 
L 67.189979 76.227045 
L 67.20765 75.426559 
L 67.218733 74.626074 
L 67.222949 73.825588 
L 67.219671 73.025103 
L 67.207393 72.224618 
L 67.183298 71.424132 
L 67.143016 70.623647 
L 67.080639 69.823161 
L 66.98903 69.022676 
L 66.860388 68.22219 
L 66.686987 67.421705 
L 66.46199 66.621219 
L 66.180198 65.820734 
L 65.838644 65.020248 
L 65.436958 64.219763 
L 64.97749 63.419277 
L 64.46521 62.618792 
L 63.907462 61.818306 
L 63.313636 61.017821 
L 62.694852 60.217335 
L 62.063683 59.41685 
L 61.43397 58.616364 
L 60.82066 57.815879 
L 60.239614 57.015393 
L 59.707263 56.214908 
L 59.240012 55.414422 
L 58.853337 54.613937 
L 58.560638 53.813452 
L 58.371967 53.012966 
L 58.292913 52.212481 
L 58.323863 51.411995 
L 58.459881 50.61151 
L 58.691263 49.811024 
L 59.004703 49.010539 
L 59.384838 48.210053 
L 59.815894 47.409568 
L 60.283115 46.609082 
L 60.773799 45.808597 
L 61.277787 45.008111 
L 61.787454 44.207626 
L 62.297251 43.40714 
L 62.802963 42.606655 
L 63.300827 41.806169 
L 63.786678 41.005684 
L 64.255283 40.205198 
L 64.700006 39.404713 
L 65.112877 38.604227 
L 65.485092 37.803742 
L 65.807886 37.003256 
L 66.073618 36.202771 
L 66.276883 35.402285 
L 66.415466 34.6018 
L 66.490945 33.801315 
L 66.508876 33.000829 
L 66.478527 32.200344 
L 66.412201 31.399858 
L 66.324253 30.599373 
L 66.229902 29.798887 
L 66.14395 28.998402 
L 66.07953 28.197916 
L 66.046979 27.397431 
L 66.052979 26.596945 
L 66.100047 25.79646 
L 66.186492 24.995974 
L 66.306853 24.195489 
L 66.452773 23.395003 
L 66.614206 22.594518 
L 66.780731 21.794032 
L 68.542104 21.794032 
L 68.542104 21.794032 
L 68.708628 22.594518 
L 68.870061 23.395003 
L 69.015982 24.195489 
L 69.136342 24.995974 
L 69.222788 25.79646 
L 69.269856 26.596945 
L 69.275855 27.397431 
L 69.243305 28.197916 
L 69.178885 28.998402 
L 69.092933 29.798887 
L 68.998582 30.599373 
L 68.910633 31.399858 
L 68.844307 32.200344 
L 68.813958 33.000829 
L 68.83189 33.801315 
L 68.907369 34.6018 
L 69.045951 35.402285 
L 69.249217 36.202771 
L 69.514948 37.003256 
L 69.837743 37.803742 
L 70.209958 38.604227 
L 70.622828 39.404713 
L 71.067551 40.205198 
L 71.536157 41.005684 
L 72.022007 41.806169 
L 72.519871 42.606655 
L 73.025584 43.40714 
L 73.535381 44.207626 
L 74.045047 45.008111 
L 74.549036 45.808597 
L 75.039719 46.609082 
L 75.506941 47.409568 
L 75.937996 48.210053 
L 76.318132 49.010539 
L 76.631572 49.811024 
L 76.862954 50.61151 
L 76.998971 51.411995 
L 77.029921 52.212481 
L 76.950867 53.012966 
L 76.762197 53.813452 
L 76.469497 54.613937 
L 76.082823 55.414422 
L 75.615571 56.214908 
L 75.08322 57.015393 
L 74.502175 57.815879 
L 73.888864 58.616364 
L 73.259151 59.41685 
L 72.627983 60.217335 
L 72.009198 61.017821 
L 71.415373 61.818306 
L 70.857624 62.618792 
L 70.345344 63.419277 
L 69.885876 64.219763 
L 69.484191 65.020248 
L 69.142637 65.820734 
L 68.860845 66.621219 
L 68.635847 67.421705 
L 68.462447 68.22219 
L 68.333804 69.022676 
L 68.242196 69.823161 
L 68.179819 70.623647 
L 68.139536 71.424132 
L 68.115442 72.224618 
L 68.103164 73.025103 
L 68.099886 73.825588 
L 68.104102 74.626074 
L 68.115185 75.426559 
L 68.132855 76.227045 
L 68.156667 77.02753 
L 68.185595 77.828016 
L 68.217816 78.628501 
L 68.250701 79.428987 
L 68.281034 80.229472 
L 68.305404 81.029958 
L 68.320698 81.830443 
L 68.324595 82.630929 
L 68.315949 83.431414 
L 68.294991 84.2319 
L 68.263303 85.032385 
L 68.223574 85.832871 
L 68.17918 86.633356 
L 68.133689 87.433842 
L 68.090362 88.234327 
L 68.051747 89.034813 
L 68.019415 89.835298 
L 67.993873 90.635784 
L 67.974647 91.436269 
L 67.960499 92.236755 
L 67.949734 93.03724 
L 67.940536 93.837725 
L 67.931266 94.638211 
L 67.920681 95.438696 
L 67.908041 96.239182 
L 67.893109 97.039667 
L 67.876054 97.840153 
L 67.857319 98.640638 
L 67.837475 99.441124 
L 67.817115 100.241609 
L 67.796786 101.042095 
z
" clip-path="url(#pb46024a032)" style="fill: #deaa9a; fill-opacity: 0.38"/>
   </g>
   <g id="PolyCollection_4">
    <path d="M 93.901274 109.106999 
L 93.468805 109.106999 
L 93.335461 108.996369 
L 93.14606 108.885738 
L 92.887452 108.775107 
L 92.547419 108.664477 
L 92.11777 108.553846 
L 91.596731 108.443215 
L 90.987483 108.332585 
L 90.293324 108.221954 
L 89.515037 108.111323 
L 88.655656 108.000693 
L 87.731601 107.890062 
L 86.783966 107.779432 
L 85.883076 107.668801 
L 85.119976 107.55817 
L 84.581457 107.44754 
L 84.316609 107.336909 
L 84.316535 107.226278 
L 84.525294 107.115648 
L 84.875309 107.005017 
L 85.319472 106.894386 
L 85.838061 106.783756 
L 86.422889 106.673125 
L 87.057707 106.562494 
L 87.711277 106.451864 
L 88.345575 106.341233 
L 88.929498 106.230602 
L 89.446644 106.119972 
L 89.893851 106.009341 
L 90.275783 105.898711 
L 90.601553 105.78808 
L 90.883803 105.677449 
L 91.137091 105.566819 
L 91.374188 105.456188 
L 91.602359 105.345557 
L 91.82248 105.234927 
L 92.031328 105.124296 
L 92.224742 105.013665 
L 92.399222 104.903035 
L 92.551545 104.792404 
L 92.677901 104.681773 
L 92.774333 104.571143 
L 92.838872 104.460512 
L 92.874033 104.349881 
L 92.887843 104.239251 
L 92.892701 104.12862 
L 92.902784 104.01799 
L 92.930724 103.907359 
L 92.98381 103.796728 
L 93.060751 103.686098 
L 93.151454 103.575467 
L 93.241433 103.464836 
L 93.318748 103.354206 
L 93.378812 103.243575 
L 93.42408 103.132944 
L 93.459977 103.022314 
L 93.490855 102.911683 
L 93.518504 102.801052 
L 93.542828 102.690422 
L 93.562904 102.579791 
L 93.577521 102.46916 
L 93.585783 102.35853 
L 93.588266 102.247899 
L 93.587758 102.137269 
L 93.588242 102.026638 
L 93.592333 101.916007 
L 93.599254 101.805377 
L 93.605269 101.694746 
L 93.606357 101.584115 
L 93.601072 101.473485 
L 93.591541 101.362854 
L 93.58218 101.252223 
L 93.57734 101.141593 
L 93.579406 101.030962 
L 93.588169 100.920331 
L 93.601372 100.809701 
L 93.615843 100.69907 
L 93.628552 100.588439 
L 93.63726 100.477809 
L 93.640898 100.367178 
L 93.639955 100.256548 
L 93.636593 100.145917 
L 93.633955 100.035286 
L 93.63473 99.924656 
L 93.639903 99.814025 
L 93.648537 99.703394 
L 93.658568 99.592764 
L 93.667901 99.482133 
L 93.675184 99.371502 
L 93.680031 99.260872 
L 93.682779 99.150241 
L 93.684044 99.03961 
L 93.684331 98.92898 
L 93.683819 98.818349 
L 93.682369 98.707718 
L 93.679739 98.597088 
L 93.67596 98.486457 
L 93.671699 98.375827 
L 93.668233 98.265196 
L 93.666888 98.154565 
L 93.703191 98.154565 
L 93.703191 98.154565 
L 93.701846 98.265196 
L 93.69838 98.375827 
L 93.694118 98.486457 
L 93.69034 98.597088 
L 93.68771 98.707718 
L 93.68626 98.818349 
L 93.685748 98.92898 
L 93.686035 99.03961 
L 93.6873 99.150241 
L 93.690048 99.260872 
L 93.694894 99.371502 
L 93.702178 99.482133 
L 93.71151 99.592764 
L 93.721542 99.703394 
L 93.730176 99.814025 
L 93.735348 99.924656 
L 93.736123 100.035286 
L 93.733486 100.145917 
L 93.730124 100.256548 
L 93.729181 100.367178 
L 93.732819 100.477809 
L 93.741527 100.588439 
L 93.754236 100.69907 
L 93.768706 100.809701 
L 93.781909 100.920331 
L 93.790673 101.030962 
L 93.792739 101.141593 
L 93.787899 101.252223 
L 93.778538 101.362854 
L 93.769006 101.473485 
L 93.763722 101.584115 
L 93.76481 101.694746 
L 93.770825 101.805377 
L 93.777746 101.916007 
L 93.781837 102.026638 
L 93.782321 102.137269 
L 93.781813 102.247899 
L 93.784296 102.35853 
L 93.792558 102.46916 
L 93.807174 102.579791 
L 93.827251 102.690422 
L 93.851575 102.801052 
L 93.879224 102.911683 
L 93.910102 103.022314 
L 93.945998 103.132944 
L 93.991267 103.243575 
L 94.051331 103.354206 
L 94.128646 103.464836 
L 94.218624 103.575467 
L 94.309328 103.686098 
L 94.386268 103.796728 
L 94.439355 103.907359 
L 94.467295 104.01799 
L 94.477378 104.12862 
L 94.482236 104.239251 
L 94.496046 104.349881 
L 94.531207 104.460512 
L 94.595746 104.571143 
L 94.692178 104.681773 
L 94.818534 104.792404 
L 94.970857 104.903035 
L 95.145337 105.013665 
L 95.338751 105.124296 
L 95.547599 105.234927 
L 95.76772 105.345557 
L 95.995891 105.456188 
L 96.232987 105.566819 
L 96.486276 105.677449 
L 96.768525 105.78808 
L 97.094296 105.898711 
L 97.476228 106.009341 
L 97.923434 106.119972 
L 98.440581 106.230602 
L 99.024503 106.341233 
L 99.658801 106.451864 
L 100.312372 106.562494 
L 100.94719 106.673125 
L 101.532018 106.783756 
L 102.050607 106.894386 
L 102.49477 107.005017 
L 102.844785 107.115648 
L 103.053543 107.226278 
L 103.05347 107.336909 
L 102.788622 107.44754 
L 102.250103 107.55817 
L 101.487003 107.668801 
L 100.586112 107.779432 
L 99.638478 107.890062 
L 98.714423 108.000693 
L 97.855042 108.111323 
L 97.076755 108.221954 
L 96.382596 108.332585 
L 95.773347 108.443215 
L 95.252308 108.553846 
L 94.82266 108.664477 
L 94.482627 108.775107 
L 94.224019 108.885738 
L 94.034618 108.996369 
L 93.901274 109.106999 
z
" clip-path="url(#pb46024a032)" style="fill: #e7e7e8; fill-opacity: 0.38"/>
   </g>
   <g id="PolyCollection_5">
    <path d="M 120.861208 110.949682 
L 118.556115 110.949682 
L 118.241203 110.775552 
L 117.869593 110.601422 
L 117.438892 110.427291 
L 116.949022 110.253161 
L 116.402977 110.07903 
L 115.807462 109.9049 
L 115.173236 109.73077 
L 114.514995 109.556639 
L 113.850648 109.382509 
L 113.20003 109.208379 
L 112.583216 109.034248 
L 112.018748 108.860118 
L 111.522154 108.685988 
L 111.105077 108.511857 
L 110.775175 108.337727 
L 110.536711 108.163596 
L 110.391547 107.989466 
L 110.340157 107.815336 
L 110.382293 107.641205 
L 110.51708 107.467075 
L 110.742593 107.292945 
L 111.055108 107.118814 
L 111.448392 106.944684 
L 111.913306 106.770553 
L 112.437924 106.596423 
L 113.008145 106.422293 
L 113.608633 106.248162 
L 114.22387 106.074032 
L 114.839082 105.899902 
L 115.440926 105.725771 
L 116.017901 105.551641 
L 116.560545 105.377511 
L 117.061503 105.20338 
L 117.515528 105.02925 
L 117.919455 104.855119 
L 118.272118 104.680989 
L 118.574201 104.506859 
L 118.828001 104.332728 
L 119.037098 104.158598 
L 119.205975 103.984468 
L 119.339636 103.810337 
L 119.443248 103.636207 
L 119.521851 103.462077 
L 119.580151 103.287946 
L 119.622372 103.113816 
L 119.652187 102.939685 
L 119.672684 102.765555 
L 119.686381 102.591425 
L 119.695264 102.417294 
L 119.700848 102.243164 
L 119.704243 102.069034 
L 119.706233 101.894903 
L 119.707348 101.720773 
L 119.707925 101.546643 
L 119.708158 101.372512 
L 119.708136 101.198382 
L 119.707857 101.024251 
L 119.707233 100.850121 
L 119.706084 100.675991 
L 119.70412 100.50186 
L 119.700918 100.32773 
L 119.695919 100.1536 
L 119.688427 99.979469 
L 119.677658 99.805339 
L 119.662821 99.631209 
L 119.643254 99.457078 
L 119.618588 99.282948 
L 119.588938 99.108817 
L 119.555063 98.934687 
L 119.518451 98.760557 
L 119.481301 98.586426 
L 119.446348 98.412296 
L 119.416563 98.238166 
L 119.394745 98.064035 
L 119.383094 97.889905 
L 119.382847 97.715775 
L 119.394058 97.541644 
L 119.415579 97.367514 
L 119.445241 97.193383 
L 119.480197 97.019253 
L 119.517345 96.845123 
L 119.553733 96.670992 
L 119.586873 96.496862 
L 119.614913 96.322732 
L 119.636658 96.148601 
L 119.651485 95.974471 
L 119.659197 95.80034 
L 119.659882 95.62621 
L 119.653835 95.45208 
L 119.641547 95.277949 
L 119.623774 95.103819 
L 119.601628 94.929689 
L 119.576655 94.755558 
L 119.550831 94.581428 
L 119.526448 94.407298 
L 119.505889 94.233167 
L 119.491315 94.059037 
L 119.48434 93.884906 
L 119.485764 93.710776 
L 119.931559 93.710776 
L 119.931559 93.710776 
L 119.932983 93.884906 
L 119.926008 94.059037 
L 119.911434 94.233167 
L 119.890875 94.407298 
L 119.866492 94.581428 
L 119.840668 94.755558 
L 119.815695 94.929689 
L 119.793549 95.103819 
L 119.775776 95.277949 
L 119.763488 95.45208 
L 119.757441 95.62621 
L 119.758126 95.80034 
L 119.765838 95.974471 
L 119.780665 96.148601 
L 119.80241 96.322732 
L 119.83045 96.496862 
L 119.86359 96.670992 
L 119.899978 96.845123 
L 119.937126 97.019253 
L 119.972082 97.193383 
L 120.001744 97.367514 
L 120.023265 97.541644 
L 120.034476 97.715775 
L 120.034229 97.889905 
L 120.022578 98.064035 
L 120.00076 98.238166 
L 119.970974 98.412296 
L 119.936022 98.586426 
L 119.898872 98.760557 
L 119.86226 98.934687 
L 119.828385 99.108817 
L 119.798735 99.282948 
L 119.774069 99.457078 
L 119.754502 99.631209 
L 119.739665 99.805339 
L 119.728896 99.979469 
L 119.721404 100.1536 
L 119.716404 100.32773 
L 119.713203 100.50186 
L 119.711239 100.675991 
L 119.71009 100.850121 
L 119.709466 101.024251 
L 119.709186 101.198382 
L 119.709164 101.372512 
L 119.709398 101.546643 
L 119.709975 101.720773 
L 119.71109 101.894903 
L 119.71308 102.069034 
L 119.716475 102.243164 
L 119.722058 102.417294 
L 119.730942 102.591425 
L 119.744639 102.765555 
L 119.765136 102.939685 
L 119.794951 103.113816 
L 119.837172 103.287946 
L 119.895471 103.462077 
L 119.974075 103.636207 
L 120.077686 103.810337 
L 120.211348 103.984468 
L 120.380225 104.158598 
L 120.589321 104.332728 
L 120.843122 104.506859 
L 121.145205 104.680989 
L 121.497867 104.855119 
L 121.901794 105.02925 
L 122.35582 105.20338 
L 122.856778 105.377511 
L 123.399422 105.551641 
L 123.976397 105.725771 
L 124.578241 105.899902 
L 125.193453 106.074032 
L 125.80869 106.248162 
L 126.409178 106.422293 
L 126.979398 106.596423 
L 127.504017 106.770553 
L 127.968931 106.944684 
L 128.362215 107.118814 
L 128.67473 107.292945 
L 128.900242 107.467075 
L 129.03503 107.641205 
L 129.077165 107.815336 
L 129.025776 107.989466 
L 128.880612 108.163596 
L 128.642148 108.337727 
L 128.312246 108.511857 
L 127.895169 108.685988 
L 127.398574 108.860118 
L 126.834107 109.034248 
L 126.217293 109.208379 
L 125.566675 109.382509 
L 124.902327 109.556639 
L 124.244086 109.73077 
L 123.609861 109.9049 
L 123.014345 110.07903 
L 122.468301 110.253161 
L 121.978431 110.427291 
L 121.54773 110.601422 
L 121.17612 110.775552 
L 120.861208 110.949682 
z
" clip-path="url(#pb46024a032)" style="fill: #9fbccf; fill-opacity: 0.38"/>
   </g>
   <g id="PolyCollection_6">
    <path d="M 146.16151 106.241597 
L 145.303057 106.241597 
L 145.206794 105.334525 
L 145.098043 104.427452 
L 144.976143 103.52038 
L 144.84021 102.613307 
L 144.68913 101.706234 
L 144.521598 100.799162 
L 144.33623 99.892089 
L 144.131727 98.985016 
L 143.907083 98.077944 
L 143.661788 97.170871 
L 143.396002 96.263799 
L 143.110655 95.356726 
L 142.807436 94.449653 
L 142.488656 93.542581 
L 142.156988 92.635508 
L 141.815116 91.728435 
L 141.465357 90.821363 
L 141.109341 89.91429 
L 140.747846 89.007218 
L 140.380878 88.100145 
L 140.008032 87.193072 
L 139.629121 86.286 
L 139.244954 85.378927 
L 138.858082 84.471854 
L 138.4733 83.564782 
L 138.097707 82.657709 
L 137.740231 81.750636 
L 137.410647 80.843564 
L 137.118292 79.936491 
L 136.870734 79.029419 
L 136.672741 78.122346 
L 136.525791 77.215273 
L 136.428226 76.308201 
L 136.375999 75.401128 
L 136.36378 74.494055 
L 136.386082 73.586983 
L 136.438103 72.67991 
L 136.516036 71.772838 
L 136.616805 70.865765 
L 136.737354 69.958692 
L 136.873766 69.05162 
L 137.020561 68.144547 
L 137.170456 67.237474 
L 137.314726 66.330402 
L 137.444138 65.423329 
L 137.550229 64.516257 
L 137.626619 63.609184 
L 137.670047 62.702111 
L 137.680888 61.795039 
L 137.663088 60.887966 
L 137.623554 59.980893 
L 137.57117 59.073821 
L 137.515646 58.166748 
L 137.46639 57.259675 
L 137.431559 56.352603 
L 137.417378 55.44553 
L 137.427762 54.538458 
L 137.464242 53.631385 
L 137.526144 52.724312 
L 137.610973 51.81724 
L 137.714907 50.910167 
L 137.833328 50.003094 
L 137.961325 49.096022 
L 138.094108 48.188949 
L 138.227337 47.281877 
L 138.357345 46.374804 
L 138.481308 45.467731 
L 138.597354 44.560659 
L 138.704642 43.653586 
L 138.803387 42.746513 
L 138.894821 41.839441 
L 138.981066 40.932368 
L 139.064891 40.025296 
L 139.149368 39.118223 
L 139.237432 38.21115 
L 139.331408 37.304078 
L 139.432579 36.397005 
L 139.540891 35.489932 
L 139.654915 34.58286 
L 139.77213 33.675787 
L 139.889596 32.768715 
L 140.004934 31.861642 
L 140.11746 30.954569 
L 140.229219 30.047497 
L 140.345588 29.140424 
L 140.475174 28.233351 
L 140.628876 27.326279 
L 140.818152 26.419206 
L 141.052812 25.512133 
L 141.338808 24.605061 
L 141.676542 23.697988 
L 142.060144 22.790916 
L 142.477905 21.883843 
L 142.913798 20.97677 
L 143.349735 20.069698 
L 143.768043 19.162625 
L 144.15367 18.255552 
L 144.495701 17.34848 
L 144.788024 16.441407 
L 146.676543 16.441407 
L 146.676543 16.441407 
L 146.968866 17.34848 
L 147.310897 18.255552 
L 147.696524 19.162625 
L 148.114832 20.069698 
L 148.550769 20.97677 
L 148.986662 21.883843 
L 149.404423 22.790916 
L 149.788024 23.697988 
L 150.125759 24.605061 
L 150.411755 25.512133 
L 150.646415 26.419206 
L 150.835691 27.326279 
L 150.989393 28.233351 
L 151.118979 29.140424 
L 151.235348 30.047497 
L 151.347107 30.954569 
L 151.459633 31.861642 
L 151.574971 32.768715 
L 151.692437 33.675787 
L 151.809652 34.58286 
L 151.923676 35.489932 
L 152.031988 36.397005 
L 152.133159 37.304078 
L 152.227135 38.21115 
L 152.315199 39.118223 
L 152.399676 40.025296 
L 152.483501 40.932368 
L 152.569746 41.839441 
L 152.66118 42.746513 
L 152.759925 43.653586 
L 152.867213 44.560659 
L 152.983259 45.467731 
L 153.107222 46.374804 
L 153.23723 47.281877 
L 153.370458 48.188949 
L 153.503242 49.096022 
L 153.631239 50.003094 
L 153.74966 50.910167 
L 153.853594 51.81724 
L 153.938423 52.724312 
L 154.000325 53.631385 
L 154.036805 54.538458 
L 154.047189 55.44553 
L 154.033008 56.352603 
L 153.998177 57.259675 
L 153.948921 58.166748 
L 153.893397 59.073821 
L 153.841013 59.980893 
L 153.801479 60.887966 
L 153.783679 61.795039 
L 153.79452 62.702111 
L 153.837947 63.609184 
L 153.914338 64.516257 
L 154.020429 65.423329 
L 154.149841 66.330402 
L 154.294111 67.237474 
L 154.444005 68.144547 
L 154.590801 69.05162 
L 154.727213 69.958692 
L 154.847762 70.865765 
L 154.948531 71.772838 
L 155.026464 72.67991 
L 155.078485 73.586983 
L 155.100787 74.494055 
L 155.088568 75.401128 
L 155.036341 76.308201 
L 154.938776 77.215273 
L 154.791826 78.122346 
L 154.593833 79.029419 
L 154.346275 79.936491 
L 154.05392 80.843564 
L 153.724336 81.750636 
L 153.36686 82.657709 
L 152.991267 83.564782 
L 152.606485 84.471854 
L 152.219613 85.378927 
L 151.835446 86.286 
L 151.456535 87.193072 
L 151.083689 88.100145 
L 150.716721 89.007218 
L 150.355226 89.91429 
L 149.99921 90.821363 
L 149.649451 91.728435 
L 149.307579 92.635508 
L 148.97591 93.542581 
L 148.657131 94.449653 
L 148.353912 95.356726 
L 148.068565 96.263799 
L 147.802779 97.170871 
L 147.557484 98.077944 
L 147.33284 98.985016 
L 147.128337 99.892089 
L 146.942969 100.799162 
L 146.775437 101.706234 
L 146.624357 102.613307 
L 146.488424 103.52038 
L 146.366523 104.427452 
L 146.257773 105.334525 
L 146.16151 106.241597 
z
" clip-path="url(#pb46024a032)" style="fill: #6593b9; fill-opacity: 0.38"/>
   </g>
   <g id="PolyCollection_7">
    <path d="M 172.062825 106.00275 
L 171.448986 106.00275 
L 171.37425 105.163233 
L 171.288864 104.323716 
L 171.193692 103.484199 
L 171.09036 102.644682 
L 170.981224 101.805165 
L 170.869232 100.965648 
L 170.757679 100.126131 
L 170.649894 99.286614 
L 170.548908 98.447097 
L 170.457137 97.60758 
L 170.376152 96.768063 
L 170.306552 95.928546 
L 170.247969 95.089029 
L 170.199183 94.249512 
L 170.158324 93.409995 
L 170.123129 92.570478 
L 170.091209 91.730961 
L 170.060284 90.891444 
L 170.028371 90.051927 
L 169.993898 89.21241 
L 169.955744 88.372893 
L 169.913201 87.533376 
L 169.865875 86.693859 
L 169.813537 85.854342 
L 169.755936 85.014825 
L 169.692622 84.175308 
L 169.622781 83.335791 
L 169.545138 82.496274 
L 169.457944 81.656757 
L 169.359067 80.81724 
L 169.246193 79.977723 
L 169.117106 79.138206 
L 168.970012 78.298689 
L 168.803832 77.459172 
L 168.618407 76.619655 
L 168.414553 75.780138 
L 168.193931 74.94062 
L 167.958759 74.101103 
L 167.711409 73.261586 
L 167.453988 72.422069 
L 167.187993 71.582552 
L 166.914147 70.743035 
L 166.632433 69.903518 
L 166.342351 69.064001 
L 166.043316 68.224484 
L 165.735111 67.384967 
L 165.418298 66.54545 
L 165.094508 65.705933 
L 164.76657 64.866416 
L 164.438494 64.026899 
L 164.115331 63.187382 
L 163.802953 62.347865 
L 163.507777 61.508348 
L 163.236418 60.668831 
L 162.995262 59.829314 
L 162.789967 58.989797 
L 162.624927 58.15028 
L 162.502782 57.310763 
L 162.424108 56.471246 
L 162.387402 55.631729 
L 162.389411 54.792212 
L 162.425804 53.952695 
L 162.492035 53.113178 
L 162.584246 52.273661 
L 162.699955 51.434144 
L 162.838399 50.594627 
L 163.000418 49.75511 
L 163.187923 48.915593 
L 163.403059 48.076076 
L 163.647252 47.236559 
L 163.920338 46.397042 
L 164.219961 45.557525 
L 164.541349 44.718008 
L 164.877541 43.878491 
L 165.220005 43.038974 
L 165.559567 42.199457 
L 165.887489 41.35994 
L 166.196501 40.520423 
L 166.481628 39.680906 
L 166.740659 38.841389 
L 166.974209 38.001872 
L 167.185362 37.162355 
L 167.379007 36.322838 
L 167.560986 35.483321 
L 167.737215 34.643804 
L 167.912923 33.804287 
L 168.09211 32.96477 
L 168.277281 32.125253 
L 168.469451 31.285736 
L 168.668376 30.446219 
L 168.872922 29.606702 
L 169.081489 28.767184 
L 169.292365 27.927667 
L 169.503969 27.08815 
L 169.714919 26.248633 
L 169.923951 25.409116 
L 170.129743 24.569599 
L 170.330715 23.730082 
L 170.524907 22.890565 
L 172.986904 22.890565 
L 172.986904 22.890565 
L 173.181096 23.730082 
L 173.382068 24.569599 
L 173.58786 25.409116 
L 173.796892 26.248633 
L 174.007842 27.08815 
L 174.219446 27.927667 
L 174.430322 28.767184 
L 174.638889 29.606702 
L 174.843435 30.446219 
L 175.04236 31.285736 
L 175.23453 32.125253 
L 175.419701 32.96477 
L 175.598888 33.804287 
L 175.774596 34.643804 
L 175.950825 35.483321 
L 176.132804 36.322838 
L 176.326449 37.162355 
L 176.537602 38.001872 
L 176.771152 38.841389 
L 177.030183 39.680906 
L 177.31531 40.520423 
L 177.624322 41.35994 
L 177.952244 42.199457 
L 178.291806 43.038974 
L 178.63427 43.878491 
L 178.970462 44.718008 
L 179.29185 45.557525 
L 179.591473 46.397042 
L 179.864559 47.236559 
L 180.108752 48.076076 
L 180.323888 48.915593 
L 180.511393 49.75511 
L 180.673412 50.594627 
L 180.811856 51.434144 
L 180.927565 52.273661 
L 181.019776 53.113178 
L 181.086007 53.952695 
L 181.1224 54.792212 
L 181.124409 55.631729 
L 181.087703 56.471246 
L 181.009029 57.310763 
L 180.886884 58.15028 
L 180.721844 58.989797 
L 180.516549 59.829314 
L 180.275393 60.668831 
L 180.004034 61.508348 
L 179.708858 62.347865 
L 179.39648 63.187382 
L 179.073317 64.026899 
L 178.745241 64.866416 
L 178.417303 65.705933 
L 178.093513 66.54545 
L 177.7767 67.384967 
L 177.468495 68.224484 
L 177.16946 69.064001 
L 176.879378 69.903518 
L 176.597664 70.743035 
L 176.323818 71.582552 
L 176.057823 72.422069 
L 175.800402 73.261586 
L 175.553052 74.101103 
L 175.31788 74.94062 
L 175.097258 75.780138 
L 174.893404 76.619655 
L 174.707979 77.459172 
L 174.541799 78.298689 
L 174.394705 79.138206 
L 174.265618 79.977723 
L 174.152744 80.81724 
L 174.053867 81.656757 
L 173.966673 82.496274 
L 173.88903 83.335791 
L 173.819189 84.175308 
L 173.755875 85.014825 
L 173.698274 85.854342 
L 173.645936 86.693859 
L 173.59861 87.533376 
L 173.556067 88.372893 
L 173.517913 89.21241 
L 173.48344 90.051927 
L 173.451527 90.891444 
L 173.420602 91.730961 
L 173.388682 92.570478 
L 173.353487 93.409995 
L 173.312628 94.249512 
L 173.263842 95.089029 
L 173.205259 95.928546 
L 173.135659 96.768063 
L 173.054674 97.60758 
L 172.962903 98.447097 
L 172.861917 99.286614 
L 172.754132 100.126131 
L 172.642579 100.965648 
L 172.530587 101.805165 
L 172.421451 102.644682 
L 172.318119 103.484199 
L 172.222947 104.323716 
L 172.137561 105.163233 
L 172.062825 106.00275 
z
" clip-path="url(#pb46024a032)" style="fill: #3b6ea8; fill-opacity: 0.38"/>
   </g>
   <g id="patch_2">
    <path d="M 12.751575 27.061738 
L 18.476772 27.061738 
L 18.476772 24.151543 
L 12.751575 24.151543 
L 12.751575 27.061738 
z
" clip-path="url(#pb46024a032)" style="fill: #b2182b; opacity: 0.78; stroke: #000000; stroke-width: 0.7; stroke-linejoin: miter"/>
   </g>
   <g id="line2d_1">
    <path d="M 15.614173 27.061738 
L 15.614173 31.333961 
" clip-path="url(#pb46024a032)" style="fill: none; stroke: #000000; stroke-width: 0.7; stroke-linecap: square"/>
   </g>
   <g id="line2d_2">
    <path d="M 15.614173 24.151543 
L 15.614173 20.718482 
" clip-path="url(#pb46024a032)" style="fill: none; stroke: #000000; stroke-width: 0.7; stroke-linecap: square"/>
   </g>
   <g id="line2d_3">
    <path d="M 14.182874 31.333961 
L 17.045472 31.333961 
" clip-path="url(#pb46024a032)" style="fill: none; stroke: #000000; stroke-width: 0.7; stroke-linecap: square"/>
   </g>
   <g id="line2d_4">
    <path d="M 14.182874 20.718482 
L 17.045472 20.718482 
" clip-path="url(#pb46024a032)" style="fill: none; stroke: #000000; stroke-width: 0.7; stroke-linecap: square"/>
   </g>
   <g id="patch_3">
    <path d="M 38.775197 37.415473 
L 44.500394 37.415473 
L 44.500394 29.145506 
L 38.775197 29.145506 
L 38.775197 37.415473 
z
" clip-path="url(#pb46024a032)" style="fill: #cc645a; opacity: 0.78; stroke: #000000; stroke-width: 0.7; stroke-linejoin: miter"/>
   </g>
   <g id="line2d_5">
    <path d="M 41.637795 37.415473 
L 41.637795 45.654105 
" clip-path="url(#pb46024a032)" style="fill: none; stroke: #000000; stroke-width: 0.7; stroke-linecap: square"/>
   </g>
   <g id="line2d_6">
    <path d="M 41.637795 29.145506 
L 41.637795 21.794039 
" clip-path="url(#pb46024a032)" style="fill: none; stroke: #000000; stroke-width: 0.7; stroke-linecap: square"/>
   </g>
   <g id="line2d_7">
    <path d="M 40.206496 45.654105 
L 43.069094 45.654105 
" clip-path="url(#pb46024a032)" style="fill: none; stroke: #000000; stroke-width: 0.7; stroke-linecap: square"/>
   </g>
   <g id="line2d_8">
    <path d="M 40.206496 21.794039 
L 43.069094 21.794039 
" clip-path="url(#pb46024a032)" style="fill: none; stroke: #000000; stroke-width: 0.7; stroke-linecap: square"/>
   </g>
   <g id="patch_4">
    <path d="M 64.798819 56.485085 
L 70.524016 56.485085 
L 70.524016 45.310422 
L 64.798819 45.310422 
L 64.798819 56.485085 
z
" clip-path="url(#pb46024a032)" style="fill: #deaa9a; opacity: 0.78; stroke: #000000; stroke-width: 0.7; stroke-linejoin: miter"/>
   </g>
   <g id="line2d_9">
    <path d="M 67.661417 56.485085 
L 67.661417 72.944477 
" clip-path="url(#pb46024a032)" style="fill: none; stroke: #000000; stroke-width: 0.7; stroke-linecap: square"/>
   </g>
   <g id="line2d_10">
    <path d="M 67.661417 45.310422 
L 67.661417 28.578227 
" clip-path="url(#pb46024a032)" style="fill: none; stroke: #000000; stroke-width: 0.7; stroke-linecap: square"/>
   </g>
   <g id="line2d_11">
    <path d="M 66.230118 72.944477 
L 69.092717 72.944477 
" clip-path="url(#pb46024a032)" style="fill: none; stroke: #000000; stroke-width: 0.7; stroke-linecap: square"/>
   </g>
   <g id="line2d_12">
    <path d="M 66.230118 28.578227 
L 69.092717 28.578227 
" clip-path="url(#pb46024a032)" style="fill: none; stroke: #000000; stroke-width: 0.7; stroke-linecap: square"/>
   </g>
   <g id="patch_5">
    <path d="M 90.822441 107.507114 
L 96.547638 107.507114 
L 96.547638 106.276503 
L 90.822441 106.276503 
L 90.822441 107.507114 
z
" clip-path="url(#pb46024a032)" style="fill: #e7e7e8; opacity: 0.78; stroke: #000000; stroke-width: 0.7; stroke-linejoin: miter"/>
   </g>
   <g id="line2d_13">
    <path d="M 93.685039 107.507114 
L 93.685039 109.106999 
" clip-path="url(#pb46024a032)" style="fill: none; stroke: #000000; stroke-width: 0.7; stroke-linecap: square"/>
   </g>
   <g id="line2d_14">
    <path d="M 93.685039 106.276503 
L 93.685039 104.449164 
" clip-path="url(#pb46024a032)" style="fill: none; stroke: #000000; stroke-width: 0.7; stroke-linecap: square"/>
   </g>
   <g id="line2d_15">
    <path d="M 92.25374 109.106999 
L 95.116339 109.106999 
" clip-path="url(#pb46024a032)" style="fill: none; stroke: #000000; stroke-width: 0.7; stroke-linecap: square"/>
   </g>
   <g id="line2d_16">
    <path d="M 92.25374 104.449164 
L 95.116339 104.449164 
" clip-path="url(#pb46024a032)" style="fill: none; stroke: #000000; stroke-width: 0.7; stroke-linecap: square"/>
   </g>
   <g id="patch_6">
    <path d="M 116.846063 108.654603 
L 122.57126 108.654603 
L 122.57126 106.803113 
L 116.846063 106.803113 
L 116.846063 108.654603 
z
" clip-path="url(#pb46024a032)" style="fill: #9fbccf; opacity: 0.78; stroke: #000000; stroke-width: 0.7; stroke-linejoin: miter"/>
   </g>
   <g id="line2d_17">
    <path d="M 119.708661 108.654603 
L 119.708661 110.949682 
" clip-path="url(#pb46024a032)" style="fill: none; stroke: #000000; stroke-width: 0.7; stroke-linecap: square"/>
   </g>
   <g id="line2d_18">
    <path d="M 119.708661 106.803113 
L 119.708661 104.494304 
" clip-path="url(#pb46024a032)" style="fill: none; stroke: #000000; stroke-width: 0.7; stroke-linecap: square"/>
   </g>
   <g id="line2d_19">
    <path d="M 118.277362 110.949682 
L 121.139961 110.949682 
" clip-path="url(#pb46024a032)" style="fill: none; stroke: #000000; stroke-width: 0.7; stroke-linecap: square"/>
   </g>
   <g id="line2d_20">
    <path d="M 118.277362 104.494304 
L 121.139961 104.494304 
" clip-path="url(#pb46024a032)" style="fill: none; stroke: #000000; stroke-width: 0.7; stroke-linecap: square"/>
   </g>
   <g id="patch_7">
    <path d="M 142.869685 76.28174 
L 148.594882 76.28174 
L 148.594882 43.546372 
L 142.869685 43.546372 
L 142.869685 76.28174 
z
" clip-path="url(#pb46024a032)" style="fill: #6593b9; opacity: 0.78; stroke: #000000; stroke-width: 0.7; stroke-linejoin: miter"/>
   </g>
   <g id="line2d_21">
    <path d="M 145.732283 76.28174 
L 145.732283 106.241597 
" clip-path="url(#pb46024a032)" style="fill: none; stroke: #000000; stroke-width: 0.7; stroke-linecap: square"/>
   </g>
   <g id="line2d_22">
    <path d="M 145.732283 43.546372 
L 145.732283 16.441407 
" clip-path="url(#pb46024a032)" style="fill: none; stroke: #000000; stroke-width: 0.7; stroke-linecap: square"/>
   </g>
   <g id="line2d_23">
    <path d="M 144.300984 106.241597 
L 147.163583 106.241597 
" clip-path="url(#pb46024a032)" style="fill: none; stroke: #000000; stroke-width: 0.7; stroke-linecap: square"/>
   </g>
   <g id="line2d_24">
    <path d="M 144.300984 16.441407 
L 147.163583 16.441407 
" clip-path="url(#pb46024a032)" style="fill: none; stroke: #000000; stroke-width: 0.7; stroke-linecap: square"/>
   </g>
   <g id="patch_8">
    <path d="M 168.893307 66.225871 
L 174.618504 66.225871 
L 174.618504 45.623063 
L 168.893307 45.623063 
L 168.893307 66.225871 
z
" clip-path="url(#pb46024a032)" style="fill: #3b6ea8; opacity: 0.78; stroke: #000000; stroke-width: 0.7; stroke-linejoin: miter"/>
   </g>
   <g id="line2d_25">
    <path d="M 171.755906 66.225871 
L 171.755906 96.907476 
" clip-path="url(#pb46024a032)" style="fill: none; stroke: #000000; stroke-width: 0.7; stroke-linecap: square"/>
   </g>
   <g id="line2d_26">
    <path d="M 171.755906 45.623063 
L 171.755906 22.890565 
" clip-path="url(#pb46024a032)" style="fill: none; stroke: #000000; stroke-width: 0.7; stroke-linecap: square"/>
   </g>
   <g id="line2d_27">
    <path d="M 170.324606 96.907476 
L 173.187205 96.907476 
" clip-path="url(#pb46024a032)" style="fill: none; stroke: #000000; stroke-width: 0.7; stroke-linecap: square"/>
   </g>
   <g id="line2d_28">
    <path d="M 170.324606 22.890565 
L 173.187205 22.890565 
" clip-path="url(#pb46024a032)" style="fill: none; stroke: #000000; stroke-width: 0.7; stroke-linecap: square"/>
   </g>
   <g id="line2d_29">
    <path d="M 12.751575 24.665279 
L 18.476772 24.665279 
" clip-path="url(#pb46024a032)" style="fill: none; stroke: #000000"/>
   </g>
   <g id="line2d_30">
    <path d="M 38.775197 33.228023 
L 44.500394 33.228023 
" clip-path="url(#pb46024a032)" style="fill: none; stroke: #000000"/>
   </g>
   <g id="line2d_31">
    <path d="M 64.798819 51.359644 
L 70.524016 51.359644 
" clip-path="url(#pb46024a032)" style="fill: none; stroke: #000000"/>
   </g>
   <g id="line2d_32">
    <path d="M 90.822441 106.997371 
L 96.547638 106.997371 
" clip-path="url(#pb46024a032)" style="fill: none; stroke: #000000"/>
   </g>
   <g id="line2d_33">
    <path d="M 116.846063 107.698252 
L 122.57126 107.698252 
" clip-path="url(#pb46024a032)" style="fill: none; stroke: #000000"/>
   </g>
   <g id="line2d_34">
    <path d="M 142.869685 60.522422 
L 148.594882 60.522422 
" clip-path="url(#pb46024a032)" style="fill: none; stroke: #000000"/>
   </g>
   <g id="line2d_35">
    <path d="M 168.893307 55.99467 
L 174.618504 55.99467 
" clip-path="url(#pb46024a032)" style="fill: none; stroke: #000000"/>
   </g>
   <g id="PathCollection_1">
    <defs>
     <path id="mddca84ef07" d="M 0 1.322876 
C 0.350831 1.322876 0.68734 1.183489 0.935414 0.935414 
C 1.183489 0.68734 1.322876 0.350831 1.322876 0 
C 1.322876 -0.350831 1.183489 -0.68734 0.935414 -0.935414 
C 0.68734 -1.183489 0.350831 -1.322876 0 -1.322876 
C -0.350831 -1.322876 -0.68734 -1.183489 -0.935414 -0.935414 
C -1.183489 -0.68734 -1.322876 -0.350831 -1.322876 0 
C -1.322876 0.350831 -1.183489 0.68734 -0.935414 0.935414 
C -0.68734 1.183489 -0.350831 1.322876 0 1.322876 
z
"/>
    </defs>
    <g clip-path="url(#pb46024a032)">
     <use xlink:href="#mddca84ef07" x="14.695071" y="24.575631" style="fill-opacity: 0.25"/>
     <use xlink:href="#mddca84ef07" x="14.172066" y="27.049739" style="fill-opacity: 0.25"/>
     <use xlink:href="#mddca84ef07" x="16.31888" y="24.155147" style="fill-opacity: 0.25"/>
     <use xlink:href="#mddca84ef07" x="15.124019" y="24.365039" style="fill-opacity: 0.25"/>
     <use xlink:href="#mddca84ef07" x="14.387583" y="31.129067" style="fill-opacity: 0.25"/>
     <use xlink:href="#mddca84ef07" x="14.812107" y="26.148344" style="fill-opacity: 0.25"/>
     <use xlink:href="#mddca84ef07" x="14.584436" y="24.394715" style="fill-opacity: 0.25"/>
     <use xlink:href="#mddca84ef07" x="15.736615" y="21.794032" style="fill-opacity: 0.25"/>
     <use xlink:href="#mddca84ef07" x="16.144386" y="26.165711" style="fill-opacity: 0.25"/>
     <use xlink:href="#mddca84ef07" x="16.422758" y="24.565582" style="fill-opacity: 0.25"/>
     <use xlink:href="#mddca84ef07" x="16.428755" y="24.294746" style="fill-opacity: 0.25"/>
     <use xlink:href="#mddca84ef07" x="16.301845" y="22.545739" style="fill-opacity: 0.25"/>
     <use xlink:href="#mddca84ef07" x="15.425481" y="22.38217" style="fill-opacity: 0.25"/>
     <use xlink:href="#mddca84ef07" x="15.046293" y="25.288498" style="fill-opacity: 0.25"/>
     <use xlink:href="#mddca84ef07" x="14.240507" y="24.925059" style="fill-opacity: 0.25"/>
     <use xlink:href="#mddca84ef07" x="16.615761" y="26.422598" style="fill-opacity: 0.25"/>
     <use xlink:href="#mddca84ef07" x="15.45229" y="31.333961" style="fill-opacity: 0.25"/>
     <use xlink:href="#mddca84ef07" x="15.240385" y="24.395804" style="fill-opacity: 0.25"/>
     <use xlink:href="#mddca84ef07" x="16.68869" y="24.000449" style="fill-opacity: 0.25"/>
     <use xlink:href="#mddca84ef07" x="14.796061" y="26.170572" style="fill-opacity: 0.25"/>
     <use xlink:href="#mddca84ef07" x="16.374527" y="23.631325" style="fill-opacity: 0.25"/>
     <use xlink:href="#mddca84ef07" x="15.884289" y="31.770355" style="fill-opacity: 0.25"/>
     <use xlink:href="#mddca84ef07" x="14.66889" y="24.935598" style="fill-opacity: 0.25"/>
     <use xlink:href="#mddca84ef07" x="15.545129" y="24.147938" style="fill-opacity: 0.25"/>
     <use xlink:href="#mddca84ef07" x="16.500374" y="24.506148" style="fill-opacity: 0.25"/>
    </g>
   </g>
   <g id="PathCollection_2">
    <g clip-path="url(#pb46024a032)">
     <use xlink:href="#mddca84ef07" x="42.362445" y="37.929383" style="fill-opacity: 0.25"/>
     <use xlink:href="#mddca84ef07" x="41.071045" y="33.564649" style="fill-opacity: 0.25"/>
     <use xlink:href="#mddca84ef07" x="41.314007" y="29.083919" style="fill-opacity: 0.25"/>
     <use xlink:href="#mddca84ef07" x="42.504912" y="39.21185" style="fill-opacity: 0.25"/>
     <use xlink:href="#mddca84ef07" x="42.960817" y="37.157443" style="fill-opacity: 0.25"/>
     <use xlink:href="#mddca84ef07" x="41.967527" y="30.740738" style="fill-opacity: 0.25"/>
     <use xlink:href="#mddca84ef07" x="42.167272" y="29.836715" style="fill-opacity: 0.25"/>
     <use xlink:href="#mddca84ef07" x="41.064247" y="37.493418" style="fill-opacity: 0.25"/>
     <use xlink:href="#mddca84ef07" x="42.436367" y="33.568216" style="fill-opacity: 0.25"/>
     <use xlink:href="#mddca84ef07" x="42.140332" y="33.154343" style="fill-opacity: 0.25"/>
     <use xlink:href="#mddca84ef07" x="40.990992" y="34.858634" style="fill-opacity: 0.25"/>
     <use xlink:href="#mddca84ef07" x="40.009536" y="24.575631" style="fill-opacity: 0.25"/>
     <use xlink:href="#mddca84ef07" x="40.526067" y="38.545379" style="fill-opacity: 0.25"/>
     <use xlink:href="#mddca84ef07" x="41.028268" y="31.85485" style="fill-opacity: 0.25"/>
     <use xlink:href="#mddca84ef07" x="42.696119" y="27.520656" style="fill-opacity: 0.25"/>
     <use xlink:href="#mddca84ef07" x="43.052182" y="24.319268" style="fill-opacity: 0.25"/>
     <use xlink:href="#mddca84ef07" x="41.237471" y="37.096279" style="fill-opacity: 0.25"/>
     <use xlink:href="#mddca84ef07" x="41.266255" y="24.155141" style="fill-opacity: 0.25"/>
     <use xlink:href="#mddca84ef07" x="41.876089" y="29.122555" style="fill-opacity: 0.25"/>
     <use xlink:href="#mddca84ef07" x="41.648859" y="35.35453" style="fill-opacity: 0.25"/>
     <use xlink:href="#mddca84ef07" x="42.485715" y="25.791161" style="fill-opacity: 0.25"/>
     <use xlink:href="#mddca84ef07" x="41.161262" y="42.084982" style="fill-opacity: 0.25"/>
     <use xlink:href="#mddca84ef07" x="42.5023" y="27.966445" style="fill-opacity: 0.25"/>
     <use xlink:href="#mddca84ef07" x="41.419903" y="30.966301" style="fill-opacity: 0.25"/>
     <use xlink:href="#mddca84ef07" x="42.415618" y="29.673255" style="fill-opacity: 0.25"/>
    </g>
   </g>
   <g id="PathCollection_3">
    <g clip-path="url(#pb46024a032)">
     <use xlink:href="#mddca84ef07" x="68.932687" y="62.021959" style="fill-opacity: 0.25"/>
     <use xlink:href="#mddca84ef07" x="66.468554" y="91.37114" style="fill-opacity: 0.25"/>
     <use xlink:href="#mddca84ef07" x="65.918297" y="60.783316" style="fill-opacity: 0.25"/>
     <use xlink:href="#mddca84ef07" x="68.518765" y="55.979257" style="fill-opacity: 0.25"/>
     <use xlink:href="#mddca84ef07" x="67.686639" y="54.139152" style="fill-opacity: 0.25"/>
     <use xlink:href="#mddca84ef07" x="67.777425" y="60.718626" style="fill-opacity: 0.25"/>
     <use xlink:href="#mddca84ef07" x="67.332224" y="60.214462" style="fill-opacity: 0.25"/>
     <use xlink:href="#mddca84ef07" x="67.444191" y="40.402742" style="fill-opacity: 0.25"/>
     <use xlink:href="#mddca84ef07" x="67.244159" y="55.222403" style="fill-opacity: 0.25"/>
     <use xlink:href="#mddca84ef07" x="67.091246" y="50.884894" style="fill-opacity: 0.25"/>
     <use xlink:href="#mddca84ef07" x="67.313563" y="54.571107" style="fill-opacity: 0.25"/>
     <use xlink:href="#mddca84ef07" x="67.284835" y="46.182468" style="fill-opacity: 0.25"/>
     <use xlink:href="#mddca84ef07" x="66.906721" y="62.694241" style="fill-opacity: 0.25"/>
     <use xlink:href="#mddca84ef07" x="67.164863" y="42.643321" style="fill-opacity: 0.25"/>
     <use xlink:href="#mddca84ef07" x="65.381837" y="48.546313" style="fill-opacity: 0.25"/>
     <use xlink:href="#mddca84ef07" x="68.285008" y="46.879738" style="fill-opacity: 0.25"/>
     <use xlink:href="#mddca84ef07" x="68.01687" y="29.694823" style="fill-opacity: 0.25"/>
     <use xlink:href="#mddca84ef07" x="67.58408" y="56.112558" style="fill-opacity: 0.25"/>
     <use xlink:href="#mddca84ef07" x="67.877579" y="53.786973" style="fill-opacity: 0.25"/>
     <use xlink:href="#mddca84ef07" x="67.910599" y="56.284542" style="fill-opacity: 0.25"/>
     <use xlink:href="#mddca84ef07" x="67.001977" y="54.757157" style="fill-opacity: 0.25"/>
     <use xlink:href="#mddca84ef07" x="67.176329" y="44.571834" style="fill-opacity: 0.25"/>
     <use xlink:href="#mddca84ef07" x="68.142622" y="63.050773" style="fill-opacity: 0.25"/>
     <use xlink:href="#mddca84ef07" x="67.850417" y="62.516824" style="fill-opacity: 0.25"/>
     <use xlink:href="#mddca84ef07" x="69.522528" y="84.615853" style="fill-opacity: 0.25"/>
    </g>
   </g>
   <g id="PathCollection_4">
    <g clip-path="url(#pb46024a032)">
     <use xlink:href="#mddca84ef07" x="95.160225" y="103.760251" style="fill-opacity: 0.25"/>
     <use xlink:href="#mddca84ef07" x="95.091835" y="106.714981" style="fill-opacity: 0.25"/>
     <use xlink:href="#mddca84ef07" x="94.545947" y="106.070157" style="fill-opacity: 0.25"/>
     <use xlink:href="#mddca84ef07" x="94.310382" y="107.38665" style="fill-opacity: 0.25"/>
     <use xlink:href="#mddca84ef07" x="91.669173" y="106.208522" style="fill-opacity: 0.25"/>
     <use xlink:href="#mddca84ef07" x="94.775203" y="107.893037" style="fill-opacity: 0.25"/>
     <use xlink:href="#mddca84ef07" x="93.760711" y="107.297162" style="fill-opacity: 0.25"/>
     <use xlink:href="#mddca84ef07" x="93.969665" y="108.04918" style="fill-opacity: 0.25"/>
     <use xlink:href="#mddca84ef07" x="93.975897" y="106.18715" style="fill-opacity: 0.25"/>
     <use xlink:href="#mddca84ef07" x="94.389867" y="106.040009" style="fill-opacity: 0.25"/>
     <use xlink:href="#mddca84ef07" x="94.707146" y="105.519954" style="fill-opacity: 0.25"/>
     <use xlink:href="#mddca84ef07" x="94.262723" y="106.393265" style="fill-opacity: 0.25"/>
     <use xlink:href="#mddca84ef07" x="94.117942" y="107.819554" style="fill-opacity: 0.25"/>
     <use xlink:href="#mddca84ef07" x="93.895907" y="105.724964" style="fill-opacity: 0.25"/>
     <use xlink:href="#mddca84ef07" x="90.632303" y="106.527444" style="fill-opacity: 0.25"/>
     <use xlink:href="#mddca84ef07" x="93.423094" y="106.726837" style="fill-opacity: 0.25"/>
     <use xlink:href="#mddca84ef07" x="92.827414" y="105.429963" style="fill-opacity: 0.25"/>
     <use xlink:href="#mddca84ef07" x="94.787813" y="107.535349" style="fill-opacity: 0.25"/>
     <use xlink:href="#mddca84ef07" x="94.248875" y="106.669653" style="fill-opacity: 0.25"/>
     <use xlink:href="#mddca84ef07" x="93.267756" y="107.0496" style="fill-opacity: 0.25"/>
     <use xlink:href="#mddca84ef07" x="93.359221" y="106.081571" style="fill-opacity: 0.25"/>
     <use xlink:href="#mddca84ef07" x="93.326191" y="107.278417" style="fill-opacity: 0.25"/>
     <use xlink:href="#mddca84ef07" x="93.309937" y="105.645889" style="fill-opacity: 0.25"/>
     <use xlink:href="#mddca84ef07" x="92.369298" y="106.968455" style="fill-opacity: 0.25"/>
     <use xlink:href="#mddca84ef07" x="92.171902" y="107.198084" style="fill-opacity: 0.25"/>
    </g>
   </g>
   <g id="PathCollection_5">
    <g clip-path="url(#pb46024a032)">
     <use xlink:href="#mddca84ef07" x="119.155475" y="107.390742" style="fill-opacity: 0.25"/>
     <use xlink:href="#mddca84ef07" x="121.192693" y="110.550655" style="fill-opacity: 0.25"/>
     <use xlink:href="#mddca84ef07" x="119.949024" y="105.990638" style="fill-opacity: 0.25"/>
     <use xlink:href="#mddca84ef07" x="119.170838" y="106.863272" style="fill-opacity: 0.25"/>
     <use xlink:href="#mddca84ef07" x="120.049708" y="107.329277" style="fill-opacity: 0.25"/>
     <use xlink:href="#mddca84ef07" x="119.740675" y="107.389119" style="fill-opacity: 0.25"/>
     <use xlink:href="#mddca84ef07" x="119.260559" y="107.761594" style="fill-opacity: 0.25"/>
     <use xlink:href="#mddca84ef07" x="118.436574" y="106.954242" style="fill-opacity: 0.25"/>
     <use xlink:href="#mddca84ef07" x="121.018924" y="107.199444" style="fill-opacity: 0.25"/>
     <use xlink:href="#mddca84ef07" x="119.899769" y="108.476754" style="fill-opacity: 0.25"/>
     <use xlink:href="#mddca84ef07" x="121.688561" y="107.202219" style="fill-opacity: 0.25"/>
     <use xlink:href="#mddca84ef07" x="120.565132" y="109.427415" style="fill-opacity: 0.25"/>
     <use xlink:href="#mddca84ef07" x="120.210818" y="106.570091" style="fill-opacity: 0.25"/>
     <use xlink:href="#mddca84ef07" x="119.312266" y="108.386693" style="fill-opacity: 0.25"/>
     <use xlink:href="#mddca84ef07" x="118.710991" y="108.697437" style="fill-opacity: 0.25"/>
     <use xlink:href="#mddca84ef07" x="119.510346" y="107.981456" style="fill-opacity: 0.25"/>
     <use xlink:href="#mddca84ef07" x="118.684626" y="107.298305" style="fill-opacity: 0.25"/>
     <use xlink:href="#mddca84ef07" x="120.300872" y="106.654565" style="fill-opacity: 0.25"/>
     <use xlink:href="#mddca84ef07" x="121.195725" y="106.792618" style="fill-opacity: 0.25"/>
     <use xlink:href="#mddca84ef07" x="119.471016" y="105.151838" style="fill-opacity: 0.25"/>
     <use xlink:href="#mddca84ef07" x="120.568929" y="108.464354" style="fill-opacity: 0.25"/>
     <use xlink:href="#mddca84ef07" x="119.080893" y="93.942473" style="fill-opacity: 0.25"/>
     <use xlink:href="#mddca84ef07" x="119.433167" y="106.550238" style="fill-opacity: 0.25"/>
     <use xlink:href="#mddca84ef07" x="118.96637" y="107.483189" style="fill-opacity: 0.25"/>
     <use xlink:href="#mddca84ef07" x="117.765747" y="107.110195" style="fill-opacity: 0.25"/>
    </g>
   </g>
   <g id="PathCollection_6">
    <g clip-path="url(#pb46024a032)">
     <use xlink:href="#mddca84ef07" x="145.699008" y="81.554499" style="fill-opacity: 0.25"/>
     <use xlink:href="#mddca84ef07" x="147.580013" y="76.294722" style="fill-opacity: 0.25"/>
     <use xlink:href="#mddca84ef07" x="146.60529" y="31.187208" style="fill-opacity: 0.25"/>
     <use xlink:href="#mddca84ef07" x="144.733651" y="62.321413" style="fill-opacity: 0.25"/>
     <use xlink:href="#mddca84ef07" x="146.495772" y="28.009362" style="fill-opacity: 0.25"/>
     <use xlink:href="#mddca84ef07" x="146.865806" y="81.317036" style="fill-opacity: 0.25"/>
     <use xlink:href="#mddca84ef07" x="145.852532" y="92.519462" style="fill-opacity: 0.25"/>
     <use xlink:href="#mddca84ef07" x="146.061495" y="52.006174" style="fill-opacity: 0.25"/>
     <use xlink:href="#mddca84ef07" x="146.040459" y="68.64349" style="fill-opacity: 0.25"/>
     <use xlink:href="#mddca84ef07" x="143.832467" y="74.135873" style="fill-opacity: 0.25"/>
     <use xlink:href="#mddca84ef07" x="145.562078" y="47.264541" style="fill-opacity: 0.25"/>
     <use xlink:href="#mddca84ef07" x="145.514675" y="68.661306" style="fill-opacity: 0.25"/>
     <use xlink:href="#mddca84ef07" x="147.034908" y="56.117691" style="fill-opacity: 0.25"/>
     <use xlink:href="#mddca84ef07" x="146.036252" y="70.873155" style="fill-opacity: 0.25"/>
     <use xlink:href="#mddca84ef07" x="145.461211" y="32.726058" style="fill-opacity: 0.25"/>
     <use xlink:href="#mddca84ef07" x="145.650195" y="37.322163" style="fill-opacity: 0.25"/>
     <use xlink:href="#mddca84ef07" x="146.66441" y="37.944116" style="fill-opacity: 0.25"/>
     <use xlink:href="#mddca84ef07" x="145.564159" y="33.592664" style="fill-opacity: 0.25"/>
     <use xlink:href="#mddca84ef07" x="145.096348" y="83.946778" style="fill-opacity: 0.25"/>
     <use xlink:href="#mddca84ef07" x="145.481167" y="52.738893" style="fill-opacity: 0.25"/>
     <use xlink:href="#mddca84ef07" x="146.589095" y="37.755751" style="fill-opacity: 0.25"/>
     <use xlink:href="#mddca84ef07" x="146.184204" y="61.688111" style="fill-opacity: 0.25"/>
     <use xlink:href="#mddca84ef07" x="145.772604" y="72.32667" style="fill-opacity: 0.25"/>
     <use xlink:href="#mddca84ef07" x="145.906743" y="38.981746" style="fill-opacity: 0.25"/>
     <use xlink:href="#mddca84ef07" x="145.222455" y="55.993097" style="fill-opacity: 0.25"/>
    </g>
   </g>
   <g id="PathCollection_7">
    <g clip-path="url(#pb46024a032)">
     <use xlink:href="#mddca84ef07" x="170.726486" y="61.732704" style="fill-opacity: 0.25"/>
     <use xlink:href="#mddca84ef07" x="173.952525" y="70.349575" style="fill-opacity: 0.25"/>
     <use xlink:href="#mddca84ef07" x="173.137078" y="91.567361" style="fill-opacity: 0.25"/>
     <use xlink:href="#mddca84ef07" x="172.304331" y="53.298035" style="fill-opacity: 0.25"/>
     <use xlink:href="#mddca84ef07" x="171.821519" y="44.450815" style="fill-opacity: 0.25"/>
     <use xlink:href="#mddca84ef07" x="171.56262" y="69.49587" style="fill-opacity: 0.25"/>
     <use xlink:href="#mddca84ef07" x="170.888873" y="71.641086" style="fill-opacity: 0.25"/>
     <use xlink:href="#mddca84ef07" x="171.826477" y="64.202689" style="fill-opacity: 0.25"/>
     <use xlink:href="#mddca84ef07" x="171.990673" y="34.927899" style="fill-opacity: 0.25"/>
     <use xlink:href="#mddca84ef07" x="170.624877" y="76.779664" style="fill-opacity: 0.25"/>
     <use xlink:href="#mddca84ef07" x="172.060282" y="30.733222" style="fill-opacity: 0.25"/>
     <use xlink:href="#mddca84ef07" x="171.614491" y="56.711704" style="fill-opacity: 0.25"/>
     <use xlink:href="#mddca84ef07" x="170.018223" y="44.05098" style="fill-opacity: 0.25"/>
     <use xlink:href="#mddca84ef07" x="170.972244" y="36.776235" style="fill-opacity: 0.25"/>
     <use xlink:href="#mddca84ef07" x="171.379183" y="47.926709" style="fill-opacity: 0.25"/>
     <use xlink:href="#mddca84ef07" x="173.475262" y="62.021125" style="fill-opacity: 0.25"/>
     <use xlink:href="#mddca84ef07" x="172.262829" y="62.561552" style="fill-opacity: 0.25"/>
     <use xlink:href="#mddca84ef07" x="170.539513" y="67.223678" style="fill-opacity: 0.25"/>
     <use xlink:href="#mddca84ef07" x="172.1986" y="44.821532" style="fill-opacity: 0.25"/>
     <use xlink:href="#mddca84ef07" x="170.34658" y="54.13216" style="fill-opacity: 0.25"/>
     <use xlink:href="#mddca84ef07" x="172.74205" y="43.715631" style="fill-opacity: 0.25"/>
     <use xlink:href="#mddca84ef07" x="171.326793" y="37.124056" style="fill-opacity: 0.25"/>
     <use xlink:href="#mddca84ef07" x="171.670619" y="73.704701" style="fill-opacity: 0.25"/>
     <use xlink:href="#mddca84ef07" x="172.963477" y="80.020654" style="fill-opacity: 0.25"/>
     <use xlink:href="#mddca84ef07" x="170.583522" y="55.484893" style="fill-opacity: 0.25"/>
    </g>
   </g>
  </g>
 </g>
 <defs>
  <clipPath id="pb46024a032">
   <rect x="0" y="-0" width="187.370079" height="116.503937"/>
  </clipPath>
 </defs>
</svg>
