<?xml version="1.0" encoding="utf-8" standalone="no"?>
<!DOCTYPE svg PUBLIC "-//W3C//DTD SVG 1.1//EN"
  "http://www.w3.org/Graphics/SVG/1.1/DTD/svg11.dtd">
<svg xmlns:xlink="http://www.w3.org/1999/xlink" width="178.582677pt" height="102.047244pt" viewBox="0 0 178.582677 102.047244" xmlns="http://www.w3.org/2000/svg" version="1.1">
 <metadata>
  <rdf:RDF xmlns:dc="http://purl.org/dc/elements/1.1/" xmlns:cc="http://creativecommons.org/ns#" xmlns:rdf="http://www.w3.org/1999/02/22-rdf-syntax-ns#">
   <cc:Work>
    <dc:type rdf:resource="http://purl.org/dc/dcmitype/StillImage"/>
    <dc:date>2026-07-04T17:10:54.820944</dc:date>
    <dc:format>image/svg+xml</dc:format>
    <dc:creator>
     <cc:Agent>
      <dc:title>Matplotlib v3.9.4, https://matplotlib.org/</dc:title>
     </cc:Agent>
    </dc:creator>
   </cc:Work>
  </rdf:RDF>
 </metadata>
 <defs>
  <style type="text/css">*{stroke-linejoin: round; stroke-linecap: butt}</style>
 </defs>
 <g id="figure_1">
  <g id="patch_1">
   <path d="M 0 102.047244 
L 178.582677 102.047244 
L 178.582677 0 
L 0 0 
L 0 102.047244 
z
" style="fill: none; opacity: 0"/>
  </g>
  <g id="axes_1">
   <g id="patch_2">
    <path d="M 8.117394 102.047244 
L 19.521998 102.047244 
L 19.521998 82.422774 
L 8.117394 82.422774 
z
" clip-path="url(#pb693d3bd68)" style="fill: #3b6ea8; stroke: #ffffff; stroke-width: 0.35; stroke-linejoin: miter"/>
   </g>
   <g id="patch_3">
    <path d="M 24.88887 102.047244 
L 36.293474 102.047244 
L 36.293474 96.172184 
L 24.88887 96.172184 
z
" clip-path="url(#pb693d3bd68)" style="fill: #3b6ea8; stroke: #ffffff; stroke-width: 0.35; stroke-linejoin: miter"/>
   </g>
   <g id="patch_4">
    <path d="M 41.660347 102.047244 
L 53.06495 102.047244 
L 53.06495 99.016138 
L 41.660347 99.016138 
z
" clip-path="url(#pb693d3bd68)" style="fill: #3b6ea8; stroke: #ffffff; stroke-width: 0.35; stroke-linejoin: miter"/>
   </g>
   <g id="patch_5">
    <path d="M 58.431823 102.047244 
L 69.836426 102.047244 
L 69.836426 97.157809 
L 58.431823 97.157809 
z
" clip-path="url(#pb693d3bd68)" style="fill: #3b6ea8; stroke: #ffffff; stroke-width: 0.35; stroke-linejoin: miter"/>
   </g>
   <g id="patch_6">
    <path d="M 75.203299 102.047244 
L 86.607902 102.047244 
L 86.607902 95.463551 
L 75.203299 95.463551 
z
" clip-path="url(#pb693d3bd68)" style="fill: #3b6ea8; stroke: #ffffff; stroke-width: 0.35; stroke-linejoin: miter"/>
   </g>
   <g id="patch_7">
    <path d="M 91.974775 102.047244 
L 103.379378 102.047244 
L 103.379378 94.033063 
L 91.974775 94.033063 
z
" clip-path="url(#pb693d3bd68)" style="fill: #3b6ea8; stroke: #ffffff; stroke-width: 0.35; stroke-linejoin: miter"/>
   </g>
   <g id="patch_8">
    <path d="M 108.746251 102.047244 
L 120.150855 102.047244 
L 120.150855 102.047244 
L 108.746251 102.047244 
z
" clip-path="url(#pb693d3bd68)" style="fill: #3b6ea8; stroke: #ffffff; stroke-width: 0.35; stroke-linejoin: miter"/>
   </g>
   <g id="patch_9">
    <path d="M 125.517727 102.047244 
L 136.922331 102.047244 
L 136.922331 102.047244 
L 125.517727 102.047244 
z
" clip-path="url(#pb693d3bd68)" style="fill: #3b6ea8; stroke: #ffffff; stroke-width: 0.35; stroke-linejoin: miter"/>
   </g>
   <g id="patch_10">
    <path d="M 142.289203 102.047244 
L 153.693807 102.047244 
L 153.693807 102.047244 
L 142.289203 102.047244 
z
" clip-path="url(#pb693d3bd68)" style="fill: #3b6ea8; stroke: #ffffff; stroke-width: 0.35; stroke-linejoin: miter"/>
   </g>
   <g id="patch_11">
    <path d="M 159.060679 102.047244 
L 170.465283 102.047244 
L 170.465283 102.047244 
L 159.060679 102.047244 
z
" clip-path="url(#pb693d3bd68)" style="fill: #3b6ea8; stroke: #ffffff; stroke-width: 0.35; stroke-linejoin: miter"/>
   </g>
   <g id="patch_12">
    <path d="M 8.117394 82.422774 
L 19.521998 82.422774 
L 19.521998 74.572986 
L 8.117394 74.572986 
z
" clip-path="url(#pb693d3bd68)" style="fill: #6593b9; stroke: #ffffff; stroke-width: 0.35; stroke-linejoin: miter"/>
   </g>
   <g id="patch_13">
    <path d="M 24.88887 96.172184 
L 36.293474 96.172184 
L 36.293474 77.525253 
L 24.88887 77.525253 
z
" clip-path="url(#pb693d3bd68)" style="fill: #6593b9; stroke: #ffffff; stroke-width: 0.35; stroke-linejoin: miter"/>
   </g>
   <g id="patch_14">
    <path d="M 41.660347 99.016138 
L 53.06495 99.016138 
L 53.06495 59.359164 
L 41.660347 59.359164 
z
" clip-path="url(#pb693d3bd68)" style="fill: #6593b9; stroke: #ffffff; stroke-width: 0.35; stroke-linejoin: miter"/>
   </g>
   <g id="patch_15">
    <path d="M 58.431823 97.157809 
L 69.836426 97.157809 
L 69.836426 85.32853 
L 58.431823 85.32853 
z
" clip-path="url(#pb693d3bd68)" style="fill: #6593b9; stroke: #ffffff; stroke-width: 0.35; stroke-linejoin: miter"/>
   </g>
   <g id="patch_16">
    <path d="M 75.203299 95.463551 
L 86.607902 95.463551 
L 86.607902 94.266516 
L 75.203299 94.266516 
z
" clip-path="url(#pb693d3bd68)" style="fill: #6593b9; stroke: #ffffff; stroke-width: 0.35; stroke-linejoin: miter"/>
   </g>
   <g id="patch_17">
    <path d="M 91.974775 94.033063 
L 103.379378 94.033063 
L 103.379378 75.689492 
L 91.974775 75.689492 
z
" clip-path="url(#pb693d3bd68)" style="fill: #6593b9; stroke: #ffffff; stroke-width: 0.35; stroke-linejoin: miter"/>
   </g>
   <g id="patch_18">
    <path d="M 108.746251 102.047244 
L 120.150855 102.047244 
L 120.150855 75.056943 
L 108.746251 75.056943 
z
" clip-path="url(#pb693d3bd68)" style="fill: #6593b9; stroke: #ffffff; stroke-width: 0.35; stroke-linejoin: miter"/>
   </g>
   <g id="patch_19">
    <path d="M 125.517727 102.047244 
L 136.922331 102.047244 
L 136.922331 101.388875 
L 125.517727 101.388875 
z
" clip-path="url(#pb693d3bd68)" style="fill: #6593b9; stroke: #ffffff; stroke-width: 0.35; stroke-linejoin: miter"/>
   </g>
   <g id="patch_20">
    <path d="M 142.289203 102.047244 
L 153.693807 102.047244 
L 153.693807 101.695559 
L 142.289203 101.695559 
z
" clip-path="url(#pb693d3bd68)" style="fill: #6593b9; stroke: #ffffff; stroke-width: 0.35; stroke-linejoin: miter"/>
   </g>
   <g id="patch_21">
    <path d="M 159.060679 102.047244 
L 170.465283 102.047244 
L 170.465283 102.047244 
L 159.060679 102.047244 
z
" clip-path="url(#pb693d3bd68)" style="fill: #6593b9; stroke: #ffffff; stroke-width: 0.35; stroke-linejoin: miter"/>
   </g>
   <g id="patch_22">
    <path d="M 8.117394 74.572986 
L 19.521998 74.572986 
L 19.521998 64.106602 
L 8.117394 64.106602 
z
" clip-path="url(#pb693d3bd68)" style="fill: #9fbccf; stroke: #ffffff; stroke-width: 0.35; stroke-linejoin: miter"/>
   </g>
   <g id="patch_23">
    <path d="M 24.88887 77.525253 
L 36.293474 77.525253 
L 36.293474 73.055098 
L 24.88887 73.055098 
z
" clip-path="url(#pb693d3bd68)" style="fill: #9fbccf; stroke: #ffffff; stroke-width: 0.35; stroke-linejoin: miter"/>
   </g>
   <g id="patch_24">
    <path d="M 41.660347 59.359164 
L 53.06495 59.359164 
L 53.06495 59.359164 
L 41.660347 59.359164 
z
" clip-path="url(#pb693d3bd68)" style="fill: #9fbccf; stroke: #ffffff; stroke-width: 0.35; stroke-linejoin: miter"/>
   </g>
   <g id="patch_25">
    <path d="M 58.431823 85.32853 
L 69.836426 85.32853 
L 69.836426 81.543161 
L 58.431823 81.543161 
z
" clip-path="url(#pb693d3bd68)" style="fill: #9fbccf; stroke: #ffffff; stroke-width: 0.35; stroke-linejoin: miter"/>
   </g>
   <g id="patch_26">
    <path d="M 75.203299 94.266516 
L 86.607902 94.266516 
L 86.607902 91.273928 
L 75.203299 91.273928 
z
" clip-path="url(#pb693d3bd68)" style="fill: #9fbccf; stroke: #ffffff; stroke-width: 0.35; stroke-linejoin: miter"/>
   </g>
   <g id="patch_27">
    <path d="M 91.974775 75.689492 
L 103.379378 75.689492 
L 103.379378 66.606753 
L 91.974775 66.606753 
z
" clip-path="url(#pb693d3bd68)" style="fill: #9fbccf; stroke: #ffffff; stroke-width: 0.35; stroke-linejoin: miter"/>
   </g>
   <g id="patch_28">
    <path d="M 108.746251 75.056943 
L 120.150855 75.056943 
L 120.150855 75.056943 
L 108.746251 75.056943 
z
" clip-path="url(#pb693d3bd68)" style="fill: #9fbccf; stroke: #ffffff; stroke-width: 0.35; stroke-linejoin: miter"/>
   </g>
   <g id="patch_29">
    <path d="M 125.517727 101.388875 
L 136.922331 101.388875 
L 136.922331 16.459233 
L 125.517727 16.459233 
z
" clip-path="url(#pb693d3bd68)" style="fill: #9fbccf; stroke: #ffffff; stroke-width: 0.35; stroke-linejoin: miter"/>
   </g>
   <g id="patch_30">
    <path d="M 142.289203 101.695559 
L 153.693807 101.695559 
L 153.693807 101.343874 
L 142.289203 101.343874 
z
" clip-path="url(#pb693d3bd68)" style="fill: #9fbccf; stroke: #ffffff; stroke-width: 0.35; stroke-linejoin: miter"/>
   </g>
   <g id="patch_31">
    <path d="M 159.060679 102.047244 
L 170.465283 102.047244 
L 170.465283 102.047244 
L 159.060679 102.047244 
z
" clip-path="url(#pb693d3bd68)" style="fill: #9fbccf; stroke: #ffffff; stroke-width: 0.35; stroke-linejoin: miter"/>
   </g>
   <g id="patch_32">
    <path d="M 8.117394 64.106602 
L 19.521998 64.106602 
L 19.521998 64.106602 
L 8.117394 64.106602 
z
" clip-path="url(#pb693d3bd68)" style="fill: #e8e7e7; stroke: #ffffff; stroke-width: 0.35; stroke-linejoin: miter"/>
   </g>
   <g id="patch_33">
    <path d="M 24.88887 73.055098 
L 36.293474 73.055098 
L 36.293474 66.158288 
L 24.88887 66.158288 
z
" clip-path="url(#pb693d3bd68)" style="fill: #e8e7e7; stroke: #ffffff; stroke-width: 0.35; stroke-linejoin: miter"/>
   </g>
   <g id="patch_34">
    <path d="M 41.660347 59.359164 
L 53.06495 59.359164 
L 53.06495 59.359164 
L 41.660347 59.359164 
z
" clip-path="url(#pb693d3bd68)" style="fill: #e8e7e7; stroke: #ffffff; stroke-width: 0.35; stroke-linejoin: miter"/>
   </g>
   <g id="patch_35">
    <path d="M 58.431823 81.543161 
L 69.836426 81.543161 
L 69.836426 81.06999 
L 58.431823 81.06999 
z
" clip-path="url(#pb693d3bd68)" style="fill: #e8e7e7; stroke: #ffffff; stroke-width: 0.35; stroke-linejoin: miter"/>
   </g>
   <g id="patch_36">
    <path d="M 75.203299 91.273928 
L 86.607902 91.273928 
L 86.607902 91.273928 
L 75.203299 91.273928 
z
" clip-path="url(#pb693d3bd68)" style="fill: #e8e7e7; stroke: #ffffff; stroke-width: 0.35; stroke-linejoin: miter"/>
   </g>
   <g id="patch_37">
    <path d="M 91.974775 66.606753 
L 103.379378 66.606753 
L 103.379378 65.716288 
L 91.974775 65.716288 
z
" clip-path="url(#pb693d3bd68)" style="fill: #e8e7e7; stroke: #ffffff; stroke-width: 0.35; stroke-linejoin: miter"/>
   </g>
   <g id="patch_38">
    <path d="M 108.746251 75.056943 
L 120.150855 75.056943 
L 120.150855 75.056943 
L 108.746251 75.056943 
z
" clip-path="url(#pb693d3bd68)" style="fill: #e8e7e7; stroke: #ffffff; stroke-width: 0.35; stroke-linejoin: miter"/>
   </g>
   <g id="patch_39">
    <path d="M 125.517727 16.459233 
L 136.922331 16.459233 
L 136.922331 15.800864 
L 125.517727 15.800864 
z
" clip-path="url(#pb693d3bd68)" style="fill: #e8e7e7; stroke: #ffffff; stroke-width: 0.35; stroke-linejoin: miter"/>
   </g>
   <g id="patch_40">
    <path d="M 142.289203 101.343874 
L 153.693807 101.343874 
L 153.693807 101.343874 
L 142.289203 101.343874 
z
" clip-path="url(#pb693d3bd68)" style="fill: #e8e7e7; stroke: #ffffff; stroke-width: 0.35; stroke-linejoin: miter"/>
   </g>
   <g id="patch_41">
    <path d="M 159.060679 102.047244 
L 170.465283 102.047244 
L 170.465283 102.047244 
L 159.060679 102.047244 
z
" clip-path="url(#pb693d3bd68)" style="fill: #e8e7e7; stroke: #ffffff; stroke-width: 0.35; stroke-linejoin: miter"/>
   </g>
   <g id="patch_42">
    <path d="M 8.117394 64.106602 
L 19.521998 64.106602 
L 19.521998 39.24894 
L 8.117394 39.24894 
z
" clip-path="url(#pb693d3bd68)" style="fill: #deaa9a; stroke: #ffffff; stroke-width: 0.35; stroke-linejoin: miter"/>
   </g>
   <g id="patch_43">
    <path d="M 24.88887 66.158288 
L 36.293474 66.158288 
L 36.293474 62.901461 
L 24.88887 62.901461 
z
" clip-path="url(#pb693d3bd68)" style="fill: #deaa9a; stroke: #ffffff; stroke-width: 0.35; stroke-linejoin: miter"/>
   </g>
   <g id="patch_44">
    <path d="M 41.660347 59.359164 
L 53.06495 59.359164 
L 53.06495 59.359164 
L 41.660347 59.359164 
z
" clip-path="url(#pb693d3bd68)" style="fill: #deaa9a; stroke: #ffffff; stroke-width: 0.35; stroke-linejoin: miter"/>
   </g>
   <g id="patch_45">
    <path d="M 58.431823 81.06999 
L 69.836426 81.06999 
L 69.836426 76.338278 
L 58.431823 76.338278 
z
" clip-path="url(#pb693d3bd68)" style="fill: #deaa9a; stroke: #ffffff; stroke-width: 0.35; stroke-linejoin: miter"/>
   </g>
   <g id="patch_46">
    <path d="M 75.203299 91.273928 
L 86.607902 91.273928 
L 86.607902 85.88727 
L 75.203299 85.88727 
z
" clip-path="url(#pb693d3bd68)" style="fill: #deaa9a; stroke: #ffffff; stroke-width: 0.35; stroke-linejoin: miter"/>
   </g>
   <g id="patch_47">
    <path d="M 91.974775 65.716288 
L 103.379378 65.716288 
L 103.379378 65.538195 
L 91.974775 65.538195 
z
" clip-path="url(#pb693d3bd68)" style="fill: #deaa9a; stroke: #ffffff; stroke-width: 0.35; stroke-linejoin: miter"/>
   </g>
   <g id="patch_48">
    <path d="M 108.746251 75.056943 
L 120.150855 75.056943 
L 120.150855 74.994029 
L 108.746251 74.994029 
z
" clip-path="url(#pb693d3bd68)" style="fill: #deaa9a; stroke: #ffffff; stroke-width: 0.35; stroke-linejoin: miter"/>
   </g>
   <g id="patch_49">
    <path d="M 125.517727 15.800864 
L 136.922331 15.800864 
L 136.922331 15.800864 
L 125.517727 15.800864 
z
" clip-path="url(#pb693d3bd68)" style="fill: #deaa9a; stroke: #ffffff; stroke-width: 0.35; stroke-linejoin: miter"/>
   </g>
   <g id="patch_50">
    <path d="M 142.289203 101.343874 
L 153.693807 101.343874 
L 153.693807 0.410299 
L 142.289203 0.410299 
z
" clip-path="url(#pb693d3bd68)" style="fill: #deaa9a; stroke: #ffffff; stroke-width: 0.35; stroke-linejoin: miter"/>
   </g>
   <g id="patch_51">
    <path d="M 159.060679 102.047244 
L 170.465283 102.047244 
L 170.465283 102.047244 
L 159.060679 102.047244 
z
" clip-path="url(#pb693d3bd68)" style="fill: #deaa9a; stroke: #ffffff; stroke-width: 0.35; stroke-linejoin: miter"/>
   </g>
   <g id="patch_52">
    <path d="M 8.117394 39.24894 
L 19.521998 39.24894 
L 19.521998 -0 
L 8.117394 -0 
z
" clip-path="url(#pb693d3bd68)" style="fill: #cc645a; stroke: #ffffff; stroke-width: 0.35; stroke-linejoin: miter"/>
   </g>
   <g id="patch_53">
    <path d="M 24.88887 62.901461 
L 36.293474 62.901461 
L 36.293474 29.630739 
L 24.88887 29.630739 
z
" clip-path="url(#pb693d3bd68)" style="fill: #cc645a; stroke: #ffffff; stroke-width: 0.35; stroke-linejoin: miter"/>
   </g>
   <g id="patch_54">
    <path d="M 41.660347 59.359164 
L 53.06495 59.359164 
L 53.06495 -0 
L 41.660347 -0 
z
" clip-path="url(#pb693d3bd68)" style="fill: #cc645a; stroke: #ffffff; stroke-width: 0.35; stroke-linejoin: miter"/>
   </g>
   <g id="patch_55">
    <path d="M 58.431823 76.338278 
L 69.836426 76.338278 
L 69.836426 3.154474 
L 58.431823 3.154474 
z
" clip-path="url(#pb693d3bd68)" style="fill: #cc645a; stroke: #ffffff; stroke-width: 0.35; stroke-linejoin: miter"/>
   </g>
   <g id="patch_56">
    <path d="M 75.203299 85.88727 
L 86.607902 85.88727 
L 86.607902 5.386658 
L 75.203299 5.386658 
z
" clip-path="url(#pb693d3bd68)" style="fill: #cc645a; stroke: #ffffff; stroke-width: 0.35; stroke-linejoin: miter"/>
   </g>
   <g id="patch_57">
    <path d="M 91.974775 65.538195 
L 103.379378 65.538195 
L 103.379378 57.345921 
L 91.974775 57.345921 
z
" clip-path="url(#pb693d3bd68)" style="fill: #cc645a; stroke: #ffffff; stroke-width: 0.35; stroke-linejoin: miter"/>
   </g>
   <g id="patch_58">
    <path d="M 108.746251 74.994029 
L 120.150855 74.994029 
L 120.150855 2.202006 
L 108.746251 2.202006 
z
" clip-path="url(#pb693d3bd68)" style="fill: #cc645a; stroke: #ffffff; stroke-width: 0.35; stroke-linejoin: miter"/>
   </g>
   <g id="patch_59">
    <path d="M 125.517727 15.800864 
L 136.922331 15.800864 
L 136.922331 15.800864 
L 125.517727 15.800864 
z
" clip-path="url(#pb693d3bd68)" style="fill: #cc645a; stroke: #ffffff; stroke-width: 0.35; stroke-linejoin: miter"/>
   </g>
   <g id="patch_60">
    <path d="M 142.289203 0.410299 
L 153.693807 0.410299 
L 153.693807 0.410299 
L 142.289203 0.410299 
z
" clip-path="url(#pb693d3bd68)" style="fill: #cc645a; stroke: #ffffff; stroke-width: 0.35; stroke-linejoin: miter"/>
   </g>
   <g id="patch_61">
    <path d="M 159.060679 102.047244 
L 170.465283 102.047244 
L 170.465283 -0 
L 159.060679 -0 
z
" clip-path="url(#pb693d3bd68)" style="fill: #cc645a; stroke: #ffffff; stroke-width: 0.35; stroke-linejoin: miter"/>
   </g>
   <g id="patch_62">
    <path d="M 8.117394 -0 
L 19.521998 -0 
L 19.521998 -0 
L 8.117394 -0 
z
" clip-path="url(#pb693d3bd68)" style="fill: #b2182b; stroke: #ffffff; stroke-width: 0.35; stroke-linejoin: miter"/>
   </g>
   <g id="patch_63">
    <path d="M 24.88887 29.630739 
L 36.293474 29.630739 
L 36.293474 -0 
L 24.88887 -0 
z
" clip-path="url(#pb693d3bd68)" style="fill: #b2182b; stroke: #ffffff; stroke-width: 0.35; stroke-linejoin: miter"/>
   </g>
   <g id="patch_64">
    <path d="M 41.660347 -0 
L 53.06495 -0 
L 53.06495 -0 
L 41.660347 -0 
z
" clip-path="url(#pb693d3bd68)" style="fill: #b2182b; stroke: #ffffff; stroke-width: 0.35; stroke-linejoin: miter"/>
   </g>
   <g id="patch_65">
    <path d="M 58.431823 3.154474 
L 69.836426 3.154474 
L 69.836426 -0 
L 58.431823 -0 
z
" clip-path="url(#pb693d3bd68)" style="fill: #b2182b; stroke: #ffffff; stroke-width: 0.35; stroke-linejoin: miter"/>
   </g>
   <g id="patch_66">
    <path d="M 75.203299 5.386658 
L 86.607902 5.386658 
L 86.607902 -0 
L 75.203299 -0 
z
" clip-path="url(#pb693d3bd68)" style="fill: #b2182b; stroke: #ffffff; stroke-width: 0.35; stroke-linejoin: miter"/>
   </g>
   <g id="patch_67">
    <path d="M 91.974775 57.345921 
L 103.379378 57.345921 
L 103.379378 0 
L 91.974775 0 
z
" clip-path="url(#pb693d3bd68)" style="fill: #b2182b; stroke: #ffffff; stroke-width: 0.35; stroke-linejoin: miter"/>
   </g>
   <g id="patch_68">
    <path d="M 108.746251 2.202006 
L 120.150855 2.202006 
L 120.150855 -0 
L 108.746251 -0 
z
" clip-path="url(#pb693d3bd68)" style="fill: #b2182b; stroke: #ffffff; stroke-width: 0.35; stroke-linejoin: miter"/>
   </g>
   <g id="patch_69">
    <path d="M 125.517727 15.800864 
L 136.922331 15.800864 
L 136.922331 -0 
L 125.517727 -0 
z
" clip-path="url(#pb693d3bd68)" style="fill: #b2182b; stroke: #ffffff; stroke-width: 0.35; stroke-linejoin: miter"/>
   </g>
   <g id="patch_70">
    <path d="M 142.289203 0.410299 
L 153.693807 0.410299 
L 153.693807 -0 
L 142.289203 -0 
z
" clip-path="url(#pb693d3bd68)" style="fill: #b2182b; stroke: #ffffff; stroke-width: 0.35; stroke-linejoin: miter"/>
   </g>
   <g id="patch_71">
    <path d="M 159.060679 -0 
L 170.465283 -0 
L 170.465283 -0 
L 159.060679 -0 
z
" clip-path="url(#pb693d3bd68)" style="fill: #b2182b; stroke: #ffffff; stroke-width: 0.35; stroke-linejoin: miter"/>
   </g>
  </g>
  <g id="axes_2">
   <g id="line2d_1">
    <path d="M 13.819696 9.186272 
L 30.591172 36.735925 
L 47.362648 55.785922 
L 64.134124 58.656898 
L 80.905601 63.796681 
L 97.677077 87.200528 
L 114.448553 97.359922 
L 131.220029 98.782697 
L 147.991505 101.577774 
L 164.762981 102.047244 
" clip-path="url(#pb693d3bd68)" style="fill: none; stroke-dasharray: 5.2,2.6; stroke-dashoffset: 0; stroke: #78206e; stroke-width: 1.3"/>
    <defs>
     <path id="m45d89544fd" d="M 0 2 
C 0.530406 2 1.03916 1.789267 1.414214 1.414214 
C 1.789267 1.03916 2 0.530406 2 0 
C 2 -0.530406 1.789267 -1.03916 1.414214 -1.414214 
C 1.03916 -1.789267 0.530406 -2 0 -2 
C -0.530406 -2 -1.03916 -1.789267 -1.414214 -1.414214 
C -1.789267 -1.03916 -2 -0.530406 -2 0 
C -2 0.530406 -1.789267 1.03916 -1.414214 1.414214 
C -1.03916 1.789267 -0.530406 2 0 2 
z
" style="stroke: #78206e"/>
    </defs>
    <g clip-path="url(#pb693d3bd68)">
     <use xlink:href="#m45d89544fd" x="13.819696" y="9.186272" style="fill: #ffffff; stroke: #78206e"/>
     <use xlink:href="#m45d89544fd" x="30.591172" y="36.735925" style="fill: #ffffff; stroke: #78206e"/>
     <use xlink:href="#m45d89544fd" x="47.362648" y="55.785922" style="fill: #ffffff; stroke: #78206e"/>
     <use xlink:href="#m45d89544fd" x="64.134124" y="58.656898" style="fill: #ffffff; stroke: #78206e"/>
     <use xlink:href="#m45d89544fd" x="80.905601" y="63.796681" style="fill: #ffffff; stroke: #78206e"/>
     <use xlink:href="#m45d89544fd" x="97.677077" y="87.200528" style="fill: #ffffff; stroke: #78206e"/>
     <use xlink:href="#m45d89544fd" x="114.448553" y="97.359922" style="fill: #ffffff; stroke: #78206e"/>
     <use xlink:href="#m45d89544fd" x="131.220029" y="98.782697" style="fill: #ffffff; stroke: #78206e"/>
     <use xlink:href="#m45d89544fd" x="147.991505" y="101.577774" style="fill: #ffffff; stroke: #78206e"/>
     <use xlink:href="#m45d89544fd" x="164.762981" y="102.047244" style="fill: #ffffff; stroke: #78206e"/>
    </g>
   </g>
  </g>
 </g>
 <defs>
  <clipPath id="pb693d3bd68">
   <rect x="0" y="-0" width="178.582677" height="102.047244"/>
  </clipPath>
 </defs>
</svg>
