<?xml version="1.0" encoding="utf-8" standalone="no"?>
<!DOCTYPE svg PUBLIC "-//W3C//DTD SVG 1.1//EN"
  "http://www.w3.org/Graphics/SVG/1.1/DTD/svg11.dtd">
<svg xmlns:xlink="http://www.w3.org/1999/xlink" width="607.509375pt" height="604.650625pt" viewBox="0 0 607.509375 604.650625" xmlns="http://www.w3.org/2000/svg" version="1.1">
 <metadata>
  <rdf:RDF xmlns:dc="http://purl.org/dc/elements/1.1/" xmlns:cc="http://creativecommons.org/ns#" xmlns:rdf="http://www.w3.org/1999/02/22-rdf-syntax-ns#">
   <cc:Work>
    <dc:type rdf:resource="http://purl.org/dc/dcmitype/StillImage"/>
    <dc:date>2026-05-13T16:22:23.539643</dc:date>
    <dc:format>image/svg+xml</dc:format>
    <dc:creator>
     <cc:Agent>
      <dc:title>Matplotlib v3.9.4, https://matplotlib.org/</dc:title>
     </cc:Agent>
    </dc:creator>
   </cc:Work>
  </rdf:RDF>
 </metadata>
 <defs>
  <style type="text/css">*{stroke-linejoin: round; stroke-linecap: butt}</style>
 </defs>
 <g id="figure_1">
  <g id="patch_1">
   <path d="M 0 604.650625 
L 607.509375 604.650625 
L 607.509375 0 
L 0 0 
z
" style="fill: #ffffff"/>
  </g>
  <g id="axes_1">
   <g id="patch_2">
    <path d="M 544.189844 261.85 
C 544.189844 230.773407 538.068432 199.998994 526.175935 171.287966 
C 514.283438 142.576937 496.851133 116.48765 474.876664 94.51318 
C 452.902194 72.53871 426.812906 55.106406 398.101878 43.213909 
C 369.39085 31.321411 338.616437 25.2 307.539844 25.2 
C 276.46325 25.2 245.688838 31.321411 216.977809 43.213909 
C 188.266781 55.106406 162.177494 72.53871 140.203024 94.51318 
C 118.228554 116.48765 100.79625 142.576937 88.903752 171.287966 
C 77.011255 199.998994 70.889844 230.773407 70.889844 261.85 
C 70.889844 292.926593 77.011255 323.701006 88.903752 352.412034 
C 100.79625 381.123063 118.228554 407.21235 140.203024 429.18682 
C 162.177494 451.16129 188.266781 468.593594 216.977809 480.486091 
C 245.688838 492.378589 276.46325 498.5 307.539844 498.5 
C 338.616437 498.5 369.39085 492.378589 398.101878 480.486091 
C 426.812906 468.593594 452.902194 451.16129 474.876664 429.18682 
C 496.851133 407.21235 514.283438 381.123063 526.175935 352.412034 
C 538.068432 323.701006 544.189844 292.926593 544.189844 261.85 
M 307.539844 261.85 
C 307.539844 261.85 307.539844 261.85 307.539844 261.85 
C 307.539844 261.85 307.539844 261.85 307.539844 261.85 
C 307.539844 261.85 307.539844 261.85 307.539844 261.85 
C 307.539844 261.85 307.539844 261.85 307.539844 261.85 
C 307.539844 261.85 307.539844 261.85 307.539844 261.85 
C 307.539844 261.85 307.539844 261.85 307.539844 261.85 
C 307.539844 261.85 307.539844 261.85 307.539844 261.85 
C 307.539844 261.85 307.539844 261.85 307.539844 261.85 
C 307.539844 261.85 307.539844 261.85 307.539844 261.85 
C 307.539844 261.85 307.539844 261.85 307.539844 261.85 
C 307.539844 261.85 307.539844 261.85 307.539844 261.85 
C 307.539844 261.85 307.539844 261.85 307.539844 261.85 
C 307.539844 261.85 307.539844 261.85 307.539844 261.85 
C 307.539844 261.85 307.539844 261.85 307.539844 261.85 
C 307.539844 261.85 307.539844 261.85 307.539844 261.85 
C 307.539844 261.85 307.539844 261.85 307.539844 261.85 
z
" style="fill: #ffffff"/>
   </g>
   <g id="patch_3">
    <path d="M 544.189844 261.85 
L 386.423177 125.220059 
L 189.214844 56.905088 
L 137.383851 261.85 
L 189.214844 466.794912 
L 425.864844 466.794912 
z
" clip-path="url(#p490e0fe299)" style="fill: #1f77b4; opacity: 0.1"/>
   </g>
   <g id="matplotlib.axis_1">
    <g id="xtick_1">
     <g id="line2d_1">
      <path d="M 307.539844 261.85 
L 544.189844 261.85 
" clip-path="url(#p490e0fe299)" style="fill: none; stroke-dasharray: 2.59,1.12; stroke-dashoffset: 0; stroke: #b0b0b0; stroke-opacity: 0.6; stroke-width: 0.7"/>
     </g>
     <g id="text_1">
      <!-- Prototype -->
      <g transform="translate(534.070312 259.010469) scale(0.1 -0.1)">
       <defs>
        <path id="DejaVuSans-50" d="M 1259 4147 
L 1259 2394 
L 2053 2394 
Q 2494 2394 2734 2622 
Q 2975 2850 2975 3272 
Q 2975 3691 2734 3919 
Q 2494 4147 2053 4147 
L 1259 4147 
z
M 628 4666 
L 2053 4666 
Q 2838 4666 3239 4311 
Q 3641 3956 3641 3272 
Q 3641 2581 3239 2228 
Q 2838 1875 2053 1875 
L 1259 1875 
L 1259 0 
L 628 0 
L 628 4666 
z
" transform="scale(0.015625)"/>
        <path id="DejaVuSans-72" d="M 2631 2963 
Q 2534 3019 2420 3045 
Q 2306 3072 2169 3072 
Q 1681 3072 1420 2755 
Q 1159 2438 1159 1844 
L 1159 0 
L 581 0 
L 581 3500 
L 1159 3500 
L 1159 2956 
Q 1341 3275 1631 3429 
Q 1922 3584 2338 3584 
Q 2397 3584 2469 3576 
Q 2541 3569 2628 3553 
L 2631 2963 
z
" transform="scale(0.015625)"/>
        <path id="DejaVuSans-6f" d="M 1959 3097 
Q 1497 3097 1228 2736 
Q 959 2375 959 1747 
Q 959 1119 1226 758 
Q 1494 397 1959 397 
Q 2419 397 2687 759 
Q 2956 1122 2956 1747 
Q 2956 2369 2687 2733 
Q 2419 3097 1959 3097 
z
M 1959 3584 
Q 2709 3584 3137 3096 
Q 3566 2609 3566 1747 
Q 3566 888 3137 398 
Q 2709 -91 1959 -91 
Q 1206 -91 779 398 
Q 353 888 353 1747 
Q 353 2609 779 3096 
Q 1206 3584 1959 3584 
z
" transform="scale(0.015625)"/>
        <path id="DejaVuSans-74" d="M 1172 4494 
L 1172 3500 
L 2356 3500 
L 2356 3053 
L 1172 3053 
L 1172 1153 
Q 1172 725 1289 603 
Q 1406 481 1766 481 
L 2356 481 
L 2356 0 
L 1766 0 
Q 1100 0 847 248 
Q 594 497 594 1153 
L 594 3053 
L 172 3053 
L 172 3500 
L 594 3500 
L 594 4494 
L 1172 4494 
z
" transform="scale(0.015625)"/>
        <path id="DejaVuSans-79" d="M 2059 -325 
Q 1816 -950 1584 -1140 
Q 1353 -1331 966 -1331 
L 506 -1331 
L 506 -850 
L 844 -850 
Q 1081 -850 1212 -737 
Q 1344 -625 1503 -206 
L 1606 56 
L 191 3500 
L 800 3500 
L 1894 763 
L 2988 3500 
L 3597 3500 
L 2059 -325 
z
" transform="scale(0.015625)"/>
        <path id="DejaVuSans-70" d="M 1159 525 
L 1159 -1331 
L 581 -1331 
L 581 3500 
L 1159 3500 
L 1159 2969 
Q 1341 3281 1617 3432 
Q 1894 3584 2278 3584 
Q 2916 3584 3314 3078 
Q 3713 2572 3713 1747 
Q 3713 922 3314 415 
Q 2916 -91 2278 -91 
Q 1894 -91 1617 61 
Q 1341 213 1159 525 
z
M 3116 1747 
Q 3116 2381 2855 2742 
Q 2594 3103 2138 3103 
Q 1681 3103 1420 2742 
Q 1159 2381 1159 1747 
Q 1159 1113 1420 752 
Q 1681 391 2138 391 
Q 2594 391 2855 752 
Q 3116 1113 3116 1747 
z
" transform="scale(0.015625)"/>
        <path id="DejaVuSans-65" d="M 3597 1894 
L 3597 1613 
L 953 1613 
Q 991 1019 1311 708 
Q 1631 397 2203 397 
Q 2534 397 2845 478 
Q 3156 559 3463 722 
L 3463 178 
Q 3153 47 2828 -22 
Q 2503 -91 2169 -91 
Q 1331 -91 842 396 
Q 353 884 353 1716 
Q 353 2575 817 3079 
Q 1281 3584 2069 3584 
Q 2775 3584 3186 3129 
Q 3597 2675 3597 1894 
z
M 3022 2063 
Q 3016 2534 2758 2815 
Q 2500 3097 2075 3097 
Q 1594 3097 1305 2825 
Q 1016 2553 972 2059 
L 3022 2063 
z
" transform="scale(0.015625)"/>
       </defs>
       <use xlink:href="#DejaVuSans-50"/>
       <use xlink:href="#DejaVuSans-72" x="58.552734"/>
       <use xlink:href="#DejaVuSans-6f" x="97.416016"/>
       <use xlink:href="#DejaVuSans-74" x="158.597656"/>
       <use xlink:href="#DejaVuSans-6f" x="197.806641"/>
       <use xlink:href="#DejaVuSans-74" x="258.988281"/>
       <use xlink:href="#DejaVuSans-79" x="298.197266"/>
       <use xlink:href="#DejaVuSans-70" x="357.376953"/>
       <use xlink:href="#DejaVuSans-65" x="420.853516"/>
      </g>
      <!-- similarity -->
      <g transform="translate(535.119531 270.208281) scale(0.1 -0.1)">
       <defs>
        <path id="DejaVuSans-73" d="M 2834 3397 
L 2834 2853 
Q 2591 2978 2328 3040 
Q 2066 3103 1784 3103 
Q 1356 3103 1142 2972 
Q 928 2841 928 2578 
Q 928 2378 1081 2264 
Q 1234 2150 1697 2047 
L 1894 2003 
Q 2506 1872 2764 1633 
Q 3022 1394 3022 966 
Q 3022 478 2636 193 
Q 2250 -91 1575 -91 
Q 1294 -91 989 -36 
Q 684 19 347 128 
L 347 722 
Q 666 556 975 473 
Q 1284 391 1588 391 
Q 1994 391 2212 530 
Q 2431 669 2431 922 
Q 2431 1156 2273 1281 
Q 2116 1406 1581 1522 
L 1381 1569 
Q 847 1681 609 1914 
Q 372 2147 372 2553 
Q 372 3047 722 3315 
Q 1072 3584 1716 3584 
Q 2034 3584 2315 3537 
Q 2597 3491 2834 3397 
z
" transform="scale(0.015625)"/>
        <path id="DejaVuSans-69" d="M 603 3500 
L 1178 3500 
L 1178 0 
L 603 0 
L 603 3500 
z
M 603 4863 
L 1178 4863 
L 1178 4134 
L 603 4134 
L 603 4863 
z
" transform="scale(0.015625)"/>
        <path id="DejaVuSans-6d" d="M 3328 2828 
Q 3544 3216 3844 3400 
Q 4144 3584 4550 3584 
Q 5097 3584 5394 3201 
Q 5691 2819 5691 2113 
L 5691 0 
L 5113 0 
L 5113 2094 
Q 5113 2597 4934 2840 
Q 4756 3084 4391 3084 
Q 3944 3084 3684 2787 
Q 3425 2491 3425 1978 
L 3425 0 
L 2847 0 
L 2847 2094 
Q 2847 2600 2669 2842 
Q 2491 3084 2119 3084 
Q 1678 3084 1418 2786 
Q 1159 2488 1159 1978 
L 1159 0 
L 581 0 
L 581 3500 
L 1159 3500 
L 1159 2956 
Q 1356 3278 1631 3431 
Q 1906 3584 2284 3584 
Q 2666 3584 2933 3390 
Q 3200 3197 3328 2828 
z
" transform="scale(0.015625)"/>
        <path id="DejaVuSans-6c" d="M 603 4863 
L 1178 4863 
L 1178 0 
L 603 0 
L 603 4863 
z
" transform="scale(0.015625)"/>
        <path id="DejaVuSans-61" d="M 2194 1759 
Q 1497 1759 1228 1600 
Q 959 1441 959 1056 
Q 959 750 1161 570 
Q 1363 391 1709 391 
Q 2188 391 2477 730 
Q 2766 1069 2766 1631 
L 2766 1759 
L 2194 1759 
z
M 3341 1997 
L 3341 0 
L 2766 0 
L 2766 531 
Q 2569 213 2275 61 
Q 1981 -91 1556 -91 
Q 1019 -91 701 211 
Q 384 513 384 1019 
Q 384 1609 779 1909 
Q 1175 2209 1959 2209 
L 2766 2209 
L 2766 2266 
Q 2766 2663 2505 2880 
Q 2244 3097 1772 3097 
Q 1472 3097 1187 3025 
Q 903 2953 641 2809 
L 641 3341 
Q 956 3463 1253 3523 
Q 1550 3584 1831 3584 
Q 2591 3584 2966 3190 
Q 3341 2797 3341 1997 
z
" transform="scale(0.015625)"/>
       </defs>
       <use xlink:href="#DejaVuSans-73"/>
       <use xlink:href="#DejaVuSans-69" x="52.099609"/>
       <use xlink:href="#DejaVuSans-6d" x="79.882812"/>
       <use xlink:href="#DejaVuSans-69" x="177.294922"/>
       <use xlink:href="#DejaVuSans-6c" x="205.078125"/>
       <use xlink:href="#DejaVuSans-61" x="232.861328"/>
       <use xlink:href="#DejaVuSans-72" x="294.140625"/>
       <use xlink:href="#DejaVuSans-69" x="335.253906"/>
       <use xlink:href="#DejaVuSans-74" x="363.037109"/>
       <use xlink:href="#DejaVuSans-79" x="402.246094"/>
      </g>
     </g>
    </g>
    <g id="xtick_2">
     <g id="line2d_2">
      <path d="M 307.539844 261.85 
L 425.864844 56.905088 
" clip-path="url(#p490e0fe299)" style="fill: none; stroke-dasharray: 2.59,1.12; stroke-dashoffset: 0; stroke: #b0b0b0; stroke-opacity: 0.6; stroke-width: 0.7"/>
     </g>
     <g id="text_2">
      <!-- Prototype -->
      <g transform="translate(408.745312 41.941201) scale(0.1 -0.1)">
       <use xlink:href="#DejaVuSans-50"/>
       <use xlink:href="#DejaVuSans-72" x="58.552734"/>
       <use xlink:href="#DejaVuSans-6f" x="97.416016"/>
       <use xlink:href="#DejaVuSans-74" x="158.597656"/>
       <use xlink:href="#DejaVuSans-6f" x="197.806641"/>
       <use xlink:href="#DejaVuSans-74" x="258.988281"/>
       <use xlink:href="#DejaVuSans-79" x="298.197266"/>
       <use xlink:href="#DejaVuSans-70" x="357.376953"/>
       <use xlink:href="#DejaVuSans-65" x="420.853516"/>
      </g>
      <!-- coverage -->
      <g transform="translate(409.65 53.139014) scale(0.1 -0.1)">
       <defs>
        <path id="DejaVuSans-63" d="M 3122 3366 
L 3122 2828 
Q 2878 2963 2633 3030 
Q 2388 3097 2138 3097 
Q 1578 3097 1268 2742 
Q 959 2388 959 1747 
Q 959 1106 1268 751 
Q 1578 397 2138 397 
Q 2388 397 2633 464 
Q 2878 531 3122 666 
L 3122 134 
Q 2881 22 2623 -34 
Q 2366 -91 2075 -91 
Q 1284 -91 818 406 
Q 353 903 353 1747 
Q 353 2603 823 3093 
Q 1294 3584 2113 3584 
Q 2378 3584 2631 3529 
Q 2884 3475 3122 3366 
z
" transform="scale(0.015625)"/>
        <path id="DejaVuSans-76" d="M 191 3500 
L 800 3500 
L 1894 563 
L 2988 3500 
L 3597 3500 
L 2284 0 
L 1503 0 
L 191 3500 
z
" transform="scale(0.015625)"/>
        <path id="DejaVuSans-67" d="M 2906 1791 
Q 2906 2416 2648 2759 
Q 2391 3103 1925 3103 
Q 1463 3103 1205 2759 
Q 947 2416 947 1791 
Q 947 1169 1205 825 
Q 1463 481 1925 481 
Q 2391 481 2648 825 
Q 2906 1169 2906 1791 
z
M 3481 434 
Q 3481 -459 3084 -895 
Q 2688 -1331 1869 -1331 
Q 1566 -1331 1297 -1286 
Q 1028 -1241 775 -1147 
L 775 -588 
Q 1028 -725 1275 -790 
Q 1522 -856 1778 -856 
Q 2344 -856 2625 -561 
Q 2906 -266 2906 331 
L 2906 616 
Q 2728 306 2450 153 
Q 2172 0 1784 0 
Q 1141 0 747 490 
Q 353 981 353 1791 
Q 353 2603 747 3093 
Q 1141 3584 1784 3584 
Q 2172 3584 2450 3431 
Q 2728 3278 2906 2969 
L 2906 3500 
L 3481 3500 
L 3481 434 
z
" transform="scale(0.015625)"/>
       </defs>
       <use xlink:href="#DejaVuSans-63"/>
       <use xlink:href="#DejaVuSans-6f" x="54.980469"/>
       <use xlink:href="#DejaVuSans-76" x="116.162109"/>
       <use xlink:href="#DejaVuSans-65" x="175.341797"/>
       <use xlink:href="#DejaVuSans-72" x="236.865234"/>
       <use xlink:href="#DejaVuSans-61" x="277.978516"/>
       <use xlink:href="#DejaVuSans-67" x="339.257812"/>
       <use xlink:href="#DejaVuSans-65" x="402.734375"/>
      </g>
     </g>
    </g>
    <g id="xtick_3">
     <g id="line2d_3">
      <path d="M 307.539844 261.85 
L 189.214844 56.905088 
" clip-path="url(#p490e0fe299)" style="fill: none; stroke-dasharray: 2.59,1.12; stroke-dashoffset: 0; stroke: #b0b0b0; stroke-opacity: 0.6; stroke-width: 0.7"/>
     </g>
     <g id="text_3">
      <!-- Entropy-weighted -->
      <g transform="translate(137.965625 41.941201) scale(0.1 -0.1)">
       <defs>
        <path id="DejaVuSans-45" d="M 628 4666 
L 3578 4666 
L 3578 4134 
L 1259 4134 
L 1259 2753 
L 3481 2753 
L 3481 2222 
L 1259 2222 
L 1259 531 
L 3634 531 
L 3634 0 
L 628 0 
L 628 4666 
z
" transform="scale(0.015625)"/>
        <path id="DejaVuSans-6e" d="M 3513 2113 
L 3513 0 
L 2938 0 
L 2938 2094 
Q 2938 2591 2744 2837 
Q 2550 3084 2163 3084 
Q 1697 3084 1428 2787 
Q 1159 2491 1159 1978 
L 1159 0 
L 581 0 
L 581 3500 
L 1159 3500 
L 1159 2956 
Q 1366 3272 1645 3428 
Q 1925 3584 2291 3584 
Q 2894 3584 3203 3211 
Q 3513 2838 3513 2113 
z
" transform="scale(0.015625)"/>
        <path id="DejaVuSans-2d" d="M 313 2009 
L 1997 2009 
L 1997 1497 
L 313 1497 
L 313 2009 
z
" transform="scale(0.015625)"/>
        <path id="DejaVuSans-77" d="M 269 3500 
L 844 3500 
L 1563 769 
L 2278 3500 
L 2956 3500 
L 3675 769 
L 4391 3500 
L 4966 3500 
L 4050 0 
L 3372 0 
L 2619 2869 
L 1863 0 
L 1184 0 
L 269 3500 
z
" transform="scale(0.015625)"/>
        <path id="DejaVuSans-68" d="M 3513 2113 
L 3513 0 
L 2938 0 
L 2938 2094 
Q 2938 2591 2744 2837 
Q 2550 3084 2163 3084 
Q 1697 3084 1428 2787 
Q 1159 2491 1159 1978 
L 1159 0 
L 581 0 
L 581 4863 
L 1159 4863 
L 1159 2956 
Q 1366 3272 1645 3428 
Q 1925 3584 2291 3584 
Q 2894 3584 3203 3211 
Q 3513 2838 3513 2113 
z
" transform="scale(0.015625)"/>
        <path id="DejaVuSans-64" d="M 2906 2969 
L 2906 4863 
L 3481 4863 
L 3481 0 
L 2906 0 
L 2906 525 
Q 2725 213 2448 61 
Q 2172 -91 1784 -91 
Q 1150 -91 751 415 
Q 353 922 353 1747 
Q 353 2572 751 3078 
Q 1150 3584 1784 3584 
Q 2172 3584 2448 3432 
Q 2725 3281 2906 2969 
z
M 947 1747 
Q 947 1113 1208 752 
Q 1469 391 1925 391 
Q 2381 391 2643 752 
Q 2906 1113 2906 1747 
Q 2906 2381 2643 2742 
Q 2381 3103 1925 3103 
Q 1469 3103 1208 2742 
Q 947 2381 947 1747 
z
" transform="scale(0.015625)"/>
       </defs>
       <use xlink:href="#DejaVuSans-45"/>
       <use xlink:href="#DejaVuSans-6e" x="63.183594"/>
       <use xlink:href="#DejaVuSans-74" x="126.5625"/>
       <use xlink:href="#DejaVuSans-72" x="165.771484"/>
       <use xlink:href="#DejaVuSans-6f" x="204.634766"/>
       <use xlink:href="#DejaVuSans-70" x="265.816406"/>
       <use xlink:href="#DejaVuSans-79" x="329.292969"/>
       <use xlink:href="#DejaVuSans-2d" x="386.722656"/>
       <use xlink:href="#DejaVuSans-77" x="422.806641"/>
       <use xlink:href="#DejaVuSans-65" x="504.59375"/>
       <use xlink:href="#DejaVuSans-69" x="566.117188"/>
       <use xlink:href="#DejaVuSans-67" x="593.900391"/>
       <use xlink:href="#DejaVuSans-68" x="657.376953"/>
       <use xlink:href="#DejaVuSans-74" x="720.755859"/>
       <use xlink:href="#DejaVuSans-65" x="759.964844"/>
       <use xlink:href="#DejaVuSans-64" x="821.488281"/>
      </g>
      <!-- assignment rank -->
      <g transform="translate(140.360938 53.139014) scale(0.1 -0.1)">
       <defs>
        <path id="DejaVuSans-20" transform="scale(0.015625)"/>
        <path id="DejaVuSans-6b" d="M 581 4863 
L 1159 4863 
L 1159 1991 
L 2875 3500 
L 3609 3500 
L 1753 1863 
L 3688 0 
L 2938 0 
L 1159 1709 
L 1159 0 
L 581 0 
L 581 4863 
z
" transform="scale(0.015625)"/>
       </defs>
       <use xlink:href="#DejaVuSans-61"/>
       <use xlink:href="#DejaVuSans-73" x="61.279297"/>
       <use xlink:href="#DejaVuSans-73" x="113.378906"/>
       <use xlink:href="#DejaVuSans-69" x="165.478516"/>
       <use xlink:href="#DejaVuSans-67" x="193.261719"/>
       <use xlink:href="#DejaVuSans-6e" x="256.738281"/>
       <use xlink:href="#DejaVuSans-6d" x="320.117188"/>
       <use xlink:href="#DejaVuSans-65" x="417.529297"/>
       <use xlink:href="#DejaVuSans-6e" x="479.052734"/>
       <use xlink:href="#DejaVuSans-74" x="542.431641"/>
       <use xlink:href="#DejaVuSans-20" x="581.640625"/>
       <use xlink:href="#DejaVuSans-72" x="613.427734"/>
       <use xlink:href="#DejaVuSans-61" x="654.541016"/>
       <use xlink:href="#DejaVuSans-6e" x="715.820312"/>
       <use xlink:href="#DejaVuSans-6b" x="779.199219"/>
      </g>
     </g>
    </g>
    <g id="xtick_4">
     <g id="line2d_4">
      <path d="M 307.539844 261.85 
L 70.889844 261.85 
" clip-path="url(#p490e0fe299)" style="fill: none; stroke-dasharray: 2.59,1.12; stroke-dashoffset: 0; stroke: #b0b0b0; stroke-opacity: 0.6; stroke-width: 0.7"/>
     </g>
     <g id="text_4">
      <!-- Moderate -->
      <g transform="translate(33.109375 259.010469) scale(0.1 -0.1)">
       <defs>
        <path id="DejaVuSans-4d" d="M 628 4666 
L 1569 4666 
L 2759 1491 
L 3956 4666 
L 4897 4666 
L 4897 0 
L 4281 0 
L 4281 4097 
L 3078 897 
L 2444 897 
L 1241 4097 
L 1241 0 
L 628 0 
L 628 4666 
z
" transform="scale(0.015625)"/>
       </defs>
       <use xlink:href="#DejaVuSans-4d"/>
       <use xlink:href="#DejaVuSans-6f" x="86.279297"/>
       <use xlink:href="#DejaVuSans-64" x="147.460938"/>
       <use xlink:href="#DejaVuSans-65" x="210.9375"/>
       <use xlink:href="#DejaVuSans-72" x="272.460938"/>
       <use xlink:href="#DejaVuSans-61" x="313.574219"/>
       <use xlink:href="#DejaVuSans-74" x="374.853516"/>
       <use xlink:href="#DejaVuSans-65" x="414.0625"/>
      </g>
      <!-- novelty ratio -->
      <g transform="translate(25.2 270.208281) scale(0.1 -0.1)">
       <use xlink:href="#DejaVuSans-6e"/>
       <use xlink:href="#DejaVuSans-6f" x="63.378906"/>
       <use xlink:href="#DejaVuSans-76" x="124.560547"/>
       <use xlink:href="#DejaVuSans-65" x="183.740234"/>
       <use xlink:href="#DejaVuSans-6c" x="245.263672"/>
       <use xlink:href="#DejaVuSans-74" x="273.046875"/>
       <use xlink:href="#DejaVuSans-79" x="312.255859"/>
       <use xlink:href="#DejaVuSans-20" x="371.435547"/>
       <use xlink:href="#DejaVuSans-72" x="403.222656"/>
       <use xlink:href="#DejaVuSans-61" x="444.335938"/>
       <use xlink:href="#DejaVuSans-74" x="505.615234"/>
       <use xlink:href="#DejaVuSans-69" x="544.824219"/>
       <use xlink:href="#DejaVuSans-6f" x="572.607422"/>
      </g>
     </g>
    </g>
    <g id="xtick_5">
     <g id="line2d_5">
      <path d="M 307.539844 261.85 
L 189.214844 466.794912 
" clip-path="url(#p490e0fe299)" style="fill: none; stroke-dasharray: 2.59,1.12; stroke-dashoffset: 0; stroke: #b0b0b0; stroke-opacity: 0.6; stroke-width: 0.7"/>
     </g>
     <g id="text_5">
      <!-- Candidate -->
      <g transform="translate(156.652344 476.079736) scale(0.1 -0.1)">
       <defs>
        <path id="DejaVuSans-43" d="M 4122 4306 
L 4122 3641 
Q 3803 3938 3442 4084 
Q 3081 4231 2675 4231 
Q 1875 4231 1450 3742 
Q 1025 3253 1025 2328 
Q 1025 1406 1450 917 
Q 1875 428 2675 428 
Q 3081 428 3442 575 
Q 3803 722 4122 1019 
L 4122 359 
Q 3791 134 3420 21 
Q 3050 -91 2638 -91 
Q 1578 -91 968 557 
Q 359 1206 359 2328 
Q 359 3453 968 4101 
Q 1578 4750 2638 4750 
Q 3056 4750 3426 4639 
Q 3797 4528 4122 4306 
z
" transform="scale(0.015625)"/>
       </defs>
       <use xlink:href="#DejaVuSans-43"/>
       <use xlink:href="#DejaVuSans-61" x="69.824219"/>
       <use xlink:href="#DejaVuSans-6e" x="131.103516"/>
       <use xlink:href="#DejaVuSans-64" x="194.482422"/>
       <use xlink:href="#DejaVuSans-69" x="257.958984"/>
       <use xlink:href="#DejaVuSans-64" x="285.742188"/>
       <use xlink:href="#DejaVuSans-61" x="349.21875"/>
       <use xlink:href="#DejaVuSans-74" x="410.498047"/>
       <use xlink:href="#DejaVuSans-65" x="449.707031"/>
      </g>
      <!-- diversity -->
      <g transform="translate(160.646875 487.277549) scale(0.1 -0.1)">
       <use xlink:href="#DejaVuSans-64"/>
       <use xlink:href="#DejaVuSans-69" x="63.476562"/>
       <use xlink:href="#DejaVuSans-76" x="91.259766"/>
       <use xlink:href="#DejaVuSans-65" x="150.439453"/>
       <use xlink:href="#DejaVuSans-72" x="211.962891"/>
       <use xlink:href="#DejaVuSans-73" x="253.076172"/>
       <use xlink:href="#DejaVuSans-69" x="305.175781"/>
       <use xlink:href="#DejaVuSans-74" x="332.958984"/>
       <use xlink:href="#DejaVuSans-79" x="372.167969"/>
      </g>
     </g>
    </g>
    <g id="xtick_6">
     <g id="line2d_6">
      <path d="M 307.539844 261.85 
L 425.864844 466.794912 
" clip-path="url(#p490e0fe299)" style="fill: none; stroke-dasharray: 2.59,1.12; stroke-dashoffset: 0; stroke: #b0b0b0; stroke-opacity: 0.6; stroke-width: 0.7"/>
     </g>
     <g id="text_6">
      <!-- Silhouette -->
      <g transform="translate(407.442187 481.678642) scale(0.1 -0.1)">
       <defs>
        <path id="DejaVuSans-53" d="M 3425 4513 
L 3425 3897 
Q 3066 4069 2747 4153 
Q 2428 4238 2131 4238 
Q 1616 4238 1336 4038 
Q 1056 3838 1056 3469 
Q 1056 3159 1242 3001 
Q 1428 2844 1947 2747 
L 2328 2669 
Q 3034 2534 3370 2195 
Q 3706 1856 3706 1288 
Q 3706 609 3251 259 
Q 2797 -91 1919 -91 
Q 1588 -91 1214 -16 
Q 841 59 441 206 
L 441 856 
Q 825 641 1194 531 
Q 1563 422 1919 422 
Q 2459 422 2753 634 
Q 3047 847 3047 1241 
Q 3047 1584 2836 1778 
Q 2625 1972 2144 2069 
L 1759 2144 
Q 1053 2284 737 2584 
Q 422 2884 422 3419 
Q 422 4038 858 4394 
Q 1294 4750 2059 4750 
Q 2388 4750 2728 4690 
Q 3069 4631 3425 4513 
z
" transform="scale(0.015625)"/>
        <path id="DejaVuSans-75" d="M 544 1381 
L 544 3500 
L 1119 3500 
L 1119 1403 
Q 1119 906 1312 657 
Q 1506 409 1894 409 
Q 2359 409 2629 706 
Q 2900 1003 2900 1516 
L 2900 3500 
L 3475 3500 
L 3475 0 
L 2900 0 
L 2900 538 
Q 2691 219 2414 64 
Q 2138 -91 1772 -91 
Q 1169 -91 856 284 
Q 544 659 544 1381 
z
M 1991 3584 
L 1991 3584 
z
" transform="scale(0.015625)"/>
       </defs>
       <use xlink:href="#DejaVuSans-53"/>
       <use xlink:href="#DejaVuSans-69" x="63.476562"/>
       <use xlink:href="#DejaVuSans-6c" x="91.259766"/>
       <use xlink:href="#DejaVuSans-68" x="119.042969"/>
       <use xlink:href="#DejaVuSans-6f" x="182.421875"/>
       <use xlink:href="#DejaVuSans-75" x="243.603516"/>
       <use xlink:href="#DejaVuSans-65" x="306.982422"/>
       <use xlink:href="#DejaVuSans-74" x="368.505859"/>
       <use xlink:href="#DejaVuSans-74" x="407.714844"/>
       <use xlink:href="#DejaVuSans-65" x="446.923828"/>
      </g>
     </g>
    </g>
   </g>
   <g id="matplotlib.axis_2">
    <g id="ytick_1">
     <g id="line2d_7">
      <path d="M 354.869844 261.85 
C 354.869844 255.634681 353.645561 249.479799 351.267062 243.737593 
C 348.888563 237.995387 345.402102 232.77753 341.007208 228.382636 
C 336.612314 223.987742 331.394456 220.501281 325.652251 218.122782 
C 319.910045 215.744282 313.755162 214.52 307.539844 214.52 
C 301.324525 214.52 295.169643 215.744282 289.427437 218.122782 
C 283.685231 220.501281 278.467374 223.987742 274.07248 228.382636 
C 269.677586 232.77753 266.191125 237.995387 263.812625 243.737593 
C 261.434126 249.479799 260.209844 255.634681 260.209844 261.85 
C 260.209844 268.065319 261.434126 274.220201 263.812625 279.962407 
C 266.191125 285.704613 269.677586 290.92247 274.07248 295.317364 
C 278.467374 299.712258 283.685231 303.198719 289.427437 305.577218 
C 295.169643 307.955718 301.324525 309.18 307.539844 309.18 
C 313.755162 309.18 319.910045 307.955718 325.652251 305.577218 
C 331.394456 303.198719 336.612314 299.712258 341.007208 295.317364 
C 345.402102 290.92247 348.888563 285.704613 351.267062 279.962407 
C 353.645561 274.220201 354.869844 268.065319 354.869844 261.85 
" clip-path="url(#p490e0fe299)" style="fill: none; stroke-dasharray: 2.59,1.12; stroke-dashoffset: 0; stroke: #b0b0b0; stroke-opacity: 0.6; stroke-width: 0.7"/>
     </g>
     <g id="text_7">
      <!-- 0.2 -->
      <g transform="translate(351.267062 242.073843) scale(0.08 -0.08)">
       <defs>
        <path id="DejaVuSans-30" d="M 2034 4250 
Q 1547 4250 1301 3770 
Q 1056 3291 1056 2328 
Q 1056 1369 1301 889 
Q 1547 409 2034 409 
Q 2525 409 2770 889 
Q 3016 1369 3016 2328 
Q 3016 3291 2770 3770 
Q 2525 4250 2034 4250 
z
M 2034 4750 
Q 2819 4750 3233 4129 
Q 3647 3509 3647 2328 
Q 3647 1150 3233 529 
Q 2819 -91 2034 -91 
Q 1250 -91 836 529 
Q 422 1150 422 2328 
Q 422 3509 836 4129 
Q 1250 4750 2034 4750 
z
" transform="scale(0.015625)"/>
        <path id="DejaVuSans-2e" d="M 684 794 
L 1344 794 
L 1344 0 
L 684 0 
L 684 794 
z
" transform="scale(0.015625)"/>
        <path id="DejaVuSans-32" d="M 1228 531 
L 3431 531 
L 3431 0 
L 469 0 
L 469 531 
Q 828 903 1448 1529 
Q 2069 2156 2228 2338 
Q 2531 2678 2651 2914 
Q 2772 3150 2772 3378 
Q 2772 3750 2511 3984 
Q 2250 4219 1831 4219 
Q 1534 4219 1204 4116 
Q 875 4013 500 3803 
L 500 4441 
Q 881 4594 1212 4672 
Q 1544 4750 1819 4750 
Q 2544 4750 2975 4387 
Q 3406 4025 3406 3419 
Q 3406 3131 3298 2873 
Q 3191 2616 2906 2266 
Q 2828 2175 2409 1742 
Q 1991 1309 1228 531 
z
" transform="scale(0.015625)"/>
       </defs>
       <use xlink:href="#DejaVuSans-30"/>
       <use xlink:href="#DejaVuSans-2e" x="63.623047"/>
       <use xlink:href="#DejaVuSans-32" x="95.410156"/>
      </g>
     </g>
    </g>
    <g id="ytick_2">
     <g id="line2d_8">
      <path d="M 402.199844 261.85 
C 402.199844 249.419363 399.751279 237.109598 394.99428 225.625186 
C 390.237281 214.140775 383.26436 203.70506 374.474572 194.915272 
C 365.684784 186.125484 355.249069 179.152562 343.764657 174.395563 
C 332.280246 169.638565 319.970481 167.19 307.539844 167.19 
C 295.109206 167.19 282.799441 169.638565 271.31503 174.395563 
C 259.830619 179.152562 249.394904 186.125484 240.605116 194.915272 
C 231.815328 203.70506 224.842406 214.140775 220.085407 225.625186 
C 215.328408 237.109598 212.879844 249.419363 212.879844 261.85 
C 212.879844 274.280637 215.328408 286.590402 220.085407 298.074814 
C 224.842406 309.559225 231.815328 319.99494 240.605116 328.784728 
C 249.394904 337.574516 259.830619 344.547438 271.31503 349.304437 
C 282.799441 354.061435 295.109206 356.51 307.539844 356.51 
C 319.970481 356.51 332.280246 354.061435 343.764657 349.304437 
C 355.249069 344.547438 365.684784 337.574516 374.474572 328.784728 
C 383.26436 319.99494 390.237281 309.559225 394.99428 298.074814 
C 399.751279 286.590402 402.199844 274.280637 402.199844 261.85 
" clip-path="url(#p490e0fe299)" style="fill: none; stroke-dasharray: 2.59,1.12; stroke-dashoffset: 0; stroke: #b0b0b0; stroke-opacity: 0.6; stroke-width: 0.7"/>
     </g>
     <g id="text_8">
      <!-- 0.4 -->
      <g transform="translate(394.99428 223.961436) scale(0.08 -0.08)">
       <defs>
        <path id="DejaVuSans-34" d="M 2419 4116 
L 825 1625 
L 2419 1625 
L 2419 4116 
z
M 2253 4666 
L 3047 4666 
L 3047 1625 
L 3713 1625 
L 3713 1100 
L 3047 1100 
L 3047 0 
L 2419 0 
L 2419 1100 
L 313 1100 
L 313 1709 
L 2253 4666 
z
" transform="scale(0.015625)"/>
       </defs>
       <use xlink:href="#DejaVuSans-30"/>
       <use xlink:href="#DejaVuSans-2e" x="63.623047"/>
       <use xlink:href="#DejaVuSans-34" x="95.410156"/>
      </g>
     </g>
    </g>
    <g id="ytick_3">
     <g id="line2d_9">
      <path d="M 449.529844 261.85 
C 449.529844 243.204044 445.856997 224.739397 438.721499 207.512779 
C 431.586 190.286162 421.126618 174.63259 407.941936 161.447908 
C 394.757254 148.263226 379.103681 137.803844 361.877064 130.668345 
C 344.650447 123.532847 326.1858 119.86 307.539844 119.86 
C 288.893888 119.86 270.42924 123.532847 253.202623 130.668345 
C 235.976006 137.803844 220.322434 148.263226 207.137752 161.447908 
C 193.95307 174.63259 183.493687 190.286162 176.358189 207.512779 
C 169.222691 224.739397 165.549844 243.204044 165.549844 261.85 
C 165.549844 280.495956 169.222691 298.960603 176.358189 316.187221 
C 183.493687 333.413838 193.95307 349.06741 207.137752 362.252092 
C 220.322434 375.436774 235.976006 385.896156 253.202623 393.031655 
C 270.42924 400.167153 288.893888 403.84 307.539844 403.84 
C 326.1858 403.84 344.650447 400.167153 361.877064 393.031655 
C 379.103681 385.896156 394.757254 375.436774 407.941936 362.252092 
C 421.126618 349.06741 431.586 333.413838 438.721499 316.187221 
C 445.856997 298.960603 449.529844 280.495956 449.529844 261.85 
" clip-path="url(#p490e0fe299)" style="fill: none; stroke-dasharray: 2.59,1.12; stroke-dashoffset: 0; stroke: #b0b0b0; stroke-opacity: 0.6; stroke-width: 0.7"/>
     </g>
     <g id="text_9">
      <!-- 0.6 -->
      <g transform="translate(438.721499 205.849029) scale(0.08 -0.08)">
       <defs>
        <path id="DejaVuSans-36" d="M 2113 2584 
Q 1688 2584 1439 2293 
Q 1191 2003 1191 1497 
Q 1191 994 1439 701 
Q 1688 409 2113 409 
Q 2538 409 2786 701 
Q 3034 994 3034 1497 
Q 3034 2003 2786 2293 
Q 2538 2584 2113 2584 
z
M 3366 4563 
L 3366 3988 
Q 3128 4100 2886 4159 
Q 2644 4219 2406 4219 
Q 1781 4219 1451 3797 
Q 1122 3375 1075 2522 
Q 1259 2794 1537 2939 
Q 1816 3084 2150 3084 
Q 2853 3084 3261 2657 
Q 3669 2231 3669 1497 
Q 3669 778 3244 343 
Q 2819 -91 2113 -91 
Q 1303 -91 875 529 
Q 447 1150 447 2328 
Q 447 3434 972 4092 
Q 1497 4750 2381 4750 
Q 2619 4750 2861 4703 
Q 3103 4656 3366 4563 
z
" transform="scale(0.015625)"/>
       </defs>
       <use xlink:href="#DejaVuSans-30"/>
       <use xlink:href="#DejaVuSans-2e" x="63.623047"/>
       <use xlink:href="#DejaVuSans-36" x="95.410156"/>
      </g>
     </g>
    </g>
    <g id="ytick_4">
     <g id="line2d_10">
      <path d="M 496.859844 261.85 
C 496.859844 236.988725 491.962715 212.369195 482.448717 189.400373 
C 472.934719 166.43155 458.988875 145.56012 441.4093 127.980544 
C 423.829724 110.400968 402.958294 96.455125 379.989471 86.941127 
C 357.020648 77.427129 332.401118 72.53 307.539844 72.53 
C 282.678569 72.53 258.059039 77.427129 235.090216 86.941127 
C 212.121394 96.455125 191.249964 110.400968 173.670388 127.980544 
C 156.090812 145.56012 142.144969 166.43155 132.630971 189.400373 
C 123.116973 212.369195 118.219844 236.988725 118.219844 261.85 
C 118.219844 286.711275 123.116973 311.330805 132.630971 334.299627 
C 142.144969 357.26845 156.090812 378.13988 173.670388 395.719456 
C 191.249964 413.299032 212.121394 427.244875 235.090216 436.758873 
C 258.059039 446.272871 282.678569 451.17 307.539844 451.17 
C 332.401118 451.17 357.020648 446.272871 379.989471 436.758873 
C 402.958294 427.244875 423.829724 413.299032 441.4093 395.719456 
C 458.988875 378.13988 472.934719 357.26845 482.448717 334.299627 
C 491.962715 311.330805 496.859844 286.711275 496.859844 261.85 
" clip-path="url(#p490e0fe299)" style="fill: none; stroke-dasharray: 2.59,1.12; stroke-dashoffset: 0; stroke: #b0b0b0; stroke-opacity: 0.6; stroke-width: 0.7"/>
     </g>
     <g id="text_10">
      <!-- 0.8 -->
      <g transform="translate(482.448717 187.736623) scale(0.08 -0.08)">
       <defs>
        <path id="DejaVuSans-38" d="M 2034 2216 
Q 1584 2216 1326 1975 
Q 1069 1734 1069 1313 
Q 1069 891 1326 650 
Q 1584 409 2034 409 
Q 2484 409 2743 651 
Q 3003 894 3003 1313 
Q 3003 1734 2745 1975 
Q 2488 2216 2034 2216 
z
M 1403 2484 
Q 997 2584 770 2862 
Q 544 3141 544 3541 
Q 544 4100 942 4425 
Q 1341 4750 2034 4750 
Q 2731 4750 3128 4425 
Q 3525 4100 3525 3541 
Q 3525 3141 3298 2862 
Q 3072 2584 2669 2484 
Q 3125 2378 3379 2068 
Q 3634 1759 3634 1313 
Q 3634 634 3220 271 
Q 2806 -91 2034 -91 
Q 1263 -91 848 271 
Q 434 634 434 1313 
Q 434 1759 690 2068 
Q 947 2378 1403 2484 
z
M 1172 3481 
Q 1172 3119 1398 2916 
Q 1625 2713 2034 2713 
Q 2441 2713 2670 2916 
Q 2900 3119 2900 3481 
Q 2900 3844 2670 4047 
Q 2441 4250 2034 4250 
Q 1625 4250 1398 4047 
Q 1172 3844 1172 3481 
z
" transform="scale(0.015625)"/>
       </defs>
       <use xlink:href="#DejaVuSans-30"/>
       <use xlink:href="#DejaVuSans-2e" x="63.623047"/>
       <use xlink:href="#DejaVuSans-38" x="95.410156"/>
      </g>
     </g>
    </g>
    <g id="ytick_5">
     <g id="line2d_11">
      <path d="M 544.189844 261.85 
C 544.189844 230.773407 538.068432 199.998994 526.175935 171.287966 
C 514.283438 142.576937 496.851133 116.48765 474.876664 94.51318 
C 452.902194 72.53871 426.812906 55.106406 398.101878 43.213909 
C 369.39085 31.321411 338.616437 25.2 307.539844 25.2 
C 276.46325 25.2 245.688838 31.321411 216.977809 43.213909 
C 188.266781 55.106406 162.177494 72.53871 140.203024 94.51318 
C 118.228554 116.48765 100.79625 142.576937 88.903752 171.287966 
C 77.011255 199.998994 70.889844 230.773407 70.889844 261.85 
C 70.889844 292.926593 77.011255 323.701006 88.903752 352.412034 
C 100.79625 381.123063 118.228554 407.21235 140.203024 429.18682 
C 162.177494 451.16129 188.266781 468.593594 216.977809 480.486091 
C 245.688838 492.378589 276.46325 498.5 307.539844 498.5 
C 338.616437 498.5 369.39085 492.378589 398.101878 480.486091 
C 426.812906 468.593594 452.902194 451.16129 474.876664 429.18682 
C 496.851133 407.21235 514.283438 381.123063 526.175935 352.412034 
C 538.068432 323.701006 544.189844 292.926593 544.189844 261.85 
" clip-path="url(#p490e0fe299)" style="fill: none; stroke-dasharray: 2.59,1.12; stroke-dashoffset: 0; stroke: #b0b0b0; stroke-opacity: 0.6; stroke-width: 0.7"/>
     </g>
     <g id="text_11">
      <!-- 1.0 -->
      <g transform="translate(526.175935 169.624216) scale(0.08 -0.08)">
       <defs>
        <path id="DejaVuSans-31" d="M 794 531 
L 1825 531 
L 1825 4091 
L 703 3866 
L 703 4441 
L 1819 4666 
L 2450 4666 
L 2450 531 
L 3481 531 
L 3481 0 
L 794 0 
L 794 531 
z
" transform="scale(0.015625)"/>
       </defs>
       <use xlink:href="#DejaVuSans-31"/>
       <use xlink:href="#DejaVuSans-2e" x="63.623047"/>
       <use xlink:href="#DejaVuSans-30" x="95.410156"/>
      </g>
     </g>
    </g>
   </g>
   <g id="line2d_12">
    <path d="M 544.189844 261.85 
L 386.423177 125.220059 
L 189.214844 56.905088 
L 137.383851 261.85 
L 189.214844 466.794912 
L 425.864844 466.794912 
L 544.189844 261.85 
" clip-path="url(#p490e0fe299)" style="fill: none; stroke: #1f77b4; stroke-width: 3; stroke-linecap: square"/>
   </g>
   <g id="line2d_13">
    <path d="M 454.725357 261.85 
L 425.864844 56.905088 
L 236.544844 138.883053 
L 150.130348 261.85 
L 272.156803 323.135224 
L 388.457014 402.00265 
L 454.725357 261.85 
" clip-path="url(#p490e0fe299)" style="fill: none; stroke: #ff7f0e; stroke-opacity: 0.75; stroke-width: 1.6; stroke-linecap: square"/>
   </g>
   <g id="line2d_14">
    <path d="M 446.499575 261.85 
L 425.864844 56.905088 
L 212.879844 97.894071 
L 86.125376 261.85 
L 297.754364 278.798948 
L 369.917233 369.890808 
L 446.499575 261.85 
" clip-path="url(#p490e0fe299)" style="fill: none; stroke: #2ca02c; stroke-opacity: 0.75; stroke-width: 1.6; stroke-linecap: square"/>
   </g>
   <g id="line2d_15">
    <path d="M 327.763705 261.85 
L 425.864844 56.905088 
L 260.209844 179.872035 
L 307.539844 261.85 
L 252.620971 356.972279 
L 354.630527 343.413456 
L 327.763705 261.85 
" clip-path="url(#p490e0fe299)" style="fill: none; stroke: #d62728; stroke-opacity: 0.75; stroke-width: 1.6; stroke-linecap: square"/>
   </g>
   <g id="line2d_16">
    <path d="M 307.539844 261.85 
L 366.702344 159.377544 
L 283.874844 220.861018 
L 70.889844 261.85 
L 307.539844 261.85 
L 307.539844 261.85 
L 307.539844 261.85 
" clip-path="url(#p490e0fe299)" style="fill: none; stroke: #9467bd; stroke-opacity: 0.75; stroke-width: 1.6; stroke-linecap: square"/>
   </g>
   <g id="line2d_17">
    <path d="M 366.442141 261.85 
L 307.539844 261.85 
L 307.539844 261.85 
L 157.171525 261.85 
L 212.367071 426.694078 
M 366.442141 261.85 
" clip-path="url(#p490e0fe299)" style="fill: none; stroke: #8c564b; stroke-opacity: 0.75; stroke-width: 1.6; stroke-linecap: square"/>
   </g>
   <g id="patch_4">
    <path d="M 544.189844 261.85 
C 544.189844 230.773407 538.068432 199.998994 526.175935 171.287966 
C 514.283438 142.576937 496.851133 116.48765 474.876664 94.51318 
C 452.902194 72.53871 426.812906 55.106406 398.101878 43.213909 
C 369.39085 31.321411 338.616437 25.2 307.539844 25.2 
C 276.46325 25.2 245.688838 31.321411 216.977809 43.213909 
C 188.266781 55.106406 162.177494 72.53871 140.203024 94.51318 
C 118.228554 116.48765 100.79625 142.576937 88.903752 171.287966 
C 77.011255 199.998994 70.889844 230.773407 70.889844 261.85 
C 70.889844 292.926593 77.011255 323.701006 88.903752 352.412034 
C 100.79625 381.123063 118.228554 407.21235 140.203024 429.18682 
C 162.177494 451.16129 188.266781 468.593594 216.977809 480.486091 
C 245.688838 492.378589 276.46325 498.5 307.539844 498.5 
C 338.616437 498.5 369.39085 492.378589 398.101878 480.486091 
C 426.812906 468.593594 452.902194 451.16129 474.876664 429.18682 
C 496.851133 407.21235 514.283438 381.123063 526.175935 352.412034 
C 538.068432 323.701006 544.189844 292.926593 544.189844 261.85 
" style="fill: none; stroke: #000000; stroke-width: 0.8; stroke-linejoin: miter; stroke-linecap: square"/>
   </g>
   <g id="legend_1">
    <g id="line2d_18">
     <path d="M 127.923047 557.618594 
L 136.923047 557.618594 
L 145.923047 557.618594 
" style="fill: none; stroke: #1f77b4; stroke-width: 3; stroke-linecap: square"/>
    </g>
    <g id="text_12">
     <!-- Full model -->
     <g transform="translate(153.123047 560.768594) scale(0.09 -0.09)">
      <defs>
       <path id="DejaVuSans-46" d="M 628 4666 
L 3309 4666 
L 3309 4134 
L 1259 4134 
L 1259 2759 
L 3109 2759 
L 3109 2228 
L 1259 2228 
L 1259 0 
L 628 0 
L 628 4666 
z
" transform="scale(0.015625)"/>
      </defs>
      <use xlink:href="#DejaVuSans-46"/>
      <use xlink:href="#DejaVuSans-75" x="52.019531"/>
      <use xlink:href="#DejaVuSans-6c" x="115.398438"/>
      <use xlink:href="#DejaVuSans-6c" x="143.181641"/>
      <use xlink:href="#DejaVuSans-20" x="170.964844"/>
      <use xlink:href="#DejaVuSans-6d" x="202.751953"/>
      <use xlink:href="#DejaVuSans-6f" x="300.164062"/>
      <use xlink:href="#DejaVuSans-64" x="361.345703"/>
      <use xlink:href="#DejaVuSans-65" x="424.822266"/>
      <use xlink:href="#DejaVuSans-6c" x="486.345703"/>
     </g>
    </g>
    <g id="line2d_19">
     <path d="M 127.923047 570.828906 
L 136.923047 570.828906 
L 145.923047 570.828906 
" style="fill: none; stroke: #ff7f0e; stroke-opacity: 0.75; stroke-width: 1.6; stroke-linecap: square"/>
    </g>
    <g id="text_13">
     <!-- Random selection -->
     <g transform="translate(153.123047 573.978906) scale(0.09 -0.09)">
      <defs>
       <path id="DejaVuSans-52" d="M 2841 2188 
Q 3044 2119 3236 1894 
Q 3428 1669 3622 1275 
L 4263 0 
L 3584 0 
L 2988 1197 
Q 2756 1666 2539 1819 
Q 2322 1972 1947 1972 
L 1259 1972 
L 1259 0 
L 628 0 
L 628 4666 
L 2053 4666 
Q 2853 4666 3247 4331 
Q 3641 3997 3641 3322 
Q 3641 2881 3436 2590 
Q 3231 2300 2841 2188 
z
M 1259 4147 
L 1259 2491 
L 2053 2491 
Q 2509 2491 2742 2702 
Q 2975 2913 2975 3322 
Q 2975 3731 2742 3939 
Q 2509 4147 2053 4147 
L 1259 4147 
z
" transform="scale(0.015625)"/>
      </defs>
      <use xlink:href="#DejaVuSans-52"/>
      <use xlink:href="#DejaVuSans-61" x="67.232422"/>
      <use xlink:href="#DejaVuSans-6e" x="128.511719"/>
      <use xlink:href="#DejaVuSans-64" x="191.890625"/>
      <use xlink:href="#DejaVuSans-6f" x="255.367188"/>
      <use xlink:href="#DejaVuSans-6d" x="316.548828"/>
      <use xlink:href="#DejaVuSans-20" x="413.960938"/>
      <use xlink:href="#DejaVuSans-73" x="445.748047"/>
      <use xlink:href="#DejaVuSans-65" x="497.847656"/>
      <use xlink:href="#DejaVuSans-6c" x="559.371094"/>
      <use xlink:href="#DejaVuSans-65" x="587.154297"/>
      <use xlink:href="#DejaVuSans-63" x="648.677734"/>
      <use xlink:href="#DejaVuSans-74" x="703.658203"/>
      <use xlink:href="#DejaVuSans-69" x="742.867188"/>
      <use xlink:href="#DejaVuSans-6f" x="770.650391"/>
      <use xlink:href="#DejaVuSans-6e" x="831.832031"/>
     </g>
    </g>
    <g id="line2d_20">
     <path d="M 251.692734 557.618594 
L 260.692734 557.618594 
L 269.692734 557.618594 
" style="fill: none; stroke: #2ca02c; stroke-opacity: 0.75; stroke-width: 1.6; stroke-linecap: square"/>
    </g>
    <g id="text_14">
     <!-- Morgan fingerprints -->
     <g transform="translate(276.892734 560.768594) scale(0.09 -0.09)">
      <defs>
       <path id="DejaVuSans-66" d="M 2375 4863 
L 2375 4384 
L 1825 4384 
Q 1516 4384 1395 4259 
Q 1275 4134 1275 3809 
L 1275 3500 
L 2222 3500 
L 2222 3053 
L 1275 3053 
L 1275 0 
L 697 0 
L 697 3053 
L 147 3053 
L 147 3500 
L 697 3500 
L 697 3744 
Q 697 4328 969 4595 
Q 1241 4863 1831 4863 
L 2375 4863 
z
" transform="scale(0.015625)"/>
      </defs>
      <use xlink:href="#DejaVuSans-4d"/>
      <use xlink:href="#DejaVuSans-6f" x="86.279297"/>
      <use xlink:href="#DejaVuSans-72" x="147.460938"/>
      <use xlink:href="#DejaVuSans-67" x="186.824219"/>
      <use xlink:href="#DejaVuSans-61" x="250.300781"/>
      <use xlink:href="#DejaVuSans-6e" x="311.580078"/>
      <use xlink:href="#DejaVuSans-20" x="374.958984"/>
      <use xlink:href="#DejaVuSans-66" x="406.746094"/>
      <use xlink:href="#DejaVuSans-69" x="441.951172"/>
      <use xlink:href="#DejaVuSans-6e" x="469.734375"/>
      <use xlink:href="#DejaVuSans-67" x="533.113281"/>
      <use xlink:href="#DejaVuSans-65" x="596.589844"/>
      <use xlink:href="#DejaVuSans-72" x="658.113281"/>
      <use xlink:href="#DejaVuSans-70" x="699.226562"/>
      <use xlink:href="#DejaVuSans-72" x="762.703125"/>
      <use xlink:href="#DejaVuSans-69" x="803.816406"/>
      <use xlink:href="#DejaVuSans-6e" x="831.599609"/>
      <use xlink:href="#DejaVuSans-74" x="894.978516"/>
      <use xlink:href="#DejaVuSans-73" x="934.1875"/>
     </g>
    </g>
    <g id="line2d_21">
     <path d="M 251.692734 570.828906 
L 260.692734 570.828906 
L 269.692734 570.828906 
" style="fill: none; stroke: #d62728; stroke-opacity: 0.75; stroke-width: 1.6; stroke-linecap: square"/>
    </g>
    <g id="text_15">
     <!-- w/o EMA -->
     <g transform="translate(276.892734 573.978906) scale(0.09 -0.09)">
      <defs>
       <path id="DejaVuSans-2f" d="M 1625 4666 
L 2156 4666 
L 531 -594 
L 0 -594 
L 1625 4666 
z
" transform="scale(0.015625)"/>
       <path id="DejaVuSans-41" d="M 2188 4044 
L 1331 1722 
L 3047 1722 
L 2188 4044 
z
M 1831 4666 
L 2547 4666 
L 4325 0 
L 3669 0 
L 3244 1197 
L 1141 1197 
L 716 0 
L 50 0 
L 1831 4666 
z
" transform="scale(0.015625)"/>
      </defs>
      <use xlink:href="#DejaVuSans-77"/>
      <use xlink:href="#DejaVuSans-2f" x="81.787109"/>
      <use xlink:href="#DejaVuSans-6f" x="115.478516"/>
      <use xlink:href="#DejaVuSans-20" x="176.660156"/>
      <use xlink:href="#DejaVuSans-45" x="208.447266"/>
      <use xlink:href="#DejaVuSans-4d" x="271.630859"/>
      <use xlink:href="#DejaVuSans-41" x="357.910156"/>
     </g>
    </g>
    <g id="line2d_22">
     <path d="M 383.658047 557.618594 
L 392.658047 557.618594 
L 401.658047 557.618594 
" style="fill: none; stroke: #9467bd; stroke-opacity: 0.75; stroke-width: 1.6; stroke-linecap: square"/>
    </g>
    <g id="text_16">
     <!-- w/o decorrelation -->
     <g transform="translate(408.858047 560.768594) scale(0.09 -0.09)">
      <use xlink:href="#DejaVuSans-77"/>
      <use xlink:href="#DejaVuSans-2f" x="81.787109"/>
      <use xlink:href="#DejaVuSans-6f" x="115.478516"/>
      <use xlink:href="#DejaVuSans-20" x="176.660156"/>
      <use xlink:href="#DejaVuSans-64" x="208.447266"/>
      <use xlink:href="#DejaVuSans-65" x="271.923828"/>
      <use xlink:href="#DejaVuSans-63" x="333.447266"/>
      <use xlink:href="#DejaVuSans-6f" x="388.427734"/>
      <use xlink:href="#DejaVuSans-72" x="449.609375"/>
      <use xlink:href="#DejaVuSans-72" x="488.972656"/>
      <use xlink:href="#DejaVuSans-65" x="527.835938"/>
      <use xlink:href="#DejaVuSans-6c" x="589.359375"/>
      <use xlink:href="#DejaVuSans-61" x="617.142578"/>
      <use xlink:href="#DejaVuSans-74" x="678.421875"/>
      <use xlink:href="#DejaVuSans-69" x="717.630859"/>
      <use xlink:href="#DejaVuSans-6f" x="745.414062"/>
      <use xlink:href="#DejaVuSans-6e" x="806.595703"/>
     </g>
    </g>
    <g id="line2d_23">
     <path d="M 383.658047 570.828906 
L 392.658047 570.828906 
L 401.658047 570.828906 
" style="fill: none; stroke: #8c564b; stroke-opacity: 0.75; stroke-width: 1.6; stroke-linecap: square"/>
    </g>
    <g id="text_17">
     <!-- w/o top-K -->
     <g transform="translate(408.858047 573.978906) scale(0.09 -0.09)">
      <defs>
       <path id="DejaVuSans-4b" d="M 628 4666 
L 1259 4666 
L 1259 2694 
L 3353 4666 
L 4166 4666 
L 1850 2491 
L 4331 0 
L 3500 0 
L 1259 2247 
L 1259 0 
L 628 0 
L 628 4666 
z
" transform="scale(0.015625)"/>
      </defs>
      <use xlink:href="#DejaVuSans-77"/>
      <use xlink:href="#DejaVuSans-2f" x="81.787109"/>
      <use xlink:href="#DejaVuSans-6f" x="115.478516"/>
      <use xlink:href="#DejaVuSans-20" x="176.660156"/>
      <use xlink:href="#DejaVuSans-74" x="208.447266"/>
      <use xlink:href="#DejaVuSans-6f" x="247.65625"/>
      <use xlink:href="#DejaVuSans-70" x="308.837891"/>
      <use xlink:href="#DejaVuSans-2d" x="372.314453"/>
      <use xlink:href="#DejaVuSans-4b" x="408.398438"/>
     </g>
    </g>
   </g>
  </g>
 </g>
 <defs>
  <clipPath id="p490e0fe299">
   <path d="M 544.189844 261.85 
C 544.189844 230.773407 538.068432 199.998994 526.175935 171.287966 
C 514.283438 142.576937 496.851133 116.48765 474.876664 94.51318 
C 452.902194 72.53871 426.812906 55.106406 398.101878 43.213909 
C 369.39085 31.321411 338.616437 25.2 307.539844 25.2 
C 276.46325 25.2 245.688838 31.321411 216.977809 43.213909 
C 188.266781 55.106406 162.177494 72.53871 140.203024 94.51318 
C 118.228554 116.48765 100.79625 142.576937 88.903752 171.287966 
C 77.011255 199.998994 70.889844 230.773407 70.889844 261.85 
C 70.889844 292.926593 77.011255 323.701006 88.903752 352.412034 
C 100.79625 381.123063 118.228554 407.21235 140.203024 429.18682 
C 162.177494 451.16129 188.266781 468.593594 216.977809 480.486091 
C 245.688838 492.378589 276.46325 498.5 307.539844 498.5 
C 338.616437 498.5 369.39085 492.378589 398.101878 480.486091 
C 426.812906 468.593594 452.902194 451.16129 474.876664 429.18682 
C 496.851133 407.21235 514.283438 381.123063 526.175935 352.412034 
C 538.068432 323.701006 544.189844 292.926593 544.189844 261.85 
M 307.539844 261.85 
C 307.539844 261.85 307.539844 261.85 307.539844 261.85 
C 307.539844 261.85 307.539844 261.85 307.539844 261.85 
C 307.539844 261.85 307.539844 261.85 307.539844 261.85 
C 307.539844 261.85 307.539844 261.85 307.539844 261.85 
C 307.539844 261.85 307.539844 261.85 307.539844 261.85 
C 307.539844 261.85 307.539844 261.85 307.539844 261.85 
C 307.539844 261.85 307.539844 261.85 307.539844 261.85 
C 307.539844 261.85 307.539844 261.85 307.539844 261.85 
C 307.539844 261.85 307.539844 261.85 307.539844 261.85 
C 307.539844 261.85 307.539844 261.85 307.539844 261.85 
C 307.539844 261.85 307.539844 261.85 307.539844 261.85 
C 307.539844 261.85 307.539844 261.85 307.539844 261.85 
C 307.539844 261.85 307.539844 261.85 307.539844 261.85 
C 307.539844 261.85 307.539844 261.85 307.539844 261.85 
C 307.539844 261.85 307.539844 261.85 307.539844 261.85 
C 307.539844 261.85 307.539844 261.85 307.539844 261.85 
z
"/>
  </clipPath>
 </defs>
</svg>
