<?xml version="1.0" encoding="utf-8" standalone="no"?>
<!DOCTYPE svg PUBLIC "-//W3C//DTD SVG 1.1//EN"
  "http://www.w3.org/Graphics/SVG/1.1/DTD/svg11.dtd">
<svg xmlns:xlink="http://www.w3.org/1999/xlink" width="581.617375pt" height="602.59005pt" viewBox="0 0 581.617375 602.59005" xmlns="http://www.w3.org/2000/svg" version="1.1">
 <metadata>
  <rdf:RDF xmlns:dc="http://purl.org/dc/elements/1.1/" xmlns:cc="http://creativecommons.org/ns#" xmlns:rdf="http://www.w3.org/1999/02/22-rdf-syntax-ns#">
   <cc:Work>
    <dc:type rdf:resource="http://purl.org/dc/dcmitype/StillImage"/>
    <dc:date>2026-05-14T15:51:42.914591</dc:date>
    <dc:format>image/svg+xml</dc:format>
    <dc:creator>
     <cc:Agent>
      <dc:title>Matplotlib v3.9.4, https://matplotlib.org/</dc:title>
     </cc:Agent>
    </dc:creator>
   </cc:Work>
  </rdf:RDF>
 </metadata>
 <defs>
  <style type="text/css">*{stroke-linejoin: round; stroke-linecap: butt}</style>
 </defs>
 <g id="figure_1">
  <g id="patch_1">
   <path d="M 0 602.59005 
L 581.617375 602.59005 
L 581.617375 0 
L 0 0 
z
" style="fill: #ffffff"/>
  </g>
  <g id="axes_1">
   <g id="patch_2">
    <path d="M 518.297844 248.904 
C 518.297844 219.52746 512.511306 190.43657 501.269391 163.296185 
C 490.027475 136.155801 473.54881 111.493735 452.776459 90.721385 
C 432.004108 69.949034 407.342042 53.470368 380.201658 42.228453 
C 353.061274 30.986538 323.970384 25.2 294.593844 25.2 
C 265.217304 25.2 236.126413 30.986538 208.986029 42.228453 
C 181.845645 53.470368 157.183579 69.949034 136.411228 90.721385 
C 115.638878 111.493735 99.160212 136.155801 87.918297 163.296185 
C 76.676382 190.43657 70.889844 219.52746 70.889844 248.904 
C 70.889844 278.28054 76.676382 307.37143 87.918297 334.511815 
C 99.160212 361.652199 115.638878 386.314265 136.411228 407.086615 
C 157.183579 427.858966 181.845645 444.337632 208.986029 455.579547 
C 236.126413 466.821462 265.217304 472.608 294.593844 472.608 
C 323.970384 472.608 353.061274 466.821462 380.201658 455.579547 
C 407.342042 444.337632 432.004108 427.858966 452.776459 407.086615 
C 473.54881 386.314265 490.027475 361.652199 501.269391 334.511815 
C 512.511306 307.37143 518.297844 278.28054 518.297844 248.904 
M 294.593844 248.904 
C 294.593844 248.904 294.593844 248.904 294.593844 248.904 
C 294.593844 248.904 294.593844 248.904 294.593844 248.904 
C 294.593844 248.904 294.593844 248.904 294.593844 248.904 
C 294.593844 248.904 294.593844 248.904 294.593844 248.904 
C 294.593844 248.904 294.593844 248.904 294.593844 248.904 
C 294.593844 248.904 294.593844 248.904 294.593844 248.904 
C 294.593844 248.904 294.593844 248.904 294.593844 248.904 
C 294.593844 248.904 294.593844 248.904 294.593844 248.904 
C 294.593844 248.904 294.593844 248.904 294.593844 248.904 
C 294.593844 248.904 294.593844 248.904 294.593844 248.904 
C 294.593844 248.904 294.593844 248.904 294.593844 248.904 
C 294.593844 248.904 294.593844 248.904 294.593844 248.904 
C 294.593844 248.904 294.593844 248.904 294.593844 248.904 
C 294.593844 248.904 294.593844 248.904 294.593844 248.904 
C 294.593844 248.904 294.593844 248.904 294.593844 248.904 
C 294.593844 248.904 294.593844 248.904 294.593844 248.904 
z
" style="fill: #ffffff"/>
   </g>
   <g id="patch_3">
    <path d="M 518.297844 248.904 
L 369.161844 119.748435 
L 182.741844 55.170653 
L 129.622092 248.904 
L 182.741844 442.637347 
L 406.445844 442.637347 
z
" clip-path="url(#p43fe787537)" style="fill: #1f77b4; opacity: 0.1"/>
   </g>
   <g id="matplotlib.axis_1">
    <g id="xtick_1">
     <g id="line2d_1">
      <path d="M 294.593844 248.904 
L 518.297844 248.904 
" clip-path="url(#p43fe787537)" style="fill: none; stroke-dasharray: 2.59,1.12; stroke-dashoffset: 0; stroke: #b0b0b0; stroke-opacity: 0.6; stroke-width: 0.7"/>
     </g>
     <g id="text_1">
      <!-- Prototype -->
      <g transform="translate(508.178312 246.064469) scale(0.1 -0.1)">
       <defs>
        <path id="DejaVuSans-50" d="M 1259 4147 
L 1259 2394 
L 2053 2394 
Q 2494 2394 2734 2622 
Q 2975 2850 2975 3272 
Q 2975 3691 2734 3919 
Q 2494 4147 2053 4147 
L 1259 4147 
z
M 628 4666 
L 2053 4666 
Q 2838 4666 3239 4311 
Q 3641 3956 3641 3272 
Q 3641 2581 3239 2228 
Q 2838 1875 2053 1875 
L 1259 1875 
L 1259 0 
L 628 0 
L 628 4666 
z
" transform="scale(0.015625)"/>
        <path id="DejaVuSans-72" d="M 2631 2963 
Q 2534 3019 2420 3045 
Q 2306 3072 2169 3072 
Q 1681 3072 1420 2755 
Q 1159 2438 1159 1844 
L 1159 0 
L 581 0 
L 581 3500 
L 1159 3500 
L 1159 2956 
Q 1341 3275 1631 3429 
Q 1922 3584 2338 3584 
Q 2397 3584 2469 3576 
Q 2541 3569 2628 3553 
L 2631 2963 
z
" transform="scale(0.015625)"/>
        <path id="DejaVuSans-6f" d="M 1959 3097 
Q 1497 3097 1228 2736 
Q 959 2375 959 1747 
Q 959 1119 1226 758 
Q 1494 397 1959 397 
Q 2419 397 2687 759 
Q 2956 1122 2956 1747 
Q 2956 2369 2687 2733 
Q 2419 3097 1959 3097 
z
M 1959 3584 
Q 2709 3584 3137 3096 
Q 3566 2609 3566 1747 
Q 3566 888 3137 398 
Q 2709 -91 1959 -91 
Q 1206 -91 779 398 
Q 353 888 353 1747 
Q 353 2609 779 3096 
Q 1206 3584 1959 3584 
z
" transform="scale(0.015625)"/>
        <path id="DejaVuSans-74" d="M 1172 4494 
L 1172 3500 
L 2356 3500 
L 2356 3053 
L 1172 3053 
L 1172 1153 
Q 1172 725 1289 603 
Q 1406 481 1766 481 
L 2356 481 
L 2356 0 
L 1766 0 
Q 1100 0 847 248 
Q 594 497 594 1153 
L 594 3053 
L 172 3053 
L 172 3500 
L 594 3500 
L 594 4494 
L 1172 4494 
z
" transform="scale(0.015625)"/>
        <path id="DejaVuSans-79" d="M 2059 -325 
Q 1816 -950 1584 -1140 
Q 1353 -1331 966 -1331 
L 506 -1331 
L 506 -850 
L 844 -850 
Q 1081 -850 1212 -737 
Q 1344 -625 1503 -206 
L 1606 56 
L 191 3500 
L 800 3500 
L 1894 763 
L 2988 3500 
L 3597 3500 
L 2059 -325 
z
" transform="scale(0.015625)"/>
        <path id="DejaVuSans-70" d="M 1159 525 
L 1159 -1331 
L 581 -1331 
L 581 3500 
L 1159 3500 
L 1159 2969 
Q 1341 3281 1617 3432 
Q 1894 3584 2278 3584 
Q 2916 3584 3314 3078 
Q 3713 2572 3713 1747 
Q 3713 922 3314 415 
Q 2916 -91 2278 -91 
Q 1894 -91 1617 61 
Q 1341 213 1159 525 
z
M 3116 1747 
Q 3116 2381 2855 2742 
Q 2594 3103 2138 3103 
Q 1681 3103 1420 2742 
Q 1159 2381 1159 1747 
Q 1159 1113 1420 752 
Q 1681 391 2138 391 
Q 2594 391 2855 752 
Q 3116 1113 3116 1747 
z
" transform="scale(0.015625)"/>
        <path id="DejaVuSans-65" d="M 3597 1894 
L 3597 1613 
L 953 1613 
Q 991 1019 1311 708 
Q 1631 397 2203 397 
Q 2534 397 2845 478 
Q 3156 559 3463 722 
L 3463 178 
Q 3153 47 2828 -22 
Q 2503 -91 2169 -91 
Q 1331 -91 842 396 
Q 353 884 353 1716 
Q 353 2575 817 3079 
Q 1281 3584 2069 3584 
Q 2775 3584 3186 3129 
Q 3597 2675 3597 1894 
z
M 3022 2063 
Q 3016 2534 2758 2815 
Q 2500 3097 2075 3097 
Q 1594 3097 1305 2825 
Q 1016 2553 972 2059 
L 3022 2063 
z
" transform="scale(0.015625)"/>
       </defs>
       <use xlink:href="#DejaVuSans-50"/>
       <use xlink:href="#DejaVuSans-72" x="58.552734"/>
       <use xlink:href="#DejaVuSans-6f" x="97.416016"/>
       <use xlink:href="#DejaVuSans-74" x="158.597656"/>
       <use xlink:href="#DejaVuSans-6f" x="197.806641"/>
       <use xlink:href="#DejaVuSans-74" x="258.988281"/>
       <use xlink:href="#DejaVuSans-79" x="298.197266"/>
       <use xlink:href="#DejaVuSans-70" x="357.376953"/>
       <use xlink:href="#DejaVuSans-65" x="420.853516"/>
      </g>
      <!-- similarity -->
      <g transform="translate(509.227531 257.262281) scale(0.1 -0.1)">
       <defs>
        <path id="DejaVuSans-73" d="M 2834 3397 
L 2834 2853 
Q 2591 2978 2328 3040 
Q 2066 3103 1784 3103 
Q 1356 3103 1142 2972 
Q 928 2841 928 2578 
Q 928 2378 1081 2264 
Q 1234 2150 1697 2047 
L 1894 2003 
Q 2506 1872 2764 1633 
Q 3022 1394 3022 966 
Q 3022 478 2636 193 
Q 2250 -91 1575 -91 
Q 1294 -91 989 -36 
Q 684 19 347 128 
L 347 722 
Q 666 556 975 473 
Q 1284 391 1588 391 
Q 1994 391 2212 530 
Q 2431 669 2431 922 
Q 2431 1156 2273 1281 
Q 2116 1406 1581 1522 
L 1381 1569 
Q 847 1681 609 1914 
Q 372 2147 372 2553 
Q 372 3047 722 3315 
Q 1072 3584 1716 3584 
Q 2034 3584 2315 3537 
Q 2597 3491 2834 3397 
z
" transform="scale(0.015625)"/>
        <path id="DejaVuSans-69" d="M 603 3500 
L 1178 3500 
L 1178 0 
L 603 0 
L 603 3500 
z
M 603 4863 
L 1178 4863 
L 1178 4134 
L 603 4134 
L 603 4863 
z
" transform="scale(0.015625)"/>
        <path id="DejaVuSans-6d" d="M 3328 2828 
Q 3544 3216 3844 3400 
Q 4144 3584 4550 3584 
Q 5097 3584 5394 3201 
Q 5691 2819 5691 2113 
L 5691 0 
L 5113 0 
L 5113 2094 
Q 5113 2597 4934 2840 
Q 4756 3084 4391 3084 
Q 3944 3084 3684 2787 
Q 3425 2491 3425 1978 
L 3425 0 
L 2847 0 
L 2847 2094 
Q 2847 2600 2669 2842 
Q 2491 3084 2119 3084 
Q 1678 3084 1418 2786 
Q 1159 2488 1159 1978 
L 1159 0 
L 581 0 
L 581 3500 
L 1159 3500 
L 1159 2956 
Q 1356 3278 1631 3431 
Q 1906 3584 2284 3584 
Q 2666 3584 2933 3390 
Q 3200 3197 3328 2828 
z
" transform="scale(0.015625)"/>
        <path id="DejaVuSans-6c" d="M 603 4863 
L 1178 4863 
L 1178 0 
L 603 0 
L 603 4863 
z
" transform="scale(0.015625)"/>
        <path id="DejaVuSans-61" d="M 2194 1759 
Q 1497 1759 1228 1600 
Q 959 1441 959 1056 
Q 959 750 1161 570 
Q 1363 391 1709 391 
Q 2188 391 2477 730 
Q 2766 1069 2766 1631 
L 2766 1759 
L 2194 1759 
z
M 3341 1997 
L 3341 0 
L 2766 0 
L 2766 531 
Q 2569 213 2275 61 
Q 1981 -91 1556 -91 
Q 1019 -91 701 211 
Q 384 513 384 1019 
Q 384 1609 779 1909 
Q 1175 2209 1959 2209 
L 2766 2209 
L 2766 2266 
Q 2766 2663 2505 2880 
Q 2244 3097 1772 3097 
Q 1472 3097 1187 3025 
Q 903 2953 641 2809 
L 641 3341 
Q 956 3463 1253 3523 
Q 1550 3584 1831 3584 
Q 2591 3584 2966 3190 
Q 3341 2797 3341 1997 
z
" transform="scale(0.015625)"/>
       </defs>
       <use xlink:href="#DejaVuSans-73"/>
       <use xlink:href="#DejaVuSans-69" x="52.099609"/>
       <use xlink:href="#DejaVuSans-6d" x="79.882812"/>
       <use xlink:href="#DejaVuSans-69" x="177.294922"/>
       <use xlink:href="#DejaVuSans-6c" x="205.078125"/>
       <use xlink:href="#DejaVuSans-61" x="232.861328"/>
       <use xlink:href="#DejaVuSans-72" x="294.140625"/>
       <use xlink:href="#DejaVuSans-69" x="335.253906"/>
       <use xlink:href="#DejaVuSans-74" x="363.037109"/>
       <use xlink:href="#DejaVuSans-79" x="402.246094"/>
      </g>
     </g>
    </g>
    <g id="xtick_2">
     <g id="line2d_2">
      <path d="M 294.593844 248.904 
L 406.445844 55.170653 
" clip-path="url(#p43fe787537)" style="fill: none; stroke-dasharray: 2.59,1.12; stroke-dashoffset: 0; stroke: #b0b0b0; stroke-opacity: 0.6; stroke-width: 0.7"/>
     </g>
     <g id="text_2">
      <!-- Prototype -->
      <g transform="translate(389.326312 40.206766) scale(0.1 -0.1)">
       <use xlink:href="#DejaVuSans-50"/>
       <use xlink:href="#DejaVuSans-72" x="58.552734"/>
       <use xlink:href="#DejaVuSans-6f" x="97.416016"/>
       <use xlink:href="#DejaVuSans-74" x="158.597656"/>
       <use xlink:href="#DejaVuSans-6f" x="197.806641"/>
       <use xlink:href="#DejaVuSans-74" x="258.988281"/>
       <use xlink:href="#DejaVuSans-79" x="298.197266"/>
       <use xlink:href="#DejaVuSans-70" x="357.376953"/>
       <use xlink:href="#DejaVuSans-65" x="420.853516"/>
      </g>
      <!-- coverage -->
      <g transform="translate(390.231 51.404579) scale(0.1 -0.1)">
       <defs>
        <path id="DejaVuSans-63" d="M 3122 3366 
L 3122 2828 
Q 2878 2963 2633 3030 
Q 2388 3097 2138 3097 
Q 1578 3097 1268 2742 
Q 959 2388 959 1747 
Q 959 1106 1268 751 
Q 1578 397 2138 397 
Q 2388 397 2633 464 
Q 2878 531 3122 666 
L 3122 134 
Q 2881 22 2623 -34 
Q 2366 -91 2075 -91 
Q 1284 -91 818 406 
Q 353 903 353 1747 
Q 353 2603 823 3093 
Q 1294 3584 2113 3584 
Q 2378 3584 2631 3529 
Q 2884 3475 3122 3366 
z
" transform="scale(0.015625)"/>
        <path id="DejaVuSans-76" d="M 191 3500 
L 800 3500 
L 1894 563 
L 2988 3500 
L 3597 3500 
L 2284 0 
L 1503 0 
L 191 3500 
z
" transform="scale(0.015625)"/>
        <path id="DejaVuSans-67" d="M 2906 1791 
Q 2906 2416 2648 2759 
Q 2391 3103 1925 3103 
Q 1463 3103 1205 2759 
Q 947 2416 947 1791 
Q 947 1169 1205 825 
Q 1463 481 1925 481 
Q 2391 481 2648 825 
Q 2906 1169 2906 1791 
z
M 3481 434 
Q 3481 -459 3084 -895 
Q 2688 -1331 1869 -1331 
Q 1566 -1331 1297 -1286 
Q 1028 -1241 775 -1147 
L 775 -588 
Q 1028 -725 1275 -790 
Q 1522 -856 1778 -856 
Q 2344 -856 2625 -561 
Q 2906 -266 2906 331 
L 2906 616 
Q 2728 306 2450 153 
Q 2172 0 1784 0 
Q 1141 0 747 490 
Q 353 981 353 1791 
Q 353 2603 747 3093 
Q 1141 3584 1784 3584 
Q 2172 3584 2450 3431 
Q 2728 3278 2906 2969 
L 2906 3500 
L 3481 3500 
L 3481 434 
z
" transform="scale(0.015625)"/>
       </defs>
       <use xlink:href="#DejaVuSans-63"/>
       <use xlink:href="#DejaVuSans-6f" x="54.980469"/>
       <use xlink:href="#DejaVuSans-76" x="116.162109"/>
       <use xlink:href="#DejaVuSans-65" x="175.341797"/>
       <use xlink:href="#DejaVuSans-72" x="236.865234"/>
       <use xlink:href="#DejaVuSans-61" x="277.978516"/>
       <use xlink:href="#DejaVuSans-67" x="339.257812"/>
       <use xlink:href="#DejaVuSans-65" x="402.734375"/>
      </g>
     </g>
    </g>
    <g id="xtick_3">
     <g id="line2d_3">
      <path d="M 294.593844 248.904 
L 182.741844 55.170653 
" clip-path="url(#p43fe787537)" style="fill: none; stroke-dasharray: 2.59,1.12; stroke-dashoffset: 0; stroke: #b0b0b0; stroke-opacity: 0.6; stroke-width: 0.7"/>
     </g>
     <g id="text_3">
      <!-- Entropy-weighted -->
      <g transform="translate(131.492625 40.206766) scale(0.1 -0.1)">
       <defs>
        <path id="DejaVuSans-45" d="M 628 4666 
L 3578 4666 
L 3578 4134 
L 1259 4134 
L 1259 2753 
L 3481 2753 
L 3481 2222 
L 1259 2222 
L 1259 531 
L 3634 531 
L 3634 0 
L 628 0 
L 628 4666 
z
" transform="scale(0.015625)"/>
        <path id="DejaVuSans-6e" d="M 3513 2113 
L 3513 0 
L 2938 0 
L 2938 2094 
Q 2938 2591 2744 2837 
Q 2550 3084 2163 3084 
Q 1697 3084 1428 2787 
Q 1159 2491 1159 1978 
L 1159 0 
L 581 0 
L 581 3500 
L 1159 3500 
L 1159 2956 
Q 1366 3272 1645 3428 
Q 1925 3584 2291 3584 
Q 2894 3584 3203 3211 
Q 3513 2838 3513 2113 
z
" transform="scale(0.015625)"/>
        <path id="DejaVuSans-2d" d="M 313 2009 
L 1997 2009 
L 1997 1497 
L 313 1497 
L 313 2009 
z
" transform="scale(0.015625)"/>
        <path id="DejaVuSans-77" d="M 269 3500 
L 844 3500 
L 1563 769 
L 2278 3500 
L 2956 3500 
L 3675 769 
L 4391 3500 
L 4966 3500 
L 4050 0 
L 3372 0 
L 2619 2869 
L 1863 0 
L 1184 0 
L 269 3500 
z
" transform="scale(0.015625)"/>
        <path id="DejaVuSans-68" d="M 3513 2113 
L 3513 0 
L 2938 0 
L 2938 2094 
Q 2938 2591 2744 2837 
Q 2550 3084 2163 3084 
Q 1697 3084 1428 2787 
Q 1159 2491 1159 1978 
L 1159 0 
L 581 0 
L 581 4863 
L 1159 4863 
L 1159 2956 
Q 1366 3272 1645 3428 
Q 1925 3584 2291 3584 
Q 2894 3584 3203 3211 
Q 3513 2838 3513 2113 
z
" transform="scale(0.015625)"/>
        <path id="DejaVuSans-64" d="M 2906 2969 
L 2906 4863 
L 3481 4863 
L 3481 0 
L 2906 0 
L 2906 525 
Q 2725 213 2448 61 
Q 2172 -91 1784 -91 
Q 1150 -91 751 415 
Q 353 922 353 1747 
Q 353 2572 751 3078 
Q 1150 3584 1784 3584 
Q 2172 3584 2448 3432 
Q 2725 3281 2906 2969 
z
M 947 1747 
Q 947 1113 1208 752 
Q 1469 391 1925 391 
Q 2381 391 2643 752 
Q 2906 1113 2906 1747 
Q 2906 2381 2643 2742 
Q 2381 3103 1925 3103 
Q 1469 3103 1208 2742 
Q 947 2381 947 1747 
z
" transform="scale(0.015625)"/>
       </defs>
       <use xlink:href="#DejaVuSans-45"/>
       <use xlink:href="#DejaVuSans-6e" x="63.183594"/>
       <use xlink:href="#DejaVuSans-74" x="126.5625"/>
       <use xlink:href="#DejaVuSans-72" x="165.771484"/>
       <use xlink:href="#DejaVuSans-6f" x="204.634766"/>
       <use xlink:href="#DejaVuSans-70" x="265.816406"/>
       <use xlink:href="#DejaVuSans-79" x="329.292969"/>
       <use xlink:href="#DejaVuSans-2d" x="386.722656"/>
       <use xlink:href="#DejaVuSans-77" x="422.806641"/>
       <use xlink:href="#DejaVuSans-65" x="504.59375"/>
       <use xlink:href="#DejaVuSans-69" x="566.117188"/>
       <use xlink:href="#DejaVuSans-67" x="593.900391"/>
       <use xlink:href="#DejaVuSans-68" x="657.376953"/>
       <use xlink:href="#DejaVuSans-74" x="720.755859"/>
       <use xlink:href="#DejaVuSans-65" x="759.964844"/>
       <use xlink:href="#DejaVuSans-64" x="821.488281"/>
      </g>
      <!-- assignment rank -->
      <g transform="translate(133.887937 51.404579) scale(0.1 -0.1)">
       <defs>
        <path id="DejaVuSans-20" transform="scale(0.015625)"/>
        <path id="DejaVuSans-6b" d="M 581 4863 
L 1159 4863 
L 1159 1991 
L 2875 3500 
L 3609 3500 
L 1753 1863 
L 3688 0 
L 2938 0 
L 1159 1709 
L 1159 0 
L 581 0 
L 581 4863 
z
" transform="scale(0.015625)"/>
       </defs>
       <use xlink:href="#DejaVuSans-61"/>
       <use xlink:href="#DejaVuSans-73" x="61.279297"/>
       <use xlink:href="#DejaVuSans-73" x="113.378906"/>
       <use xlink:href="#DejaVuSans-69" x="165.478516"/>
       <use xlink:href="#DejaVuSans-67" x="193.261719"/>
       <use xlink:href="#DejaVuSans-6e" x="256.738281"/>
       <use xlink:href="#DejaVuSans-6d" x="320.117188"/>
       <use xlink:href="#DejaVuSans-65" x="417.529297"/>
       <use xlink:href="#DejaVuSans-6e" x="479.052734"/>
       <use xlink:href="#DejaVuSans-74" x="542.431641"/>
       <use xlink:href="#DejaVuSans-20" x="581.640625"/>
       <use xlink:href="#DejaVuSans-72" x="613.427734"/>
       <use xlink:href="#DejaVuSans-61" x="654.541016"/>
       <use xlink:href="#DejaVuSans-6e" x="715.820312"/>
       <use xlink:href="#DejaVuSans-6b" x="779.199219"/>
      </g>
     </g>
    </g>
    <g id="xtick_4">
     <g id="line2d_4">
      <path d="M 294.593844 248.904 
L 70.889844 248.904 
" clip-path="url(#p43fe787537)" style="fill: none; stroke-dasharray: 2.59,1.12; stroke-dashoffset: 0; stroke: #b0b0b0; stroke-opacity: 0.6; stroke-width: 0.7"/>
     </g>
     <g id="text_4">
      <!-- Moderate -->
      <g transform="translate(33.109375 246.064469) scale(0.1 -0.1)">
       <defs>
        <path id="DejaVuSans-4d" d="M 628 4666 
L 1569 4666 
L 2759 1491 
L 3956 4666 
L 4897 4666 
L 4897 0 
L 4281 0 
L 4281 4097 
L 3078 897 
L 2444 897 
L 1241 4097 
L 1241 0 
L 628 0 
L 628 4666 
z
" transform="scale(0.015625)"/>
       </defs>
       <use xlink:href="#DejaVuSans-4d"/>
       <use xlink:href="#DejaVuSans-6f" x="86.279297"/>
       <use xlink:href="#DejaVuSans-64" x="147.460938"/>
       <use xlink:href="#DejaVuSans-65" x="210.9375"/>
       <use xlink:href="#DejaVuSans-72" x="272.460938"/>
       <use xlink:href="#DejaVuSans-61" x="313.574219"/>
       <use xlink:href="#DejaVuSans-74" x="374.853516"/>
       <use xlink:href="#DejaVuSans-65" x="414.0625"/>
      </g>
      <!-- novelty ratio -->
      <g transform="translate(25.2 257.262281) scale(0.1 -0.1)">
       <use xlink:href="#DejaVuSans-6e"/>
       <use xlink:href="#DejaVuSans-6f" x="63.378906"/>
       <use xlink:href="#DejaVuSans-76" x="124.560547"/>
       <use xlink:href="#DejaVuSans-65" x="183.740234"/>
       <use xlink:href="#DejaVuSans-6c" x="245.263672"/>
       <use xlink:href="#DejaVuSans-74" x="273.046875"/>
       <use xlink:href="#DejaVuSans-79" x="312.255859"/>
       <use xlink:href="#DejaVuSans-20" x="371.435547"/>
       <use xlink:href="#DejaVuSans-72" x="403.222656"/>
       <use xlink:href="#DejaVuSans-61" x="444.335938"/>
       <use xlink:href="#DejaVuSans-74" x="505.615234"/>
       <use xlink:href="#DejaVuSans-69" x="544.824219"/>
       <use xlink:href="#DejaVuSans-6f" x="572.607422"/>
      </g>
     </g>
    </g>
    <g id="xtick_5">
     <g id="line2d_5">
      <path d="M 294.593844 248.904 
L 182.741844 442.637347 
" clip-path="url(#p43fe787537)" style="fill: none; stroke-dasharray: 2.59,1.12; stroke-dashoffset: 0; stroke: #b0b0b0; stroke-opacity: 0.6; stroke-width: 0.7"/>
     </g>
     <g id="text_5">
      <!-- Candidate -->
      <g transform="translate(150.179344 451.922171) scale(0.1 -0.1)">
       <defs>
        <path id="DejaVuSans-43" d="M 4122 4306 
L 4122 3641 
Q 3803 3938 3442 4084 
Q 3081 4231 2675 4231 
Q 1875 4231 1450 3742 
Q 1025 3253 1025 2328 
Q 1025 1406 1450 917 
Q 1875 428 2675 428 
Q 3081 428 3442 575 
Q 3803 722 4122 1019 
L 4122 359 
Q 3791 134 3420 21 
Q 3050 -91 2638 -91 
Q 1578 -91 968 557 
Q 359 1206 359 2328 
Q 359 3453 968 4101 
Q 1578 4750 2638 4750 
Q 3056 4750 3426 4639 
Q 3797 4528 4122 4306 
z
" transform="scale(0.015625)"/>
       </defs>
       <use xlink:href="#DejaVuSans-43"/>
       <use xlink:href="#DejaVuSans-61" x="69.824219"/>
       <use xlink:href="#DejaVuSans-6e" x="131.103516"/>
       <use xlink:href="#DejaVuSans-64" x="194.482422"/>
       <use xlink:href="#DejaVuSans-69" x="257.958984"/>
       <use xlink:href="#DejaVuSans-64" x="285.742188"/>
       <use xlink:href="#DejaVuSans-61" x="349.21875"/>
       <use xlink:href="#DejaVuSans-74" x="410.498047"/>
       <use xlink:href="#DejaVuSans-65" x="449.707031"/>
      </g>
      <!-- diversity -->
      <g transform="translate(154.173875 463.119984) scale(0.1 -0.1)">
       <use xlink:href="#DejaVuSans-64"/>
       <use xlink:href="#DejaVuSans-69" x="63.476562"/>
       <use xlink:href="#DejaVuSans-76" x="91.259766"/>
       <use xlink:href="#DejaVuSans-65" x="150.439453"/>
       <use xlink:href="#DejaVuSans-72" x="211.962891"/>
       <use xlink:href="#DejaVuSans-73" x="253.076172"/>
       <use xlink:href="#DejaVuSans-69" x="305.175781"/>
       <use xlink:href="#DejaVuSans-74" x="332.958984"/>
       <use xlink:href="#DejaVuSans-79" x="372.167969"/>
      </g>
     </g>
    </g>
    <g id="xtick_6">
     <g id="line2d_6">
      <path d="M 294.593844 248.904 
L 406.445844 442.637347 
" clip-path="url(#p43fe787537)" style="fill: none; stroke-dasharray: 2.59,1.12; stroke-dashoffset: 0; stroke: #b0b0b0; stroke-opacity: 0.6; stroke-width: 0.7"/>
     </g>
     <g id="text_6">
      <!-- Silhouette -->
      <g transform="translate(388.023187 457.521078) scale(0.1 -0.1)">
       <defs>
        <path id="DejaVuSans-53" d="M 3425 4513 
L 3425 3897 
Q 3066 4069 2747 4153 
Q 2428 4238 2131 4238 
Q 1616 4238 1336 4038 
Q 1056 3838 1056 3469 
Q 1056 3159 1242 3001 
Q 1428 2844 1947 2747 
L 2328 2669 
Q 3034 2534 3370 2195 
Q 3706 1856 3706 1288 
Q 3706 609 3251 259 
Q 2797 -91 1919 -91 
Q 1588 -91 1214 -16 
Q 841 59 441 206 
L 441 856 
Q 825 641 1194 531 
Q 1563 422 1919 422 
Q 2459 422 2753 634 
Q 3047 847 3047 1241 
Q 3047 1584 2836 1778 
Q 2625 1972 2144 2069 
L 1759 2144 
Q 1053 2284 737 2584 
Q 422 2884 422 3419 
Q 422 4038 858 4394 
Q 1294 4750 2059 4750 
Q 2388 4750 2728 4690 
Q 3069 4631 3425 4513 
z
" transform="scale(0.015625)"/>
        <path id="DejaVuSans-75" d="M 544 1381 
L 544 3500 
L 1119 3500 
L 1119 1403 
Q 1119 906 1312 657 
Q 1506 409 1894 409 
Q 2359 409 2629 706 
Q 2900 1003 2900 1516 
L 2900 3500 
L 3475 3500 
L 3475 0 
L 2900 0 
L 2900 538 
Q 2691 219 2414 64 
Q 2138 -91 1772 -91 
Q 1169 -91 856 284 
Q 544 659 544 1381 
z
M 1991 3584 
L 1991 3584 
z
" transform="scale(0.015625)"/>
       </defs>
       <use xlink:href="#DejaVuSans-53"/>
       <use xlink:href="#DejaVuSans-69" x="63.476562"/>
       <use xlink:href="#DejaVuSans-6c" x="91.259766"/>
       <use xlink:href="#DejaVuSans-68" x="119.042969"/>
       <use xlink:href="#DejaVuSans-6f" x="182.421875"/>
       <use xlink:href="#DejaVuSans-75" x="243.603516"/>
       <use xlink:href="#DejaVuSans-65" x="306.982422"/>
       <use xlink:href="#DejaVuSans-74" x="368.505859"/>
       <use xlink:href="#DejaVuSans-74" x="407.714844"/>
       <use xlink:href="#DejaVuSans-65" x="446.923828"/>
      </g>
     </g>
    </g>
   </g>
   <g id="matplotlib.axis_2">
    <g id="ytick_1">
     <g id="line2d_7">
      <path d="M 339.334644 248.904 
C 339.334644 243.028692 338.177336 237.210514 335.928953 231.782437 
C 333.68057 226.35436 330.384837 221.421947 326.230367 217.267477 
C 322.075897 213.113007 317.143483 209.817274 311.715407 207.568891 
C 306.28733 205.320508 300.469152 204.1632 294.593844 204.1632 
C 288.718536 204.1632 282.900358 205.320508 277.472281 207.568891 
C 272.044204 209.817274 267.111791 213.113007 262.957321 217.267477 
C 258.802851 221.421947 255.507117 226.35436 253.258734 231.782437 
C 251.010351 237.210514 249.853044 243.028692 249.853044 248.904 
C 249.853044 254.779308 251.010351 260.597486 253.258734 266.025563 
C 255.507117 271.45364 258.802851 276.386053 262.957321 280.540523 
C 267.111791 284.694993 272.044204 287.990726 277.472281 290.239109 
C 282.900358 292.487492 288.718536 293.6448 294.593844 293.6448 
C 300.469152 293.6448 306.28733 292.487492 311.715407 290.239109 
C 317.143483 287.990726 322.075897 284.694993 326.230367 280.540523 
C 330.384837 276.386053 333.68057 271.45364 335.928953 266.025563 
C 338.177336 260.597486 339.334644 254.779308 339.334644 248.904 
" clip-path="url(#p43fe787537)" style="fill: none; stroke-dasharray: 2.59,1.12; stroke-dashoffset: 0; stroke: #b0b0b0; stroke-opacity: 0.6; stroke-width: 0.7"/>
     </g>
     <g id="text_7">
      <!-- 0.2 -->
      <g transform="translate(335.928953 230.118687) scale(0.08 -0.08)">
       <defs>
        <path id="DejaVuSans-30" d="M 2034 4250 
Q 1547 4250 1301 3770 
Q 1056 3291 1056 2328 
Q 1056 1369 1301 889 
Q 1547 409 2034 409 
Q 2525 409 2770 889 
Q 3016 1369 3016 2328 
Q 3016 3291 2770 3770 
Q 2525 4250 2034 4250 
z
M 2034 4750 
Q 2819 4750 3233 4129 
Q 3647 3509 3647 2328 
Q 3647 1150 3233 529 
Q 2819 -91 2034 -91 
Q 1250 -91 836 529 
Q 422 1150 422 2328 
Q 422 3509 836 4129 
Q 1250 4750 2034 4750 
z
" transform="scale(0.015625)"/>
        <path id="DejaVuSans-2e" d="M 684 794 
L 1344 794 
L 1344 0 
L 684 0 
L 684 794 
z
" transform="scale(0.015625)"/>
        <path id="DejaVuSans-32" d="M 1228 531 
L 3431 531 
L 3431 0 
L 469 0 
L 469 531 
Q 828 903 1448 1529 
Q 2069 2156 2228 2338 
Q 2531 2678 2651 2914 
Q 2772 3150 2772 3378 
Q 2772 3750 2511 3984 
Q 2250 4219 1831 4219 
Q 1534 4219 1204 4116 
Q 875 4013 500 3803 
L 500 4441 
Q 881 4594 1212 4672 
Q 1544 4750 1819 4750 
Q 2544 4750 2975 4387 
Q 3406 4025 3406 3419 
Q 3406 3131 3298 2873 
Q 3191 2616 2906 2266 
Q 2828 2175 2409 1742 
Q 1991 1309 1228 531 
z
" transform="scale(0.015625)"/>
       </defs>
       <use xlink:href="#DejaVuSans-30"/>
       <use xlink:href="#DejaVuSans-2e" x="63.623047"/>
       <use xlink:href="#DejaVuSans-32" x="95.410156"/>
      </g>
     </g>
    </g>
    <g id="ytick_2">
     <g id="line2d_8">
      <path d="M 384.075444 248.904 
C 384.075444 237.153384 381.760829 225.517028 377.264063 214.660874 
C 372.767296 203.804721 366.17583 193.939894 357.86689 185.630954 
C 349.55795 177.322014 339.693123 170.730547 328.83697 166.233781 
C 317.980816 161.737015 306.34446 159.4224 294.593844 159.4224 
C 282.843228 159.4224 271.206872 161.737015 260.350718 166.233781 
C 249.494564 170.730547 239.629738 177.322014 231.320798 185.630954 
C 223.011857 193.939894 216.420391 203.804721 211.923625 214.660874 
C 207.426859 225.517028 205.112244 237.153384 205.112244 248.904 
C 205.112244 260.654616 207.426859 272.290972 211.923625 283.147126 
C 216.420391 294.003279 223.011857 303.868106 231.320798 312.177046 
C 239.629738 320.485986 249.494564 327.077453 260.350718 331.574219 
C 271.206872 336.070985 282.843228 338.3856 294.593844 338.3856 
C 306.34446 338.3856 317.980816 336.070985 328.83697 331.574219 
C 339.693123 327.077453 349.55795 320.485986 357.86689 312.177046 
C 366.17583 303.868106 372.767296 294.003279 377.264063 283.147126 
C 381.760829 272.290972 384.075444 260.654616 384.075444 248.904 
" clip-path="url(#p43fe787537)" style="fill: none; stroke-dasharray: 2.59,1.12; stroke-dashoffset: 0; stroke: #b0b0b0; stroke-opacity: 0.6; stroke-width: 0.7"/>
     </g>
     <g id="text_8">
      <!-- 0.4 -->
      <g transform="translate(377.264063 212.997124) scale(0.08 -0.08)">
       <defs>
        <path id="DejaVuSans-34" d="M 2419 4116 
L 825 1625 
L 2419 1625 
L 2419 4116 
z
M 2253 4666 
L 3047 4666 
L 3047 1625 
L 3713 1625 
L 3713 1100 
L 3047 1100 
L 3047 0 
L 2419 0 
L 2419 1100 
L 313 1100 
L 313 1709 
L 2253 4666 
z
" transform="scale(0.015625)"/>
       </defs>
       <use xlink:href="#DejaVuSans-30"/>
       <use xlink:href="#DejaVuSans-2e" x="63.623047"/>
       <use xlink:href="#DejaVuSans-34" x="95.410156"/>
      </g>
     </g>
    </g>
    <g id="ytick_3">
     <g id="line2d_9">
      <path d="M 428.816244 248.904 
C 428.816244 231.278076 425.344321 213.823542 418.599172 197.539311 
C 411.854023 181.255081 401.966823 166.457841 389.503413 153.994431 
C 377.040003 141.53102 362.242763 131.643821 345.958532 124.898672 
C 329.674302 118.153523 312.219768 114.6816 294.593844 114.6816 
C 276.96792 114.6816 259.513386 118.153523 243.229155 124.898672 
C 226.944925 131.643821 212.147685 141.53102 199.684275 153.994431 
C 187.220864 166.457841 177.333665 181.255081 170.588516 197.539311 
C 163.843366 213.823542 160.371444 231.278076 160.371444 248.904 
C 160.371444 266.529924 163.843366 283.984458 170.588516 300.268689 
C 177.333665 316.552919 187.220864 331.350159 199.684275 343.813569 
C 212.147685 356.27698 226.944925 366.164179 243.229155 372.909328 
C 259.513386 379.654477 276.96792 383.1264 294.593844 383.1264 
C 312.219768 383.1264 329.674302 379.654477 345.958532 372.909328 
C 362.242763 366.164179 377.040003 356.27698 389.503413 343.813569 
C 401.966823 331.350159 411.854023 316.552919 418.599172 300.268689 
C 425.344321 283.984458 428.816244 266.529924 428.816244 248.904 
" clip-path="url(#p43fe787537)" style="fill: none; stroke-dasharray: 2.59,1.12; stroke-dashoffset: 0; stroke: #b0b0b0; stroke-opacity: 0.6; stroke-width: 0.7"/>
     </g>
     <g id="text_9">
      <!-- 0.6 -->
      <g transform="translate(418.599172 195.875561) scale(0.08 -0.08)">
       <defs>
        <path id="DejaVuSans-36" d="M 2113 2584 
Q 1688 2584 1439 2293 
Q 1191 2003 1191 1497 
Q 1191 994 1439 701 
Q 1688 409 2113 409 
Q 2538 409 2786 701 
Q 3034 994 3034 1497 
Q 3034 2003 2786 2293 
Q 2538 2584 2113 2584 
z
M 3366 4563 
L 3366 3988 
Q 3128 4100 2886 4159 
Q 2644 4219 2406 4219 
Q 1781 4219 1451 3797 
Q 1122 3375 1075 2522 
Q 1259 2794 1537 2939 
Q 1816 3084 2150 3084 
Q 2853 3084 3261 2657 
Q 3669 2231 3669 1497 
Q 3669 778 3244 343 
Q 2819 -91 2113 -91 
Q 1303 -91 875 529 
Q 447 1150 447 2328 
Q 447 3434 972 4092 
Q 1497 4750 2381 4750 
Q 2619 4750 2861 4703 
Q 3103 4656 3366 4563 
z
" transform="scale(0.015625)"/>
       </defs>
       <use xlink:href="#DejaVuSans-30"/>
       <use xlink:href="#DejaVuSans-2e" x="63.623047"/>
       <use xlink:href="#DejaVuSans-36" x="95.410156"/>
      </g>
     </g>
    </g>
    <g id="ytick_4">
     <g id="line2d_10">
      <path d="M 473.557044 248.904 
C 473.557044 225.402768 468.927813 202.130056 459.934281 180.417748 
C 450.940749 158.705441 437.757817 138.975788 421.139936 122.357908 
C 404.522055 105.740027 384.792403 92.557095 363.080095 83.563562 
C 341.367788 74.57003 318.095076 69.9408 294.593844 69.9408 
C 271.092612 69.9408 247.819899 74.57003 226.107592 83.563562 
C 204.395285 92.557095 184.665632 105.740027 168.047751 122.357908 
C 151.429871 138.975788 138.246938 158.705441 129.253406 180.417748 
C 120.259874 202.130056 115.630644 225.402768 115.630644 248.904 
C 115.630644 272.405232 120.259874 295.677944 129.253406 317.390252 
C 138.246938 339.102559 151.429871 358.832212 168.047751 375.450092 
C 184.665632 392.067973 204.395285 405.250905 226.107592 414.244438 
C 247.819899 423.23797 271.092612 427.8672 294.593844 427.8672 
C 318.095076 427.8672 341.367788 423.23797 363.080095 414.244438 
C 384.792403 405.250905 404.522055 392.067973 421.139936 375.450092 
C 437.757817 358.832212 450.940749 339.102559 459.934281 317.390252 
C 468.927813 295.677944 473.557044 272.405232 473.557044 248.904 
" clip-path="url(#p43fe787537)" style="fill: none; stroke-dasharray: 2.59,1.12; stroke-dashoffset: 0; stroke: #b0b0b0; stroke-opacity: 0.6; stroke-width: 0.7"/>
     </g>
     <g id="text_10">
      <!-- 0.8 -->
      <g transform="translate(459.934281 178.753998) scale(0.08 -0.08)">
       <defs>
        <path id="DejaVuSans-38" d="M 2034 2216 
Q 1584 2216 1326 1975 
Q 1069 1734 1069 1313 
Q 1069 891 1326 650 
Q 1584 409 2034 409 
Q 2484 409 2743 651 
Q 3003 894 3003 1313 
Q 3003 1734 2745 1975 
Q 2488 2216 2034 2216 
z
M 1403 2484 
Q 997 2584 770 2862 
Q 544 3141 544 3541 
Q 544 4100 942 4425 
Q 1341 4750 2034 4750 
Q 2731 4750 3128 4425 
Q 3525 4100 3525 3541 
Q 3525 3141 3298 2862 
Q 3072 2584 2669 2484 
Q 3125 2378 3379 2068 
Q 3634 1759 3634 1313 
Q 3634 634 3220 271 
Q 2806 -91 2034 -91 
Q 1263 -91 848 271 
Q 434 634 434 1313 
Q 434 1759 690 2068 
Q 947 2378 1403 2484 
z
M 1172 3481 
Q 1172 3119 1398 2916 
Q 1625 2713 2034 2713 
Q 2441 2713 2670 2916 
Q 2900 3119 2900 3481 
Q 2900 3844 2670 4047 
Q 2441 4250 2034 4250 
Q 1625 4250 1398 4047 
Q 1172 3844 1172 3481 
z
" transform="scale(0.015625)"/>
       </defs>
       <use xlink:href="#DejaVuSans-30"/>
       <use xlink:href="#DejaVuSans-2e" x="63.623047"/>
       <use xlink:href="#DejaVuSans-38" x="95.410156"/>
      </g>
     </g>
    </g>
    <g id="ytick_5">
     <g id="line2d_11">
      <path d="M 518.297844 248.904 
C 518.297844 219.52746 512.511306 190.43657 501.269391 163.296185 
C 490.027475 136.155801 473.54881 111.493735 452.776459 90.721385 
C 432.004108 69.949034 407.342042 53.470368 380.201658 42.228453 
C 353.061274 30.986538 323.970384 25.2 294.593844 25.2 
C 265.217304 25.2 236.126413 30.986538 208.986029 42.228453 
C 181.845645 53.470368 157.183579 69.949034 136.411228 90.721385 
C 115.638878 111.493735 99.160212 136.155801 87.918297 163.296185 
C 76.676382 190.43657 70.889844 219.52746 70.889844 248.904 
C 70.889844 278.28054 76.676382 307.37143 87.918297 334.511815 
C 99.160212 361.652199 115.638878 386.314265 136.411228 407.086615 
C 157.183579 427.858966 181.845645 444.337632 208.986029 455.579547 
C 236.126413 466.821462 265.217304 472.608 294.593844 472.608 
C 323.970384 472.608 353.061274 466.821462 380.201658 455.579547 
C 407.342042 444.337632 432.004108 427.858966 452.776459 407.086615 
C 473.54881 386.314265 490.027475 361.652199 501.269391 334.511815 
C 512.511306 307.37143 518.297844 278.28054 518.297844 248.904 
" clip-path="url(#p43fe787537)" style="fill: none; stroke-dasharray: 2.59,1.12; stroke-dashoffset: 0; stroke: #b0b0b0; stroke-opacity: 0.6; stroke-width: 0.7"/>
     </g>
     <g id="text_11">
      <!-- 1.0 -->
      <g transform="translate(501.269391 161.632435) scale(0.08 -0.08)">
       <defs>
        <path id="DejaVuSans-31" d="M 794 531 
L 1825 531 
L 1825 4091 
L 703 3866 
L 703 4441 
L 1819 4666 
L 2450 4666 
L 2450 531 
L 3481 531 
L 3481 0 
L 794 0 
L 794 531 
z
" transform="scale(0.015625)"/>
       </defs>
       <use xlink:href="#DejaVuSans-31"/>
       <use xlink:href="#DejaVuSans-2e" x="63.623047"/>
       <use xlink:href="#DejaVuSans-30" x="95.410156"/>
      </g>
     </g>
    </g>
   </g>
   <g id="line2d_12">
    <path d="M 518.297844 248.904 
L 369.161844 119.748435 
L 182.741844 55.170653 
L 129.622092 248.904 
L 182.741844 442.637347 
L 406.445844 442.637347 
L 518.297844 248.904 
" clip-path="url(#p43fe787537)" style="fill: none; stroke: #1f77b4; stroke-width: 3; stroke-linecap: square"/>
   </g>
   <g id="line2d_13">
    <path d="M 433.826979 248.904 
L 406.445844 55.170653 
L 220.025844 119.748435 
L 139.849021 248.904 
L 261.146442 306.8366 
L 371.084419 381.389563 
L 433.826979 248.904 
" clip-path="url(#p43fe787537)" style="fill: none; stroke: #ff7f0e; stroke-opacity: 0.75; stroke-width: 1.6; stroke-linecap: square"/>
   </g>
   <g id="line2d_14">
    <path d="M 426.060334 248.904 
L 406.445844 55.170653 
L 195.169844 76.696581 
L 88.495747 248.904 
L 285.343681 264.925751 
L 353.558862 351.034407 
L 426.060334 248.904 
" clip-path="url(#p43fe787537)" style="fill: none; stroke: #2ca02c; stroke-opacity: 0.75; stroke-width: 1.6; stroke-linecap: square"/>
   </g>
   <g id="line2d_15">
    <path d="M 499.017051 248.904 
L 331.877844 184.326218 
L 207.597844 98.222508 
L 87.29879 248.904 
L 266.253859 297.990294 
L 405.769469 441.465831 
L 499.017051 248.904 
" clip-path="url(#p43fe787537)" style="fill: none; stroke: #d62728; stroke-opacity: 0.75; stroke-width: 1.6; stroke-linecap: square"/>
   </g>
   <g id="line2d_16">
    <path d="M 296.350904 248.904 
L 350.519844 152.037327 
L 257.309844 184.326218 
L 70.889844 248.904 
L 282.456696 269.926156 
L 298.258878 255.252025 
L 296.350904 248.904 
" clip-path="url(#p43fe787537)" style="fill: none; stroke: #9467bd; stroke-opacity: 0.75; stroke-width: 1.6; stroke-linecap: square"/>
   </g>
   <g id="line2d_17">
    <path d="M 449.387444 248.904 
L 387.803844 87.459544 
L 232.453844 141.274363 
L 163.262039 248.904 
L 269.098965 293.062426 
L 400.838685 432.925462 
L 449.387444 248.904 
" clip-path="url(#p43fe787537)" style="fill: none; stroke: #8c564b; stroke-opacity: 0.75; stroke-width: 1.6; stroke-linecap: square"/>
   </g>
   <g id="line2d_18">
    <path d="M 294.593844 248.904 
L 350.519844 152.037327 
L 269.737844 205.852145 
L 294.593844 248.904 
L 271.795832 288.391315 
L 388.737377 411.965383 
L 294.593844 248.904 
" clip-path="url(#p43fe787537)" style="fill: none; stroke: #e377c2; stroke-opacity: 0.75; stroke-width: 1.6; stroke-linecap: square"/>
   </g>
   <g id="line2d_19">
    <path d="M 313.95192 248.904 
L 406.445844 55.170653 
L 244.881844 162.80029 
L 266.143788 248.904 
L 242.679322 338.822589 
L 339.108419 326.005506 
L 313.95192 248.904 
" clip-path="url(#p43fe787537)" style="fill: none; stroke: #7f7f7f; stroke-opacity: 0.75; stroke-width: 1.6; stroke-linecap: square"/>
   </g>
   <g id="line2d_20">
    <path d="M 294.856891 248.904 
L 350.519844 152.037327 
L 282.165844 227.378073 
L 76.271784 248.904 
L 294.593844 248.904 
L 294.593844 248.904 
L 294.856891 248.904 
" clip-path="url(#p43fe787537)" style="fill: none; stroke: #bcbd22; stroke-opacity: 0.75; stroke-width: 1.6; stroke-linecap: square"/>
   </g>
   <g id="line2d_21">
    <path d="M 350.47145 248.904 
L 294.593844 248.904 
L 294.593844 248.904 
L 145.498387 248.904 
L 204.627522 404.73024 
M 350.47145 248.904 
" clip-path="url(#p43fe787537)" style="fill: none; stroke: #17becf; stroke-opacity: 0.75; stroke-width: 1.6; stroke-linecap: square"/>
   </g>
   <g id="patch_4">
    <path d="M 518.297844 248.904 
C 518.297844 219.52746 512.511306 190.43657 501.269391 163.296185 
C 490.027475 136.155801 473.54881 111.493735 452.776459 90.721385 
C 432.004108 69.949034 407.342042 53.470368 380.201658 42.228453 
C 353.061274 30.986538 323.970384 25.2 294.593844 25.2 
C 265.217304 25.2 236.126413 30.986538 208.986029 42.228453 
C 181.845645 53.470368 157.183579 69.949034 136.411228 90.721385 
C 115.638878 111.493735 99.160212 136.155801 87.918297 163.296185 
C 76.676382 190.43657 70.889844 219.52746 70.889844 248.904 
C 70.889844 278.28054 76.676382 307.37143 87.918297 334.511815 
C 99.160212 361.652199 115.638878 386.314265 136.411228 407.086615 
C 157.183579 427.858966 181.845645 444.337632 208.986029 455.579547 
C 236.126413 466.821462 265.217304 472.608 294.593844 472.608 
C 323.970384 472.608 353.061274 466.821462 380.201658 455.579547 
C 407.342042 444.337632 432.004108 427.858966 452.776459 407.086615 
C 473.54881 386.314265 490.027475 361.652199 501.269391 334.511815 
C 512.511306 307.37143 518.297844 278.28054 518.297844 248.904 
" style="fill: none; stroke: #000000; stroke-width: 0.8; stroke-linejoin: miter; stroke-linecap: square"/>
   </g>
   <g id="legend_1">
    <g id="line2d_22">
     <path d="M 103.157516 529.137394 
L 112.157516 529.137394 
L 121.157516 529.137394 
" style="fill: none; stroke: #1f77b4; stroke-width: 3; stroke-linecap: square"/>
    </g>
    <g id="text_12">
     <!-- Full model -->
     <g transform="translate(128.357516 532.287394) scale(0.09 -0.09)">
      <defs>
       <path id="DejaVuSans-46" d="M 628 4666 
L 3309 4666 
L 3309 4134 
L 1259 4134 
L 1259 2759 
L 3109 2759 
L 3109 2228 
L 1259 2228 
L 1259 0 
L 628 0 
L 628 4666 
z
" transform="scale(0.015625)"/>
      </defs>
      <use xlink:href="#DejaVuSans-46"/>
      <use xlink:href="#DejaVuSans-75" x="52.019531"/>
      <use xlink:href="#DejaVuSans-6c" x="115.398438"/>
      <use xlink:href="#DejaVuSans-6c" x="143.181641"/>
      <use xlink:href="#DejaVuSans-20" x="170.964844"/>
      <use xlink:href="#DejaVuSans-6d" x="202.751953"/>
      <use xlink:href="#DejaVuSans-6f" x="300.164062"/>
      <use xlink:href="#DejaVuSans-64" x="361.345703"/>
      <use xlink:href="#DejaVuSans-65" x="424.822266"/>
      <use xlink:href="#DejaVuSans-6c" x="486.345703"/>
     </g>
    </g>
    <g id="line2d_23">
     <path d="M 103.157516 542.347706 
L 112.157516 542.347706 
L 121.157516 542.347706 
" style="fill: none; stroke: #ff7f0e; stroke-opacity: 0.75; stroke-width: 1.6; stroke-linecap: square"/>
    </g>
    <g id="text_13">
     <!-- Random selection -->
     <g transform="translate(128.357516 545.497706) scale(0.09 -0.09)">
      <defs>
       <path id="DejaVuSans-52" d="M 2841 2188 
Q 3044 2119 3236 1894 
Q 3428 1669 3622 1275 
L 4263 0 
L 3584 0 
L 2988 1197 
Q 2756 1666 2539 1819 
Q 2322 1972 1947 1972 
L 1259 1972 
L 1259 0 
L 628 0 
L 628 4666 
L 2053 4666 
Q 2853 4666 3247 4331 
Q 3641 3997 3641 3322 
Q 3641 2881 3436 2590 
Q 3231 2300 2841 2188 
z
M 1259 4147 
L 1259 2491 
L 2053 2491 
Q 2509 2491 2742 2702 
Q 2975 2913 2975 3322 
Q 2975 3731 2742 3939 
Q 2509 4147 2053 4147 
L 1259 4147 
z
" transform="scale(0.015625)"/>
      </defs>
      <use xlink:href="#DejaVuSans-52"/>
      <use xlink:href="#DejaVuSans-61" x="67.232422"/>
      <use xlink:href="#DejaVuSans-6e" x="128.511719"/>
      <use xlink:href="#DejaVuSans-64" x="191.890625"/>
      <use xlink:href="#DejaVuSans-6f" x="255.367188"/>
      <use xlink:href="#DejaVuSans-6d" x="316.548828"/>
      <use xlink:href="#DejaVuSans-20" x="413.960938"/>
      <use xlink:href="#DejaVuSans-73" x="445.748047"/>
      <use xlink:href="#DejaVuSans-65" x="497.847656"/>
      <use xlink:href="#DejaVuSans-6c" x="559.371094"/>
      <use xlink:href="#DejaVuSans-65" x="587.154297"/>
      <use xlink:href="#DejaVuSans-63" x="648.677734"/>
      <use xlink:href="#DejaVuSans-74" x="703.658203"/>
      <use xlink:href="#DejaVuSans-69" x="742.867188"/>
      <use xlink:href="#DejaVuSans-6f" x="770.650391"/>
      <use xlink:href="#DejaVuSans-6e" x="831.832031"/>
     </g>
    </g>
    <g id="line2d_24">
     <path d="M 103.157516 555.558019 
L 112.157516 555.558019 
L 121.157516 555.558019 
" style="fill: none; stroke: #2ca02c; stroke-opacity: 0.75; stroke-width: 1.6; stroke-linecap: square"/>
    </g>
    <g id="text_14">
     <!-- Morgan fingerprints -->
     <g transform="translate(128.357516 558.708019) scale(0.09 -0.09)">
      <defs>
       <path id="DejaVuSans-66" d="M 2375 4863 
L 2375 4384 
L 1825 4384 
Q 1516 4384 1395 4259 
Q 1275 4134 1275 3809 
L 1275 3500 
L 2222 3500 
L 2222 3053 
L 1275 3053 
L 1275 0 
L 697 0 
L 697 3053 
L 147 3053 
L 147 3500 
L 697 3500 
L 697 3744 
Q 697 4328 969 4595 
Q 1241 4863 1831 4863 
L 2375 4863 
z
" transform="scale(0.015625)"/>
      </defs>
      <use xlink:href="#DejaVuSans-4d"/>
      <use xlink:href="#DejaVuSans-6f" x="86.279297"/>
      <use xlink:href="#DejaVuSans-72" x="147.460938"/>
      <use xlink:href="#DejaVuSans-67" x="186.824219"/>
      <use xlink:href="#DejaVuSans-61" x="250.300781"/>
      <use xlink:href="#DejaVuSans-6e" x="311.580078"/>
      <use xlink:href="#DejaVuSans-20" x="374.958984"/>
      <use xlink:href="#DejaVuSans-66" x="406.746094"/>
      <use xlink:href="#DejaVuSans-69" x="441.951172"/>
      <use xlink:href="#DejaVuSans-6e" x="469.734375"/>
      <use xlink:href="#DejaVuSans-67" x="533.113281"/>
      <use xlink:href="#DejaVuSans-65" x="596.589844"/>
      <use xlink:href="#DejaVuSans-72" x="658.113281"/>
      <use xlink:href="#DejaVuSans-70" x="699.226562"/>
      <use xlink:href="#DejaVuSans-72" x="762.703125"/>
      <use xlink:href="#DejaVuSans-69" x="803.816406"/>
      <use xlink:href="#DejaVuSans-6e" x="831.599609"/>
      <use xlink:href="#DejaVuSans-74" x="894.978516"/>
      <use xlink:href="#DejaVuSans-73" x="934.1875"/>
     </g>
    </g>
    <g id="line2d_25">
     <path d="M 103.157516 568.768331 
L 112.157516 568.768331 
L 121.157516 568.768331 
" style="fill: none; stroke: #d62728; stroke-opacity: 0.75; stroke-width: 1.6; stroke-linecap: square"/>
    </g>
    <g id="text_15">
     <!-- PCL encoder only -->
     <g transform="translate(128.357516 571.918331) scale(0.09 -0.09)">
      <defs>
       <path id="DejaVuSans-4c" d="M 628 4666 
L 1259 4666 
L 1259 531 
L 3531 531 
L 3531 0 
L 628 0 
L 628 4666 
z
" transform="scale(0.015625)"/>
      </defs>
      <use xlink:href="#DejaVuSans-50"/>
      <use xlink:href="#DejaVuSans-43" x="60.302734"/>
      <use xlink:href="#DejaVuSans-4c" x="130.126953"/>
      <use xlink:href="#DejaVuSans-20" x="185.839844"/>
      <use xlink:href="#DejaVuSans-65" x="217.626953"/>
      <use xlink:href="#DejaVuSans-6e" x="279.150391"/>
      <use xlink:href="#DejaVuSans-63" x="342.529297"/>
      <use xlink:href="#DejaVuSans-6f" x="397.509766"/>
      <use xlink:href="#DejaVuSans-64" x="458.691406"/>
      <use xlink:href="#DejaVuSans-65" x="522.167969"/>
      <use xlink:href="#DejaVuSans-72" x="583.691406"/>
      <use xlink:href="#DejaVuSans-20" x="624.804688"/>
      <use xlink:href="#DejaVuSans-6f" x="656.591797"/>
      <use xlink:href="#DejaVuSans-6e" x="717.773438"/>
      <use xlink:href="#DejaVuSans-6c" x="781.152344"/>
      <use xlink:href="#DejaVuSans-79" x="808.935547"/>
     </g>
    </g>
    <g id="line2d_26">
     <path d="M 235.122828 529.137394 
L 244.122828 529.137394 
L 253.122828 529.137394 
" style="fill: none; stroke: #9467bd; stroke-opacity: 0.75; stroke-width: 1.6; stroke-linecap: square"/>
    </g>
    <g id="text_16">
     <!-- USL encoder only -->
     <g transform="translate(260.322828 532.287394) scale(0.09 -0.09)">
      <defs>
       <path id="DejaVuSans-55" d="M 556 4666 
L 1191 4666 
L 1191 1831 
Q 1191 1081 1462 751 
Q 1734 422 2344 422 
Q 2950 422 3222 751 
Q 3494 1081 3494 1831 
L 3494 4666 
L 4128 4666 
L 4128 1753 
Q 4128 841 3676 375 
Q 3225 -91 2344 -91 
Q 1459 -91 1007 375 
Q 556 841 556 1753 
L 556 4666 
z
" transform="scale(0.015625)"/>
      </defs>
      <use xlink:href="#DejaVuSans-55"/>
      <use xlink:href="#DejaVuSans-53" x="73.193359"/>
      <use xlink:href="#DejaVuSans-4c" x="136.669922"/>
      <use xlink:href="#DejaVuSans-20" x="192.382812"/>
      <use xlink:href="#DejaVuSans-65" x="224.169922"/>
      <use xlink:href="#DejaVuSans-6e" x="285.693359"/>
      <use xlink:href="#DejaVuSans-63" x="349.072266"/>
      <use xlink:href="#DejaVuSans-6f" x="404.052734"/>
      <use xlink:href="#DejaVuSans-64" x="465.234375"/>
      <use xlink:href="#DejaVuSans-65" x="528.710938"/>
      <use xlink:href="#DejaVuSans-72" x="590.234375"/>
      <use xlink:href="#DejaVuSans-20" x="631.347656"/>
      <use xlink:href="#DejaVuSans-6f" x="663.134766"/>
      <use xlink:href="#DejaVuSans-6e" x="724.316406"/>
      <use xlink:href="#DejaVuSans-6c" x="787.695312"/>
      <use xlink:href="#DejaVuSans-79" x="815.478516"/>
     </g>
    </g>
    <g id="line2d_27">
     <path d="M 235.122828 542.347706 
L 244.122828 542.347706 
L 253.122828 542.347706 
" style="fill: none; stroke: #8c564b; stroke-opacity: 0.75; stroke-width: 1.6; stroke-linecap: square"/>
    </g>
    <g id="text_17">
     <!-- PCL encoder clustering -->
     <g transform="translate(260.322828 545.497706) scale(0.09 -0.09)">
      <use xlink:href="#DejaVuSans-50"/>
      <use xlink:href="#DejaVuSans-43" x="60.302734"/>
      <use xlink:href="#DejaVuSans-4c" x="130.126953"/>
      <use xlink:href="#DejaVuSans-20" x="185.839844"/>
      <use xlink:href="#DejaVuSans-65" x="217.626953"/>
      <use xlink:href="#DejaVuSans-6e" x="279.150391"/>
      <use xlink:href="#DejaVuSans-63" x="342.529297"/>
      <use xlink:href="#DejaVuSans-6f" x="397.509766"/>
      <use xlink:href="#DejaVuSans-64" x="458.691406"/>
      <use xlink:href="#DejaVuSans-65" x="522.167969"/>
      <use xlink:href="#DejaVuSans-72" x="583.691406"/>
      <use xlink:href="#DejaVuSans-20" x="624.804688"/>
      <use xlink:href="#DejaVuSans-63" x="656.591797"/>
      <use xlink:href="#DejaVuSans-6c" x="711.572266"/>
      <use xlink:href="#DejaVuSans-75" x="739.355469"/>
      <use xlink:href="#DejaVuSans-73" x="802.734375"/>
      <use xlink:href="#DejaVuSans-74" x="854.833984"/>
      <use xlink:href="#DejaVuSans-65" x="894.042969"/>
      <use xlink:href="#DejaVuSans-72" x="955.566406"/>
      <use xlink:href="#DejaVuSans-69" x="996.679688"/>
      <use xlink:href="#DejaVuSans-6e" x="1024.462891"/>
      <use xlink:href="#DejaVuSans-67" x="1087.841797"/>
     </g>
    </g>
    <g id="line2d_28">
     <path d="M 235.122828 555.558019 
L 244.122828 555.558019 
L 253.122828 555.558019 
" style="fill: none; stroke: #e377c2; stroke-opacity: 0.75; stroke-width: 1.6; stroke-linecap: square"/>
    </g>
    <g id="text_18">
     <!-- USL encoder clustering -->
     <g transform="translate(260.322828 558.708019) scale(0.09 -0.09)">
      <use xlink:href="#DejaVuSans-55"/>
      <use xlink:href="#DejaVuSans-53" x="73.193359"/>
      <use xlink:href="#DejaVuSans-4c" x="136.669922"/>
      <use xlink:href="#DejaVuSans-20" x="192.382812"/>
      <use xlink:href="#DejaVuSans-65" x="224.169922"/>
      <use xlink:href="#DejaVuSans-6e" x="285.693359"/>
      <use xlink:href="#DejaVuSans-63" x="349.072266"/>
      <use xlink:href="#DejaVuSans-6f" x="404.052734"/>
      <use xlink:href="#DejaVuSans-64" x="465.234375"/>
      <use xlink:href="#DejaVuSans-65" x="528.710938"/>
      <use xlink:href="#DejaVuSans-72" x="590.234375"/>
      <use xlink:href="#DejaVuSans-20" x="631.347656"/>
      <use xlink:href="#DejaVuSans-63" x="663.134766"/>
      <use xlink:href="#DejaVuSans-6c" x="718.115234"/>
      <use xlink:href="#DejaVuSans-75" x="745.898438"/>
      <use xlink:href="#DejaVuSans-73" x="809.277344"/>
      <use xlink:href="#DejaVuSans-74" x="861.376953"/>
      <use xlink:href="#DejaVuSans-65" x="900.585938"/>
      <use xlink:href="#DejaVuSans-72" x="962.109375"/>
      <use xlink:href="#DejaVuSans-69" x="1003.222656"/>
      <use xlink:href="#DejaVuSans-6e" x="1031.005859"/>
      <use xlink:href="#DejaVuSans-67" x="1094.384766"/>
     </g>
    </g>
    <g id="line2d_29">
     <path d="M 382.531578 529.137394 
L 391.531578 529.137394 
L 400.531578 529.137394 
" style="fill: none; stroke: #7f7f7f; stroke-opacity: 0.75; stroke-width: 1.6; stroke-linecap: square"/>
    </g>
    <g id="text_19">
     <!-- w/o EMA -->
     <g transform="translate(407.731578 532.287394) scale(0.09 -0.09)">
      <defs>
       <path id="DejaVuSans-2f" d="M 1625 4666 
L 2156 4666 
L 531 -594 
L 0 -594 
L 1625 4666 
z
" transform="scale(0.015625)"/>
       <path id="DejaVuSans-41" d="M 2188 4044 
L 1331 1722 
L 3047 1722 
L 2188 4044 
z
M 1831 4666 
L 2547 4666 
L 4325 0 
L 3669 0 
L 3244 1197 
L 1141 1197 
L 716 0 
L 50 0 
L 1831 4666 
z
" transform="scale(0.015625)"/>
      </defs>
      <use xlink:href="#DejaVuSans-77"/>
      <use xlink:href="#DejaVuSans-2f" x="81.787109"/>
      <use xlink:href="#DejaVuSans-6f" x="115.478516"/>
      <use xlink:href="#DejaVuSans-20" x="176.660156"/>
      <use xlink:href="#DejaVuSans-45" x="208.447266"/>
      <use xlink:href="#DejaVuSans-4d" x="271.630859"/>
      <use xlink:href="#DejaVuSans-41" x="357.910156"/>
     </g>
    </g>
    <g id="line2d_30">
     <path d="M 382.531578 542.347706 
L 391.531578 542.347706 
L 400.531578 542.347706 
" style="fill: none; stroke: #bcbd22; stroke-opacity: 0.75; stroke-width: 1.6; stroke-linecap: square"/>
    </g>
    <g id="text_20">
     <!-- w/o decorrelation -->
     <g transform="translate(407.731578 545.497706) scale(0.09 -0.09)">
      <use xlink:href="#DejaVuSans-77"/>
      <use xlink:href="#DejaVuSans-2f" x="81.787109"/>
      <use xlink:href="#DejaVuSans-6f" x="115.478516"/>
      <use xlink:href="#DejaVuSans-20" x="176.660156"/>
      <use xlink:href="#DejaVuSans-64" x="208.447266"/>
      <use xlink:href="#DejaVuSans-65" x="271.923828"/>
      <use xlink:href="#DejaVuSans-63" x="333.447266"/>
      <use xlink:href="#DejaVuSans-6f" x="388.427734"/>
      <use xlink:href="#DejaVuSans-72" x="449.609375"/>
      <use xlink:href="#DejaVuSans-72" x="488.972656"/>
      <use xlink:href="#DejaVuSans-65" x="527.835938"/>
      <use xlink:href="#DejaVuSans-6c" x="589.359375"/>
      <use xlink:href="#DejaVuSans-61" x="617.142578"/>
      <use xlink:href="#DejaVuSans-74" x="678.421875"/>
      <use xlink:href="#DejaVuSans-69" x="717.630859"/>
      <use xlink:href="#DejaVuSans-6f" x="745.414062"/>
      <use xlink:href="#DejaVuSans-6e" x="806.595703"/>
     </g>
    </g>
    <g id="line2d_31">
     <path d="M 382.531578 555.558019 
L 391.531578 555.558019 
L 400.531578 555.558019 
" style="fill: none; stroke: #17becf; stroke-opacity: 0.75; stroke-width: 1.6; stroke-linecap: square"/>
    </g>
    <g id="text_21">
     <!-- w/o top-K -->
     <g transform="translate(407.731578 558.708019) scale(0.09 -0.09)">
      <defs>
       <path id="DejaVuSans-4b" d="M 628 4666 
L 1259 4666 
L 1259 2694 
L 3353 4666 
L 4166 4666 
L 1850 2491 
L 4331 0 
L 3500 0 
L 1259 2247 
L 1259 0 
L 628 0 
L 628 4666 
z
" transform="scale(0.015625)"/>
      </defs>
      <use xlink:href="#DejaVuSans-77"/>
      <use xlink:href="#DejaVuSans-2f" x="81.787109"/>
      <use xlink:href="#DejaVuSans-6f" x="115.478516"/>
      <use xlink:href="#DejaVuSans-20" x="176.660156"/>
      <use xlink:href="#DejaVuSans-74" x="208.447266"/>
      <use xlink:href="#DejaVuSans-6f" x="247.65625"/>
      <use xlink:href="#DejaVuSans-70" x="308.837891"/>
      <use xlink:href="#DejaVuSans-2d" x="372.314453"/>
      <use xlink:href="#DejaVuSans-4b" x="408.398438"/>
     </g>
    </g>
   </g>
  </g>
 </g>
 <defs>
  <clipPath id="p43fe787537">
   <path d="M 518.297844 248.904 
C 518.297844 219.52746 512.511306 190.43657 501.269391 163.296185 
C 490.027475 136.155801 473.54881 111.493735 452.776459 90.721385 
C 432.004108 69.949034 407.342042 53.470368 380.201658 42.228453 
C 353.061274 30.986538 323.970384 25.2 294.593844 25.2 
C 265.217304 25.2 236.126413 30.986538 208.986029 42.228453 
C 181.845645 53.470368 157.183579 69.949034 136.411228 90.721385 
C 115.638878 111.493735 99.160212 136.155801 87.918297 163.296185 
C 76.676382 190.43657 70.889844 219.52746 70.889844 248.904 
C 70.889844 278.28054 76.676382 307.37143 87.918297 334.511815 
C 99.160212 361.652199 115.638878 386.314265 136.411228 407.086615 
C 157.183579 427.858966 181.845645 444.337632 208.986029 455.579547 
C 236.126413 466.821462 265.217304 472.608 294.593844 472.608 
C 323.970384 472.608 353.061274 466.821462 380.201658 455.579547 
C 407.342042 444.337632 432.004108 427.858966 452.776459 407.086615 
C 473.54881 386.314265 490.027475 361.652199 501.269391 334.511815 
C 512.511306 307.37143 518.297844 278.28054 518.297844 248.904 
M 294.593844 248.904 
C 294.593844 248.904 294.593844 248.904 294.593844 248.904 
C 294.593844 248.904 294.593844 248.904 294.593844 248.904 
C 294.593844 248.904 294.593844 248.904 294.593844 248.904 
C 294.593844 248.904 294.593844 248.904 294.593844 248.904 
C 294.593844 248.904 294.593844 248.904 294.593844 248.904 
C 294.593844 248.904 294.593844 248.904 294.593844 248.904 
C 294.593844 248.904 294.593844 248.904 294.593844 248.904 
C 294.593844 248.904 294.593844 248.904 294.593844 248.904 
C 294.593844 248.904 294.593844 248.904 294.593844 248.904 
C 294.593844 248.904 294.593844 248.904 294.593844 248.904 
C 294.593844 248.904 294.593844 248.904 294.593844 248.904 
C 294.593844 248.904 294.593844 248.904 294.593844 248.904 
C 294.593844 248.904 294.593844 248.904 294.593844 248.904 
C 294.593844 248.904 294.593844 248.904 294.593844 248.904 
C 294.593844 248.904 294.593844 248.904 294.593844 248.904 
C 294.593844 248.904 294.593844 248.904 294.593844 248.904 
z
"/>
  </clipPath>
 </defs>
</svg>
