<?xml version="1.0" encoding="utf-8" standalone="no"?>
<!DOCTYPE svg PUBLIC "-//W3C//DTD SVG 1.1//EN"
  "http://www.w3.org/Graphics/SVG/1.1/DTD/svg11.dtd">
<svg xmlns:xlink="http://www.w3.org/1999/xlink" width="265.333494pt" height="192.530625pt" viewBox="0 0 265.333494 192.530625" xmlns="http://www.w3.org/2000/svg" version="1.1">
 <metadata>
  <rdf:RDF xmlns:dc="http://purl.org/dc/elements/1.1/" xmlns:cc="http://creativecommons.org/ns#" xmlns:rdf="http://www.w3.org/1999/02/22-rdf-syntax-ns#">
   <cc:Work>
    <dc:type rdf:resource="http://purl.org/dc/dcmitype/StillImage"/>
    <dc:date>2026-06-23T11:41:13.583974</dc:date>
    <dc:format>image/svg+xml</dc:format>
    <dc:creator>
     <cc:Agent>
      <dc:title>Matplotlib v3.9.4, https://matplotlib.org/</dc:title>
     </cc:Agent>
    </dc:creator>
   </cc:Work>
  </rdf:RDF>
 </metadata>
 <defs>
  <style type="text/css">*{stroke-linejoin: round; stroke-linecap: butt}</style>
 </defs>
 <g id="figure_1">
  <g id="patch_1">
   <path d="M 0 192.530625 
L 265.333494 192.530625 
L 265.333494 0 
L 0 0 
L 0 192.530625 
z
" style="fill: none"/>
  </g>
  <g id="axes_1">
   <g id="patch_2">
    <path d="M 41.245313 156.04 
L 258.133494 156.04 
L 258.133494 7.2 
L 41.245313 7.2 
L 41.245313 156.04 
z
" style="fill: none"/>
   </g>
   <g id="matplotlib.axis_1">
    <g id="xtick_1">
     <g id="line2d_1">
      <defs>
       <path id="m30b6905212" d="M 0 0 
L 0 3.5 
" style="stroke: #000000; stroke-width: 0.8"/>
      </defs>
      <g>
       <use xlink:href="#m30b6905212" x="58.687369" y="156.04" style="stroke: #000000; stroke-width: 0.8"/>
      </g>
     </g>
     <g id="text_1">
      <text style="font: 10px 'Arial'; text-anchor: middle" x="58.687369" y="170.197812" transform="rotate(-0 58.687369 170.197812)">2.5</text>
     </g>
    </g>
    <g id="xtick_2">
     <g id="line2d_2">
      <g>
       <use xlink:href="#m30b6905212" x="96.604883" y="156.04" style="stroke: #000000; stroke-width: 0.8"/>
      </g>
     </g>
     <g id="text_2">
      <text style="font: 10px 'Arial'; text-anchor: middle" x="96.604883" y="170.197812" transform="rotate(-0 96.604883 170.197812)">5.0</text>
     </g>
    </g>
    <g id="xtick_3">
     <g id="line2d_3">
      <g>
       <use xlink:href="#m30b6905212" x="134.522398" y="156.04" style="stroke: #000000; stroke-width: 0.8"/>
      </g>
     </g>
     <g id="text_3">
      <text style="font: 10px 'Arial'; text-anchor: middle" x="134.522398" y="170.197812" transform="rotate(-0 134.522398 170.197812)">7.5</text>
     </g>
    </g>
    <g id="xtick_4">
     <g id="line2d_4">
      <g>
       <use xlink:href="#m30b6905212" x="172.439912" y="156.04" style="stroke: #000000; stroke-width: 0.8"/>
      </g>
     </g>
     <g id="text_4">
      <text style="font: 10px 'Arial'; text-anchor: middle" x="172.439912" y="170.197812" transform="rotate(-0 172.439912 170.197812)">10.0</text>
     </g>
    </g>
    <g id="xtick_5">
     <g id="line2d_5">
      <g>
       <use xlink:href="#m30b6905212" x="210.357426" y="156.04" style="stroke: #000000; stroke-width: 0.8"/>
      </g>
     </g>
     <g id="text_5">
      <text style="font: 10px 'Arial'; text-anchor: middle" x="210.357426" y="170.197812" transform="rotate(-0 210.357426 170.197812)">12.5</text>
     </g>
    </g>
    <g id="xtick_6">
     <g id="line2d_6">
      <g>
       <use xlink:href="#m30b6905212" x="248.274941" y="156.04" style="stroke: #000000; stroke-width: 0.8"/>
      </g>
     </g>
     <g id="text_6">
      <text style="font: 10px 'Arial'; text-anchor: middle" x="248.274941" y="170.197812" transform="rotate(-0 248.274941 170.197812)">15.0</text>
     </g>
    </g>
    <g id="text_7">
     <text style="font: 10px 'Arial'; text-anchor: middle" x="149.689403" y="183.343125" transform="rotate(-0 149.689403 183.343125)">Number of clusters</text>
    </g>
   </g>
   <g id="matplotlib.axis_2">
    <g id="ytick_1">
     <g id="line2d_7">
      <defs>
       <path id="mb2e1f7aac3" d="M 0 0 
L -3.5 0 
" style="stroke: #000000; stroke-width: 0.8"/>
      </defs>
      <g>
       <use xlink:href="#mb2e1f7aac3" x="41.245313" y="144.255735" style="stroke: #000000; stroke-width: 0.8"/>
      </g>
     </g>
     <g id="text_8">
      <text style="font: 10px 'Arial'; text-anchor: end" x="34.245313" y="147.834642" transform="rotate(-0 34.245313 147.834642)">0.4</text>
     </g>
    </g>
    <g id="ytick_2">
     <g id="line2d_8">
      <g>
       <use xlink:href="#mb2e1f7aac3" x="41.245313" y="120.018164" style="stroke: #000000; stroke-width: 0.8"/>
      </g>
     </g>
     <g id="text_9">
      <text style="font: 10px 'Arial'; text-anchor: end" x="34.245313" y="123.59707" transform="rotate(-0 34.245313 123.59707)">0.5</text>
     </g>
    </g>
    <g id="ytick_3">
     <g id="line2d_9">
      <g>
       <use xlink:href="#mb2e1f7aac3" x="41.245313" y="95.780592" style="stroke: #000000; stroke-width: 0.8"/>
      </g>
     </g>
     <g id="text_10">
      <text style="font: 10px 'Arial'; text-anchor: end" x="34.245313" y="99.359499" transform="rotate(-0 34.245313 99.359499)">0.6</text>
     </g>
    </g>
    <g id="ytick_4">
     <g id="line2d_10">
      <g>
       <use xlink:href="#mb2e1f7aac3" x="41.245313" y="71.543021" style="stroke: #000000; stroke-width: 0.8"/>
      </g>
     </g>
     <g id="text_11">
      <text style="font: 10px 'Arial'; text-anchor: end" x="34.245313" y="75.121927" transform="rotate(-0 34.245313 75.121927)">0.7</text>
     </g>
    </g>
    <g id="ytick_5">
     <g id="line2d_11">
      <g>
       <use xlink:href="#mb2e1f7aac3" x="41.245313" y="47.30545" style="stroke: #000000; stroke-width: 0.8"/>
      </g>
     </g>
     <g id="text_12">
      <text style="font: 10px 'Arial'; text-anchor: end" x="34.245313" y="50.884356" transform="rotate(-0 34.245313 50.884356)">0.8</text>
     </g>
    </g>
    <g id="ytick_6">
     <g id="line2d_12">
      <g>
       <use xlink:href="#mb2e1f7aac3" x="41.245313" y="23.067878" style="stroke: #000000; stroke-width: 0.8"/>
      </g>
     </g>
     <g id="text_13">
      <text style="font: 10px 'Arial'; text-anchor: end" x="34.245313" y="26.646784" transform="rotate(-0 34.245313 26.646784)">0.9</text>
     </g>
    </g>
    <g id="text_14">
     <text style="font: 10px 'Arial'; text-anchor: middle" x="14.357813" y="81.62" transform="rotate(-90 14.357813 81.62)">Silhouette score</text>
    </g>
   </g>
   <g id="line2d_13">
    <path d="M 51.103866 145.130244 
L 66.270872 120.617544 
L 81.437878 91.734422 
L 96.604883 72.968799 
L 111.771889 52.423139 
L 126.938895 16.793544 
L 142.105901 14.054446 
L 157.272906 13.965455 
L 172.439912 18.119551 
L 187.606918 28.55521 
L 202.773923 37.804129 
L 217.940929 39.673895 
L 233.107935 36.382586 
L 248.274941 29.236503 
" clip-path="url(#p89e1b32d1c)" style="fill: none; stroke: #b2182b; stroke-width: 2; stroke-linecap: square"/>
    <defs>
     <path id="m380826bd95" d="M 0 2.5 
C 0.663008 2.5 1.29895 2.236584 1.767767 1.767767 
C 2.236584 1.29895 2.5 0.663008 2.5 0 
C 2.5 -0.663008 2.236584 -1.29895 1.767767 -1.767767 
C 1.29895 -2.236584 0.663008 -2.5 0 -2.5 
C -0.663008 -2.5 -1.29895 -2.236584 -1.767767 -1.767767 
C -2.236584 -1.29895 -2.5 -0.663008 -2.5 0 
C -2.5 0.663008 -2.236584 1.29895 -1.767767 1.767767 
C -1.29895 2.236584 -0.663008 2.5 0 2.5 
z
" style="stroke: #b2182b"/>
    </defs>
    <g clip-path="url(#p89e1b32d1c)">
     <use xlink:href="#m380826bd95" x="51.103866" y="145.130244" style="fill: #b2182b; stroke: #b2182b"/>
     <use xlink:href="#m380826bd95" x="66.270872" y="120.617544" style="fill: #b2182b; stroke: #b2182b"/>
     <use xlink:href="#m380826bd95" x="81.437878" y="91.734422" style="fill: #b2182b; stroke: #b2182b"/>
     <use xlink:href="#m380826bd95" x="96.604883" y="72.968799" style="fill: #b2182b; stroke: #b2182b"/>
     <use xlink:href="#m380826bd95" x="111.771889" y="52.423139" style="fill: #b2182b; stroke: #b2182b"/>
     <use xlink:href="#m380826bd95" x="126.938895" y="16.793544" style="fill: #b2182b; stroke: #b2182b"/>
     <use xlink:href="#m380826bd95" x="142.105901" y="14.054446" style="fill: #b2182b; stroke: #b2182b"/>
     <use xlink:href="#m380826bd95" x="157.272906" y="13.965455" style="fill: #b2182b; stroke: #b2182b"/>
     <use xlink:href="#m380826bd95" x="172.439912" y="18.119551" style="fill: #b2182b; stroke: #b2182b"/>
     <use xlink:href="#m380826bd95" x="187.606918" y="28.55521" style="fill: #b2182b; stroke: #b2182b"/>
     <use xlink:href="#m380826bd95" x="202.773923" y="37.804129" style="fill: #b2182b; stroke: #b2182b"/>
     <use xlink:href="#m380826bd95" x="217.940929" y="39.673895" style="fill: #b2182b; stroke: #b2182b"/>
     <use xlink:href="#m380826bd95" x="233.107935" y="36.382586" style="fill: #b2182b; stroke: #b2182b"/>
     <use xlink:href="#m380826bd95" x="248.274941" y="29.236503" style="fill: #b2182b; stroke: #b2182b"/>
    </g>
   </g>
   <g id="line2d_14">
    <path d="M 51.103866 149.274545 
L 66.270872 135.137565 
L 81.437878 109.01498 
L 96.604883 77.920889 
L 111.771889 50.785531 
L 126.938895 30.487025 
L 142.105901 41.82845 
L 157.272906 42.17234 
L 172.439912 42.967617 
L 187.606918 49.694703 
L 202.773923 54.87453 
L 217.940929 56.282493 
L 233.107935 58.855526 
L 248.274941 73.304845 
" clip-path="url(#p89e1b32d1c)" style="fill: none; stroke: #3b6ea8; stroke-width: 2; stroke-linecap: square"/>
    <defs>
     <path id="me6ad64064b" d="M -2.5 2.5 
L 2.5 2.5 
L 2.5 -2.5 
L -2.5 -2.5 
z
" style="stroke: #3b6ea8; stroke-linejoin: miter"/>
    </defs>
    <g clip-path="url(#p89e1b32d1c)">
     <use xlink:href="#me6ad64064b" x="51.103866" y="149.274545" style="fill: #3b6ea8; stroke: #3b6ea8; stroke-linejoin: miter"/>
     <use xlink:href="#me6ad64064b" x="66.270872" y="135.137565" style="fill: #3b6ea8; stroke: #3b6ea8; stroke-linejoin: miter"/>
     <use xlink:href="#me6ad64064b" x="81.437878" y="109.01498" style="fill: #3b6ea8; stroke: #3b6ea8; stroke-linejoin: miter"/>
     <use xlink:href="#me6ad64064b" x="96.604883" y="77.920889" style="fill: #3b6ea8; stroke: #3b6ea8; stroke-linejoin: miter"/>
     <use xlink:href="#me6ad64064b" x="111.771889" y="50.785531" style="fill: #3b6ea8; stroke: #3b6ea8; stroke-linejoin: miter"/>
     <use xlink:href="#me6ad64064b" x="126.938895" y="30.487025" style="fill: #3b6ea8; stroke: #3b6ea8; stroke-linejoin: miter"/>
     <use xlink:href="#me6ad64064b" x="142.105901" y="41.82845" style="fill: #3b6ea8; stroke: #3b6ea8; stroke-linejoin: miter"/>
     <use xlink:href="#me6ad64064b" x="157.272906" y="42.17234" style="fill: #3b6ea8; stroke: #3b6ea8; stroke-linejoin: miter"/>
     <use xlink:href="#me6ad64064b" x="172.439912" y="42.967617" style="fill: #3b6ea8; stroke: #3b6ea8; stroke-linejoin: miter"/>
     <use xlink:href="#me6ad64064b" x="187.606918" y="49.694703" style="fill: #3b6ea8; stroke: #3b6ea8; stroke-linejoin: miter"/>
     <use xlink:href="#me6ad64064b" x="202.773923" y="54.87453" style="fill: #3b6ea8; stroke: #3b6ea8; stroke-linejoin: miter"/>
     <use xlink:href="#me6ad64064b" x="217.940929" y="56.282493" style="fill: #3b6ea8; stroke: #3b6ea8; stroke-linejoin: miter"/>
     <use xlink:href="#me6ad64064b" x="233.107935" y="58.855526" style="fill: #3b6ea8; stroke: #3b6ea8; stroke-linejoin: miter"/>
     <use xlink:href="#me6ad64064b" x="248.274941" y="73.304845" style="fill: #3b6ea8; stroke: #3b6ea8; stroke-linejoin: miter"/>
    </g>
   </g>
   <g id="line2d_15">
    <path d="M 126.938895 156.04 
L 126.938895 7.2 
" clip-path="url(#p89e1b32d1c)" style="fill: none; stroke-dasharray: 4.44,1.92; stroke-dashoffset: 0; stroke: #666666; stroke-width: 1.2"/>
   </g>
   <g id="patch_3">
    <path d="M 41.245313 156.04 
L 41.245313 7.2 
" style="fill: none; stroke: #000000; stroke-width: 0.8; stroke-linejoin: miter; stroke-linecap: square"/>
   </g>
   <g id="patch_4">
    <path d="M 41.245313 156.04 
L 258.133494 156.04 
" style="fill: none; stroke: #000000; stroke-width: 0.8; stroke-linejoin: miter; stroke-linecap: square"/>
   </g>
   <g id="text_15">
    <text style="font: 9px 'Arial'; text-anchor: start" x="129.213946" y="15.177333" transform="rotate(-0 129.213946 15.177333)">k = 7</text>
   </g>
   <g id="legend_1">
    <g id="line2d_16">
     <path d="M 48.445313 17.32625 
L 56.445313 17.32625 
L 64.445312 17.32625 
" style="fill: none; stroke: #b2182b; stroke-width: 2; stroke-linecap: square"/>
     <g>
      <use xlink:href="#m380826bd95" x="56.445313" y="17.32625" style="fill: #b2182b; stroke: #b2182b"/>
     </g>
    </g>
    <g id="text_16">
     <text style="font: 8px 'Arial'; text-anchor: start" x="70.845313" y="20.12625" transform="rotate(-0 70.845313 20.12625)">Hierarchical</text>
    </g>
    <g id="line2d_17">
     <path d="M 48.445313 28.6425 
L 56.445313 28.6425 
L 64.445312 28.6425 
" style="fill: none; stroke: #3b6ea8; stroke-width: 2; stroke-linecap: square"/>
     <g>
      <use xlink:href="#me6ad64064b" x="56.445313" y="28.6425" style="fill: #3b6ea8; stroke: #3b6ea8; stroke-linejoin: miter"/>
     </g>
    </g>
    <g id="text_17">
     <text style="font: 8px 'Arial'; text-anchor: start" x="70.845313" y="31.4425" transform="rotate(-0 70.845313 31.4425)">KMeans</text>
    </g>
   </g>
  </g>
 </g>
 <defs>
  <clipPath id="p89e1b32d1c">
   <rect x="41.245313" y="7.2" width="216.888182" height="148.84"/>
  </clipPath>
 </defs>
</svg>
