<?xml version="1.0" encoding="utf-8" standalone="no"?>
<!DOCTYPE svg PUBLIC "-//W3C//DTD SVG 1.1//EN"
  "http://www.w3.org/Graphics/SVG/1.1/DTD/svg11.dtd">
<svg xmlns:xlink="http://www.w3.org/1999/xlink" width="504pt" height="504pt" viewBox="0 0 504 504" xmlns="http://www.w3.org/2000/svg" version="1.1">
 <metadata>
  <rdf:RDF xmlns:dc="http://purl.org/dc/elements/1.1/" xmlns:cc="http://creativecommons.org/ns#" xmlns:rdf="http://www.w3.org/1999/02/22-rdf-syntax-ns#">
   <cc:Work>
    <dc:type rdf:resource="http://purl.org/dc/dcmitype/StillImage"/>
    <dc:date>2026-05-22T16:36:12.518307</dc:date>
    <dc:format>image/svg+xml</dc:format>
    <dc:creator>
     <cc:Agent>
      <dc:title>Matplotlib v3.9.4, https://matplotlib.org/</dc:title>
     </cc:Agent>
    </dc:creator>
   </cc:Work>
  </rdf:RDF>
 </metadata>
 <defs>
  <style type="text/css">*{stroke-linejoin: round; stroke-linecap: butt}</style>
 </defs>
 <g id="figure_1">
  <g id="patch_1">
   <path d="M 0 504 
L 504 504 
L 504 0 
L 0 0 
L 0 504 
z
" style="fill: none; opacity: 0"/>
  </g>
  <g id="axes_1">
   <g id="patch_2">
    <path d="M 410.296011 118.484267 
C 391.384452 95.486699 367.61081 76.961811 340.688497 64.244727 
C 313.766184 51.527644 284.357901 44.9314 254.58316 44.9314 
L 254.58316 95.3314 
C 276.914216 95.3314 298.970428 100.278583 319.162163 109.816395 
C 339.353898 119.354208 357.184129 133.247874 371.367798 150.49605 
z
" style="fill: #6c2c0a"/>
   </g>
   <g id="patch_3">
    <path d="M 457.946684 227.45276 
C 455.805171 208.120366 450.877062 189.199255 443.315777 171.27847 
C 435.754492 153.357685 425.639317 136.625144 413.285155 121.601755 
L 374.356942 153.613538 
C 383.622564 164.88108 391.208945 177.430486 396.879909 190.871074 
C 402.550873 204.311663 406.246954 218.502496 407.853089 233.001792 
z
" style="fill: #c15416"/>
   </g>
   <g id="patch_4">
    <path d="M 362.175329 426.919979 
C 394.969341 406.9775 421.396159 378.078479 438.334236 343.63648 
C 455.272312 309.194482 462.027402 270.621189 457.80159 232.472896 
L 407.707995 238.021928 
C 410.877354 266.633148 405.811037 295.563117 393.107479 321.394616 
C 380.403922 347.226115 360.583809 368.900381 335.988299 383.857241 
z
" style="fill: #d57846"/>
   </g>
   <g id="patch_5">
    <path d="M 102.370826 394.034331 
C 133.884977 428.496607 176.415004 450.960776 222.644934 457.562574 
C 268.874863 464.164373 315.992643 454.502229 355.893116 430.238215 
L 329.706087 387.175476 
C 299.780732 405.373486 264.442397 412.620094 229.76995 407.668746 
C 195.097503 402.717397 163.199982 385.86927 139.564369 360.022563 
z
" style="fill: #f29d72"/>
   </g>
   <g id="patch_6">
    <path d="M 50.166847 299.965813 
C 54.046825 316.848266 60.086621 333.160449 68.13682 348.498823 
C 76.187018 363.837198 86.180684 378.07423 97.87059 390.857717 
L 135.064133 356.845949 
C 126.296704 347.258334 118.801454 336.58056 112.763805 325.076779 
C 106.726156 313.572998 102.19631 301.338861 99.286326 288.677021 
z
" style="fill: #be739d"/>
   </g>
   <g id="patch_7">
    <path d="M 78.946311 138.121872 
C 63.488946 161.026817 52.904635 186.867105 47.852319 214.034011 
C 42.800004 241.200917 43.386753 269.118722 49.576037 296.049363 
L 98.695515 284.760571 
C 94.053552 264.56259 93.613491 243.624236 97.402727 223.249057 
C 101.191964 202.873877 109.130197 183.493661 120.723221 166.314953 
z
" style="fill: #6a2f77"/>
   </g>
   <g id="patch_8">
    <path d="M 249.161279 45.059601 
C 216.166611 45.059598 183.670962 53.159656 154.536589 68.64631 
C 125.402217 84.132965 100.510393 106.537769 82.05362 133.887279 
L 123.83053 162.080359 
C 137.67311 141.568227 156.341978 124.764624 178.192757 113.149633 
C 200.043536 101.534642 224.415273 95.459599 249.161274 95.459601 
z
" style="fill: #4c6ba2"/>
   </g>
  </g>
 </g>
</svg>
