<?xml version="1.0" encoding="utf-8" standalone="no"?>
<!DOCTYPE svg PUBLIC "-//W3C//DTD SVG 1.1//EN"
  "http://www.w3.org/Graphics/SVG/1.1/DTD/svg11.dtd">
<svg xmlns:xlink="http://www.w3.org/1999/xlink" width="496.8pt" height="496.8pt" viewBox="0 0 496.8 496.8" xmlns="http://www.w3.org/2000/svg" version="1.1">
 <metadata>
  <rdf:RDF xmlns:dc="http://purl.org/dc/elements/1.1/" xmlns:cc="http://creativecommons.org/ns#" xmlns:rdf="http://www.w3.org/1999/02/22-rdf-syntax-ns#">
   <cc:Work>
    <dc:type rdf:resource="http://purl.org/dc/dcmitype/StillImage"/>
    <dc:date>2026-04-10T16:57:46.520288</dc:date>
    <dc:format>image/svg+xml</dc:format>
    <dc:creator>
     <cc:Agent>
      <dc:title>Matplotlib v3.9.4, https://matplotlib.org/</dc:title>
     </cc:Agent>
    </dc:creator>
   </cc:Work>
  </rdf:RDF>
 </metadata>
 <defs>
  <style type="text/css">*{stroke-linejoin: round; stroke-linecap: butt}</style>
 </defs>
 <g id="figure_1">
  <g id="patch_1">
   <path d="M 0 496.8 
L 496.8 496.8 
L 496.8 0 
L 0 0 
z
" style="fill: #ffffff"/>
  </g>
  <g id="axes_1">
   <g id="patch_2">
    <path d="M 399.911896 120.60637 
C 381.810833 98.594412 359.056061 80.863448 333.287561 68.691382 
C 307.519061 56.519316 279.371133 50.205768 250.872453 50.205768 
L 250.872453 69.501768 
C 276.521265 69.501768 301.854401 75.183961 325.046051 86.138821 
C 348.2377 97.09368 368.716995 113.051548 385.007952 132.86231 
z
" style="fill: #515151"/>
   </g>
   <g id="patch_3">
    <path d="M 445.520397 224.904785 
C 443.470664 206.400921 438.75376 188.290715 431.516529 171.137964 
C 424.279299 153.985213 414.597632 137.969781 402.772934 123.590251 
L 387.86899 135.846191 
C 398.511218 148.787767 407.224718 163.201657 413.738226 178.639133 
C 420.251733 194.076609 424.496946 210.375794 426.341707 227.029271 
z
" style="fill: #f14040"/>
   </g>
   <g id="patch_4">
    <path d="M 353.853529 415.823409 
C 385.242084 396.735608 410.536324 369.075116 426.748483 336.109203 
C 442.960642 303.14329 449.426227 266.223138 445.381522 229.709772 
L 426.202831 231.834259 
C 429.843066 264.696288 424.024039 297.924424 409.433096 327.593746 
C 394.842153 357.263068 372.077337 382.15751 343.827638 399.336532 
z
" style="fill: #1a6fdf"/>
   </g>
   <g id="patch_5">
    <path d="M 105.183505 384.347146 
C 135.347049 417.332466 176.054361 438.833886 220.303008 445.15275 
C 264.551655 451.471614 309.650101 442.223562 347.840554 418.999435 
L 337.814663 402.512557 
C 303.443255 423.414272 262.854653 431.737519 223.030871 426.050541 
C 183.207089 420.363563 146.570508 401.012286 119.423319 371.325497 
z
" style="fill: #37ad6b"/>
   </g>
   <g id="patch_6">
    <path d="M 55.21684 294.310136 
C 58.930533 310.469055 64.71148 326.082144 72.41667 340.763159 
C 80.12186 355.444175 89.687226 369.071049 100.876136 381.306672 
L 115.11595 368.285024 
C 105.045931 357.272963 96.437102 345.008777 89.502431 331.795862 
C 82.56776 318.582948 77.364907 304.531168 74.022583 289.988141 
z
" style="fill: #b177de"/>
   </g>
   <g id="patch_7">
    <path d="M 82.762898 139.402363 
C 67.967991 161.325668 57.837293 186.058515 53.001506 212.061124 
C 48.165718 238.063734 48.72732 264.785062 54.651349 290.561533 
L 73.457093 286.239538 
C 68.125467 263.040714 67.620024 238.99152 71.972233 215.589171 
C 76.324442 192.186822 85.44207 169.92726 98.757486 150.196285 
z
" style="fill: #cc9900"/>
   </g>
   <g id="patch_8">
    <path d="M 245.682938 50.328476 
C 214.102327 50.328473 182.999349 58.081385 155.113593 72.904326 
C 127.227836 87.727267 103.402805 109.171865 85.737036 135.349252 
L 101.731625 146.143175 
C 117.630816 122.583526 139.073345 103.283388 164.170525 89.942741 
C 189.267706 76.602094 217.260387 69.624473 245.682936 69.624476 
z
" style="fill: #00cbcc"/>
   </g>
   <g id="matplotlib.axis_1"/>
   <g id="matplotlib.axis_2"/>
   <g id="line2d_1">
    <path d="M 367.631554 150.352481 
L 442.151275 89.072782 
" clip-path="url(#peb168c9b18)" style="fill: none; stroke-dasharray: 5.55,2.4; stroke-dashoffset: 0; stroke: #000000; stroke-opacity: 0.6; stroke-width: 1.5"/>
   </g>
   <g id="line2d_2">
    <path d="M 401.829525 231.404108 
L 497.722978 220.781676 
" clip-path="url(#peb168c9b18)" style="fill: none; stroke-dasharray: 5.55,2.4; stroke-dashoffset: 0; stroke: #000000; stroke-opacity: 0.6; stroke-width: 1.5"/>
   </g>
   <g id="line2d_3">
    <path d="M 328.60713 380.295018 
L 378.736587 462.729404 
" clip-path="url(#peb168c9b18)" style="fill: none; stroke-dasharray: 5.55,2.4; stroke-dashoffset: 0; stroke: #000000; stroke-opacity: 0.6; stroke-width: 1.5"/>
   </g>
   <g id="line2d_4">
    <path d="M 134.481491 352.573186 
L 63.282423 417.681428 
" clip-path="url(#peb168c9b18)" style="fill: none; stroke-dasharray: 5.55,2.4; stroke-dashoffset: 0; stroke: #000000; stroke-opacity: 0.6; stroke-width: 1.5"/>
   </g>
   <g id="line2d_5">
    <path d="M 97.954054 282.975957 
L 3.925338 304.585931 
" clip-path="url(#peb168c9b18)" style="fill: none; stroke-dasharray: 5.55,2.4; stroke-dashoffset: 0; stroke: #000000; stroke-opacity: 0.6; stroke-width: 1.5"/>
   </g>
   <g id="line2d_6">
    <path d="M 120.443293 162.048622 
L 40.470351 108.07901 
" clip-path="url(#peb168c9b18)" style="fill: none; stroke-dasharray: 5.55,2.4; stroke-dashoffset: 0; stroke: #000000; stroke-opacity: 0.6; stroke-width: 1.5"/>
   </g>
   <g id="line2d_7">
    <path d="M 248.400014 94.032 
L 248.400023 -1 
" clip-path="url(#peb168c9b18)" style="fill: none; stroke-dasharray: 5.55,2.4; stroke-dashoffset: 0; stroke: #000000; stroke-opacity: 0.6; stroke-width: 1.5"/>
   </g>
  </g>
 </g>
 <defs>
  <clipPath id="peb168c9b18">
   <rect x="7.2" y="7.2" width="482.4" height="482.4"/>
  </clipPath>
 </defs>
</svg>
