<?xml version="1.0" encoding="utf-8" standalone="no"?>
<!DOCTYPE svg PUBLIC "-//W3C//DTD SVG 1.1//EN"
  "http://www.w3.org/Graphics/SVG/1.1/DTD/svg11.dtd">
<svg xmlns:xlink="http://www.w3.org/1999/xlink" width="503.193408pt" height="332.236543pt" viewBox="0 0 503.193408 332.236543" xmlns="http://www.w3.org/2000/svg" version="1.1">
 <metadata>
  <rdf:RDF xmlns:dc="http://purl.org/dc/elements/1.1/" xmlns:cc="http://creativecommons.org/ns#" xmlns:rdf="http://www.w3.org/1999/02/22-rdf-syntax-ns#">
   <cc:Work>
    <dc:type rdf:resource="http://purl.org/dc/dcmitype/StillImage"/>
    <dc:date>2026-06-24T15:33:46.325105</dc:date>
    <dc:format>image/svg+xml</dc:format>
    <dc:creator>
     <cc:Agent>
      <dc:title>Matplotlib v3.9.4, https://matplotlib.org/</dc:title>
     </cc:Agent>
    </dc:creator>
   </cc:Work>
  </rdf:RDF>
 </metadata>
 <defs>
  <style type="text/css">*{stroke-linejoin: round; stroke-linecap: butt}</style>
 </defs>
 <g id="figure_1">
  <g id="patch_1">
   <path d="M 0 332.236543 
L 503.193408 332.236543 
L 503.193408 0 
L 0 0 
L 0 332.236543 
z
" style="fill: none"/>
  </g>
  <g id="axes_1">
   <g id="patch_2">
    <path d="M 59.903438 143.428115 
L 495.993408 143.428115 
L 495.993408 21.935625 
L 59.903438 21.935625 
L 59.903438 143.428115 
z
" style="fill: none"/>
   </g>
   <g id="PolyCollection_1">
    <defs>
     <path id="mc8708c01fe" d="M 79.725709 -295.31354 
L 79.725709 -207.71677 
L 81.056063 -208.876508 
L 82.386416 -209.900009 
L 83.71677 -210.88289 
L 85.047124 -211.798581 
L 86.377478 -212.681922 
L 87.707832 -213.589977 
L 89.038185 -214.452315 
L 90.368539 -216.686647 
L 91.698893 -218.665164 
L 93.029247 -220.297617 
L 94.359601 -221.60754 
L 95.689954 -222.760464 
L 97.020308 -223.811505 
L 98.350662 -224.741523 
L 99.681016 -225.546964 
L 101.011369 -226.111593 
L 102.341723 -226.390768 
L 103.672077 -226.387401 
L 105.002431 -226.428247 
L 106.332785 -226.457093 
L 107.663138 -226.301068 
L 108.993492 -226.034381 
L 110.323846 -225.789991 
L 111.6542 -225.376713 
L 112.984553 -225.028135 
L 114.314907 -224.850981 
L 115.645261 -224.722758 
L 116.975615 -224.654789 
L 118.305969 -224.462949 
L 119.636322 -224.206082 
L 120.966676 -224.054395 
L 122.29703 -224.097618 
L 123.627384 -224.218122 
L 124.957738 -224.263597 
L 126.288091 -224.154749 
L 127.618445 -224.066061 
L 128.948799 -224.034682 
L 130.279153 -223.830905 
L 131.609506 -223.708042 
L 132.93986 -223.516295 
L 134.270214 -223.114746 
L 135.600568 -222.634516 
L 136.930922 -222.148659 
L 138.261275 -221.729777 
L 139.591629 -221.415226 
L 140.921983 -221.021847 
L 142.252337 -220.663033 
L 143.582691 -220.360966 
L 144.913044 -219.951732 
L 146.243398 -219.518339 
L 147.573752 -219.225785 
L 148.904106 -218.893959 
L 150.234459 -218.628587 
L 151.564813 -218.331775 
L 152.895167 -218.060082 
L 154.225521 -217.862271 
L 155.555875 -217.653507 
L 156.886228 -217.392523 
L 158.216582 -217.244617 
L 159.546936 -217.202168 
L 160.87729 -217.335772 
L 162.207644 -217.475097 
L 163.537997 -217.662737 
L 164.868351 -217.955899 
L 166.198705 -218.266441 
L 167.529059 -218.632763 
L 168.859412 -219.04596 
L 170.189766 -219.497122 
L 171.52012 -219.979 
L 172.850474 -220.429366 
L 174.180828 -220.855921 
L 175.511181 -221.241509 
L 176.841535 -221.506747 
L 178.171889 -221.687582 
L 179.502243 -221.714565 
L 180.832596 -221.569551 
L 182.16295 -221.358557 
L 183.493304 -221.101209 
L 184.823658 -220.70273 
L 186.154012 -220.357861 
L 187.484365 -219.874558 
L 188.814719 -219.284116 
L 190.145073 -218.753151 
L 191.475427 -218.24064 
L 192.805781 -217.757871 
L 194.136134 -217.20437 
L 195.466488 -216.713045 
L 196.796842 -216.297122 
L 198.127196 -215.908528 
L 199.457549 -215.537545 
L 200.787903 -215.227033 
L 202.118257 -214.994576 
L 203.448611 -214.844409 
L 204.778965 -214.685504 
L 206.109318 -214.6617 
L 207.439672 -214.556617 
L 208.770026 -214.496157 
L 210.10038 -214.189579 
L 211.430734 -213.856391 
L 212.761087 -213.337869 
L 214.091441 -213.053944 
L 215.421795 -212.684529 
L 216.752149 -212.352265 
L 218.082502 -212.066417 
L 219.412856 -211.820475 
L 220.74321 -211.550472 
L 222.073564 -211.264511 
L 223.403918 -210.84002 
L 224.734271 -210.54777 
L 226.064625 -210.192652 
L 227.394979 -209.887962 
L 228.725333 -209.578081 
L 230.055687 -209.415597 
L 231.38604 -209.139955 
L 232.716394 -208.935533 
L 234.046748 -208.662237 
L 235.377102 -208.351965 
L 236.707455 -207.980338 
L 238.037809 -207.444403 
L 239.368163 -207.073547 
L 240.698517 -206.94828 
L 242.028871 -206.923026 
L 243.359224 -206.960779 
L 244.689578 -206.996714 
L 246.019932 -207.087095 
L 247.350286 -207.006845 
L 248.680639 -206.946128 
L 250.010993 -206.766692 
L 251.341347 -206.835177 
L 252.671701 -206.94904 
L 254.002055 -206.825191 
L 255.332408 -206.740155 
L 256.662762 -206.578483 
L 257.993116 -206.479889 
L 259.32347 -206.035203 
L 260.653824 -205.312628 
L 261.984177 -204.423084 
L 263.314531 -203.575353 
L 264.644885 -202.692821 
L 265.975239 -201.648973 
L 267.305592 -200.640297 
L 268.635946 -199.812833 
L 269.9663 -199.17843 
L 271.296654 -198.304895 
L 272.627008 -197.532799 
L 273.957361 -196.722126 
L 275.287715 -196.094311 
L 276.618069 -195.562373 
L 277.948423 -195.074382 
L 279.278777 -194.877671 
L 280.60913 -194.683422 
L 281.939484 -194.64111 
L 283.269838 -194.441137 
L 284.600192 -194.330814 
L 285.930545 -194.331536 
L 287.260899 -194.450613 
L 288.591253 -194.456534 
L 289.921607 -194.440558 
L 291.251961 -194.558718 
L 292.582314 -194.590995 
L 293.912668 -194.945255 
L 295.243022 -195.253773 
L 296.573376 -195.423944 
L 297.903729 -195.838008 
L 299.234083 -196.045515 
L 300.564437 -196.275857 
L 301.894791 -196.461138 
L 303.225145 -197.052268 
L 304.555498 -197.620407 
L 305.885852 -198.12803 
L 307.216206 -198.94059 
L 308.54656 -199.715701 
L 309.876914 -200.295475 
L 311.207267 -200.981791 
L 312.537621 -201.753251 
L 313.867975 -202.318143 
L 315.198329 -202.874 
L 316.528682 -203.616348 
L 317.859036 -204.054245 
L 319.18939 -204.601194 
L 320.519744 -205.249507 
L 321.850098 -205.779544 
L 323.180451 -205.873155 
L 324.510805 -205.880816 
L 325.841159 -206.070904 
L 327.171513 -205.781671 
L 328.501867 -205.585887 
L 329.83222 -205.746945 
L 331.162574 -205.847635 
L 332.492928 -205.677584 
L 333.823282 -205.736717 
L 335.153635 -205.762228 
L 336.483989 -205.731141 
L 337.814343 -206.041994 
L 339.144697 -206.3183 
L 340.475051 -206.666635 
L 341.805404 -207.092995 
L 343.135758 -207.706994 
L 344.466112 -208.342488 
L 345.796466 -208.848331 
L 347.12682 -209.555779 
L 348.457173 -210.098043 
L 349.787527 -210.39875 
L 351.117881 -210.531817 
L 352.448235 -210.835406 
L 353.778588 -210.954608 
L 355.108942 -210.98448 
L 356.439296 -210.936153 
L 357.76965 -210.532778 
L 359.100004 -210.20609 
L 360.430357 -209.918346 
L 361.760711 -209.604536 
L 363.091065 -209.33426 
L 364.421419 -209.207736 
L 365.751772 -209.016623 
L 367.082126 -208.778236 
L 368.41248 -208.780235 
L 369.742834 -208.785232 
L 371.073188 -208.50687 
L 372.403541 -208.279126 
L 373.733895 -207.984759 
L 375.064249 -207.734573 
L 376.394603 -207.60896 
L 377.724957 -207.624254 
L 379.05531 -207.421852 
L 380.385664 -206.899101 
L 381.716018 -206.453077 
L 383.046372 -206.018925 
L 384.376725 -205.550037 
L 385.707079 -204.936928 
L 387.037433 -204.473844 
L 388.367787 -203.884629 
L 389.698141 -203.410166 
L 391.028494 -203.286807 
L 392.358848 -203.067252 
L 393.689202 -202.998251 
L 395.019556 -203.004875 
L 396.34991 -202.948826 
L 397.680263 -202.919389 
L 399.010617 -203.064548 
L 400.340971 -203.370082 
L 401.671325 -203.621358 
L 403.001678 -203.933412 
L 404.332032 -203.991108 
L 405.662386 -204.146325 
L 406.99274 -204.073532 
L 408.323094 -203.883782 
L 409.653447 -203.565466 
L 410.983801 -203.363975 
L 412.314155 -203.285574 
L 413.644509 -203.15616 
L 414.974863 -202.868363 
L 416.305216 -202.657839 
L 417.63557 -202.345472 
L 418.965924 -202.13098 
L 420.296278 -201.925769 
L 421.626631 -201.692866 
L 422.956985 -201.35937 
L 424.287339 -201.170536 
L 425.617693 -200.931271 
L 426.948047 -200.913465 
L 428.2784 -200.900983 
L 429.608754 -201.030045 
L 430.939108 -201.13331 
L 432.269462 -201.518696 
L 433.599815 -201.812904 
L 434.930169 -202.300532 
L 436.260523 -202.533009 
L 437.590877 -202.930908 
L 438.921231 -203.129382 
L 440.251584 -203.442244 
L 441.581938 -203.692426 
L 442.912292 -203.855511 
L 444.242646 -203.919009 
L 445.573 -204.062017 
L 446.903353 -204.028082 
L 448.233707 -204.02227 
L 449.564061 -203.976901 
L 450.894415 -203.871346 
L 452.224768 -203.307747 
L 453.555122 -202.793761 
L 454.885476 -202.056068 
L 456.21583 -201.504736 
L 457.546184 -200.813097 
L 458.876537 -200.272071 
L 460.206891 -199.619138 
L 461.537245 -199.008304 
L 462.867599 -198.451322 
L 464.197953 -198.040567 
L 465.528306 -197.599081 
L 466.85866 -197.128729 
L 468.189014 -196.886213 
L 469.519368 -196.55039 
L 470.849721 -196.17002 
L 472.180075 -195.94412 
L 473.510429 -195.737831 
L 474.840783 -195.712638 
L 476.171137 -195.723506 
L 476.171137 -277.139736 
L 476.171137 -277.139736 
L 474.840783 -277.334249 
L 473.510429 -277.450444 
L 472.180075 -277.549308 
L 470.849721 -277.783494 
L 469.519368 -278.022493 
L 468.189014 -278.240312 
L 466.85866 -278.458187 
L 465.528306 -278.851781 
L 464.197953 -279.328229 
L 462.867599 -279.754502 
L 461.537245 -280.181722 
L 460.206891 -280.565077 
L 458.876537 -281.056799 
L 457.546184 -281.467564 
L 456.21583 -281.690141 
L 454.885476 -281.945471 
L 453.555122 -282.24099 
L 452.224768 -282.509299 
L 450.894415 -282.672674 
L 449.564061 -282.857998 
L 448.233707 -283.062271 
L 446.903353 -283.319363 
L 445.573 -283.487914 
L 444.242646 -283.54157 
L 442.912292 -283.674177 
L 441.581938 -283.75901 
L 440.251584 -283.944187 
L 438.921231 -284.066759 
L 437.590877 -284.152512 
L 436.260523 -284.340361 
L 434.930169 -284.561546 
L 433.599815 -284.677234 
L 432.269462 -284.840928 
L 430.939108 -284.929021 
L 429.608754 -285.068238 
L 428.2784 -285.128708 
L 426.948047 -285.042668 
L 425.617693 -284.901326 
L 424.287339 -284.769704 
L 422.956985 -284.567058 
L 421.626631 -284.330521 
L 420.296278 -284.059249 
L 418.965924 -283.709745 
L 417.63557 -283.313069 
L 416.305216 -282.857841 
L 414.974863 -282.318357 
L 413.644509 -281.710399 
L 412.314155 -281.189778 
L 410.983801 -280.732051 
L 409.653447 -280.281897 
L 408.323094 -279.829254 
L 406.99274 -279.45117 
L 405.662386 -279.121315 
L 404.332032 -278.630569 
L 403.001678 -278.276746 
L 401.671325 -277.806607 
L 400.340971 -277.255923 
L 399.010617 -276.852858 
L 397.680263 -276.750363 
L 396.34991 -276.826295 
L 395.019556 -276.959674 
L 393.689202 -277.234146 
L 392.358848 -277.479061 
L 391.028494 -277.774156 
L 389.698141 -277.982647 
L 388.367787 -278.314106 
L 387.037433 -278.679001 
L 385.707079 -279.06605 
L 384.376725 -279.655706 
L 383.046372 -280.115651 
L 381.716018 -280.719457 
L 380.385664 -281.457968 
L 379.05531 -282.056716 
L 377.724957 -282.408802 
L 376.394603 -282.621077 
L 375.064249 -282.819495 
L 373.733895 -283.044144 
L 372.403541 -283.240515 
L 371.073188 -283.418745 
L 369.742834 -283.562375 
L 368.41248 -283.720939 
L 367.082126 -283.862926 
L 365.751772 -283.993917 
L 364.421419 -284.09956 
L 363.091065 -284.286156 
L 361.760711 -284.512249 
L 360.430357 -284.720694 
L 359.100004 -285.007827 
L 357.76965 -285.312445 
L 356.439296 -285.529643 
L 355.108942 -285.687668 
L 353.778588 -285.804235 
L 352.448235 -285.910261 
L 351.117881 -285.982734 
L 349.787527 -286.082519 
L 348.457173 -286.000665 
L 347.12682 -285.815745 
L 345.796466 -285.641003 
L 344.466112 -285.430549 
L 343.135758 -285.072509 
L 341.805404 -284.680052 
L 340.475051 -284.244217 
L 339.144697 -283.915237 
L 337.814343 -283.625523 
L 336.483989 -283.528033 
L 335.153635 -283.469388 
L 333.823282 -283.469728 
L 332.492928 -283.551771 
L 331.162574 -283.714811 
L 329.83222 -283.979316 
L 328.501867 -284.231693 
L 327.171513 -284.482117 
L 325.841159 -284.71137 
L 324.510805 -284.924873 
L 323.180451 -285.24301 
L 321.850098 -285.582382 
L 320.519744 -285.820592 
L 319.18939 -285.929593 
L 317.859036 -285.98914 
L 316.528682 -285.890126 
L 315.198329 -285.6654 
L 313.867975 -285.534956 
L 312.537621 -285.304 
L 311.207267 -285.084143 
L 309.876914 -284.671598 
L 308.54656 -284.354696 
L 307.216206 -284.063939 
L 305.885852 -283.815143 
L 304.555498 -283.55087 
L 303.225145 -283.230922 
L 301.894791 -283.038103 
L 300.564437 -283.008704 
L 299.234083 -283.076863 
L 297.903729 -283.288559 
L 296.573376 -283.477184 
L 295.243022 -283.891197 
L 293.912668 -284.207387 
L 292.582314 -284.610664 
L 291.251961 -284.999712 
L 289.921607 -285.446737 
L 288.591253 -285.891509 
L 287.260899 -286.477177 
L 285.930545 -287.042436 
L 284.600192 -287.65563 
L 283.269838 -288.318444 
L 281.939484 -288.816141 
L 280.60913 -289.261094 
L 279.278777 -289.633722 
L 277.948423 -289.950675 
L 276.618069 -290.484321 
L 275.287715 -290.85364 
L 273.957361 -291.079063 
L 272.627008 -291.36236 
L 271.296654 -291.519073 
L 269.9663 -291.68157 
L 268.635946 -291.733268 
L 267.305592 -291.694973 
L 265.975239 -291.75295 
L 264.644885 -291.778849 
L 263.314531 -291.849693 
L 261.984177 -291.882746 
L 260.653824 -291.950437 
L 259.32347 -292.061303 
L 257.993116 -292.112308 
L 256.662762 -291.977713 
L 255.332408 -291.977291 
L 254.002055 -292.077276 
L 252.671701 -292.14487 
L 251.341347 -292.208136 
L 250.010993 -292.293569 
L 248.680639 -292.555349 
L 247.350286 -292.833159 
L 246.019932 -293.038369 
L 244.689578 -293.283447 
L 243.359224 -293.481232 
L 242.028871 -293.677421 
L 240.698517 -293.788013 
L 239.368163 -293.822613 
L 238.037809 -293.927661 
L 236.707455 -294.049988 
L 235.377102 -294.133651 
L 234.046748 -294.275694 
L 232.716394 -294.299783 
L 231.38604 -294.260175 
L 230.055687 -294.171098 
L 228.725333 -293.933384 
L 227.394979 -293.917004 
L 226.064625 -293.96417 
L 224.734271 -294.000603 
L 223.403918 -293.982871 
L 222.073564 -294.033051 
L 220.74321 -294.184218 
L 219.412856 -294.218902 
L 218.082502 -294.290467 
L 216.752149 -294.434461 
L 215.421795 -294.575889 
L 214.091441 -294.605477 
L 212.761087 -294.632952 
L 211.430734 -294.794474 
L 210.10038 -295.008956 
L 208.770026 -295.245828 
L 207.439672 -295.139532 
L 206.109318 -294.959623 
L 204.778965 -294.706183 
L 203.448611 -294.524228 
L 202.118257 -294.367941 
L 200.787903 -294.315575 
L 199.457549 -294.408296 
L 198.127196 -294.43228 
L 196.796842 -294.471129 
L 195.466488 -294.495734 
L 194.136134 -294.635158 
L 192.805781 -294.803592 
L 191.475427 -295.026119 
L 190.145073 -295.274638 
L 188.814719 -295.669988 
L 187.484365 -296.257722 
L 186.154012 -296.770562 
L 184.823658 -297.385997 
L 183.493304 -297.920488 
L 182.16295 -298.242178 
L 180.832596 -298.457242 
L 179.502243 -298.720758 
L 178.171889 -299.02691 
L 176.841535 -299.229254 
L 175.511181 -299.426748 
L 174.180828 -299.545962 
L 172.850474 -299.606573 
L 171.52012 -299.554228 
L 170.189766 -299.436388 
L 168.859412 -299.250158 
L 167.529059 -299.012721 
L 166.198705 -298.791116 
L 164.868351 -298.479977 
L 163.537997 -298.259123 
L 162.207644 -298.142641 
L 160.87729 -298.022732 
L 159.546936 -297.892655 
L 158.216582 -297.806637 
L 156.886228 -297.811388 
L 155.555875 -297.857712 
L 154.225521 -297.965014 
L 152.895167 -298.107587 
L 151.564813 -298.308308 
L 150.234459 -298.530336 
L 148.904106 -298.731305 
L 147.573752 -298.903117 
L 146.243398 -299.116285 
L 144.913044 -299.450966 
L 143.582691 -299.884736 
L 142.252337 -300.399156 
L 140.921983 -300.950529 
L 139.591629 -301.367299 
L 138.261275 -301.649667 
L 136.930922 -301.837988 
L 135.600568 -301.914602 
L 134.270214 -301.896394 
L 132.93986 -301.896523 
L 131.609506 -301.907881 
L 130.279153 -301.944915 
L 128.948799 -301.938645 
L 127.618445 -301.873047 
L 126.288091 -301.883261 
L 124.957738 -301.872931 
L 123.627384 -301.823943 
L 122.29703 -301.812909 
L 120.966676 -301.851957 
L 119.636322 -302.042965 
L 118.305969 -302.305468 
L 116.975615 -302.626391 
L 115.645261 -303.020972 
L 114.314907 -303.469596 
L 112.984553 -303.786161 
L 111.6542 -304.011042 
L 110.323846 -304.150659 
L 108.993492 -304.350352 
L 107.663138 -304.587211 
L 106.332785 -304.726927 
L 105.002431 -304.778532 
L 103.672077 -304.713413 
L 102.341723 -304.541697 
L 101.011369 -304.216541 
L 99.681016 -303.771216 
L 98.350662 -303.245455 
L 97.020308 -302.676838 
L 95.689954 -302.008821 
L 94.359601 -301.345952 
L 93.029247 -300.788026 
L 91.698893 -300.187142 
L 90.368539 -299.392675 
L 89.038185 -298.202711 
L 87.707832 -297.81965 
L 86.377478 -297.429264 
L 85.047124 -297.053851 
L 83.71677 -296.647417 
L 82.386416 -296.218257 
L 81.056063 -295.782866 
L 79.725709 -295.31354 
z
" style="stroke: #3b6ea8; stroke-opacity: 0.2"/>
    </defs>
    <g clip-path="url(#pf7fc3e0e25)">
     <use xlink:href="#mc8708c01fe" x="0" y="332.236543" style="fill: #3b6ea8; fill-opacity: 0.2; stroke: #3b6ea8; stroke-opacity: 0.2"/>
    </g>
   </g>
   <g id="matplotlib.axis_1">
    <g id="xtick_1">
     <g id="line2d_1">
      <defs>
       <path id="m4596127554" d="M 0 0 
L 0 3.5 
" style="stroke: #000000; stroke-width: 0.8"/>
      </defs>
      <g>
       <use xlink:href="#m4596127554" x="77.065001" y="143.428115" style="stroke: #000000; stroke-width: 0.8"/>
      </g>
     </g>
    </g>
    <g id="xtick_2">
     <g id="line2d_2">
      <g>
       <use xlink:href="#m4596127554" x="143.582691" y="143.428115" style="stroke: #000000; stroke-width: 0.8"/>
      </g>
     </g>
    </g>
    <g id="xtick_3">
     <g id="line2d_3">
      <g>
       <use xlink:href="#m4596127554" x="210.10038" y="143.428115" style="stroke: #000000; stroke-width: 0.8"/>
      </g>
     </g>
    </g>
    <g id="xtick_4">
     <g id="line2d_4">
      <g>
       <use xlink:href="#m4596127554" x="276.618069" y="143.428115" style="stroke: #000000; stroke-width: 0.8"/>
      </g>
     </g>
    </g>
    <g id="xtick_5">
     <g id="line2d_5">
      <g>
       <use xlink:href="#m4596127554" x="343.135758" y="143.428115" style="stroke: #000000; stroke-width: 0.8"/>
      </g>
     </g>
    </g>
    <g id="xtick_6">
     <g id="line2d_6">
      <g>
       <use xlink:href="#m4596127554" x="409.653447" y="143.428115" style="stroke: #000000; stroke-width: 0.8"/>
      </g>
     </g>
    </g>
    <g id="xtick_7">
     <g id="line2d_7">
      <g>
       <use xlink:href="#m4596127554" x="476.171137" y="143.428115" style="stroke: #000000; stroke-width: 0.8"/>
      </g>
     </g>
    </g>
   </g>
   <g id="matplotlib.axis_2">
    <g id="ytick_1">
     <g id="line2d_8">
      <defs>
       <path id="maaca006e3c" d="M 0 0 
L -3.5 0 
" style="stroke: #000000; stroke-width: 0.8"/>
      </defs>
      <g>
       <use xlink:href="#maaca006e3c" x="59.903438" y="139.637779" style="stroke: #000000; stroke-width: 0.8"/>
      </g>
     </g>
     <g id="text_1">
      <text style="font: 10px 'Arial'; text-anchor: end" x="52.903438" y="143.216685" transform="rotate(-0 52.903438 143.216685)">0.0010</text>
     </g>
    </g>
    <g id="ytick_2">
     <g id="line2d_9">
      <g>
       <use xlink:href="#maaca006e3c" x="59.903438" y="118.531633" style="stroke: #000000; stroke-width: 0.8"/>
      </g>
     </g>
     <g id="text_2">
      <text style="font: 10px 'Arial'; text-anchor: end" x="52.903438" y="122.11054" transform="rotate(-0 52.903438 122.11054)">0.0011</text>
     </g>
    </g>
    <g id="ytick_3">
     <g id="line2d_10">
      <g>
       <use xlink:href="#maaca006e3c" x="59.903438" y="97.425487" style="stroke: #000000; stroke-width: 0.8"/>
      </g>
     </g>
     <g id="text_3">
      <text style="font: 10px 'Arial'; text-anchor: end" x="52.903438" y="101.004394" transform="rotate(-0 52.903438 101.004394)">0.0012</text>
     </g>
    </g>
    <g id="ytick_4">
     <g id="line2d_11">
      <g>
       <use xlink:href="#maaca006e3c" x="59.903438" y="76.319342" style="stroke: #000000; stroke-width: 0.8"/>
      </g>
     </g>
     <g id="text_4">
      <text style="font: 10px 'Arial'; text-anchor: end" x="52.903438" y="79.898248" transform="rotate(-0 52.903438 79.898248)">0.0013</text>
     </g>
    </g>
    <g id="ytick_5">
     <g id="line2d_12">
      <g>
       <use xlink:href="#maaca006e3c" x="59.903438" y="55.213196" style="stroke: #000000; stroke-width: 0.8"/>
      </g>
     </g>
     <g id="text_5">
      <text style="font: 10px 'Arial'; text-anchor: end" x="52.903438" y="58.792102" transform="rotate(-0 52.903438 58.792102)">0.0014</text>
     </g>
    </g>
    <g id="ytick_6">
     <g id="line2d_13">
      <g>
       <use xlink:href="#maaca006e3c" x="59.903438" y="34.10705" style="stroke: #000000; stroke-width: 0.8"/>
      </g>
     </g>
     <g id="text_6">
      <text style="font: 10px 'Arial'; text-anchor: end" x="52.903438" y="37.685956" transform="rotate(-0 52.903438 37.685956)">0.0015</text>
     </g>
    </g>
    <g id="text_7">
     <text style="font: 12px 'Arial'; text-anchor: middle" x="15.935625" y="82.68187" transform="rotate(-90 15.935625 82.68187)">Drift speed</text>
    </g>
   </g>
   <g id="line2d_14">
    <path d="M 79.725709 80.721388 
L 82.386416 79.17741 
L 86.377478 77.18095 
L 89.038185 75.90903 
L 90.368539 74.196882 
L 91.698893 72.81039 
L 93.029247 71.693721 
L 97.020308 68.992371 
L 99.681016 67.577453 
L 101.011369 67.072476 
L 102.341723 66.770311 
L 105.002431 66.633153 
L 106.332785 66.644533 
L 108.993492 67.044177 
L 111.6542 67.542665 
L 116.975615 68.595953 
L 120.966676 69.283366 
L 130.279153 69.348633 
L 132.93986 69.530134 
L 136.930922 70.243219 
L 140.921983 71.250355 
L 144.913044 72.535194 
L 146.243398 72.91923 
L 152.895167 74.152709 
L 156.886228 74.634588 
L 159.546936 74.689131 
L 163.537997 74.275613 
L 167.529059 73.413801 
L 172.850474 72.218573 
L 175.511181 71.902414 
L 178.171889 71.879296 
L 180.832596 72.223147 
L 183.493304 72.725695 
L 187.484365 74.170403 
L 188.814719 74.759491 
L 191.475427 75.603163 
L 195.466488 76.632153 
L 200.787903 77.465239 
L 203.448611 77.552224 
L 206.109318 77.425881 
L 208.770026 77.36555 
L 214.091441 78.406832 
L 227.394979 80.33406 
L 228.725333 80.48081 
L 230.055687 80.443195 
L 234.046748 80.767577 
L 238.037809 81.550511 
L 239.368163 81.788462 
L 247.350286 82.316541 
L 251.341347 82.714886 
L 252.671701 82.689588 
L 256.662762 82.958445 
L 257.993116 82.940444 
L 259.32347 83.18829 
L 263.314531 84.52402 
L 277.948423 89.724014 
L 283.269838 90.856752 
L 285.930545 91.549557 
L 292.582314 92.635713 
L 299.234083 92.675354 
L 301.894791 92.486922 
L 305.885852 91.264957 
L 312.537621 88.707917 
L 317.859036 87.21485 
L 321.850098 86.55558 
L 327.171513 87.104649 
L 328.501867 87.327753 
L 331.162574 87.45532 
L 332.492928 87.621866 
L 336.483989 87.606956 
L 339.144697 87.119775 
L 341.805404 86.350019 
L 344.466112 85.350024 
L 349.787527 83.995909 
L 356.439296 84.003645 
L 361.760711 85.17815 
L 364.421419 85.582895 
L 368.41248 85.985956 
L 369.742834 86.062739 
L 379.05531 87.497259 
L 385.707079 90.235054 
L 389.698141 91.540136 
L 396.34991 92.348982 
L 397.680263 92.401667 
L 399.010617 92.27784 
L 405.662386 90.602723 
L 420.296278 89.244034 
L 424.287339 89.266423 
L 425.617693 89.320244 
L 429.608754 89.187401 
L 430.939108 89.205377 
L 434.930169 88.805504 
L 437.590877 88.694833 
L 445.573 88.461577 
L 450.894415 88.964533 
L 453.555122 89.719167 
L 456.21583 90.639104 
L 458.876537 91.572108 
L 461.537245 92.64153 
L 465.528306 94.011112 
L 466.85866 94.443085 
L 469.519368 94.950101 
L 472.180075 95.489829 
L 474.840783 95.713099 
L 476.171137 95.804921 
L 476.171137 95.804921 
" clip-path="url(#pf7fc3e0e25)" style="fill: none; stroke: #3b6ea8; stroke-width: 2.8; stroke-linecap: square"/>
   </g>
   <g id="patch_3">
    <path d="M 59.903438 143.428115 
L 59.903438 21.935625 
" style="fill: none; stroke: #000000; stroke-width: 0.8; stroke-linejoin: miter; stroke-linecap: square"/>
   </g>
   <g id="patch_4">
    <path d="M 59.903438 143.428115 
L 495.993408 143.428115 
" style="fill: none; stroke: #000000; stroke-width: 0.8; stroke-linejoin: miter; stroke-linecap: square"/>
   </g>
   <g id="text_8">
    <text style="font: 12px 'Arial'; text-anchor: middle" x="277.948423" y="15.935625" transform="rotate(-0 277.948423 15.935625)">Average prototype drift speed</text>
   </g>
  </g>
  <g id="axes_2">
   <g id="patch_5">
    <path d="M 59.903438 293.916855 
L 495.993408 293.916855 
L 495.993408 172.424365 
L 59.903438 172.424365 
L 59.903438 293.916855 
z
" style="fill: none"/>
   </g>
   <g id="matplotlib.axis_3">
    <g id="xtick_8">
     <g id="line2d_15">
      <g>
       <use xlink:href="#m4596127554" x="77.065001" y="293.916855" style="stroke: #000000; stroke-width: 0.8"/>
      </g>
     </g>
     <g id="text_9">
      <text style="font: 10px 'Arial'; text-anchor: middle" x="77.065001" y="308.074668" transform="rotate(-0 77.065001 308.074668)">0</text>
     </g>
    </g>
    <g id="xtick_9">
     <g id="line2d_16">
      <g>
       <use xlink:href="#m4596127554" x="143.582691" y="293.916855" style="stroke: #000000; stroke-width: 0.8"/>
      </g>
     </g>
     <g id="text_10">
      <text style="font: 10px 'Arial'; text-anchor: middle" x="143.582691" y="308.074668" transform="rotate(-0 143.582691 308.074668)">50</text>
     </g>
    </g>
    <g id="xtick_10">
     <g id="line2d_17">
      <g>
       <use xlink:href="#m4596127554" x="210.10038" y="293.916855" style="stroke: #000000; stroke-width: 0.8"/>
      </g>
     </g>
     <g id="text_11">
      <text style="font: 10px 'Arial'; text-anchor: middle" x="210.10038" y="308.074668" transform="rotate(-0 210.10038 308.074668)">100</text>
     </g>
    </g>
    <g id="xtick_11">
     <g id="line2d_18">
      <g>
       <use xlink:href="#m4596127554" x="276.618069" y="293.916855" style="stroke: #000000; stroke-width: 0.8"/>
      </g>
     </g>
     <g id="text_12">
      <text style="font: 10px 'Arial'; text-anchor: middle" x="276.618069" y="308.074668" transform="rotate(-0 276.618069 308.074668)">150</text>
     </g>
    </g>
    <g id="xtick_12">
     <g id="line2d_19">
      <g>
       <use xlink:href="#m4596127554" x="343.135758" y="293.916855" style="stroke: #000000; stroke-width: 0.8"/>
      </g>
     </g>
     <g id="text_13">
      <text style="font: 10px 'Arial'; text-anchor: middle" x="343.135758" y="308.074668" transform="rotate(-0 343.135758 308.074668)">200</text>
     </g>
    </g>
    <g id="xtick_13">
     <g id="line2d_20">
      <g>
       <use xlink:href="#m4596127554" x="409.653447" y="293.916855" style="stroke: #000000; stroke-width: 0.8"/>
      </g>
     </g>
     <g id="text_14">
      <text style="font: 10px 'Arial'; text-anchor: middle" x="409.653447" y="308.074668" transform="rotate(-0 409.653447 308.074668)">250</text>
     </g>
    </g>
    <g id="xtick_14">
     <g id="line2d_21">
      <g>
       <use xlink:href="#m4596127554" x="476.171137" y="293.916855" style="stroke: #000000; stroke-width: 0.8"/>
      </g>
     </g>
     <g id="text_15">
      <text style="font: 10px 'Arial'; text-anchor: middle" x="476.171137" y="308.074668" transform="rotate(-0 476.171137 308.074668)">300</text>
     </g>
    </g>
    <g id="text_16">
     <text style="font: 12px 'Arial'; text-anchor: middle" x="277.948423" y="322.651543" transform="rotate(-0 277.948423 322.651543)">Epoch</text>
    </g>
   </g>
   <g id="matplotlib.axis_4">
    <g id="ytick_7">
     <g id="line2d_22">
      <g>
       <use xlink:href="#maaca006e3c" x="59.903438" y="285.914306" style="stroke: #000000; stroke-width: 0.8"/>
      </g>
     </g>
     <g id="text_17">
      <text style="font: 10px 'Arial'; text-anchor: end" x="52.903438" y="289.493212" transform="rotate(-0 52.903438 289.493212)">−2</text>
     </g>
    </g>
    <g id="ytick_8">
     <g id="line2d_23">
      <g>
       <use xlink:href="#maaca006e3c" x="59.903438" y="251.49227" style="stroke: #000000; stroke-width: 0.8"/>
      </g>
     </g>
     <g id="text_18">
      <text style="font: 10px 'Arial'; text-anchor: end" x="52.903438" y="255.071176" transform="rotate(-0 52.903438 255.071176)">0</text>
     </g>
    </g>
    <g id="ytick_9">
     <g id="line2d_24">
      <g>
       <use xlink:href="#maaca006e3c" x="59.903438" y="217.070234" style="stroke: #000000; stroke-width: 0.8"/>
      </g>
     </g>
     <g id="text_19">
      <text style="font: 10px 'Arial'; text-anchor: end" x="52.903438" y="220.64914" transform="rotate(-0 52.903438 220.64914)">2</text>
     </g>
    </g>
    <g id="ytick_10">
     <g id="line2d_25">
      <g>
       <use xlink:href="#maaca006e3c" x="59.903438" y="182.648198" style="stroke: #000000; stroke-width: 0.8"/>
      </g>
     </g>
     <g id="text_20">
      <text style="font: 10px 'Arial'; text-anchor: end" x="52.903438" y="186.227105" transform="rotate(-0 52.903438 186.227105)">4</text>
     </g>
    </g>
    <g id="text_21">
     <text style="font: 12px 'Arial'; text-anchor: middle" x="34.97625" y="233.17061" transform="rotate(-90 34.97625 233.17061)">Drift velocity</text>
    </g>
    <g id="text_22">
     <text style="font: 10px 'Arial'; text-anchor: start" x="59.903438" y="169.424365" transform="rotate(-0 59.903438 169.424365)">1e−6</text>
    </g>
   </g>
   <g id="line2d_26">
    <path d="M 79.725709 189.561881 
L 81.056063 182.405326 
L 82.386416 179.108003 
L 83.71677 178.087677 
L 85.047124 177.946751 
L 86.377478 178.060836 
L 87.707832 178.620458 
L 89.038185 179.632592 
L 90.368539 180.878832 
L 91.698893 182.881675 
L 93.029247 185.733381 
L 95.689954 192.471073 
L 97.020308 196.379385 
L 98.350662 200.922976 
L 99.681016 208.557393 
L 101.011369 218.334995 
L 102.341723 226.669817 
L 105.002431 240.155428 
L 107.663138 252.070864 
L 108.993492 257.319607 
L 110.323846 261.673055 
L 111.6542 264.327081 
L 112.984553 265.192772 
L 115.645261 265.37703 
L 116.975615 265.212474 
L 122.29703 261.241403 
L 123.627384 260.612968 
L 124.957738 260.331819 
L 126.288091 260.311565 
L 128.948799 260.809466 
L 130.279153 261.550171 
L 131.609506 263.428174 
L 134.270214 268.521859 
L 135.600568 270.705936 
L 136.930922 272.16882 
L 138.261275 273.452717 
L 139.591629 274.549078 
L 142.252337 276.256128 
L 143.582691 276.53884 
L 144.913044 276.25717 
L 146.243398 275.712014 
L 147.573752 274.74746 
L 148.904106 273.259215 
L 150.234459 270.929314 
L 152.895167 264.768204 
L 154.225521 261.400896 
L 155.555875 257.667798 
L 156.886228 254.292645 
L 162.207644 242.302937 
L 163.537997 240.017699 
L 164.868351 238.266155 
L 166.198705 236.964845 
L 167.529059 236.276875 
L 168.859412 236.537262 
L 170.189766 237.889483 
L 171.52012 239.734444 
L 172.850474 241.866102 
L 174.180828 245.032967 
L 176.841535 253.452529 
L 179.502243 262.701637 
L 180.832596 266.676217 
L 182.16295 270.167371 
L 183.493304 273.287676 
L 184.823658 275.98546 
L 186.154012 277.895508 
L 187.484365 279.137992 
L 188.814719 279.847071 
L 190.145073 279.99725 
L 191.475427 279.655761 
L 192.805781 278.526192 
L 194.136134 276.431601 
L 196.796842 270.442295 
L 198.127196 267.323223 
L 199.457549 265.139342 
L 200.787903 264.329022 
L 202.118257 264.004729 
L 203.448611 263.412457 
L 204.778965 262.539543 
L 206.109318 262.269655 
L 207.439672 262.317987 
L 208.770026 262.215971 
L 210.10038 261.976765 
L 211.430734 262.192168 
L 214.091441 264.252795 
L 215.421795 265.50146 
L 216.752149 266.925601 
L 218.082502 267.966686 
L 219.412856 267.587034 
L 222.073564 265.064411 
L 223.403918 264.345122 
L 226.064625 264.445976 
L 227.394979 264.731408 
L 228.725333 265.257124 
L 230.055687 265.275575 
L 231.38604 264.669287 
L 232.716394 263.83003 
L 235.377102 262.772084 
L 236.707455 262.359943 
L 238.037809 262.330899 
L 239.368163 263.093987 
L 240.698517 263.565356 
L 244.689578 262.098064 
L 246.019932 261.335164 
L 247.350286 259.991977 
L 248.680639 259.075309 
L 250.010993 260.017646 
L 254.002055 266.204977 
L 256.662762 270.829694 
L 257.993116 272.503861 
L 259.32347 273.449141 
L 260.653824 275.166983 
L 263.314531 280.440804 
L 264.644885 282.575578 
L 265.975239 284.489473 
L 267.305592 286.932624 
L 268.635946 288.394469 
L 269.9663 288.056613 
L 272.627008 286.168004 
L 273.957361 285.674177 
L 275.287715 284.807743 
L 276.618069 283.342994 
L 277.948423 282.215099 
L 279.278777 281.624203 
L 280.60913 280.356829 
L 281.939484 278.618283 
L 283.269838 276.420657 
L 284.600192 273.851282 
L 285.930545 271.808603 
L 288.591253 266.83294 
L 289.921607 265.149667 
L 291.251961 263.20481 
L 292.582314 260.237163 
L 295.243022 251.826559 
L 296.573376 247.896215 
L 299.234083 239.529433 
L 301.894791 231.971612 
L 303.225145 228.991205 
L 304.555498 226.899793 
L 305.885852 224.31089 
L 307.216206 222.241839 
L 309.876914 219.96974 
L 311.207267 219.352343 
L 312.537621 220.646957 
L 313.867975 223.675367 
L 315.198329 226.385209 
L 316.528682 229.613242 
L 317.859036 233.81542 
L 319.18939 237.213228 
L 320.519744 240.272079 
L 321.850098 243.788145 
L 323.180451 246.700887 
L 325.841159 250.887593 
L 327.171513 252.339207 
L 328.501867 252.407095 
L 329.83222 252.112691 
L 331.162574 251.149953 
L 332.492928 248.672905 
L 333.823282 245.198778 
L 336.483989 239.512219 
L 337.814343 236.013844 
L 339.144697 233.775063 
L 343.135758 231.012623 
L 344.466112 231.115614 
L 345.796466 231.585554 
L 347.12682 233.301842 
L 348.457173 236.327491 
L 351.117881 243.24001 
L 353.778588 250.982378 
L 356.439296 257.212868 
L 357.76965 260.092412 
L 359.100004 261.999615 
L 361.760711 264.83163 
L 363.091065 266.382352 
L 364.421419 267.594728 
L 365.751772 268.282177 
L 367.082126 267.866415 
L 368.41248 267.186318 
L 369.742834 267.82482 
L 373.733895 272.67685 
L 376.394603 276.629729 
L 377.724957 278.389576 
L 379.05531 280.382641 
L 380.385664 281.146735 
L 381.716018 281.171922 
L 383.046372 281.079306 
L 385.707079 280.093428 
L 387.037433 279.785983 
L 388.367787 278.571296 
L 389.698141 274.993861 
L 392.358848 264.633235 
L 396.34991 251.986271 
L 399.010617 246.098268 
L 403.001678 239.854158 
L 404.332032 238.096684 
L 405.662386 236.592998 
L 406.99274 235.551099 
L 408.323094 235.302712 
L 409.653447 236.15863 
L 410.983801 237.963354 
L 412.314155 240.195981 
L 414.974863 243.496069 
L 416.305216 244.701758 
L 420.296278 245.760706 
L 422.956985 246.724806 
L 425.617693 247.370103 
L 426.948047 247.710524 
L 430.939108 247.646795 
L 432.269462 247.372467 
L 434.930169 247.092 
L 436.260523 247.267357 
L 440.251584 249.836491 
L 441.581938 251.575024 
L 442.912292 254.207673 
L 445.573 260.379363 
L 446.903353 263.019007 
L 448.233707 265.993742 
L 450.894415 272.508639 
L 452.224768 275.392138 
L 454.885476 280.292424 
L 456.21583 282.560391 
L 457.546184 283.727771 
L 458.876537 284.409332 
L 460.206891 285.268938 
L 461.537245 285.352662 
L 462.867599 284.341463 
L 464.197953 282.480923 
L 465.528306 280.422126 
L 466.85866 278.582484 
L 468.189014 277.800291 
L 469.519368 276.536394 
L 474.840783 270.240422 
L 476.171137 268.043206 
L 476.171137 268.043206 
" clip-path="url(#p6ca756f8b0)" style="fill: none; stroke: #b2182b; stroke-width: 2.8; stroke-linecap: square"/>
   </g>
   <g id="line2d_27">
    <path d="M 59.903438 251.49227 
L 495.993408 251.49227 
" clip-path="url(#p6ca756f8b0)" style="fill: none; stroke-dasharray: 3.7,1.6; stroke-dashoffset: 0; stroke: #808080"/>
   </g>
   <g id="patch_6">
    <path d="M 59.903438 293.916855 
L 59.903438 172.424365 
" style="fill: none; stroke: #000000; stroke-width: 0.8; stroke-linejoin: miter; stroke-linecap: square"/>
   </g>
   <g id="patch_7">
    <path d="M 59.903438 293.916855 
L 495.993408 293.916855 
" style="fill: none; stroke: #000000; stroke-width: 0.8; stroke-linejoin: miter; stroke-linecap: square"/>
   </g>
   <g id="text_23">
    <text style="font: 12px 'Arial'; text-anchor: middle" x="277.948423" y="166.424365" transform="rotate(-0 277.948423 166.424365)">First derivative of drift speed</text>
   </g>
  </g>
 </g>
 <defs>
  <clipPath id="pf7fc3e0e25">
   <rect x="59.903438" y="21.935625" width="436.08997" height="121.49249"/>
  </clipPath>
  <clipPath id="p6ca756f8b0">
   <rect x="59.903438" y="172.424365" width="436.08997" height="121.49249"/>
  </clipPath>
 </defs>
</svg>
