<?xml version="1.0" encoding="utf-8" standalone="no"?>
<!DOCTYPE svg PUBLIC "-//W3C//DTD SVG 1.1//EN"
  "http://www.w3.org/Graphics/SVG/1.1/DTD/svg11.dtd">
<svg xmlns:xlink="http://www.w3.org/1999/xlink" width="503.305439pt" height="218.811341pt" viewBox="0 0 503.305439 218.811341" xmlns="http://www.w3.org/2000/svg" version="1.1">
 <metadata>
  <rdf:RDF xmlns:dc="http://purl.org/dc/elements/1.1/" xmlns:cc="http://creativecommons.org/ns#" xmlns:rdf="http://www.w3.org/1999/02/22-rdf-syntax-ns#">
   <cc:Work>
    <dc:type rdf:resource="http://purl.org/dc/dcmitype/StillImage"/>
    <dc:date>2026-06-24T15:28:45.709557</dc:date>
    <dc:format>image/svg+xml</dc:format>
    <dc:creator>
     <cc:Agent>
      <dc:title>Matplotlib v3.9.4, https://matplotlib.org/</dc:title>
     </cc:Agent>
    </dc:creator>
   </cc:Work>
  </rdf:RDF>
 </metadata>
 <defs>
  <style type="text/css">*{stroke-linejoin: round; stroke-linecap: butt}</style>
 </defs>
 <g id="figure_1">
  <g id="patch_1">
   <path d="M 0 218.811341 
L 503.305439 218.811341 
L 503.305439 0 
L 0 0 
L 0 218.811341 
z
" style="fill: none"/>
  </g>
  <g id="axes_1">
   <g id="patch_2">
    <path d="M 60.044063 180.491654 
L 487.764033 180.491654 
L 487.764033 7.2 
L 60.044063 7.2 
L 60.044063 180.491654 
z
" style="fill: none"/>
   </g>
   <g id="patch_3">
    <path d="M 58.613561 180.491654 
L 130.13864 180.491654 
L 130.13864 7.2 
L 58.613561 7.2 
z
" clip-path="url(#p784d13ce1a)" style="fill: #dceaf7; opacity: 0.5; stroke: #dceaf7; stroke-linejoin: miter"/>
   </g>
   <g id="patch_4">
    <path d="M 130.13864 180.491654 
L 416.238954 180.491654 
L 416.238954 7.2 
L 130.13864 7.2 
z
" clip-path="url(#p784d13ce1a)" style="fill: #fbe5d6; opacity: 0.35; stroke: #fbe5d6; stroke-linejoin: miter"/>
   </g>
   <g id="patch_5">
    <path d="M 416.238954 180.491654 
L 487.764033 180.491654 
L 487.764033 7.2 
L 416.238954 7.2 
z
" clip-path="url(#p784d13ce1a)" style="fill: #dff0d8; opacity: 0.5; stroke: #dff0d8; stroke-linejoin: miter"/>
   </g>
   <g id="PolyCollection_1">
    <defs>
     <path id="m99304765f1" d="M 61.474564 -190.233991 
L 61.474564 -65.289732 
L 62.905066 -66.943932 
L 64.335567 -68.40381 
L 65.766069 -69.80575 
L 67.19657 -71.111851 
L 68.627072 -72.371812 
L 70.057574 -73.667022 
L 71.488075 -74.897024 
L 72.918577 -78.083978 
L 74.349078 -80.90605 
L 75.77958 -83.234511 
L 77.210081 -85.102928 
L 78.640583 -86.74741 
L 80.071085 -88.246569 
L 81.501586 -89.573106 
L 82.932088 -90.721953 
L 84.362589 -91.527315 
L 85.793091 -91.925518 
L 87.223592 -91.920716 
L 88.654094 -91.978978 
L 90.084596 -92.020122 
L 91.515097 -91.797575 
L 92.945599 -91.417183 
L 94.3761 -91.068595 
L 95.806602 -90.479114 
L 97.237103 -89.981918 
L 98.667605 -89.729233 
L 100.098107 -89.546341 
L 101.528608 -89.449392 
L 102.95911 -89.175761 
L 104.389611 -88.809376 
L 105.820113 -88.593017 
L 107.250614 -88.654668 
L 108.681116 -88.82655 
L 110.111618 -88.891414 
L 111.542119 -88.736157 
L 112.972621 -88.609656 
L 114.403122 -88.564898 
L 115.833624 -88.27424 
L 117.264125 -88.098994 
L 118.694627 -87.825494 
L 120.125129 -87.252742 
L 121.55563 -86.567763 
L 122.986132 -85.874757 
L 124.416633 -85.277282 
L 125.847135 -84.828619 
L 127.277636 -84.267522 
L 128.708138 -83.755724 
L 130.13864 -83.324869 
L 131.569141 -82.741155 
L 132.999643 -82.122982 
L 134.430144 -81.705695 
L 135.860646 -81.232393 
L 137.291147 -80.853878 
L 138.721649 -80.430518 
L 140.152151 -80.042986 
L 141.582652 -79.760838 
L 143.013154 -79.463065 
L 144.443655 -79.090809 
L 145.874157 -78.879843 
L 147.304658 -78.819295 
L 148.73516 -79.009862 
L 150.165662 -79.20859 
L 151.596163 -79.47623 
L 153.026665 -79.894385 
L 154.457166 -80.337328 
L 155.887668 -80.859834 
L 157.318169 -81.449201 
L 158.748671 -82.092719 
L 160.179173 -82.780049 
L 161.609674 -83.422432 
L 163.040176 -84.030852 
L 164.470677 -84.580838 
L 165.901179 -84.959161 
L 167.331681 -85.217097 
L 168.762182 -85.255584 
L 170.192684 -85.048742 
L 171.623185 -84.74779 
L 173.053687 -84.380719 
L 174.484188 -83.812346 
L 175.91469 -83.32044 
L 177.345192 -82.631078 
L 178.775693 -81.788896 
L 180.206195 -81.031551 
L 181.636696 -80.300527 
L 183.067198 -79.611927 
L 184.497699 -78.822436 
L 185.928201 -78.121631 
L 187.358703 -77.528377 
L 188.789204 -76.974103 
L 190.219706 -76.444948 
L 191.650207 -76.002047 
L 193.080709 -75.670482 
L 194.51121 -75.45629 
L 195.941712 -75.229635 
L 197.372214 -75.195681 
L 198.802715 -75.045796 
L 200.233217 -74.959559 
L 201.663718 -74.522268 
L 203.09422 -74.047023 
L 204.524721 -73.307426 
L 205.955223 -72.902447 
L 207.385725 -72.375529 
L 208.816226 -71.901602 
L 210.246728 -71.493881 
L 211.677229 -71.14308 
L 213.107731 -70.757959 
L 214.538232 -70.350078 
L 215.968734 -69.744601 
L 217.399236 -69.327749 
L 218.829737 -68.821224 
L 220.260239 -68.386626 
L 221.69074 -67.944627 
L 223.121242 -67.712866 
L 224.551743 -67.319703 
L 225.982245 -67.028124 
L 227.412747 -66.638306 
L 228.843248 -66.195747 
L 230.27375 -65.665674 
L 231.704251 -64.90124 
L 233.134753 -64.372267 
L 234.565254 -64.193592 
L 235.995756 -64.15757 
L 237.426258 -64.211419 
L 238.856759 -64.262676 
L 240.287261 -64.391591 
L 241.717762 -64.277126 
L 243.148264 -64.190522 
L 244.578765 -63.934582 
L 246.009267 -64.032267 
L 247.439769 -64.194675 
L 248.87027 -64.018023 
L 250.300772 -63.896731 
L 251.731273 -63.666129 
L 253.161775 -63.525499 
L 254.592276 -62.891218 
L 256.022778 -61.860567 
L 257.45328 -60.591761 
L 258.883781 -59.382593 
L 260.314283 -58.123787 
L 261.744784 -56.634888 
L 263.175286 -55.196156 
L 264.605788 -54.015898 
L 266.036289 -53.111012 
L 267.466791 -51.865039 
L 268.897292 -50.763755 
L 270.327794 -49.607446 
L 271.758295 -48.711957 
L 273.188797 -47.953224 
L 274.619299 -47.257174 
L 276.0498 -46.976595 
L 277.480302 -46.699526 
L 278.910803 -46.639174 
L 280.341305 -46.353941 
L 281.771806 -46.196581 
L 283.202308 -46.197611 
L 284.63281 -46.367458 
L 286.063311 -46.375903 
L 287.493813 -46.353116 
L 288.924314 -46.521654 
L 290.354816 -46.567693 
L 291.785317 -47.072993 
L 293.215819 -47.51305 
L 294.646321 -47.755776 
L 296.076822 -48.346378 
L 297.507324 -48.642357 
L 298.937825 -48.970907 
L 300.368327 -49.235184 
L 301.798828 -50.078346 
L 303.22933 -50.888714 
L 304.659832 -51.612767 
L 306.090333 -52.771767 
L 307.520835 -53.877352 
L 308.951336 -54.704318 
L 310.381838 -55.683249 
L 311.812339 -56.783626 
L 313.242841 -57.589364 
L 314.673343 -58.382215 
L 316.103844 -59.441067 
L 317.534346 -60.065664 
L 318.964847 -60.845809 
L 320.395349 -61.770535 
L 321.82585 -62.526556 
L 323.256352 -62.66008 
L 324.686854 -62.671007 
L 326.117355 -62.94214 
L 327.547857 -62.529591 
L 328.978358 -62.250332 
L 330.40886 -62.480059 
L 331.839361 -62.623678 
L 333.269863 -62.381125 
L 334.700365 -62.465469 
L 336.130866 -62.501857 
L 337.561368 -62.457516 
L 338.991869 -62.900904 
L 340.422371 -63.295015 
L 341.852872 -63.791865 
L 343.283374 -64.400006 
L 344.713876 -65.275788 
L 346.144377 -66.18223 
L 347.574879 -66.903742 
L 349.00538 -67.912816 
L 350.435882 -68.686277 
L 351.866383 -69.115193 
L 353.296885 -69.304994 
L 354.727387 -69.73802 
L 356.157888 -69.908046 
L 357.58839 -69.950653 
L 359.018891 -69.881721 
L 360.449393 -69.306365 
L 361.879895 -68.840391 
L 363.310396 -68.429965 
L 364.740898 -67.982361 
L 366.171399 -67.59685 
L 367.601901 -67.416382 
L 369.032402 -67.143786 
L 370.462904 -66.803762 
L 371.893406 -66.806613 
L 373.323907 -66.81374 
L 374.754409 -66.416697 
L 376.18491 -66.091852 
L 377.615412 -65.67198 
L 379.045913 -65.315125 
L 380.476415 -65.135957 
L 381.906917 -65.157771 
L 383.337418 -64.869074 
L 384.76792 -64.123445 
L 386.198421 -63.487255 
L 387.628923 -62.867999 
L 389.059424 -62.199198 
L 390.489926 -61.324685 
L 391.920428 -60.664162 
L 393.350929 -59.823732 
L 394.781431 -59.146978 
L 396.211932 -58.971024 
L 397.642434 -58.657861 
L 399.072935 -58.559441 
L 400.503437 -58.568889 
L 401.933939 -58.488943 
L 403.36444 -58.446955 
L 404.794942 -58.654004 
L 406.225443 -59.089803 
L 407.655945 -59.448214 
L 409.086446 -59.893314 
L 410.516948 -59.975608 
L 411.94745 -60.197003 
L 413.377951 -60.093175 
L 414.808453 -59.822523 
L 416.238954 -59.368491 
L 417.669456 -59.081093 
L 419.099957 -58.969266 
L 420.530459 -58.784675 
L 421.960961 -58.374173 
L 423.391462 -58.073892 
L 424.821964 -57.628344 
L 426.252465 -57.322403 
L 427.682967 -57.029698 
L 429.113468 -56.697496 
L 430.54397 -56.221812 
L 431.974472 -55.952467 
L 433.404973 -55.611189 
L 434.835475 -55.585791 
L 436.265976 -55.567987 
L 437.696478 -55.752075 
L 439.126979 -55.899368 
L 440.557481 -56.449067 
L 441.987983 -56.868712 
L 443.418484 -57.564243 
L 444.848986 -57.895839 
L 446.279487 -58.463385 
L 447.709989 -58.74648 
L 449.14049 -59.192733 
L 450.570992 -59.549581 
L 452.001494 -59.782199 
L 453.431995 -59.872769 
L 454.862497 -60.076751 
L 456.292998 -60.028347 
L 457.7235 -60.020056 
L 459.154002 -59.955344 
L 460.584503 -59.804785 
L 462.015005 -59.000892 
L 463.445506 -58.267765 
L 464.876008 -57.215551 
L 466.306509 -56.429155 
L 467.737011 -55.44263 
L 469.167513 -54.670935 
L 470.598014 -53.739619 
L 472.028516 -52.868351 
L 473.459017 -52.073897 
L 474.889519 -51.488014 
L 476.32002 -50.858296 
L 477.750522 -50.187407 
L 479.181024 -49.841492 
L 480.611525 -49.36249 
L 482.042027 -48.819946 
L 483.472528 -48.497732 
L 484.90303 -48.20349 
L 486.333531 -48.167556 
L 487.764033 -48.183058 
L 487.764033 -164.311661 
L 487.764033 -164.311661 
L 486.333531 -164.589105 
L 484.90303 -164.75484 
L 483.472528 -164.895855 
L 482.042027 -165.229889 
L 480.611525 -165.570787 
L 479.181024 -165.881474 
L 477.750522 -166.192242 
L 476.32002 -166.753647 
L 474.889519 -167.433232 
L 473.459017 -168.04125 
L 472.028516 -168.650618 
L 470.598014 -169.197419 
L 469.167513 -169.89879 
L 467.737011 -170.484687 
L 466.306509 -170.802162 
L 464.876008 -171.166354 
L 463.445506 -171.587869 
L 462.015005 -171.970573 
L 460.584503 -172.203604 
L 459.154002 -172.467942 
L 457.7235 -172.759309 
L 456.292998 -173.126014 
L 454.862497 -173.366428 
L 453.431995 -173.442961 
L 452.001494 -173.632105 
L 450.570992 -173.753107 
L 449.14049 -174.017235 
L 447.709989 -174.192067 
L 446.279487 -174.314382 
L 444.848986 -174.582321 
L 443.418484 -174.897809 
L 441.987983 -175.062822 
L 440.557481 -175.296308 
L 439.126979 -175.42196 
L 437.696478 -175.620534 
L 436.265976 -175.706786 
L 434.835475 -175.584061 
L 433.404973 -175.382458 
L 431.974472 -175.194717 
L 430.54397 -174.905672 
L 429.113468 -174.568287 
L 427.682967 -174.181355 
L 426.252465 -173.682837 
L 424.821964 -173.117036 
L 423.391462 -172.467718 
L 421.960961 -171.698222 
L 420.530459 -170.831057 
L 419.099957 -170.088466 
L 417.669456 -169.435583 
L 416.238954 -168.793503 
L 414.808453 -168.147872 
L 413.377951 -167.608591 
L 411.94745 -167.138098 
L 410.516948 -166.43812 
L 409.086446 -165.933443 
L 407.655945 -165.262857 
L 406.225443 -164.477384 
L 404.794942 -163.90247 
L 403.36444 -163.756275 
L 401.933939 -163.864582 
L 400.503437 -164.054827 
L 399.072935 -164.446322 
L 397.642434 -164.795659 
L 396.211932 -165.21657 
L 394.781431 -165.513952 
L 393.350929 -165.98673 
L 391.920428 -166.507202 
L 390.489926 -167.059271 
L 389.059424 -167.900332 
L 387.628923 -168.556376 
L 386.198421 -169.41762 
L 384.76792 -170.471 
L 383.337418 -171.325029 
L 381.906917 -171.827228 
L 380.476415 -172.130009 
L 379.045913 -172.413023 
L 377.615412 -172.733453 
L 376.18491 -173.013548 
L 374.754409 -173.267768 
L 373.323907 -173.472636 
L 371.893406 -173.698805 
L 370.462904 -173.901329 
L 369.032402 -174.088169 
L 367.601901 -174.238853 
L 366.171399 -174.505006 
L 364.740898 -174.827496 
L 363.310396 -175.124812 
L 361.879895 -175.534367 
L 360.449393 -175.968859 
L 359.018891 -176.278662 
L 357.58839 -176.504061 
L 356.157888 -176.670328 
L 354.727387 -176.821559 
L 353.296885 -176.924931 
L 351.866383 -177.06726 
L 350.435882 -176.950508 
L 349.00538 -176.686745 
L 347.574879 -176.437501 
L 346.144377 -176.137318 
L 344.713876 -175.626625 
L 343.283374 -175.066842 
L 341.852872 -174.445185 
L 340.422371 -173.975942 
L 338.991869 -173.562708 
L 337.561368 -173.423652 
L 336.130866 -173.340002 
L 334.700365 -173.340488 
L 333.269863 -173.45751 
L 331.839361 -173.690064 
L 330.40886 -174.067342 
L 328.978358 -174.427321 
L 327.547857 -174.784516 
L 326.117355 -175.111513 
L 324.686854 -175.416043 
L 323.256352 -175.86982 
L 321.82585 -176.353886 
L 320.395349 -176.693659 
L 318.964847 -176.849133 
L 317.534346 -176.934069 
L 316.103844 -176.79284 
L 314.673343 -176.4723 
L 313.242841 -176.28624 
L 311.812339 -175.956815 
L 310.381838 -175.64322 
L 308.951336 -175.054783 
L 307.520835 -174.602768 
L 306.090333 -174.188045 
L 304.659832 -173.833172 
L 303.22933 -173.456225 
L 301.798828 -172.999865 
L 300.368327 -172.724836 
L 298.937825 -172.682903 
L 297.507324 -172.780122 
L 296.076822 -173.082077 
L 294.646321 -173.351124 
L 293.215819 -173.941652 
L 291.785317 -174.392653 
L 290.354816 -174.967869 
L 288.924314 -175.522791 
L 287.493813 -176.160409 
L 286.063311 -176.794812 
L 284.63281 -177.630183 
L 283.202308 -178.436445 
L 281.771806 -179.311078 
L 280.341305 -180.256488 
L 278.910803 -180.966381 
L 277.480302 -181.601042 
L 276.0498 -182.132544 
L 274.619299 -182.584632 
L 273.188797 -183.345801 
L 271.758295 -183.872581 
L 270.327794 -184.194116 
L 268.897292 -184.598198 
L 267.466791 -184.821726 
L 266.036289 -185.053505 
L 264.605788 -185.127245 
L 263.175286 -185.072622 
L 261.744784 -185.155319 
L 260.314283 -185.19226 
L 258.883781 -185.293309 
L 257.45328 -185.340454 
L 256.022778 -185.437006 
L 254.592276 -185.595141 
L 253.161775 -185.667892 
L 251.731273 -185.475912 
L 250.300772 -185.475309 
L 248.87027 -185.617924 
L 247.439769 -185.714337 
L 246.009267 -185.804577 
L 244.578765 -185.926435 
L 243.148264 -186.299826 
L 241.717762 -186.696082 
L 240.287261 -186.988785 
L 238.856759 -187.338354 
L 237.426258 -187.620465 
L 235.995756 -187.900301 
L 234.565254 -188.058045 
L 233.134753 -188.107398 
L 231.704251 -188.257233 
L 230.27375 -188.431714 
L 228.843248 -188.551048 
L 227.412747 -188.753652 
L 225.982245 -188.788011 
L 224.551743 -188.731517 
L 223.121242 -188.604461 
L 221.69074 -188.265396 
L 220.260239 -188.242032 
L 218.829737 -188.309308 
L 217.399236 -188.361274 
L 215.968734 -188.335982 
L 214.538232 -188.407556 
L 213.107731 -188.623174 
L 211.677229 -188.672647 
L 210.246728 -188.774724 
L 208.816226 -188.98011 
L 207.385725 -189.181837 
L 205.955223 -189.224041 
L 204.524721 -189.263229 
L 203.09422 -189.493618 
L 201.663718 -189.799545 
L 200.233217 -190.137409 
L 198.802715 -189.985793 
L 197.372214 -189.729179 
L 195.941712 -189.367683 
L 194.51121 -189.10815 
L 193.080709 -188.885229 
L 191.650207 -188.810537 
L 190.219706 -188.94279 
L 188.789204 -188.977 
L 187.358703 -189.032413 
L 185.928201 -189.067508 
L 184.497699 -189.266376 
L 183.067198 -189.506623 
L 181.636696 -189.824027 
L 180.206195 -190.178502 
L 178.775693 -190.742413 
L 177.345192 -191.580731 
L 175.91469 -192.312224 
L 174.484188 -193.190055 
L 173.053687 -193.952429 
L 171.623185 -194.411274 
L 170.192684 -194.718032 
L 168.762182 -195.0939 
L 167.331681 -195.530583 
L 165.901179 -195.819197 
L 164.470677 -196.100893 
L 163.040176 -196.270936 
L 161.609674 -196.357389 
L 160.179173 -196.282725 
L 158.748671 -196.114644 
L 157.318169 -195.849013 
L 155.887668 -195.510343 
L 154.457166 -195.194256 
L 153.026665 -194.750461 
L 151.596163 -194.435443 
L 150.165662 -194.269299 
L 148.73516 -194.098265 
L 147.304658 -193.912729 
L 145.874157 -193.790037 
L 144.443655 -193.796814 
L 143.013154 -193.862889 
L 141.582652 -194.015939 
L 140.152151 -194.219299 
L 138.721649 -194.505599 
L 137.291147 -194.822291 
L 135.860646 -195.108943 
L 134.430144 -195.35401 
L 132.999643 -195.658063 
L 131.569141 -196.135437 
L 130.13864 -196.754148 
L 128.708138 -197.487895 
L 127.277636 -198.274349 
L 125.847135 -198.868812 
L 124.416633 -199.271569 
L 122.986132 -199.540182 
L 121.55563 -199.649461 
L 120.125129 -199.623491 
L 118.694627 -199.623674 
L 117.264125 -199.639874 
L 115.833624 -199.692698 
L 114.403122 -199.683755 
L 112.972621 -199.590189 
L 111.542119 -199.604758 
L 110.111618 -199.590024 
L 108.681116 -199.520149 
L 107.250614 -199.504411 
L 105.820113 -199.560108 
L 104.389611 -199.832552 
L 102.95911 -200.206976 
L 101.528608 -200.664727 
L 100.098107 -201.22754 
L 98.667605 -201.867437 
L 97.237103 -202.318972 
L 95.806602 -202.639733 
L 94.3761 -202.838877 
L 92.945599 -203.12371 
L 91.515097 -203.461556 
L 90.084596 -203.660841 
L 88.654094 -203.734448 
L 87.223592 -203.641565 
L 85.793091 -203.396636 
L 84.362589 -202.932849 
L 82.932088 -202.297656 
L 81.501586 -201.547733 
L 80.071085 -200.736682 
L 78.640583 -199.783851 
L 77.210081 -198.838363 
L 75.77958 -198.042562 
L 74.349078 -197.185486 
L 72.918577 -196.052294 
L 71.488075 -194.354979 
L 70.057574 -193.808599 
L 68.627072 -193.251769 
L 67.19657 -192.716296 
L 65.766069 -192.136576 
L 64.335567 -191.52444 
L 62.905066 -190.903417 
L 61.474564 -190.233991 
z
" style="stroke: #3b6ea8; stroke-opacity: 0.18"/>
    </defs>
    <g clip-path="url(#p784d13ce1a)">
     <use xlink:href="#m99304765f1" x="0" y="218.811341" style="fill: #3b6ea8; fill-opacity: 0.18; stroke: #3b6ea8; stroke-opacity: 0.18"/>
    </g>
   </g>
   <g id="matplotlib.axis_1">
    <g id="xtick_1">
     <g id="line2d_1">
      <defs>
       <path id="m32bdc0d7a8" d="M 0 0 
L 0 3.5 
" style="stroke: #000000; stroke-width: 0.8"/>
      </defs>
      <g>
       <use xlink:href="#m32bdc0d7a8" x="130.13864" y="180.491654" style="stroke: #000000; stroke-width: 0.8"/>
      </g>
     </g>
     <g id="text_1">
      <text style="font: 10px 'Arial'; text-anchor: middle" x="130.13864" y="194.649466" transform="rotate(-0 130.13864 194.649466)">50</text>
     </g>
    </g>
    <g id="xtick_2">
     <g id="line2d_2">
      <g>
       <use xlink:href="#m32bdc0d7a8" x="201.663718" y="180.491654" style="stroke: #000000; stroke-width: 0.8"/>
      </g>
     </g>
     <g id="text_2">
      <text style="font: 10px 'Arial'; text-anchor: middle" x="201.663718" y="194.649466" transform="rotate(-0 201.663718 194.649466)">100</text>
     </g>
    </g>
    <g id="xtick_3">
     <g id="line2d_3">
      <g>
       <use xlink:href="#m32bdc0d7a8" x="273.188797" y="180.491654" style="stroke: #000000; stroke-width: 0.8"/>
      </g>
     </g>
     <g id="text_3">
      <text style="font: 10px 'Arial'; text-anchor: middle" x="273.188797" y="194.649466" transform="rotate(-0 273.188797 194.649466)">150</text>
     </g>
    </g>
    <g id="xtick_4">
     <g id="line2d_4">
      <g>
       <use xlink:href="#m32bdc0d7a8" x="344.713876" y="180.491654" style="stroke: #000000; stroke-width: 0.8"/>
      </g>
     </g>
     <g id="text_4">
      <text style="font: 10px 'Arial'; text-anchor: middle" x="344.713876" y="194.649466" transform="rotate(-0 344.713876 194.649466)">200</text>
     </g>
    </g>
    <g id="xtick_5">
     <g id="line2d_5">
      <g>
       <use xlink:href="#m32bdc0d7a8" x="416.238954" y="180.491654" style="stroke: #000000; stroke-width: 0.8"/>
      </g>
     </g>
     <g id="text_5">
      <text style="font: 10px 'Arial'; text-anchor: middle" x="416.238954" y="194.649466" transform="rotate(-0 416.238954 194.649466)">250</text>
     </g>
    </g>
    <g id="xtick_6">
     <g id="line2d_6">
      <g>
       <use xlink:href="#m32bdc0d7a8" x="487.764033" y="180.491654" style="stroke: #000000; stroke-width: 0.8"/>
      </g>
     </g>
     <g id="text_6">
      <text style="font: 10px 'Arial'; text-anchor: middle" x="487.764033" y="194.649466" transform="rotate(-0 487.764033 194.649466)">300</text>
     </g>
    </g>
    <g id="text_7">
     <text style="font: 12px 'Arial'; text-anchor: middle" x="273.904048" y="209.226341" transform="rotate(-0 273.904048 209.226341)">Epoch</text>
    </g>
   </g>
   <g id="matplotlib.axis_2">
    <g id="ytick_1">
     <g id="line2d_7">
      <defs>
       <path id="m4c0cd03a8f" d="M 0 0 
L -3.5 0 
" style="stroke: #000000; stroke-width: 0.8"/>
      </defs>
      <g>
       <use xlink:href="#m4c0cd03a8f" x="60.044063" y="175.085282" style="stroke: #000000; stroke-width: 0.8"/>
      </g>
     </g>
     <g id="text_8">
      <text style="font: 10px 'Arial'; text-anchor: end" x="53.044063" y="178.664188" transform="rotate(-0 53.044063 178.664188)">0.0010</text>
     </g>
    </g>
    <g id="ytick_2">
     <g id="line2d_8">
      <g>
       <use xlink:href="#m4c0cd03a8f" x="60.044063" y="144.980384" style="stroke: #000000; stroke-width: 0.8"/>
      </g>
     </g>
     <g id="text_9">
      <text style="font: 10px 'Arial'; text-anchor: end" x="53.044063" y="148.559291" transform="rotate(-0 53.044063 148.559291)">0.0011</text>
     </g>
    </g>
    <g id="ytick_3">
     <g id="line2d_9">
      <g>
       <use xlink:href="#m4c0cd03a8f" x="60.044063" y="114.875487" style="stroke: #000000; stroke-width: 0.8"/>
      </g>
     </g>
     <g id="text_10">
      <text style="font: 10px 'Arial'; text-anchor: end" x="53.044063" y="118.454394" transform="rotate(-0 53.044063 118.454394)">0.0012</text>
     </g>
    </g>
    <g id="ytick_4">
     <g id="line2d_10">
      <g>
       <use xlink:href="#m4c0cd03a8f" x="60.044063" y="84.77059" style="stroke: #000000; stroke-width: 0.8"/>
      </g>
     </g>
     <g id="text_11">
      <text style="font: 10px 'Arial'; text-anchor: end" x="53.044063" y="88.349497" transform="rotate(-0 53.044063 88.349497)">0.0013</text>
     </g>
    </g>
    <g id="ytick_5">
     <g id="line2d_11">
      <g>
       <use xlink:href="#m4c0cd03a8f" x="60.044063" y="54.665693" style="stroke: #000000; stroke-width: 0.8"/>
      </g>
     </g>
     <g id="text_12">
      <text style="font: 10px 'Arial'; text-anchor: end" x="53.044063" y="58.2446" transform="rotate(-0 53.044063 58.2446)">0.0014</text>
     </g>
    </g>
    <g id="ytick_6">
     <g id="line2d_12">
      <g>
       <use xlink:href="#m4c0cd03a8f" x="60.044063" y="24.560796" style="stroke: #000000; stroke-width: 0.8"/>
      </g>
     </g>
     <g id="text_13">
      <text style="font: 10px 'Arial'; text-anchor: end" x="53.044063" y="28.139702" transform="rotate(-0 53.044063 28.139702)">0.0015</text>
     </g>
    </g>
    <g id="text_14">
     <text style="font: 12px 'Arial'; text-anchor: middle" x="15.935625" y="93.845827" transform="rotate(-90 15.935625 93.845827)">Average Prototype Drift Speed</text>
    </g>
   </g>
   <g id="line2d_13">
    <path d="M 61.474564 91.049479 
L 64.335567 88.847216 
L 67.19657 86.897268 
L 71.488075 84.18534 
L 72.918577 81.743205 
L 74.349078 79.765573 
L 75.77958 78.172805 
L 80.071085 74.319716 
L 82.932088 72.301537 
L 84.362589 71.581259 
L 85.793091 71.150264 
L 88.654094 70.954628 
L 90.084596 70.97086 
L 91.515097 71.181775 
L 105.820113 74.734778 
L 108.681116 74.637991 
L 110.111618 74.570622 
L 118.694627 75.086757 
L 121.55563 75.702729 
L 125.847135 76.962626 
L 132.999643 79.920818 
L 140.152151 81.680198 
L 144.443655 82.36753 
L 145.874157 82.476401 
L 147.304658 82.445329 
L 151.596163 81.855504 
L 154.457166 81.045549 
L 161.609674 78.921431 
L 164.470677 78.470475 
L 167.331681 78.437501 
L 170.192684 78.927954 
L 173.053687 79.644767 
L 177.345192 81.705436 
L 178.775693 82.545686 
L 181.636696 83.749064 
L 185.928201 85.216771 
L 191.650207 86.405049 
L 193.080709 86.533486 
L 195.941712 86.512682 
L 198.802715 86.295547 
L 200.233217 86.262857 
L 205.955223 87.748097 
L 220.260239 90.497012 
L 221.69074 90.70633 
L 223.121242 90.652678 
L 227.412747 91.115362 
L 230.27375 91.762647 
L 231.704251 92.232105 
L 233.134753 92.571509 
L 241.717762 93.324737 
L 244.578765 93.880833 
L 248.87027 93.993368 
L 251.731273 94.240321 
L 253.161775 94.214646 
L 254.592276 94.568162 
L 257.45328 95.845234 
L 260.314283 97.153317 
L 263.175286 98.676952 
L 267.466791 100.467958 
L 274.619299 103.890438 
L 278.910803 105.008564 
L 283.202308 106.494313 
L 290.354816 108.04356 
L 296.076822 108.097114 
L 297.507324 108.100102 
L 300.368327 107.831331 
L 304.659832 106.088372 
L 310.381838 103.148107 
L 311.812339 102.441121 
L 316.103844 100.694388 
L 320.395349 99.579244 
L 321.82585 99.37112 
L 324.686854 99.767816 
L 326.117355 99.784515 
L 328.978358 100.472514 
L 331.839361 100.65447 
L 333.269863 100.892023 
L 337.561368 100.870757 
L 340.422371 100.175863 
L 341.852872 99.692816 
L 344.713876 98.360134 
L 346.144377 97.651567 
L 347.574879 97.140719 
L 350.435882 95.992949 
L 351.866383 95.720115 
L 353.296885 95.696379 
L 354.727387 95.531552 
L 357.58839 95.583984 
L 359.018891 95.73115 
L 364.740898 97.406413 
L 366.171399 97.760413 
L 371.893406 98.558632 
L 373.323907 98.668153 
L 380.476415 100.178358 
L 381.906917 100.318841 
L 383.337418 100.71429 
L 387.628923 103.099153 
L 389.059424 103.761576 
L 390.489926 104.619363 
L 394.781431 106.480876 
L 396.211932 106.717544 
L 397.642434 107.084581 
L 400.503437 107.499483 
L 403.36444 107.709726 
L 404.794942 107.533104 
L 407.655945 106.455806 
L 409.086446 105.897963 
L 410.516948 105.604477 
L 411.94745 105.14379 
L 414.808453 104.826143 
L 417.669456 104.553003 
L 423.391462 103.540536 
L 429.113468 103.17845 
L 433.404973 103.314518 
L 437.696478 103.125036 
L 439.126979 103.150677 
L 440.557481 102.938653 
L 441.987983 102.845574 
L 443.418484 102.580315 
L 444.848986 102.572261 
L 449.14049 102.206357 
L 454.862497 102.089752 
L 459.154002 102.599698 
L 460.584503 102.807146 
L 463.445506 103.883524 
L 464.876008 104.620389 
L 467.737011 105.847682 
L 469.167513 106.526479 
L 472.028516 108.051857 
L 474.889519 109.350718 
L 477.750522 110.621517 
L 480.611525 111.344703 
L 483.472528 112.114548 
L 484.90303 112.332176 
L 487.764033 112.563982 
L 487.764033 112.563982 
" clip-path="url(#p784d13ce1a)" style="fill: none; stroke: #3b6ea8; stroke-width: 3; stroke-linecap: square"/>
   </g>
   <g id="line2d_14">
    <path d="M 130.13864 180.491654 
L 130.13864 7.2 
" clip-path="url(#p784d13ce1a)" style="fill: none; stroke-dasharray: 3.7,1.6; stroke-dashoffset: 0; stroke: #808080"/>
   </g>
   <g id="line2d_15">
    <path d="M 416.238954 180.491654 
L 416.238954 7.2 
" clip-path="url(#p784d13ce1a)" style="fill: none; stroke-dasharray: 3.7,1.6; stroke-dashoffset: 0; stroke: #808080"/>
   </g>
   <g id="patch_6">
    <path d="M 60.044063 180.491654 
L 60.044063 7.2 
" style="fill: none; stroke: #000000; stroke-width: 0.8; stroke-linejoin: miter; stroke-linecap: square"/>
   </g>
   <g id="patch_7">
    <path d="M 60.044063 180.491654 
L 487.764033 180.491654 
" style="fill: none; stroke: #000000; stroke-width: 0.8; stroke-linejoin: miter; stroke-linecap: square"/>
   </g>
   <g id="text_15">
    <text style="font: 11px 'Arial'; text-anchor: middle" x="94.3761" y="67.62588" transform="rotate(-0 94.3761 67.62588)">Exploration</text>
   </g>
   <g id="text_16">
    <text style="font: 11px 'Arial'; text-anchor: middle" x="273.188797" y="67.62588" transform="rotate(-0 273.188797 67.62588)">Refinement</text>
   </g>
   <g id="text_17">
    <text style="font: 11px 'Arial'; text-anchor: middle" x="452.001494" y="67.62588" transform="rotate(-0 452.001494 67.62588)">Stabilization</text>
   </g>
  </g>
 </g>
 <defs>
  <clipPath id="p784d13ce1a">
   <rect x="60.044063" y="7.2" width="427.71997" height="173.291654"/>
  </clipPath>
 </defs>
</svg>
